<?xml version="1.0" encoding="utf-8"?>
<!-- Generator: Adobe Illustrator 16.0.0, SVG Export Plug-In . SVG Version: 6.00 Build 0)  -->
<!DOCTYPE svg PUBLIC "-//W3C//DTD SVG 1.1//EN" "http://www.w3.org/Graphics/SVG/1.1/DTD/svg11.dtd">
<svg version="1.1" id="Layer_1" xmlns="http://www.w3.org/2000/svg" xmlns:xlink="http://www.w3.org/1999/xlink" x="0px" y="0px"
	 width="50px" height="50px" viewBox="0 0 50 50" enable-background="new 0 0 50 50" xml:space="preserve">
<g>
	<defs>
		<rect id="SVGID_1_" y="-0.157" width="50.314" height="50.315"/>
	</defs>
	<clipPath id="SVGID_2_">
		<use xlink:href="#SVGID_1_"  overflow="visible"/>
	</clipPath>
	<path clip-path="url(#SVGID_2_)" fill="none" stroke="#231F20" stroke-width="0.227" d="M30.75,27.473
		c0,0-0.511,9.023-1.701,14.643L28.083,42l-1.135,0.455l-1.305-0.285l-0.795,0.172c0,0-1.192-5.563-1.759-14.643L30.75,27.473z"/>
</g>
<polyline fill="#231F20" points="29.559,43.248 30.41,43.93 30.75,44.611 30.297,44.951 29.502,44.838 28.537,44.555 28.082,43.986 
	27.572,43.873 27.062,43.646 26.097,44.156 25.529,44.781 24.792,45.35 23.883,45.404 23.486,44.781 23.656,44.215 24.167,43.533 
	24.677,42.908 24.849,42.342 25.643,42.172 "/>
<g>
	<defs>
		<rect id="SVGID_3_" y="-0.157" width="50.314" height="50.315"/>
	</defs>
	<clipPath id="SVGID_4_">
		<use xlink:href="#SVGID_3_"  overflow="visible"/>
	</clipPath>
	<path clip-path="url(#SVGID_4_)" fill="#231F20" d="M26.04,42.27l0.907,0.186l1.306-0.342h0.795c0,0,0.341,0.682,0.511,1.135
		c0,0,0.51,0.568,0.852,0.682c0,0,0.965,1.135-0.568,1.078c0,0-1.305-0.113-1.759-1.021c0,0-0.965,0-1.022-0.34
		c0,0-0.623,0.453-0.963,0.51c0,0-0.796,1.023-1.306,1.193c0,0-1.76,0.908-1.192-1.363c0,0,0.794-0.795,0.965-0.908
		c0.17-0.113-0.057,0.285-0.057,0.285s0.284-0.795,0.34-1.021l0.795-0.17"/>
	<path clip-path="url(#SVGID_4_)" fill="none" stroke="#231F20" stroke-width="0.227" d="M25.643,42.17
		c-0.227-0.795-1.206-14.5-1.206-14.5"/>
	<path clip-path="url(#SVGID_4_)" fill="none" stroke="#231F20" stroke-width="0.227" d="M26.381,16.066c0,0,0,10.442,0.396,11.52
		l0.171,14.869l1.306-0.512c0.17-0.568,1.078-14.357,1.078-14.357"/>
	<path clip-path="url(#SVGID_4_)" fill="none" stroke="#231F20" stroke-width="0.227" d="M30.75,27.473l1.021-0.227l-0.057-0.682
		l0.284-0.113c0,0-0.454-2.213-0.737-2.724c-0.285-0.511-0.852,0.851-0.852,0.851l-1.76-0.057c0,0-0.34-0.624,0.057-0.908
		c0,0,1.589-0.397,2.1-0.397c0.512,0,0.455,0.511,0.455,0.511s1.305-1.249,2.666-5.448c0,0,0.058-1.76-1.759-5.789"/>
	<path clip-path="url(#SVGID_4_)" fill="none" stroke="#231F20" stroke-width="0.227" d="M29.898,11.299
		c0,0,1.476,0.057,2.383,0.568c0,0-0.055,0.567-0.34,0.907c0,0-1.588-0.567-2.043-1.135V11.299z"/>
	<polyline clip-path="url(#SVGID_4_)" fill="none" stroke="#231F20" stroke-width="0.227" points="29.898,11.299 28.197,10.845 
		27.969,9.824 	"/>
	<path clip-path="url(#SVGID_4_)" fill="none" stroke="#231F20" stroke-width="0.227" d="M28.877,11.015l0.455,1.419l-0.455,0.567
		l0.397,0.851c0,0-1.929,1.079-2.894,2.214C26.381,16.066,27.629,12.15,28.877,11.015z"/>
	<path clip-path="url(#SVGID_4_)" fill="none" stroke="#231F20" stroke-width="0.227" d="M25.586,10.788l0.794,5.278l-2.213-2.214
		l0.795-1.078l-0.568-0.567C24.394,12.207,24.337,11.185,25.586,10.788z"/>
	<polyline clip-path="url(#SVGID_4_)" fill="none" stroke="#231F20" stroke-width="0.227" points="25.586,10.05 25.586,10.789 
		26.324,11.47 25.87,12.207 	"/>
	<polyline clip-path="url(#SVGID_4_)" fill="none" stroke="#231F20" stroke-width="0.227" points="28.196,10.845 27.516,11.299 
		27.912,12.15 	"/>
	<path clip-path="url(#SVGID_4_)" fill="none" stroke="#231F20" stroke-width="0.227" d="M22.521,23.273
		c0.057-0.397,0.113-3.064,0.113-3.064c-0.113-0.681-0.51-2.838-0.51-2.838c-0.284-2.724-5.165-4.937-5.165-4.937
		c-0.624-0.341-0.567-0.795-0.567-0.795l0.397-5.732l2.157,0.057l0.397,4.483l3.178,1.646c0.681-0.227,1.362-0.851,1.362-0.851
		l1.021-0.17"/>
	<polygon clip-path="url(#SVGID_4_)" fill="none" stroke="#231F20" stroke-width="0.227" points="25.132,23.557 25.132,23.557 
		22.238,23.16 22.294,24.068 23.6,24.862 24.905,24.408 	"/>
	<path clip-path="url(#SVGID_4_)" fill="none" stroke="#231F20" stroke-width="0.227" d="M24.735,24.465l-0.057,1.986
		c0,0-1.872,0.227-2.553,0.113l0.283-2.327"/>
	
		<line clip-path="url(#SVGID_4_)" fill="none" stroke="#231F20" stroke-width="0.227" x1="23.373" y1="25.77" x2="23.373" y2="26.508"/>
	<path clip-path="url(#SVGID_4_)" fill="none" stroke="#231F20" stroke-width="0.227" d="M28.82,24.635l0.057,1.816
		c0,0,0.283,0.34,0.795,0.396l2.043-0.283"/>
	
		<line clip-path="url(#SVGID_4_)" fill="none" stroke="#231F20" stroke-width="0.227" x1="30.126" y1="25.374" x2="30.354" y2="26.791"/>
	<path clip-path="url(#SVGID_4_)" fill="none" stroke="#231F20" stroke-width="0.227" d="M31.318,15.271
		c0,0-0.568,5.164-0.228,8.002"/>
	<polyline clip-path="url(#SVGID_4_)" fill="none" stroke="#231F20" stroke-width="0.227" points="31.204,16.917 31.488,18.449 
		31.09,19.471 	"/>
	<circle clip-path="url(#SVGID_4_)" fill="none" stroke="#231F20" stroke-width="0.227" cx="26.807" cy="17.377" r="0.201"/>
	<circle clip-path="url(#SVGID_4_)" fill="none" stroke="#231F20" stroke-width="0.227" cx="26.749" cy="19.307" r="0.2"/>
	<circle clip-path="url(#SVGID_4_)" fill="none" stroke="#231F20" stroke-width="0.227" cx="26.863" cy="21.35" r="0.2"/>
	<circle clip-path="url(#SVGID_4_)" fill="none" stroke="#231F20" stroke-width="0.227" cx="26.977" cy="23.166" r="0.2"/>
	
		<ellipse clip-path="url(#SVGID_4_)" fill="none" stroke="#231F20" stroke-width="0.227" cx="27.118" cy="4.659" rx="0.642" ry="0.481"/>
	<path clip-path="url(#SVGID_4_)" fill="#231F20" d="M27.76,4.659l0.721,0.454l0.623,0.624l0.285,0.568l0.057,0.284l-0.227,0.17
		L28.93,7.878L28.48,6.929c0,0-2.156,0.794-3.462-0.114l-0.34-0.226c0,0-0.59-1.255,1.798-1.93
		C26.477,4.659,27.098,5.794,27.76,4.659"/>
	<path clip-path="url(#SVGID_4_)" fill="none" stroke="#231F20" stroke-width="0.227" d="M28.764,7.44
		c0.127,0.127,0.199,0.246,0.232,0.356"/>
	<path clip-path="url(#SVGID_4_)" fill="none" stroke="#231F20" stroke-width="0.227" d="M28.995,7.796
		c0.142,0.479-0.459,0.779-0.459,0.779c-0.056,1.873-1.759,2.1-1.759,2.1c-1.192,0.17-1.929-2.214-1.929-2.214
		c-0.341-0.17-0.625-0.794-0.057-1.021V6.759"/>
	<polyline clip-path="url(#SVGID_4_)" fill="none" stroke="#231F20" stroke-width="0.227" points="26.721,7.497 26.607,8.689 
		26.947,8.746 	"/>
	<path clip-path="url(#SVGID_4_)" fill="none" stroke="#231F20" stroke-width="0.227" d="M26.381,9.483c0,0,0.567,0.114,0.851,0"/>
	<path clip-path="url(#SVGID_4_)" fill="none" stroke="#231F20" stroke-width="0.227" d="M17.13,5.851l-0.114-0.738
		c0,0-1.532-3.518,1.192-3.405c0,0,0.511,1.022,0.114,2.668l0.397-1.419c0,0,0.681,0.397-0.114,2.554l-0.113,0.453"/>
	<polyline clip-path="url(#SVGID_4_)" fill="none" stroke="#231F20" stroke-width="0.227" points="22.408,26.621 22.408,27.643 
		23.089,27.699 	"/>
	<polyline clip-path="url(#SVGID_4_)" fill="none" stroke="#231F20" stroke-width="0.227" points="22.691,11.98 22.749,11.469 
		23.997,11.015 24.167,11.186 	"/>
	<polygon clip-path="url(#SVGID_4_)" fill="#231F20" points="26.324,11.469 27.516,11.299 27.231,12.434 27.686,13.001 
		26.381,16.066 25.927,12.831 26.437,12.49 	"/>
	<path clip-path="url(#SVGID_4_)" fill="none" stroke="#231F20" stroke-width="0.227" d="M28.48,16.69l2.043-0.057l-0.057,0.908
		l-1.021,0.511c0,0-0.795-0.227-0.908-0.397C28.424,17.484,28.48,16.69,28.48,16.69z"/>
	<polyline clip-path="url(#SVGID_4_)" fill="none" stroke="#231F20" stroke-width="0.227" points="30.126,17.769 30.184,19.415 
		28.48,19.415 28.537,17.654 	"/>
	
		<line clip-path="url(#SVGID_4_)" fill="none" stroke="#231F20" stroke-width="0.227" x1="29.445" y1="19.414" x2="29.445" y2="18.619"/>
	<polygon clip-path="url(#SVGID_4_)" fill="none" stroke="#231F20" stroke-width="0.227" points="22.862,17.031 25.018,16.918 
		24.962,17.769 23.77,18.109 22.862,17.712 	"/>
	<path clip-path="url(#SVGID_4_)" fill="none" stroke="#231F20" stroke-width="0.227" d="M24.848,17.938
		c0,0,0.284,1.362,0.227,1.532c-0.057,0.171-1.986,0.114-1.986,0.114l-0.057-1.703"/>
	
		<line clip-path="url(#SVGID_4_)" fill="none" stroke="#231F20" stroke-width="0.227" x1="24.054" y1="19.641" x2="23.997" y2="18.79"/>
	<path clip-path="url(#SVGID_4_)" fill="none" stroke="#231F20" stroke-width="0.227" d="M29.445,6.589c0,0,1.986-2.497-2.44-3.008
		c-3.575,0.397-3.632,2.781-2.213,3.178"/>
	<path clip-path="url(#SVGID_4_)" fill="#231F20" d="M25.983,7.506c-0.133,0-0.241,0.072-0.241,0.16
		c0,0.089,0.108,0.161,0.241,0.161c0.133,0,0.242-0.072,0.242-0.161C26.225,7.579,26.116,7.506,25.983,7.506"/>
	<path clip-path="url(#SVGID_4_)" fill="#231F20" d="M27.606,7.506c-0.133,0-0.241,0.072-0.241,0.16
		c0,0.089,0.108,0.161,0.241,0.161c0.134,0,0.241-0.072,0.241-0.161C27.848,7.579,27.74,7.506,27.606,7.506"/>
</g>
</svg>
