<?xml version="1.0" encoding="utf-8"?>
<!-- Generator: Adobe Illustrator 16.0.0, SVG Export Plug-In . SVG Version: 6.00 Build 0)  -->
<!DOCTYPE svg PUBLIC "-//W3C//DTD SVG 1.1//EN" "http://www.w3.org/Graphics/SVG/1.1/DTD/svg11.dtd">
<svg version="1.1" id="Layer_1" xmlns="http://www.w3.org/2000/svg" xmlns:xlink="http://www.w3.org/1999/xlink" x="0px" y="0px"
	 width="50px" height="50px" viewBox="0 0 50 50" enable-background="new 0 0 50 50" xml:space="preserve">
<path fill="none" stroke="#231F20" stroke-width="0.227" d="M27.882,27.785c0,0-0.512,9.022-1.702,14.64l-0.966-0.113l-1.135,0.455
	l-1.305-0.285l-0.794,0.17c0,0-1.192-5.561-1.76-14.639L27.882,27.785z"/>
<rect y="-0.04" fill="none" width="50.315" height="50.315"/>
<polyline fill="#231F20" points="26.689,43.56 27.541,44.241 27.882,44.923 27.428,45.263 26.633,45.149 25.669,44.865 
	25.215,44.298 24.704,44.185 24.192,43.957 23.229,44.468 22.661,45.093 21.923,45.66 21.015,45.716 20.617,45.093 20.789,44.525 
	21.299,43.845 21.81,43.22 21.979,42.652 22.774,42.482 "/>
<path fill="#231F20" d="M23.172,42.581l0.907,0.186l1.306-0.342h0.794c0,0,0.341,0.682,0.511,1.136c0,0,0.511,0.567,0.851,0.681
	c0,0,0.966,1.135-0.566,1.078c0,0-1.306-0.113-1.759-1.021c0,0-0.966,0-1.022-0.34c0,0-0.624,0.453-0.964,0.51
	c0,0-0.795,1.021-1.305,1.192c0,0-1.76,0.907-1.192-1.362c0,0,0.794-0.795,0.965-0.908c0.17-0.113-0.057,0.283-0.057,0.283
	s0.284-0.793,0.34-1.021l0.795-0.17"/>
<path fill="none" stroke="#231F20" stroke-width="0.227" d="M22.774,42.481c-0.228-0.793-1.206-14.498-1.206-14.498"/>
<path fill="none" stroke="#231F20" stroke-width="0.227" d="M23.512,16.379c0,0,0,10.441,0.397,11.519l0.17,14.866l1.306-0.51
	c0.17-0.567,1.078-14.356,1.078-14.356"/>
<path fill="none" stroke="#231F20" stroke-width="0.227" d="M27.882,27.785l1.021-0.228l-0.056-0.681l0.282-0.112
	c0,0-0.453-2.213-0.736-2.725c-0.284-0.511-0.852,0.851-0.852,0.851l-1.76-0.057c0,0-0.34-0.624,0.057-0.908
	c0,0,1.59-0.397,2.101-0.397c0.51,0,0.454,0.511,0.454,0.511s1.305-1.249,2.667-5.448c0,0,0.056-1.759-1.759-5.788"/>
<path fill="none" stroke="#231F20" stroke-width="0.227" d="M27.03,11.613c0,0,1.475,0.057,2.383,0.567c0,0-0.056,0.568-0.34,0.908
	c0,0-1.589-0.567-2.043-1.135V11.613z"/>
<polyline fill="none" stroke="#231F20" stroke-width="0.227" points="27.03,11.613 25.328,11.159 25.102,10.138 "/>
<path fill="none" stroke="#231F20" stroke-width="0.227" d="M26.009,11.329l0.454,1.419l-0.454,0.567l0.396,0.851
	c0,0-1.929,1.078-2.894,2.213C23.512,16.379,24.761,12.464,26.009,11.329z"/>
<path fill="none" stroke="#231F20" stroke-width="0.227" d="M22.718,11.102l0.794,5.277l-2.213-2.213l0.795-1.078l-0.568-0.567
	C21.525,12.521,21.47,11.499,22.718,11.102z"/>
<polyline fill="none" stroke="#231F20" stroke-width="0.227" points="22.718,10.364 22.718,11.103 23.455,11.783 23.001,12.521 "/>
<polyline fill="none" stroke="#231F20" stroke-width="0.227" points="25.328,11.159 24.646,11.613 25.044,12.464 "/>
<path fill="none" stroke="#231F20" stroke-width="0.227" d="M19.653,23.586c0.057-0.397,0.113-3.064,0.113-3.064
	c-0.113-0.681-0.511-2.837-0.511-2.837c-0.283-2.724-2.724-1.589-2.724-1.589c-1.021,0.283-2.554,0.056-2.554,0.056l-4.88-1.021
	l0.113-2.043l5.731,0.454l4.54-1.419c0.681-0.226,1.532-0.567,1.532-0.567l1.021-0.17"/>
<polygon fill="none" stroke="#231F20" stroke-width="0.227" points="22.264,23.87 22.264,23.87 19.369,23.473 19.427,24.381 
	20.731,25.175 22.036,24.721 "/>
<path fill="none" stroke="#231F20" stroke-width="0.227" d="M21.866,24.777l-0.057,1.986c0,0-1.872,0.228-2.553,0.114l0.282-2.327"
	/>
<line fill="none" stroke="#231F20" stroke-width="0.227" x1="20.505" y1="26.083" x2="20.505" y2="26.821"/>
<path fill="none" stroke="#231F20" stroke-width="0.227" d="M25.952,24.948l0.057,1.816c0,0,0.283,0.341,0.794,0.397l2.043-0.284"/>
<line fill="none" stroke="#231F20" stroke-width="0.227" x1="27.257" y1="25.686" x2="27.484" y2="27.104"/>
<path fill="none" stroke="#231F20" stroke-width="0.227" d="M28.449,15.585c0,0-0.567,5.164-0.228,8.001"/>
<polyline fill="none" stroke="#231F20" stroke-width="0.227" points="28.335,17.23 28.619,18.762 28.223,19.785 "/>
<circle fill="none" stroke="#231F20" stroke-width="0.227" cx="23.938" cy="17.691" r="0.2"/>
<circle fill="none" stroke="#231F20" stroke-width="0.227" cx="23.881" cy="19.62" r="0.2"/>
<circle fill="none" stroke="#231F20" stroke-width="0.227" cx="23.994" cy="21.663" r="0.2"/>
<circle fill="none" stroke="#231F20" stroke-width="0.227" cx="24.107" cy="23.479" r="0.201"/>
<ellipse fill="none" stroke="#231F20" stroke-width="0.227" cx="24.25" cy="4.974" rx="0.643" ry="0.481"/>
<path fill="#231F20" d="M24.892,4.974l0.72,0.454l0.624,0.624L26.52,6.62l0.056,0.283l-0.227,0.171l-0.288,1.119l-0.449-0.949
	c0,0-2.156,0.794-3.462-0.114l-0.34-0.227c0,0-0.589-1.254,1.798-1.929C23.607,4.974,24.229,6.108,24.892,4.974"/>
<path fill="none" stroke="#231F20" stroke-width="0.227" d="M25.896,7.754C26.022,7.881,26.095,8,26.127,8.11"/>
<path fill="none" stroke="#231F20" stroke-width="0.227" d="M26.127,8.11c0.142,0.478-0.459,0.779-0.459,0.779
	c-0.057,1.872-1.76,2.099-1.76,2.099c-1.19,0.171-1.929-2.213-1.929-2.213c-0.34-0.17-0.624-0.794-0.057-1.021V7.073"/>
<polyline fill="none" stroke="#231F20" stroke-width="0.227" points="23.853,7.811 23.739,9.003 24.079,9.059 "/>
<path fill="none" stroke="#231F20" stroke-width="0.227" d="M23.512,9.797c0,0,0.567,0.113,0.852,0"/>
<path fill="none" stroke="#231F20" stroke-width="0.227" d="M9.099,14.847l-0.625,0.006c0,0-3.858,0.221-2.85-1.91
	c0,0,0.956-0.53,2.414,0.332L6.797,12.48c0,0,0.58-0.535,2.409,0.857"/>
<polyline fill="none" stroke="#231F20" stroke-width="0.227" points="19.54,26.935 19.54,27.955 20.221,28.012 "/>
<polyline fill="none" stroke="#231F20" stroke-width="0.227" points="19.086,12.18 19.313,11.613 21.242,11.045 21.525,11.442 "/>
<polygon fill="#231F20" points="23.455,11.783 24.647,11.613 24.363,12.748 24.817,13.315 23.512,16.379 23.059,13.145 
	23.568,12.804 "/>
<path fill="none" stroke="#231F20" stroke-width="0.227" d="M25.611,17.003l2.043-0.057l-0.057,0.908l-1.021,0.511
	c0,0-0.795-0.227-0.907-0.397C25.555,17.797,25.611,17.003,25.611,17.003z"/>
<polyline fill="none" stroke="#231F20" stroke-width="0.227" points="27.257,18.082 27.314,19.728 25.611,19.728 25.668,17.969 "/>
<line fill="none" stroke="#231F20" stroke-width="0.227" x1="26.576" y1="19.727" x2="26.576" y2="18.933"/>
<polygon fill="none" stroke="#231F20" stroke-width="0.227" points="19.994,17.344 22.149,17.231 22.094,18.082 20.901,18.422 
	19.994,18.025 "/>
<path fill="none" stroke="#231F20" stroke-width="0.227" d="M21.979,18.252c0,0,0.284,1.362,0.228,1.532
	c-0.058,0.17-1.986,0.114-1.986,0.114l-0.057-1.703"/>
<line fill="none" stroke="#231F20" stroke-width="0.227" x1="21.186" y1="19.954" x2="21.128" y2="19.103"/>
<path fill="none" stroke="#231F20" stroke-width="0.227" d="M26.576,6.903c0,0,1.986-2.497-2.44-3.008
	c-3.574,0.398-3.632,2.781-2.213,3.178"/>
<path fill="#231F20" d="M23.114,7.821c-0.133,0-0.24,0.072-0.24,0.16c0,0.089,0.107,0.161,0.24,0.161
	c0.134,0,0.241-0.072,0.241-0.161C23.355,7.893,23.248,7.821,23.114,7.821"/>
<path fill="#231F20" d="M24.738,7.821c-0.134,0-0.241,0.072-0.241,0.16c0,0.089,0.107,0.161,0.241,0.161
	c0.133,0,0.24-0.072,0.24-0.161C24.979,7.893,24.871,7.821,24.738,7.821"/>
<rect y="-0.04" fill="none" width="50.315" height="50.315"/>
</svg>
