<?xml version="1.0" encoding="utf-8"?>
<!-- Generator: Adobe Illustrator 16.0.0, SVG Export Plug-In . SVG Version: 6.00 Build 0)  -->
<!DOCTYPE svg PUBLIC "-//W3C//DTD SVG 1.1//EN" "http://www.w3.org/Graphics/SVG/1.1/DTD/svg11.dtd">
<svg version="1.1" id="Layer_1" xmlns="http://www.w3.org/2000/svg" xmlns:xlink="http://www.w3.org/1999/xlink" x="0px" y="0px"
	 width="50px" height="50px" viewBox="0 0 50 50" enable-background="new 0 0 50 50" xml:space="preserve">
<path fill="none" stroke="#231F20" stroke-width="0.227" d="M18.233,27.667c0,0,0.511,9.023,1.702,14.641l0.965-0.113l1.135,0.455
	l1.306-0.285l0.794,0.17c0,0,1.191-5.561,1.76-14.639L18.233,27.667z"/>
<rect x="-0.143" y="-0.157" fill="none" width="50.314" height="50.314"/>
<polyline fill="#231F20" points="19.425,43.442 18.574,44.124 18.233,44.806 18.688,45.146 19.482,45.032 20.446,44.747 
	20.9,44.181 21.411,44.067 21.922,43.839 22.886,44.351 23.454,44.976 24.192,45.542 25.1,45.599 25.497,44.976 25.326,44.407 
	24.816,43.728 24.305,43.103 24.135,42.534 23.34,42.364 "/>
<path fill="#231F20" d="M22.943,42.464l-0.908,0.186l-1.305-0.342h-0.794c0,0-0.341,0.682-0.511,1.135c0,0-0.512,0.568-0.852,0.682
	c0,0-0.965,1.135,0.567,1.078c0,0,1.305-0.113,1.759-1.021c0,0,0.965,0,1.021-0.34c0,0,0.624,0.453,0.965,0.51
	c0,0,0.795,1.021,1.305,1.191c0,0,1.759,0.908,1.192-1.361c0,0-0.795-0.795-0.966-0.908c-0.17-0.113,0.058,0.283,0.058,0.283
	s-0.284-0.793-0.34-1.021l-0.796-0.17"/>
<path fill="none" stroke="#231F20" stroke-width="0.227" d="M23.341,42.364c0.227-0.793,1.206-14.498,1.206-14.498"/>
<path fill="none" stroke="#231F20" stroke-width="0.227" d="M22.603,16.262c0,0,0,10.44-0.396,11.519l-0.17,14.867l-1.307-0.51
	c-0.17-0.568-1.078-14.357-1.078-14.357"/>
<path fill="none" stroke="#231F20" stroke-width="0.227" d="M18.233,27.667l-1.021-0.227l0.056-0.682l-0.283-0.111
	c0,0,0.454-2.214,0.737-2.725c0.284-0.511,0.851,0.851,0.851,0.851l1.76-0.057c0,0,0.341-0.624-0.057-0.908
	c0,0-1.589-0.397-2.1-0.397s-0.454,0.511-0.454,0.511s-1.306-1.249-2.667-5.448c0,0-0.057-1.759,1.759-5.788"/>
<path fill="none" stroke="#231F20" stroke-width="0.227" d="M19.085,11.495c0,0-1.476,0.057-2.384,0.567
	c0,0,0.057,0.568,0.341,0.908c0,0,1.589-0.567,2.043-1.135V11.495z"/>
<polyline fill="none" stroke="#231F20" stroke-width="0.227" points="19.085,11.495 20.786,11.041 21.014,10.02 "/>
<path fill="none" stroke="#231F20" stroke-width="0.227" d="M20.106,11.211l-0.454,1.419l0.454,0.567l-0.397,0.851
	c0,0,1.929,1.078,2.894,2.213C22.603,16.261,21.354,12.346,20.106,11.211z"/>
<path fill="none" stroke="#231F20" stroke-width="0.227" d="M23.397,10.984l-0.794,5.277l2.213-2.213l-0.795-1.078l0.567-0.567
	C24.589,12.403,24.646,11.381,23.397,10.984z"/>
<polyline fill="none" stroke="#231F20" stroke-width="0.227" points="23.397,10.247 23.397,10.985 22.659,11.666 23.113,12.403 "/>
<polyline fill="none" stroke="#231F20" stroke-width="0.227" points="20.787,11.041 21.468,11.495 21.071,12.346 "/>
<path fill="none" stroke="#231F20" stroke-width="0.227" d="M26.462,23.468c-0.058-0.397-0.113-3.064-0.113-3.064
	c0.113-0.681,0.51-2.837,0.51-2.837c0.284-2.724,2.724-1.589,2.724-1.589c1.021,0.283,2.555,0.056,2.555,0.056l4.88-1.021
	l-0.114-2.043l-5.73,0.454l-4.54-1.419c-0.682-0.226-1.532-0.567-1.532-0.567l-1.021-0.17"/>
<polygon fill="none" stroke="#231F20" stroke-width="0.227" points="23.852,23.752 23.852,23.752 26.745,23.355 26.688,24.263 
	25.383,25.057 24.078,24.603 "/>
<path fill="none" stroke="#231F20" stroke-width="0.227" d="M24.248,24.66l0.058,1.986c0,0,1.872,0.229,2.553,0.115l-0.283-2.328"/>
<line fill="none" stroke="#231F20" stroke-width="0.227" x1="25.61" y1="25.966" x2="25.61" y2="26.704"/>
<path fill="none" stroke="#231F20" stroke-width="0.227" d="M20.163,24.83l-0.058,1.815c0,0-0.283,0.342-0.794,0.398l-2.043-0.285"
	/>
<line fill="none" stroke="#231F20" stroke-width="0.227" x1="18.857" y1="25.568" x2="18.631" y2="26.987"/>
<path fill="none" stroke="#231F20" stroke-width="0.227" d="M17.666,15.467c0,0,0.567,5.164,0.227,8.001"/>
<polyline fill="none" stroke="#231F20" stroke-width="0.227" points="17.779,17.113 17.495,18.645 17.893,19.667 "/>
<circle fill="none" stroke="#231F20" stroke-width="0.227" cx="22.177" cy="17.573" r="0.2"/>
<circle fill="none" stroke="#231F20" stroke-width="0.227" cx="22.234" cy="19.502" r="0.2"/>
<circle fill="none" stroke="#231F20" stroke-width="0.227" cx="22.12" cy="21.545" r="0.2"/>
<circle fill="none" stroke="#231F20" stroke-width="0.227" cx="22.007" cy="23.361" r="0.201"/>
<ellipse fill="none" stroke="#231F20" stroke-width="0.227" cx="21.865" cy="4.856" rx="0.642" ry="0.481"/>
<path fill="#231F20" d="M21.223,4.856l-0.72,0.454l-0.624,0.624l-0.284,0.568l-0.056,0.283l0.228,0.171l0.287,1.119l0.449-0.949
	c0,0,2.157,0.794,3.462-0.114l0.34-0.227c0,0,0.59-1.254-1.798-1.929C22.507,4.856,21.886,5.991,21.223,4.856"/>
<path fill="none" stroke="#231F20" stroke-width="0.227" d="M20.22,7.636c-0.127,0.127-0.199,0.246-0.232,0.356"/>
<path fill="none" stroke="#231F20" stroke-width="0.227" d="M19.988,7.993c-0.143,0.478,0.458,0.779,0.458,0.779
	c0.057,1.872,1.76,2.099,1.76,2.099c1.191,0.171,1.929-2.213,1.929-2.213c0.34-0.17,0.624-0.794,0.058-1.021V6.956"/>
<polyline fill="none" stroke="#231F20" stroke-width="0.227" points="22.263,7.693 22.375,8.885 22.035,8.941 "/>
<path fill="none" stroke="#231F20" stroke-width="0.227" d="M22.603,9.679c0,0-0.566,0.113-0.851,0"/>
<path fill="none" stroke="#231F20" stroke-width="0.227" d="M37.016,14.729l0.625,0.006c0,0,3.858,0.221,2.851-1.91
	c0,0-0.956-0.53-2.413,0.332l1.24-0.795c0,0-0.58-0.535-2.409,0.857"/>
<polyline fill="none" stroke="#231F20" stroke-width="0.227" points="26.575,26.817 26.575,27.837 25.894,27.894 "/>
<polyline fill="none" stroke="#231F20" stroke-width="0.227" points="27.029,12.063 26.802,11.496 24.873,10.928 24.589,11.325 "/>
<polygon fill="#231F20" points="22.659,11.665 21.468,11.495 21.752,12.63 21.298,13.197 22.603,16.261 23.057,13.027 
	22.547,12.687 "/>
<path fill="none" stroke="#231F20" stroke-width="0.227" d="M20.503,16.886l-2.043-0.057l0.058,0.908l1.021,0.511
	c0,0,0.795-0.227,0.908-0.397C20.561,17.68,20.503,16.886,20.503,16.886z"/>
<polyline fill="none" stroke="#231F20" stroke-width="0.227" points="18.857,17.964 18.801,19.61 20.504,19.61 20.446,17.851 "/>
<line fill="none" stroke="#231F20" stroke-width="0.227" x1="19.538" y1="19.609" x2="19.538" y2="18.815"/>
<polygon fill="none" stroke="#231F20" stroke-width="0.227" points="26.121,17.226 23.965,17.113 24.021,17.964 25.213,18.304 
	26.121,17.907 "/>
<path fill="none" stroke="#231F20" stroke-width="0.227" d="M24.135,18.134c0,0-0.284,1.362-0.227,1.532
	c0.057,0.17,1.985,0.114,1.985,0.114l0.058-1.703"/>
<line fill="none" stroke="#231F20" stroke-width="0.227" x1="24.93" y1="19.836" x2="24.986" y2="18.985"/>
<path fill="none" stroke="#231F20" stroke-width="0.227" d="M19.538,6.785c0,0-1.985-2.497,2.44-3.008
	c3.575,0.398,3.632,2.781,2.213,3.178"/>
<path fill="#231F20" d="M23,7.703c0.133,0,0.241,0.072,0.241,0.16c0,0.089-0.108,0.161-0.241,0.161s-0.241-0.072-0.241-0.161
	C22.759,7.775,22.867,7.703,23,7.703"/>
<path fill="#231F20" d="M21.377,7.703c0.133,0,0.241,0.072,0.241,0.16c0,0.089-0.108,0.161-0.241,0.161s-0.241-0.072-0.241-0.161
	C21.136,7.775,21.244,7.703,21.377,7.703"/>
<rect x="-0.143" y="-0.157" fill="none" width="50.314" height="50.314"/>
</svg>
