<?xml version="1.0" encoding="utf-8"?>
<!-- Generator: Adobe Illustrator 16.0.0, SVG Export Plug-In . SVG Version: 6.00 Build 0)  -->
<!DOCTYPE svg PUBLIC "-//W3C//DTD SVG 1.1//EN" "http://www.w3.org/Graphics/SVG/1.1/DTD/svg11.dtd">
<svg version="1.1" id="Layer_1" xmlns="http://www.w3.org/2000/svg" xmlns:xlink="http://www.w3.org/1999/xlink" x="0px" y="0px"
	 width="50px" height="50px" viewBox="0 0 50 50" enable-background="new 0 0 50 50" xml:space="preserve">
<path fill="none" stroke="#231F20" stroke-width="0.227" d="M27.382,25.828c0,0-0.512,9.021-1.703,14.639l-0.965-0.113l-1.135,0.455
	l-1.305-0.285l-0.795,0.17c0,0-1.191-5.561-1.76-14.639L27.382,25.828z"/>
<rect x="-0.157" y="0.046" fill="none" width="50.314" height="50.315"/>
<polyline fill="#231F20" points="26.189,41.602 27.04,42.283 27.382,42.965 26.927,43.305 26.132,43.191 25.169,42.908 
	24.714,42.34 24.204,42.227 23.692,42 22.729,42.51 22.161,43.135 21.423,43.703 20.516,43.758 20.117,43.135 20.288,42.568 
	20.798,41.887 21.31,41.262 21.479,40.695 22.274,40.523 "/>
<path fill="#231F20" d="M22.671,40.623l0.908,0.186l1.305-0.342h0.795c0,0,0.341,0.682,0.511,1.135c0,0,0.511,0.568,0.851,0.682
	c0,0,0.965,1.135-0.566,1.078c0,0-1.305-0.113-1.76-1.021c0,0-0.965,0-1.021-0.34c0,0-0.624,0.453-0.964,0.51
	c0,0-0.795,1.021-1.306,1.193c0,0-1.758,0.906-1.191-1.363c0,0,0.794-0.795,0.965-0.908c0.17-0.113-0.057,0.283-0.057,0.283
	s0.283-0.793,0.34-1.02l0.795-0.17"/>
<path fill="none" stroke="#231F20" stroke-width="0.227" d="M22.274,40.523c-0.228-0.793-1.206-14.498-1.206-14.498"/>
<path fill="none" stroke="#231F20" stroke-width="0.227" d="M23.012,14.421c0,0,0,10.442,0.397,11.52l0.17,14.865l1.306-0.51
	c0.17-0.566,1.078-14.355,1.078-14.355"/>
<path fill="none" stroke="#231F20" stroke-width="0.227" d="M27.382,25.828l1.021-0.229l-0.056-0.68l0.282-0.113
	c0,0-0.454-2.213-0.737-2.724c-0.283-0.512-0.851,0.851-0.851,0.851l-1.76-0.057c0,0-0.341-0.624,0.057-0.908
	c0,0,1.589-0.397,2.101-0.397c0.51,0,0.453,0.512,0.453,0.512"/>
<polyline fill="none" stroke="#231F20" stroke-width="0.227" points="26.53,9.655 24.828,9.201 24.632,8.322 "/>
<path fill="none" stroke="#231F20" stroke-width="0.227" d="M25.426,9.428l0.537,1.362l-0.454,0.567l0.396,0.851
	c0,0-1.928,1.079-2.894,2.214C23.012,14.422,24.178,10.563,25.426,9.428z"/>
<path fill="none" stroke="#231F20" stroke-width="0.227" d="M22.218,9.144l0.793,5.277l-2.213-2.213l0.795-1.078l-0.567-0.567
	C21.025,10.563,20.97,9.541,22.218,9.144z"/>
<polyline fill="none" stroke="#231F20" stroke-width="0.227" points="22.218,8.407 22.218,9.145 22.956,9.826 22.501,10.563 "/>
<polyline fill="none" stroke="#231F20" stroke-width="0.227" points="24.827,9.201 24.146,9.655 24.544,10.506 "/>
<path fill="none" stroke="#231F20" stroke-width="0.227" d="M19.153,21.628c0.057-0.397,0.113-3.064,0.113-3.064
	c-0.113-0.681-0.51-2.837-0.51-2.837c-0.285-2.724-2.725-1.589-2.725-1.589c-1.021,0.283-2.553,0.056-2.553,0.056l-4.881-1.021
	l0.114-2.043l5.731,0.454l4.54-1.419c0.681-0.226,1.531-0.567,1.531-0.567l1.021-0.17"/>
<polygon fill="none" stroke="#231F20" stroke-width="0.227" points="21.763,21.912 21.763,21.912 18.87,21.515 18.927,22.422 
	20.231,23.217 21.536,22.763 "/>
<path fill="none" stroke="#231F20" stroke-width="0.227" d="M21.366,22.82l-0.057,1.987c0,0-1.873,0.227-2.553,0.113l0.282-2.328"/>
<line fill="none" stroke="#231F20" stroke-width="0.227" x1="20.005" y1="24.125" x2="20.005" y2="24.863"/>
<path fill="none" stroke="#231F20" stroke-width="0.227" d="M25.452,22.99l0.057,1.817c0,0,0.283,0.34,0.794,0.396l2.043-0.283"/>
<line fill="none" stroke="#231F20" stroke-width="0.227" x1="26.757" y1="23.728" x2="26.983" y2="25.146"/>
<circle fill="none" stroke="#231F20" stroke-width="0.227" cx="23.438" cy="15.733" r="0.2"/>
<circle fill="none" stroke="#231F20" stroke-width="0.227" cx="23.381" cy="17.662" r="0.2"/>
<circle fill="none" stroke="#231F20" stroke-width="0.227" cx="23.494" cy="19.705" r="0.201"/>
<circle fill="none" stroke="#231F20" stroke-width="0.227" cx="23.607" cy="21.521" r="0.201"/>
<path fill="#231F20" d="M24.392,3.016l0.72,0.454l0.624,0.624l0.284,0.568l0.056,0.283l-0.227,0.171l-0.288,1.119l-0.449-0.949
	c0,0-2.155,0.794-3.461-0.114L21.31,4.945c0,0-0.589-1.254,1.798-1.929C23.107,3.016,23.729,4.151,24.392,3.016"/>
<path fill="none" stroke="#231F20" stroke-width="0.227" d="M25.396,5.796c0.127,0.127,0.199,0.246,0.231,0.356"/>
<path fill="none" stroke="#231F20" stroke-width="0.227" d="M25.627,6.152c0.142,0.478-0.46,0.779-0.46,0.779
	c-0.055,1.872-1.758,2.099-1.758,2.099c-1.191,0.171-1.93-2.213-1.93-2.213c-0.34-0.17-0.624-0.794-0.057-1.021V5.115"/>
<polyline fill="none" stroke="#231F20" stroke-width="0.227" points="23.353,5.853 23.239,7.045 23.579,7.101 "/>
<path fill="none" stroke="#231F20" stroke-width="0.227" d="M23.012,7.839c0,0,0.567,0.113,0.851,0"/>
<path fill="none" stroke="#231F20" stroke-width="0.227" d="M8.599,12.889l-0.625,0.006c0,0-3.858,0.221-2.85-1.91
	c0,0,0.956-0.53,2.413,0.332l-1.24-0.795c0,0,0.58-0.535,2.409,0.857"/>
<polyline fill="none" stroke="#231F20" stroke-width="0.227" points="19.04,24.977 19.04,25.998 19.721,26.055 "/>
<polyline fill="#231F20" points="18.586,10.222 18.645,9.768 20.764,9.276 21.026,9.484 "/>
<polyline fill="none" stroke="#231F20" stroke-width="0.227" points="18.586,10.222 18.645,9.768 20.764,9.276 21.026,9.484 "/>
<path fill="none" stroke="#231F20" stroke-width="0.227" d="M27.685,10.166l7.073,1.419l4.653-0.653l0.142,2.015
	c0,0-3.319,1.248-4.284,1.447c-0.965,0.198-2.496-0.086-3.518-0.369c0,0-3.66-0.993-3.943,1.73c0,0-0.427,3.036-0.086,5.874"/>
<path fill="none" stroke="#231F20" stroke-width="0.227" d="M39.587,12.875l0.625,0.006c0,0,3.034,0.087,2.85-1.91
	c-0.045-0.862-2.413,0.332-2.413,0.332c0.524-0.428,1.403-0.542,1.403-0.542c-0.254-0.227-0.744-0.788-2.572,0.604"/>
<polygon fill="#231F20" points="22.955,9.825 24.147,9.655 23.863,10.79 24.317,11.357 23.013,14.421 22.558,11.187 23.068,10.846 
	"/>
<path fill="none" stroke="#231F20" stroke-width="0.227" d="M25.111,15.046l2.043-0.057l-0.057,0.908l-1.021,0.511
	c0,0-0.795-0.227-0.907-0.397C25.054,15.84,25.111,15.046,25.111,15.046z"/>
<polyline fill="none" stroke="#231F20" stroke-width="0.227" points="26.757,16.124 26.813,17.77 25.11,17.77 25.168,16.011 "/>
<line fill="none" stroke="#231F20" stroke-width="0.227" x1="26.076" y1="17.77" x2="26.076" y2="16.976"/>
<polygon fill="none" stroke="#231F20" stroke-width="0.227" points="19.493,15.386 21.649,15.273 21.594,16.124 20.401,16.464 
	19.493,16.067 "/>
<path fill="none" stroke="#231F20" stroke-width="0.227" d="M21.479,16.294c0,0,0.284,1.362,0.227,1.532
	c-0.057,0.17-1.985,0.114-1.985,0.114l-0.058-1.703"/>
<line fill="none" stroke="#231F20" stroke-width="0.227" x1="20.686" y1="17.997" x2="20.628" y2="17.146"/>
<path fill="none" stroke="#231F20" stroke-width="0.227" d="M26.076,4.945c0,0,1.985-2.497-2.44-3.007
	c-3.574,0.397-3.632,2.78-2.213,3.177"/>
<path fill="#231F20" d="M22.614,5.863c-0.133,0-0.24,0.072-0.24,0.16c0,0.089,0.107,0.161,0.24,0.161s0.241-0.072,0.241-0.161
	C22.855,5.935,22.747,5.863,22.614,5.863"/>
<path fill="#231F20" d="M24.237,5.863c-0.133,0-0.24,0.072-0.24,0.16c0,0.089,0.107,0.161,0.24,0.161s0.242-0.072,0.242-0.161
	C24.479,5.935,24.37,5.863,24.237,5.863"/>
<path fill="#FFFFFF" d="M26.53,9.655c0,0,1.475,0.057,2.383,0.567c0,0-0.057,0.568-0.34,0.908c0,0-1.59-0.567-2.043-1.135V9.655z"/>
<path fill="none" stroke="#231F20" stroke-width="0.227" d="M26.53,9.655c0,0,1.475,0.057,2.383,0.567c0,0-0.057,0.568-0.34,0.908
	c0,0-1.59-0.567-2.043-1.135V9.655z"/>
<rect x="-0.157" y="0.046" fill="none" width="50.314" height="50.315"/>
</svg>
