<?xml version="1.0" encoding="utf-8"?>
<!-- Generator: Adobe Illustrator 16.0.0, SVG Export Plug-In . SVG Version: 6.00 Build 0)  -->
<!DOCTYPE svg PUBLIC "-//W3C//DTD SVG 1.1//EN" "http://www.w3.org/Graphics/SVG/1.1/DTD/svg11.dtd">
<svg version="1.1" id="Layer_1" xmlns="http://www.w3.org/2000/svg" xmlns:xlink="http://www.w3.org/1999/xlink" x="0px" y="0px"
	 width="50px" height="50px" viewBox="0 0 50 50" enable-background="new 0 0 50 50" xml:space="preserve">
<circle fill="none" stroke="#231F20" stroke-width="0.227" cx="16.144" cy="3.948" r="2.247"/>
<circle fill="none" stroke="#231F20" stroke-width="0.227" cx="16.144" cy="3.948" r="3.103"/>
<path fill="#231F20" d="M17.71,4.296c0.125,0.01,0.234-0.084,0.244-0.209c0.009-0.125-0.084-0.234-0.209-0.244l-3.169-0.242
	c-0.125-0.01-0.234,0.084-0.243,0.209c-0.01,0.125,0.084,0.234,0.209,0.243L17.71,4.296z"/>
<path fill="none" stroke="#231F20" stroke-width="0.227" d="M17.71,4.296c0.125,0.01,0.234-0.084,0.244-0.209
	c0.009-0.125-0.084-0.234-0.209-0.244l-3.169-0.242c-0.125-0.01-0.234,0.084-0.243,0.209c-0.01,0.125,0.084,0.234,0.209,0.243
	L17.71,4.296z"/>
<polygon fill="#231F20" points="15.407,12.95 15.951,7.108 15.356,7.035 14.813,12.875 "/>
<polygon fill="none" stroke="#231F20" stroke-width="0.227" points="15.407,12.95 15.951,7.108 15.356,7.035 14.813,12.875 "/>
<path fill="none" stroke="#231F20" stroke-width="0.227" d="M14.886,12.857c0,0-0.767,0.143-0.993,0.852
	c-0.228,0.709-0.397,0.993-0.255,1.305c0.141,0.313,0.993,0.483,1.248,0.284s0.624-0.624,0.709-1.078S14.886,12.857,14.886,12.857z"
	/>
<path fill="none" stroke="#231F20" stroke-width="0.227" d="M15.34,12.971c0,0,1.135,0.88,1.305,1.22s0.284,0.369,0.284,0.369
	l0.283-0.199l2.416,1.915c0,0-0.005-1.12,0.677-2.652c0.681-1.533,1.589-2.185,2.241-2.497c0.652-0.312,0.228-0.426,1.106-0.88
	c0.88-0.454,1.022-0.255,1.022-0.255l0.367-0.766"/>
<path fill="none" stroke="#231F20" stroke-width="0.227" d="M24.333,5.623c0,0,0.369,0.142,0.71,0.17
	c0.341,0.029,0.538-0.596,0.538-0.596s0.157,0.581,0.342,0.596c0.184,0.015,0.396-0.652,0.396-0.652S26.787,5.864,27,5.849
	c0.214-0.014,0.567-0.412,0.738-0.596c0.17-0.185-0.288,0.521,0.028,1.021c0.341,0.539,0.596,0.879,0.596,0.879
	s0.199,0.086,0.34-0.197c0.143-0.284,0.369-1.192,0.199-1.816c-0.17-0.625-0.312-1.135-0.993-1.618
	c-0.681-0.481-0.864-0.553-1.39-0.553c-0.496,0-0.61,0.326-0.61,0.326s-0.837-0.142-1.319,0s-0.88,0.284-1.248,0.852
	c-0.369,0.567-0.597,0.993-0.369,1.675c0.227,0.681,0.823,0.907,0.823,0.907s-0.143,0.907,0.198,1.049
	c0.34,0.143,0.283,0.058,0.283,0.058S24.221,8.317,24.532,8.8c0.313,0.482,1.221,0.879,1.73,0.851
	c0.511-0.027,1.135-0.312,1.391-0.88c0.255-0.566,0.198-1.333,0.198-1.333l0.426-0.539"/>
<path fill="none" stroke="#231F20" stroke-width="0.227" d="M26.688,6.558c0,0,0.113-0.312,0.482-0.17
	c0.368,0.143,0.341,0.17,0.341,0.17"/>
<path fill="none" stroke="#231F20" stroke-width="0.227" d="M24.447,6.672c0.057-0.085,0.255-0.454,0.539-0.228
	c0.283,0.228,0.227,0.17,0.227,0.17"/>
<ellipse fill="none" stroke="#231F20" stroke-width="0.227" cx="27.071" cy="6.672" rx="0.101" ry="0.08"/>
<ellipse fill="none" stroke="#231F20" stroke-width="0.227" cx="24.802" cy="6.743" rx="0.101" ry="0.06"/>
<polyline fill="none" stroke="#231F20" stroke-width="0.227" points="25.979,6.729 25.951,7.977 26.376,8.034 "/>
<path fill="none" stroke="#231F20" stroke-width="0.227" d="M25.667,8.544c0.255,0.113,0.852,0.085,1.021,0"/>
<path fill="#231F20" d="M27.512,8.97c0,0-0.028,0.113,0.085,0.596s0.283,0.624,0.283,0.624s0.17-0.255,0.512,0.228
	c0.34,0.481,0.481,1.05,0.481,1.05s0.993,0.851,1.306,0.879c0.312,0.029,0.283-0.028,0.283-0.028l-0.766-2.07
	c0,0-0.085-0.228-0.426-0.483c-0.34-0.255-0.979-0.17-1.291-0.51c-0.313-0.341-0.326-0.483-0.326-0.483L27.512,8.97z"/>
<path fill="none" stroke="#231F20" stroke-width="0.227" d="M27.512,8.97c0,0-0.028,0.113,0.085,0.596s0.283,0.624,0.283,0.624
	s0.17-0.255,0.512,0.228c0.34,0.481,0.481,1.05,0.481,1.05s0.993,0.851,1.306,0.879c0.312,0.029,0.283-0.028,0.283-0.028
	l-0.766-2.07c0,0-0.085-0.228-0.426-0.483c-0.34-0.255-0.979-0.17-1.291-0.51c-0.313-0.341-0.326-0.483-0.326-0.483L27.512,8.97z"/>
<path fill="none" stroke="#231F20" stroke-width="0.227" d="M27.767,10.19c0,0,0.113,0.028-0.057,0.341s-0.198,0.341-0.624,0.71
	c-0.427,0.368-0.567,0.368-0.966,0.34c-0.594-0.042-0.481-0.057-0.992-0.567c-0.188-0.188-0.301-0.378-0.365-0.541"/>
<path fill="#231F20" d="M24.763,10.472c-0.111-0.277-0.06-0.708-0.06-0.708s-0.483,0.228-1.051,0.482
	c-0.567,0.256-0.795,0.681-0.795,0.681s-0.283,2.582,0,2.611c0.284,0.028,1.562-1.306,1.562-1.306s0-0.255-0.028-1.021
	c-0.029-0.766,0.283-1.05,0.283-1.05"/>
<path fill="none" stroke="#231F20" stroke-width="0.227" d="M24.763,10.472c-0.111-0.277-0.06-0.708-0.06-0.708
	s-0.483,0.228-1.051,0.482c-0.567,0.256-0.795,0.681-0.795,0.681s-0.283,2.582,0,2.611c0.284,0.028,1.562-1.306,1.562-1.306
	s0-0.255-0.028-1.021c-0.029-0.766,0.283-1.05,0.283-1.05"/>
<path fill="none" stroke="#231F20" stroke-width="0.227" d="M24.419,12.233l0.369,0.085l-0.427,1.391c0,0,1.022,0.227,1.845,0.681
	s1.504,1.106,1.504,1.106s-0.597-1.589-1.248-2.524c-0.653-0.938-1.731-2.582-1.731-2.582"/>
<path fill="none" stroke="#231F20" stroke-width="0.227" d="M27.823,10.077c0,0-0.028,0.567-0.17,1.476
	c-0.142,0.907-0.681,2.27-0.681,2.27"/>
<path fill="none" stroke="#231F20" stroke-width="0.227" d="M28.873,11.467c0,0-0.681,0.312-0.709,0.426
	c-0.029,0.113,0.709,0.766,0.709,0.766l-1.532,1.815"/>
<path fill="none" stroke="#231F20" stroke-width="0.227" d="M29.81,10.417c0,0,0.34-0.143,1.276,0.596s0.965,0.596,1.76,1.844
	c0.794,1.248,1.929,3.461,2.099,4.512c0.171,1.05,0.285,0.897,0.171,1.22c-0.658,1.849-3.348,3.49-3.348,3.49
	s-0.426,0.255-0.568-0.426c-0.142-0.681-0.17-1.674-0.142-2.1s1.13-1.462,1.13-1.462s-0.903-1.233-1.044-1.829
	c-0.143-0.596-0.143,3.519-0.143,3.519s-0.057,1.73,0.113,2.411c0.17,0.682,0.313,2.184,0.482,3.292
	c0.171,1.105,0.511,9.391,0.511,9.391s-1.674,0.568-3.83,0.086"/>
<path fill="#231F20" d="M31.058,21.908c0,0-0.142,0.113-0.539,0.028c-0.396-0.085-0.88-0.851-1.078-0.766s-0.057,1.759,0.085,1.985
	c0.143,0.228,0.113-0.027,0.852,0.568c0.738,0.596,1.078,1.051,1.078,1.051l-0.143-2.213l0.369-0.454c0,0-0.085,0.085-0.312-0.057
	c-0.228-0.143-0.369-0.228-0.369-0.228"/>
<path fill="none" stroke="#231F20" stroke-width="0.227" d="M31.058,21.908c0,0-0.142,0.113-0.539,0.028
	c-0.396-0.085-0.88-0.851-1.078-0.766s-0.057,1.759,0.085,1.985c0.143,0.228,0.113-0.027,0.852,0.568
	c0.738,0.596,1.078,1.051,1.078,1.051l-0.143-2.213l0.369-0.454c0,0-0.085,0.085-0.312-0.057c-0.228-0.143-0.369-0.228-0.369-0.228"
	/>
<path fill="none" stroke="#231F20" stroke-width="0.227" d="M16.929,14.56c0,0,0.112,0.198-0.113,0.652
	c-0.228,0.454-0.71,0.852-0.853,1.049c-0.142,0.199,0.398,0.823,1.051,1.562s1.873,1.872,2.497,2.213
	c0.624,0.34,0.681,0.313,0.681,0.313s1.135-0.852,1.787-3.291c0.066-0.249-0.908,5.021-1.021,5.446
	c-0.113,0.427-0.17,2.072-0.396,3.689c-0.228,1.617-0.938,8.625-0.938,8.625s3.462,0.881,4.54,0.936
	c1.078,0.059,2.667-0.283,3.263-0.311c0.597-0.029,0.937-0.17,0.937-0.17s-0.454-8.711-0.482-9.818
	c-0.028-1.105,0.284-6.893,0.198-8.085c-0.085-1.192-0.368-1.873-0.368-1.873"/>
<path fill="none" stroke="#231F20" stroke-width="0.227" d="M14.687,15.382c0,0,0.143,0.284,0.709,0.369
	c0.568,0.085,0.908,0,0.908,0"/>
<path fill="#231F20" d="M21.014,22.249c-0.227,0.199-1.021,2.383-1.021,2.383s0.271,0.836,0.651,0.426
	c0.369-0.396,0.228-0.426,0.682-0.738s0.114,0.029,0.284-0.113c0.17-0.141-0.013-0.792,0.651-1.788
	c0.228-0.34,0.512-0.681,0.426-0.737C22.603,21.625,21.014,22.249,21.014,22.249"/>
<path fill="none" stroke="#231F20" stroke-width="0.227" d="M21.014,22.249c-0.227,0.199-1.021,2.383-1.021,2.383
	s0.271,0.836,0.651,0.426c0.369-0.396,0.228-0.426,0.682-0.738s0.114,0.029,0.284-0.113c0.17-0.141-0.013-0.792,0.651-1.788
	c0.228-0.34,0.512-0.681,0.426-0.737C22.603,21.625,21.014,22.249,21.014,22.249z"/>
<path fill="#231F20" d="M26.717,16.502c0.133,0,0.241-0.107,0.241-0.24c0-0.134-0.108-0.24-0.241-0.24s-0.241,0.106-0.241,0.24
	C26.476,16.395,26.584,16.502,26.717,16.502"/>
<circle fill="none" stroke="#231F20" stroke-width="0.227" cx="26.717" cy="16.262" r="0.24"/>
<path fill="#231F20" d="M24.05,16.502c0.133,0,0.241-0.107,0.241-0.24c0-0.134-0.108-0.24-0.241-0.24s-0.241,0.106-0.241,0.24
	C23.809,16.395,23.917,16.502,24.05,16.502"/>
<circle fill="none" stroke="#231F20" stroke-width="0.227" cx="24.05" cy="16.262" r="0.24"/>
<path fill="#231F20" d="M27.001,20.642c0.133,0,0.24-0.108,0.24-0.241s-0.107-0.24-0.24-0.24c-0.134,0-0.241,0.107-0.241,0.24
	S26.867,20.642,27.001,20.642"/>
<circle fill="none" stroke="#231F20" stroke-width="0.227" cx="27.001" cy="20.401" r="0.241"/>
<path fill="#231F20" d="M24.135,20.557c0.133,0,0.241-0.108,0.241-0.241s-0.108-0.24-0.241-0.24s-0.241,0.107-0.241,0.24
	S24.002,20.557,24.135,20.557"/>
<circle fill="none" stroke="#231F20" stroke-width="0.227" cx="24.135" cy="20.316" r="0.241"/>
<path fill="#231F20" d="M24.021,24.245c0.133,0,0.241-0.107,0.241-0.24s-0.108-0.24-0.241-0.24s-0.241,0.107-0.241,0.24
	S23.889,24.245,24.021,24.245"/>
<circle fill="none" stroke="#231F20" stroke-width="0.227" cx="24.021" cy="24.005" r="0.24"/>
<path fill="#231F20" d="M26.943,24.331c0.134,0,0.241-0.109,0.241-0.242s-0.107-0.24-0.241-0.24c-0.133,0-0.24,0.107-0.24,0.24
	S26.811,24.331,26.943,24.331"/>
<circle fill="none" stroke="#231F20" stroke-width="0.227" cx="26.943" cy="24.09" r="0.241"/>
<path fill="none" stroke="#231F20" stroke-width="0.227" d="M22.518,35.499c0,0,0.852,4.766,1.362,5.844s0.794-0.17,0.794-0.17
	l-0.283-5.447"/>
<line fill="none" stroke="#231F20" stroke-width="0.227" x1="25.979" y1="41.229" x2="26.49" y2="35.442"/>
<path fill="none" stroke="#231F20" stroke-width="0.227" d="M28.022,35.329c0,0-0.284,4.113-0.682,5.787"/>
<path fill="#231F20" d="M25.979,41.229c-0.597,0.143-0.794,0.227-1.333,0.057c-0.257,0.51-0.682,0.256-0.682,0.256
	s-1.533,1.844-1.476,2.639c0.057,0.795,0.23,0.822,0.738,0.908c0.511,0.084,1.247-0.512,1.645-1.021
	c0.398-0.51,0.908-1.477,0.908-1.477s0.795,0.682,1.419,1.137c0.624,0.453,0.539,0.736,1.191,0.736c1.193,0,1.362,0.057,1.532-0.34
	s0.17-0.227-0.567-1.135s-1.01-1.092-1.136-1.533c-0.112-0.396-0.34-0.48-0.34-0.48l-0.596,0.254
	C27.284,41.229,27.086,41.626,25.979,41.229"/>
<path fill="none" stroke="#231F20" stroke-width="0.227" d="M25.979,41.229c-0.597,0.143-0.794,0.227-1.333,0.057
	c-0.257,0.51-0.682,0.256-0.682,0.256s-1.533,1.844-1.476,2.639c0.057,0.795,0.23,0.822,0.738,0.908
	c0.511,0.084,1.247-0.512,1.645-1.021c0.398-0.51,0.908-1.477,0.908-1.477s0.795,0.682,1.419,1.137
	c0.624,0.453,0.539,0.736,1.191,0.736c1.193,0,1.362,0.057,1.532-0.34s0.17-0.227-0.567-1.135s-1.01-1.092-1.136-1.533
	c-0.112-0.396-0.34-0.48-0.34-0.48l-0.596,0.254C27.284,41.229,27.086,41.626,25.979,41.229z"/>
<path fill="none" stroke="#231F20" stroke-width="0.227" d="M27.341,41.116c0,0,0.391,0.105,0.709-0.369
	c0.938-1.391,1.618-5.703,1.618-5.703"/>
<path fill="none" stroke="#231F20" stroke-width="0.227" d="M24.404,5.623c0,0-0.284,0.837-0.454,1.007
	c-0.17,0.171-0.198,0.1-0.198,0.1"/>
<rect x="-0.157" y="0.008" fill="none" width="50.314" height="50.315"/>
</svg>
