<?xml version="1.0" encoding="utf-8"?>
<!-- Generator: Adobe Illustrator 16.0.0, SVG Export Plug-In . SVG Version: 6.00 Build 0)  -->
<!DOCTYPE svg PUBLIC "-//W3C//DTD SVG 1.1//EN" "http://www.w3.org/Graphics/SVG/1.1/DTD/svg11.dtd">
<svg version="1.1" id="Layer_1" xmlns="http://www.w3.org/2000/svg" xmlns:xlink="http://www.w3.org/1999/xlink" x="0px" y="0px"
	 width="50px" height="50px" viewBox="0 0 50 50" enable-background="new 0 0 50 50" xml:space="preserve">
<path fill="none" stroke="#231F20" stroke-width="0.227" stroke-linecap="round" d="M28.263,4.649c0,0-0.582-1.263-0.34-1.305
	c0.241-0.043,6.043,2.539,5.419,2.823c-0.625,0.284-0.426,0.17-0.426,0.17c-0.563-0.056-1.204-0.387-1.617-0.482
	C30.561,5.685,29.397,5.5,29.397,5.5L28.263,4.649z"/>
<path fill="none" stroke="#231F20" stroke-width="0.227" stroke-linecap="round" d="M32.916,6.337L32.831,6.55
	c0,0-0.979-0.071-1.774-0.241c-0.755-0.162-1.702-0.511-1.702-0.511"/>
<path fill="#231F20" d="M27.354,6.266c0.17,0.128,0.725,0.156,0.725,0.156s0.325-0.028,0.723-0.199
	c0.397-0.17,0.979-0.34,0.979-0.34l0.142-0.326c0,0-0.554-0.426-1.008-0.71c-0.453-0.283-0.609-0.042-0.609-0.042
	s0.056,0.213-0.185,0.596C27.922,5.897,27.256,6.124,27.354,6.266"/>
<path fill="none" stroke="#231F20" stroke-width="0.227" stroke-linecap="round" d="M27.354,6.266
	c0.17,0.128,0.725,0.156,0.725,0.156s0.325-0.028,0.723-0.199c0.397-0.17,0.979-0.34,0.979-0.34l0.142-0.326
	c0,0-0.554-0.426-1.008-0.71c-0.453-0.283-0.609-0.042-0.609-0.042s0.056,0.213-0.185,0.596C27.922,5.897,27.256,6.124,27.354,6.266
	z"/>
<path fill="none" stroke="#231F20" stroke-width="0.227" stroke-linecap="round" d="M28.036,6.351c0,0,0.112,0.057,0.057,0.624
	c-0.057,0.568-0.412,0.965-0.397,1.135c0.015,0.17,0.511,0.085,0.511,0.085"/>
<polyline fill="none" stroke="#231F20" stroke-width="0.227" stroke-linecap="round" points="28.007,8.238 28.035,8.848 
	28.617,8.862 "/>
<path fill="none" stroke="#231F20" stroke-width="0.227" stroke-linecap="round" d="M28.617,8.862L28.05,8.947l0.07,0.248
	l-0.142,0.227c0,0-0.028,0.376,0.171,0.426c0.492,0.123,1.007,0.461,1.631,0.007s0.88-0.979,0.88-0.979"/>
<path fill="none" stroke="#231F20" stroke-width="0.227" stroke-linecap="round" d="M30.773,7.458
	c0.002-0.122,0.042-0.385,0.505-0.312c0.313,0.049,0.184,0.656,0.118,0.852c-0.111,0.34-0.183,0.581-0.341,0.594
	c-0.283,0.024-0.225-0.283-0.225-0.283"/>
<path fill="none" stroke="#231F20" stroke-width="0.227" stroke-linecap="round" d="M30.93,7.67
	c0.298,0.142,0.128,0.284,0.043,0.397"/>
<path fill="none" stroke="#231F20" stroke-width="0.227" stroke-linecap="round" d="M32.688,6.507c0,0,0.199,0,0.028,0.794
	c-0.17,0.795-0.899,1.256-1.206,1.93C31.37,9.543,31.1,8.678,31.1,8.678"/>
<path fill="none" stroke="#231F20" stroke-width="0.227" stroke-linecap="round" d="M28.915,10.054c0,0,0.199,0.043,0.028,0.497
	c-0.17,0.454-1.135,1.461-1.588,2.042c-0.454,0.582-0.823,1.618-0.823,1.618s-0.426,0.581-0.426,2.128
	c0,1.932,0.114,4.708,0.114,4.708l-0.823,4.852l2.383,0.057"/>
<path fill="none" stroke="#231F20" stroke-width="0.227" stroke-linecap="round" d="M27.185,12.763c0,0-1.87,0.418-3.007,0.085
	c-1.846-0.539-5.079-0.993-5.079-0.993l-0.483,2.752l7.491,1.504"/>
<path fill="none" stroke="#231F20" stroke-width="0.227" stroke-linecap="round" d="M17.765,11.855c0,0-0.369-0.255-1.248-0.567
	c0,0-0.099,0.055,0.113-0.199c0.142-0.17,0.908-0.028,1.419,0.312c0.51,0.341,0.908,0.511,0.908,0.511"/>
<path fill="none" stroke="#231F20" stroke-width="0.227" stroke-linecap="round" d="M16.346,11.288c0,0-1.446-0.142-1.419,0.681
	c0.028,0.794,0.483,1.078,0.993,1.192c0.957,0.212,2.866,0.397,2.866,0.397"/>
<path fill="none" stroke="#231F20" stroke-width="0.227" stroke-linecap="round" d="M31.384,9.302c0,0-0.228,0.057,0.113,0.681
	s1.078,2.1,1.361,4.029c0.284,1.929,0.228,3.518,0,5.107c-0.227,1.589-2.439,6.951-2.439,6.951l-2.78-1.105
	c0,0,1.816-4.1,1.872-5.051c0.071-1.19-0.228-4.937-0.056-5.958"/>
<path fill="none" stroke="#231F20" stroke-width="0.227" stroke-linecap="round" d="M27.185,14.295c0,0-0.412,2.086-0.284,2.667
	c0.057,0.156,0.114,0.284,0.511,0.17l0.397-0.113c0,0,0.17,0.142,0.568,0.142c0.396,0,0.51-0.199,0.51-0.199v-2.667
	c0,0-0.1-0.099-0.283-0.113C27.925,14.129,27.185,14.295,27.185,14.295z"/>
<path fill="none" stroke="#231F20" stroke-width="0.227" stroke-linecap="round" d="M27.128,15.047
	c0.326,0.227,0.766,0.27,0.766,0.27s0.725-0.185,0.937-0.398"/>
<line fill="none" stroke="#231F20" stroke-width="0.227" stroke-linecap="round" x1="27.894" y1="15.317" x2="27.837" y2="16.963"/>
<path fill="none" stroke="#231F20" stroke-width="0.227" stroke-linecap="round" d="M29.028,21.445l-1.958,0.058
	c0,0-0.454,0.851,0.171,0.908c0.624,0.056,1.462,0,1.462,0"/>
<path fill="none" stroke="#231F20" stroke-width="0.227" stroke-linecap="round" d="M26.958,22.353c0,0-0.454,2.285-0.397,2.382
	c0.057,0.102,1.078,0.059,1.078,0.059"/>
<path fill="none" stroke="#231F20" stroke-width="0.227" stroke-linecap="round" d="M28.674,10.961l2.823-0.979
	c0,0-3.759,1.986-4.142,2.611c-0.384,0.624-0.427,0.439-0.81,1.659c1.177-1.106,2.682-1.489,2.682-1.489l0.198-0.752l0.539,0.241
	l1.646-2.043"/>
<path fill="none" stroke="#231F20" stroke-width="0.227" stroke-linecap="round" d="M28.376,6.351c0,0,0-0.227,0.397-0.057
	c0.396,0.17,0.396,0.284,0.396,0.284"/>
<path fill="none" stroke="#231F20" stroke-width="0.227" stroke-linecap="round" d="M25.922,25.913c0,0,0.014,2.967,0.525,5.35
	c0.511,2.383,0.771,9.875,0.851,10.781c0.029,0.326-0.014,0.566-0.014,0.566l3.135,0.115c0,0-0.227-7.945,0-10.557
	c0.227-2.609,1.404-6.057,1.404-6.057h-1.872"/>
<path fill="none" stroke="#231F20" stroke-width="0.227" stroke-linecap="round" d="M29.908,25.985c0,0-0.17,0.566-0.284,1.135
	c-0.112,0.566-0.099,1.213-0.354,1.793c-0.313,0.52-1.12,0.752-1.276,0.555c-0.156-0.199-0.151-0.156-0.142-0.512
	c0.014-0.566,0.057-0.666,0.184-1.184c-0.113,0.525-0.156,0.73-0.326,0.703c-0.283-0.047-0.354-0.156-0.198-1.059
	c0.185-1.07,0.625-2.24,0.625-2.24"/>
<polyline fill="none" stroke="#231F20" stroke-width="0.227" stroke-linecap="round" points="31.908,22.339 32.377,26.112 
	31.823,26.112 "/>
<path fill="#231F20" d="M30.093,42.739c0,0,0.481,1.148,0.028,1.701c-0.496,0.213-1.845,0.043-1.845,0.043l-0.213-0.199
	c0,0-0.212,0-1.05,0.129c-0.833,0.127-2.427,0.145-2.454-0.043c-0.042-0.299-0.111-0.508,0.128-0.758
	c0.78-0.816,1.973-0.73,2.725-1.002C28.148,42.513,30.093,42.739,30.093,42.739"/>
<path fill="none" stroke="#231F20" stroke-width="0.227" stroke-linecap="round" d="M30.093,42.739c0,0,0.481,1.148,0.028,1.701
	c-0.496,0.213-1.845,0.043-1.845,0.043l-0.213-0.199c0,0-0.212,0-1.05,0.129c-0.833,0.127-2.427,0.145-2.454-0.043
	c-0.042-0.299-0.111-0.508,0.128-0.758c0.78-0.816,1.973-0.73,2.725-1.002C28.148,42.513,30.093,42.739,30.093,42.739z"/>
<path fill="none" stroke="#231F20" stroke-width="0.184" stroke-linecap="round" d="M28.617,6.975c0.065,0,0.213-0.014,0.213-0.014
	c0-0.053-0.138-0.138-0.203-0.138c-0.064,0-0.119,0.043-0.119,0.095C28.508,6.97,28.553,6.975,28.617,6.975z"/>
<path fill="none" stroke="#231F20" stroke-width="0.227" stroke-linecap="round" d="M30.314,7.409
	c-0.012-0.134-0.108-0.404-0.146-0.521c-0.029-0.09-0.078-0.173-0.134-0.335c-0.008-0.021-0.009-0.065-0.023-0.057
	C29.996,6.504,30,6.546,30.008,6.567c0.085,0.266,0.221,0.708,0.221,0.708C30.227,7.271,30.321,7.49,30.314,7.409z"/>
<path fill="#231F20" d="M31.199,10.635c-0.009,0.118,0,0.195,0,0.312c0,0.355,0.139,0.906,0.17,0.906s0.029-0.736,0.016-1.145
	c-0.001-0.039-0.002-0.077-0.001-0.116c0-0.031-0.025-0.056-0.057-0.056s-0.1-0.031-0.1,0L31.199,10.635z"/>
<path fill="#231F20" d="M32.634,12.821c-0.279-0.218-0.806-0.452-0.819-0.424c-0.051,0.108,0.563,0.476,0.894,0.718
	c0.03,0.023-0.03-0.025,0,0C32.732,13.134,32.727,12.893,32.634,12.821"/>
<rect x="-0.157" y="-0.158" fill="none" width="50.314" height="50.315"/>
</svg>
