<?xml version="1.0" encoding="utf-8"?>
<!-- Generator: Adobe Illustrator 16.0.0, SVG Export Plug-In . SVG Version: 6.00 Build 0)  -->
<!DOCTYPE svg PUBLIC "-//W3C//DTD SVG 1.1//EN" "http://www.w3.org/Graphics/SVG/1.1/DTD/svg11.dtd">
<svg version="1.1" id="Layer_1" xmlns="http://www.w3.org/2000/svg" xmlns:xlink="http://www.w3.org/1999/xlink" x="0px" y="0px"
	 width="500px" height="500px" viewBox="0 0 50 50" enable-background="new 0 0 50 50" xml:space="preserve">
<path fill="none" stroke="#231F20" stroke-width="0.227" d="M30.007,27.416c0,0-0.511,9.021-1.702,14.641l-0.965-0.113l-1.135,0.453
	L24.9,42.113l-0.794,0.17c0,0-1.192-5.561-1.761-14.641L30.007,27.416z"/>
<rect x="0.168" y="-0.011" fill="none" width="50.315" height="50.315"/>
<polyline fill="#231F20" points="28.815,43.191 29.666,43.873 30.008,44.553 29.554,44.893 28.759,44.781 27.794,44.496 
	27.341,43.93 26.829,43.814 26.318,43.588 25.354,44.1 24.786,44.723 24.049,45.291 23.141,45.348 22.743,44.723 22.914,44.156 
	23.425,43.475 23.936,42.852 24.105,42.283 24.9,42.113 "/>
<path fill="#231F20" d="M25.297,42.213l0.908,0.186l1.305-0.342h0.795c0,0,0.341,0.682,0.511,1.135c0,0,0.511,0.566,0.851,0.682
	c0,0,0.965,1.135-0.566,1.078c0,0-1.306-0.113-1.76-1.021c0,0-0.965,0-1.021-0.342c0,0-0.624,0.455-0.964,0.512
	c0,0-0.795,1.021-1.306,1.191c0,0-1.76,0.908-1.191-1.361c0,0,0.794-0.795,0.965-0.908c0.17-0.113-0.057,0.283-0.057,0.283
	s0.283-0.795,0.34-1.021l0.795-0.17"/>
<path fill="none" stroke="#231F20" stroke-width="0.227" d="M24.9,42.113c-0.228-0.795-1.206-14.498-1.206-14.498"/>
<path fill="none" stroke="#231F20" stroke-width="0.227" d="M25.638,16.01c0,0,0,10.441,0.396,11.52l0.171,14.867l1.306-0.51
	c0.17-0.568,1.078-14.357,1.078-14.357"/>
<path fill="none" stroke="#231F20" stroke-width="0.227" d="M30.007,27.416l1.021-0.227l-0.057-0.682l0.283-0.113
	c0,0-0.454-2.213-0.737-2.724c-0.283-0.511-0.851,0.85-0.851,0.85l-1.76-0.057c0,0-0.34-0.624,0.057-0.908
	c0,0,1.589-0.396,2.101-0.396c0.51,0,0.453,0.511,0.453,0.511s1.306-1.249,2.667-5.448c0,0,0.057-1.759-1.759-5.788"/>
<path fill="none" stroke="#231F20" stroke-width="0.227" d="M29.156,11.243c0,0,1.475,0.057,2.383,0.567c0,0-0.057,0.568-0.34,0.908
	c0,0-1.59-0.567-2.043-1.135V11.243z"/>
<polyline fill="none" stroke="#231F20" stroke-width="0.227" points="29.156,11.243 27.454,10.79 27.227,9.769 "/>
<path fill="none" stroke="#231F20" stroke-width="0.227" d="M28.135,10.959l0.454,1.419l-0.454,0.567l0.396,0.851
	c0,0-1.929,1.078-2.894,2.213C25.638,16.01,26.887,12.095,28.135,10.959z"/>
<path fill="none" stroke="#231F20" stroke-width="0.227" d="M24.843,10.733l0.795,5.277l-2.214-2.213l0.795-1.078l-0.567-0.567
	C23.651,12.152,23.595,11.13,24.843,10.733z"/>
<polyline fill="none" stroke="#231F20" stroke-width="0.227" points="24.843,9.995 24.843,10.733 25.581,11.414 25.127,12.151 "/>
<polyline fill="none" stroke="#231F20" stroke-width="0.227" points="27.453,10.79 26.772,11.243 27.17,12.094 "/>
<path fill="none" stroke="#231F20" stroke-width="0.227" d="M21.779,23.217c0.057-0.397,0.112-3.064,0.112-3.064
	c-0.112-0.681-0.51-2.837-0.51-2.837c-0.284-2.724-5.164-4.937-5.164-4.937c-0.624-0.341-0.566-0.795-0.566-0.795l0.396-5.731
	l2.156,0.057l0.396,4.483l3.179,1.645c0.681-0.227,1.361-0.851,1.361-0.851l1.021-0.17"/>
<polygon fill="none" stroke="#231F20" stroke-width="0.227" points="24.39,23.5 24.39,23.5 21.495,23.104 21.553,24.011 
	22.857,24.806 24.162,24.351 "/>
<path fill="none" stroke="#231F20" stroke-width="0.227" d="M23.992,24.408l-0.058,1.987c0,0-1.871,0.227-2.553,0.113l0.283-2.327"
	/>
<line fill="none" stroke="#231F20" stroke-width="0.227" x1="22.63" y1="25.712" x2="22.63" y2="26.451"/>
<path fill="none" stroke="#231F20" stroke-width="0.227" d="M28.078,24.578l0.057,1.817c0,0,0.283,0.34,0.794,0.396l2.043-0.283"/>
<line fill="none" stroke="#231F20" stroke-width="0.227" x1="29.383" y1="25.316" x2="29.609" y2="26.736"/>
<path fill="none" stroke="#231F20" stroke-width="0.227" d="M30.574,15.215c0,0-0.566,5.165-0.227,8.001"/>
<polyline fill="none" stroke="#231F20" stroke-width="0.227" points="30.461,16.861 30.745,18.393 30.348,19.415 "/>
<circle fill="none" stroke="#231F20" stroke-width="0.227" cx="26.063" cy="17.321" r="0.2"/>
<circle fill="none" stroke="#231F20" stroke-width="0.227" cx="26.007" cy="19.25" r="0.201"/>
<circle fill="none" stroke="#231F20" stroke-width="0.227" cx="26.12" cy="21.293" r="0.201"/>
<circle fill="none" stroke="#231F20" stroke-width="0.227" cx="26.233" cy="23.109" r="0.201"/>
<ellipse fill="none" stroke="#231F20" stroke-width="0.227" cx="26.375" cy="4.604" rx="0.642" ry="0.481"/>
<path fill="#231F20" d="M27.018,4.604l0.72,0.454l0.624,0.624l0.284,0.568l0.057,0.283l-0.227,0.171l-0.289,1.119l-0.449-0.949
	c0,0-2.156,0.794-3.461-0.114l-0.341-0.227c0,0-0.589-1.254,1.798-1.929C25.733,4.604,26.354,5.739,27.018,4.604"/>
<path fill="none" stroke="#231F20" stroke-width="0.227" d="M28.021,7.385c0.127,0.127,0.199,0.246,0.232,0.356"/>
<path fill="none" stroke="#231F20" stroke-width="0.227" d="M28.252,7.741c0.143,0.478-0.459,0.779-0.459,0.779
	c-0.056,1.872-1.759,2.099-1.759,2.099c-1.19,0.171-1.929-2.213-1.929-2.213c-0.34-0.17-0.624-0.794-0.057-1.021V6.704"/>
<polyline fill="none" stroke="#231F20" stroke-width="0.227" points="25.979,7.441 25.865,8.633 26.205,8.689 "/>
<path fill="none" stroke="#231F20" stroke-width="0.227" d="M25.638,9.427c0,0,0.567,0.113,0.851,0"/>
<path fill="none" stroke="#231F20" stroke-width="0.227" d="M16.389,5.796l-0.199-2.837c0,0-0.17-2.724,0.766-2.298
	c0,0,0.256,0.652,0.171,1.787l0.028-0.369c0,0-0.13-0.138-0.022-0.195c0.111-0.059,0.448,0.252,0.448,0.252s0.139,1.195-0.256,2.894
	l0.057,0.851"/>
<polyline fill="none" stroke="#231F20" stroke-width="0.227" points="21.665,26.564 21.665,27.586 22.347,27.643 "/>
<polyline fill="none" stroke="#231F20" stroke-width="0.227" points="21.949,11.924 22.006,11.413 23.254,10.959 23.424,11.13 "/>
<polygon fill="#231F20" points="25.581,11.414 26.772,11.244 26.489,12.378 26.943,12.946 25.638,16.01 25.184,12.775 
	25.694,12.435 "/>
<path fill="none" stroke="#231F20" stroke-width="0.227" d="M27.737,16.634l2.043-0.057l-0.057,0.908l-1.021,0.511
	c0,0-0.795-0.227-0.908-0.397C27.681,17.428,27.737,16.634,27.737,16.634z"/>
<polyline fill="none" stroke="#231F20" stroke-width="0.227" points="29.383,17.712 29.439,19.358 27.737,19.358 27.794,17.599 "/>
<line fill="none" stroke="#231F20" stroke-width="0.227" x1="28.702" y1="19.357" x2="28.702" y2="18.563"/>
<polygon fill="none" stroke="#231F20" stroke-width="0.227" points="22.119,16.975 24.275,16.862 24.22,17.712 23.027,18.053 
	22.119,17.656 "/>
<path fill="none" stroke="#231F20" stroke-width="0.227" d="M24.105,17.883c0,0,0.284,1.361,0.227,1.532
	c-0.057,0.17-1.985,0.113-1.985,0.113l-0.058-1.703"/>
<line fill="none" stroke="#231F20" stroke-width="0.227" x1="23.312" y1="19.585" x2="23.254" y2="18.733"/>
<path fill="none" stroke="#231F20" stroke-width="0.227" d="M28.702,6.534c0,0,1.985-2.497-2.44-3.007
	c-3.575,0.397-3.632,2.78-2.213,3.177"/>
<path fill="#231F20" d="M25.24,7.451c-0.133,0-0.241,0.072-0.241,0.16c0,0.089,0.108,0.161,0.241,0.161s0.241-0.072,0.241-0.161
	C25.481,7.523,25.373,7.451,25.24,7.451"/>
<path fill="#231F20" d="M26.863,7.451c-0.133,0-0.24,0.072-0.24,0.16c0,0.089,0.107,0.161,0.24,0.161
	c0.134,0,0.241-0.072,0.241-0.161C27.104,7.523,26.997,7.451,26.863,7.451"/>
<rect x="0.168" y="-0.011" fill="none" width="50.315" height="50.315"/>
</svg>
