<?xml version="1.0" encoding="utf-8"?>
<!-- Generator: Adobe Illustrator 16.0.0, SVG Export Plug-In . SVG Version: 6.00 Build 0)  -->
<!DOCTYPE svg PUBLIC "-//W3C//DTD SVG 1.1//EN" "http://www.w3.org/Graphics/SVG/1.1/DTD/svg11.dtd">
<svg version="1.1" id="Layer_1" xmlns="http://www.w3.org/2000/svg" xmlns:xlink="http://www.w3.org/1999/xlink" x="0px" y="0px"
	 width="50px" height="50px" viewBox="0 0 50 50" enable-background="new 0 0 50 50" xml:space="preserve">
<path fill="none" stroke="#231F20" stroke-width="0.227" stroke-linecap="round" d="M27.849,3.799c0,0-0.61-1.249-0.371-1.298
	c0.242-0.048,6.1,2.403,5.482,2.7c-0.617,0.298-0.422,0.181-0.422,0.181c-0.564-0.043-1.212-0.36-1.628-0.446
	c-0.741-0.153-1.908-0.312-1.908-0.312L27.849,3.799z"/>
<path fill="none" stroke="#231F20" stroke-width="0.227" stroke-linecap="round" d="M32.538,5.382l-0.08,0.214
	c0,0-0.98-0.048-1.779-0.201c-0.758-0.144-1.713-0.472-1.713-0.472"/>
<path fill="#231F20" d="M26.978,5.436c0.172,0.124,0.727,0.14,0.727,0.14s0.326-0.036,0.719-0.215s0.971-0.362,0.971-0.362
	l0.135-0.329c0,0-0.563-0.413-1.023-0.687c-0.46-0.273-0.611-0.029-0.611-0.029s0.063,0.211-0.171,0.601
	C27.536,5.054,26.875,5.296,26.978,5.436"/>
<path fill="none" stroke="#231F20" stroke-width="0.227" stroke-linecap="round" d="M26.978,5.436
	c0.172,0.124,0.727,0.14,0.727,0.14s0.326-0.036,0.719-0.215s0.971-0.362,0.971-0.362l0.135-0.329c0,0-0.563-0.413-1.023-0.687
	c-0.46-0.273-0.611-0.029-0.611-0.029s0.063,0.211-0.171,0.601C27.536,5.054,26.875,5.296,26.978,5.436z"/>
<path fill="none" stroke="#231F20" stroke-width="0.227" stroke-linecap="round" d="M27.659,5.506c0,0,0.115,0.054,0.071,0.623
	c-0.044,0.567-0.39,0.973-0.372,1.143s0.514,0.074,0.514,0.074"/>
<polyline fill="none" stroke="#231F20" stroke-width="0.227" stroke-linecap="round" points="27.673,7.393 27.716,8.001 
	28.298,8.002 "/>
<path fill="none" stroke="#231F20" stroke-width="0.227" stroke-linecap="round" d="M28.392,7.933
	c-0.213,0.155-0.659,0.168-0.659,0.168l0.075,0.247l-0.137,0.229c0,0-0.02,0.376,0.181,0.422c0.495,0.111,1.118,0.252,1.733-0.216
	c0.612-0.468,0.453-0.525,0.453-0.525"/>
<path fill="none" stroke="#231F20" stroke-width="0.227" stroke-linecap="round" d="M30.421,6.55c0-0.122,0.033-0.386,0.498-0.323
	c0.314,0.043,0.199,0.651,0.138,0.849c-0.104,0.343-0.17,0.586-0.328,0.602c-0.282,0.031-0.231-0.276-0.231-0.276"/>
<path fill="none" stroke="#231F20" stroke-width="0.227" stroke-linecap="round" d="M30.583,6.76
	c0.301,0.135,0.133,0.28,0.051,0.396"/>
<path fill="none" stroke="#231F20" stroke-width="0.227" stroke-linecap="round" d="M32.315,5.557c0,0,0.197-0.005,0.045,0.794
	c-0.151,0.798-0.87,1.275-1.161,1.956c-0.136,0.315-0.425-0.544-0.425-0.544"/>
<path fill="none" stroke="#231F20" stroke-width="0.227" stroke-linecap="round" d="M28.622,9.188c0,0,0.199,0.038,0.04,0.496
	c-0.16,0.458-1.103,1.485-1.543,2.078c-0.089,0.118-0.175,0.257-0.253,0.4"/>
<path fill="none" stroke="#231F20" stroke-width="0.227" stroke-linecap="round" d="M30.605,11.422c0,0-1.021,0.397-1.731,0.553
	c-0.709,0.156-3.781,0.421-4.927,0.113c-1.854-0.498-4.89-0.851-4.89-0.851l-0.256,2.81c0,0,4.482,1.203,7.148,1.259
	c2.666,0.058,4.357,0.061,4.357,0.061"/>
<path fill="none" stroke="#231F20" stroke-width="0.227" stroke-linecap="round" d="M18.859,12.713c0,0-1.078-0.113-2.412-0.908
	c-0.539,0.085-1.84,0.143-1.787-0.227c0.028-0.198,1.816-0.482,1.816-0.482l2.553,0.511"/>
<path fill="none" stroke="#231F20" stroke-width="0.227" stroke-linecap="round" d="M26.761,15.324
	c-0.085,0.227-0.033,0.671,0.003,0.816c0.06,0.154,0.119,0.28,0.515,0.158l0.395-0.122c0,0,0.173,0.139,0.57,0.13
	c0.396-0.01,0.506-0.21,0.506-0.21l0.012-0.744C28.761,15.352,27.485,15.337,26.761,15.324z"/>
<path fill="none" stroke="#231F20" stroke-width="0.227" stroke-linecap="round" d="M28.733,22.205c0,0-0.922-0.07-1.533-0.341
	c-0.383-0.171-0.043-1.149,0.072-1.206c0.112-0.057,1.616,0.214,1.616,0.214s1.603-0.3,1.772-0.199
	c0.172,0.099,0.199,0.894-0.014,1.035C30.022,22.125,28.733,22.205,28.733,22.205z"/>
<path fill="none" stroke="#231F20" stroke-width="0.227" stroke-linecap="round" d="M28.401,10.101l2.8-1.042
	c0,0-3.713,2.07-4.081,2.703c-0.369,0.632-0.26,0.44-0.26,0.44c1.418-0.155,2.135-0.313,2.135-0.313l0.182-0.756l0.543,0.229
	l1.601-2.08"/>
<path fill="none" stroke="#231F20" stroke-width="0.227" stroke-linecap="round" d="M27.999,5.499c0,0-0.004-0.228,0.396-0.066
	c0.401,0.162,0.403,0.275,0.403,0.275"/>
<path fill="none" stroke="#231F20" stroke-width="0.227" stroke-linecap="round" d="M26.406,25.169c0,0,0.342,2.906,0.905,5.277
	c0.564,2.371,0.994,9.855,1.094,10.76c0.036,0.326-0.002,0.566-0.002,0.566l3.137,0.045c0,0-0.404-7.938-0.236-10.553
	s0.586-6.088,0.586-6.088s-1.029-0.035-1.965,0.02c-0.937,0.059-4.463-0.088-4.463-0.088l0.713-4.869c0,0-0.177-2.773-0.22-4.706
	c-0.002-0.082-0.003-0.162-0.002-0.238"/>
<path fill="none" stroke="#231F20" stroke-width="0.227" stroke-linecap="round" d="M31.891,25.177l0.553-0.012l-0.553-3.762
	c-0.122-3.498,0.286-5.368,0.603-7.696c0.297-2.198-0.938-4.031-1.291-4.647c-0.354-0.617-0.129-0.679-0.129-0.679"/>
<path fill="#231F20" d="M31.215,41.839c0,0,0.508,1.137,0.067,1.699c-0.492,0.225-1.844,0.084-1.844,0.084l-0.279-0.182
	c0,0-0.15-0.006-0.984,0.141c-0.831,0.146-2.423,0.199-2.455,0.012c-0.049-0.295-0.122-0.506,0.111-0.762
	c0.762-0.832,1.955-0.773,2.701-1.061C29.267,41.655,31.215,41.839,31.215,41.839"/>
<path fill="none" stroke="#231F20" stroke-width="0.227" stroke-linecap="round" d="M31.215,41.839c0,0,0.508,1.137,0.067,1.699
	c-0.492,0.225-1.844,0.084-1.844,0.084l-0.279-0.182c0,0-0.15-0.006-0.984,0.141c-0.831,0.146-2.423,0.199-2.455,0.012
	c-0.049-0.295-0.122-0.506,0.111-0.762c0.762-0.832,1.955-0.773,2.701-1.061C29.267,41.655,31.215,41.839,31.215,41.839z"/>
<path fill="none" stroke="#231F20" stroke-width="0.184" stroke-linecap="round" d="M28.255,6.117
	c0.065-0.002,0.213-0.019,0.213-0.019c-0.002-0.052-0.141-0.135-0.207-0.133c-0.064,0.001-0.117,0.045-0.115,0.097
	C28.146,6.114,28.19,6.118,28.255,6.117z"/>
<path fill="none" stroke="#231F20" stroke-width="0.227" stroke-linecap="round" d="M29.962,6.512
	c-0.016-0.133-0.119-0.402-0.158-0.519c-0.032-0.089-0.084-0.171-0.141-0.332c-0.009-0.02-0.012-0.064-0.025-0.056
	s-0.01,0.051-0.002,0.072c0.092,0.264,0.236,0.703,0.236,0.703C29.87,6.376,29.97,6.593,29.962,6.512z"/>
<path fill="none" stroke="#231F20" stroke-width="0.227" stroke-linecap="round" d="M30.577,21.75c0,0,0.273,2.137-0.014,2.256
	c-0.908,0.369-1.944,0.156-1.944,0.156s-1.558,0.139-1.617,0.041s0.17-2.397,0.17-2.397"/>
<line fill="none" stroke="#231F20" stroke-width="0.227" stroke-linecap="round" x1="28.747" y1="22.857" x2="28.662" y2="24.077"/>
<polyline fill="none" stroke="#231F20" stroke-width="0.227" stroke-linecap="round" stroke-dasharray="0.681,0.681" points="
	25.867,16.204 21.839,20.232 24.023,22.36 30.804,15.636 "/>
<path fill="none" stroke="#231F20" stroke-width="0.227" stroke-linecap="round" stroke-dasharray="0.681,0.681" d="M22.179,20.686
	c0,0-0.369,0.426-0.681,0.709c-0.378,0.344-1.078,0.738-1.136,1.078c-0.057,0.341-0.481,1.22-0.396,1.305
	c0.085,0.086,0.143,0,0.284,0s0.142-0.226,0.425-0.595c0.264-0.343,0.098-0.053,0.275-0.31c0.179-0.259,0.803,0.025,1.115-0.344
	c0.313-0.368,0.993-1.077,0.993-1.077"/>
<path fill="#231F20" d="M20.387,21.565c-0.386-0.204-0.901-0.418-1.278-0.486l0.535-0.207l0.161-0.557
	C19.903,20.69,20.155,21.192,20.387,21.565"/>
<path fill="#231F20" d="M16.881,12.821c0.112,0.422,0.303,0.946,0.508,1.271l-0.515-0.253l-0.518,0.258
	C16.565,13.77,16.764,13.244,16.881,12.821"/>
<path fill="none" stroke="#231F20" stroke-width="0.227" stroke-linecap="round" d="M16.859,13.848
	c0.085,3.547,1.39,5.703,2.667,6.923"/>
<rect x="-0.157" y="0.116" fill="none" width="50.314" height="50.315"/>
</svg>
