<?xml version="1.0" encoding="utf-8"?>
<!-- Generator: Adobe Illustrator 16.0.0, SVG Export Plug-In . SVG Version: 6.00 Build 0)  -->
<!DOCTYPE svg PUBLIC "-//W3C//DTD SVG 1.1//EN" "http://www.w3.org/Graphics/SVG/1.1/DTD/svg11.dtd">
<svg version="1.1" xmlns="http://www.w3.org/2000/svg" xmlns:xlink="http://www.w3.org/1999/xlink" x="0px" y="0px"
	 width="50.315px" height="50.314px" viewBox="0 0 50.315 50.314" enable-background="new 0 0 50.315 50.314" xml:space="preserve">
<g id="Layer_6">
</g>
<g id="Layer_5">
</g>
<g id="Layer_4">
</g>
<g id="Layer_3">
</g>
<g id="Layer_2">
	<path fill="#EC1C24" d="M25.104,41.396c9.811,0,17.765-7.954,17.765-17.765S34.915,5.866,25.104,5.866S7.339,13.82,7.339,23.631
		S15.293,41.396,25.104,41.396"/>
	<path fill="#FFFFFF" d="M25.094,36.768c7.259,0,13.143-5.884,13.143-13.143c0-7.258-5.884-13.143-13.143-13.143
		c-7.258,0-13.143,5.885-13.143,13.143C11.952,30.884,17.836,36.768,25.094,36.768"/>
	<path fill="#231F20" d="M14.902,22.657l0.27-5.793h7.939v1.942h-6.03l-0.101,2.331c0,0,1.351-0.507,3.124-0.507
		c1.926,0,4.206,1.402,4.206,4.341c0,2.888-2.686,4.358-4.459,4.341c-3.175-0.017-5.354-1.25-5.354-1.25l0.81-1.74
		c0,0,2.365,1.047,4.442,1.047c2.078,0,2.635-1.672,2.635-2.33c0-1.217-1.047-2.517-2.347-2.517c-1.858,0-3.108,0.76-3.108,0.76
		L14.902,22.657z"/>
	<path fill="#231F20" d="M30.911,16.673c2.744,0,5.214,2.161,5.214,6.363c0,4.219-2.47,6.38-5.214,6.38
		c-2.727,0-5.197-2.161-5.197-6.38C25.714,18.834,28.184,16.673,30.911,16.673 M30.911,18.645c-1.389,0-3.224,0.995-3.224,4.391
		c0,3.413,1.852,4.407,3.241,4.407c1.406,0,3.224-0.994,3.224-4.407C34.152,19.64,32.317,18.645,30.911,18.645"/>
	<path fill="#FFFFFF" d="M25.104,6.99c4.445,0,8.624,1.731,11.767,4.874c3.144,3.143,4.875,7.322,4.875,11.767
		c0,4.445-1.731,8.625-4.875,11.768c-3.143,3.143-7.322,4.874-11.767,4.874s-8.624-1.731-11.767-4.874S8.463,28.076,8.463,23.63
		c0-4.445,1.731-8.624,4.874-11.767C16.48,8.721,20.659,6.99,25.104,6.99 M25.104,6.22c-9.616,0-17.411,7.795-17.411,17.411
		c0,9.616,7.795,17.412,17.411,17.412c9.616,0,17.412-7.796,17.412-17.412C42.516,14.015,34.72,6.22,25.104,6.22"/>
	<rect fill="none" width="50.315" height="50.314"/>
</g>
</svg>
