<?xml version="1.0" encoding="utf-8"?>
<!-- Generator: Adobe Illustrator 16.0.0, SVG Export Plug-In . SVG Version: 6.00 Build 0)  -->
<!DOCTYPE svg PUBLIC "-//W3C//DTD SVG 1.1//EN" "http://www.w3.org/Graphics/SVG/1.1/DTD/svg11.dtd">
<svg version="1.1" xmlns="http://www.w3.org/2000/svg" xmlns:xlink="http://www.w3.org/1999/xlink" x="0px" y="0px"
	 width="50.314px" height="50.314px" viewBox="0 0 50.314 50.314" enable-background="new 0 0 50.314 50.314" xml:space="preserve">
<g id="Layer_6">
</g>
<g id="Layer_5">
</g>
<g id="Layer_4">
</g>
<g id="Layer_3">
	<path fill="#FFFFFF" d="M24.275,41.322c9.812,0,17.766-7.954,17.766-17.765S34.087,5.792,24.275,5.792
		c-9.811,0-17.765,7.954-17.765,17.765S14.465,41.322,24.275,41.322"/>
	<circle fill="none" stroke="#231F20" stroke-width="0.22" cx="24.275" cy="23.557" r="17.765"/>
	<path fill="#929497" d="M11.654,23.288l0.353-7.579h10.386v2.541h-7.889l-0.132,3.049c0,0,1.768-0.662,4.087-0.662
		c2.52,0,5.502,1.833,5.502,5.678c0,3.778-3.513,5.7-5.833,5.678c-4.153-0.022-7.004-1.635-7.004-1.635l1.061-2.276
		c0,0,3.094,1.37,5.811,1.37c2.718,0,3.447-2.187,3.447-3.049c0-1.591-1.37-3.292-3.071-3.292c-2.431,0-4.065,0.994-4.065,0.994
		L11.654,23.288z"/>
	<path fill="#929497" d="M32.389,15.424c3.554,0,6.751,2.798,6.751,8.239c0,5.463-3.197,8.261-6.751,8.261
		c-3.53,0-6.729-2.798-6.729-8.261C25.66,18.222,28.858,15.424,32.389,15.424 M32.389,17.978c-1.799,0-4.175,1.288-4.175,5.685
		c0,4.419,2.398,5.707,4.197,5.707c1.821,0,4.175-1.288,4.175-5.707C36.586,19.266,34.21,17.978,32.389,17.978"/>
	<path fill="#231F20" d="M30.868,9.1L15.036,36.522l0.006,0.01c-0.439-0.313-0.862-0.648-1.267-1.004l0.013-0.008L29.38,8.514V8.505
		c0.507,0.172,1.004,0.369,1.486,0.589L30.868,9.1z"/>
	<path fill="#231F20" d="M32.996,10.261L17.112,37.773l-0.005,0.009c-0.474-0.238-0.933-0.5-1.376-0.784l0.003-0.002L31.627,9.467
		l0.008,0.003c0.467,0.244,0.919,0.51,1.357,0.797L32.996,10.261z"/>
	<path fill="#231F20" d="M34.931,11.757L19.363,38.72l0.014-0.003c-0.515-0.166-1.018-0.358-1.508-0.575l-0.001,0.002l15.82-27.399
		l0.006,0.01c0.43,0.317,0.845,0.655,1.241,1.013L34.931,11.757z"/>
	<rect fill="none" width="50.314" height="50.314"/>
</g>
<g id="Layer_2">
</g>
</svg>
