<?xml version="1.0" encoding="utf-8"?>
<!-- Generator: Adobe Illustrator 16.0.0, SVG Export Plug-In . SVG Version: 6.00 Build 0)  -->
<!DOCTYPE svg PUBLIC "-//W3C//DTD SVG 1.1//EN" "http://www.w3.org/Graphics/SVG/1.1/DTD/svg11.dtd">
<svg version="1.1" xmlns="http://www.w3.org/2000/svg" xmlns:xlink="http://www.w3.org/1999/xlink" x="0px" y="0px"
	 width="50.315px" height="50.314px" viewBox="0 0 50.315 50.314" enable-background="new 0 0 50.315 50.314" xml:space="preserve">
<g id="Layer_6">
</g>
<g id="Layer_5">
</g>
<g id="Layer_4">
	<rect x="7.704" y="9.889" fill="#231F20" width="35.317" height="28.275"/>
	<path fill="none" stroke="#FFFFFF" stroke-width="0.096" d="M40.67,37.719c1.044,0,1.89-0.855,1.89-1.909V12.242
		c0-1.054-0.846-1.908-1.89-1.908H10.058c-1.044,0-1.891,0.854-1.891,1.908v23.568c0,1.054,0.847,1.909,1.891,1.909H40.67z"/>
	<path fill="none" stroke="#FFFFFF" stroke-width="0.475" stroke-linecap="round" stroke-dasharray="0.038,1.54" d="M31.401,15.032
		c5.775,0,5.115,7.371,5.115,8.692c0,1.43,0.33,9.186-5.28,9.186c-5.666,0-5.227-7.261-5.227-9.186
		C26.01,21.907,25.735,15.032,31.401,15.032z"/>
	<path fill="none" stroke="#FFFFFF" stroke-width="0.475" stroke-linecap="round" stroke-dasharray="0.038,1.616" d="M31.236,34.506
		c-7.427,0-6.767-9.213-6.767-10.782c0-1.7-0.66-10.369,6.77-10.369c7.367,0,6.708,8.081,6.708,10.369
		C37.947,25.882,38.606,34.506,31.236,34.506z"/>
	<rect fill="none" width="50.315" height="50.314"/>
	
		<line fill="none" stroke="#FFFFFF" stroke-width="0.475" stroke-linecap="round" stroke-dasharray="0.038,1.407" x1="12.037" y1="15.417" x2="22.159" y2="15.417"/>
	
		<line fill="none" stroke="#FFFFFF" stroke-width="0.475" stroke-linecap="round" stroke-dasharray="0.038,1.388" x1="10.992" y1="13.712" x2="22.599" y2="13.712"/>
	<polyline fill="none" stroke="#FFFFFF" stroke-width="0.475" stroke-linecap="round" stroke-dasharray="0.038,1.483" points="
		21.609,17.013 21.609,17.013 17.153,34.286 	"/>
	<polyline fill="none" stroke="#FFFFFF" stroke-width="0.475" stroke-linecap="round" stroke-dasharray="0.038,1.483" points="
		20.068,17.013 20.068,17.013 15.612,34.286 	"/>
</g>
<g id="Layer_3">
</g>
<g id="Layer_2">
</g>
</svg>
