<?xml version="1.0" encoding="utf-8"?>
<!-- Generator: Adobe Illustrator 16.0.0, SVG Export Plug-In . SVG Version: 6.00 Build 0)  -->
<!DOCTYPE svg PUBLIC "-//W3C//DTD SVG 1.1//EN" "http://www.w3.org/Graphics/SVG/1.1/DTD/svg11.dtd">
<svg version="1.1" xmlns="http://www.w3.org/2000/svg" xmlns:xlink="http://www.w3.org/1999/xlink" x="0px" y="0px"
	 width="50.315px" height="50.314px" viewBox="0 0 50.315 50.314" enable-background="new 0 0 50.315 50.314" xml:space="preserve">
<g id="Layer_6">
</g>
<g id="Layer_5">
	<rect x="6.727" y="5.76" fill="#007DC4" width="35.369" height="35.369"/>
	<path fill="none" stroke="#FFFFFF" stroke-width="0.798" d="M39.303,40.195c1.028,0,1.862-0.832,1.862-1.861V8.55
		c0-1.028-0.834-1.86-1.862-1.86H9.52c-1.028,0-1.861,0.832-1.861,1.86v29.784c0,1.029,0.833,1.861,1.861,1.861H39.303z"/>
	<path fill="#FFFFFF" d="M14.193,15.42c0.679-0.392,0.821-0.57,2.623-0.57c2.481,0,6.408,0.814,6.238,5.467
		c-0.069,1.902-0.794,5.619-6.252,5.619c-2.898,0-6.265-1.853-6.309-1.846l1.577-2.634c0.018,0.084,3.114,1.558,4.733,1.558
		c1.75,0,3.323-0.826,3.323-2.479c0-1.647-0.507-2.832-3.271-2.763c-0.496,0.012-2.026,0.091-2.87,0.902l-2.571-0.686l0.032-7.725
		h10.253v2.914h-7.477L14.193,15.42z"/>
	<path fill="#FFFFFF" d="M31.519,10.003c4.084,0,6.424,3.265,6.424,7.921c0,4.654-2.41,7.941-6.424,7.941s-6.424-3.217-6.424-7.941
		C25.095,13.268,27.504,10.003,31.519,10.003 M31.519,23.013c2.089,0,3.564-1.522,3.564-5.089c0-3.359-1.475-4.999-3.564-4.999
		s-3.426,1.64-3.426,4.999C28.092,21.351,29.43,23.013,31.519,23.013"/>
	<polygon fill="#FFFFFF" points="12.173,37.385 11.015,37.385 11.015,30.863 12.173,30.291 12.173,34.207 13.629,32.262 
		15.052,32.262 13.497,34.244 15.094,37.385 13.704,37.385 12.653,35.189 12.173,35.768 	"/>
	<path fill="#FFFFFF" d="M18.703,32.934h-0.071c0.298-0.658,0.885-0.82,1.392-0.844c0.672-0.033,1.364,0.428,1.426,0.885
		c-0.071-0.52,1.047-0.885,1.631-0.885c0.608,0,1.678,0.41,1.678,1.639v3.695h-1.157v-3.102c-0.061-0.498,0.112-1.217-0.961-1.217
		c-0.289,0-0.682,0.168-0.74,0.496c-0.086,0.492-0.1,1.004-0.1,1.129v2.693h-1.096v-3.102c0-0.908-0.441-1.184-0.952-1.184
		c-0.465,0-0.807,0.252-0.991,0.695c-0.109,0.271-0.039,0.771-0.039,0.896v2.693h-1.036v-5.178h1.016V32.934z"/>
	<path fill="#FFFFFF" d="M34.454,32.777c0.331-0.572,0.691-0.658,1.188-0.658c0.348,0,1.859-0.035,1.859,1.678v3.625h-1.066v-3.109
		c0-0.738-0.196-1.209-0.871-1.209c0,0-0.502-0.111-0.899,0.307c-0.14,0.146-0.211,0.328-0.211,1.352v2.662h-1.13v-6.558l1.13-0.573
		V32.777z"/>
	<polygon fill="#FFFFFF" points="31.258,29.52 30.764,29.52 26.643,39.035 27.138,39.035 	"/>
	<rect fill="none" width="50.315" height="50.314"/>
</g>
<g id="Layer_4">
</g>
<g id="Layer_3">
</g>
<g id="Layer_2">
</g>
</svg>
