<?xml version="1.0" encoding="utf-8"?>
<!-- Generator: Adobe Illustrator 16.0.0, SVG Export Plug-In . SVG Version: 6.00 Build 0)  -->
<!DOCTYPE svg PUBLIC "-//W3C//DTD SVG 1.1//EN" "http://www.w3.org/Graphics/SVG/1.1/DTD/svg11.dtd">
<svg version="1.1" xmlns="http://www.w3.org/2000/svg" xmlns:xlink="http://www.w3.org/1999/xlink" x="0px" y="0px"
	 width="50.315px" height="50.314px" viewBox="0 0 50.315 50.314" enable-background="new 0 0 50.315 50.314" xml:space="preserve">
<g id="Layer_6">
	<rect x="7.289" y="6.109" fill="#007DC4" width="35.369" height="35.369"/>
	<path fill="#FFFFFF" d="M14.755,15.771c0.679-0.393,0.821-0.571,2.623-0.571c2.481,0,6.408,0.815,6.238,5.468
		c-0.069,1.902-0.794,5.618-6.252,5.618c-2.898,0-6.265-1.852-6.309-1.845l1.577-2.635c0.018,0.084,3.114,1.558,4.733,1.558
		c1.75,0,3.323-0.825,3.323-2.479c0-1.647-0.507-2.832-3.271-2.762c-0.496,0.012-2.026,0.09-2.87,0.901l-2.571-0.685l0.032-7.725
		h10.253v2.914h-7.477L14.755,15.771z"/>
	<path fill="#FFFFFF" d="M32.08,10.354c4.084,0,6.424,3.266,6.424,7.922c0,4.654-2.41,7.941-6.424,7.941
		c-4.014,0-6.424-3.217-6.424-7.941C25.656,13.619,28.066,10.354,32.08,10.354 M32.08,23.363c2.089,0,3.564-1.522,3.564-5.088
		c0-3.359-1.475-5-3.564-5c-2.089,0-3.426,1.641-3.426,5C28.654,21.701,29.991,23.363,32.08,23.363"/>
	<polygon fill="#FFFFFF" points="12.734,37.734 11.577,37.734 11.577,31.215 12.734,30.643 12.734,34.559 14.19,32.613 
		15.613,32.613 14.059,34.596 15.655,37.734 14.266,37.734 13.214,35.539 12.734,36.117 	"/>
	<path fill="#FFFFFF" d="M19.264,33.285h-0.071c0.298-0.658,0.885-0.82,1.392-0.846c0.672-0.031,1.364,0.43,1.426,0.887
		c-0.071-0.52,1.047-0.887,1.631-0.887c0.608,0,1.677,0.412,1.677,1.639v3.697h-1.156v-3.102c-0.061-0.498,0.112-1.217-0.961-1.217
		c-0.289,0-0.682,0.168-0.74,0.496c-0.086,0.49-0.1,1.002-0.1,1.127v2.695h-1.096v-3.102c0-0.908-0.441-1.186-0.952-1.186
		c-0.465,0-0.807,0.252-0.991,0.697c-0.109,0.273-0.039,0.77-0.039,0.895v2.695h-1.036v-5.178h1.016V33.285z"/>
	<path fill="#FFFFFF" d="M35.015,33.129c0.331-0.572,0.691-0.66,1.188-0.66c0.348,0,1.859-0.033,1.859,1.68v3.625h-1.066v-3.109
		c0-0.74-0.196-1.209-0.871-1.209c0,0-0.501-0.111-0.899,0.305c-0.14,0.148-0.211,0.33-0.211,1.354v2.662h-1.13v-6.558l1.13-0.573
		V33.129z"/>
	<polygon fill="#FFFFFF" points="31.819,29.87 31.325,29.87 27.204,39.387 27.699,39.387 	"/>
	<path fill="#EC1C24" d="M41.253,7.953c0.157-0.871-2.063-0.961-2.063-0.961L8.061,38.121l0.14,1.051
		c-0.157,0.871,0.422,1.451,1.294,1.295l1.107,0.086L41.54,9.615L41.253,7.953z"/>
	<path fill="none" stroke="#FFFFFF" stroke-width="0.798" d="M39.865,40.547c1.028,0,1.862-0.832,1.862-1.861V8.902
		c0-1.029-0.834-1.862-1.862-1.862H10.081c-1.028,0-1.861,0.833-1.861,1.862v29.783c0,1.029,0.833,1.861,1.861,1.861H39.865z"/>
	<line fill="none" stroke="#FFFFFF" stroke-width="0.798" x1="38.64" y1="7.074" x2="8.335" y2="37.406"/>
	<line fill="none" stroke="#FFFFFF" stroke-width="0.798" x1="41.803" y1="9.879" x2="11.059" y2="40.625"/>
	<rect fill="none" width="50.315" height="50.314"/>
</g>
<g id="Layer_5">
</g>
<g id="Layer_4">
</g>
<g id="Layer_3">
</g>
<g id="Layer_2">
</g>
</svg>
