<?xml version="1.0" encoding="utf-8"?>
<!-- Generator: Adobe Illustrator 16.0.0, SVG Export Plug-In . SVG Version: 6.00 Build 0)  -->
<!DOCTYPE svg PUBLIC "-//W3C//DTD SVG 1.1//EN" "http://www.w3.org/Graphics/SVG/1.1/DTD/svg11.dtd">
<svg version="1.1" xmlns="http://www.w3.org/2000/svg" xmlns:xlink="http://www.w3.org/1999/xlink" x="0px" y="0px"
	 width="50.314px" height="50.314px" viewBox="0 0 50.314 50.314" enable-background="new 0 0 50.314 50.314" xml:space="preserve">
<g id="Layer_8">
</g>
<g id="Layer_7">
</g>
<g id="Layer_6">
</g>
<g id="Layer_5">
</g>
<g id="Layer_4">
</g>
<g id="Layer_3">
	<path fill="#FFFFFF" d="M41.197,26.034c0.487-0.487,0.487-1.276,0-1.764L26.646,9.719c-0.487-0.487-1.277-0.487-1.764,0
		L10.329,24.271c-0.486,0.487-0.486,1.276,0,1.764l14.553,14.552c0.486,0.487,1.276,0.487,1.764,0L41.197,26.034z"/>
	<path fill="none" stroke="#000000" stroke-width="0.908" d="M41.197,26.034c0.487-0.487,0.487-1.276,0-1.764L26.646,9.719
		c-0.487-0.487-1.277-0.487-1.764,0L10.329,24.271c-0.486,0.487-0.486,1.276,0,1.764l14.553,14.552c0.486,0.487,1.276,0.487,1.764,0
		L41.197,26.034z"/>
	
		<rect x="18.257" y="17.64" transform="matrix(0.7071 0.7071 -0.7071 0.7071 25.3333 -10.8552)" fill="#FFDD00" width="15.026" height="15.025"/>
	<line fill="none" stroke="#000000" stroke-width="0.908" x1="35.13" y1="18.204" x2="18.815" y2="34.519"/>
	<line fill="none" stroke="#000000" stroke-width="0.908" x1="33.924" y1="16.991" x2="17.605" y2="33.309"/>
	<line fill="none" stroke="#000000" stroke-width="0.908" x1="32.714" y1="15.78" x2="16.396" y2="32.099"/>
	<rect fill="none" width="50.314" height="50.314"/>
</g>
<g id="Layer_2">
</g>
</svg>
