<?xml version="1.0" encoding="utf-8"?>
<!-- Generator: Adobe Illustrator 16.0.0, SVG Export Plug-In . SVG Version: 6.00 Build 0)  -->
<!DOCTYPE svg PUBLIC "-//W3C//DTD SVG 1.1//EN" "http://www.w3.org/Graphics/SVG/1.1/DTD/svg11.dtd">
<svg version="1.1" xmlns="http://www.w3.org/2000/svg" xmlns:xlink="http://www.w3.org/1999/xlink" x="0px" y="0px"
	 width="50.315px" height="50.314px" viewBox="0 0 50.315 50.314" enable-background="new 0 0 50.315 50.314" xml:space="preserve">
<g id="Layer_8">
</g>
<g id="Layer_7">
</g>
<g id="Layer_6">
</g>
<g id="Layer_5">
</g>
<g id="Layer_4">
	<path fill="#ED1C24" d="M6.408,42.198C6.408,42.198,8.333,42.198,6.408,42.198c-1.705,0-0.825-1.869-0.825-1.869l18.426-31.9
		c0,0-0.4,0.707,0,0c0.715-1.265,1.649-1.21,2.31-0.055l18.425,31.955c0,0,0.88,1.869-0.825,1.869c-1.925,0,0,0,0,0H6.408z"/>
	<polygon fill="#FFFFFF" points="25.219,16.019 37.538,37.523 12.733,37.523 	"/>
	<polygon points="25.103,34.434 27.151,36.482 27.151,28.838 31.001,28.838 31.001,27.078 27.151,27.078 27.151,22.843 
		25.103,19.268 23.054,22.843 23.054,27.078 19.203,27.078 19.203,28.838 23.054,28.838 23.054,36.482 	"/>
	<path fill="#FFFFFF" d="M25.165,8.893c0.124,0.144,0.281,0.382,0.384,0.595l0.014,0.027l0.014,0.025
		c0.174,0.303,17.356,30.303,17.613,30.752c0.021,0.038,0.049,0.083,0.079,0.133c0.051,0.085,0.175,0.292,0.248,0.458
		c-0.053,0.006-0.116,0.01-0.194,0.01c-0.058,0-0.12-0.002-0.185-0.006l-0.022-0.002h-0.023H25.11H7.21H7.199H7.188
		c-0.032,0.002-0.063,0.003-0.093,0.003c-0.13,0-0.226-0.01-0.296-0.02c0.068-0.163,0.194-0.374,0.244-0.459
		c0.026-0.043,0.049-0.082,0.07-0.118c0.241-0.422,15.502-27.067,17.417-30.41c0.01-0.016,0.02-0.031,0.03-0.05L24.56,9.83
		c0.1-0.174,0.156-0.273,0.167-0.29l0.009-0.016l0.008-0.017C24.823,9.354,25.014,9.062,25.165,8.893 M25.172,8.002
		c-0.552,0-1.138,1.143-1.138,1.143S6.682,39.442,6.422,39.896c-0.256,0.443-1.197,1.788,0.674,1.788c0.036,0,0.075,0,0.114-0.001
		h17.9h17.981c0.081,0.004,0.158,0.006,0.23,0.006c1.776,0,0.808-1.358,0.559-1.793c-0.26-0.454-17.612-30.752-17.612-30.752
		S25.724,8.002,25.172,8.002 M23.864,9.444c0,0,0.003-0.005,0.008-0.014C23.867,9.44,23.864,9.444,23.864,9.444"/>
	<rect fill="none" width="50.315" height="50.314"/>
</g>
<g id="Layer_3">
</g>
<g id="Layer_2">
</g>
</svg>
