<?xml version="1.0" encoding="utf-8"?>
<!-- Generator: Adobe Illustrator 16.0.0, SVG Export Plug-In . SVG Version: 6.00 Build 0)  -->
<!DOCTYPE svg PUBLIC "-//W3C//DTD SVG 1.1//EN" "http://www.w3.org/Graphics/SVG/1.1/DTD/svg11.dtd">
<svg version="1.1" xmlns="http://www.w3.org/2000/svg" xmlns:xlink="http://www.w3.org/1999/xlink" x="0px" y="0px"
	 width="50.315px" height="50.314px" viewBox="0 0 50.315 50.314" enable-background="new 0 0 50.315 50.314" xml:space="preserve">
<g id="Layer_8">
</g>
<g id="Layer_7">
</g>
<g id="Layer_6">
</g>
<g id="Layer_5">
	<path fill="#ED1C24" d="M6.869,43.559C6.869,43.559,8.794,43.559,6.869,43.559c-1.705,0-0.825-1.87-0.825-1.87L24.469,9.789
		c0,0-0.4,0.707,0,0c0.715-1.266,1.65-1.21,2.31-0.056l18.425,31.955c0,0,0.88,1.87-0.825,1.87c-1.925,0,0,0,0,0H6.869z"/>
	<polygon fill="#FFFFFF" points="25.679,17.379 37.999,38.884 13.194,38.884 	"/>
	<polygon points="25.667,35.804 27.717,37.853 27.717,30.208 27.717,28.448 27.717,24.213 25.667,20.638 23.619,24.213 
		23.619,28.448 19.769,28.448 19.769,30.208 23.619,30.208 23.619,37.853 	"/>
	<path fill="#FFFFFF" d="M25.625,10.252c0.124,0.145,0.281,0.382,0.384,0.596l0.013,0.026l0.014,0.026
		c0.174,0.303,17.356,30.303,17.613,30.752c0.022,0.038,0.049,0.083,0.079,0.133c0.051,0.085,0.175,0.292,0.248,0.458
		c-0.052,0.005-0.116,0.009-0.194,0.009c-0.058,0-0.12-0.002-0.185-0.006l-0.022-0.001h-0.023H25.571H7.67H7.66H7.648
		c-0.032,0.001-0.063,0.002-0.093,0.002c-0.129,0-0.225-0.009-0.295-0.019c0.068-0.163,0.194-0.374,0.244-0.459
		c0.026-0.043,0.049-0.082,0.07-0.118c0.241-0.422,15.502-27.068,17.417-30.41c0.01-0.016,0.02-0.032,0.03-0.05L25.02,11.19
		c0.1-0.174,0.157-0.274,0.167-0.29l0.009-0.017l0.008-0.016C25.284,10.713,25.474,10.421,25.625,10.252 M25.633,9.362
		c-0.552,0-1.138,1.142-1.138,1.142S7.142,40.803,6.883,41.256c-0.256,0.444-1.198,1.788,0.673,1.788c0.037,0,0.076,0,0.115-0.001
		h17.9h17.982c0.081,0.004,0.158,0.006,0.23,0.006c1.776,0,0.808-1.357,0.559-1.793c-0.26-0.453-17.613-30.752-17.613-30.752
		S26.184,9.362,25.633,9.362 M24.325,10.805c0,0,0.003-0.006,0.008-0.015C24.328,10.8,24.325,10.805,24.325,10.805"/>
	<rect fill="none" width="50.315" height="50.314"/>
</g>
<g id="Layer_4">
</g>
<g id="Layer_3">
</g>
<g id="Layer_2">
</g>
</svg>
