<?xml version="1.0" encoding="utf-8"?>
<!-- Generator: Adobe Illustrator 16.0.0, SVG Export Plug-In . SVG Version: 6.00 Build 0)  -->
<!DOCTYPE svg PUBLIC "-//W3C//DTD SVG 1.1//EN" "http://www.w3.org/Graphics/SVG/1.1/DTD/svg11.dtd">
<svg version="1.1" xmlns="http://www.w3.org/2000/svg" xmlns:xlink="http://www.w3.org/1999/xlink" x="0px" y="0px"
	 width="50.315px" height="41.953px" viewBox="0 0 50.315 41.953" enable-background="new 0 0 50.315 41.953" xml:space="preserve">
<g id="Layer_8">
</g>
<g id="Layer_7">
</g>
<g id="Layer_6">
	<path fill="#ED1C24" d="M6.761,39.873C6.761,39.873,8.687,39.873,6.761,39.873c-1.705,0-0.825-1.87-0.825-1.87L24.361,6.104
		c0,0-0.4,0.707,0,0c0.715-1.266,1.65-1.21,2.31-0.056l18.425,31.955c0,0,0.88,1.87-0.825,1.87c-1.925,0,0,0,0,0H6.761z"/>
	<polygon fill="#FFFFFF" points="25.571,13.693 37.891,35.198 13.086,35.198 	"/>
	<polygon points="24.953,32.187 27.001,34.235 27.001,26.59 30.852,26.59 30.852,24.83 27.001,24.83 27.001,20.595 24.953,17.021 
		22.904,20.595 22.904,34.235 	"/>
	<path fill="#FFFFFF" d="M25.531,6.559c0.124,0.144,0.281,0.382,0.384,0.595l0.013,0.027l0.014,0.025
		C26.116,7.51,43.297,37.51,43.555,37.958c0.022,0.038,0.049,0.083,0.079,0.134c0.051,0.085,0.175,0.292,0.248,0.458
		c-0.052,0.005-0.116,0.009-0.194,0.009c-0.058,0-0.12-0.002-0.185-0.006l-0.022-0.001h-0.023H25.476h-17.9H7.564H7.554
		c-0.032,0.001-0.063,0.002-0.093,0.002c-0.129,0-0.225-0.01-0.295-0.02c0.068-0.163,0.194-0.374,0.245-0.459
		c0.025-0.043,0.048-0.082,0.069-0.118c0.241-0.422,15.504-27.071,17.417-30.411c0.01-0.015,0.02-0.031,0.03-0.048l-0.002-0.001
		c0.1-0.175,0.158-0.274,0.167-0.291l0.009-0.016l0.007-0.014C25.225,6.952,25.396,6.704,25.531,6.559 M25.538,5.668
		c-0.552,0-1.138,1.143-1.138,1.143S7.046,37.108,6.788,37.563c-0.256,0.444-1.198,1.788,0.673,1.788c0.037,0,0.075,0,0.115-0.001
		h17.9h17.982c0.081,0.004,0.158,0.006,0.23,0.006c1.776,0,0.808-1.358,0.559-1.793c-0.26-0.454-17.613-30.752-17.613-30.752
		S26.088,5.668,25.538,5.668 M24.229,7.11c0,0,0.003-0.005,0.008-0.014C24.232,7.106,24.229,7.11,24.229,7.11"/>
	<rect fill="none" width="50.315" height="41.953"/>
</g>
<g id="Layer_5">
</g>
<g id="Layer_4">
</g>
<g id="Layer_3">
</g>
<g id="Layer_2">
</g>
</svg>
