<?xml version="1.0" encoding="utf-8"?>
<!-- Generator: Adobe Illustrator 16.0.0, SVG Export Plug-In . SVG Version: 6.00 Build 0)  -->
<!DOCTYPE svg PUBLIC "-//W3C//DTD SVG 1.1//EN" "http://www.w3.org/Graphics/SVG/1.1/DTD/svg11.dtd">
<svg version="1.1" xmlns="http://www.w3.org/2000/svg" xmlns:xlink="http://www.w3.org/1999/xlink" x="0px" y="0px"
	 width="50.314px" height="50.314px" viewBox="0 0 50.314 50.314" enable-background="new 0 0 50.314 50.314" xml:space="preserve">
<g id="Layer_8">
</g>
<g id="Layer_7">
	<path fill="#ED1C24" d="M6.471,8.141C6.471,8.141,8.396,8.141,6.471,8.141c-1.705,0-0.825,1.87-0.825,1.87l18.426,31.9
		c0,0-0.4-0.707,0,0c0.715,1.265,1.649,1.21,2.31,0.055l18.425-31.955c0,0,0.88-1.87-0.825-1.87c-1.925,0,0,0,0,0H6.471z"/>
	<polygon fill="#FFFFFF" points="25.281,34.32 37.601,12.815 12.796,12.815 	"/>
	<path fill="#FFFFFF" d="M7.084,9.396c0.058,0,0.12,0.002,0.185,0.005l0.023,0.002h0.021h17.982h17.9h0.011l0.011-0.001
		c0.032,0,0.063-0.001,0.093-0.001c0.129,0,0.226,0.008,0.295,0.018c-0.067,0.164-0.192,0.375-0.244,0.46
		c-0.025,0.043-0.049,0.082-0.069,0.117c-0.241,0.423-15.502,27.069-17.416,30.411c-0.012,0.016-0.021,0.032-0.031,0.049
		l0.002,0.001c-0.1,0.175-0.157,0.275-0.166,0.291l-0.009,0.017l-0.009,0.016c-0.08,0.155-0.27,0.447-0.423,0.616
		c-0.124-0.145-0.279-0.382-0.383-0.597l-0.013-0.025l-0.015-0.026C24.656,40.445,7.475,10.444,7.218,9.996
		c-0.023-0.038-0.049-0.083-0.08-0.133C7.087,9.777,6.963,9.571,6.891,9.404C6.941,9.399,7.006,9.396,7.084,9.396 M7.084,8.599
		c-1.776,0-0.809,1.357-0.56,1.794c0.262,0.453,17.613,30.752,17.613,30.752s0.545,1.141,1.097,1.141s1.139-1.141,1.139-1.141
		s17.353-30.299,17.611-30.752c0.255-0.444,1.197-1.788-0.674-1.789c-0.037,0-0.075,0.001-0.114,0.002h-17.9H7.313
		C7.232,8.601,7.155,8.599,7.084,8.599 M26.534,40.858c0.006-0.01,0.008-0.015,0.008-0.015S26.539,40.85,26.534,40.858"/>
	<rect fill="none" width="50.314" height="50.314"/>
</g>
<g id="Layer_6">
</g>
<g id="Layer_5">
</g>
<g id="Layer_4">
</g>
<g id="Layer_3">
</g>
<g id="Layer_2">
</g>
</svg>
