<?xml version="1.0" encoding="utf-8"?>
<!-- Generator: Adobe Illustrator 16.0.0, SVG Export Plug-In . SVG Version: 6.00 Build 0)  -->
<!DOCTYPE svg PUBLIC "-//W3C//DTD SVG 1.1//EN" "http://www.w3.org/Graphics/SVG/1.1/DTD/svg11.dtd">
<svg version="1.1" xmlns="http://www.w3.org/2000/svg" xmlns:xlink="http://www.w3.org/1999/xlink" x="0px" y="0px"
	 width="50.315px" height="50.314px" viewBox="0 0 50.315 50.314" enable-background="new 0 0 50.315 50.314" xml:space="preserve">
<g id="Layer_8">
	<polygon fill="#FFFFFF" points="32.308,43.293 17.439,43.293 6.948,32.772 6.948,17.905 17.468,7.413 32.308,7.413 42.8,17.934 
		42.8,32.744 	"/>
	<polygon fill="none" stroke="#ED1C24" stroke-width="0.314" points="32.308,43.293 17.439,43.293 6.948,32.772 6.948,17.905 
		17.468,7.413 32.308,7.413 42.8,17.934 42.8,32.744 	"/>
	<polygon fill="#ED1C24" points="31.803,42.075 17.945,42.075 8.166,32.271 8.166,18.411 17.971,8.632 31.803,8.632 41.582,18.438 
		41.582,32.243 	"/>
	<path fill="#FFFFFF" d="M10.542,28.471c0.505,1.174,1.5,1.646,2.455,1.646c1.219,0,2.092-0.817,2.091-2.093
		c-0.001-1.174-0.513-1.238-1.578-1.917l-1.34-0.75c-0.604-0.372-2.293-1.326-2.485-2.742c-0.247-1.819,0.953-3.419,3.091-3.419
		c2.07,0,3,1.052,3.33,2.171l-1.146,0.707c-0.45-1.036-1.377-1.407-2.186-1.407c-0.75,0-1.868,0.59-1.548,1.955
		c0.137,0.587,1.022,0.97,1.54,1.326l1.694,0.936c1.033,0.663,2.113,1.251,2.113,3.119c0,2.786-2.052,3.584-3.563,3.584
		c-1.636,0-2.355-0.574-2.75-1.048c-0.375-0.451-0.683-0.812-0.813-1.308L10.542,28.471z"/>
	<polygon fill="#FFFFFF" points="16.724,19.507 23.351,19.507 23.351,21.082 20.824,21.082 20.824,31.274 19.25,31.274 
		19.25,21.082 16.724,21.082 	"/>
	<path fill="#FFFFFF" d="M27.459,31.587c-2.855,0-3.729-3.656-3.729-6.196s0.874-6.195,3.729-6.195c2.854,0,3.729,3.655,3.729,6.195
		S30.313,31.587,27.459,31.587 M27.459,20.55c-1.662,0-2.333,2.071-2.333,4.841c0,2.771,0.671,4.842,2.333,4.842
		c1.661,0,2.347-2.03,2.347-4.801C29.806,22.662,29.12,20.55,27.459,20.55"/>
	<path fill="#FFFFFF" d="M34.472,31.275h-1.438V19.507h4.235c1.524,0,3.068,1.409,3.068,3.312c0,1.639-1.188,3.611-3.068,3.628
		h-2.798V31.275z M34.472,24.866h2.366c1.14,0,2.083-0.827,2.079-2.032c-0.004-1.162-0.979-1.774-2.027-1.774h-2.418V24.866z"/>
	<rect fill="none" width="50.315" height="50.314"/>
</g>
<g id="Layer_7">
</g>
<g id="Layer_6">
</g>
<g id="Layer_5">
</g>
<g id="Layer_4">
</g>
<g id="Layer_3">
</g>
<g id="Layer_2">
</g>
</svg>
