<?xml version="1.0" encoding="utf-8"?>
<!-- Generator: Adobe Illustrator 16.0.0, SVG Export Plug-In . SVG Version: 6.00 Build 0)  -->
<!DOCTYPE svg PUBLIC "-//W3C//DTD SVG 1.1//EN" "http://www.w3.org/Graphics/SVG/1.1/DTD/svg11.dtd">
<svg version="1.1" xmlns="http://www.w3.org/2000/svg" xmlns:xlink="http://www.w3.org/1999/xlink" x="0px" y="0px"
	 width="42.688px" height="42.634px" viewBox="0 0 42.688 42.634" enable-background="new 0 0 42.688 42.634" xml:space="preserve">
<g id="Layer_30">
</g>
<g id="Layer_29">
</g>
<g id="Layer_28">
</g>
<g id="Layer_27">
</g>
<g id="Layer_26">
</g>
<g id="Layer_25">
</g>
<g id="Layer_24">
</g>
<g id="Layer_23">
</g>
<g id="Layer_22">
</g>
<g id="Layer_21">
</g>
<g id="Layer_20">
</g>
<g id="Layer_19">
</g>
<g id="Layer_18">
</g>
<g id="Layer_17">
</g>
<g id="Layer_16">
</g>
<g id="Layer_15">
</g>
<g id="Layer_14">
</g>
<g id="Layer_13">
</g>
<g id="Layer_12">
</g>
<g id="Layer_11">
</g>
<g id="Layer_10">
</g>
<g id="Layer_9">
</g>
<g id="Layer_8">
</g>
<g id="Layer_7">
</g>
<g id="Layer_6">
</g>
<g id="Layer_5">
</g>
<g id="Layer_4">
</g>
<g id="Layer_3">
</g>
<g id="Layer_2">
	<path fill="#ED1C24" d="M20.63,39.993c9.811,0,17.765-7.954,17.765-17.765S30.441,4.463,20.63,4.463S2.865,12.417,2.865,22.228
		S10.819,39.993,20.63,39.993"/>
	<path fill="#FFFFFF" d="M20.621,35.365c7.259,0,13.143-5.884,13.143-13.143c0-7.258-5.884-13.143-13.143-13.143
		c-7.259,0-13.143,5.885-13.143,13.143C7.478,29.481,13.362,35.365,20.621,35.365"/>
	<path fill="#FFFFFF" d="M20.63,5.586c4.445,0,8.624,1.731,11.767,4.874s4.875,7.322,4.875,11.767c0,4.446-1.732,8.624-4.875,11.768
		c-3.143,3.143-7.322,4.874-11.767,4.874c-4.445,0-8.624-1.731-11.767-4.874c-3.144-3.144-4.874-7.322-4.874-11.768
		c0-4.445,1.73-8.624,4.874-11.767C12.006,7.317,16.185,5.586,20.63,5.586 M20.63,4.816c-9.616,0-17.411,7.795-17.411,17.411
		c0,9.616,7.795,17.412,17.411,17.412c9.616,0,17.412-7.796,17.412-17.412C38.042,12.612,30.246,4.816,20.63,4.816"/>
	<rect x="0.797" y="0.545" fill="none" width="41.891" height="44.658"/>
</g>
</svg>
