<?xml version="1.0" encoding="utf-8"?>
<!-- Generator: Adobe Illustrator 16.0.0, SVG Export Plug-In . SVG Version: 6.00 Build 0)  -->
<!DOCTYPE svg PUBLIC "-//W3C//DTD SVG 1.1//EN" "http://www.w3.org/Graphics/SVG/1.1/DTD/svg11.dtd">
<svg version="1.1" xmlns="http://www.w3.org/2000/svg" xmlns:xlink="http://www.w3.org/1999/xlink" x="0px" y="0px"
	 width="50.315px" height="44px" viewBox="0 0 50.315 44" enable-background="new 0 0 50.315 44" xml:space="preserve">
<g id="Layer_30">
</g>
<g id="Layer_29">
</g>
<g id="Layer_28">
</g>
<g id="Layer_27">
</g>
<g id="Layer_26">
</g>
<g id="Layer_25">
</g>
<g id="Layer_24">
</g>
<g id="Layer_23">
</g>
<g id="Layer_22">
</g>
<g id="Layer_21">
</g>
<g id="Layer_20">
</g>
<g id="Layer_19">
</g>
<g id="Layer_18">
</g>
<g id="Layer_17">
</g>
<g id="Layer_16">
</g>
<g id="Layer_15">
</g>
<g id="Layer_14">
</g>
<g id="Layer_13">
	<path fill="#ED1C24" d="M25.118,39.512c9.811,0,17.765-7.954,17.765-17.765S34.929,3.982,25.118,3.982S7.354,11.937,7.354,21.747
		S15.307,39.512,25.118,39.512"/>
	<path fill="#FFFFFF" d="M25.109,34.885c7.259,0,13.143-5.885,13.143-13.144c0-7.258-5.884-13.143-13.143-13.143
		c-7.258,0-13.143,5.885-13.143,13.143C11.966,29,17.851,34.885,25.109,34.885"/>
	<rect x="17.033" y="17.1" width="16.17" height="8.855"/>
	<path d="M24.99,28.17c1.209,0,2.189-0.98,2.189-2.189s-0.98-2.188-2.189-2.188s-2.189,0.979-2.189,2.188S23.781,28.17,24.99,28.17"
		/>
	<circle fill="none" stroke="#FFFFFF" stroke-width="0.165" cx="24.99" cy="25.981" r="2.189"/>
	<rect x="13.77" y="25.692" width="4.913" height="0.22"/>
	<path fill="#FFFFFF" d="M25.109,5.1c4.445,0,8.624,1.731,11.767,4.874c3.143,3.144,4.875,7.322,4.875,11.768
		c0,4.444-1.732,8.625-4.875,11.768c-3.143,3.144-7.322,4.874-11.767,4.874s-8.624-1.73-11.767-4.874
		c-3.144-3.143-4.874-7.323-4.874-11.768c0-4.445,1.73-8.624,4.874-11.768C16.485,6.831,20.664,5.1,25.109,5.1 M25.109,4.33
		c-9.616,0-17.411,7.795-17.411,17.411s7.795,17.412,17.411,17.412s17.412-7.796,17.412-17.412S34.725,4.33,25.109,4.33"/>
	<rect fill="none" width="50.315" height="44"/>
</g>
<g id="Layer_12">
</g>
<g id="Layer_11">
</g>
<g id="Layer_10">
</g>
<g id="Layer_9">
</g>
<g id="Layer_8">
</g>
<g id="Layer_7">
</g>
<g id="Layer_6">
</g>
<g id="Layer_5">
</g>
<g id="Layer_4">
</g>
<g id="Layer_3">
</g>
<g id="Layer_2">
</g>
</svg>
