<?xml version="1.0" encoding="utf-8"?>
<!-- Generator: Adobe Illustrator 16.0.0, SVG Export Plug-In . SVG Version: 6.00 Build 0)  -->
<!DOCTYPE svg PUBLIC "-//W3C//DTD SVG 1.1//EN" "http://www.w3.org/Graphics/SVG/1.1/DTD/svg11.dtd">
<svg version="1.1" xmlns="http://www.w3.org/2000/svg" xmlns:xlink="http://www.w3.org/1999/xlink" x="0px" y="0px"
	 width="50.315px" height="44px" viewBox="0 0 50.315 44" enable-background="new 0 0 50.315 44" xml:space="preserve">
<g id="Layer_30">
</g>
<g id="Layer_29">
</g>
<g id="Layer_28">
</g>
<g id="Layer_27">
</g>
<g id="Layer_26">
</g>
<g id="Layer_25">
</g>
<g id="Layer_24">
</g>
<g id="Layer_23">
</g>
<g id="Layer_22">
</g>
<g id="Layer_21">
</g>
<g id="Layer_20">
</g>
<g id="Layer_19">
</g>
<g id="Layer_18">
</g>
<g id="Layer_17">
</g>
<g id="Layer_16">
</g>
<g id="Layer_15">
</g>
<g id="Layer_14">
	<path fill="#ED1C24" d="M25.243,39.552c9.811,0,17.765-7.954,17.765-17.766c0-9.811-7.954-17.765-17.765-17.765
		S7.478,11.976,7.478,21.786C7.478,31.598,15.432,39.552,25.243,39.552"/>
	<path fill="#FFFFFF" d="M25.233,34.924c7.258,0,13.143-5.884,13.143-13.144c0-7.259-5.885-13.143-13.143-13.143
		S12.09,14.521,12.09,21.78C12.09,29.04,17.976,34.924,25.233,34.924"/>
	<path d="M18.856,28.887c2.016,0,3.651-1.635,3.651-3.65c0-2.017-1.635-3.651-3.651-3.651s-3.651,1.635-3.651,3.651
		C15.205,27.252,16.84,28.887,18.856,28.887"/>
	<path fill="#FFFFFF" d="M18.846,27.558c1.283,0,2.323-1.04,2.323-2.323s-1.04-2.323-2.323-2.323c-1.283,0-2.323,1.04-2.323,2.323
		S17.563,27.558,18.846,27.558"/>
	<path d="M31.623,28.887c2.016,0,3.651-1.635,3.651-3.65c0-2.017-1.635-3.651-3.651-3.651s-3.651,1.635-3.651,3.651
		C27.972,27.252,29.607,28.887,31.623,28.887"/>
	<path fill="#FFFFFF" d="M31.612,27.558c1.283,0,2.323-1.04,2.323-2.323s-1.04-2.323-2.323-2.323c-1.283,0-2.323,1.04-2.323,2.323
		S30.33,27.558,31.612,27.558"/>
	<path d="M20.149,19.205l3.696-4.076c0.761-0.828,1.993-1.03,2.598-0.201s2.934,3.964,2.934,3.964
		c1.03,1.658-0.134,2.822-0.739,2.822H24.83l2.688,3.091l-0.739,1.188l-4.032-4.099c-0.425-0.403-0.358-1.546,0.314-1.703
		c0.672-0.156,3.046-0.806,3.046-0.806l-2.083-2.195l-3.113,2.778L20.149,19.205z"/>
	<path d="M25.481,14.043c-0.557-0.039-1.181,0.231-1.636,0.728l-0.137,0.152H22.3v-1.048h1.209v-0.739H22.3
		c0-2.688,3.539-2.621,3.539,0C25.839,13.449,25.481,14.043,25.481,14.043"/>
	<path fill="#FFFFFF" d="M25.233,5.14c4.445,0,8.624,1.73,11.767,4.873c3.143,3.144,4.875,7.322,4.875,11.768
		S40.144,30.405,37,33.548c-3.143,3.144-7.322,4.874-11.767,4.874s-8.624-1.73-11.767-4.874c-3.144-3.143-4.874-7.322-4.874-11.768
		s1.73-8.624,4.874-11.768C16.609,6.87,20.789,5.14,25.233,5.14 M25.233,4.369c-9.616,0-17.411,7.795-17.411,17.411
		c0,9.617,7.795,17.412,17.411,17.412c9.616,0,17.412-7.795,17.412-17.412C42.646,12.164,34.849,4.369,25.233,4.369"/>
	<rect fill="none" width="50.315" height="44"/>
</g>
<g id="Layer_13">
</g>
<g id="Layer_12">
</g>
<g id="Layer_11">
</g>
<g id="Layer_10">
</g>
<g id="Layer_9">
</g>
<g id="Layer_8">
</g>
<g id="Layer_7">
</g>
<g id="Layer_6">
</g>
<g id="Layer_5">
</g>
<g id="Layer_4">
</g>
<g id="Layer_3">
</g>
<g id="Layer_2">
</g>
</svg>
