<?xml version="1.0" encoding="utf-8"?>
<!-- Generator: Adobe Illustrator 16.0.0, SVG Export Plug-In . SVG Version: 6.00 Build 0)  -->
<!DOCTYPE svg PUBLIC "-//W3C//DTD SVG 1.1//EN" "http://www.w3.org/Graphics/SVG/1.1/DTD/svg11.dtd">
<svg version="1.1" xmlns="http://www.w3.org/2000/svg" xmlns:xlink="http://www.w3.org/1999/xlink" x="0px" y="0px"
	 width="50.314px" height="44px" viewBox="0 0 50.314 44" enable-background="new 0 0 50.314 44" xml:space="preserve">
<g id="Layer_30">
</g>
<g id="Layer_29">
</g>
<g id="Layer_28">
</g>
<g id="Layer_27">
</g>
<g id="Layer_26">
</g>
<g id="Layer_25">
</g>
<g id="Layer_24">
</g>
<g id="Layer_23">
</g>
<g id="Layer_22">
</g>
<g id="Layer_21">
</g>
<g id="Layer_20">
</g>
<g id="Layer_19">
</g>
<g id="Layer_18">
</g>
<g id="Layer_17">
</g>
<g id="Layer_16">
</g>
<g id="Layer_15">
	<path fill="#ED1C24" d="M25.131,39.789c9.812,0,17.765-7.954,17.765-17.765c0-9.812-7.953-17.766-17.765-17.766
		c-9.811,0-17.765,7.954-17.765,17.766C7.366,31.835,15.32,39.789,25.131,39.789"/>
	<path fill="#FFFFFF" d="M25.121,35.161c7.26,0,13.144-5.884,13.144-13.143c0-7.258-5.884-13.144-13.144-13.144
		c-7.258,0-13.143,5.886-13.143,13.144C11.979,29.277,17.863,35.161,25.121,35.161"/>
	<path d="M25.241,18.944h3.78v1.76c0,0.344,0.248,0.33,0.248,0.33h1.142c0,0,0.247,0.014,0.247-0.33v-1.76h0.11l0.771-0.88v-2.806
		l-0.771-0.577l-1.113-2.818c-2.489-0.33-4.429-0.358-4.429-0.344c0-0.015-1.938,0.014-4.427,0.344l-1.114,2.818l-0.77,0.577v2.806
		l0.77,0.88h0.11v1.76c0,0.344,0.248,0.33,0.248,0.33h1.141c0,0,0.247,0.014,0.247-0.33v-1.76h3.782H25.241z"/>
	<path fill="#FFFFFF" d="M25.228,14.489c0-0.014,3.259,0.083,4.854,0.206l0.012-0.005l-0.851-2.153
		c-2.489-0.331-4.015-0.358-4.015-0.344c0-0.015-1.526,0.013-4.016,0.344l-0.851,2.153l0.012,0.005
		C21.968,14.572,25.228,14.476,25.228,14.489"/>
	<path fill="#FFFFFF" d="M28.548,17.129h2.118c0.226,0,0.239-0.233,0.239-0.233v-1.094c0,0-0.014-0.233-0.239-0.233h-1.754
		c-0.227,0-0.308,0.159-0.336,0.227c-0.05,0.11-0.275,1.101-0.275,1.101C28.301,17.115,28.548,17.129,28.548,17.129"/>
	<path fill="#FFFFFF" d="M21.906,17.129h-2.118c-0.226,0-0.239-0.233-0.239-0.233v-1.094c0,0,0.014-0.233,0.239-0.233h1.755
		c0.226,0,0.307,0.159,0.337,0.227c0.048,0.11,0.273,1.101,0.273,1.101C22.153,17.115,21.906,17.129,21.906,17.129"/>
	<path d="M21.367,32.505c1.238,0,2.241-1.003,2.241-2.241c0-1.237-1.003-2.241-2.241-2.241s-2.241,1.004-2.241,2.241
		C19.126,31.502,20.129,32.505,21.367,32.505"/>
	<path fill="#FFFFFF" d="M21.36,31.688c0.788,0,1.426-0.639,1.426-1.426c0-0.788-0.638-1.426-1.426-1.426s-1.426,0.638-1.426,1.426
		C19.935,31.05,20.572,31.688,21.36,31.688"/>
	<path d="M29.204,32.505c1.238,0,2.241-1.003,2.241-2.241c0-1.237-1.003-2.241-2.241-2.241c-1.237,0-2.24,1.004-2.24,2.241
		C26.964,31.502,27.967,32.505,29.204,32.505"/>
	<path fill="#FFFFFF" d="M29.198,31.688c0.788,0,1.426-0.639,1.426-1.426c0-0.788-0.638-1.426-1.426-1.426s-1.426,0.638-1.426,1.426
		C27.772,31.05,28.41,31.688,29.198,31.688"/>
	<path d="M22.161,26.562l2.269-2.503c0.467-0.508,1.225-0.632,1.595-0.123c0.371,0.509,1.802,2.434,1.802,2.434
		c0.633,1.018-0.082,1.732-0.454,1.732h-2.337L26.685,30l-0.454,0.728l-2.475-2.516c-0.261-0.247-0.22-0.949,0.193-1.045
		c0.412-0.097,1.87-0.495,1.87-0.495l-1.279-1.349l-1.912,1.705L22.161,26.562z"/>
	<path d="M25.434,23.393c-0.342-0.024-0.725,0.143-1.004,0.446l-0.085,0.094H23.48v-0.644h0.743v-0.454H23.48
		c0-1.649,2.174-1.608,2.174,0C25.654,23.028,25.434,23.393,25.434,23.393"/>
	<path fill="#FFFFFF" d="M25.121,5.377c4.445,0,8.624,1.731,11.768,4.874s4.875,7.322,4.875,11.767
		c0,4.445-1.731,8.625-4.875,11.769c-3.144,3.143-7.322,4.874-11.768,4.874c-4.444,0-8.624-1.731-11.767-4.874
		C10.21,30.643,8.48,26.463,8.48,22.018c0-4.444,1.729-8.624,4.874-11.767C16.497,7.108,20.677,5.377,25.121,5.377 M25.121,4.606
		c-9.615,0-17.411,7.796-17.411,17.411c0,9.616,7.796,17.412,17.411,17.412c9.616,0,17.412-7.796,17.412-17.412
		C42.533,12.402,34.737,4.606,25.121,4.606"/>
	<rect fill="none" width="50.314" height="44"/>
</g>
<g id="Layer_14">
</g>
<g id="Layer_13">
</g>
<g id="Layer_12">
</g>
<g id="Layer_11">
</g>
<g id="Layer_10">
</g>
<g id="Layer_9">
</g>
<g id="Layer_8">
</g>
<g id="Layer_7">
</g>
<g id="Layer_6">
</g>
<g id="Layer_5">
</g>
<g id="Layer_4">
</g>
<g id="Layer_3">
</g>
<g id="Layer_2">
</g>
</svg>
