<?xml version="1.0" encoding="utf-8"?>
<!-- Generator: Adobe Illustrator 16.0.0, SVG Export Plug-In . SVG Version: 6.00 Build 0)  -->
<!DOCTYPE svg PUBLIC "-//W3C//DTD SVG 1.1//EN" "http://www.w3.org/Graphics/SVG/1.1/DTD/svg11.dtd">
<svg version="1.1" xmlns="http://www.w3.org/2000/svg" xmlns:xlink="http://www.w3.org/1999/xlink" x="0px" y="0px"
	 width="50.315px" height="44px" viewBox="0 0 50.315 44" enable-background="new 0 0 50.315 44" xml:space="preserve">
<g id="Layer_30">
</g>
<g id="Layer_29">
</g>
<g id="Layer_28">
</g>
<g id="Layer_27">
</g>
<g id="Layer_26">
</g>
<g id="Layer_25">
</g>
<g id="Layer_24">
</g>
<g id="Layer_23">
</g>
<g id="Layer_22">
</g>
<g id="Layer_21">
</g>
<g id="Layer_20">
</g>
<g id="Layer_19">
</g>
<g id="Layer_18">
</g>
<g id="Layer_17">
</g>
<g id="Layer_16">
	<path fill="#ED1C24" d="M25.018,39.798c9.812,0,17.766-7.954,17.766-17.765c0-9.812-7.954-17.766-17.766-17.766
		c-9.811,0-17.765,7.954-17.765,17.766C7.253,31.844,15.207,39.798,25.018,39.798"/>
	<path fill="#FFFFFF" d="M25.009,35.17c7.258,0,13.143-5.884,13.143-13.143c0-7.258-5.885-13.144-13.143-13.144
		S11.865,14.77,11.865,22.027C11.865,29.286,17.751,35.17,25.009,35.17"/>
	<path d="M31.731,27.839c2.102,0,3.805-1.703,3.805-3.805c0-2.101-1.703-3.804-3.805-3.804c-2.101,0-3.804,1.703-3.804,3.804
		C27.928,26.136,29.631,27.839,31.731,27.839"/>
	<path fill="#FFFFFF" d="M31.731,26.564c1.397,0,2.53-1.134,2.53-2.53c0-1.397-1.133-2.529-2.53-2.529
		c-1.396,0-2.53,1.132-2.53,2.529C29.201,25.431,30.335,26.564,31.731,26.564"/>
	<path d="M18.486,27.839c2.102,0,3.805-1.703,3.805-3.805c0-2.101-1.703-3.804-3.805-3.804c-2.101,0-3.804,1.703-3.804,3.804
		C14.683,26.136,16.386,27.839,18.486,27.839"/>
	<path fill="#FFFFFF" d="M18.486,26.564c1.397,0,2.53-1.134,2.53-2.53c0-1.397-1.133-2.529-2.53-2.529
		c-1.396,0-2.53,1.132-2.53,2.529C15.956,25.431,17.09,26.564,18.486,26.564"/>
	<path d="M24.112,15.132h-1.693c0,0-0.874-0.082-1.338,1.092l-3.195,7.674c0,0-0.245,0.574,0.272,0.765
		c0.52,0.191,0.902-0.491,0.902-0.491l3.304-7.729h1.748V15.132z"/>
	<path d="M21.19,17.944l2.867,0.055l1.147,1.829l-0.874,2.513l0.737,1.065l6.8,0.027c0,0,0.601-0.027,0.601,0.546
		s-0.546,0.683-0.546,0.683l-6.746,0.028c0,0-0.846,0.163-1.446-0.93c0,0-2.786-4.561-2.813-4.561
		C20.891,19.2,21.19,17.944,21.19,17.944"/>
	<path d="M34.408,17.972l0.055,1.502l-3.604,0.191c0,0-0.901,0.108-1.312,0.628c-0.41,0.519-0.982,0.301-1.146-0.082
		c-0.164-0.382-0.848-1.584-0.848-1.584s-0.246-0.655,0.602-0.655H34.408z"/>
	<path d="M18.623,20.348l0.055-0.792c0,0-1.257-0.136-1.775,0.19l0.246,0.766L18.623,20.348z"/>
	<path fill="#FFFFFF" d="M25.018,5.392c4.445,0,8.624,1.73,11.768,4.874c3.144,3.143,4.875,7.322,4.875,11.767
		c0,4.445-1.731,8.625-4.875,11.769c-3.144,3.143-7.322,4.874-11.768,4.874c-4.444,0-8.624-1.731-11.767-4.874
		c-3.143-3.144-4.874-7.323-4.874-11.769c0-4.444,1.731-8.624,4.874-11.767C16.394,7.122,20.573,5.392,25.018,5.392 M25.018,4.621
		c-9.615,0-17.411,7.796-17.411,17.411c0,9.616,7.796,17.412,17.411,17.412c9.616,0,17.412-7.796,17.412-17.412
		C42.43,12.417,34.634,4.621,25.018,4.621"/>
	<rect fill="none" width="50.315" height="44"/>
</g>
<g id="Layer_15">
</g>
<g id="Layer_14">
</g>
<g id="Layer_13">
</g>
<g id="Layer_12">
</g>
<g id="Layer_11">
</g>
<g id="Layer_10">
</g>
<g id="Layer_9">
</g>
<g id="Layer_8">
</g>
<g id="Layer_7">
</g>
<g id="Layer_6">
</g>
<g id="Layer_5">
</g>
<g id="Layer_4">
</g>
<g id="Layer_3">
</g>
<g id="Layer_2">
</g>
</svg>
