<?xml version="1.0" encoding="utf-8"?>
<!-- Generator: Adobe Illustrator 16.0.0, SVG Export Plug-In . SVG Version: 6.00 Build 0)  -->
<!DOCTYPE svg PUBLIC "-//W3C//DTD SVG 1.1//EN" "http://www.w3.org/Graphics/SVG/1.1/DTD/svg11.dtd">
<svg version="1.1" xmlns="http://www.w3.org/2000/svg" xmlns:xlink="http://www.w3.org/1999/xlink" x="0px" y="0px"
	 width="50.315px" height="44px" viewBox="0 0 50.315 44" enable-background="new 0 0 50.315 44" xml:space="preserve">
<g id="Layer_30">
</g>
<g id="Layer_29">
</g>
<g id="Layer_28">
</g>
<g id="Layer_27">
</g>
<g id="Layer_26">
</g>
<g id="Layer_25">
</g>
<g id="Layer_24">
</g>
<g id="Layer_23">
</g>
<g id="Layer_22">
</g>
<g id="Layer_21">
</g>
<g id="Layer_20">
</g>
<g id="Layer_19">
</g>
<g id="Layer_18">
</g>
<g id="Layer_17">
	<path fill="#ED1C24" d="M25.167,38.936c9.811,0,17.765-7.953,17.765-17.764c0-9.812-7.954-17.766-17.765-17.766
		c-9.811,0-17.765,7.954-17.765,17.766C7.401,30.982,15.355,38.936,25.167,38.936"/>
	<path fill="#FFFFFF" d="M25.157,34.309c7.258,0,13.143-5.885,13.143-13.143S32.415,8.022,25.157,8.022
		c-7.258,0-13.143,5.886-13.143,13.144S17.899,34.309,25.157,34.309"/>
	<path d="M18.881,27.164c2.256,0,4.085-1.829,4.085-4.085s-1.829-4.084-4.085-4.084s-4.085,1.828-4.085,4.084
		S16.625,27.164,18.881,27.164"/>
	<path fill="#FFFFFF" d="M18.876,26.157c1.703,0,3.083-1.38,3.083-3.083s-1.38-3.083-3.083-3.083s-3.083,1.38-3.083,3.083
		S17.173,26.157,18.876,26.157"/>
	<path d="M24.2,15.054v-1h-1.771c-0.798,0-1.028,1-1.028,1c-0.554,1.582-2.825,8.004-2.825,8.004
		c-0.23,0.581,0.689,0.905,0.906,0.351c0.216-0.554,2.812-7.867,2.812-7.867c0.175-0.556,0.689-0.487,0.689-0.487H24.2z"/>
	<path d="M32.042,22.576c-0.404-0.865-1.891-4.049-2.834-6.072h-7.739l-0.622,1.646l4.799,5.422h5.827
		C32.608,23.571,32.042,22.576,32.042,22.576"/>
	<path fill="#FFFFFF" d="M30.958,22.57c-0.665-1.4-1.656-3.536-2.363-5.043l-7.005-0.014l4.489,5.057H30.958z"/>
	<path d="M30.892,15.054v0.798l-3.448-0.014c-0.594,0-0.608-0.784,0-0.784H30.892z"/>
	<path d="M27.56,23.079c0-2.256,1.829-4.085,4.085-4.085c2.255,0,4.084,1.829,4.084,4.085c0,2.257-1.829,4.085-4.084,4.085
		C29.388,27.164,27.56,25.336,27.56,23.079 M31.638,26.157c1.703,0,3.083-1.38,3.083-3.083s-1.38-3.083-3.083-3.083
		c-1.703,0-3.083,1.38-3.083,3.083S29.936,26.157,31.638,26.157"/>
	<polygon points="26.346,23.354 29.941,15.704 29.041,15.28 25.429,22.977 	"/>
	<path fill="#FFFFFF" d="M25.157,4.523c4.445,0,8.624,1.731,11.768,4.875c3.144,3.143,4.875,7.321,4.875,11.767
		c0,4.444-1.731,8.625-4.875,11.769c-3.144,3.143-7.322,4.873-11.768,4.873c-4.445,0-8.624-1.73-11.767-4.873
		c-3.143-3.144-4.874-7.324-4.874-11.769c0-4.445,1.731-8.624,4.874-11.767C16.533,6.255,20.712,4.523,25.157,4.523 M25.157,3.754
		c-9.616,0-17.411,7.795-17.411,17.411s7.795,17.412,17.411,17.412c9.616,0,17.412-7.796,17.412-17.412S34.773,3.754,25.157,3.754"
		/>
	<rect fill="none" width="50.315" height="44"/>
</g>
<g id="Layer_16">
</g>
<g id="Layer_15">
</g>
<g id="Layer_14">
</g>
<g id="Layer_13">
</g>
<g id="Layer_12">
</g>
<g id="Layer_11">
</g>
<g id="Layer_10">
</g>
<g id="Layer_9">
</g>
<g id="Layer_8">
</g>
<g id="Layer_7">
</g>
<g id="Layer_6">
</g>
<g id="Layer_5">
</g>
<g id="Layer_4">
</g>
<g id="Layer_3">
</g>
<g id="Layer_2">
</g>
</svg>
