<?xml version="1.0" encoding="utf-8"?>
<!-- Generator: Adobe Illustrator 16.0.0, SVG Export Plug-In . SVG Version: 6.00 Build 0)  -->
<!DOCTYPE svg PUBLIC "-//W3C//DTD SVG 1.1//EN" "http://www.w3.org/Graphics/SVG/1.1/DTD/svg11.dtd">
<svg version="1.1" xmlns="http://www.w3.org/2000/svg" xmlns:xlink="http://www.w3.org/1999/xlink" x="0px" y="0px"
	 width="50.314px" height="44px" viewBox="0 0 50.314 44" enable-background="new 0 0 50.314 44" xml:space="preserve">
<g id="Layer_30">
</g>
<g id="Layer_29">
</g>
<g id="Layer_28">
</g>
<g id="Layer_27">
</g>
<g id="Layer_26">
</g>
<g id="Layer_25">
</g>
<g id="Layer_24">
</g>
<g id="Layer_23">
</g>
<g id="Layer_22">
</g>
<g id="Layer_21">
</g>
<g id="Layer_20">
</g>
<g id="Layer_19">
</g>
<g id="Layer_18">
	<path fill="#ED1C24" d="M25.088,38.821c9.812,0,17.766-7.954,17.766-17.765c0-9.812-7.954-17.766-17.766-17.766
		c-9.811,0-17.765,7.954-17.765,17.766C7.323,30.867,15.277,38.821,25.088,38.821"/>
	<path fill="#FFFFFF" d="M25.079,34.193c7.258,0,13.144-5.884,13.144-13.143c0-7.258-5.886-13.143-13.144-13.143
		c-7.259,0-13.144,5.885-13.144,13.143C11.936,28.31,17.82,34.193,25.079,34.193"/>
	<path d="M30.328,19.725c1.652,0,2.99-1.338,2.99-2.988c0-1.651-1.338-2.99-2.99-2.99c-1.65,0-2.988,1.339-2.988,2.99
		C27.34,18.387,28.678,19.725,30.328,19.725"/>
	<path fill="#FFFFFF" d="M30.328,18.723c1.099,0,1.988-0.889,1.988-1.987s-0.89-1.987-1.988-1.987c-1.098,0-1.987,0.889-1.987,1.987
		S29.23,18.723,30.328,18.723"/>
	<path d="M19.921,19.725c1.651,0,2.989-1.338,2.989-2.988c0-1.651-1.338-2.99-2.989-2.99s-2.989,1.339-2.989,2.99
		C16.932,18.387,18.27,19.725,19.921,19.725"/>
	<path fill="#FFFFFF" d="M19.921,18.723c1.099,0,1.988-0.889,1.988-1.987s-0.89-1.987-1.988-1.987s-1.987,0.889-1.987,1.987
		S18.822,18.723,19.921,18.723"/>
	<path d="M24.342,9.74h-1.33c0,0-0.688-0.064-1.053,0.857l-2.51,6.03c0,0-0.193,0.451,0.215,0.601
		c0.408,0.15,0.707-0.386,0.707-0.386l2.598-6.073h1.373V9.74z"/>
	<path d="M22.045,11.95l2.254,0.043l0.901,1.438l-0.687,1.974l0.578,0.837l5.345,0.021c0,0,0.472-0.021,0.472,0.43
		c0,0.449-0.429,0.535-0.429,0.535l-5.302,0.021c0,0-0.664,0.129-1.137-0.729c0,0-2.188-3.584-2.211-3.584
		C21.81,12.938,22.045,11.95,22.045,11.95"/>
	<path d="M32.432,11.972l0.043,1.18l-2.833,0.15c0,0-0.708,0.086-1.03,0.493c-0.32,0.408-0.771,0.236-0.9-0.063
		c-0.129-0.301-0.666-1.245-0.666-1.245s-0.192-0.515,0.473-0.515H32.432z"/>
	<path d="M20.028,13.838l0.043-0.621c0,0-0.987-0.108-1.396,0.15l0.193,0.601L20.028,13.838z"/>
	<path d="M20.15,31.158c1.772,0,3.209-1.438,3.209-3.211c0-1.771-1.437-3.209-3.209-3.209c-1.773,0-3.211,1.438-3.211,3.209
		C16.939,29.721,18.377,31.158,20.15,31.158"/>
	<path fill="#FFFFFF" d="M20.146,30.367c1.338,0,2.423-1.086,2.423-2.424s-1.085-2.422-2.423-2.422s-2.423,1.084-2.423,2.422
		S18.808,30.367,20.146,30.367"/>
	<path d="M24.328,21.642v-0.786h-1.392c-0.627,0-0.807,0.786-0.807,0.786c-0.437,1.243-2.22,6.289-2.22,6.289
		c-0.182,0.457,0.541,0.712,0.711,0.276s2.209-6.184,2.209-6.184c0.139-0.435,0.543-0.382,0.543-0.382H24.328z"/>
	<path d="M30.491,27.553c-0.317-0.68-1.486-3.181-2.228-4.771h-6.08l-0.49,1.293l3.771,4.26h4.579
		C30.938,28.334,30.491,27.553,30.491,27.553"/>
	<path fill="#FFFFFF" d="M29.64,27.549c-0.522-1.102-1.302-2.779-1.856-3.965l-5.504-0.01l3.526,3.975H29.64z"/>
	<path d="M29.588,21.642v0.627l-2.709-0.011c-0.468,0-0.479-0.616,0-0.616H29.588z"/>
	<path d="M26.969,27.947c0-1.771,1.438-3.209,3.209-3.209c1.773,0,3.211,1.438,3.211,3.209c0,1.773-1.438,3.211-3.211,3.211
		C28.406,31.158,26.969,29.721,26.969,27.947 M30.174,30.367c1.338,0,2.424-1.086,2.424-2.424s-1.086-2.422-2.424-2.422
		s-2.422,1.084-2.422,2.422S28.836,30.367,30.174,30.367"/>
	<polygon points="26.016,28.163 28.841,22.153 28.133,21.82 25.295,27.867 	"/>
	<path fill="#FFFFFF" d="M25.079,4.409c4.444,0,8.624,1.731,11.767,4.874s4.875,7.322,4.875,11.768
		c0,4.444-1.732,8.625-4.875,11.768s-7.322,4.874-11.767,4.874c-4.445,0-8.624-1.731-11.767-4.874
		c-3.145-3.143-4.875-7.323-4.875-11.768c0-4.445,1.73-8.625,4.875-11.768C16.455,6.141,20.634,4.409,25.079,4.409 M25.079,3.639
		c-9.616,0-17.411,7.795-17.411,17.412c0,9.615,7.795,17.412,17.411,17.412S42.49,30.666,42.49,21.051
		C42.49,11.434,34.695,3.639,25.079,3.639"/>
	<rect fill="none" width="50.314" height="44"/>
</g>
<g id="Layer_17">
</g>
<g id="Layer_16">
</g>
<g id="Layer_15">
</g>
<g id="Layer_14">
</g>
<g id="Layer_13">
</g>
<g id="Layer_12">
</g>
<g id="Layer_11">
</g>
<g id="Layer_10">
</g>
<g id="Layer_9">
</g>
<g id="Layer_8">
</g>
<g id="Layer_7">
</g>
<g id="Layer_6">
</g>
<g id="Layer_5">
</g>
<g id="Layer_4">
</g>
<g id="Layer_3">
</g>
<g id="Layer_2">
</g>
</svg>
