<?xml version="1.0" encoding="utf-8"?>
<!-- Generator: Adobe Illustrator 16.0.0, SVG Export Plug-In . SVG Version: 6.00 Build 0)  -->
<!DOCTYPE svg PUBLIC "-//W3C//DTD SVG 1.1//EN" "http://www.w3.org/Graphics/SVG/1.1/DTD/svg11.dtd">
<svg version="1.1" xmlns="http://www.w3.org/2000/svg" xmlns:xlink="http://www.w3.org/1999/xlink" x="0px" y="0px"
	 width="50.314px" height="44px" viewBox="0 0 50.314 44" enable-background="new 0 0 50.314 44" xml:space="preserve">
<g id="Layer_30">
</g>
<g id="Layer_29">
</g>
<g id="Layer_28">
</g>
<g id="Layer_27">
</g>
<g id="Layer_26">
</g>
<g id="Layer_25">
</g>
<g id="Layer_24">
</g>
<g id="Layer_23">
</g>
<g id="Layer_22">
</g>
<g id="Layer_21">
</g>
<g id="Layer_20">
</g>
<g id="Layer_19">
	<path fill="#ED1C24" d="M25.161,39.077c9.811,0,17.765-7.954,17.765-17.765S34.972,3.547,25.161,3.547
		c-9.812,0-17.766,7.955-17.766,17.766S15.35,39.077,25.161,39.077"/>
	<path fill="#FFFFFF" d="M25.151,34.449c7.258,0,13.143-5.884,13.143-13.143c0-7.258-5.885-13.143-13.143-13.143
		s-13.143,5.885-13.143,13.143C12.009,28.565,17.894,34.449,25.151,34.449"/>
	<path d="M24.914,13.275c1.004,0,1.816-0.813,1.816-1.816c0-1.004-0.813-1.818-1.816-1.818s-1.817,0.814-1.817,1.818
		C23.097,12.462,23.91,13.275,24.914,13.275"/>
	<path d="M24.914,13.547c-0.561,0-1.061,0.252-1.395,0.65l-5.179,5.3l0.66,0.688l4.125-3.163c0.083,1.76,0.439,3.603,0.439,3.603
		l-3.244,11.688h1.21l3.822-8.801l1.375,3.769l3.3,4.922l0.99-0.825l-2.64-5.142l-1.183-5.94l-0.027-3.189l0.907,0.66l0.633,3.189
		l0.907,0.055l-0.275-3.959l-2.97-3.08C25.711,13.365,24.914,13.547,24.914,13.547"/>
	<path fill="#FFFFFF" d="M25.151,4.665c4.445,0,8.624,1.731,11.767,4.874c3.144,3.143,4.875,7.322,4.875,11.768
		c0,4.444-1.731,8.625-4.875,11.768c-3.143,3.143-7.321,4.874-11.767,4.874s-8.624-1.731-11.767-4.874
		c-3.145-3.143-4.874-7.323-4.874-11.768c0-4.445,1.729-8.625,4.874-11.768C16.527,6.396,20.706,4.665,25.151,4.665 M25.151,3.895
		c-9.616,0-17.411,7.797-17.411,17.412s7.795,17.412,17.411,17.412s17.412-7.797,17.412-17.412S34.768,3.895,25.151,3.895"/>
	<rect fill="none" width="50.314" height="44"/>
</g>
<g id="Layer_18">
</g>
<g id="Layer_17">
</g>
<g id="Layer_16">
</g>
<g id="Layer_15">
</g>
<g id="Layer_14">
</g>
<g id="Layer_13">
</g>
<g id="Layer_12">
</g>
<g id="Layer_11">
</g>
<g id="Layer_10">
</g>
<g id="Layer_9">
</g>
<g id="Layer_8">
</g>
<g id="Layer_7">
</g>
<g id="Layer_6">
</g>
<g id="Layer_5">
</g>
<g id="Layer_4">
</g>
<g id="Layer_3">
</g>
<g id="Layer_2">
</g>
</svg>
