<?xml version="1.0" encoding="utf-8"?>
<!-- Generator: Adobe Illustrator 16.0.0, SVG Export Plug-In . SVG Version: 6.00 Build 0)  -->
<!DOCTYPE svg PUBLIC "-//W3C//DTD SVG 1.1//EN" "http://www.w3.org/Graphics/SVG/1.1/DTD/svg11.dtd">
<svg version="1.1" xmlns="http://www.w3.org/2000/svg" xmlns:xlink="http://www.w3.org/1999/xlink" x="0px" y="0px"
	 width="50.315px" height="44px" viewBox="0 0 50.315 44" enable-background="new 0 0 50.315 44" xml:space="preserve">
<g id="Layer_30">
</g>
<g id="Layer_29">
</g>
<g id="Layer_28">
</g>
<g id="Layer_27">
</g>
<g id="Layer_26">
</g>
<g id="Layer_25">
</g>
<g id="Layer_24">
</g>
<g id="Layer_23">
</g>
<g id="Layer_22">
</g>
<g id="Layer_21">
</g>
<g id="Layer_20">
	<path fill="#ED1C24" d="M25.276,39.032c9.791,0,17.729-7.938,17.729-17.729S35.067,3.575,25.276,3.575S7.548,11.512,7.548,21.303
		S15.485,39.032,25.276,39.032"/>
	<path fill="#FFFFFF" d="M25.268,34.414c7.244,0,13.116-5.872,13.116-13.116S32.512,8.182,25.268,8.182s-13.116,5.872-13.116,13.116
		S18.023,34.414,25.268,34.414"/>
	<path d="M30.409,18.105h-0.048c0.202-0.492,0.599-0.614,0.942-0.633c0.454-0.023,0.924,0.321,0.967,0.664
		c-0.049-0.389,0.708-0.664,1.104-0.664c0.411,0,1.136,0.309,1.136,1.227v2.767h-0.784v-2.321c-0.041-0.373,0.077-0.91-0.649-0.91
		c-0.196,0-0.462,0.125-0.501,0.371c-0.06,0.367-0.068,0.75-0.068,0.844v2.017h-0.742v-2.321c0-0.681-0.299-0.887-0.645-0.887
		c-0.315,0-0.547,0.188-0.671,0.521c-0.074,0.203-0.026,0.576-0.026,0.67v2.017h-0.702V17.59h0.688V18.105z"/>
	<path d="M18.522,13.471c0.552-0.082,0.96-0.327,1.205-0.878h1.183v8.882h-1.313v-6.929h-1.075V13.471z"/>
	<path d="M22.328,17.023c0-2.027,0.729-4.562,3.011-4.562c2.281,0,3.019,2.437,3.019,4.438c0,2.903-1.118,4.74-3.019,4.74
		C23.437,21.641,22.328,19.9,22.328,17.023 M27.064,16.941c0-2.104-0.881-3.158-1.741-3.158c-0.862,0-1.635,1.096-1.635,3.199
		c0,2.396,0.772,3.336,1.635,3.336C26.184,20.318,27.064,19.338,27.064,16.941"/>
	<path d="M19.75,26.234l0.358-1.537c0.146-0.373-0.046-0.666-0.405-0.455l-3.371,2.347c-0.302,0.212-0.302,0.392,0,0.603
		l3.371,2.348c0.359,0.21,0.552-0.083,0.405-0.455l-0.354-1.52h11.679l-0.358,1.528c-0.147,0.373,0.045,0.666,0.405,0.456
		l3.371-2.348c0.301-0.213,0.301-0.392,0-0.604l-3.371-2.347c-0.36-0.21-0.553,0.083-0.405,0.455l0.479,1.538L19.75,26.234z"/>
	<path fill="#FFFFFF" d="M25.276,4.662c4.445,0,8.624,1.73,11.768,4.874c3.143,3.143,4.875,7.321,4.875,11.767
		s-1.732,8.625-4.875,11.768c-3.144,3.144-7.322,4.875-11.768,4.875c-4.444,0-8.624-1.731-11.767-4.875
		c-3.144-3.143-4.874-7.322-4.874-11.768s1.73-8.624,4.874-11.767C16.652,6.393,20.832,4.662,25.276,4.662 M25.276,3.893
		c-9.615,0-17.41,7.795-17.41,17.41c0,9.616,7.795,17.412,17.41,17.412c9.616,0,17.412-7.796,17.412-17.412
		C42.688,11.688,34.893,3.893,25.276,3.893"/>
	<rect fill="none" width="50.315" height="44"/>
</g>
<g id="Layer_19">
</g>
<g id="Layer_18">
</g>
<g id="Layer_17">
</g>
<g id="Layer_16">
</g>
<g id="Layer_15">
</g>
<g id="Layer_14">
</g>
<g id="Layer_13">
</g>
<g id="Layer_12">
</g>
<g id="Layer_11">
</g>
<g id="Layer_10">
</g>
<g id="Layer_9">
</g>
<g id="Layer_8">
</g>
<g id="Layer_7">
</g>
<g id="Layer_6">
</g>
<g id="Layer_5">
</g>
<g id="Layer_4">
</g>
<g id="Layer_3">
</g>
<g id="Layer_2">
</g>
</svg>
