<?xml version="1.0" encoding="utf-8"?>
<!-- Generator: Adobe Illustrator 16.0.0, SVG Export Plug-In . SVG Version: 6.00 Build 0)  -->
<!DOCTYPE svg PUBLIC "-//W3C//DTD SVG 1.1//EN" "http://www.w3.org/Graphics/SVG/1.1/DTD/svg11.dtd">
<svg version="1.1" xmlns="http://www.w3.org/2000/svg" xmlns:xlink="http://www.w3.org/1999/xlink" x="0px" y="0px"
	 width="50.315px" height="44px" viewBox="0 0 50.315 44" enable-background="new 0 0 50.315 44" xml:space="preserve">
<g id="Layer_30">
</g>
<g id="Layer_29">
</g>
<g id="Layer_28">
</g>
<g id="Layer_27">
</g>
<g id="Layer_26">
</g>
<g id="Layer_25">
</g>
<g id="Layer_24">
</g>
<g id="Layer_23">
</g>
<g id="Layer_22">
</g>
<g id="Layer_21">
	<path fill="#ED1C24" d="M25.181,40.169c9.811,0,17.765-7.955,17.765-17.766S34.992,4.639,25.181,4.639
		c-9.811,0-17.765,7.954-17.765,17.765S15.371,40.169,25.181,40.169"/>
	<path fill="#FFFFFF" d="M25.172,35.541c7.258,0,13.143-5.884,13.143-13.144c0-7.258-5.885-13.143-13.143-13.143
		c-7.258,0-13.143,5.885-13.143,13.143C12.029,29.657,17.914,35.541,25.172,35.541"/>
	<path d="M32.148,24.823h-0.049c0.204-0.496,0.606-0.621,0.952-0.639c0.46-0.023,0.933,0.324,0.976,0.67
		c-0.048-0.393,0.716-0.67,1.116-0.67c0.415,0,1.147,0.313,1.147,1.238v2.795h-0.791v-2.344c-0.042-0.377,0.077-0.92-0.658-0.92
		c-0.197,0-0.466,0.125-0.506,0.375c-0.059,0.37-0.068,0.758-0.068,0.853v2.036h-0.75v-2.344c0-0.688-0.302-0.896-0.651-0.896
		c-0.318,0-0.552,0.191-0.678,0.527c-0.074,0.205-0.026,0.582-0.026,0.677v2.036h-0.709v-3.914h0.695V24.823z"/>
	<path d="M14.878,18.113c1.613-1.797,2.677-1.87,3.923-1.87c1.979,0,3.227,1.357,3.227,3.373c0,2.094-1.577,2.567-3.373,3.924
		c-1.418,1.07-1.87,1.871-1.907,3.08h5.5l-0.037,1.625h-7.516c0.072-1.424,0.068-3.517,2.31-5.438c1.862-1.597,3.41-2.091,3.483-3.3
		c0.073-1.207-0.99-1.687-1.98-1.687c-1.426,0-2.017,0.66-2.53,1.54L14.878,18.113z"/>
	<path d="M24.417,27.933c-0.373,1.107-1.189,1.208-1.189,1.208l-0.137-0.356c0.147-0.147,0.403-0.295,0.455-0.588
		c0,0-0.449,0.221-0.748-0.22c-0.3-0.44-0.214-1.01,0.11-1.319c0.324-0.311,1.04-0.248,1.393,0.146
		C24.687,27.233,24.417,27.933,24.417,27.933"/>
	<path d="M27.602,22.88c0,0,1.501,0.146,1.577-1.283c0.036-0.696-0.339-1.174-1.32-1.209c-0.61-0.023-1.284,0.586-1.284,0.916
		l-1.136-0.66c0.366-0.514,1.026-1.467,2.603-1.43c1.254,0.028,2.374,0.935,2.337,2.364c-0.018,0.734-0.44,1.54-0.99,1.815
		c0.44,0.248,1.22,0.64,1.22,2.236c0,1.77-1.684,2.787-2.64,2.787c-0.844,0-2.347-0.439-3.08-2.127l1.283-0.402
		c0.33,0.513,0.55,1.246,1.586,1.229c0.739-0.013,1.641-0.48,1.641-1.523c0-1.279-0.939-1.502-1.797-1.502V22.88z"/>
	<path d="M34.495,22.184l3.08-2.603c0.293,1.575,0.293,4.069,0,5.06L34.495,22.184z"/>
	<path d="M15.832,22.036l-3.08,2.604c-0.293-1.576-0.293-4.07,0-5.061L15.832,22.036z"/>
	<path fill="#FFFFFF" d="M25.172,5.757c4.445,0,8.624,1.73,11.767,4.873c3.144,3.144,4.875,7.322,4.875,11.768
		s-1.731,8.625-4.875,11.768c-3.143,3.144-7.322,4.875-11.767,4.875c-4.445,0-8.624-1.731-11.767-4.875
		c-3.143-3.143-4.874-7.322-4.874-11.768s1.731-8.624,4.874-11.768C16.548,7.487,20.727,5.757,25.172,5.757 M25.172,4.986
		c-9.616,0-17.411,7.795-17.411,17.411c0,9.615,7.795,17.412,17.411,17.412c9.616,0,17.413-7.797,17.413-17.412
		C42.584,12.781,34.788,4.986,25.172,4.986"/>
	<rect fill="none" width="50.315" height="44"/>
</g>
<g id="Layer_20">
</g>
<g id="Layer_19">
</g>
<g id="Layer_18">
</g>
<g id="Layer_17">
</g>
<g id="Layer_16">
</g>
<g id="Layer_15">
</g>
<g id="Layer_14">
</g>
<g id="Layer_13">
</g>
<g id="Layer_12">
</g>
<g id="Layer_11">
</g>
<g id="Layer_10">
</g>
<g id="Layer_9">
</g>
<g id="Layer_8">
</g>
<g id="Layer_7">
</g>
<g id="Layer_6">
</g>
<g id="Layer_5">
</g>
<g id="Layer_4">
</g>
<g id="Layer_3">
</g>
<g id="Layer_2">
</g>
</svg>
