<?xml version="1.0" encoding="utf-8"?>
<!-- Generator: Adobe Illustrator 16.0.0, SVG Export Plug-In . SVG Version: 6.00 Build 0)  -->
<!DOCTYPE svg PUBLIC "-//W3C//DTD SVG 1.1//EN" "http://www.w3.org/Graphics/SVG/1.1/DTD/svg11.dtd">
<svg version="1.1" xmlns="http://www.w3.org/2000/svg" xmlns:xlink="http://www.w3.org/1999/xlink" x="0px" y="0px"
	 width="50.314px" height="44px" viewBox="0 0 50.314 44" enable-background="new 0 0 50.314 44" xml:space="preserve">
<g id="Layer_30">
</g>
<g id="Layer_29">
</g>
<g id="Layer_28">
</g>
<g id="Layer_27">
</g>
<g id="Layer_26">
</g>
<g id="Layer_25">
</g>
<g id="Layer_24">
</g>
<g id="Layer_23">
</g>
<g id="Layer_22">
	<path fill="#ED1C24" d="M25.082,40.231c9.812,0,17.766-7.953,17.766-17.765S34.894,4.702,25.082,4.702
		c-9.811,0-17.764,7.953-17.764,17.765S15.271,40.231,25.082,40.231"/>
	<path fill="#FFFFFF" d="M25.073,35.604c7.259,0,13.144-5.885,13.144-13.143c0-7.259-5.885-13.144-13.144-13.144
		s-13.143,5.885-13.143,13.144C11.931,29.72,17.814,35.604,25.073,35.604"/>
	<path d="M31.808,25.085h-0.049c0.204-0.496,0.606-0.62,0.952-0.639c0.459-0.023,0.933,0.325,0.976,0.67
		c-0.048-0.392,0.716-0.67,1.116-0.67c0.415,0,1.146,0.313,1.146,1.239v2.794h-0.791v-2.344c-0.041-0.376,0.078-0.92-0.656-0.92
		c-0.198,0-0.467,0.127-0.508,0.375c-0.059,0.371-0.067,0.758-0.067,0.854v2.035h-0.75v-2.344c0-0.688-0.302-0.896-0.651-0.896
		c-0.318,0-0.552,0.191-0.678,0.527c-0.074,0.206-0.025,0.582-0.025,0.678v2.035h-0.709v-3.914h0.694V25.085z"/>
	<path d="M25.116,28.368c-0.373,1.106-1.188,1.207-1.188,1.207l-0.138-0.356c0.147-0.147,0.403-0.294,0.455-0.587
		c0,0-0.448,0.22-0.748-0.221c-0.3-0.439-0.214-1.01,0.11-1.319s1.04-0.248,1.393,0.147C25.385,27.669,25.116,28.368,25.116,28.368"
		/>
	<path d="M17.97,21.421c0,0,1.985,0.192,2.086-1.697c0.048-0.922-0.449-1.553-1.746-1.602c-0.808-0.029-1.698,0.777-1.698,1.213
		l-1.504-0.873c0.485-0.679,1.357-1.939,3.444-1.892c1.659,0.038,3.141,1.237,3.093,3.129c-0.025,0.971-0.582,2.037-1.311,2.401
		c0.582,0.328,1.613,0.846,1.613,2.959c0,2.34-2.228,3.687-3.492,3.687c-1.117,0-3.105-0.582-4.076-2.813l1.699-0.533
		c0.437,0.679,0.728,1.648,2.099,1.626c0.978-0.017,2.17-0.636,2.17-2.015c0-1.693-1.242-1.988-2.377-1.988V21.421z"/>
	<path d="M25.138,13.282l-2.603-3.08c1.576-0.293,4.07-0.293,5.06,0L25.138,13.282z"/>
	<path d="M25.165,31.771l2.603,3.08c-1.575,0.293-4.069,0.293-5.06,0L25.165,31.771z"/>
	<path d="M26.15,20.396c0.557-0.082,0.969-0.33,1.217-0.887h1.193v8.972h-1.324v-6.999H26.15V20.396z"/>
	<path fill="#FFFFFF" d="M25.082,5.825c4.445,0,8.625,1.731,11.768,4.874c3.145,3.144,4.875,7.322,4.875,11.767
		c0,4.445-1.73,8.625-4.875,11.769c-3.143,3.144-7.322,4.874-11.768,4.874c-4.444,0-8.623-1.73-11.766-4.874
		c-3.144-3.144-4.875-7.323-4.875-11.769c0-4.444,1.731-8.623,4.875-11.767C16.459,7.557,20.638,5.825,25.082,5.825 M25.082,5.056
		c-9.615,0-17.41,7.796-17.41,17.41c0,9.617,7.795,17.412,17.41,17.412c9.617,0,17.412-7.795,17.412-17.412
		C42.494,12.852,34.699,5.056,25.082,5.056"/>
	<rect fill="none" width="50.314" height="44"/>
</g>
<g id="Layer_21">
</g>
<g id="Layer_20">
</g>
<g id="Layer_19">
</g>
<g id="Layer_18">
</g>
<g id="Layer_17">
</g>
<g id="Layer_16">
</g>
<g id="Layer_15">
</g>
<g id="Layer_14">
</g>
<g id="Layer_13">
</g>
<g id="Layer_12">
</g>
<g id="Layer_11">
</g>
<g id="Layer_10">
</g>
<g id="Layer_9">
</g>
<g id="Layer_8">
</g>
<g id="Layer_7">
</g>
<g id="Layer_6">
</g>
<g id="Layer_5">
</g>
<g id="Layer_4">
</g>
<g id="Layer_3">
</g>
<g id="Layer_2">
</g>
</svg>
