<?xml version="1.0" encoding="utf-8"?>
<!-- Generator: Adobe Illustrator 16.0.0, SVG Export Plug-In . SVG Version: 6.00 Build 0)  -->
<!DOCTYPE svg PUBLIC "-//W3C//DTD SVG 1.1//EN" "http://www.w3.org/Graphics/SVG/1.1/DTD/svg11.dtd">
<svg version="1.1" xmlns="http://www.w3.org/2000/svg" xmlns:xlink="http://www.w3.org/1999/xlink" x="0px" y="0px"
	 width="50.314px" height="47.764px" viewBox="0 0 50.314 47.764" enable-background="new 0 0 50.314 47.764" xml:space="preserve">
<g id="Layer_30">
</g>
<g id="Layer_29">
</g>
<g id="Layer_28">
</g>
<g id="Layer_27">
</g>
<g id="Layer_26">
</g>
<g id="Layer_25">
</g>
<g id="Layer_24">
</g>
<g id="Layer_23">
</g>
<g id="Layer_22">
</g>
<g id="Layer_21">
</g>
<g id="Layer_20">
</g>
<g id="Layer_19">
</g>
<g id="Layer_18">
</g>
<g id="Layer_17">
</g>
<g id="Layer_16">
</g>
<g id="Layer_15">
</g>
<g id="Layer_14">
</g>
<g id="Layer_13">
</g>
<g id="Layer_12">
</g>
<g id="Layer_11">
</g>
<g id="Layer_10">
</g>
<g id="Layer_9">
</g>
<g id="Layer_8">
</g>
<g id="Layer_7">
</g>
<g id="Layer_6">
</g>
<g id="Layer_5">
</g>
<g id="Layer_4">
</g>
<g id="Layer_3">
	<path fill="#ED1C24" d="M25.831,40.029c9.811,0,17.765-7.954,17.765-17.765S35.642,4.499,25.831,4.499
		c-9.812,0-17.765,7.954-17.765,17.765S16.02,40.029,25.831,40.029"/>
	<path fill="#FFFFFF" d="M41.336,25.51c0.211-1.033,0.35-2.158,0.35-3.253c0-1.148-0.122-2.267-0.354-3.346l-31.029-0.006
		c-0.232,1.08-0.354,2.202-0.354,3.352c0,1.115,0.115,2.204,0.334,3.254L41.336,25.51z"/>
	<path fill="#FFFFFF" d="M25.817,5.615c4.444,0,8.623,1.731,11.767,4.874s4.875,7.322,4.875,11.767s-1.731,8.625-4.875,11.768
		s-7.322,4.874-11.767,4.874c-4.445,0-8.624-1.731-11.768-4.874c-3.143-3.143-4.874-7.323-4.874-11.768s1.731-8.624,4.874-11.767
		C17.193,7.346,21.372,5.615,25.817,5.615 M25.817,4.845c-9.616,0-17.411,7.795-17.411,17.411c0,9.616,7.795,17.412,17.411,17.412
		c9.615,0,17.411-7.796,17.411-17.412C43.229,12.641,35.433,4.845,25.817,4.845"/>
	<rect fill="none" width="50.314" height="47.764"/>
</g>
<g id="Layer_2">
</g>
</svg>
