<?xml version="1.0" encoding="utf-8"?>
<!-- Generator: Adobe Illustrator 16.0.0, SVG Export Plug-In . SVG Version: 6.00 Build 0)  -->
<!DOCTYPE svg PUBLIC "-//W3C//DTD SVG 1.1//EN" "http://www.w3.org/Graphics/SVG/1.1/DTD/svg11.dtd">
<svg version="1.1" xmlns="http://www.w3.org/2000/svg" xmlns:xlink="http://www.w3.org/1999/xlink" x="0px" y="0px"
	 width="50.314px" height="44px" viewBox="0 0 50.314 44" enable-background="new 0 0 50.314 44" xml:space="preserve">
<g id="Layer_30">
</g>
<g id="Layer_29">
</g>
<g id="Layer_28">
</g>
<g id="Layer_27">
</g>
<g id="Layer_26">
</g>
<g id="Layer_25">
</g>
<g id="Layer_24">
</g>
<g id="Layer_23">
	<path fill="#ED1C24" d="M25.139,39.943c9.811,0,17.765-7.955,17.765-17.766S34.949,4.412,25.139,4.412
		c-9.812,0-17.766,7.955-17.766,17.766S15.327,39.943,25.139,39.943"/>
	<path fill="#FFFFFF" d="M25.129,35.314c7.258,0,13.144-5.883,13.144-13.143c0-7.258-5.886-13.143-13.144-13.143
		s-13.143,5.885-13.143,13.143C11.986,29.432,17.871,35.314,25.129,35.314"/>
	<path d="M23.238,19.048h-1.042v2.072l-1.247,0.001v-2.073h-4.181v-1.216l4.125-5.915h1.303v5.885h1.042V19.048z M20.949,17.802
		c0-2.271,0.014-3.325,0.014-3.616l-2.599,3.616H20.949z"/>
	<path d="M27.595,21.069c-1.745,0-2.219-1.315-2.19-2.002c0.014-0.343,0.016-1.312,1.045-1.788
		c-0.534-0.268-0.853-0.746-0.853-1.375c0-1.153,1.073-1.578,1.952-1.623c1.101-0.055,1.897,0.717,1.897,1.65
		c0,0.582-0.192,1.072-0.853,1.348c0.688,0.193,1.155,0.773,1.155,1.65C29.749,19.479,29.386,21.069,27.595,21.069 M28.511,16.014
		c0-0.515-0.43-0.824-0.858-0.824c-0.602,0-1.012,0.357-1.012,0.853c0,0.4,0.281,0.798,0.854,0.798
		C28.154,16.84,28.511,16.5,28.511,16.014 M27.549,17.719c-0.688,0.056-1.123,0.478-1.155,1.211
		c-0.027,0.631,0.412,1.237,1.266,1.183c0.796-0.052,1.045-0.744,1.045-1.211C28.704,18.426,28.29,17.66,27.549,17.719"/>
	<path d="M32.169,16.729h0.825v0.854h-0.825v2.287c0.055,0.27,0.027,0.407,0.522,0.188c0.069-0.03,0.164-0.515,0.248-0.522
		l0.109,0.935c-0.165,0.221-0.138,0.084-0.33,0.385l-0.385,0.221c-0.742,0.126-1.05-0.335-1.05-0.918v-2.574h-0.609v-0.854h0.609
		v-0.961l0.885-0.4V16.729z"/>
	<path d="M24.985,20.702c-0.269,0.798-0.856,0.87-0.856,0.87l-0.099-0.258c0.105-0.105,0.291-0.211,0.327-0.422
		c0,0-0.322,0.158-0.538-0.158c-0.217-0.316-0.154-0.729,0.078-0.951c0.233-0.223,0.75-0.178,1.005,0.106
		C25.179,20.199,24.985,20.702,24.985,20.702"/>
	<polygon points="22.324,22.797 27.439,22.797 24.909,25.658 	"/>
	<path d="M26.684,28.738l4.862-0.115c0.02,0.611-0.016,1.846,0.183,2.041c0.173,0.169,0.511,0.154,1.037,0.145
		c0.473-0.009,0.873,0.088,1.115-0.199c0.151-0.179,0.107-1.395,0.107-2.711c0-1.279,0.042-2.359-0.137-2.52
		c-0.209-0.188-0.55-0.141-1.095-0.141c-0.527,0-0.879-0.082-1.078,0.113c-0.206,0.202-0.095,0.702-0.133,1.924l-4.876-0.298
		c0,0-0.57-1.004-1.729-1.021c-1.16-0.02-1.721,1.023-1.721,1.023l-4.89,0.297c-0.038-1.221,0.11-1.545-0.112-1.875
		c-0.103-0.151-0.558-0.153-1.086-0.162c-0.542-0.008-0.931,0.002-1.073,0.139c-0.225,0.215-0.221,1.172-0.221,2.479
		c0,1.317-0.059,2.62,0.207,2.844c0.192,0.162,0.626,0.099,1.101,0.107c0.525,0.01,0.833,0.036,1.016-0.143
		c0.25-0.245,0.139-1.43,0.158-2.04l4.882,0.114c0,0,0.598,0.936,1.739,0.936C25.969,29.676,26.684,28.738,26.684,28.738"/>
	<path fill="#FFFFFF" d="M25.139,5.537c4.444,0,8.624,1.73,11.767,4.873c3.145,3.143,4.875,7.322,4.875,11.768
		s-1.73,8.625-4.875,11.768c-3.143,3.143-7.322,4.874-11.767,4.874c-4.445,0-8.624-1.731-11.768-4.874
		c-3.143-3.143-4.874-7.322-4.874-11.768s1.731-8.625,4.874-11.768C16.515,7.268,20.693,5.537,25.139,5.537 M25.139,4.767
		c-9.616,0-17.411,7.796-17.411,17.411S15.522,39.59,25.139,39.59s17.412-7.797,17.412-17.412S34.755,4.767,25.139,4.767"/>
	<rect fill="none" width="50.314" height="44"/>
</g>
<g id="Layer_22">
</g>
<g id="Layer_21">
</g>
<g id="Layer_20">
</g>
<g id="Layer_19">
</g>
<g id="Layer_18">
</g>
<g id="Layer_17">
</g>
<g id="Layer_16">
</g>
<g id="Layer_15">
</g>
<g id="Layer_14">
</g>
<g id="Layer_13">
</g>
<g id="Layer_12">
</g>
<g id="Layer_11">
</g>
<g id="Layer_10">
</g>
<g id="Layer_9">
</g>
<g id="Layer_8">
</g>
<g id="Layer_7">
</g>
<g id="Layer_6">
</g>
<g id="Layer_5">
</g>
<g id="Layer_4">
</g>
<g id="Layer_3">
</g>
<g id="Layer_2">
</g>
</svg>
