<?xml version="1.0" encoding="utf-8"?>
<!-- Generator: Adobe Illustrator 16.0.0, SVG Export Plug-In . SVG Version: 6.00 Build 0)  -->
<!DOCTYPE svg PUBLIC "-//W3C//DTD SVG 1.1//EN" "http://www.w3.org/Graphics/SVG/1.1/DTD/svg11.dtd">
<svg version="1.1" xmlns="http://www.w3.org/2000/svg" xmlns:xlink="http://www.w3.org/1999/xlink" x="0px" y="0px"
	 width="50.315px" height="44px" viewBox="0 0 50.315 44" enable-background="new 0 0 50.315 44" xml:space="preserve">
<g id="Layer_30">
</g>
<g id="Layer_29">
</g>
<g id="Layer_28">
</g>
<g id="Layer_27">
</g>
<g id="Layer_26">
</g>
<g id="Layer_25">
</g>
<g id="Layer_24">
	<path fill="#ED1C24" d="M25.229,40.028c9.812,0,17.765-7.954,17.765-17.765c0-9.812-7.953-17.766-17.765-17.766
		c-9.811,0-17.765,7.954-17.765,17.766C7.465,32.074,15.419,40.028,25.229,40.028"/>
	<path fill="#FFFFFF" d="M25.22,35.4c7.259,0,13.144-5.884,13.144-13.143c0-7.258-5.885-13.143-13.144-13.143
		c-7.258,0-13.143,5.885-13.143,13.143C12.077,29.517,17.962,35.4,25.22,35.4"/>
	<path d="M31.589,26.297h-1.042v2.071H29.3v-2.071h-4.181V25.08l4.125-5.915h1.303v5.886h1.042V26.297z M29.3,25.051
		c0-2.271,0.014-3.326,0.014-3.617l-2.599,3.617H29.3z"/>
	<path d="M34.864,23.063h0.999v1.032h-0.999v2.768c0.066,0.326,0.032,0.493,0.632,0.227c0.084-0.037,0.198-0.623,0.3-0.633
		l0.133,1.133c-0.2,0.266-0.167,0.099-0.398,0.465l-0.467,0.267c-0.898,0.152-1.27-0.405-1.27-1.11v-3.115h-0.738v-1.032h0.738
		v-1.165l1.07-0.484V23.063z"/>
	<path d="M24.16,27.941c-0.356,1.061-1.139,1.158-1.139,1.158l-0.132-0.344c0.141-0.141,0.387-0.281,0.436-0.563
		c0,0-0.43,0.211-0.717-0.211c-0.287-0.42-0.205-0.968,0.106-1.265c0.31-0.296,0.964-0.233,1.277,0.166
		C24.294,27.27,24.16,27.941,24.16,27.941"/>
	<path d="M16.837,20.421c0.406-0.313,0.831-0.522,1.683-0.495c1.488,0.048,3.547,1.018,3.465,4.207
		c-0.039,1.523-0.88,4.071-3.63,4.071s-3.631-2.481-3.657-2.476l1.402-0.716c0.011,0.068,0.743,1.568,2.2,1.568
		c1.05,0,2.035-1.097,2.035-2.42c0-1.318-0.598-2.64-2.256-2.585c-0.298,0.01-1.144,0.479-1.649,1.128l-1.288-0.496v-6.179h6.161
		v1.807h-4.466V20.421z"/>
	<path fill="#FFFFFF" d="M25.229,5.622c4.445,0,8.624,1.731,11.767,4.874c3.144,3.143,4.875,7.322,4.875,11.768
		c0,4.444-1.731,8.625-4.875,11.768c-3.143,3.143-7.321,4.873-11.767,4.873s-8.624-1.73-11.767-4.873
		c-3.145-3.143-4.874-7.323-4.874-11.768c0-4.445,1.729-8.625,4.874-11.768C16.605,7.354,20.784,5.622,25.229,5.622 M25.229,4.852
		c-9.616,0-17.411,7.797-17.411,17.412s7.795,17.411,17.411,17.411s17.412-7.796,17.412-17.411S34.846,4.852,25.229,4.852"/>
	<rect fill="none" width="50.315" height="44"/>
</g>
<g id="Layer_23">
</g>
<g id="Layer_22">
</g>
<g id="Layer_21">
</g>
<g id="Layer_20">
</g>
<g id="Layer_19">
</g>
<g id="Layer_18">
</g>
<g id="Layer_17">
</g>
<g id="Layer_16">
</g>
<g id="Layer_15">
</g>
<g id="Layer_14">
</g>
<g id="Layer_13">
</g>
<g id="Layer_12">
</g>
<g id="Layer_11">
</g>
<g id="Layer_10">
</g>
<g id="Layer_9">
</g>
<g id="Layer_8">
</g>
<g id="Layer_7">
</g>
<g id="Layer_6">
</g>
<g id="Layer_5">
</g>
<g id="Layer_4">
</g>
<g id="Layer_3">
</g>
<g id="Layer_2">
</g>
</svg>
