<?xml version="1.0" encoding="utf-8"?>
<!-- Generator: Adobe Illustrator 16.0.0, SVG Export Plug-In . SVG Version: 6.00 Build 0)  -->
<!DOCTYPE svg PUBLIC "-//W3C//DTD SVG 1.1//EN" "http://www.w3.org/Graphics/SVG/1.1/DTD/svg11.dtd">
<svg version="1.1" xmlns="http://www.w3.org/2000/svg" xmlns:xlink="http://www.w3.org/1999/xlink" x="0px" y="0px"
	 width="50.315px" height="44px" viewBox="0 0 50.315 44" enable-background="new 0 0 50.315 44" xml:space="preserve">
<g id="Layer_30">
</g>
<g id="Layer_29">
</g>
<g id="Layer_28">
</g>
<g id="Layer_27">
</g>
<g id="Layer_26">
</g>
<g id="Layer_25">
	<path fill="#ED1C24" d="M25.233,39.753c9.811,0,17.766-7.954,17.766-17.765c0-9.812-7.955-17.766-17.766-17.766
		S7.468,12.177,7.468,21.988C7.468,31.799,15.422,39.753,25.233,39.753"/>
	<path fill="#FFFFFF" d="M25.224,35.125c7.259,0,13.143-5.884,13.143-13.143c0-7.258-5.884-13.144-13.143-13.144
		c-7.259,0-13.143,5.886-13.143,13.144C12.081,29.241,17.964,35.125,25.224,35.125"/>
	<path fill="#FFFFFF" d="M25.233,5.347c4.445,0,8.624,1.73,11.768,4.874c3.143,3.143,4.875,7.321,4.875,11.767
		c0,4.446-1.732,8.624-4.875,11.769c-3.144,3.143-7.322,4.874-11.768,4.874c-4.445,0-8.624-1.731-11.767-4.874
		c-3.144-3.145-4.874-7.322-4.874-11.769c0-4.445,1.73-8.624,4.874-11.767C16.609,7.077,20.788,5.347,25.233,5.347 M25.233,4.576
		c-9.616,0-17.411,7.795-17.411,17.411s7.795,17.412,17.411,17.412c9.616,0,17.412-7.796,17.412-17.412S34.849,4.576,25.233,4.576"
		/>
	<path d="M26.447,29.904l3.144-0.075c0.012,0.396-0.011,1.193,0.117,1.319c0.112,0.109,0.33,0.101,0.67,0.094
		c0.306-0.005,0.565,0.057,0.722-0.129c0.097-0.115,0.069-0.901,0.069-1.752c0-0.828,0.027-1.525-0.089-1.629
		c-0.134-0.121-0.355-0.091-0.707-0.091c-0.341,0-0.568-0.054-0.697,0.073c-0.133,0.13-0.061,0.454-0.085,1.243l-3.153-0.191
		c0,0-0.368-0.649-1.118-0.661c-0.749-0.012-1.112,0.662-1.112,0.662l-3.161,0.192c-0.024-0.79,0.071-0.999-0.073-1.213
		c-0.065-0.098-0.359-0.099-0.701-0.104c-0.35-0.006-0.602,0.002-0.694,0.09c-0.145,0.139-0.142,0.758-0.142,1.603
		c0,0.852-0.038,1.693,0.133,1.838c0.125,0.104,0.405,0.064,0.711,0.069c0.341,0.007,0.539,0.023,0.657-0.092
		c0.162-0.159,0.09-0.924,0.103-1.319l3.155,0.075c0,0,0.387,0.603,1.124,0.603C25.985,30.509,26.447,29.904,26.447,29.904"/>
	<path fill="#ED1C24" d="M30.809,24.825c0-8.362,0.017-10.201-0.335-10.554c-0.247-0.246-1.343-0.214-5.244-0.214
		c-3.505,0-4.829-0.161-5.205,0.214c-0.321,0.32-0.241,1.388-0.241,10.554H30.809z"/>
	<path fill="none" stroke="#000000" stroke-width="1.1" d="M30.809,24.825c0-8.362,0.017-10.201-0.335-10.554
		c-0.247-0.246-1.343-0.214-5.244-0.214c-3.505,0-4.829-0.161-5.205,0.214c-0.321,0.32-0.241,1.388-0.241,10.554H30.809z"/>
	<rect x="19.282" y="26.016" width="12.043" height="0.985"/>
	<rect fill="none" width="50.315" height="44"/>
</g>
<g id="Layer_24">
</g>
<g id="Layer_23">
</g>
<g id="Layer_22">
</g>
<g id="Layer_21">
</g>
<g id="Layer_20">
</g>
<g id="Layer_19">
</g>
<g id="Layer_18">
</g>
<g id="Layer_17">
</g>
<g id="Layer_16">
</g>
<g id="Layer_15">
</g>
<g id="Layer_14">
</g>
<g id="Layer_13">
</g>
<g id="Layer_12">
</g>
<g id="Layer_11">
</g>
<g id="Layer_10">
</g>
<g id="Layer_9">
</g>
<g id="Layer_8">
</g>
<g id="Layer_7">
</g>
<g id="Layer_6">
</g>
<g id="Layer_5">
</g>
<g id="Layer_4">
</g>
<g id="Layer_3">
</g>
<g id="Layer_2">
</g>
</svg>
