<?xml version="1.0" encoding="utf-8"?>
<!-- Generator: Adobe Illustrator 16.0.0, SVG Export Plug-In . SVG Version: 6.00 Build 0)  -->
<!DOCTYPE svg PUBLIC "-//W3C//DTD SVG 1.1//EN" "http://www.w3.org/Graphics/SVG/1.1/DTD/svg11.dtd">
<svg version="1.1" xmlns="http://www.w3.org/2000/svg" xmlns:xlink="http://www.w3.org/1999/xlink" x="0px" y="0px"
	 width="50.314px" height="44px" viewBox="0 0 50.314 44" enable-background="new 0 0 50.314 44" xml:space="preserve">
<g id="Layer_30">
</g>
<g id="Layer_29">
</g>
<g id="Layer_28">
</g>
<g id="Layer_27">
</g>
<g id="Layer_26">
	<path fill="#ED1C24" d="M25.082,39.73c9.811,0,17.766-7.954,17.766-17.766c0-9.811-7.955-17.765-17.766-17.765
		S7.317,12.154,7.317,21.965C7.317,31.776,15.271,39.73,25.082,39.73"/>
	<path fill="#FFFFFF" d="M25.072,35.103c7.258,0,13.144-5.884,13.144-13.144c0-7.258-5.886-13.143-13.144-13.143
		c-7.259,0-13.143,5.885-13.143,13.143C11.93,29.219,17.813,35.103,25.072,35.103"/>
	<rect fill="none" width="50.314" height="44"/>
	<path fill="#FFFFFF" d="M25.082,5.323c4.445,0,8.624,1.731,11.768,4.874c3.143,3.144,4.875,7.322,4.875,11.768
		c0,4.444-1.732,8.625-4.875,11.768c-3.144,3.144-7.322,4.874-11.768,4.874s-8.624-1.73-11.768-4.874
		c-3.143-3.143-4.873-7.323-4.873-11.768c0-4.445,1.73-8.624,4.873-11.768C16.458,7.055,20.637,5.323,25.082,5.323 M25.082,4.554
		c-9.616,0-17.411,7.795-17.411,17.411s7.795,17.412,17.411,17.412s17.412-7.796,17.412-17.412S34.698,4.554,25.082,4.554"/>
	<rect fill="none" width="50.314" height="44"/>
</g>
<g id="Layer_25">
</g>
<g id="Layer_24">
</g>
<g id="Layer_23">
</g>
<g id="Layer_22">
</g>
<g id="Layer_21">
</g>
<g id="Layer_20">
</g>
<g id="Layer_19">
</g>
<g id="Layer_18">
</g>
<g id="Layer_17">
</g>
<g id="Layer_16">
</g>
<g id="Layer_15">
</g>
<g id="Layer_14">
</g>
<g id="Layer_13">
</g>
<g id="Layer_12">
</g>
<g id="Layer_11">
</g>
<g id="Layer_10">
</g>
<g id="Layer_9">
</g>
<g id="Layer_8">
</g>
<g id="Layer_7">
</g>
<g id="Layer_6">
</g>
<g id="Layer_5">
</g>
<g id="Layer_4">
</g>
<g id="Layer_3">
</g>
<g id="Layer_2">
</g>
</svg>
