<?xml version="1.0" encoding="utf-8"?>
<!-- Generator: Adobe Illustrator 16.0.0, SVG Export Plug-In . SVG Version: 6.00 Build 0)  -->
<!DOCTYPE svg PUBLIC "-//W3C//DTD SVG 1.1//EN" "http://www.w3.org/Graphics/SVG/1.1/DTD/svg11.dtd">
<svg version="1.1" xmlns="http://www.w3.org/2000/svg" xmlns:xlink="http://www.w3.org/1999/xlink" x="0px" y="0px"
	 width="50.314px" height="44px" viewBox="0 0 50.314 44" enable-background="new 0 0 50.314 44" xml:space="preserve">
<g id="Layer_30">
</g>
<g id="Layer_29">
</g>
<g id="Layer_28">
</g>
<g id="Layer_27">
	<path fill="#FFFFFF" d="M25.243,40.345c9.812,0,17.766-7.954,17.766-17.765c0-9.812-7.954-17.766-17.766-17.766
		c-9.811,0-17.765,7.954-17.765,17.766C7.479,32.391,15.433,40.345,25.243,40.345"/>
	<circle fill="none" stroke="#000000" stroke-width="0.22" cx="25.243" cy="22.58" r="17.765"/>
	<polygon fill="#C7C8CA" points="20.101,18.082 20.101,21.938 19.467,21.938 19.467,19.529 18.306,21.91 17.144,19.529 
		17.144,21.938 16.505,21.938 16.505,18.082 17.144,18.082 18.306,20.458 19.467,18.082 	"/>
	<path fill="#C7C8CA" d="M22.091,18.119c0.201,0,0.365,0.163,0.365,0.364c0,0.206-0.164,0.37-0.365,0.37
		c-0.205,0-0.369-0.164-0.369-0.37C21.722,18.282,21.886,18.119,22.091,18.119 M21.769,19.069h0.639v2.867h-0.639V19.069z"/>
	<polygon fill="#C7C8CA" points="23.934,18.235 24.567,17.966 24.567,21.938 23.934,21.938 	"/>
	<path fill="#C7C8CA" d="M26.416,18.119c0.199,0,0.363,0.163,0.363,0.364c0,0.206-0.164,0.37-0.363,0.37
		c-0.206,0-0.37-0.164-0.37-0.37C26.046,18.282,26.21,18.119,26.416,18.119 M26.094,19.069h0.639v2.867h-0.639V19.069z"/>
	<path fill="#C7C8CA" d="M29.166,21.974c-0.744,0-1.246-0.639-1.246-1.473c0-0.829,0.502-1.468,1.246-1.468
		c0.75,0,1.246,0.639,1.246,1.468c0,0.058,0,0.116-0.005,0.174h-1.801c0.042,0.396,0.238,0.702,0.56,0.702
		c0.265,0,0.407-0.063,0.539-0.222l0.48,0.375C29.911,21.821,29.573,21.974,29.166,21.974 M29.166,19.64
		c-0.296,0-0.465,0.216-0.532,0.528h1.071C29.637,19.855,29.468,19.64,29.166,19.64"/>
	<path fill="#C7C8CA" d="M34.098,19.069v2.867h-0.634v-0.29c-0.195,0.2-0.47,0.327-0.771,0.327c-0.586,0-1.062-0.476-1.062-1.056
		v-1.849h0.639v1.648c0,0.327,0.265,0.596,0.598,0.596c0.327,0,0.596-0.269,0.596-0.596v-1.648H34.098z"/>
	<polygon fill="#C7C8CA" points="21.167,25.703 21.167,26.337 18.632,26.337 18.632,25.782 20.211,24.108 18.706,24.108 
		18.706,23.476 21.156,23.476 21.156,24.034 19.583,25.703 	"/>
	<path fill="#C7C8CA" d="M23.279,26.373c-0.75,0-1.246-0.639-1.246-1.473c0-0.829,0.496-1.468,1.246-1.468s1.245,0.639,1.245,1.468
		C24.524,25.734,24.029,26.373,23.279,26.373 M22.709,24.9c0,0.481,0.174,0.866,0.57,0.866c0.396,0,0.57-0.385,0.57-0.866
		c0-0.475-0.175-0.861-0.57-0.861C22.883,24.039,22.709,24.426,22.709,24.9"/>
	<path fill="#C7C8CA" d="M25.697,26.337V23.47h0.634v0.29c0.195-0.2,0.47-0.333,0.771-0.333c0.586,0,1.061,0.481,1.061,1.063v1.848
		h-0.634v-1.648c0-0.326-0.27-0.596-0.603-0.596c-0.326,0-0.596,0.27-0.596,0.596v1.648H25.697z"/>
	<path fill="#C7C8CA" d="M30.55,26.374c-0.744,0-1.246-0.639-1.246-1.473c0-0.829,0.502-1.469,1.246-1.469
		c0.75,0,1.246,0.64,1.246,1.469c0,0.058,0,0.115-0.005,0.174h-1.802c0.042,0.396,0.238,0.702,0.561,0.702
		c0.264,0,0.407-0.063,0.539-0.223l0.479,0.375C31.295,26.221,30.957,26.374,30.55,26.374 M30.55,24.04
		c-0.296,0-0.465,0.216-0.533,0.528h1.072C31.02,24.256,30.851,24.04,30.55,24.04"/>
	<path d="M31.822,8.063L15.99,35.485l0.005,0.011c-0.438-0.313-0.861-0.649-1.266-1.005l0.013-0.008L30.334,7.478V7.469
		c0.508,0.172,1.004,0.368,1.486,0.589L31.822,8.063z"/>
	<path d="M33.95,9.225L18.066,36.736l-0.005,0.01c-0.474-0.24-0.933-0.501-1.376-0.785l0.003-0.002L32.581,8.431l0.008,0.003
		c0.467,0.242,0.919,0.51,1.357,0.797L33.95,9.225z"/>
	<path d="M35.885,10.72L20.317,37.684l0.014-0.003c-0.515-0.166-1.018-0.358-1.508-0.574l-0.001,0.001l15.82-27.399l0.006,0.01
		c0.43,0.317,0.845,0.655,1.241,1.014L35.885,10.72z"/>
	<rect fill="none" width="50.314" height="44"/>
</g>
<g id="Layer_26">
</g>
<g id="Layer_25">
</g>
<g id="Layer_24">
</g>
<g id="Layer_23">
</g>
<g id="Layer_22">
</g>
<g id="Layer_21">
</g>
<g id="Layer_20">
</g>
<g id="Layer_19">
</g>
<g id="Layer_18">
</g>
<g id="Layer_17">
</g>
<g id="Layer_16">
</g>
<g id="Layer_15">
</g>
<g id="Layer_14">
</g>
<g id="Layer_13">
</g>
<g id="Layer_12">
</g>
<g id="Layer_11">
</g>
<g id="Layer_10">
</g>
<g id="Layer_9">
</g>
<g id="Layer_8">
</g>
<g id="Layer_7">
</g>
<g id="Layer_6">
</g>
<g id="Layer_5">
</g>
<g id="Layer_4">
</g>
<g id="Layer_3">
</g>
<g id="Layer_2">
</g>
</svg>
