<?xml version="1.0" encoding="utf-8"?>
<!-- Generator: Adobe Illustrator 16.0.0, SVG Export Plug-In . SVG Version: 6.00 Build 0)  -->
<!DOCTYPE svg PUBLIC "-//W3C//DTD SVG 1.1//EN" "http://www.w3.org/Graphics/SVG/1.1/DTD/svg11.dtd">
<svg version="1.1" xmlns="http://www.w3.org/2000/svg" xmlns:xlink="http://www.w3.org/1999/xlink" x="0px" y="0px"
	 width="50.315px" height="44px" viewBox="0 0 50.315 44" enable-background="new 0 0 50.315 44" xml:space="preserve">
<g id="Layer_30">
</g>
<g id="Layer_29">
</g>
<g id="Layer_28">
	<rect x="3.299" y="4.875" fill="#007DC5" width="43.618" height="35.369"/>
	<path fill="none" stroke="#FFFFFF" stroke-width="0.798" d="M6.092,39.313c-1.028,0-1.862-0.833-1.862-1.862V7.668
		c0-1.029,0.834-1.862,1.862-1.862h38.034c1.027,0,1.86,0.833,1.86,1.862V37.45c0,1.029-0.833,1.862-1.86,1.862H6.092z"/>
	<path fill="#FFFFFF" d="M20.742,36.147V16.847l-2.349,0.547c-0.569,0.224-1.017-0.07-0.696-0.619l3.585-5.149
		c0.324-0.46,0.599-0.46,0.923,0l3.584,5.149c0.32,0.549-0.126,0.843-0.695,0.619l-2.349-0.547v19.301H20.742z"/>
	<path fill="#FFFFFF" d="M36.692,36.147V16.847l-2.349,0.547c-0.569,0.224-1.018-0.07-0.696-0.619l3.585-5.149
		c0.324-0.46,0.599-0.46,0.922,0l3.584,5.149c0.321,0.549-0.126,0.843-0.694,0.619l-2.35-0.547v19.301H36.692z"/>
	<path fill="#FFFFFF" d="M10.161,36.147V16.847l-2.35,0.547c-0.569,0.224-1.017-0.07-0.695-0.619l3.584-5.149
		c0.324-0.46,0.599-0.46,0.923,0l3.584,5.149c0.321,0.549-0.126,0.843-0.695,0.619l-2.349-0.547v19.301H10.161z"/>
	<line fill="none" stroke="#FFFFFF" stroke-width="0.798" x1="29.453" y1="8.479" x2="29.453" y2="37.024"/>
	<rect fill="none" width="50.315" height="44"/>
</g>
<g id="Layer_27">
</g>
<g id="Layer_26">
</g>
<g id="Layer_25">
</g>
<g id="Layer_24">
</g>
<g id="Layer_23">
</g>
<g id="Layer_22">
</g>
<g id="Layer_21">
</g>
<g id="Layer_20">
</g>
<g id="Layer_19">
</g>
<g id="Layer_18">
</g>
<g id="Layer_17">
</g>
<g id="Layer_16">
</g>
<g id="Layer_15">
</g>
<g id="Layer_14">
</g>
<g id="Layer_13">
</g>
<g id="Layer_12">
</g>
<g id="Layer_11">
</g>
<g id="Layer_10">
</g>
<g id="Layer_9">
</g>
<g id="Layer_8">
</g>
<g id="Layer_7">
</g>
<g id="Layer_6">
</g>
<g id="Layer_5">
</g>
<g id="Layer_4">
</g>
<g id="Layer_3">
</g>
<g id="Layer_2">
</g>
</svg>
