<?xml version="1.0" encoding="utf-8"?>
<!-- Generator: Adobe Illustrator 16.0.0, SVG Export Plug-In . SVG Version: 6.00 Build 0)  -->
<!DOCTYPE svg PUBLIC "-//W3C//DTD SVG 1.1//EN" "http://www.w3.org/Graphics/SVG/1.1/DTD/svg11.dtd">
<svg version="1.1" xmlns="http://www.w3.org/2000/svg" xmlns:xlink="http://www.w3.org/1999/xlink" x="0px" y="0px"
	 width="50.315px" height="44px" viewBox="0 0 50.315 44" enable-background="new 0 0 50.315 44" xml:space="preserve">
<g id="Layer_30">
</g>
<g id="Layer_29">
	<rect x="3.791" y="4.214" fill="#007DC5" width="43.619" height="35.368"/>
	<path fill="none" stroke="#FFFFFF" stroke-width="0.798" d="M6.584,38.65c-1.028,0-1.862-0.833-1.862-1.861V7.006
		c0-1.029,0.834-1.862,1.862-1.862h38.034c1.028,0,1.861,0.833,1.861,1.862v29.783c0,1.028-0.833,1.861-1.861,1.861H6.584z"/>
	<path fill="#FFFFFF" d="M21.235,35.485V16.185l-2.349,0.547c-0.569,0.224-1.017-0.07-0.696-0.619l3.585-5.148
		c0.324-0.46,0.598-0.46,0.922,0l3.584,5.148c0.321,0.549-0.126,0.843-0.695,0.619l-2.349-0.547v19.301H21.235z"/>
	<path fill="#FFFFFF" d="M10.653,35.485V16.185l-2.349,0.547c-0.569,0.224-1.017-0.07-0.695-0.619l3.584-5.148
		c0.324-0.46,0.598-0.46,0.922,0l3.584,5.148c0.322,0.549-0.126,0.843-0.695,0.619l-2.349-0.547v19.301H10.653z"/>
	<line fill="none" stroke="#FFFFFF" stroke-width="0.798" x1="29.946" y1="7.817" x2="29.946" y2="36.362"/>
	<path fill="#FFFFFF" d="M37.721,22.879l2.048-1.274c0.562-0.244,0.67-0.769,0.054-0.93l-6.175-1.106
		c-0.555-0.096-0.749,0.098-0.652,0.652l1.106,6.175c0.161,0.616,0.686,0.507,0.929-0.054l1.275-2.048l3.161,3.161l-0.01,0.009
		v8.021h2.002V26.61L37.721,22.879z"/>
	<rect fill="none" width="50.315" height="44"/>
</g>
<g id="Layer_28">
</g>
<g id="Layer_27">
</g>
<g id="Layer_26">
</g>
<g id="Layer_25">
</g>
<g id="Layer_24">
</g>
<g id="Layer_23">
</g>
<g id="Layer_22">
</g>
<g id="Layer_21">
</g>
<g id="Layer_20">
</g>
<g id="Layer_19">
</g>
<g id="Layer_18">
</g>
<g id="Layer_17">
</g>
<g id="Layer_16">
</g>
<g id="Layer_15">
</g>
<g id="Layer_14">
</g>
<g id="Layer_13">
</g>
<g id="Layer_12">
</g>
<g id="Layer_11">
</g>
<g id="Layer_10">
</g>
<g id="Layer_9">
</g>
<g id="Layer_8">
</g>
<g id="Layer_7">
</g>
<g id="Layer_6">
</g>
<g id="Layer_5">
</g>
<g id="Layer_4">
</g>
<g id="Layer_3">
</g>
<g id="Layer_2">
</g>
</svg>
