<?xml version="1.0" encoding="utf-8"?>
<!-- Generator: Adobe Illustrator 16.0.0, SVG Export Plug-In . SVG Version: 6.00 Build 0)  -->
<!DOCTYPE svg PUBLIC "-//W3C//DTD SVG 1.1//EN" "http://www.w3.org/Graphics/SVG/1.1/DTD/svg11.dtd">
<svg version="1.1" xmlns="http://www.w3.org/2000/svg" xmlns:xlink="http://www.w3.org/1999/xlink" x="0px" y="0px"
	 width="50.314px" height="44px" viewBox="0 0 50.314 44" enable-background="new 0 0 50.314 44" xml:space="preserve">
<g id="Layer_30">
	<rect x="3.204" y="4.214" fill="#007DC5" width="43.619" height="35.368"/>
	<path fill="#FFFFFF" d="M20.648,35.485V16.185l-2.35,0.547c-0.568,0.224-1.017-0.07-0.695-0.619l3.584-5.148
		c0.324-0.46,0.599-0.46,0.923,0l3.584,5.148c0.321,0.549-0.126,0.843-0.695,0.619l-2.349-0.547v19.301H20.648z"/>
	<path fill="#FFFFFF" d="M36.598,35.485V16.185l-2.349,0.547c-0.569,0.224-1.017-0.07-0.696-0.619l3.586-5.148
		c0.323-0.46,0.598-0.46,0.922,0l3.584,5.148c0.32,0.549-0.127,0.843-0.695,0.619l-2.35-0.547v19.301H36.598z"/>
	<path fill="#FFFFFF" d="M10.066,35.485V16.185l-2.35,0.547c-0.568,0.224-1.017-0.07-0.695-0.619l3.584-5.148
		c0.324-0.46,0.599-0.46,0.922,0l3.584,5.148c0.322,0.549-0.125,0.843-0.694,0.619l-2.349-0.547v19.301H10.066z"/>
	<line fill="none" stroke="#FFFFFF" stroke-width="0.798" x1="29.359" y1="7.817" x2="29.359" y2="36.362"/>
	<polygon fill="#ED1C24" points="45.859,6.058 44.814,5.178 31.395,38.947 32.988,38.837 	"/>
	<path fill="none" stroke="#FFFFFF" stroke-width="0.798" d="M5.997,38.65c-1.028,0-1.862-0.833-1.862-1.861V7.006
		c0-1.029,0.834-1.862,1.862-1.862h38.034c1.027,0,1.861,0.833,1.861,1.862v29.783c0,1.028-0.834,1.861-1.861,1.861H5.997z"/>
	<line fill="none" stroke="#FFFFFF" stroke-width="0.798" x1="44.368" y1="5.216" x2="31.004" y2="38.854"/>
	<line fill="none" stroke="#FFFFFF" stroke-width="0.798" x1="45.865" y1="7.117" x2="33.436" y2="38.764"/>
	<rect fill="none" width="50.314" height="44"/>
</g>
<g id="Layer_29">
</g>
<g id="Layer_28">
</g>
<g id="Layer_27">
</g>
<g id="Layer_26">
</g>
<g id="Layer_25">
</g>
<g id="Layer_24">
</g>
<g id="Layer_23">
</g>
<g id="Layer_22">
</g>
<g id="Layer_21">
</g>
<g id="Layer_20">
</g>
<g id="Layer_19">
</g>
<g id="Layer_18">
</g>
<g id="Layer_17">
</g>
<g id="Layer_16">
</g>
<g id="Layer_15">
</g>
<g id="Layer_14">
</g>
<g id="Layer_13">
</g>
<g id="Layer_12">
</g>
<g id="Layer_11">
</g>
<g id="Layer_10">
</g>
<g id="Layer_9">
</g>
<g id="Layer_8">
</g>
<g id="Layer_7">
</g>
<g id="Layer_6">
</g>
<g id="Layer_5">
</g>
<g id="Layer_4">
</g>
<g id="Layer_3">
</g>
<g id="Layer_2">
</g>
</svg>
