<?xml version="1.0" encoding="utf-8"?>
<!-- Generator: Adobe Illustrator 16.0.0, SVG Export Plug-In . SVG Version: 6.00 Build 0)  -->
<!DOCTYPE svg PUBLIC "-//W3C//DTD SVG 1.1//EN" "http://www.w3.org/Graphics/SVG/1.1/DTD/svg11.dtd">
<svg version="1.1" xmlns="http://www.w3.org/2000/svg" xmlns:xlink="http://www.w3.org/1999/xlink" x="0px" y="0px"
	 width="50.315px" height="47.764px" viewBox="0 0 50.315 47.764" enable-background="new 0 0 50.315 47.764" xml:space="preserve">
<g id="Layer_30">
</g>
<g id="Layer_29">
</g>
<g id="Layer_28">
</g>
<g id="Layer_27">
</g>
<g id="Layer_26">
</g>
<g id="Layer_25">
</g>
<g id="Layer_24">
</g>
<g id="Layer_23">
</g>
<g id="Layer_22">
</g>
<g id="Layer_21">
</g>
<g id="Layer_20">
</g>
<g id="Layer_19">
</g>
<g id="Layer_18">
</g>
<g id="Layer_17">
</g>
<g id="Layer_16">
</g>
<g id="Layer_15">
</g>
<g id="Layer_14">
</g>
<g id="Layer_13">
</g>
<g id="Layer_12">
</g>
<g id="Layer_11">
</g>
<g id="Layer_10">
</g>
<g id="Layer_9">
</g>
<g id="Layer_8">
</g>
<g id="Layer_7">
</g>
<g id="Layer_6">
</g>
<g id="Layer_5">
</g>
<g id="Layer_4">
	<rect x="6.847" y="4.428" fill="#007DC5" width="35.369" height="35.369"/>
	<path fill="none" stroke="#FFFFFF" stroke-width="0.798" d="M39.423,38.865c1.027,0,1.861-0.833,1.861-1.862V7.219
		c0-1.028-0.834-1.861-1.861-1.861H9.639c-1.028,0-1.861,0.833-1.861,1.861v29.784c0,1.029,0.833,1.862,1.861,1.862H39.423z"/>
	<path fill="#FFFFFF" d="M27.196,34.541v-9.9l6.263,1.457c1.516,0.599,2.709-0.185,1.853-1.649l-9.554-13.723
		c-0.864-1.227-1.594-1.227-2.457,0l-9.555,13.723c-0.855,1.464,0.338,2.248,1.854,1.649l6.262-1.457v9.9H27.196z"/>
	<rect fill="none" width="50.315" height="47.764"/>
</g>
<g id="Layer_3">
</g>
<g id="Layer_2">
</g>
</svg>
