<?xml version="1.0" encoding="utf-8"?>
<!-- Generator: Adobe Illustrator 16.0.0, SVG Export Plug-In . SVG Version: 6.00 Build 0)  -->
<!DOCTYPE svg PUBLIC "-//W3C//DTD SVG 1.1//EN" "http://www.w3.org/Graphics/SVG/1.1/DTD/svg11.dtd">
<svg version="1.1" xmlns="http://www.w3.org/2000/svg" xmlns:xlink="http://www.w3.org/1999/xlink" x="0px" y="0px"
	 width="50.314px" height="44px" viewBox="0 0 50.314 44" enable-background="new 0 0 50.314 44" xml:space="preserve">
<g id="Layer_30">
</g>
<g id="Layer_29">
</g>
<g id="Layer_28">
</g>
<g id="Layer_27">
</g>
<g id="Layer_26">
</g>
<g id="Layer_25">
</g>
<g id="Layer_24">
</g>
<g id="Layer_23">
</g>
<g id="Layer_22">
</g>
<g id="Layer_21">
</g>
<g id="Layer_20">
</g>
<g id="Layer_19">
</g>
<g id="Layer_18">
</g>
<g id="Layer_17">
</g>
<g id="Layer_16">
</g>
<g id="Layer_15">
</g>
<g id="Layer_14">
</g>
<g id="Layer_13">
</g>
<g id="Layer_12">
</g>
<g id="Layer_11">
</g>
<g id="Layer_10">
</g>
<g id="Layer_9">
</g>
<g id="Layer_8">
</g>
<g id="Layer_7">
</g>
<g id="Layer_6">
</g>
<g id="Layer_5">
	<rect x="8.038" y="9.51" fill="#007DC5" width="35.369" height="23.599"/>
	<path fill="none" stroke="#FFFFFF" stroke-width="0.798" d="M40.614,32.178c1.028,0,1.862-0.833,1.862-1.862V12.303
		c0-1.029-0.834-1.862-1.862-1.862H10.83c-1.028,0-1.861,0.833-1.861,1.862v18.013c0,1.029,0.833,1.862,1.861,1.862H40.614z"/>
	<path fill="#FFFFFF" d="M12.624,22.967h17.123l-0.904,3.884c-0.371,0.941,0.115,1.681,1.024,1.15l8.513-5.927
		c0.761-0.535,0.761-0.988,0-1.524l-8.513-5.927c-0.909-0.531-1.395,0.209-1.024,1.15l0.904,3.884H12.624V22.967z"/>
	<rect fill="none" width="50.314" height="44"/>
</g>
<g id="Layer_4">
</g>
<g id="Layer_3">
</g>
<g id="Layer_2">
</g>
</svg>
