<?xml version="1.0" encoding="utf-8"?>
<!-- Generator: Adobe Illustrator 16.0.0, SVG Export Plug-In . SVG Version: 6.00 Build 0)  -->
<!DOCTYPE svg PUBLIC "-//W3C//DTD SVG 1.1//EN" "http://www.w3.org/Graphics/SVG/1.1/DTD/svg11.dtd">
<svg version="1.1" xmlns="http://www.w3.org/2000/svg" xmlns:xlink="http://www.w3.org/1999/xlink" x="0px" y="0px"
	 width="50.314px" height="44px" viewBox="0 0 50.314 44" enable-background="new 0 0 50.314 44" xml:space="preserve">
<g id="Layer_30">
</g>
<g id="Layer_29">
</g>
<g id="Layer_28">
</g>
<g id="Layer_27">
</g>
<g id="Layer_26">
</g>
<g id="Layer_25">
</g>
<g id="Layer_24">
</g>
<g id="Layer_23">
</g>
<g id="Layer_22">
</g>
<g id="Layer_21">
</g>
<g id="Layer_20">
</g>
<g id="Layer_19">
</g>
<g id="Layer_18">
</g>
<g id="Layer_17">
</g>
<g id="Layer_16">
</g>
<g id="Layer_15">
</g>
<g id="Layer_14">
</g>
<g id="Layer_13">
</g>
<g id="Layer_12">
</g>
<g id="Layer_11">
</g>
<g id="Layer_10">
</g>
<g id="Layer_9">
</g>
<g id="Layer_8">
</g>
<g id="Layer_7">
</g>
<g id="Layer_6">
	<rect x="7.136" y="4.361" fill="#007DC5" width="35.369" height="35.369"/>
	<path fill="none" stroke="#FFFFFF" stroke-width="0.798" d="M39.712,38.798c1.028,0,1.862-0.833,1.862-1.862V7.153
		c0-1.029-0.834-1.862-1.862-1.862H9.928c-1.028,0-1.861,0.833-1.861,1.862v29.783c0,1.029,0.833,1.862,1.861,1.862H39.712z"/>
	<path fill="#FFFFFF" d="M33.545,34.456V18.248l3.677,0.855c0.89,0.352,1.591-0.109,1.088-0.968l-5.61-8.058
		c-0.507-0.721-0.936-0.721-1.443,0l-5.61,8.058c-0.503,0.859,0.198,1.32,1.088,0.968l3.677-0.855v16.208H33.545z"/>
	<path fill="#FFFFFF" d="M16.15,9.689v16.208l-3.677-0.855c-0.89-0.352-1.591,0.109-1.088,0.968l5.61,8.058
		c0.507,0.721,0.936,0.721,1.443,0l5.61-8.058c0.503-0.859-0.198-1.32-1.088-0.968l-3.677,0.855V9.689H16.15z"/>
	<rect fill="none" width="50.314" height="44"/>
</g>
<g id="Layer_5">
</g>
<g id="Layer_4">
</g>
<g id="Layer_3">
</g>
<g id="Layer_2">
</g>
</svg>
