<?xml version="1.0" encoding="utf-8"?>
<!-- Generator: Adobe Illustrator 16.0.0, SVG Export Plug-In . SVG Version: 6.00 Build 0)  -->
<!DOCTYPE svg PUBLIC "-//W3C//DTD SVG 1.1//EN" "http://www.w3.org/Graphics/SVG/1.1/DTD/svg11.dtd">
<svg version="1.1" xmlns="http://www.w3.org/2000/svg" xmlns:xlink="http://www.w3.org/1999/xlink" x="0px" y="0px"
	 width="50.314px" height="44px" viewBox="0 0 50.314 44" enable-background="new 0 0 50.314 44" xml:space="preserve">
<g id="Layer_30">
</g>
<g id="Layer_29">
</g>
<g id="Layer_28">
</g>
<g id="Layer_27">
</g>
<g id="Layer_26">
</g>
<g id="Layer_25">
</g>
<g id="Layer_24">
</g>
<g id="Layer_23">
</g>
<g id="Layer_22">
</g>
<g id="Layer_21">
</g>
<g id="Layer_20">
</g>
<g id="Layer_19">
</g>
<g id="Layer_18">
</g>
<g id="Layer_17">
</g>
<g id="Layer_16">
</g>
<g id="Layer_15">
</g>
<g id="Layer_14">
</g>
<g id="Layer_13">
</g>
<g id="Layer_12">
</g>
<g id="Layer_11">
</g>
<g id="Layer_10">
</g>
<g id="Layer_9">
</g>
<g id="Layer_8">
</g>
<g id="Layer_7">
	<path fill="#ED1C24" d="M25.116,39.924c9.811,0,17.765-7.954,17.765-17.765S34.927,4.394,25.116,4.394S7.352,12.348,7.352,22.159
		S15.306,39.924,25.116,39.924"/>
	<path fill="#FFFFFF" d="M25.106,35.296c7.26,0,13.144-5.884,13.144-13.143c0-7.258-5.884-13.143-13.144-13.143
		c-7.259,0-13.143,5.885-13.143,13.143C11.964,29.412,17.848,35.296,25.106,35.296"/>
	<path fill="#FFFFFF" d="M25.116,5.518c4.445,0,8.624,1.731,11.767,4.874c3.144,3.143,4.875,7.322,4.875,11.767
		c0,4.446-1.731,8.624-4.875,11.768C33.74,37.069,29.562,38.8,25.116,38.8s-8.624-1.731-11.767-4.874
		c-3.145-3.144-4.874-7.322-4.874-11.768c0-4.445,1.729-8.624,4.874-11.767C16.492,7.249,20.671,5.518,25.116,5.518 M25.116,4.748
		c-9.616,0-17.411,7.795-17.411,17.411c0,9.616,7.795,17.412,17.411,17.412s17.412-7.796,17.412-17.412
		C42.528,12.542,34.732,4.748,25.116,4.748"/>
	<path d="M25.206,25.899h5.253v2.445c0,0.477,0.344,0.458,0.344,0.458h1.585c0,0,0.345,0.019,0.345-0.458v-2.445h0.152l1.069-1.222
		v-3.897l-1.069-0.802l-1.548-3.916c-3.457-0.458-6.15-0.497-6.15-0.477c0-0.02-2.692,0.019-6.15,0.477l-1.547,3.916l-1.069,0.802
		v3.897l1.069,1.222h0.152v2.445c0,0.477,0.345,0.458,0.345,0.458h1.585c0,0,0.344,0.019,0.344-0.458v-2.445h5.253H25.206z"/>
	<path fill="#FFFFFF" d="M25.187,19.711c0-0.019,4.527,0.115,6.743,0.286l0.018-0.006l-1.184-2.992
		c-3.457-0.459-5.577-0.497-5.577-0.478c0-0.019-2.12,0.019-5.577,0.478l-1.183,2.992l0.017,0.006
		C20.66,19.826,25.187,19.692,25.187,19.711"/>
	<path fill="#FFFFFF" d="M29.8,23.378h2.941c0.315,0,0.335-0.325,0.335-0.325v-1.518c0,0-0.02-0.325-0.335-0.325h-2.436
		c-0.315,0-0.426,0.221-0.468,0.315c-0.067,0.153-0.382,1.528-0.382,1.528C29.456,23.359,29.8,23.378,29.8,23.378"/>
	<path fill="#FFFFFF" d="M20.574,23.378h-2.942c-0.314,0-0.334-0.325-0.334-0.325v-1.518c0,0,0.02-0.325,0.334-0.325h2.437
		c0.314,0,0.426,0.221,0.468,0.315c0.066,0.153,0.382,1.528,0.382,1.528C20.918,23.359,20.574,23.378,20.574,23.378"/>
	<rect fill="none" width="50.314" height="44"/>
</g>
<g id="Layer_6">
</g>
<g id="Layer_5">
</g>
<g id="Layer_4">
</g>
<g id="Layer_3">
</g>
<g id="Layer_2">
</g>
</svg>
