<?xml version="1.0" encoding="utf-8"?>
<!-- Generator: Adobe Illustrator 16.0.0, SVG Export Plug-In . SVG Version: 6.00 Build 0)  -->
<!DOCTYPE svg PUBLIC "-//W3C//DTD SVG 1.1//EN" "http://www.w3.org/Graphics/SVG/1.1/DTD/svg11.dtd">
<svg version="1.1" xmlns="http://www.w3.org/2000/svg" xmlns:xlink="http://www.w3.org/1999/xlink" x="0px" y="0px"
	 width="50.315px" height="44px" viewBox="0 0 50.315 44" enable-background="new 0 0 50.315 44" xml:space="preserve">
<g id="Layer_30">
</g>
<g id="Layer_29">
</g>
<g id="Layer_28">
</g>
<g id="Layer_27">
</g>
<g id="Layer_26">
</g>
<g id="Layer_25">
</g>
<g id="Layer_24">
</g>
<g id="Layer_23">
</g>
<g id="Layer_22">
</g>
<g id="Layer_21">
</g>
<g id="Layer_20">
</g>
<g id="Layer_19">
</g>
<g id="Layer_18">
</g>
<g id="Layer_17">
</g>
<g id="Layer_16">
</g>
<g id="Layer_15">
</g>
<g id="Layer_14">
</g>
<g id="Layer_13">
</g>
<g id="Layer_12">
</g>
<g id="Layer_11">
</g>
<g id="Layer_10">
</g>
<g id="Layer_9">
</g>
<g id="Layer_8">
	<path fill="#ED1C24" d="M24.407,39.889c9.811,0,17.765-7.954,17.765-17.765S34.218,4.358,24.407,4.358
		c-9.812,0-17.766,7.954-17.766,17.765S14.596,39.889,24.407,39.889"/>
	<path fill="#FFFFFF" d="M24.397,35.261c7.258,0,13.143-5.884,13.143-13.143c0-7.258-5.885-13.143-13.143-13.143
		c-7.259,0-13.143,5.885-13.143,13.143C11.255,29.377,17.139,35.261,24.397,35.261"/>
	<path d="M35.022,17.282h-16.17l-0.037,5.353c0,0-0.156,0.098-0.183-0.1c-0.1-0.717-0.285-2.69-0.44-3.933h-3.189l-1.431,3.3
		l0.33,2.475h-0.413v0.797h2.063c0.027-2.035,3.263-1.989,3.3-0.045l6.93-0.037c0.248-1.843,2.559-1.54,3.63-1.54
		c1.046,0,3.025-0.33,3.19,1.567h2.42V17.282z"/>
	<path d="M27.506,26.818c0.832,0,1.506-0.674,1.506-1.506s-0.674-1.506-1.506-1.506S26,24.48,26,25.312S26.674,26.818,27.506,26.818
		"/>
	<path d="M17.209,26.842c0.832,0,1.506-0.674,1.506-1.506c0-0.831-0.674-1.506-1.506-1.506s-1.507,0.675-1.507,1.506
		C15.702,26.168,16.377,26.842,17.209,26.842"/>
	<path d="M30.952,26.818c0.832,0,1.507-0.674,1.507-1.506s-0.675-1.506-1.507-1.506s-1.506,0.674-1.506,1.506
		S30.12,26.818,30.952,26.818"/>
	<polyline fill="#FFFFFF" points="17.569,19.446 17.68,21.646 14.6,21.646 15.517,19.335 17.532,19.335 	"/>
	<path fill="#FFFFFF" d="M24.407,5.482c4.444,0,8.624,1.731,11.767,4.874s4.875,7.322,4.875,11.767
		c0,4.446-1.732,8.624-4.875,11.768c-3.143,3.143-7.322,4.874-11.767,4.874c-4.445,0-8.624-1.731-11.768-4.874
		c-3.144-3.144-4.874-7.322-4.874-11.768c0-4.445,1.73-8.624,4.874-11.767S19.962,5.482,24.407,5.482 M24.407,4.712
		c-9.616,0-17.411,7.795-17.411,17.411c0,9.616,7.795,17.412,17.411,17.412c9.615,0,17.411-7.796,17.411-17.412
		C41.818,12.507,34.022,4.712,24.407,4.712"/>
	<rect fill="none" width="50.315" height="44"/>
</g>
<g id="Layer_7">
</g>
<g id="Layer_6">
</g>
<g id="Layer_5">
</g>
<g id="Layer_4">
</g>
<g id="Layer_3">
</g>
<g id="Layer_2">
</g>
</svg>
