<?xml version="1.0" encoding="utf-8"?>
<!-- Generator: Adobe Illustrator 16.0.0, SVG Export Plug-In . SVG Version: 6.00 Build 0)  -->
<!DOCTYPE svg PUBLIC "-//W3C//DTD SVG 1.1//EN" "http://www.w3.org/Graphics/SVG/1.1/DTD/svg11.dtd">
<svg version="1.1" xmlns="http://www.w3.org/2000/svg" xmlns:xlink="http://www.w3.org/1999/xlink" x="0px" y="0px"
	 width="50.315px" height="44px" viewBox="0 0 50.315 44" enable-background="new 0 0 50.315 44" xml:space="preserve">
<g id="Layer_30">
</g>
<g id="Layer_29">
</g>
<g id="Layer_28">
</g>
<g id="Layer_27">
</g>
<g id="Layer_26">
</g>
<g id="Layer_25">
</g>
<g id="Layer_24">
</g>
<g id="Layer_23">
</g>
<g id="Layer_22">
</g>
<g id="Layer_21">
</g>
<g id="Layer_20">
</g>
<g id="Layer_19">
</g>
<g id="Layer_18">
</g>
<g id="Layer_17">
</g>
<g id="Layer_16">
</g>
<g id="Layer_15">
</g>
<g id="Layer_14">
</g>
<g id="Layer_13">
</g>
<g id="Layer_12">
</g>
<g id="Layer_11">
</g>
<g id="Layer_10">
</g>
<g id="Layer_9">
	<path fill="#ED1C24" d="M25.186,39.839c9.811,0,17.765-7.953,17.765-17.765c0-9.811-7.954-17.765-17.765-17.765
		S7.421,12.264,7.421,22.075C7.421,31.886,15.375,39.839,25.186,39.839"/>
	<path fill="#FFFFFF" d="M25.176,35.212c7.259,0,13.143-5.885,13.143-13.144c0-7.258-5.884-13.143-13.143-13.143
		c-7.259,0-13.143,5.885-13.143,13.143C12.033,29.328,17.917,35.212,25.176,35.212"/>
	<path fill="#FFFFFF" d="M25.186,5.434c4.445,0,8.624,1.731,11.767,4.874c3.143,3.144,4.875,7.322,4.875,11.768
		s-1.732,8.624-4.875,11.768c-3.143,3.144-7.322,4.874-11.767,4.874c-4.445,0-8.624-1.73-11.767-4.874
		c-3.144-3.144-4.874-7.322-4.874-11.768s1.73-8.624,4.874-11.768C16.562,7.165,20.741,5.434,25.186,5.434 M25.186,4.664
		c-9.616,0-17.411,7.795-17.411,17.411c0,9.615,7.795,17.412,17.411,17.412c9.616,0,17.412-7.797,17.412-17.412
		C42.598,12.458,34.802,4.664,25.186,4.664"/>
	<path d="M32.972,18.511h1.169l0.443,2.962h-1.612V18.511z M29.627,18.511h2.65v2.962h-2.65V18.511z M25.762,18.511h3.286v2.962
		h-3.286V18.511z M31.429,25.438c0,0,3.418-0.161,3.939-0.438c0.52-0.279,0-0.601,0-0.601v-2.926l-0.444-2.962
		c0,0,0.324-0.219,0.334-0.531c0.009-0.266-0.199-0.335-0.199-0.335s-19.305-0.011-19.827,0c-0.208,0.004-0.186,0.648-0.26,0.392
		c-0.074-0.259,0.24,0.514,0.24,0.514l-1.068,2.7c0,0,0.314,0.642,0.458,0.835c0.192,0.257,0.164,1.826,0.108,2.506
		c-0.016,0.191-0.252,0.311-0.252,0.311v0.525L31.429,25.438z M17.674,21.892h-2.821l-0.08-0.642l1.066-2.42h1.835V21.892z
		 M21.359,21.473h-2.912v-2.962h2.912V21.473z M22.027,18.511h3.118v2.962h-3.118V18.511z"/>
	<path d="M19.17,27.275c0.92,0,1.667-0.765,1.667-1.706c0-0.942-0.747-1.705-1.667-1.705s-1.667,0.763-1.667,1.705
		C17.503,26.51,18.25,27.275,19.17,27.275"/>
	<ellipse fill="none" stroke="#FFFFFF" stroke-width="0.22" cx="19.17" cy="25.569" rx="1.667" ry="1.706"/>
	<path d="M29.821,27.275c0.92,0,1.666-0.765,1.666-1.706c0-0.942-0.746-1.705-1.666-1.705s-1.667,0.763-1.667,1.705
		C28.154,26.51,28.901,27.275,29.821,27.275"/>
	<ellipse fill="none" stroke="#FFFFFF" stroke-width="0.22" cx="29.821" cy="25.569" rx="1.666" ry="1.706"/>
	<rect fill="none" width="50.315" height="44"/>
</g>
<g id="Layer_8">
</g>
<g id="Layer_7">
</g>
<g id="Layer_6">
</g>
<g id="Layer_5">
</g>
<g id="Layer_4">
</g>
<g id="Layer_3">
</g>
<g id="Layer_2">
</g>
</svg>
