<?xml version="1.0" encoding="utf-8"?>
<!-- Generator: Adobe Illustrator 16.0.0, SVG Export Plug-In . SVG Version: 6.00 Build 0)  -->
<!DOCTYPE svg PUBLIC "-//W3C//DTD SVG 1.1//EN" "http://www.w3.org/Graphics/SVG/1.1/DTD/svg11.dtd">
<svg version="1.1" xmlns="http://www.w3.org/2000/svg" xmlns:xlink="http://www.w3.org/1999/xlink" x="0px" y="0px"
	 width="50.315px" height="44px" viewBox="0 0 50.315 44" enable-background="new 0 0 50.315 44" xml:space="preserve">
<g id="Layer_30">
</g>
<g id="Layer_29">
</g>
<g id="Layer_28">
</g>
<g id="Layer_27">
</g>
<g id="Layer_26">
</g>
<g id="Layer_25">
</g>
<g id="Layer_24">
</g>
<g id="Layer_23">
</g>
<g id="Layer_22">
</g>
<g id="Layer_21">
</g>
<g id="Layer_20">
</g>
<g id="Layer_19">
</g>
<g id="Layer_18">
</g>
<g id="Layer_17">
</g>
<g id="Layer_16">
</g>
<g id="Layer_15">
</g>
<g id="Layer_14">
</g>
<g id="Layer_13">
</g>
<g id="Layer_12">
</g>
<g id="Layer_11">
</g>
<g id="Layer_10">
	<path fill="#ED1C24" d="M25.205,39.821c9.811,0,17.765-7.954,17.765-17.765c0-9.812-7.954-17.765-17.765-17.765
		S7.44,12.245,7.44,22.056C7.44,31.867,15.394,39.821,25.205,39.821"/>
	<path fill="#FFFFFF" d="M25.195,35.193c7.259,0,13.143-5.884,13.143-13.143c0-7.258-5.884-13.144-13.143-13.144
		S12.052,14.792,12.052,22.05C12.052,29.309,17.937,35.193,25.195,35.193"/>
	<path fill="#FFFFFF" d="M25.205,5.415c4.445,0,8.624,1.731,11.767,4.874c3.143,3.143,4.875,7.322,4.875,11.767
		c0,4.446-1.732,8.624-4.875,11.769c-3.143,3.143-7.322,4.874-11.767,4.874c-4.445,0-8.624-1.731-11.767-4.874
		c-3.144-3.145-4.874-7.322-4.874-11.769c0-4.444,1.73-8.624,4.874-11.767C16.581,7.146,20.76,5.415,25.205,5.415 M25.205,4.645
		c-9.616,0-17.411,7.795-17.411,17.411c0,9.616,7.795,17.412,17.411,17.412c9.616,0,17.412-7.796,17.412-17.412
		C42.617,12.44,34.821,4.645,25.205,4.645"/>
	<path d="M33.239,14.317H20.885l-0.028,4.033c0,0-0.119,0.074-0.14-0.075c-0.075-0.54-0.217-2.027-0.336-2.964h-2.437l-1.093,2.487
		l0.252,1.865h-0.315v0.601h1.576c0.021-1.533,2.493-1.499,2.521-0.035l5.295-0.027c0.189-1.389,1.954-1.16,2.773-1.16
		c0.799,0,2.311-0.248,2.437,1.181h1.849V14.317z"/>
	<path d="M27.497,21.502c0.635,0,1.15-0.508,1.15-1.135s-0.515-1.135-1.15-1.135c-0.636,0-1.151,0.508-1.151,1.135
		S26.86,21.502,27.497,21.502"/>
	<path d="M19.629,21.521c0.635,0,1.15-0.508,1.15-1.135s-0.515-1.136-1.15-1.136c-0.635,0-1.15,0.509-1.15,1.136
		S18.994,21.521,19.629,21.521"/>
	<path d="M30.129,21.502c0.635,0,1.15-0.508,1.15-1.135s-0.515-1.135-1.15-1.135c-0.635,0-1.15,0.508-1.15,1.135
		S29.495,21.502,30.129,21.502"/>
	<polyline fill="#FFFFFF" points="19.905,15.947 19.989,17.605 17.636,17.605 18.335,15.864 19.876,15.864 	"/>
	<path d="M31.429,23.802h0.924l0.35,2.341h-1.274V23.802z M28.785,23.802h2.095v2.341h-2.095V23.802z M25.73,23.802h2.597v2.341
		H25.73V23.802z M30.209,29.278c0,0,2.702-0.128,3.114-0.348c0.411-0.22,0-0.473,0-0.473v-2.314l-0.351-2.341
		c0,0,0.256-0.173,0.264-0.42c0.007-0.21-0.157-0.265-0.157-0.265s-15.26-0.009-15.673,0c-0.164,0.004-0.147,0.513-0.205,0.309
		c-0.058-0.203,0.19,0.407,0.19,0.407l-0.844,2.134c0,0,0.248,0.508,0.362,0.66c0.151,0.203,0.129,1.443,0.085,1.981
		c-0.013,0.151-0.199,0.245-0.199,0.245v0.415L30.209,29.278z M19.336,26.474l-2.229,0.001l-0.064-0.508l0.843-1.913h1.45V26.474z
		 M22.249,26.143h-2.302v-2.341h2.302V26.143z M22.777,23.802h2.464v2.341h-2.464V23.802z"/>
	<path d="M20.52,30.729c0.727,0,1.317-0.604,1.317-1.348c0-0.745-0.59-1.349-1.317-1.349s-1.317,0.604-1.317,1.349
		C19.203,30.125,19.792,30.729,20.52,30.729"/>
	<ellipse fill="none" stroke="#FFFFFF" stroke-width="0.132" cx="20.52" cy="29.381" rx="1.317" ry="1.348"/>
	<path d="M28.938,30.729c0.727,0,1.318-0.604,1.318-1.348c0-0.745-0.591-1.349-1.318-1.349s-1.317,0.604-1.317,1.349
		C27.621,30.125,28.211,30.729,28.938,30.729"/>
	<ellipse fill="none" stroke="#FFFFFF" stroke-width="0.132" cx="28.938" cy="29.381" rx="1.318" ry="1.348"/>
	<rect fill="none" width="50.315" height="44"/>
</g>
<g id="Layer_9">
</g>
<g id="Layer_8">
</g>
<g id="Layer_7">
</g>
<g id="Layer_6">
</g>
<g id="Layer_5">
</g>
<g id="Layer_4">
</g>
<g id="Layer_3">
</g>
<g id="Layer_2">
</g>
</svg>
