<?xml version="1.0" encoding="utf-8"?>
<!-- Generator: Adobe Illustrator 16.0.0, SVG Export Plug-In . SVG Version: 6.00 Build 0)  -->
<!DOCTYPE svg PUBLIC "-//W3C//DTD SVG 1.1//EN" "http://www.w3.org/Graphics/SVG/1.1/DTD/svg11.dtd">
<svg version="1.1" xmlns="http://www.w3.org/2000/svg" xmlns:xlink="http://www.w3.org/1999/xlink" x="0px" y="0px"
	 width="50.314px" height="44px" viewBox="0 0 50.314 44" enable-background="new 0 0 50.314 44" xml:space="preserve">
<g id="Layer_30">
</g>
<g id="Layer_29">
</g>
<g id="Layer_28">
</g>
<g id="Layer_27">
</g>
<g id="Layer_26">
</g>
<g id="Layer_25">
</g>
<g id="Layer_24">
</g>
<g id="Layer_23">
</g>
<g id="Layer_22">
</g>
<g id="Layer_21">
</g>
<g id="Layer_20">
</g>
<g id="Layer_19">
</g>
<g id="Layer_18">
</g>
<g id="Layer_17">
</g>
<g id="Layer_16">
</g>
<g id="Layer_15">
</g>
<g id="Layer_14">
</g>
<g id="Layer_13">
</g>
<g id="Layer_12">
</g>
<g id="Layer_11">
	<path fill="#ED1C24" d="M25.176,39.828c9.812,0,17.766-7.954,17.766-17.765S34.987,4.298,25.176,4.298
		c-9.811,0-17.765,7.955-17.765,17.765S15.365,39.828,25.176,39.828"/>
	<path fill="#FFFFFF" d="M25.167,35.201c7.259,0,13.143-5.885,13.143-13.144c0-7.258-5.884-13.143-13.143-13.143
		c-7.26,0-13.144,5.885-13.144,13.143C12.023,29.316,17.907,35.201,25.167,35.201"/>
	<path fill="#FFFFFF" d="M25.176,5.421c4.445,0,8.624,1.731,11.768,4.874c3.143,3.144,4.875,7.322,4.875,11.768
		s-1.732,8.624-4.875,11.768c-3.144,3.143-7.322,4.874-11.768,4.874c-4.444,0-8.624-1.731-11.767-4.874
		c-3.145-3.144-4.874-7.322-4.874-11.768s1.729-8.624,4.874-11.768C16.552,7.152,20.731,5.421,25.176,5.421 M25.176,4.651
		c-9.616,0-17.411,7.795-17.411,17.412c0,9.615,7.795,17.411,17.411,17.411s17.412-7.796,17.412-17.411
		C42.588,12.447,34.792,4.651,25.176,4.651"/>
	<path d="M18.75,29.299c1.23,0,2.228-0.997,2.228-2.226c0-1.23-0.997-2.228-2.228-2.228c-1.229,0-2.227,0.997-2.227,2.228
		C16.523,28.302,17.521,29.299,18.75,29.299"/>
	<path fill="#FFFFFF" d="M18.747,28.017c0.523,0,0.947-0.424,0.947-0.947c0-0.524-0.424-0.948-0.947-0.948s-0.948,0.424-0.948,0.948
		C17.799,27.593,18.224,28.017,18.747,28.017"/>
	<path d="M29.437,29.293c2.265,0,4.1-1.835,4.1-4.099s-1.835-4.099-4.1-4.099c-2.264,0-4.099,1.835-4.099,4.099
		S27.173,29.293,29.437,29.293"/>
	<path fill="#FFFFFF" d="M29.424,27.549c1.303,0,2.358-1.056,2.358-2.358c0-1.304-1.056-2.359-2.358-2.359
		c-1.304,0-2.359,1.056-2.359,2.359C27.064,26.494,28.12,27.549,29.424,27.549"/>
	<path d="M29.425,26.97c0.983,0,1.78-0.797,1.78-1.781c0-0.983-0.797-1.781-1.78-1.781c-0.984,0-1.781,0.798-1.781,1.781
		C27.644,26.173,28.44,26.97,29.425,26.97"/>
	<path d="M32.636,21.994c-0.819-0.818-1.951-1.325-3.202-1.325c-2.5,0-4.527,2.026-4.527,4.527c0,0.313,0.031,0.617,0.092,0.912
		l-3.852-0.007c-0.384-0.945-1.312-1.611-2.395-1.611c-0.694,0-1.324,0.273-1.788,0.718h-0.952v-4.109
		c0-0.516,0.525-0.504,0.525-0.504h6.933l1.076-4.682l-0.124-1.053h7.155v4.838l1.613,1.758L32.636,21.994z"/>
	<polygon fill="#FFFFFF" points="24.231,20.594 25.307,15.913 30.525,15.913 30.525,19.698 26.225,19.698 25.497,20.594 	"/>
	<rect fill="none" width="50.314" height="44"/>
</g>
<g id="Layer_10">
</g>
<g id="Layer_9">
</g>
<g id="Layer_8">
</g>
<g id="Layer_7">
</g>
<g id="Layer_6">
</g>
<g id="Layer_5">
</g>
<g id="Layer_4">
</g>
<g id="Layer_3">
</g>
<g id="Layer_2">
</g>
</svg>
