<?xml version="1.0" encoding="utf-8"?>
<!-- Generator: Adobe Illustrator 16.0.0, SVG Export Plug-In . SVG Version: 6.00 Build 0)  -->
<!DOCTYPE svg PUBLIC "-//W3C//DTD SVG 1.1//EN" "http://www.w3.org/Graphics/SVG/1.1/DTD/svg11.dtd">
<svg version="1.1" xmlns="http://www.w3.org/2000/svg" xmlns:xlink="http://www.w3.org/1999/xlink" x="0px" y="0px"
	 width="50.315px" height="44px" viewBox="0 0 50.315 44" enable-background="new 0 0 50.315 44" xml:space="preserve">
<g id="Layer_30">
</g>
<g id="Layer_29">
</g>
<g id="Layer_28">
</g>
<g id="Layer_27">
</g>
<g id="Layer_26">
</g>
<g id="Layer_25">
</g>
<g id="Layer_24">
</g>
<g id="Layer_23">
</g>
<g id="Layer_22">
</g>
<g id="Layer_21">
</g>
<g id="Layer_20">
</g>
<g id="Layer_19">
</g>
<g id="Layer_18">
</g>
<g id="Layer_17">
</g>
<g id="Layer_16">
</g>
<g id="Layer_15">
</g>
<g id="Layer_14">
</g>
<g id="Layer_13">
</g>
<g id="Layer_12">
	<path fill="#ED1C24" d="M25.198,39.899c9.811,0,17.765-7.954,17.765-17.765c0-9.812-7.954-17.766-17.765-17.766
		c-9.812,0-17.766,7.954-17.766,17.766C7.433,31.945,15.387,39.899,25.198,39.899"/>
	<path fill="#FFFFFF" d="M25.188,35.271c7.259,0,13.143-5.884,13.143-13.143c0-7.258-5.884-13.144-13.143-13.144
		s-13.144,5.886-13.144,13.144C12.045,29.387,17.93,35.271,25.188,35.271"/>
	<path fill="#FFFFFF" d="M25.198,5.493c4.444,0,8.624,1.731,11.767,4.874c3.143,3.143,4.875,7.321,4.875,11.767
		c0,4.446-1.732,8.624-4.875,11.769c-3.143,3.143-7.322,4.874-11.767,4.874c-4.445,0-8.624-1.731-11.768-4.874
		c-3.144-3.145-4.874-7.322-4.874-11.769c0-4.445,1.73-8.624,4.874-11.767C16.574,7.224,20.753,5.493,25.198,5.493 M25.198,4.723
		c-9.616,0-17.411,7.794-17.411,17.411s7.795,17.412,17.411,17.412c9.615,0,17.411-7.796,17.411-17.412S34.813,4.723,25.198,4.723"
		/>
	<path d="M28.107,26.376c1.059,0,1.915-0.857,1.915-1.915s-0.856-1.916-1.915-1.916c-1.058,0-1.915,0.858-1.915,1.916
		S27.05,26.376,28.107,26.376"/>
	<path fill="#FFFFFF" d="M28.107,25.735c0.703,0,1.274-0.569,1.274-1.273c0-0.703-0.571-1.273-1.274-1.273
		c-0.702,0-1.273,0.57-1.273,1.273C26.834,25.166,27.405,25.735,28.107,25.735"/>
	<path d="M21.439,26.376c1.058,0,1.915-0.857,1.915-1.915s-0.857-1.916-1.915-1.916c-1.059,0-1.915,0.858-1.915,1.916
		S20.381,26.376,21.439,26.376"/>
	<path fill="#FFFFFF" d="M21.439,25.735c0.702,0,1.273-0.569,1.273-1.273c0-0.703-0.571-1.273-1.273-1.273
		c-0.703,0-1.274,0.57-1.274,1.273C20.165,25.166,20.736,25.735,21.439,25.735"/>
	<path d="M24.271,19.979H23.42c0,0-0.44-0.041-0.675,0.55l-1.608,3.864c0,0-0.124,0.289,0.138,0.385
		c0.261,0.096,0.453-0.248,0.453-0.248l1.664-3.891h0.88V19.979z"/>
	<path d="M22.801,21.395l1.443,0.027l0.577,0.922l-0.439,1.265l0.371,0.536l3.424,0.014c0,0,0.303-0.014,0.303,0.275
		c0,0.288-0.275,0.343-0.275,0.343l-3.396,0.015c0,0-0.427,0.083-0.729-0.468c0,0-1.402-2.297-1.416-2.297
		S22.801,21.395,22.801,21.395"/>
	<path d="M29.455,21.409l0.028,0.756l-1.815,0.097c0,0-0.454,0.055-0.659,0.316c-0.207,0.261-0.495,0.151-0.578-0.042
		c-0.082-0.191-0.427-0.797-0.427-0.797s-0.124-0.33,0.303-0.33H29.455z"/>
	<path d="M21.508,22.605l0.027-0.398c0,0-0.632-0.068-0.894,0.097l0.123,0.385L21.508,22.605z"/>
	<path d="M21.12,19.702c0.755,0,1.367-0.612,1.367-1.367s-0.612-1.367-1.367-1.367s-1.367,0.612-1.367,1.367
		S20.365,19.702,21.12,19.702"/>
	<path fill="#FFFFFF" d="M21.117,18.915c0.321,0,0.582-0.261,0.582-0.582s-0.261-0.582-0.582-0.582c-0.32,0-0.581,0.261-0.581,0.582
		S20.797,18.915,21.117,18.915"/>
	<path d="M27.681,19.698c1.39,0,2.516-1.127,2.516-2.516c0-1.391-1.126-2.518-2.516-2.518c-1.391,0-2.518,1.127-2.518,2.518
		C25.163,18.571,26.29,19.698,27.681,19.698"/>
	<path fill="#FFFFFF" d="M27.672,18.627c0.801,0,1.448-0.648,1.448-1.448s-0.647-1.449-1.448-1.449c-0.8,0-1.447,0.649-1.447,1.449
		S26.872,18.627,27.672,18.627"/>
	<path d="M27.673,18.271c0.604,0,1.093-0.489,1.093-1.093s-0.489-1.093-1.093-1.093c-0.604,0-1.093,0.489-1.093,1.093
		S27.068,18.271,27.673,18.271"/>
	<path d="M29.644,15.216c-0.503-0.503-1.197-0.813-1.965-0.813c-1.536,0-2.779,1.244-2.779,2.779c0,0.191,0.019,0.38,0.056,0.561
		l-2.364-0.005c-0.236-0.58-0.805-0.989-1.47-0.989c-0.426,0-0.813,0.168-1.099,0.441h-0.584v-2.523c0-0.315,0.323-0.31,0.323-0.31
		h4.255l0.66-2.873l-0.075-0.647h4.394v2.971l0.99,1.079L29.644,15.216z"/>
	<polygon fill="#FFFFFF" points="24.484,14.357 25.145,11.483 28.349,11.483 28.349,13.807 25.709,13.807 25.262,14.357 	"/>
	<path d="M21.622,33.468c1.147,0,2.077-0.931,2.077-2.077c0-1.147-0.93-2.077-2.077-2.077c-1.146,0-2.077,0.93-2.077,2.077
		C19.545,32.538,20.476,33.468,21.622,33.468"/>
	<path fill="#FFFFFF" d="M21.619,32.956c0.866,0,1.568-0.701,1.568-1.567s-0.702-1.568-1.568-1.568
		c-0.865,0-1.567,0.702-1.567,1.568S20.754,32.956,21.619,32.956"/>
	<path d="M24.326,27.31V26.8h-0.9c-0.405,0-0.522,0.51-0.522,0.51c-0.282,0.804-1.437,4.069-1.437,4.069
		c-0.117,0.296,0.351,0.461,0.461,0.18c0.109-0.282,1.43-4.002,1.43-4.002c0.089-0.281,0.351-0.247,0.351-0.247H24.326z"/>
	<path d="M28.314,31.135c-0.205-0.44-0.961-2.059-1.441-3.088h-3.936l-0.316,0.837l2.441,2.757h2.963
		C28.603,31.641,28.314,31.135,28.314,31.135"/>
	<path fill="#FFFFFF" d="M27.764,31.132c-0.338-0.712-0.842-1.798-1.202-2.565L23,28.561l2.282,2.571H27.764z"/>
	<path d="M27.729,27.31v0.405l-1.753-0.007c-0.303,0-0.31-0.398,0-0.398H27.729z"/>
	<path d="M26.035,31.391c0-1.147,0.931-2.077,2.077-2.077c1.147,0,2.077,0.93,2.077,2.077c0,1.146-0.93,2.077-2.077,2.077
		C26.966,33.468,26.035,32.538,26.035,31.391 M28.109,32.956c0.866,0,1.568-0.701,1.568-1.567s-0.702-1.568-1.568-1.568
		s-1.568,0.702-1.568,1.568S27.243,32.956,28.109,32.956"/>
	<polygon points="25.418,31.53 27.247,27.64 26.788,27.425 24.952,31.338 	"/>
	<rect fill="none" width="50.315" height="44"/>
</g>
<g id="Layer_11">
</g>
<g id="Layer_10">
</g>
<g id="Layer_9">
</g>
<g id="Layer_8">
</g>
<g id="Layer_7">
</g>
<g id="Layer_6">
</g>
<g id="Layer_5">
</g>
<g id="Layer_4">
</g>
<g id="Layer_3">
</g>
<g id="Layer_2">
</g>
</svg>
