<?xml version="1.0" encoding="utf-8"?>
<!-- Generator: Adobe Illustrator 16.0.0, SVG Export Plug-In . SVG Version: 6.00 Build 0)  -->
<!DOCTYPE svg PUBLIC "-//W3C//DTD SVG 1.1//EN" "http://www.w3.org/Graphics/SVG/1.1/DTD/svg11.dtd">
<svg version="1.1" xmlns="http://www.w3.org/2000/svg" xmlns:xlink="http://www.w3.org/1999/xlink" x="0px" y="0px"
	 width="50.315px" height="44px" viewBox="0 0 50.315 44" enable-background="new 0 0 50.315 44" xml:space="preserve">
<g id="Layer_9">
</g>
<g id="Layer_8">
</g>
<g id="Layer_6">
</g>
<g id="Layer_5">
</g>
<g id="Layer_4">
</g>
<g id="Layer_3">
</g>
<g id="Layer_2">
	<path fill="#007DC5" d="M25.112,39.453c9.811,0,17.766-7.955,17.766-17.766S34.922,3.922,25.112,3.922
		c-9.811,0-17.765,7.955-17.765,17.766S15.301,39.453,25.112,39.453"/>
	<circle fill="none" stroke="#FFFFFF" stroke-width="0.798" cx="25.112" cy="21.686" r="16.811"/>
	<path fill="#FFFFFF" d="M22.249,13.815c-2.645,0.961-4.666,3.226-5.285,6.017l0.007-0.006l2.065-0.293
		c0.637-0.188,1.091,0.174,0.692,0.736l-4.367,5.219c-0.396,0.467-0.691,0.44-0.996-0.088l-3.379-5.908
		c-0.295-0.623,0.217-0.898,0.81-0.602l1.697,0.557l-0.005-0.002c0.781-4.104,3.681-7.456,7.518-8.875L22.249,13.815z"/>
	<path fill="#FFFFFF" d="M19.773,28.021c2.155,1.81,5.125,2.427,7.854,1.567l-0.01-0.002l-1.287-1.643
		c-0.479-0.457-0.395-1.032,0.293-0.967l6.703,1.173c0.602,0.108,0.727,0.378,0.422,0.907l-3.428,5.88
		c-0.393,0.567-0.887,0.261-0.926-0.401l-0.365-1.748v0.006c-3.945,1.375-8.297,0.539-11.446-2.074L19.773,28.021z"/>
	<path fill="#FFFFFF" d="M33.313,23.063c0.49-2.772-0.461-5.653-2.568-7.586l0.004,0.01l-0.781,1.935
		c-0.154,0.646-0.695,0.859-0.982,0.231l-2.336-6.393c-0.207-0.574-0.037-0.818,0.574-0.818l6.805,0.027
		c0.688,0.057,0.67,0.639,0.117,1.004l-1.33,1.19l0.004-0.003c3.162,2.729,4.615,6.915,3.926,10.947L33.313,23.063z"/>
	<rect fill="none" width="50.315" height="44"/>
</g>
</svg>
