<?xml version="1.0" encoding="utf-8"?>
<!-- Generator: Adobe Illustrator 16.0.0, SVG Export Plug-In . SVG Version: 6.00 Build 0)  -->
<!DOCTYPE svg PUBLIC "-//W3C//DTD SVG 1.1//EN" "http://www.w3.org/Graphics/SVG/1.1/DTD/svg11.dtd">
<svg version="1.1" xmlns="http://www.w3.org/2000/svg" xmlns:xlink="http://www.w3.org/1999/xlink" x="0px" y="0px"
	 width="50.314px" height="44px" viewBox="0 0 50.314 44" enable-background="new 0 0 50.314 44" xml:space="preserve">
<g id="Layer_9">
</g>
<g id="Layer_8">
</g>
<g id="Layer_6">
</g>
<g id="Layer_5">
</g>
<g id="Layer_4">
</g>
<g id="Layer_3">
	<path fill="#007DC5" d="M25.184,39.486c9.811,0,17.764-7.955,17.764-17.766S34.994,3.955,25.184,3.955
		c-9.813,0-17.766,7.955-17.766,17.766S15.371,39.486,25.184,39.486"/>
	<circle fill="none" stroke="#FFFFFF" stroke-width="0.798" cx="25.182" cy="21.719" r="16.811"/>
	<path fill="#FFFFFF" d="M14.6,14.871l7,7l-5.457,3.396c-1.496,0.65-1.785,2.049-0.145,2.479l16.459,2.947
		c1.479,0.256,1.994-0.26,1.738-1.738l-2.947-16.459c-0.43-1.641-1.828-1.35-2.479,0.145l-3.396,5.458l-7-7L14.6,14.871z"/>
	<rect fill="none" width="50.314" height="44"/>
</g>
<g id="Layer_2">
</g>
</svg>
