<?xml version="1.0" encoding="utf-8"?>
<!-- Generator: Adobe Illustrator 16.0.0, SVG Export Plug-In . SVG Version: 6.00 Build 0)  -->
<!DOCTYPE svg PUBLIC "-//W3C//DTD SVG 1.1//EN" "http://www.w3.org/Graphics/SVG/1.1/DTD/svg11.dtd">
<svg version="1.1" xmlns="http://www.w3.org/2000/svg" xmlns:xlink="http://www.w3.org/1999/xlink" x="0px" y="0px"
	 width="50.316px" height="44px" viewBox="0 0 50.316 44" enable-background="new 0 0 50.316 44" xml:space="preserve">
<g id="Layer_9">
</g>
<g id="Layer_8">
</g>
<g id="Layer_6">
</g>
<g id="Layer_5">
</g>
<g id="Layer_4">
	<path fill="#007DC5" d="M25.174,39.564c9.813,0,17.766-7.955,17.766-17.766S34.986,4.033,25.174,4.033
		c-9.811,0-17.764,7.955-17.764,17.766S15.363,39.564,25.174,39.564"/>
	<circle fill="none" stroke="#FFFFFF" stroke-width="0.798" cx="25.174" cy="21.797" r="16.811"/>
	<path fill="#FFFFFF" d="M26.48,13.396l5.188,9.031l-3.611,1.098c-0.947,0.141-1.322,0.89-0.457,1.383l8.887,4.174
		c0.799,0.369,1.17,0.156,1.25-0.723l0.828-9.783c0.006-0.995-0.83-1.045-1.426-0.295l-2.756,2.58l-5.189-9.031L26.48,13.396z"/>
	<path fill="#FFFFFF" d="M23.869,13.396l-5.189,9.031l3.611,1.098c0.947,0.141,1.324,0.89,0.459,1.383l-8.887,4.174
		c-0.801,0.369-1.172,0.156-1.25-0.723l-0.83-9.783c-0.006-0.995,0.832-1.045,1.426-0.295l2.758,2.58l5.189-9.031L23.869,13.396z"/>
	<rect fill="none" width="50.316" height="44"/>
</g>
<g id="Layer_3">
</g>
<g id="Layer_2">
</g>
</svg>
