<?xml version="1.0" encoding="utf-8"?>
<!-- Generator: Adobe Illustrator 16.0.0, SVG Export Plug-In . SVG Version: 6.00 Build 0)  -->
<!DOCTYPE svg PUBLIC "-//W3C//DTD SVG 1.1//EN" "http://www.w3.org/Graphics/SVG/1.1/DTD/svg11.dtd">
<svg version="1.1" xmlns="http://www.w3.org/2000/svg" xmlns:xlink="http://www.w3.org/1999/xlink" x="0px" y="0px"
	 width="50.314px" height="44px" viewBox="0 0 50.314 44" enable-background="new 0 0 50.314 44" xml:space="preserve">
<g id="Layer_9">
</g>
<g id="Layer_8">
</g>
<g id="Layer_6">
</g>
<g id="Layer_5">
	<path fill="#007DC5" d="M25.055,39.793c9.812,0,17.766-7.955,17.766-17.766S34.866,4.263,25.055,4.263
		c-9.811,0-17.765,7.954-17.765,17.765S15.244,39.793,25.055,39.793"/>
	<circle fill="none" stroke="#FFFFFF" stroke-width="0.798" cx="25.055" cy="22.026" r="16.812"/>
	<path fill="#FFFFFF" d="M26.512,35.016V17.708l3.677,0.856c0.89,0.351,1.591-0.109,1.088-0.969l-5.61-8.059
		c-0.507-0.721-0.936-0.721-1.442,0l-5.61,8.059c-0.503,0.859,0.198,1.319,1.088,0.969l3.678-0.856v17.308H26.512z"/>
	<rect fill="none" width="50.314" height="44"/>
</g>
<g id="Layer_4">
</g>
<g id="Layer_3">
</g>
<g id="Layer_2">
</g>
</svg>
