<?xml version="1.0" encoding="utf-8"?>
<!-- Generator: Adobe Illustrator 16.0.0, SVG Export Plug-In . SVG Version: 6.00 Build 0)  -->
<!DOCTYPE svg PUBLIC "-//W3C//DTD SVG 1.1//EN" "http://www.w3.org/Graphics/SVG/1.1/DTD/svg11.dtd">
<svg version="1.1" xmlns="http://www.w3.org/2000/svg" xmlns:xlink="http://www.w3.org/1999/xlink" x="0px" y="0px"
	 width="50.315px" height="44px" viewBox="0 0 50.315 44" enable-background="new 0 0 50.315 44" xml:space="preserve">
<g id="Layer_9">
</g>
<g id="Layer_8">
</g>
<g id="Layer_6">
	<path fill="#007DC5" d="M25.092,39.59c9.811,0,17.764-7.954,17.764-17.766c0-9.811-7.953-17.765-17.764-17.765
		c-9.811,0-17.766,7.954-17.766,17.765C7.326,31.636,15.281,39.59,25.092,39.59"/>
	<circle fill="none" stroke="#FFFFFF" stroke-width="0.798" cx="25.092" cy="21.823" r="16.812"/>
	<path fill="#FFFFFF" d="M25.147,17.915h3.84l-0.867,3.731c-0.357,0.904,0.109,1.615,0.982,1.104l8.18-5.694
		c0.73-0.514,0.73-0.949,0-1.463L29.102,9.9c-0.873-0.512-1.34,0.199-0.982,1.104l0.949,3.594h-3.895
		c-6.6,0.008-6.573,6.621-6.573,6.621v13.034h3.299V21.219C21.901,17.973,25.147,17.915,25.147,17.915"/>
	<rect fill="none" width="50.315" height="44"/>
</g>
<g id="Layer_5">
</g>
<g id="Layer_4">
</g>
<g id="Layer_3">
</g>
<g id="Layer_2">
</g>
</svg>
