<?xml version="1.0" encoding="utf-8"?>
<!-- Generator: Adobe Illustrator 16.0.0, SVG Export Plug-In . SVG Version: 6.00 Build 0)  -->
<!DOCTYPE svg PUBLIC "-//W3C//DTD SVG 1.1//EN" "http://www.w3.org/Graphics/SVG/1.1/DTD/svg11.dtd">
<svg version="1.1" xmlns="http://www.w3.org/2000/svg" xmlns:xlink="http://www.w3.org/1999/xlink" x="0px" y="0px"
	 width="50.314px" height="44px" viewBox="0 0 50.314 44" enable-background="new 0 0 50.314 44" xml:space="preserve">
<g id="Layer_9">
</g>
<g id="Layer_8">
	<path fill="#007DC5" d="M25.166,39.572c9.813,0,17.766-7.953,17.766-17.765S34.979,4.043,25.166,4.043
		c-9.811,0-17.764,7.953-17.764,17.765S15.355,39.572,25.166,39.572"/>
	<circle fill="none" stroke="#FFFFFF" stroke-width="0.798" cx="25.166" cy="21.806" r="16.811"/>
	<path fill="#FFFFFF" d="M22.465,28.352v6.668h-2.537V15.292l-2.979,0.693c-0.721,0.284-1.289-0.088-0.881-0.785l4.543-6.526
		c0.412-0.584,0.758-0.584,1.17,0l4.543,6.526c0.408,0.697-0.16,1.069-0.881,0.785l-2.979-0.693v9.236l0.008,0.028
		c0,0,0.563-1.06,2.514-1.06h6.805l-0.693-2.978c-0.285-0.723,0.088-1.289,0.785-0.883l6.527,4.545c0.582,0.41,0.582,0.758,0,1.168
		l-6.527,4.545c-0.697,0.406-1.07-0.16-0.785-0.881l0.693-2.979h-6.805c-2.145,0-2.514,2.372-2.514,2.372L22.465,28.352z"/>
	<rect fill="none" width="50.314" height="44"/>
</g>
<g id="Layer_6">
</g>
<g id="Layer_5">
</g>
<g id="Layer_4">
</g>
<g id="Layer_3">
</g>
<g id="Layer_2">
</g>
</svg>
