<?xml version="1.0" encoding="utf-8"?>
<!-- Generator: Adobe Illustrator 16.0.0, SVG Export Plug-In . SVG Version: 6.00 Build 0)  -->
<!DOCTYPE svg PUBLIC "-//W3C//DTD SVG 1.1//EN" "http://www.w3.org/Graphics/SVG/1.1/DTD/svg11.dtd">
<svg version="1.1" xmlns="http://www.w3.org/2000/svg" xmlns:xlink="http://www.w3.org/1999/xlink" x="0px" y="0px"
	 width="50.316px" height="44px" viewBox="0 0 50.316 44" enable-background="new 0 0 50.316 44" xml:space="preserve">
<g id="Layer_9">
	<path fill="#007DC5" d="M25.148,39.7c9.811,0,17.764-7.954,17.764-17.765c0-9.812-7.953-17.766-17.764-17.766
		S7.383,12.124,7.383,21.936C7.383,31.746,15.338,39.7,25.148,39.7"/>
	<circle fill="none" stroke="#FFFFFF" stroke-width="0.798" cx="25.148" cy="21.934" r="16.811"/>
	<path fill="#FFFFFF" d="M25.176,20.174c0,0,0.502-1.236,3.059-1.87l3.055-0.817l-1.434-2.684c-0.459-0.619-0.246-1.262,0.529-1.049
		l7.441,2.689c0.666,0.244,0.756,0.578,0.301,1.123l-5.105,6.047c-0.564,0.57-1.068,0.121-0.98-0.646l-0.1-3.041l-3.713,0.994
		c-1.623,0.577-1.789,2.555-1.789,2.555v12.457H23.91V23.475c0,0-0.166-1.978-1.787-2.555l-3.713-0.994l-0.102,3.041
		c0.088,0.768-0.416,1.217-0.98,0.646l-5.104-6.047c-0.457-0.545-0.367-0.879,0.299-1.123l7.443-2.689
		c0.773-0.213,0.986,0.43,0.527,1.049l-1.432,2.684l3.053,0.817C24.674,18.938,25.176,20.174,25.176,20.174"/>
	<rect fill="none" width="50.316" height="44"/>
</g>
<g id="Layer_8">
</g>
<g id="Layer_6">
</g>
<g id="Layer_5">
</g>
<g id="Layer_4">
</g>
<g id="Layer_3">
</g>
<g id="Layer_2">
</g>
</svg>
