<?xml version="1.0" encoding="utf-8"?>
<!-- Generator: Adobe Illustrator 16.0.0, SVG Export Plug-In . SVG Version: 6.00 Build 0)  -->
<!DOCTYPE svg PUBLIC "-//W3C//DTD SVG 1.1//EN" "http://www.w3.org/Graphics/SVG/1.1/DTD/svg11.dtd">
<svg version="1.1" xmlns="http://www.w3.org/2000/svg" xmlns:xlink="http://www.w3.org/1999/xlink" x="0px" y="0px"
	 width="50.315px" height="44px" viewBox="0 0 50.315 44" enable-background="new 0 0 50.315 44" xml:space="preserve">
<g id="Layer_1">
</g>
<g id="Layer_14">
</g>
<g id="Layer_13">
</g>
<g id="Layer_12">
</g>
<g id="Layer_11">
</g>
<g id="Layer_10">
</g>
<g id="Layer_9">
</g>
<g id="Layer_8">
</g>
<g id="Layer_7">
</g>
<g id="Layer_6">
</g>
<g id="Layer_5">
</g>
<g id="Layer_4">
</g>
<g id="Layer_3">
</g>
<g id="Layer_2">
	<path fill="#ED1C24" d="M25.312,39.773c9.811,0,17.765-7.953,17.765-17.765c0-9.811-7.954-17.765-17.765-17.765
		S7.546,12.197,7.546,22.008C7.546,31.82,15.5,39.773,25.312,39.773"/>
	<path fill="#007DC5" d="M25.302,34.76c-7.035,0-12.758-5.723-12.758-12.758c0-7.035,5.723-12.758,12.758-12.758
		S38.06,14.968,38.06,22.002C38.06,29.038,32.337,34.76,25.302,34.76"/>
	<path fill="#FFFFFF" d="M25.302,9.63c3.305,0,6.412,1.287,8.749,3.624s3.624,5.444,3.624,8.749s-1.287,6.412-3.624,8.749
		s-5.444,3.624-8.749,3.624c-3.305,0-6.412-1.287-8.749-3.624s-3.624-5.443-3.624-8.749s1.287-6.412,3.624-8.749
		S21.997,9.63,25.302,9.63 M25.302,8.86c-7.258,0-13.143,5.884-13.143,13.143s5.885,13.143,13.143,13.143
		c7.258,0,13.143-5.884,13.143-13.143S32.56,8.86,25.302,8.86"/>
	
		<rect x="9.88" y="20.83" transform="matrix(0.7071 0.7071 -0.7071 0.7071 22.9603 -11.5893)" fill="#ED1C24" width="31.18" height="2.183"/>
	<line fill="#007DC5" x1="15.26" y1="13.783" x2="33.466" y2="31.99"/>
	<line fill="none" stroke="#FFFFFF" stroke-width="0.77" stroke-linejoin="bevel" x1="15.26" y1="13.783" x2="33.466" y2="31.99"/>
	<line fill="#007DC5" x1="17.324" y1="11.68" x2="35.45" y2="29.806"/>
	<line fill="none" stroke="#FFFFFF" stroke-width="0.77" stroke-linejoin="bevel" x1="17.324" y1="11.68" x2="35.45" y2="29.806"/>
	<path fill="#FFFFFF" d="M25.312,5.367c4.445,0,8.624,1.731,11.767,4.874c3.144,3.143,4.875,7.322,4.875,11.767
		s-1.731,8.625-4.875,11.768c-3.143,3.143-7.322,4.874-11.767,4.874c-4.445,0-8.624-1.731-11.767-4.874S8.67,26.453,8.67,22.008
		s1.731-8.624,4.874-11.767S20.866,5.367,25.312,5.367 M25.312,4.597C15.695,4.597,7.9,12.393,7.9,22.008
		c0,9.616,7.795,17.412,17.411,17.412c9.616,0,17.412-7.796,17.412-17.412C42.723,12.393,34.927,4.597,25.312,4.597"/>
	<rect x="6.805" y="3.31" fill="none" width="36.704" height="37.378"/>
</g>
</svg>
