<?xml version="1.0" encoding="utf-8"?>
<!-- Generator: Adobe Illustrator 16.0.0, SVG Export Plug-In . SVG Version: 6.00 Build 0)  -->
<!DOCTYPE svg PUBLIC "-//W3C//DTD SVG 1.1//EN" "http://www.w3.org/Graphics/SVG/1.1/DTD/svg11.dtd">
<svg version="1.1" xmlns="http://www.w3.org/2000/svg" xmlns:xlink="http://www.w3.org/1999/xlink" x="0px" y="0px"
	 width="50.314px" height="44px" viewBox="0 0 50.314 44" enable-background="new 0 0 50.314 44" xml:space="preserve">
<g id="Layer_1">
</g>
<g id="Layer_14">
</g>
<g id="Layer_13">
</g>
<g id="Layer_12">
</g>
<g id="Layer_11">
	<rect x="12.062" y="5.035" fill="#FFFFFF" width="26.232" height="33.742"/>
	<rect x="12.062" y="5.035" fill="none" stroke="#000000" stroke-width="0.11" width="26.231" height="33.741"/>
	<path fill="none" stroke="#000000" stroke-width="0.55" d="M35.097,37.888c1.177,0,2.131-0.795,2.131-1.776V7.699
		c0-0.981-0.954-1.777-2.131-1.777H15.258c-1.177,0-2.131,0.796-2.131,1.777v28.412c0,0.981,0.954,1.776,2.131,1.776H35.097z"/>
	<path fill="#007DC5" d="M32.803,30.338c0.974,0,1.762-0.787,1.762-1.76V13.326c0-0.973-0.788-1.761-1.762-1.761H17.551
		c-0.972,0-1.76,0.788-1.76,1.761v15.252c0,0.973,0.788,1.76,1.76,1.76H32.803z"/>
	<path fill="#FFFFFF" d="M22.674,28.398h-2.512V13.912h5.735c2.727,0,4.296,1.867,4.296,4.328c0,2.127-1.305,4.42-4.282,4.42h-3.237
		V28.398z M25.146,20.289c2.264,0,2.723-1.102,2.723-1.974c0-0.935-0.366-2.04-2.723-2.04h-2.503v4.014H25.146z"/>
	<polygon points="32.577,32.293 33.051,32.293 33.051,33.324 33.072,33.291 33.103,33.257 33.156,33.188 33.229,33.121 
		33.303,33.064 33.397,33.019 33.481,32.996 33.577,32.984 33.672,32.996 33.766,33.008 33.872,33.041 33.966,33.099 34.072,33.188 
		34.156,33.302 34.209,33.416 34.24,33.539 34.251,33.664 34.261,33.834 34.261,35.07 33.787,35.07 33.787,33.937 33.787,33.822 
		33.766,33.722 33.745,33.631 33.693,33.552 33.64,33.494 33.577,33.461 33.503,33.438 33.43,33.427 33.345,33.449 33.261,33.484 
		33.188,33.539 33.124,33.607 33.082,33.699 33.061,33.789 33.051,33.88 33.051,33.992 33.051,35.07 32.577,35.07 	"/>
	<polygon fill="none" stroke="#FFFFFF" stroke-width="0.012" points="32.577,32.293 33.051,32.293 33.051,33.324 33.072,33.291 
		33.103,33.257 33.156,33.188 33.229,33.121 33.303,33.064 33.397,33.019 33.481,32.996 33.577,32.984 33.672,32.996 33.766,33.008 
		33.872,33.041 33.966,33.099 34.072,33.188 34.156,33.302 34.209,33.416 34.24,33.539 34.251,33.664 34.261,33.834 34.261,35.07 
		33.787,35.07 33.787,33.937 33.787,33.822 33.766,33.722 33.745,33.631 33.693,33.552 33.64,33.494 33.577,33.461 33.503,33.438 
		33.43,33.427 33.345,33.449 33.261,33.484 33.188,33.539 33.124,33.607 33.082,33.699 33.061,33.789 33.051,33.88 33.051,33.992 
		33.051,35.07 32.577,35.07 	"/>
	<path d="M30.525,35.064l0.017-0.235l0.05-0.212l0.084-0.19l0.118-0.159l0.126-0.145l0.143-0.113l0.144-0.099
		c0,0,0.434-0.251,0.404-0.448c-0.032-0.216-0.314-0.247-0.431-0.23c-0.117,0.017-0.343,0.218-0.343,0.218l-0.295-0.199l0.118-0.129
		l0.134-0.099l0.16-0.068c0,0,0.209-0.071,0.378-0.068c0.169,0.004,0.328,0.083,0.328,0.083s0.286,0.078,0.352,0.414
		c0.039,0.201-0.111,0.437-0.203,0.513c-0.183,0.151-0.438,0.297-0.673,0.535c-0.097,0.098-0.146,0.275-0.146,0.275l1.014,0.003
		v0.354H30.525z"/>
	<path fill="none" stroke="#FFFFFF" stroke-width="0.012" d="M30.525,35.064l0.017-0.235l0.05-0.212l0.084-0.19l0.118-0.159
		l0.126-0.145l0.143-0.113l0.144-0.099c0,0,0.434-0.251,0.404-0.448c-0.032-0.216-0.314-0.247-0.431-0.23
		c-0.117,0.017-0.343,0.218-0.343,0.218l-0.295-0.199l0.118-0.129l0.134-0.099l0.16-0.068c0,0,0.209-0.071,0.378-0.068
		c0.169,0.004,0.328,0.083,0.328,0.083s0.286,0.078,0.352,0.414c0.039,0.201-0.111,0.437-0.203,0.513
		c-0.183,0.151-0.438,0.297-0.673,0.535c-0.097,0.098-0.146,0.275-0.146,0.275l1.014,0.003v0.354H30.525z"/>
	<polygon points="22.339,33.63 22.334,33.971 22.334,35.068 21.894,35.078 21.894,32.97 22.339,32.97 22.339,33.076 22.549,32.978 
		22.785,32.947 22.911,32.963 23.028,33.008 23.146,33.076 23.264,33.175 23.381,33.076 23.516,33.008 23.649,32.963 23.801,32.947 
		23.944,32.963 24.07,32.992 24.18,33.054 24.28,33.144 24.407,33.342 24.449,33.562 24.449,35.078 24.003,35.078 24.003,33.621 
		23.978,33.523 23.919,33.433 23.818,33.371 23.701,33.357 23.575,33.371 23.481,33.433 23.415,33.523 23.397,33.63 23.397,35.078 
		22.944,35.078 22.944,33.621 22.927,33.523 22.86,33.433 22.768,33.371 22.642,33.357 22.523,33.371 22.423,33.433 22.364,33.523 	
		"/>
	<polygon fill="none" stroke="#FFFFFF" stroke-width="0.012" points="22.339,33.63 22.334,33.971 22.334,35.068 21.894,35.078 
		21.894,32.97 22.339,32.97 22.339,33.076 22.549,32.978 22.785,32.947 22.911,32.963 23.028,33.008 23.146,33.076 23.264,33.175 
		23.381,33.076 23.516,33.008 23.649,32.963 23.801,32.947 23.944,32.963 24.07,32.992 24.18,33.054 24.28,33.144 24.407,33.342 
		24.449,33.562 24.449,35.078 24.003,35.078 24.003,33.621 23.978,33.523 23.919,33.433 23.818,33.371 23.701,33.357 23.575,33.371 
		23.481,33.433 23.415,33.523 23.397,33.63 23.397,35.078 22.944,35.078 22.944,33.621 22.927,33.523 22.86,33.433 22.768,33.371 
		22.642,33.357 22.523,33.371 22.423,33.433 22.364,33.523 	"/>
	<path d="M26.142,34.605l-0.151,0.092l-0.151,0.022l-0.135-0.022l-0.118-0.076L25.52,34.5l-0.025-0.129l0.018-0.137l0.074-0.113
		l0.109-0.076l0.135-0.023l0.151,0.023l0.16,0.083V34.605z M26.184,35.068h0.412V33.56l-0.018-0.146l-0.042-0.121l-0.059-0.105
		l-0.092-0.091l-0.236-0.122l-0.311-0.037l-0.177,0.008l-0.177,0.037l-0.185,0.068l-0.193,0.084l0.185,0.35l0.277-0.106l0.194-0.046
		l0.143,0.015L26.04,33.4l0.084,0.121l0.018,0.197l-0.177-0.053l-0.235-0.023l-0.126,0.008l-0.126,0.038l-0.118,0.06l-0.117,0.076
		l-0.101,0.106l-0.067,0.122l-0.042,0.136l-0.009,0.152l0.009,0.159l0.042,0.144l0.059,0.129l0.093,0.106l0.101,0.099l0.109,0.062
		l0.126,0.045l0.126,0.015l0.252-0.03l0.202-0.076L26.184,35.068z"/>
	<path fill="none" stroke="#FFFFFF" stroke-width="0.012" d="M26.142,34.605l-0.151,0.092l-0.151,0.022l-0.135-0.022l-0.118-0.076
		L25.52,34.5l-0.025-0.129l0.018-0.137l0.074-0.113l0.109-0.076l0.135-0.023l0.151,0.023l0.16,0.083V34.605z M26.184,35.068h0.412
		V33.56l-0.018-0.146l-0.042-0.121l-0.059-0.105l-0.092-0.091l-0.236-0.122l-0.311-0.037l-0.177,0.008l-0.177,0.037l-0.185,0.068
		l-0.193,0.084l0.185,0.35l0.277-0.106l0.194-0.046l0.143,0.015L26.04,33.4l0.084,0.121l0.018,0.197l-0.177-0.053l-0.235-0.023
		l-0.126,0.008l-0.126,0.038l-0.118,0.06l-0.117,0.076l-0.101,0.106l-0.067,0.122l-0.042,0.136l-0.009,0.152l0.009,0.159
		l0.042,0.144l0.059,0.129l0.093,0.106l0.101,0.099l0.109,0.062l0.126,0.045l0.126,0.015l0.252-0.03l0.202-0.076L26.184,35.068z"/>
	<polygon points="28.683,35.088 28.138,35.088 27.848,34.445 27.558,35.088 27.026,35.088 27.596,33.998 27.048,32.949 
		27.583,32.949 27.867,33.572 28.144,32.949 28.664,32.949 28.113,33.998 	"/>
	<polygon fill="none" stroke="#FFFFFF" stroke-width="0.012" points="28.683,35.088 28.138,35.088 27.848,34.445 27.558,35.088 
		27.026,35.088 27.596,33.998 27.048,32.949 27.583,32.949 27.867,33.572 28.144,32.949 28.664,32.949 28.113,33.998 	"/>
	<polygon points="27.185,7.755 27.185,9.915 26.781,9.915 25.856,8.545 25.856,9.915 25.444,9.915 25.444,8.831 25.444,7.755 
		25.814,7.755 26.781,9.159 26.781,7.755 	"/>
	<polygon fill="none" stroke="#FFFFFF" stroke-width="0.012" points="27.185,7.755 27.185,9.915 26.781,9.915 25.856,8.545 
		25.856,9.915 25.444,9.915 25.444,8.831 25.444,7.755 25.814,7.755 26.781,9.159 26.781,7.755 	"/>
	<path d="M24.968,8.803l-0.018,0.26L24.9,9.299l-0.076,0.185l-0.109,0.151l-0.143,0.134l-0.177,0.101L24.228,9.92L24.06,9.937
		L23.892,9.92l-0.178-0.059L23.546,9.76l-0.134-0.125l-0.101-0.144l-0.084-0.185l-0.06-0.235l-0.017-0.261l0.026-0.252l0.058-0.235
		l0.084-0.185l0.11-0.152l0.142-0.117l0.152-0.084l0.16-0.051l0.15-0.018l0.168,0.018l0.168,0.042l0.16,0.084l0.151,0.118
		l0.117,0.16l0.093,0.185l0.059,0.228L24.968,8.803z M24.556,8.685L24.53,8.533l-0.059-0.143l-0.067-0.109L24.32,8.213l-0.084-0.049
		l-0.101-0.025l-0.094-0.01l-0.101,0.01l-0.084,0.033l-0.075,0.041l-0.068,0.076l-0.066,0.109l-0.05,0.135l-0.026,0.151
		l-0.008,0.151l0.008,0.159l0.026,0.151l0.05,0.126l0.066,0.093L23.79,9.44l0.094,0.051l0.082,0.025l0.094,0.009l0.101-0.009
		l0.102-0.025l0.084-0.051l0.074-0.075l0.06-0.102l0.042-0.125l0.034-0.151l0.008-0.151L24.556,8.685z"/>
	<path fill="none" stroke="#FFFFFF" stroke-width="0.012" d="M24.968,8.803l-0.018,0.26L24.9,9.299l-0.076,0.185l-0.109,0.151
		l-0.143,0.134l-0.177,0.101L24.228,9.92L24.06,9.937L23.892,9.92l-0.178-0.059L23.546,9.76l-0.134-0.125l-0.101-0.144l-0.084-0.185
		l-0.06-0.235l-0.017-0.261l0.026-0.252l0.058-0.235l0.084-0.185l0.11-0.152l0.142-0.117l0.152-0.084l0.16-0.051l0.15-0.018
		l0.168,0.018l0.168,0.042l0.16,0.084l0.151,0.118l0.117,0.16l0.093,0.185l0.059,0.228L24.968,8.803z M24.556,8.685L24.53,8.533
		l-0.059-0.143l-0.067-0.109L24.32,8.213l-0.084-0.049l-0.101-0.025l-0.094-0.01l-0.101,0.01l-0.084,0.033l-0.075,0.041
		l-0.068,0.076l-0.066,0.109l-0.05,0.135l-0.026,0.151l-0.008,0.151l0.008,0.159l0.026,0.151l0.05,0.126l0.066,0.093L23.79,9.44
		l0.094,0.051l0.082,0.025l0.094,0.009l0.101-0.009l0.102-0.025l0.084-0.051l0.074-0.075l0.06-0.102l0.042-0.125l0.034-0.151
		l0.008-0.151L24.556,8.685z"/>
	<polygon points="29.172,7.748 29.172,8.11 28.135,8.11 28.135,8.603 28.761,8.603 28.761,8.953 28.135,8.953 28.135,9.574 
		29.166,9.574 29.166,9.938 27.784,9.938 27.784,8.836 27.784,7.748 	"/>
	<polygon fill="none" stroke="#FFFFFF" stroke-width="0.012" points="29.172,7.748 29.172,8.11 28.135,8.11 28.135,8.603 
		28.761,8.603 28.761,8.953 28.135,8.953 28.135,9.574 29.166,9.574 29.166,9.938 27.784,9.938 27.784,8.836 27.784,7.748 	"/>
	<polygon points="22.812,9.909 21.183,9.909 21.183,9.525 22.26,8.121 21.211,8.121 21.211,7.736 22.806,7.736 22.806,8.094 
		21.714,9.525 22.812,9.525 	"/>
	<polygon fill="none" stroke="#FFFFFF" stroke-width="0.012" points="22.812,9.909 21.183,9.909 21.183,9.525 22.26,8.121 
		21.211,8.121 21.211,7.736 22.806,7.736 22.806,8.094 21.714,9.525 22.812,9.525 	"/>
	<path fill="#FFFFFF" d="M17.871,35.223c0.978,0,1.77-0.793,1.77-1.77s-0.792-1.77-1.77-1.77c-0.977,0-1.769,0.793-1.769,1.77
		S16.895,35.223,17.871,35.223"/>
	<circle fill="none" stroke="#007DC5" stroke-width="0.069" cx="17.871" cy="33.453" r="1.77"/>
	<path fill="#007DC5" d="M19.72,31.678v4.646h-3.696v-4.646h0.724c0.204,0.375,0.663,0.436,1.113,0.436
		c0.453,0,0.913-0.055,1.114-0.436H19.72z"/>
	<polygon fill="#FFFFFF" points="17.883,33.662 17.594,32.914 18.148,32.914 	"/>
	<path fill="#FFFFFF" d="M18.524,33.934c-0.148,0.201-0.386,0.33-0.653,0.33c-0.27,0-0.505-0.117-0.653-0.32l-0.537,0.391
		c0.27,0.368,0.7,0.598,1.19,0.598c0.488,0,0.921-0.244,1.19-0.608L18.524,33.934z"/>
	<path fill="#FFFFFF" d="M17.767,35.848h-0.104v-0.606h0.239c0.113,0,0.18,0.078,0.18,0.181c0,0.09-0.054,0.186-0.179,0.186h-0.136
		V35.848z M17.87,35.508c0.095,0,0.114-0.045,0.114-0.082c0-0.039-0.016-0.086-0.114-0.086h-0.105v0.168H17.87z"/>
	<path fill="none" stroke="#007DC5" stroke-width="0.013" d="M17.767,35.848h-0.104v-0.606h0.239c0.113,0,0.18,0.078,0.18,0.181
		c0,0.09-0.054,0.186-0.179,0.186h-0.136V35.848z M17.87,35.508c0.095,0,0.114-0.045,0.114-0.082c0-0.039-0.016-0.086-0.114-0.086
		h-0.105v0.168H17.87z"/>
	<rect fill="none" width="50.314" height="44"/>
</g>
<g id="Layer_10">
</g>
<g id="Layer_9">
</g>
<g id="Layer_8">
</g>
<g id="Layer_7">
</g>
<g id="Layer_6">
</g>
<g id="Layer_5">
</g>
<g id="Layer_4">
</g>
<g id="Layer_3">
</g>
<g id="Layer_2">
</g>
</svg>
