<?xml version="1.0" encoding="utf-8"?>
<!-- Generator: Adobe Illustrator 16.0.0, SVG Export Plug-In . SVG Version: 6.00 Build 0)  -->
<!DOCTYPE svg PUBLIC "-//W3C//DTD SVG 1.1//EN" "http://www.w3.org/Graphics/SVG/1.1/DTD/svg11.dtd">
<svg version="1.1" xmlns="http://www.w3.org/2000/svg" xmlns:xlink="http://www.w3.org/1999/xlink" x="0px" y="0px"
	 width="50.315px" height="44px" viewBox="0 0 50.315 44" enable-background="new 0 0 50.315 44" xml:space="preserve">
<g id="Layer_1">
</g>
<g id="Layer_14">
</g>
<g id="Layer_13">
</g>
<g id="Layer_12">
	<rect x="12.015" y="4.94" fill="#FFFFFF" width="26.231" height="33.741"/>
	<rect x="12.015" y="4.941" fill="none" stroke="#000000" stroke-width="0.11" width="26.232" height="33.74"/>
	<path fill="none" stroke="#000000" stroke-width="0.55" d="M35.05,37.793c1.178,0,2.131-0.795,2.131-1.775V7.604
		c0-0.98-0.953-1.775-2.131-1.775H15.211c-1.177,0-2.131,0.795-2.131,1.775v28.414c0,0.98,0.954,1.775,2.131,1.775H35.05z"/>
	<path fill="#C7C8CA" d="M32.757,30.244c0.973,0,1.761-0.788,1.761-1.762V13.23c0-0.971-0.788-1.76-1.761-1.76H17.505
		c-0.973,0-1.761,0.789-1.761,1.76v15.252c0,0.974,0.788,1.762,1.761,1.762H32.757z"/>
	<path fill="#FFFFFF" d="M22.627,28.305h-2.512V13.818h5.735c2.727,0,4.296,1.865,4.296,4.328c0,2.127-1.304,4.42-4.282,4.42h-3.237
		V28.305z M25.1,20.194c2.264,0,2.723-1.101,2.723-1.974c0-0.935-0.366-2.039-2.723-2.039h-2.503v4.013H25.1z"/>
	<polygon fill="#C7C8CA" points="32.53,32.199 33.004,32.199 33.004,33.23 33.025,33.196 33.057,33.162 33.109,33.094 
		33.184,33.026 33.256,32.971 33.352,32.924 33.436,32.902 33.53,32.891 33.625,32.902 33.72,32.913 33.825,32.947 33.919,33.004 
		34.025,33.094 34.109,33.207 34.162,33.321 34.193,33.445 34.204,33.57 34.214,33.74 34.214,34.975 33.74,34.975 33.74,33.842 
		33.74,33.729 33.72,33.627 33.698,33.536 33.646,33.457 33.593,33.4 33.53,33.366 33.456,33.344 33.383,33.332 33.298,33.355 
		33.214,33.389 33.142,33.445 33.077,33.514 33.035,33.604 33.015,33.695 33.004,33.785 33.004,33.898 33.004,34.975 32.53,34.975 	
		"/>
	<polygon fill="none" stroke="#FFFFFF" stroke-width="0.012" points="32.53,32.199 33.004,32.199 33.004,33.23 33.025,33.196 
		33.057,33.162 33.109,33.094 33.184,33.026 33.256,32.971 33.352,32.924 33.436,32.902 33.53,32.891 33.625,32.902 33.72,32.913 
		33.825,32.947 33.919,33.004 34.025,33.094 34.109,33.207 34.162,33.321 34.193,33.445 34.204,33.57 34.214,33.74 34.214,34.975 
		33.74,34.975 33.74,33.842 33.74,33.729 33.72,33.627 33.698,33.536 33.646,33.457 33.593,33.4 33.53,33.366 33.456,33.344 
		33.383,33.332 33.298,33.355 33.214,33.389 33.142,33.445 33.077,33.514 33.035,33.604 33.015,33.695 33.004,33.785 33.004,33.898 
		33.004,34.975 32.53,34.975 	"/>
	<path fill="#C7C8CA" d="M30.479,34.97l0.017-0.235l0.05-0.212l0.084-0.19l0.118-0.158l0.126-0.146l0.144-0.112l0.143-0.1
		c0,0,0.434-0.251,0.404-0.447c-0.032-0.217-0.314-0.248-0.431-0.231s-0.343,0.218-0.343,0.218l-0.295-0.199l0.118-0.129
		l0.134-0.098l0.16-0.069c0,0,0.209-0.071,0.378-0.067c0.169,0.002,0.328,0.082,0.328,0.082s0.286,0.078,0.352,0.414
		c0.039,0.201-0.111,0.437-0.202,0.512c-0.184,0.152-0.439,0.299-0.674,0.535c-0.097,0.099-0.146,0.276-0.146,0.276l1.014,0.003
		v0.354H30.479z"/>
	<path fill="none" stroke="#FFFFFF" stroke-width="0.012" d="M30.479,34.97l0.017-0.235l0.05-0.212l0.084-0.19l0.118-0.158
		l0.126-0.146l0.144-0.112l0.143-0.1c0,0,0.434-0.251,0.404-0.447c-0.032-0.217-0.314-0.248-0.431-0.231s-0.343,0.218-0.343,0.218
		l-0.295-0.199l0.118-0.129l0.134-0.098l0.16-0.069c0,0,0.209-0.071,0.378-0.067c0.169,0.002,0.328,0.082,0.328,0.082
		s0.286,0.078,0.352,0.414c0.039,0.201-0.111,0.437-0.202,0.512c-0.184,0.152-0.439,0.299-0.674,0.535
		c-0.097,0.099-0.146,0.276-0.146,0.276l1.014,0.003v0.354H30.479z"/>
	<polygon fill="#C7C8CA" points="22.292,33.535 22.287,33.877 22.287,34.975 21.848,34.984 21.848,32.875 22.292,32.875 
		22.292,32.981 22.502,32.883 22.738,32.853 22.864,32.868 22.981,32.913 23.1,32.981 23.217,33.08 23.334,32.981 23.47,32.913 
		23.604,32.868 23.754,32.853 23.897,32.868 24.023,32.898 24.133,32.959 24.233,33.049 24.36,33.247 24.402,33.467 24.402,34.984 
		23.956,34.984 23.956,33.527 23.932,33.43 23.872,33.338 23.771,33.277 23.654,33.262 23.528,33.277 23.436,33.338 23.368,33.43 
		23.352,33.535 23.352,34.984 22.897,34.984 22.897,33.527 22.88,33.43 22.813,33.338 22.722,33.277 22.596,33.262 22.478,33.277 
		22.376,33.338 22.317,33.43 	"/>
	<polygon fill="none" stroke="#FFFFFF" stroke-width="0.012" points="22.292,33.535 22.287,33.877 22.287,34.975 21.848,34.984 
		21.848,32.875 22.292,32.875 22.292,32.981 22.502,32.883 22.738,32.853 22.864,32.868 22.981,32.913 23.1,32.981 23.217,33.08 
		23.334,32.981 23.47,32.913 23.604,32.868 23.754,32.853 23.897,32.868 24.023,32.898 24.133,32.959 24.233,33.049 24.36,33.247 
		24.402,33.467 24.402,34.984 23.956,34.984 23.956,33.527 23.932,33.43 23.872,33.338 23.771,33.277 23.654,33.262 23.528,33.277 
		23.436,33.338 23.368,33.43 23.352,33.535 23.352,34.984 22.897,34.984 22.897,33.527 22.88,33.43 22.813,33.338 22.722,33.277 
		22.596,33.262 22.478,33.277 22.376,33.338 22.317,33.43 	"/>
	<path fill="#C7C8CA" d="M26.095,34.512l-0.151,0.09l-0.151,0.023l-0.135-0.023l-0.117-0.074l-0.067-0.122l-0.025-0.129l0.018-0.136
		l0.075-0.114l0.108-0.076l0.135-0.022l0.151,0.022l0.16,0.083V34.512z M26.137,34.975h0.412v-1.51l-0.018-0.145l-0.042-0.121
		l-0.059-0.105l-0.092-0.092l-0.236-0.121l-0.311-0.037l-0.177,0.006l-0.177,0.039l-0.185,0.067l-0.193,0.084l0.186,0.349
		l0.276-0.105l0.194-0.046l0.143,0.015l0.134,0.053l0.085,0.123l0.017,0.196l-0.177-0.053l-0.235-0.022l-0.126,0.008l-0.126,0.037
		l-0.118,0.061l-0.117,0.076l-0.101,0.105l-0.067,0.122l-0.042,0.136l-0.009,0.152l0.009,0.159l0.042,0.144l0.059,0.129l0.093,0.106
		l0.101,0.099l0.109,0.062l0.126,0.045l0.126,0.015l0.252-0.029l0.202-0.076L26.137,34.975z"/>
	<path fill="none" stroke="#FFFFFF" stroke-width="0.012" d="M26.095,34.512l-0.151,0.09l-0.151,0.023l-0.135-0.023l-0.117-0.074
		l-0.067-0.122l-0.025-0.129l0.018-0.136l0.075-0.114l0.108-0.076l0.135-0.022l0.151,0.022l0.16,0.083V34.512z M26.137,34.975h0.412
		v-1.51l-0.018-0.145l-0.042-0.121l-0.059-0.105l-0.092-0.092l-0.236-0.121l-0.311-0.037l-0.177,0.006l-0.177,0.039l-0.185,0.067
		l-0.193,0.084l0.186,0.349l0.276-0.105l0.194-0.046l0.143,0.015l0.134,0.053l0.085,0.123l0.017,0.196l-0.177-0.053l-0.235-0.022
		l-0.126,0.008l-0.126,0.037l-0.118,0.061l-0.117,0.076l-0.101,0.105l-0.067,0.122l-0.042,0.136l-0.009,0.152l0.009,0.159
		l0.042,0.144l0.059,0.129l0.093,0.106l0.101,0.099l0.109,0.062l0.126,0.045l0.126,0.015l0.252-0.029l0.202-0.076L26.137,34.975z"/>
	<polygon fill="#C7C8CA" points="28.637,34.993 28.091,34.993 27.801,34.35 27.512,34.993 26.979,34.993 27.549,33.904 
		27.001,32.854 27.536,32.854 27.82,33.477 28.098,32.854 28.617,32.854 28.066,33.904 	"/>
	<polygon fill="none" stroke="#FFFFFF" stroke-width="0.012" points="28.637,34.993 28.091,34.993 27.801,34.35 27.512,34.993 
		26.979,34.993 27.549,33.904 27.001,32.854 27.536,32.854 27.82,33.477 28.098,32.854 28.617,32.854 28.066,33.904 	"/>
	<polygon points="27.138,7.66 27.138,9.82 26.734,9.82 25.81,8.451 25.81,9.82 25.397,9.82 25.397,8.736 25.397,7.66 25.768,7.66 
		26.734,9.064 26.734,7.66 	"/>
	<polygon fill="none" stroke="#FFFFFF" stroke-width="0.012" points="27.138,7.66 27.138,9.82 26.734,9.82 25.81,8.451 25.81,9.82 
		25.397,9.82 25.397,8.736 25.397,7.66 25.768,7.66 26.734,9.064 26.734,7.66 	"/>
	<path d="M24.921,8.708l-0.018,0.26l-0.05,0.236l-0.076,0.185L24.669,9.54l-0.144,0.134l-0.177,0.102l-0.168,0.051l-0.168,0.016
		l-0.168-0.016l-0.177-0.059L23.5,9.666L23.365,9.54l-0.101-0.144l-0.084-0.185l-0.059-0.235l-0.018-0.261l0.026-0.252l0.058-0.235
		l0.084-0.185l0.11-0.151l0.142-0.117l0.152-0.084l0.16-0.052l0.15-0.017l0.168,0.017l0.168,0.042l0.16,0.084l0.151,0.118
		l0.118,0.16l0.092,0.185l0.059,0.228L24.921,8.708z M24.509,8.59l-0.025-0.15l-0.059-0.144l-0.067-0.108l-0.084-0.068l-0.084-0.051
		l-0.101-0.024l-0.093-0.009l-0.102,0.009l-0.084,0.033l-0.075,0.042l-0.067,0.076l-0.067,0.108l-0.05,0.136l-0.026,0.15
		l-0.008,0.15l0.008,0.16l0.026,0.151l0.05,0.126l0.067,0.094l0.075,0.074l0.094,0.051l0.083,0.025l0.093,0.009l0.101-0.009
		l0.102-0.025l0.084-0.051l0.075-0.074l0.059-0.102l0.042-0.126l0.034-0.151l0.008-0.152L24.509,8.59z"/>
	<path fill="none" stroke="#FFFFFF" stroke-width="0.012" d="M24.921,8.708l-0.018,0.26l-0.05,0.236l-0.076,0.185L24.669,9.54
		l-0.144,0.134l-0.177,0.102l-0.168,0.051l-0.168,0.016l-0.168-0.016l-0.177-0.059L23.5,9.666L23.365,9.54l-0.101-0.144
		l-0.084-0.185l-0.059-0.235l-0.018-0.261l0.026-0.252l0.058-0.235l0.084-0.185l0.11-0.151l0.142-0.117l0.152-0.084l0.16-0.052
		l0.15-0.017l0.168,0.017l0.168,0.042l0.16,0.084l0.151,0.118l0.118,0.16l0.092,0.185l0.059,0.228L24.921,8.708z M24.509,8.59
		l-0.025-0.15l-0.059-0.144l-0.067-0.108l-0.084-0.068l-0.084-0.051l-0.101-0.024l-0.093-0.009l-0.102,0.009l-0.084,0.033
		l-0.075,0.042l-0.067,0.076l-0.067,0.108l-0.05,0.136l-0.026,0.15l-0.008,0.15l0.008,0.16l0.026,0.151l0.05,0.126l0.067,0.094
		l0.075,0.074l0.094,0.051l0.083,0.025l0.093,0.009l0.101-0.009l0.102-0.025l0.084-0.051l0.075-0.074l0.059-0.102l0.042-0.126
		l0.034-0.151l0.008-0.152L24.509,8.59z"/>
	<polygon points="29.125,7.652 29.125,8.016 28.089,8.016 28.089,8.508 28.715,8.508 28.715,8.859 28.089,8.859 28.089,9.48 
		29.119,9.48 29.119,9.843 27.737,9.843 27.737,8.742 27.737,7.652 	"/>
	<polygon fill="none" stroke="#FFFFFF" stroke-width="0.012" points="29.125,7.652 29.125,8.016 28.089,8.016 28.089,8.508 
		28.715,8.508 28.715,8.859 28.089,8.859 28.089,9.48 29.119,9.48 29.119,9.843 27.737,9.843 27.737,8.742 27.737,7.652 	"/>
	<polygon points="22.765,9.814 21.136,9.814 21.136,9.431 22.213,8.026 21.165,8.026 21.165,7.643 22.759,7.643 22.759,8 
		21.668,9.431 22.765,9.431 	"/>
	<polygon fill="none" stroke="#FFFFFF" stroke-width="0.012" points="22.765,9.814 21.136,9.814 21.136,9.431 22.213,8.026 
		21.165,8.026 21.165,7.643 22.759,7.643 22.759,8 21.668,9.431 22.765,9.431 	"/>
	<circle fill="none" stroke="#C7C8CA" stroke-width="0.069" cx="17.824" cy="33.359" r="1.769"/>
	<path fill="#C7C8CA" d="M19.674,31.582v4.646h-3.697v-4.646H16.7c0.204,0.377,0.663,0.437,1.113,0.437
		c0.453,0,0.913-0.055,1.115-0.437H19.674z"/>
	<polygon fill="#FFFFFF" points="17.836,33.566 17.547,32.818 18.103,32.818 	"/>
	<path fill="#FFFFFF" d="M18.478,33.84c-0.148,0.2-0.385,0.33-0.653,0.33c-0.27,0-0.505-0.118-0.653-0.321l-0.536,0.392
		c0.269,0.367,0.699,0.597,1.189,0.597c0.488,0,0.921-0.244,1.19-0.608L18.478,33.84z"/>
	<path fill="#FFFFFF" d="M17.721,35.753h-0.105v-0.606h0.239c0.113,0,0.18,0.078,0.18,0.182c0,0.089-0.054,0.185-0.179,0.185h-0.135
		V35.753z M17.823,35.414c0.095,0,0.114-0.047,0.114-0.084s-0.016-0.084-0.114-0.084h-0.105v0.168H17.823z"/>
	<path fill="none" stroke="#C7C8CA" stroke-width="0.013" d="M17.721,35.753h-0.105v-0.606h0.239c0.113,0,0.18,0.078,0.18,0.182
		c0,0.089-0.054,0.185-0.179,0.185h-0.135V35.753z M17.823,35.414c0.095,0,0.114-0.047,0.114-0.084s-0.016-0.084-0.114-0.084h-0.105
		v0.168H17.823z"/>
	<line fill="none" stroke="#000000" stroke-width="0.55" x1="13.076" y1="35.945" x2="35.246" y2="5.847"/>
	<line fill="none" stroke="#000000" stroke-width="0.55" x1="13.699" y1="37.284" x2="36.524" y2="6.328"/>
	<line fill="none" stroke="#000000" stroke-width="0.55" x1="14.983" y1="37.779" x2="37.185" y2="7.648"/>
	<rect fill="none" width="50.315" height="44"/>
</g>
<g id="Layer_11">
</g>
<g id="Layer_10">
</g>
<g id="Layer_9">
</g>
<g id="Layer_8">
</g>
<g id="Layer_7">
</g>
<g id="Layer_6">
</g>
<g id="Layer_5">
</g>
<g id="Layer_4">
</g>
<g id="Layer_3">
</g>
<g id="Layer_2">
</g>
</svg>
