<?xml version="1.0" encoding="utf-8"?>
<!-- Generator: Adobe Illustrator 16.0.0, SVG Export Plug-In . SVG Version: 6.00 Build 0)  -->
<!DOCTYPE svg PUBLIC "-//W3C//DTD SVG 1.1//EN" "http://www.w3.org/Graphics/SVG/1.1/DTD/svg11.dtd">
<svg version="1.1" xmlns="http://www.w3.org/2000/svg" xmlns:xlink="http://www.w3.org/1999/xlink" x="0px" y="0px"
	 width="50.315px" height="43.998px" viewBox="0 0 50.315 43.998" enable-background="new 0 0 50.315 43.998" xml:space="preserve">
<g id="Layer_1">
</g>
<g id="Layer_14">
</g>
<g id="Layer_13">
	<rect x="15.239" y="5.313" fill="#007DC5" width="21.86" height="33.741"/>
	<path fill="none" stroke="#FFFFFF" stroke-width="0.746" d="M34.434,38.164c0.981,0,1.776-0.795,1.776-1.775V7.976
		c0-0.981-0.795-1.776-1.776-1.776H17.902c-0.981,0-1.776,0.795-1.776,1.776v28.413c0,0.98,0.795,1.775,1.776,1.775H34.434z"/>
	<path fill="#FFFFFF" d="M32.417,23.908c0.797,0,1.444-0.646,1.444-1.443v-12.5c0-0.797-0.647-1.443-1.444-1.443H19.918
		c-0.798,0-1.444,0.646-1.444,1.443v12.5c0,0.797,0.646,1.443,1.444,1.443H32.417z"/>
	<path d="M19.233,12.876h0.577h0.633h0.697h0.751l0.395,0.037l0.385,0.119l0.348,0.183l0.312,0.258l0.248,0.301l0.192,0.35
		l0.11,0.385l0.046,0.395l-0.046,0.394l-0.11,0.386l-0.192,0.349l-0.248,0.312l-0.312,0.256l-0.348,0.185l-0.385,0.119l-0.395,0.036
		h-1.558v2.494h-1.1V12.876z M20.333,13.967v1.87h1.558l0.184-0.009l0.174-0.055l0.303-0.211l0.21-0.303l0.046-0.175l0.019-0.183
		l-0.019-0.184l-0.046-0.174l-0.21-0.303l-0.303-0.202l-0.174-0.055l-0.184-0.019H20.333z"/>
	<path fill="none" stroke="#FFFFFF" stroke-width="0.033" d="M19.233,12.876h0.577h0.633h0.697h0.751l0.395,0.037l0.385,0.119
		l0.348,0.183l0.312,0.258l0.248,0.301l0.192,0.35l0.11,0.385l0.046,0.395l-0.046,0.394l-0.11,0.386l-0.192,0.349l-0.248,0.312
		l-0.312,0.256l-0.348,0.185l-0.385,0.119l-0.395,0.036h-1.558v2.494h-1.1V12.876z M20.333,13.967v1.87h1.558l0.184-0.009
		l0.174-0.055l0.303-0.211l0.21-0.303l0.046-0.175l0.019-0.183l-0.019-0.184l-0.046-0.174l-0.21-0.303l-0.303-0.202l-0.174-0.055
		l-0.184-0.019H20.333z"/>
	<path d="M29.54,14.044h1.754l0.326,0.07l0.265,0.188l0.184,0.307l0.061,0.328l-0.061,0.354l-0.184,0.282l-0.265,0.188l-0.326,0.096
		H29.54V14.044z M28.582,19.506h0.958v-2.59h1.55l1.06,2.59h0.999l-1.101-2.755l0.123-0.069l0.142-0.119l0.225-0.211l0.244-0.354
		l0.204-0.471l0.082-0.541l-0.041-0.495l-0.163-0.472l-0.286-0.446l-0.367-0.353l-0.448-0.189l-0.49-0.094h-2.691V19.506z"/>
	<path fill="none" stroke="#FFFFFF" stroke-width="0.033" d="M29.54,14.044h1.754l0.326,0.07l0.265,0.188l0.184,0.307l0.061,0.328
		l-0.061,0.354l-0.184,0.282l-0.265,0.188l-0.326,0.096H29.54V14.044z M28.582,19.506h0.958v-2.59h1.55l1.06,2.59h0.999
		l-1.101-2.755l0.123-0.069l0.142-0.119l0.225-0.211l0.244-0.354l0.204-0.471l0.082-0.541l-0.041-0.495l-0.163-0.472l-0.286-0.446
		l-0.367-0.353l-0.448-0.189l-0.49-0.094h-2.691V19.506z"/>
	<polygon points="25.615,15.144 26.259,15.144 26.259,16.277 27.387,16.277 27.387,16.922 26.259,16.922 26.259,18.055 
		25.615,18.055 25.615,16.922 24.487,16.922 24.487,16.277 25.615,16.277 	"/>
	<polygon fill="none" stroke="#000000" stroke-width="0.127" points="25.615,15.144 26.259,15.144 26.259,16.277 27.387,16.277 
		27.387,16.922 26.259,16.922 26.259,18.055 25.615,18.055 25.615,16.922 24.487,16.922 24.487,16.277 25.615,16.277 	"/>
	<path d="M33.047,11.025c0-0.828-0.868-1.499-1.938-1.499h-9.891c-1.07,0-1.938,0.671-1.938,1.499H33.047z"/>
	<path d="M33.047,21.482c0,0.828-0.868,1.499-1.938,1.499h-9.891c-1.07,0-1.938-0.671-1.938-1.499H33.047z"/>
	<rect fill="none" width="50.315" height="43.998"/>
</g>
<g id="Layer_12">
</g>
<g id="Layer_11">
</g>
<g id="Layer_10">
</g>
<g id="Layer_9">
</g>
<g id="Layer_8">
</g>
<g id="Layer_7">
</g>
<g id="Layer_6">
</g>
<g id="Layer_5">
</g>
<g id="Layer_4">
</g>
<g id="Layer_3">
</g>
<g id="Layer_2">
</g>
</svg>
