<?xml version="1.0" encoding="utf-8"?>
<!-- Generator: Adobe Illustrator 16.0.0, SVG Export Plug-In . SVG Version: 6.00 Build 0)  -->
<!DOCTYPE svg PUBLIC "-//W3C//DTD SVG 1.1//EN" "http://www.w3.org/Graphics/SVG/1.1/DTD/svg11.dtd">
<svg version="1.1" xmlns="http://www.w3.org/2000/svg" xmlns:xlink="http://www.w3.org/1999/xlink" x="0px" y="0px"
	 width="50.315px" height="43.998px" viewBox="0 0 50.315 43.998" enable-background="new 0 0 50.315 43.998" xml:space="preserve">
<g id="Layer_1">
</g>
<g id="Layer_14">
	<rect x="14.295" y="5.32" fill="#007DC5" width="21.86" height="33.741"/>
	<path fill="none" stroke="#FFFFFF" stroke-width="0.746" d="M33.491,38.173c0.98,0,1.775-0.795,1.775-1.776V7.984
		c0-0.981-0.795-1.776-1.775-1.776H16.958c-0.98,0-1.775,0.795-1.775,1.776v28.412c0,0.981,0.795,1.776,1.775,1.776H33.491z"/>
	<path fill="#FFFFFF" d="M22.764,24.457h-2.669V9.064h6.094c2.897,0,4.564,1.982,4.564,4.599c0,2.259-1.385,4.696-4.551,4.696
		h-3.438V24.457z M25.391,15.84c2.405,0,2.894-1.17,2.894-2.097c0-0.993-0.39-2.168-2.894-2.168h-2.659v4.265H25.391z"/>
	<path fill="#FFFFFF" d="M17.957,30.771c-0.013-0.093-0.043-0.174-0.093-0.248c-0.072-0.099-0.185-0.149-0.338-0.149
		c-0.217,0-0.365,0.107-0.444,0.323c-0.042,0.114-0.063,0.265-0.063,0.454c0,0.18,0.021,0.325,0.063,0.434
		c0.077,0.205,0.221,0.308,0.434,0.308c0.151,0,0.259-0.04,0.321-0.122c0.063-0.081,0.102-0.186,0.115-0.314h0.656
		c-0.015,0.194-0.086,0.379-0.211,0.553c-0.203,0.283-0.502,0.423-0.897,0.423s-0.687-0.117-0.874-0.353
		c-0.186-0.234-0.28-0.537-0.28-0.912c0-0.422,0.103-0.75,0.31-0.984s0.49-0.352,0.854-0.352c0.309,0,0.561,0.068,0.758,0.207
		c0.196,0.139,0.313,0.383,0.35,0.733H17.957z"/>
	<path fill="#FFFFFF" d="M20.261,30.852c0.119-0.015,0.205-0.033,0.257-0.056c0.092-0.04,0.138-0.101,0.138-0.183
		c0-0.102-0.035-0.17-0.105-0.209c-0.071-0.039-0.176-0.058-0.313-0.058c-0.154,0-0.263,0.037-0.326,0.112
		c-0.047,0.056-0.076,0.131-0.093,0.226h-0.62c0.014-0.215,0.074-0.392,0.182-0.53c0.171-0.217,0.464-0.324,0.879-0.324
		c0.271,0,0.511,0.053,0.721,0.16c0.21,0.106,0.314,0.309,0.314,0.604v1.128c0,0.078,0.002,0.173,0.004,0.284
		c0.006,0.084,0.018,0.142,0.039,0.171c0.021,0.03,0.053,0.055,0.095,0.075v0.095h-0.699c-0.021-0.05-0.032-0.097-0.041-0.14
		c-0.007-0.044-0.013-0.095-0.019-0.149c-0.088,0.096-0.191,0.178-0.307,0.246c-0.14,0.079-0.298,0.119-0.473,0.119
		c-0.225,0-0.409-0.063-0.555-0.189c-0.146-0.127-0.219-0.308-0.219-0.541c0-0.303,0.117-0.521,0.352-0.656
		c0.129-0.074,0.318-0.127,0.568-0.158L20.261,30.852z M20.653,31.152c-0.041,0.025-0.083,0.045-0.125,0.062
		c-0.042,0.016-0.099,0.03-0.172,0.044l-0.146,0.027c-0.137,0.023-0.235,0.053-0.295,0.088c-0.102,0.059-0.152,0.15-0.152,0.272
		c0,0.11,0.031,0.189,0.093,0.238s0.138,0.073,0.226,0.073c0.141,0,0.27-0.04,0.389-0.121c0.117-0.082,0.179-0.23,0.184-0.445
		V31.152z"/>
	<path fill="#FFFFFF" d="M23.423,29.83c0.012,0,0.021,0,0.029,0c0.01,0.002,0.027,0.002,0.057,0.005v0.657
		c-0.041-0.004-0.077-0.006-0.109-0.008c-0.031-0.002-0.057-0.002-0.076-0.002c-0.259,0-0.433,0.084-0.521,0.252
		c-0.049,0.094-0.074,0.24-0.074,0.438v1.176h-0.646v-2.459h0.612v0.428c0.101-0.164,0.187-0.275,0.261-0.336
		C23.073,29.88,23.229,29.83,23.423,29.83"/>
	<path fill="#FFFFFF" d="M25.449,29.834c0.289,0,0.534,0.105,0.734,0.318s0.301,0.523,0.301,0.934c0,0.434-0.099,0.764-0.294,0.99
		c-0.196,0.228-0.448,0.341-0.757,0.341c-0.197,0-0.36-0.05-0.49-0.146c-0.071-0.055-0.142-0.134-0.209-0.238v1.281h-0.636v-3.426
		h0.615v0.363c0.069-0.107,0.144-0.191,0.223-0.253C25.081,29.889,25.251,29.834,25.449,29.834 M25.821,31.117
		c0-0.189-0.044-0.356-0.131-0.502c-0.087-0.146-0.229-0.219-0.426-0.219c-0.235,0-0.396,0.11-0.485,0.332
		c-0.045,0.116-0.067,0.266-0.067,0.445c0,0.286,0.076,0.486,0.229,0.604c0.091,0.066,0.198,0.101,0.323,0.101
		c0.182,0,0.32-0.069,0.414-0.207C25.773,31.531,25.821,31.348,25.821,31.117"/>
	<path fill="#FFFFFF" d="M29.531,31.121c0,0.36-0.104,0.67-0.312,0.926s-0.522,0.384-0.945,0.384c-0.422,0-0.737-0.128-0.945-0.384
		c-0.207-0.256-0.311-0.565-0.311-0.926c0-0.354,0.104-0.662,0.311-0.922c0.208-0.26,0.523-0.39,0.945-0.39
		c0.423,0,0.738,0.13,0.945,0.39S29.531,30.767,29.531,31.121 M28.272,31.892c0.188,0,0.332-0.067,0.433-0.2
		c0.101-0.134,0.151-0.324,0.151-0.57s-0.051-0.436-0.151-0.568s-0.245-0.199-0.433-0.199c-0.188,0-0.334,0.066-0.435,0.199
		c-0.103,0.133-0.153,0.322-0.153,0.568s0.051,0.437,0.153,0.57C27.938,31.824,28.084,31.892,28.272,31.892"/>
	<path fill="#FFFFFF" d="M32.584,31.121c0,0.36-0.104,0.67-0.312,0.926s-0.522,0.384-0.945,0.384c-0.422,0-0.737-0.128-0.945-0.384
		c-0.207-0.256-0.311-0.565-0.311-0.926c0-0.354,0.104-0.662,0.311-0.922c0.208-0.26,0.523-0.39,0.945-0.39
		c0.423,0,0.738,0.13,0.945,0.39S32.584,30.767,32.584,31.121 M31.325,31.892c0.188,0,0.332-0.067,0.433-0.2
		c0.101-0.134,0.151-0.324,0.151-0.57s-0.051-0.436-0.151-0.568s-0.245-0.199-0.433-0.199s-0.333,0.066-0.434,0.199
		c-0.103,0.133-0.153,0.322-0.153,0.568s0.051,0.437,0.153,0.57C30.992,31.824,31.138,31.892,31.325,31.892"/>
	<rect x="33.289" y="29.022" fill="#FFFFFF" width="0.644" height="3.325"/>
	<rect fill="none" width="50.315" height="43.998"/>
</g>
<g id="Layer_13">
</g>
<g id="Layer_12">
</g>
<g id="Layer_11">
</g>
<g id="Layer_10">
</g>
<g id="Layer_9">
</g>
<g id="Layer_8">
</g>
<g id="Layer_7">
</g>
<g id="Layer_6">
</g>
<g id="Layer_5">
</g>
<g id="Layer_4">
</g>
<g id="Layer_3">
</g>
<g id="Layer_2">
</g>
</svg>
