<?xml version="1.0" encoding="utf-8"?>
<!-- Generator: Adobe Illustrator 16.0.0, SVG Export Plug-In . SVG Version: 6.00 Build 0)  -->
<!DOCTYPE svg PUBLIC "-//W3C//DTD SVG 1.1//EN" "http://www.w3.org/Graphics/SVG/1.1/DTD/svg11.dtd">
<svg version="1.1" xmlns="http://www.w3.org/2000/svg" xmlns:xlink="http://www.w3.org/1999/xlink" x="0px" y="0px"
	 width="50.314px" height="44px" viewBox="0 0 50.314 44" enable-background="new 0 0 50.314 44" xml:space="preserve">
<g id="Layer_1">
</g>
<g id="Layer_14">
</g>
<g id="Layer_13">
</g>
<g id="Layer_12">
</g>
<g id="Layer_11">
</g>
<g id="Layer_10">
</g>
<g id="Layer_9">
</g>
<g id="Layer_8">
</g>
<g id="Layer_7">
</g>
<g id="Layer_6">
</g>
<g id="Layer_5">
</g>
<g id="Layer_4">
</g>
<g id="Layer_3">
	<path fill="#ED1C24" d="M25.048,39.846c9.811,0,17.765-7.954,17.765-17.765S34.858,4.316,25.048,4.316
		c-9.812,0-17.766,7.954-17.766,17.765S15.236,39.846,25.048,39.846"/>
	<path fill="#007DC5" d="M25.038,34.833c-7.035,0-12.758-5.724-12.758-12.758c0-7.035,5.723-12.758,12.758-12.758
		s12.758,5.723,12.758,12.758C37.796,29.11,32.073,34.833,25.038,34.833"/>
	<path fill="#FFFFFF" d="M25.038,9.702c3.305,0,6.412,1.287,8.749,3.624s3.624,5.444,3.624,8.749s-1.287,6.412-3.624,8.75
		c-2.337,2.337-5.444,3.624-8.749,3.624s-6.412-1.287-8.749-3.624c-2.337-2.338-3.624-5.444-3.624-8.75s1.287-6.412,3.624-8.749
		S21.733,9.702,25.038,9.702 M25.038,8.932c-7.258,0-13.144,5.884-13.144,13.143c0,7.259,5.886,13.143,13.144,13.143
		s13.143-5.884,13.143-13.143C38.181,14.816,32.296,8.932,25.038,8.932"/>
	<line fill="#007DC5" x1="32.94" y1="12.186" x2="15.138" y2="29.989"/>
	<line fill="none" stroke="#FFFFFF" stroke-width="0.77" stroke-linejoin="bevel" x1="32.94" y1="12.186" x2="15.138" y2="29.989"/>
	<line fill="#007DC5" x1="35.145" y1="14.15" x2="17.32" y2="31.973"/>
	<line fill="none" stroke="#FFFFFF" stroke-width="0.77" stroke-linejoin="bevel" x1="35.145" y1="14.15" x2="17.32" y2="31.973"/>
	
		<rect x="9.616" y="20.902" transform="matrix(0.7071 0.7071 -0.7071 0.7071 22.9342 -11.3817)" fill="#ED1C24" width="31.18" height="2.183"/>
	<line fill="#007DC5" x1="14.996" y1="13.856" x2="33.202" y2="32.062"/>
	
		<line fill="none" stroke="#FFFFFF" stroke-width="0.77" stroke-linejoin="bevel" x1="14.996" y1="13.856" x2="33.202" y2="32.062"/>
	<line fill="#007DC5" x1="17.06" y1="11.752" x2="35.186" y2="29.878"/>
	<line fill="none" stroke="#FFFFFF" stroke-width="0.77" stroke-linejoin="bevel" x1="17.06" y1="11.752" x2="35.186" y2="29.878"/>
	<path fill="#FFFFFF" d="M25.048,5.439c4.444,0,8.624,1.731,11.767,4.874c3.144,3.143,4.875,7.322,4.875,11.767
		c0,4.444-1.731,8.625-4.875,11.768c-3.143,3.144-7.322,4.874-11.767,4.874c-4.445,0-8.624-1.73-11.768-4.874
		c-3.143-3.143-4.874-7.323-4.874-11.768c0-4.445,1.731-8.624,4.874-11.767C16.424,7.17,20.603,5.439,25.048,5.439 M25.048,4.669
		c-9.616,0-17.411,7.796-17.411,17.411c0,9.616,7.795,17.412,17.411,17.412c9.615,0,17.411-7.796,17.411-17.412
		C42.459,12.465,34.663,4.669,25.048,4.669"/>
	
		<rect x="9.615" y="20.902" transform="matrix(-0.7071 0.7071 -0.7071 -0.7071 58.5803 19.7224)" fill="#ED1C24" width="31.181" height="2.183"/>
	<rect fill="none" width="50.314" height="44"/>
</g>
<g id="Layer_2">
</g>
</svg>
