<?xml version="1.0" encoding="utf-8"?>
<!-- Generator: Adobe Illustrator 16.0.0, SVG Export Plug-In . SVG Version: 6.00 Build 0)  -->
<!DOCTYPE svg PUBLIC "-//W3C//DTD SVG 1.1//EN" "http://www.w3.org/Graphics/SVG/1.1/DTD/svg11.dtd">
<svg version="1.1" xmlns="http://www.w3.org/2000/svg" xmlns:xlink="http://www.w3.org/1999/xlink" x="0px" y="0px"
	 width="50.315px" height="44px" viewBox="0 0 50.315 44" enable-background="new 0 0 50.315 44" xml:space="preserve">
<g id="Layer_1">
</g>
<g id="Layer_14">
</g>
<g id="Layer_13">
</g>
<g id="Layer_12">
</g>
<g id="Layer_11">
</g>
<g id="Layer_10">
</g>
<g id="Layer_9">
</g>
<g id="Layer_8">
</g>
<g id="Layer_7">
</g>
<g id="Layer_6">
</g>
<g id="Layer_5">
</g>
<g id="Layer_4">
	<path fill="#ED1C24" d="M25.198,39.849c9.812,0,17.766-7.954,17.766-17.766c0-9.811-7.954-17.765-17.766-17.765
		c-9.811,0-17.765,7.954-17.765,17.765C7.434,31.895,15.388,39.849,25.198,39.849"/>
	<path fill="#007DC5" d="M25.189,35.221c7.258,0,13.143-5.885,13.143-13.144c0-7.258-5.885-13.143-13.143-13.143
		c-7.259,0-13.144,5.885-13.144,13.143C12.046,29.336,17.931,35.221,25.189,35.221"/>
	<path fill="#FFFFFF" d="M14.449,26.765c0-1.15,0.934-2.085,2.085-2.085s2.084,0.935,2.084,2.085c0,1.151-0.933,2.085-2.084,2.085
		S14.449,27.917,14.449,26.765 M16.531,28.336c0.869,0,1.574-0.704,1.574-1.574c0-0.869-0.705-1.573-1.574-1.573
		s-1.574,0.704-1.574,1.573C14.957,27.632,15.662,28.336,16.531,28.336"/>
	<path fill="#FFFFFF" d="M19.248,22.669v-0.511h-0.903c-0.407,0-0.524,0.511-0.524,0.511c-0.283,0.807-1.441,4.085-1.441,4.085
		c-0.118,0.296,0.351,0.462,0.462,0.179c0.109-0.283,1.435-4.016,1.435-4.016c0.09-0.283,0.353-0.248,0.353-0.248H19.248z"/>
	<path fill="#FFFFFF" d="M23.251,26.508c-0.206-0.44-0.965-2.065-1.446-3.099h-3.95l-0.317,0.84l2.449,2.768h2.975
		C23.54,27.017,23.251,26.508,23.251,26.508"/>
	<path fill="#007DC5" d="M22.698,26.505c-0.341-0.715-0.846-1.805-1.206-2.574l-3.575-0.007l2.291,2.581H22.698z"/>
	<path fill="#FFFFFF" d="M22.664,22.669v0.407l-1.76-0.007c-0.304,0-0.311-0.4,0-0.4H22.664z"/>
	<path fill="#FFFFFF" d="M20.963,26.765c0-1.15,0.934-2.085,2.085-2.085s2.084,0.935,2.084,2.085c0,1.151-0.933,2.085-2.084,2.085
		S20.963,27.917,20.963,26.765 M23.045,28.336c0.869,0,1.574-0.704,1.574-1.574c0-0.869-0.705-1.573-1.574-1.573
		s-1.574,0.704-1.574,1.573C21.471,27.632,22.176,28.336,23.045,28.336"/>
	<polygon fill="#FFFFFF" points="20.344,26.905 22.179,23.001 21.719,22.785 19.876,26.712 	"/>
	<path fill="#FFFFFF" d="M31.857,18.06c0-1.072,0.869-1.941,1.941-1.941s1.94,0.869,1.94,1.941c0,1.072-0.868,1.942-1.94,1.942
		S31.857,19.132,31.857,18.06 M33.799,19.351c0.713,0,1.291-0.578,1.291-1.291s-0.578-1.291-1.291-1.291s-1.291,0.578-1.291,1.291
		S33.086,19.351,33.799,19.351"/>
	<path fill="#FFFFFF" d="M25.097,18.06c0-1.072,0.87-1.941,1.942-1.941s1.941,0.869,1.941,1.941c0,1.072-0.869,1.942-1.941,1.942
		S25.097,19.132,25.097,18.06 M27.039,19.351c0.713,0,1.291-0.578,1.291-1.291s-0.578-1.291-1.291-1.291s-1.291,0.578-1.291,1.291
		S26.326,19.351,27.039,19.351"/>
	<path fill="#FFFFFF" d="M29.91,13.517h-0.864c0,0-0.445-0.042-0.683,0.557l-1.631,3.917c0,0-0.125,0.293,0.14,0.39
		c0.264,0.098,0.46-0.251,0.46-0.251l1.687-3.944h0.892V13.517z"/>
	<path fill="#FFFFFF" d="M28.419,14.952l1.464,0.028l0.585,0.934l-0.446,1.282l0.376,0.543l3.472,0.014c0,0,0.306-0.014,0.306,0.279
		s-0.279,0.349-0.279,0.349l-3.441,0.014c0,0-0.433,0.083-0.739-0.474c0,0-1.422-2.328-1.435-2.328
		C28.266,15.593,28.419,14.952,28.419,14.952"/>
	<path fill="#FFFFFF" d="M35.165,14.966l0.027,0.767l-1.84,0.097c0,0-0.46,0.056-0.669,0.321c-0.209,0.264-0.502,0.153-0.585-0.042
		c-0.084-0.195-0.432-0.808-0.432-0.808s-0.126-0.335,0.306-0.335H35.165z"/>
	<path fill="#FFFFFF" d="M27.108,16.179l0.028-0.404c0,0-0.641-0.07-0.906,0.097l0.125,0.391L27.108,16.179z"/>
	<path fill="#FFFFFF" d="M25.189,9.601c3.333,0,6.466,1.298,8.822,3.654c2.357,2.357,3.655,5.491,3.655,8.823
		c0,3.333-1.298,6.467-3.655,8.824c-2.356,2.355-5.489,3.653-8.822,3.653s-6.467-1.298-8.823-3.653
		c-2.357-2.357-3.655-5.491-3.655-8.824c0-3.332,1.298-6.466,3.655-8.823C18.723,10.898,21.856,9.601,25.189,9.601 M25.189,8.882
		c-7.288,0-13.195,5.908-13.195,13.195c0,7.288,5.907,13.196,13.195,13.196c7.286,0,13.194-5.908,13.194-13.196
		C38.384,14.791,32.476,8.882,25.189,8.882"/>
	<line fill="#007DC5" x1="15.182" y1="13.824" x2="33.388" y2="32.03"/>
	
		<line fill="none" stroke="#FFFFFF" stroke-width="0.715" stroke-linejoin="bevel" x1="15.182" y1="13.824" x2="33.388" y2="32.03"/>
	<line fill="#007DC5" x1="17.193" y1="11.808" x2="35.319" y2="29.933"/>
	
		<line fill="none" stroke="#FFFFFF" stroke-width="0.715" stroke-linejoin="bevel" x1="17.193" y1="11.808" x2="35.319" y2="29.933"/>
	<path fill="#FFFFFF" d="M25.198,5.442c4.445,0,8.624,1.731,11.768,4.874c3.144,3.143,4.875,7.322,4.875,11.767
		s-1.731,8.625-4.875,11.768c-3.144,3.144-7.322,4.874-11.768,4.874c-4.444,0-8.624-1.73-11.767-4.874
		c-3.144-3.143-4.874-7.323-4.874-11.768s1.73-8.624,4.874-11.767C16.574,7.173,20.754,5.442,25.198,5.442 M25.198,4.672
		c-9.616,0-17.411,7.796-17.411,17.411c0,9.616,7.795,17.413,17.411,17.413S42.61,31.699,42.61,22.083
		C42.61,12.468,34.814,4.672,25.198,4.672"/>
	
		<rect x="9.767" y="20.905" transform="matrix(0.7071 0.7071 -0.7071 0.7071 22.9806 -11.4879)" fill="#ED1C24" width="31.18" height="2.183"/>
	<rect fill="none" width="50.315" height="44"/>
</g>
<g id="Layer_3">
</g>
<g id="Layer_2">
</g>
</svg>
