<?xml version="1.0" encoding="utf-8"?>
<!-- Generator: Adobe Illustrator 16.0.0, SVG Export Plug-In . SVG Version: 6.00 Build 0)  -->
<!DOCTYPE svg PUBLIC "-//W3C//DTD SVG 1.1//EN" "http://www.w3.org/Graphics/SVG/1.1/DTD/svg11.dtd">
<svg version="1.1" xmlns="http://www.w3.org/2000/svg" xmlns:xlink="http://www.w3.org/1999/xlink" x="0px" y="0px"
	 width="50.315px" height="44px" viewBox="0 0 50.315 44" enable-background="new 0 0 50.315 44" xml:space="preserve">
<g id="Layer_1">
</g>
<g id="Layer_14">
</g>
<g id="Layer_13">
</g>
<g id="Layer_12">
</g>
<g id="Layer_11">
</g>
<g id="Layer_10">
</g>
<g id="Layer_9">
</g>
<g id="Layer_8">
</g>
<g id="Layer_7">
</g>
<g id="Layer_6">
</g>
<g id="Layer_5">
	<rect x="7.426" y="5.047" fill="#007DC5" width="35.369" height="35.368"/>
	<path fill="none" stroke="#FFFFFF" stroke-width="0.798" d="M40.002,39.484c1.028,0,1.862-0.833,1.862-1.862V7.839
		c0-1.029-0.834-1.862-1.862-1.862H10.218c-1.028,0-1.861,0.833-1.861,1.862v29.783c0,1.029,0.833,1.862,1.861,1.862H40.002z"/>
	<path fill="#FFFFFF" d="M20.777,35.489h-4.661V10.412H26.76c5.06,0,7.971,3.464,7.971,8.032c0,3.946-2.418,7.998-7.946,7.998
		h-6.008V35.489z M25.197,22.064c3.997,0,4.808-1.943,4.808-3.483c0-1.65-0.646-3.603-4.808-3.603h-4.42v7.086H25.197z"/>
	<rect fill="none" width="50.315" height="44"/>
</g>
<g id="Layer_4">
</g>
<g id="Layer_3">
</g>
<g id="Layer_2">
</g>
</svg>
