<?xml version="1.0" encoding="utf-8"?>
<!-- Generator: Adobe Illustrator 16.0.0, SVG Export Plug-In . SVG Version: 6.00 Build 0)  -->
<!DOCTYPE svg PUBLIC "-//W3C//DTD SVG 1.1//EN" "http://www.w3.org/Graphics/SVG/1.1/DTD/svg11.dtd">
<svg version="1.1" xmlns="http://www.w3.org/2000/svg" xmlns:xlink="http://www.w3.org/1999/xlink" x="0px" y="0px"
	 width="50.314px" height="44px" viewBox="0 0 50.314 44" enable-background="new 0 0 50.314 44" xml:space="preserve">
<g id="Layer_1">
</g>
<g id="Layer_14">
</g>
<g id="Layer_13">
</g>
<g id="Layer_12">
</g>
<g id="Layer_11">
</g>
<g id="Layer_10">
</g>
<g id="Layer_9">
</g>
<g id="Layer_8">
</g>
<g id="Layer_7">
	<rect x="14.146" y="5.136" fill="#007DC5" width="21.929" height="33.847"/>
	<path fill="none" stroke="#FFFFFF" stroke-width="0.722" d="M33.401,38.091c0.984,0,1.781-0.799,1.781-1.781V7.808
		c0-0.984-0.797-1.781-1.781-1.781H16.817c-0.983,0-1.78,0.797-1.78,1.781V36.31c0,0.982,0.797,1.781,1.78,1.781H33.401z"/>
	<path fill="#FFFFFF" d="M22.642,24.331h-2.677V8.892h6.112c2.906,0,4.578,1.988,4.578,4.612c0,2.268-1.389,4.712-4.563,4.712h-3.45
		V24.331z M25.276,15.688c2.413,0,2.902-1.173,2.902-2.104c0-0.996-0.39-2.174-2.902-2.174h-2.667v4.277H25.276z"/>
	<path fill="#FFFFFF" d="M24.229,27.2c0.543,0,0.983-0.439,0.983-0.982s-0.44-0.983-0.983-0.983s-0.982,0.44-0.982,0.983
		S23.687,27.2,24.229,27.2"/>
	<polygon fill="#FFFFFF" points="27.279,31.748 28.97,35.425 30.406,34.772 30.097,34.088 29.334,34.449 27.731,30.986 
		24.333,30.986 24.333,30.129 26.854,30.129 26.854,29.332 24.333,29.332 24.333,26.89 23.506,26.89 23.506,31.748 	"/>
	<path fill="#FFFFFF" d="M28.002,34.139c-0.522,1.264-1.768,2.154-3.221,2.154c-1.924,0-3.484-1.561-3.484-3.485
		c0-1.323,0.762-2.537,1.848-3.127v0.922l-0.014-0.004c-0.672,0.503-1.107,1.305-1.107,2.209c0,1.523,1.234,2.758,2.758,2.758
		c1.426,0,2.6-1.084,2.742-2.472L28.002,34.139z"/>
	<rect fill="none" width="50.314" height="44"/>
</g>
<g id="Layer_6">
</g>
<g id="Layer_5">
</g>
<g id="Layer_4">
</g>
<g id="Layer_3">
</g>
<g id="Layer_2">
</g>
</svg>
