<?xml version="1.0" encoding="utf-8"?>
<!-- Generator: Adobe Illustrator 16.0.0, SVG Export Plug-In . SVG Version: 6.00 Build 0)  -->
<!DOCTYPE svg PUBLIC "-//W3C//DTD SVG 1.1//EN" "http://www.w3.org/Graphics/SVG/1.1/DTD/svg11.dtd">
<svg version="1.1" xmlns="http://www.w3.org/2000/svg" xmlns:xlink="http://www.w3.org/1999/xlink" x="0px" y="0px"
	 width="50.315px" height="44px" viewBox="0 0 50.315 44" enable-background="new 0 0 50.315 44" xml:space="preserve">
<g id="Layer_1">
</g>
<g id="Layer_14">
</g>
<g id="Layer_13">
</g>
<g id="Layer_12">
</g>
<g id="Layer_11">
</g>
<g id="Layer_10">
</g>
<g id="Layer_9">
</g>
<g id="Layer_8">
	<rect x="14.02" y="5.174" fill="#007DC5" width="21.835" height="33.703"/>
	<path fill="none" stroke="#FFFFFF" stroke-width="0.719" d="M33.193,37.989c0.979,0,1.773-0.794,1.773-1.774V7.834
		c0-0.979-0.794-1.773-1.773-1.773H16.679c-0.979,0-1.773,0.794-1.773,1.773v28.381c0,0.98,0.794,1.774,1.773,1.774H33.193z"/>
	<path fill="#FFFFFF" d="M22.479,24.288h-2.666V8.914h6.087c2.894,0,4.559,1.979,4.559,4.594c0,2.256-1.383,4.69-4.545,4.69h-3.435
		V24.288z M25.103,15.681c2.401,0,2.89-1.169,2.89-2.094c0-0.992-0.389-2.165-2.89-2.165h-2.656v4.259H25.103z"/>
	<path fill="#FFFFFF" d="M18.696,35.496c0.517,0,0.936-0.419,0.936-0.935c0-0.518-0.419-0.936-0.936-0.936
		c-0.516,0-0.935,0.418-0.935,0.936C17.762,35.077,18.181,35.496,18.696,35.496"/>
	<path fill="#FFFFFF" d="M25.439,35.496c0.517,0,0.936-0.419,0.936-0.935c0-0.518-0.419-0.936-0.936-0.936
		c-0.516,0-0.935,0.418-0.935,0.936C24.505,35.077,24.924,35.496,25.439,35.496"/>
	<rect x="27.685" y="28.801" fill="#FFFFFF" width="1.723" height="4.229"/>
	<polygon fill="#FFFFFF" points="29.821,35.121 29.016,34.222 30.899,32.513 31.705,33.412 	"/>
	<path fill="#FFFFFF" d="M30.504,35.704c0.193,0,0.351-0.157,0.351-0.352c0-0.193-0.157-0.35-0.351-0.35
		c-0.194,0-0.352,0.156-0.352,0.35C30.152,35.547,30.31,35.704,30.504,35.704"/>
	<polygon fill="#FFFFFF" points="26.745,34.936 27.109,34.936 27.659,35.758 29.381,35.758 29.381,35.535 27.775,35.535 
		27.228,34.714 26.81,34.714 	"/>
	<path fill="#FFFFFF" d="M26.717,34.145c-0.175-0.538-0.681-0.926-1.276-0.926s-1.101,0.386-1.276,0.922l-4.206-0.001l-0.011-0.071
		c-0.197-0.498-0.684-0.85-1.25-0.85c-0.742,0-1.336,0.53-1.336,1.272h-1.136l0.014-0.404l0.143-0.026l-0.104-2.192l0.848-1.983
		h2.01v-1.083h8.157l0.039,5.338h-0.615V34.145z M19.136,30.094l-1.879,0.013l-0.705,1.644h2.584V30.094z"/>
	<path fill="#FFFFFF" d="M32.188,31.764c-0.127,0-0.104,0.184-0.104,0.3L32.07,33.33l-0.522,0.039l-0.014,0.144l0.679-0.025
		l0.157-0.783c0.143,0.222,0.313,0.535,0.313,0.535L32.07,34.4l0.326,1.175l0.17,0.025l-0.168-1.045l0.703-0.859l0.41,0.683
		l0.646,1.118h0.222l-0.691-1.488l-0.17-0.718l-0.626-1.005l-0.418-0.496C32.304,31.652,32.188,31.764,32.188,31.764"/>
	<path fill="#FFFFFF" d="M31.99,31.616c0.191,0,0.348-0.156,0.348-0.348c0-0.192-0.156-0.349-0.348-0.349
		c-0.192,0-0.349,0.156-0.349,0.349C31.642,31.46,31.798,31.616,31.99,31.616"/>
	<rect fill="none" width="50.315" height="44"/>
</g>
<g id="Layer_7">
</g>
<g id="Layer_6">
</g>
<g id="Layer_5">
</g>
<g id="Layer_4">
</g>
<g id="Layer_3">
</g>
<g id="Layer_2">
</g>
</svg>
