<?xml version="1.0" encoding="utf-8"?>
<!-- Generator: Adobe Illustrator 16.0.0, SVG Export Plug-In . SVG Version: 6.00 Build 0)  -->
<!DOCTYPE svg PUBLIC "-//W3C//DTD SVG 1.1//EN" "http://www.w3.org/Graphics/SVG/1.1/DTD/svg11.dtd">
<svg version="1.1" xmlns="http://www.w3.org/2000/svg" xmlns:xlink="http://www.w3.org/1999/xlink" x="0px" y="0px"
	 width="31.422px" height="44px" viewBox="0 0 31.422 44" enable-background="new 0 0 31.422 44" xml:space="preserve">
<g id="Layer_1">
</g>
<g id="Layer_14">
</g>
<g id="Layer_13">
</g>
<g id="Layer_12">
</g>
<g id="Layer_11">
</g>
<g id="Layer_10">
</g>
<g id="Layer_9">
	<rect x="4.927" y="5.367" fill="#007DC5" width="21.739" height="33.555"/>
	<path fill="none" stroke="#FFFFFF" stroke-width="0.746" d="M24.016,38.037c0.975,0,1.766-0.791,1.766-1.766V8.016
		c0-0.976-0.791-1.767-1.766-1.767H7.575c-0.975,0-1.766,0.791-1.766,1.767v28.256c0,0.975,0.791,1.766,1.766,1.766H24.016z"/>
	<path fill="#FFFFFF" d="M13.349,24.396h-2.654V9.09h6.06c2.881,0,4.538,1.973,4.538,4.574c0,2.246-1.377,4.67-4.524,4.67h-3.42
		V24.396z M15.961,15.828c2.392,0,2.877-1.164,2.877-2.086c0-0.986-0.387-2.154-2.877-2.154h-2.645v4.24H15.961z"/>
	<path fill="#FFFFFF" d="M11.244,35.172c0.699,0,1.266-0.568,1.266-1.267c0-0.699-0.567-1.265-1.266-1.265
		c-0.699,0-1.266,0.565-1.266,1.265C9.978,34.604,10.545,35.172,11.244,35.172"/>
	<path fill="#FFFFFF" d="M20.935,35.146c0.699,0,1.266-0.567,1.266-1.266c0-0.699-0.567-1.265-1.266-1.265
		c-0.699,0-1.266,0.565-1.266,1.265C19.669,34.578,20.236,35.146,20.935,35.146"/>
	<path fill="#FFFFFF" d="M7.946,31.988l4.449-0.998l2.302-2.121h4.653l2.097,2.045l2.282,0.485v2.007L22.7,33.701
		c-0.128-0.537-0.588-1.509-1.867-1.509c-1.278,0-1.662,1.177-1.738,1.815l-6.035,0.025c0-0.563-0.435-1.892-1.79-1.892
		c-1.508,0-1.79,1.508-1.79,1.508l-1.534-0.28V31.988z M12.76,31.019h4.519v-1.882h-2.403L12.76,31.019z M17.765,31.019h3.394
		l-1.911-1.882h-1.483V31.019z"/>
	<rect x="4.009" y="4.236" fill="none" width="23.87" height="35.53"/>
</g>
<g id="Layer_8">
</g>
<g id="Layer_7">
</g>
<g id="Layer_6">
</g>
<g id="Layer_5">
</g>
<g id="Layer_4">
</g>
<g id="Layer_3">
</g>
<g id="Layer_2">
</g>
</svg>
