<?xml version="1.0" encoding="utf-8"?>
<!-- Generator: Adobe Illustrator 16.0.0, SVG Export Plug-In . SVG Version: 6.00 Build 0)  -->
<!DOCTYPE svg PUBLIC "-//W3C//DTD SVG 1.1//EN" "http://www.w3.org/Graphics/SVG/1.1/DTD/svg11.dtd">
<svg version="1.1" xmlns="http://www.w3.org/2000/svg" xmlns:xlink="http://www.w3.org/1999/xlink" x="0px" y="0px"
	 width="50.315px" height="44px" viewBox="0 0 50.315 44" enable-background="new 0 0 50.315 44" xml:space="preserve">
<g id="Layer_1">
</g>
<g id="Layer_14">
</g>
<g id="Layer_13">
</g>
<g id="Layer_12">
</g>
<g id="Layer_11">
</g>
<g id="Layer_10">
	<rect x="14.388" y="5.066" fill="#007DC5" width="21.859" height="33.741"/>
	<path fill="none" stroke="#FFFFFF" stroke-width="0.746" d="M33.583,37.918c0.98,0,1.775-0.795,1.775-1.775V7.729
		c0-0.981-0.795-1.776-1.775-1.776H17.05c-0.98,0-1.775,0.795-1.775,1.776v28.413c0,0.98,0.795,1.775,1.775,1.775H33.583z"/>
	<path fill="#FFFFFF" d="M22.855,24.202h-2.669V8.811h6.094c2.897,0,4.564,1.982,4.564,4.599c0,2.259-1.385,4.696-4.551,4.696
		h-3.438V24.202z M25.482,15.585c2.405,0,2.894-1.17,2.894-2.097c0-0.992-0.39-2.168-2.894-2.168h-2.659v4.265H25.482z"/>
	<path fill="#FFFFFF" d="M25.698,35.242l-0.139-0.027l-0.139-0.068l-0.131-0.131l-0.102-0.183l-0.052-0.209l-0.015-0.217
		l0.015-0.217l0.058-0.192l0.096-0.165l0.131-0.13l0.139-0.07l0.146-0.025l0.146,0.025l0.139,0.07l0.125,0.113l0.094,0.164
		l0.059,0.201l0.022,0.226l-0.015,0.226l-0.059,0.2l-0.096,0.183l-0.131,0.131l-0.146,0.068L25.698,35.242z M25.771,34.885
		l0.073-0.043l0.058-0.078l0.037-0.096l0.022-0.131l0.007-0.139l-0.007-0.131l-0.022-0.112l-0.043-0.087l-0.052-0.07l-0.065-0.043
		l-0.073-0.018l-0.072,0.018l-0.065,0.043l-0.052,0.07l-0.036,0.087l-0.029,0.112l-0.008,0.14l0.008,0.13l0.015,0.113l0.036,0.105
		l0.059,0.077l0.065,0.052l0.073,0.018L25.771,34.885z"/>
	<path fill="none" stroke="#007DC5" stroke-width="0.011" d="M25.698,35.242l-0.139-0.027l-0.139-0.068l-0.131-0.131l-0.102-0.183
		l-0.052-0.209l-0.015-0.217l0.015-0.217l0.058-0.192l0.096-0.165l0.131-0.13l0.139-0.07l0.146-0.025l0.146,0.025l0.139,0.07
		l0.125,0.113l0.094,0.164l0.059,0.201l0.022,0.226l-0.015,0.226l-0.059,0.2l-0.096,0.183l-0.131,0.131l-0.146,0.068L25.698,35.242z
		 M25.771,34.885l0.073-0.043l0.058-0.078l0.037-0.096l0.022-0.131l0.007-0.139l-0.007-0.131l-0.022-0.112l-0.043-0.087l-0.052-0.07
		l-0.065-0.043l-0.073-0.018l-0.072,0.018l-0.065,0.043l-0.052,0.07l-0.036,0.087l-0.029,0.112l-0.008,0.14l0.008,0.13l0.015,0.113
		l0.036,0.105l0.059,0.077l0.065,0.052l0.073,0.018L25.771,34.885z"/>
	<polygon fill="#FFFFFF" points="23.474,33.057 23.802,33.057 23.802,33.848 23.817,33.822 23.839,33.796 23.875,33.744 
		23.926,33.691 23.978,33.647 24.043,33.613 24.101,33.596 24.167,33.587 24.231,33.596 24.298,33.604 24.37,33.631 24.437,33.674 
		24.509,33.744 24.567,33.83 24.604,33.918 24.626,34.013 24.633,34.109 24.641,34.24 24.641,35.187 24.312,35.187 24.312,34.318 
		24.312,34.23 24.298,34.152 24.282,34.082 24.247,34.021 24.21,33.979 24.167,33.953 24.116,33.935 24.065,33.927 24.006,33.943 
		23.948,33.97 23.897,34.013 23.853,34.065 23.823,34.135 23.81,34.205 23.802,34.273 23.802,34.361 23.802,35.187 23.474,35.187 	
		"/>
	<polygon fill="none" stroke="#007DC5" stroke-width="0.011" points="23.474,33.057 23.802,33.057 23.802,33.848 23.817,33.822 
		23.839,33.796 23.875,33.744 23.926,33.691 23.978,33.647 24.043,33.613 24.101,33.596 24.167,33.587 24.231,33.596 24.298,33.604 
		24.37,33.631 24.437,33.674 24.509,33.744 24.567,33.83 24.604,33.918 24.626,34.013 24.633,34.109 24.641,34.24 24.641,35.187 
		24.312,35.187 24.312,34.318 24.312,34.23 24.298,34.152 24.282,34.082 24.247,34.021 24.21,33.979 24.167,33.953 24.116,33.935 
		24.065,33.927 24.006,33.943 23.948,33.97 23.897,34.013 23.853,34.065 23.823,34.135 23.81,34.205 23.802,34.273 23.802,34.361 
		23.802,35.187 23.474,35.187 	"/>
	<polygon fill="#FFFFFF" points="18.933,29.91 18.431,31.511 18.095,31.511 17.599,29.91 17.935,29.91 18.263,30.963 18.591,29.91 	
		"/>
	<polygon fill="none" stroke="#007DC5" stroke-width="0.011" points="18.933,29.91 18.431,31.511 18.095,31.511 17.599,29.91 
		17.935,29.91 18.263,30.963 18.591,29.91 	"/>
	<polygon fill="#FFFFFF" points="27.286,34.971 27.379,34.947 27.455,34.895 27.507,34.813 27.524,34.737 27.524,33.619 
		27.839,33.619 27.839,35.238 27.53,35.238 27.53,35.156 27.373,35.238 27.187,35.268 27.094,35.256 27.012,35.227 26.937,35.18 
		26.866,35.11 26.808,35.034 26.769,34.941 26.743,34.842 26.733,34.737 26.733,33.619 27.047,33.619 27.047,34.709 27.065,34.813 
		27.116,34.9 27.192,34.953 	"/>
	<polygon fill="none" stroke="#007DC5" stroke-width="0.011" points="27.286,34.971 27.379,34.947 27.455,34.895 27.507,34.813 
		27.524,34.737 27.524,33.619 27.839,33.619 27.839,35.238 27.53,35.238 27.53,35.156 27.373,35.238 27.187,35.268 27.094,35.256 
		27.012,35.227 26.937,35.18 26.866,35.11 26.808,35.034 26.769,34.941 26.743,34.842 26.733,34.737 26.733,33.619 27.047,33.619 
		27.047,34.709 27.065,34.813 27.116,34.9 27.192,34.953 	"/>
	<polygon fill="#FFFFFF" points="23.979,31.253 24.073,31.229 24.149,31.177 24.201,31.096 24.22,31.02 24.22,29.902 24.533,29.902 
		24.533,31.521 24.226,31.521 24.226,31.438 24.067,31.521 23.882,31.55 23.788,31.537 23.706,31.509 23.632,31.463 23.562,31.393 
		23.503,31.316 23.462,31.224 23.438,31.125 23.427,31.02 23.427,29.902 23.741,29.902 23.741,30.99 23.759,31.096 23.812,31.183 
		23.888,31.236 	"/>
	<polygon fill="none" stroke="#007DC5" stroke-width="0.011" points="23.979,31.253 24.073,31.229 24.149,31.177 24.201,31.096 
		24.22,31.02 24.22,29.902 24.533,29.902 24.533,31.521 24.226,31.521 24.226,31.438 24.067,31.521 23.882,31.55 23.788,31.537 
		23.706,31.509 23.632,31.463 23.562,31.393 23.503,31.316 23.462,31.224 23.438,31.125 23.427,31.02 23.427,29.902 23.741,29.902 
		23.741,30.99 23.759,31.096 23.812,31.183 23.888,31.236 	"/>
	<polygon fill="#FFFFFF" points="32.322,34.021 32.212,33.93 32.118,33.895 32.031,33.911 31.962,33.964 31.915,34.027 
		31.897,34.098 31.897,35.21 31.583,35.21 31.583,33.591 31.892,33.591 31.897,33.667 32.025,33.598 32.171,33.574 32.316,33.591 
		32.421,33.645 	"/>
	<polygon fill="none" stroke="#007DC5" stroke-width="0.011" points="32.322,34.021 32.212,33.93 32.118,33.895 32.031,33.911 
		31.962,33.964 31.915,34.027 31.897,34.098 31.897,35.21 31.583,35.21 31.583,33.591 31.892,33.591 31.897,33.667 32.025,33.598 
		32.171,33.574 32.316,33.591 32.421,33.645 	"/>
	<polygon fill="#FFFFFF" points="21.531,30.344 21.421,30.251 21.321,30.216 21.24,30.232 21.171,30.286 21.124,30.35 21.106,30.42 
		21.106,31.531 20.792,31.531 20.792,29.913 21.101,29.913 21.106,29.988 21.234,29.919 21.38,29.896 21.52,29.913 21.63,29.966 	
		"/>
	<polygon fill="none" stroke="#007DC5" stroke-width="0.011" points="21.531,30.344 21.421,30.251 21.321,30.216 21.24,30.232 
		21.171,30.286 21.124,30.35 21.106,30.42 21.106,31.531 20.792,31.531 20.792,29.913 21.101,29.913 21.106,29.988 21.234,29.919 
		21.38,29.896 21.52,29.913 21.63,29.966 	"/>
	<rect x="28.416" y="29.914" fill="#FFFFFF" width="0.313" height="1.617"/>
	<rect x="28.415" y="29.914" fill="none" stroke="#007DC5" stroke-width="0.011" width="0.314" height="1.617"/>
	<polygon fill="#FFFFFF" points="28.741,29.564 28.729,29.628 28.688,29.681 28.636,29.721 28.572,29.732 28.509,29.721 
		28.45,29.681 28.415,29.628 28.403,29.564 28.415,29.5 28.45,29.447 28.509,29.406 28.572,29.395 28.636,29.406 28.688,29.447 
		28.729,29.5 	"/>
	<polygon fill="none" stroke="#007DC5" stroke-width="0.011" points="28.741,29.564 28.729,29.628 28.688,29.681 28.636,29.721 
		28.572,29.732 28.509,29.721 28.45,29.681 28.415,29.628 28.403,29.564 28.415,29.5 28.45,29.447 28.509,29.406 28.572,29.395 
		28.636,29.406 28.688,29.447 28.729,29.5 	"/>
	<path fill="#FFFFFF" d="M20.321,31.299l-0.082,0.109l-0.099,0.076l-0.122,0.047l-0.134,0.018l-0.14-0.012l-0.117-0.041
		l-0.104-0.069l-0.087-0.099l-0.064-0.117l-0.047-0.145l-0.028-0.17l-0.011-0.191l0.004-0.187l0.031-0.169l0.045-0.141l0.064-0.115
		L19.513,30l0.093-0.064l0.11-0.04l0.117-0.012l0.121,0.012l0.111,0.04L20.159,30l0.08,0.094l0.064,0.122l0.047,0.157l0.023,0.197
		l0.012,0.233h-0.78l0.007,0.11l0.016,0.094l0.023,0.074l0.035,0.064l0.087,0.076l0.099,0.029l0.105-0.029l0.111-0.082
		L20.321,31.299z M20.054,30.535l-0.018-0.156l-0.047-0.111l-0.07-0.064l-0.086-0.022l-0.082,0.022l-0.075,0.064l-0.048,0.111
		l-0.016,0.156H20.054z"/>
	<path fill="none" stroke="#007DC5" stroke-width="0.011" d="M20.321,31.299l-0.082,0.109l-0.099,0.076l-0.122,0.047l-0.134,0.018
		l-0.14-0.012l-0.117-0.041l-0.104-0.069l-0.087-0.099l-0.064-0.117l-0.047-0.145l-0.028-0.17l-0.011-0.191l0.004-0.187l0.031-0.169
		l0.045-0.141l0.064-0.115L19.513,30l0.093-0.064l0.11-0.04l0.117-0.012l0.121,0.012l0.111,0.04L20.159,30l0.08,0.094l0.064,0.122
		l0.047,0.157l0.023,0.197l0.012,0.233h-0.78l0.007,0.11l0.016,0.094l0.023,0.074l0.035,0.064l0.087,0.076l0.099,0.029l0.105-0.029
		l0.111-0.082L20.321,31.299z M20.054,30.535l-0.018-0.156l-0.047-0.111l-0.07-0.064l-0.086-0.022l-0.082,0.022l-0.075,0.064
		l-0.048,0.111l-0.016,0.156H20.054z"/>
	<path fill="#FFFFFF" d="M31.063,34.979l-0.081,0.11l-0.1,0.075l-0.122,0.053l-0.134,0.012l-0.141-0.012l-0.115-0.04l-0.105-0.069
		l-0.087-0.1l-0.063-0.123l-0.047-0.139l-0.029-0.17l-0.012-0.186l0.006-0.191l0.028-0.17l0.048-0.14l0.063-0.116l0.081-0.094
		l0.094-0.064l0.109-0.039l0.117-0.012l0.123,0.012l0.11,0.039l0.093,0.064l0.082,0.094l0.063,0.123l0.047,0.156l0.022,0.198
		l0.013,0.233h-0.78l0.023,0.203l0.058,0.139l0.087,0.076l0.1,0.029l0.104-0.029l0.11-0.082L31.063,34.979z M30.795,34.216
		l-0.017-0.157l-0.047-0.111l-0.07-0.063l-0.088-0.022l-0.082,0.022l-0.076,0.063l-0.045,0.111l-0.019,0.157H30.795z"/>
	<path fill="none" stroke="#007DC5" stroke-width="0.011" d="M31.063,34.979l-0.081,0.11l-0.1,0.075l-0.122,0.053l-0.134,0.012
		l-0.141-0.012l-0.115-0.04l-0.105-0.069l-0.087-0.1l-0.063-0.123l-0.047-0.139l-0.029-0.17l-0.012-0.186l0.006-0.191l0.028-0.17
		l0.048-0.14l0.063-0.116l0.081-0.094l0.094-0.064l0.109-0.039l0.117-0.012l0.123,0.012l0.11,0.039l0.093,0.064l0.082,0.094
		l0.063,0.123l0.047,0.156l0.022,0.198l0.013,0.233h-0.78l0.023,0.203l0.058,0.139l0.087,0.076l0.1,0.029l0.104-0.029l0.11-0.082
		L31.063,34.979z M30.795,34.216l-0.017-0.157l-0.047-0.111l-0.07-0.063l-0.088-0.022l-0.082,0.022l-0.076,0.063l-0.045,0.111
		l-0.019,0.157H30.795z"/>
	<polygon fill="#FFFFFF" points="29.779,30.219 29.681,30.242 29.599,30.295 29.552,30.37 29.534,30.446 29.534,31.564 
		29.22,31.564 29.22,29.945 29.534,29.945 29.534,30.033 29.687,29.957 29.872,29.935 29.972,29.939 30.06,29.969 30.134,30.016 
		30.204,30.08 30.298,30.242 30.326,30.446 30.326,31.564 30.013,31.564 30.013,30.476 29.994,30.37 29.948,30.289 29.872,30.236 	
		"/>
	<polygon fill="none" stroke="#007DC5" stroke-width="0.011" points="29.779,30.219 29.681,30.242 29.599,30.295 29.552,30.37 
		29.534,30.446 29.534,31.564 29.22,31.564 29.22,29.945 29.534,29.945 29.534,30.033 29.687,29.957 29.872,29.935 29.972,29.939 
		30.06,29.969 30.134,30.016 30.204,30.08 30.298,30.242 30.326,30.446 30.326,31.564 30.013,31.564 30.013,30.476 29.994,30.37 
		29.948,30.289 29.872,30.236 	"/>
	<polygon fill="#FFFFFF" points="27.354,30.192 27.255,30.215 27.173,30.269 27.126,30.344 27.109,30.42 27.109,31.537 
		26.794,31.537 26.794,29.918 27.109,29.918 27.109,30.006 27.261,29.93 27.446,29.907 27.546,29.912 27.634,29.942 27.708,29.988 
		27.778,30.053 27.872,30.215 27.9,30.42 27.9,31.537 27.587,31.537 27.587,30.448 27.568,30.344 27.522,30.262 27.446,30.209 	"/>
	<polygon fill="none" stroke="#007DC5" stroke-width="0.011" points="27.354,30.192 27.255,30.215 27.173,30.269 27.126,30.344 
		27.109,30.42 27.109,31.537 26.794,31.537 26.794,29.918 27.109,29.918 27.109,30.006 27.261,29.93 27.446,29.907 27.546,29.912 
		27.634,29.942 27.708,29.988 27.778,30.053 27.872,30.215 27.9,30.42 27.9,31.537 27.587,31.537 27.587,30.448 27.568,30.344 
		27.522,30.262 27.446,30.209 	"/>
	<polygon fill="#FFFFFF" points="25.7,30.16 25.603,30.184 25.521,30.236 25.474,30.312 25.456,30.387 25.456,31.506 25.142,31.506 
		25.142,29.887 25.456,29.887 25.456,29.975 25.608,29.898 25.794,29.875 25.894,29.881 25.979,29.91 26.056,29.956 26.126,30.021 
		26.219,30.184 26.248,30.387 26.248,31.506 25.934,31.506 25.934,30.416 25.916,30.312 25.87,30.23 25.794,30.178 	"/>
	<polygon fill="none" stroke="#007DC5" stroke-width="0.011" points="25.7,30.16 25.603,30.184 25.521,30.236 25.474,30.312 
		25.456,30.387 25.456,31.506 25.142,31.506 25.142,29.887 25.456,29.887 25.456,29.975 25.608,29.898 25.794,29.875 25.894,29.881 
		25.979,29.91 26.056,29.956 26.126,30.021 26.219,30.184 26.248,30.387 26.248,31.506 25.934,31.506 25.934,30.416 25.916,30.312 
		25.87,30.23 25.794,30.178 	"/>
	<path fill="#FFFFFF" d="M31.622,29.915h0.314v1.759l-0.035,0.209l-0.086,0.203l-0.076,0.088l-0.1,0.076l-0.122,0.057l-0.151,0.041
		l-0.104-0.303l0.134-0.035l0.122-0.074l0.058-0.064l0.035-0.093l0.019-0.128v-0.158l-0.123,0.053l-0.151,0.018l-0.08-0.012
		l-0.082-0.029l-0.082-0.053l-0.076-0.069l-0.075-0.093l-0.052-0.135l-0.035-0.168l-0.019-0.199l-0.005-0.202l0.018-0.181
		l0.041-0.158l0.063-0.127l0.075-0.105l0.088-0.076l0.087-0.04l0.099-0.018l0.176,0.018l0.121,0.052L31.622,29.915z M31.616,30.293
		l-0.092-0.063l-0.111-0.023l-0.105,0.035l-0.087,0.093l-0.028,0.075l-0.023,0.099l-0.012,0.123v0.146l0.012,0.146l0.023,0.116
		l0.034,0.087l0.041,0.059l0.099,0.064l0.088,0.018l0.08-0.023l0.082-0.059V30.293z"/>
	<path fill="none" stroke="#007DC5" stroke-width="0.011" d="M31.622,29.915h0.314v1.759l-0.035,0.209l-0.086,0.203l-0.076,0.088
		l-0.1,0.076l-0.122,0.057l-0.151,0.041l-0.104-0.303l0.134-0.035l0.122-0.074l0.058-0.064l0.035-0.093l0.019-0.128v-0.158
		l-0.123,0.053l-0.151,0.018l-0.08-0.012l-0.082-0.029l-0.082-0.053l-0.076-0.069l-0.075-0.093l-0.052-0.135l-0.035-0.168
		l-0.019-0.199l-0.005-0.202l0.018-0.181l0.041-0.158l0.063-0.127l0.075-0.105l0.088-0.076l0.087-0.04l0.099-0.018l0.176,0.018
		l0.121,0.052L31.622,29.915z M31.616,30.293l-0.092-0.063l-0.111-0.023l-0.105,0.035l-0.087,0.093l-0.028,0.075l-0.023,0.099
		l-0.012,0.123v0.146l0.012,0.146l0.023,0.116l0.034,0.087l0.041,0.059l0.099,0.064l0.088,0.018l0.08-0.023l0.082-0.059V30.293z"/>
	<path fill="#FFFFFF" d="M22.644,29.914h0.314v1.758l-0.035,0.209l-0.087,0.204l-0.075,0.088l-0.1,0.075l-0.122,0.058l-0.151,0.041
		l-0.104-0.303l0.134-0.035l0.122-0.075l0.058-0.064l0.035-0.092l0.018-0.129V31.49l-0.122,0.054l-0.151,0.017l-0.082-0.011
		l-0.08-0.03l-0.082-0.052l-0.076-0.069l-0.076-0.094l-0.051-0.134l-0.035-0.169l-0.019-0.198l-0.005-0.203l0.018-0.181l0.041-0.157
		l0.063-0.128l0.075-0.105l0.088-0.076l0.087-0.039l0.099-0.018l0.176,0.018l0.121,0.052L22.644,29.914z M22.638,30.292
		l-0.093-0.064l-0.11-0.022l-0.105,0.035l-0.087,0.093l-0.028,0.075l-0.023,0.099l-0.012,0.123v0.146l0.012,0.146l0.023,0.116
		l0.034,0.088l0.041,0.058l0.099,0.063l0.088,0.018l0.08-0.023l0.082-0.058V30.292z"/>
	<path fill="none" stroke="#007DC5" stroke-width="0.011" d="M22.644,29.914h0.314v1.758l-0.035,0.209l-0.087,0.204l-0.075,0.088
		l-0.1,0.075l-0.122,0.058l-0.151,0.041l-0.104-0.303l0.134-0.035l0.122-0.075l0.058-0.064l0.035-0.092l0.018-0.129V31.49
		l-0.122,0.054l-0.151,0.017l-0.082-0.011l-0.08-0.03l-0.082-0.052l-0.076-0.069l-0.076-0.094l-0.051-0.134l-0.035-0.169
		l-0.019-0.198l-0.005-0.203l0.018-0.181l0.041-0.157l0.063-0.128l0.075-0.105l0.088-0.076l0.087-0.039l0.099-0.018l0.176,0.018
		l0.121,0.052L22.644,29.914z M22.638,30.292l-0.093-0.064l-0.11-0.022l-0.105,0.035l-0.087,0.093l-0.028,0.075l-0.023,0.099
		l-0.012,0.123v0.146l0.012,0.146l0.023,0.116l0.034,0.088l0.041,0.058l0.099,0.063l0.088,0.018l0.08-0.023l0.082-0.058V30.292z"/>
	<path fill="#FFFFFF" d="M29.157,33.107l0.335-0.137v2.26h-0.335v-0.104l-0.029,0.026l-0.051,0.034l-0.102,0.043l-0.132,0.025
		l-0.138-0.025l-0.131-0.068l-0.109-0.111l-0.087-0.164l-0.073-0.215l-0.029-0.24l0.022-0.258l0.072-0.225l0.095-0.18l0.116-0.12
		l0.124-0.06l0.131-0.027l0.139,0.027l0.102,0.043l0.044,0.033l0.036,0.034V33.107z M29.157,34.07l-0.022-0.026l-0.036-0.043
		l-0.072-0.034l-0.094-0.025l-0.096,0.017l-0.08,0.052l-0.059,0.068l-0.043,0.096l-0.029,0.12l-0.007,0.128l0.007,0.139l0.036,0.119
		l0.051,0.086l0.065,0.062l0.074,0.034l0.08,0.017l0.086-0.017l0.065-0.043l0.044-0.043l0.029-0.034V34.07z"/>
	<path fill="none" stroke="#007DC5" stroke-width="0.011" d="M29.157,33.107l0.335-0.137v2.26h-0.335v-0.104l-0.029,0.026
		l-0.051,0.034l-0.102,0.043l-0.132,0.025l-0.138-0.025l-0.131-0.068l-0.109-0.111l-0.087-0.164l-0.073-0.215l-0.029-0.24
		l0.022-0.258l0.072-0.225l0.095-0.18l0.116-0.12l0.124-0.06l0.131-0.027l0.139,0.027l0.102,0.043l0.044,0.033l0.036,0.034V33.107z
		 M29.157,34.07l-0.022-0.026l-0.036-0.043l-0.072-0.034l-0.094-0.025l-0.096,0.017l-0.08,0.052l-0.059,0.068l-0.043,0.096
		l-0.029,0.12l-0.007,0.128l0.007,0.139l0.036,0.119l0.051,0.086l0.065,0.062l0.074,0.034l0.08,0.017l0.086-0.017l0.065-0.043
		l0.044-0.043l0.029-0.034V34.07z"/>
	<polygon fill="#FFFFFF" points="33.819,33.767 33.685,34.084 33.656,34.063 33.621,34.026 33.552,33.983 33.464,33.947 
		33.371,33.918 33.289,33.911 33.226,33.918 33.179,33.933 33.138,33.947 33.115,33.983 33.103,34.02 33.097,34.055 33.103,34.1 
		33.115,34.129 33.138,34.157 33.173,34.178 33.599,34.353 33.697,34.424 33.772,34.525 33.819,34.642 33.831,34.771 33.819,34.895 
		33.772,35.004 33.697,35.098 33.587,35.176 33.446,35.228 33.289,35.25 33.155,35.234 33.021,35.198 32.888,35.147 32.789,35.09 
		32.742,35.053 32.714,35.032 32.853,34.699 32.888,34.729 32.923,34.764 32.998,34.808 33.097,34.852 33.202,34.881 33.296,34.887 
		33.365,34.887 33.417,34.881 33.458,34.858 33.487,34.822 33.505,34.786 33.511,34.75 33.505,34.707 33.493,34.664 33.464,34.642 
		33.417,34.612 33.039,34.446 32.929,34.381 32.847,34.287 32.8,34.164 32.789,34.026 32.8,33.896 32.847,33.789 32.911,33.694 
		33.005,33.621 33.126,33.578 33.272,33.557 33.423,33.571 33.558,33.607 33.662,33.658 33.749,33.709 33.79,33.744 	"/>
	<polygon fill="none" stroke="#007DC5" stroke-width="0.011" points="33.819,33.767 33.685,34.084 33.656,34.063 33.621,34.026 
		33.552,33.983 33.464,33.947 33.371,33.918 33.289,33.911 33.226,33.918 33.179,33.933 33.138,33.947 33.115,33.983 33.103,34.02 
		33.097,34.055 33.103,34.1 33.115,34.129 33.138,34.157 33.173,34.178 33.599,34.353 33.697,34.424 33.772,34.525 33.819,34.642 
		33.831,34.771 33.819,34.895 33.772,35.004 33.697,35.098 33.587,35.176 33.446,35.228 33.289,35.25 33.155,35.234 33.021,35.198 
		32.888,35.147 32.789,35.09 32.742,35.053 32.714,35.032 32.853,34.699 32.888,34.729 32.923,34.764 32.998,34.808 33.097,34.852 
		33.202,34.881 33.296,34.887 33.365,34.887 33.417,34.881 33.458,34.858 33.487,34.822 33.505,34.786 33.511,34.75 33.505,34.707 
		33.493,34.664 33.464,34.642 33.417,34.612 33.039,34.446 32.929,34.381 32.847,34.287 32.8,34.164 32.789,34.026 32.8,33.896 
		32.847,33.789 32.911,33.694 33.005,33.621 33.126,33.578 33.272,33.557 33.423,33.571 33.558,33.607 33.662,33.658 33.749,33.709 
		33.79,33.744 	"/>
	<rect x="32.771" y="30.521" fill="#FFFFFF" width="0.809" height="0.323"/>
	<rect x="32.771" y="30.521" fill="none" stroke="#007DC5" stroke-width="0.011" width="0.809" height="0.323"/>
	<rect fill="none" width="50.315" height="44"/>
</g>
<g id="Layer_9">
</g>
<g id="Layer_8">
</g>
<g id="Layer_7">
</g>
<g id="Layer_6">
</g>
<g id="Layer_5">
</g>
<g id="Layer_4">
</g>
<g id="Layer_3">
</g>
<g id="Layer_2">
</g>
</svg>
