<?xml version="1.0" encoding="utf-8"?>
<!-- Generator: Adobe Illustrator 16.0.0, SVG Export Plug-In . SVG Version: 6.00 Build 0)  -->
<!DOCTYPE svg PUBLIC "-//W3C//DTD SVG 1.1//EN" "http://www.w3.org/Graphics/SVG/1.1/DTD/svg11.dtd">
<svg version="1.1" xmlns="http://www.w3.org/2000/svg" xmlns:xlink="http://www.w3.org/1999/xlink" x="0px" y="0px"
	 width="50.314px" height="44px" viewBox="0 0 50.314 44" enable-background="new 0 0 50.314 44" xml:space="preserve">
<g id="Layer_11">
</g>
<g id="Layer_10">
</g>
<g id="Layer_9">
</g>
<g id="Layer_8">
</g>
<g id="Layer_7">
</g>
<g id="Layer_6">
</g>
<g id="Layer_5">
</g>
<g id="Layer_4">
</g>
<g id="Layer_3">
</g>
<g id="Layer_2">
	<path fill="#ED1C24" d="M25.08,39.694c9.811,0,17.765-7.954,17.765-17.765c0-9.812-7.954-17.765-17.765-17.765
		S7.314,12.118,7.314,21.93C7.314,31.74,15.27,39.694,25.08,39.694"/>
	<path fill="#FFFFFF" d="M25.07,35.066c7.258,0,13.143-5.884,13.143-13.143c0-7.258-5.885-13.143-13.143-13.143
		s-13.143,5.885-13.143,13.143C11.928,29.183,17.813,35.066,25.07,35.066"/>
	<path fill="#ED1C24" d="M14.559,22.684c-0.064,0-0.116-0.056-0.116-0.123v-1.06c0-0.067,0.052-0.123,0.116-0.123h0.074
		c0.064,0,0.116,0.056,0.116,0.123v1.06c0,0.067-0.052,0.123-0.116,0.123H14.559z M17.573,22.299h2.55v0.407h-2.55V22.299z
		 M18.859,23.74h2.902v1.287c0,0.251,0.19,0.241,0.19,0.241h0.876c0,0,0.189,0.01,0.189-0.241V23.74h0.084l0.593-0.644v-2.052
		l-0.593-0.422l-0.854-1.976c-1.911-0.242-3.399-0.262-3.399-0.252c0-0.01-1.488,0.01-3.398,0.252l-0.855,1.976l-0.591,0.422v2.052
		l0.591,0.644h0.084v1.287c0,0.251,0.19,0.241,0.19,0.241h0.876c0,0,0.189,0.01,0.189-0.241V23.74h2.903H18.859z M15.122,20.61
		l-0.01,0.02l0.653-1.49c1.91-0.241,3.082-0.262,3.082-0.251c0-0.011,1.172,0.01,3.082,0.251l0.654,1.471l-0.01,0.023
		c0.01-0.004-3.727-0.033-3.727-0.023C18.848,20.601,15.122,20.61,15.122,20.61 M23.074,22.684c-0.064,0-0.116-0.056-0.116-0.123
		v-1.06c0-0.067,0.052-0.123,0.116-0.123h0.074c0.064,0,0.117,0.056,0.117,0.123v1.06c0,0.067-0.053,0.123-0.117,0.123H23.074z"/>
	<path d="M26.986,22.684c0.064,0,0.116-0.056,0.116-0.123v-1.06c0-0.067-0.052-0.123-0.116-0.123h-0.074
		c-0.064,0-0.115,0.056-0.115,0.123v1.06c0,0.067,0.051,0.123,0.115,0.123H26.986z M31.191,23.74h-2.904v1.287
		c0,0.251-0.188,0.241-0.188,0.241h-0.877c0,0-0.19,0.01-0.19-0.241V23.74h-0.084l-0.591-0.644v-2.052l0.591-0.422l0.855-1.976
		c1.911-0.242,3.398-0.262,3.398-0.252c0-0.01,1.489,0.01,3.399,0.252l0.854,1.976l0.593,0.422v2.052l-0.593,0.644h-0.084v1.287
		c0,0.251-0.189,0.241-0.189,0.241h-0.876c0,0-0.19,0.01-0.19-0.241V23.74h-2.902H31.191z M31.201,20.61
		c0-0.01,3.736,0.02,3.728,0.023l0.009-0.023l-0.652-1.471c-1.912-0.241-3.084-0.262-3.084-0.251c0-0.011-1.172,0.01-3.082,0.251
		l-0.653,1.49l0.01-0.02C27.476,20.61,31.201,20.601,31.201,20.61 M29.927,22.706h2.55v-0.407h-2.55V22.706z M35.502,22.684
		c0.064,0,0.117-0.056,0.117-0.123v-1.06c0-0.067-0.053-0.123-0.117-0.123h-0.074c-0.064,0-0.116,0.056-0.116,0.123v1.06
		c0,0.067,0.052,0.123,0.116,0.123H35.502z"/>
	<path fill="#FFFFFF" d="M25.08,5.288c4.445,0,8.624,1.731,11.768,4.874c3.143,3.143,4.875,7.322,4.875,11.767
		c0,4.445-1.732,8.625-4.875,11.769c-3.144,3.143-7.322,4.874-11.768,4.874s-8.624-1.731-11.768-4.874
		c-3.143-3.144-4.873-7.323-4.873-11.769c0-4.445,1.73-8.624,4.873-11.767C16.456,7.019,20.635,5.288,25.08,5.288 M25.08,4.518
		c-9.616,0-17.411,7.795-17.411,17.411c0,9.616,7.795,17.412,17.411,17.412c9.615,0,17.412-7.796,17.412-17.412
		C42.492,12.313,34.695,4.518,25.08,4.518"/>
	<rect fill="none" width="50.314" height="44"/>
</g>
</svg>
