<?xml version="1.0" encoding="utf-8"?>
<!-- Generator: Adobe Illustrator 16.0.0, SVG Export Plug-In . SVG Version: 6.00 Build 0)  -->
<!DOCTYPE svg PUBLIC "-//W3C//DTD SVG 1.1//EN" "http://www.w3.org/Graphics/SVG/1.1/DTD/svg11.dtd">
<svg version="1.1" xmlns="http://www.w3.org/2000/svg" xmlns:xlink="http://www.w3.org/1999/xlink" x="0px" y="0px"
	 width="50.314px" height="44px" viewBox="0 0 50.314 44" enable-background="new 0 0 50.314 44" xml:space="preserve">
<g id="Layer_11">
	<path fill="#ED1C24" d="M24.938,39.842c9.812,0,17.766-7.953,17.766-17.764c0-9.813-7.954-17.766-17.766-17.766
		c-9.811,0-17.765,7.953-17.765,17.766C7.173,31.889,15.127,39.842,24.938,39.842"/>
	<path fill="#FFFFFF" d="M24.929,35.215c7.258,0,13.143-5.885,13.143-13.143S32.187,8.928,24.929,8.928
		c-7.259,0-13.144,5.887-13.144,13.145S17.67,35.215,24.929,35.215"/>
	<path d="M33.259,23.908c1.075,0,1.945-0.82,1.945-1.83c0-1.012-0.87-1.832-1.945-1.832H16.616c-1.073,0-1.944,0.82-1.944,1.832
		c0,1.01,0.871,1.83,1.944,1.83H33.259z"/>
	<path fill="#FFFFFF" d="M24.929,5.43c4.444,0,8.624,1.732,11.767,4.875s4.875,7.322,4.875,11.766c0,4.445-1.732,8.625-4.875,11.77
		c-3.143,3.143-7.322,4.873-11.767,4.873c-4.445,0-8.624-1.73-11.768-4.873c-3.144-3.145-4.874-7.324-4.874-11.77
		c0-4.443,1.73-8.623,4.874-11.766S20.483,5.43,24.929,5.43 M24.929,4.66c-9.616,0-17.411,7.797-17.411,17.41
		c0,9.617,7.795,17.412,17.411,17.412c9.615,0,17.411-7.795,17.411-17.412C42.34,12.457,34.544,4.66,24.929,4.66"/>
	<rect fill="none" width="50.314" height="44"/>
</g>
<g id="Layer_10">
</g>
<g id="Layer_9">
</g>
<g id="Layer_8">
</g>
<g id="Layer_7">
</g>
<g id="Layer_6">
</g>
<g id="Layer_5">
</g>
<g id="Layer_4">
</g>
<g id="Layer_3">
</g>
<g id="Layer_2">
</g>
</svg>
