<?xml version="1.0" encoding="utf-8"?>
<!-- Generator: Adobe Illustrator 16.0.0, SVG Export Plug-In . SVG Version: 6.00 Build 0)  -->
<!DOCTYPE svg PUBLIC "-//W3C//DTD SVG 1.1//EN" "http://www.w3.org/Graphics/SVG/1.1/DTD/svg11.dtd">
<svg version="1.1" xmlns="http://www.w3.org/2000/svg" xmlns:xlink="http://www.w3.org/1999/xlink" x="0px" y="0px"
	 width="50.314px" height="44px" viewBox="0 0 50.314 44" enable-background="new 0 0 50.314 44" xml:space="preserve">
<g id="Layer_11">
</g>
<g id="Layer_10">
</g>
<g id="Layer_9">
</g>
<g id="Layer_8">
</g>
<g id="Layer_7">
</g>
<g id="Layer_6">
</g>
<g id="Layer_5">
</g>
<g id="Layer_4">
</g>
<g id="Layer_3">
	<path fill="#FFFFFF" d="M25.058,39.965c9.811,0,17.765-7.954,17.765-17.765c0-9.812-7.954-17.766-17.765-17.766
		c-9.812,0-17.766,7.954-17.766,17.766C7.292,32.011,15.246,39.965,25.058,39.965"/>
	<circle fill="none" stroke="#000000" stroke-width="0.22" cx="25.058" cy="22.2" r="17.765"/>
	<path fill="#C7C8CA" d="M12.104,22.96c-0.085,0-0.153-0.073-0.153-0.162v-1.404c0-0.089,0.068-0.161,0.153-0.161h0.099
		c0.085,0,0.154,0.072,0.154,0.161v1.404c0,0.089-0.069,0.162-0.154,0.162H12.104z M16.095,22.45h3.378v0.541h-3.378V22.45z
		 M17.798,24.36h3.846v1.703c0,0.334,0.252,0.32,0.252,0.32h1.159c0,0,0.252,0.014,0.252-0.32V24.36h0.112l0.782-0.853v-2.717
		l-0.782-0.559l-1.133-2.619c-2.531-0.319-4.502-0.346-4.502-0.333c0-0.013-1.971,0.014-4.502,0.333l-1.132,2.619l-0.783,0.559
		v2.717l0.783,0.853h0.111v1.703c0,0.334,0.251,0.32,0.251,0.32h1.161c0,0,0.251,0.014,0.251-0.32V24.36h3.846H17.798z
		 M12.849,20.215l-0.012,0.026l0.865-1.974c2.53-0.32,4.082-0.346,4.082-0.333c0-0.013,1.552,0.013,4.083,0.333l0.865,1.948
		l-0.014,0.03c0.014-0.004-4.935-0.044-4.935-0.03C17.784,20.201,12.849,20.215,12.849,20.215 M23.381,22.96
		c-0.085,0-0.152-0.073-0.152-0.162v-1.404c0-0.089,0.067-0.161,0.152-0.161h0.1c0.085,0,0.153,0.072,0.153,0.161v1.404
		c0,0.089-0.068,0.162-0.153,0.162H23.381z"/>
	<path fill="#C7C8CA" d="M27.34,22.96c0.085,0,0.153-0.073,0.153-0.162v-1.404c0-0.089-0.068-0.161-0.153-0.161h-0.1
		c-0.085,0-0.153,0.072-0.153,0.161v1.404c0,0.089,0.068,0.162,0.153,0.162H27.34z M32.907,24.36h-3.845v1.703
		c0,0.334-0.251,0.32-0.251,0.32H27.65c0,0-0.251,0.014-0.251-0.32V24.36h-0.111l-0.783-0.853v-2.717l0.783-0.559l1.132-2.619
		c2.531-0.319,4.502-0.346,4.502-0.333c0-0.013,1.971,0.014,4.502,0.333l1.132,2.619l0.783,0.559v2.717l-0.783,0.853h-0.111v1.703
		c0,0.334-0.252,0.32-0.252,0.32h-1.161c0,0-0.251,0.014-0.251-0.32V24.36h-3.845H32.907z M32.922,20.215
		c0-0.014,4.948,0.026,4.935,0.03l0.014-0.03l-0.865-1.948c-2.531-0.32-4.083-0.346-4.083-0.333c0-0.013-1.552,0.013-4.082,0.333
		l-0.866,1.974l0.013-0.026C27.986,20.215,32.922,20.201,32.922,20.215 M31.232,22.991h3.378V22.45h-3.378V22.991z M38.618,22.96
		c0.085,0,0.153-0.073,0.153-0.162v-1.404c0-0.089-0.068-0.161-0.153-0.161h-0.1c-0.085,0-0.154,0.072-0.154,0.161v1.404
		c0,0.089,0.069,0.162,0.154,0.162H38.618z"/>
	<path d="M31.531,7.627L15.7,35.049l0.005,0.01c-0.439-0.313-0.862-0.648-1.267-1.004l0.014-0.008L30.043,7.041V7.032
		c0.508,0.172,1.004,0.369,1.486,0.589L31.531,7.627z"/>
	<path d="M33.659,8.788L17.775,36.3l-0.005,0.01c-0.474-0.24-0.933-0.501-1.376-0.785l0.003-0.002L32.29,7.994l0.008,0.003
		c0.467,0.243,0.92,0.51,1.357,0.797L33.659,8.788z"/>
	<path d="M35.594,10.284L20.026,37.247l0.014-0.003c-0.515-0.166-1.018-0.358-1.508-0.574l-0.001,0.001l15.82-27.399l0.006,0.01
		c0.43,0.317,0.845,0.655,1.241,1.013L35.594,10.284z"/>
	<rect fill="none" width="50.314" height="44"/>
</g>
<g id="Layer_2">
</g>
</svg>
