<?xml version="1.0" encoding="utf-8"?>
<!-- Generator: Adobe Illustrator 16.0.0, SVG Export Plug-In . SVG Version: 6.00 Build 0)  -->
<!DOCTYPE svg PUBLIC "-//W3C//DTD SVG 1.1//EN" "http://www.w3.org/Graphics/SVG/1.1/DTD/svg11.dtd">
<svg version="1.1" xmlns="http://www.w3.org/2000/svg" xmlns:xlink="http://www.w3.org/1999/xlink" x="0px" y="0px"
	 width="50.315px" height="44px" viewBox="0 0 50.315 44" enable-background="new 0 0 50.315 44" xml:space="preserve">
<g id="Layer_11">
</g>
<g id="Layer_10">
</g>
<g id="Layer_9">
</g>
<g id="Layer_8">
</g>
<g id="Layer_7">
</g>
<g id="Layer_6">
</g>
<g id="Layer_5">
</g>
<g id="Layer_4">
	<path fill="#ED1C24" d="M25.033,39.838c9.811,0,17.765-7.954,17.765-17.765c0-9.811-7.954-17.765-17.765-17.765
		c-9.812,0-17.766,7.954-17.766,17.765C7.268,31.884,15.222,39.838,25.033,39.838"/>
	<path fill="#FFFFFF" d="M25.023,35.21c7.258,0,13.143-5.884,13.143-13.143c0-7.258-5.885-13.143-13.143-13.143
		S11.88,14.81,11.88,22.067C11.88,29.326,17.766,35.21,25.023,35.21"/>
	<path d="M26.157,25.957c0.064,0,0.119-0.058,0.119-0.126v-1.092c0-0.069-0.055-0.127-0.119-0.127H26.08
		c-0.066,0-0.12,0.058-0.12,0.127v1.092c0,0.068,0.054,0.126,0.12,0.126H26.157z M30.487,27.046h-2.99v1.325
		c0,0.259-0.196,0.248-0.196,0.248h-0.901c0,0-0.196,0.011-0.196-0.248v-1.325h-0.087l-0.609-0.663V24.27l0.609-0.434l0.881-2.036
		c1.968-0.249,3.501-0.27,3.501-0.259c0-0.011,1.533,0.01,3.5,0.259l0.881,2.036l0.609,0.434v2.113l-0.609,0.663h-0.087v1.325
		c0,0.259-0.196,0.248-0.196,0.248h-0.901c0,0-0.196,0.011-0.196-0.248v-1.325h-2.99H30.487z M30.498,23.821
		c0-0.01,3.847,0.021,3.838,0.024l0.009-0.024l-0.673-1.515c-1.968-0.248-3.174-0.269-3.174-0.259c0-0.01-1.207,0.011-3.175,0.259
		l-0.673,1.535l0.01-0.021C26.66,23.821,30.498,23.812,30.498,23.821 M29.184,25.98h2.628V25.56h-2.628V25.98z M34.927,25.957
		c0.066,0,0.119-0.058,0.119-0.126v-1.092c0-0.069-0.053-0.127-0.119-0.127H34.85c-0.065,0-0.118,0.058-0.118,0.127v1.092
		c0,0.068,0.053,0.126,0.118,0.126H34.927z"/>
	<path fill="#ED1C24" d="M20.452,27.626l2.336-0.056c0.009,0.294-0.008,0.887,0.088,0.98c0.083,0.081,0.245,0.074,0.497,0.069
		c0.229-0.004,0.42,0.043,0.537-0.095c0.072-0.086,0.051-0.67,0.051-1.304c0-0.614,0.021-1.133-0.065-1.21
		c-0.101-0.09-0.265-0.067-0.525-0.067c-0.254,0-0.423-0.039-0.518,0.055c-0.101,0.097-0.047,0.337-0.064,0.924l-2.342-0.143
		c0,0-0.274-0.482-0.831-0.491c-0.557-0.008-0.827,0.492-0.827,0.492l-2.349,0.143c-0.019-0.587,0.053-0.742-0.055-0.9
		c-0.049-0.072-0.267-0.074-0.521-0.078c-0.26-0.004-0.447,0.001-0.516,0.066c-0.107,0.104-0.105,0.563-0.105,1.191
		c0,0.632-0.029,1.259,0.099,1.366c0.093,0.077,0.302,0.047,0.528,0.051c0.253,0.005,0.401,0.017,0.488-0.068
		c0.12-0.117,0.066-0.687,0.076-0.979l2.345,0.055c0,0,0.288,0.449,0.836,0.449C20.109,28.076,20.452,27.626,20.452,27.626"/>
	<path fill="#ED1C24" d="M23.988,24.141c0-6.662,0.015-8.126-0.267-8.408c-0.197-0.196-1.07-0.17-4.178-0.17
		c-2.792,0-3.848-0.129-4.147,0.17c-0.255,0.256-0.191,1.106-0.191,8.408H23.988z"/>
	<rect x="15.127" y="24.736" fill="#ED1C24" width="8.949" height="0.732"/>
	<path fill="#FFFFFF" d="M25.023,5.426c4.445,0,8.624,1.731,11.767,4.874c3.144,3.143,4.875,7.322,4.875,11.768
		c0,4.444-1.731,8.625-4.875,11.768c-3.143,3.143-7.321,4.874-11.767,4.874s-8.624-1.731-11.768-4.874s-4.873-7.323-4.873-11.768
		c0-4.445,1.729-8.625,4.873-11.768S20.578,5.426,25.023,5.426 M25.023,4.656c-9.616,0-17.411,7.795-17.411,17.412
		c0,9.615,7.795,17.411,17.411,17.411s17.412-7.796,17.412-17.411C42.436,12.451,34.64,4.656,25.023,4.656"/>
	<rect fill="none" width="50.315" height="44"/>
</g>
<g id="Layer_3">
</g>
<g id="Layer_2">
</g>
</svg>
