<?xml version="1.0" encoding="utf-8"?>
<!-- Generator: Adobe Illustrator 16.0.0, SVG Export Plug-In . SVG Version: 6.00 Build 0)  -->
<!DOCTYPE svg PUBLIC "-//W3C//DTD SVG 1.1//EN" "http://www.w3.org/Graphics/SVG/1.1/DTD/svg11.dtd">
<svg version="1.1" xmlns="http://www.w3.org/2000/svg" xmlns:xlink="http://www.w3.org/1999/xlink" x="0px" y="0px"
	 width="50.314px" height="44px" viewBox="0 0 50.314 44" enable-background="new 0 0 50.314 44" xml:space="preserve">
<g id="Layer_11">
</g>
<g id="Layer_10">
</g>
<g id="Layer_9">
</g>
<g id="Layer_8">
</g>
<g id="Layer_7">
</g>
<g id="Layer_6">
</g>
<g id="Layer_5">
	<path fill="#FFFFFF" d="M25.149,39.62c9.763,0,17.676-7.914,17.676-17.676S34.912,4.269,25.149,4.269S7.474,12.183,7.474,21.944
		S15.387,39.62,25.149,39.62"/>
	<circle fill="none" stroke="#000000" stroke-width="0.22" cx="25.149" cy="21.944" r="17.676"/>
	<path fill="#C7C8CA" d="M27.261,25.14c0.085,0,0.153-0.073,0.153-0.162v-1.404c0-0.089-0.068-0.162-0.153-0.162h-0.099
		c-0.086,0-0.154,0.073-0.154,0.162v1.404c0,0.089,0.068,0.162,0.154,0.162H27.261z M32.828,26.539h-3.845v1.704
		c0,0.333-0.251,0.32-0.251,0.32h-1.161c0,0-0.251,0.013-0.251-0.32v-1.704h-0.111l-0.783-0.852V22.97l0.783-0.559l1.131-2.618
		c2.531-0.318,4.502-0.346,4.502-0.333c0-0.013,1.972,0.015,4.503,0.333l1.132,2.618l0.783,0.559v2.718l-0.783,0.852h-0.111v1.704
		c0,0.333-0.252,0.32-0.252,0.32h-1.16c0,0-0.252,0.013-0.252-0.32v-1.704h-3.845H32.828z M32.842,22.395
		c0-0.015,4.949,0.025,4.936,0.029l0.014-0.029l-0.865-1.948c-2.531-0.32-4.084-0.346-4.084-0.333c0-0.013-1.551,0.013-4.081,0.333
		l-0.866,1.974l0.014-0.025C27.908,22.395,32.842,22.38,32.842,22.395 M31.153,25.17h3.378v-0.541h-3.378V25.17z M38.539,25.14
		c0.084,0,0.152-0.073,0.152-0.162v-1.404c0-0.089-0.068-0.162-0.152-0.162h-0.1c-0.085,0-0.154,0.073-0.154,0.162v1.404
		c0,0.089,0.069,0.162,0.154,0.162H38.539z"/>
	<path fill="#C7C8CA" d="M19.783,27.145l3.004-0.071c0.012,0.377-0.01,1.14,0.113,1.26c0.105,0.105,0.314,0.097,0.641,0.09
		c0.291-0.006,0.539,0.055,0.688-0.122c0.093-0.111,0.067-0.862,0.067-1.676c0-0.791,0.024-1.457-0.086-1.556
		c-0.129-0.116-0.34-0.088-0.676-0.088c-0.326,0-0.543-0.05-0.666,0.071c-0.127,0.125-0.059,0.434-0.082,1.188l-3.012-0.184
		c0,0-0.352-0.62-1.068-0.631c-0.717-0.012-1.063,0.633-1.063,0.633l-3.021,0.184c-0.022-0.755,0.068-0.955-0.069-1.159
		c-0.062-0.093-0.343-0.095-0.671-0.1c-0.334-0.005-0.574,0.001-0.662,0.086c-0.139,0.133-0.137,0.724-0.137,1.531
		c0,0.813-0.035,1.618,0.129,1.756c0.119,0.1,0.387,0.061,0.679,0.066c0.325,0.007,0.515,0.022,0.628-0.089
		c0.154-0.15,0.086-0.882,0.098-1.26l3.016,0.072c0,0,0.369,0.577,1.074,0.577C19.342,27.724,19.783,27.145,19.783,27.145"/>
	<path fill="#C7C8CA" d="M24.331,22.663c0-8.567,0.019-10.45-0.345-10.813c-0.252-0.253-1.375-0.219-5.37-0.219
		c-3.593,0-4.948-0.166-5.333,0.219c-0.329,0.329-0.247,1.422-0.247,10.813H24.331z"/>
	<rect x="12.937" y="23.428" fill="#C7C8CA" width="11.508" height="0.942"/>
	<path d="M31.662,7.433L15.83,34.854l0.006,0.01c-0.439-0.313-0.862-0.648-1.266-1.004l0.012-0.008L30.174,6.848V6.837
		c0.508,0.172,1.004,0.368,1.486,0.589L31.662,7.433z"/>
	<path d="M33.791,8.593L17.906,36.105l-0.005,0.01c-0.474-0.239-0.933-0.501-1.376-0.785l0.003-0.002L32.422,7.799l0.008,0.003
		c0.466,0.243,0.918,0.511,1.356,0.797L33.791,8.593z"/>
	<path d="M35.725,10.089L20.157,37.052l0.015-0.003c-0.516-0.167-1.019-0.357-1.51-0.574v0.002l15.82-27.399l0.006,0.01
		c0.43,0.317,0.846,0.655,1.241,1.014L35.725,10.089z"/>
	<rect fill="none" width="50.314" height="44"/>
</g>
<g id="Layer_4">
</g>
<g id="Layer_3">
</g>
<g id="Layer_2">
</g>
</svg>
