<?xml version="1.0" encoding="utf-8"?>
<!-- Generator: Adobe Illustrator 16.0.0, SVG Export Plug-In . SVG Version: 6.00 Build 0)  -->
<!DOCTYPE svg PUBLIC "-//W3C//DTD SVG 1.1//EN" "http://www.w3.org/Graphics/SVG/1.1/DTD/svg11.dtd">
<svg version="1.1" xmlns="http://www.w3.org/2000/svg" xmlns:xlink="http://www.w3.org/1999/xlink" x="0px" y="0px"
	 width="50.314px" height="44px" viewBox="0 0 50.314 44" enable-background="new 0 0 50.314 44" xml:space="preserve">
<g id="Layer_11">
</g>
<g id="Layer_10">
</g>
<g id="Layer_9">
</g>
<g id="Layer_8">
</g>
<g id="Layer_7">
</g>
<g id="Layer_6">
	<path fill="#ED1C24" d="M24.938,39.752c9.812,0,17.766-7.954,17.766-17.765S34.749,4.223,24.938,4.223
		c-9.811,0-17.764,7.954-17.764,17.765S15.127,39.752,24.938,39.752"/>
	<path fill="#FFFFFF" d="M24.929,35.125c7.258,0,13.144-5.885,13.144-13.144c0-7.258-5.886-13.143-13.144-13.143
		s-13.144,5.885-13.144,13.143C11.785,29.24,17.671,35.125,24.929,35.125"/>
	<path fill="#ED1C24" d="M30.944,30.813V19.576l2.549,0.594c0.618,0.242,1.103-0.076,0.755-0.672l-3.89-5.587
		c-0.351-0.5-0.649-0.5-1,0l-3.89,5.587c-0.349,0.596,0.137,0.914,0.754,0.672l2.55-0.594v11.237H30.944z"/>
	<path d="M18.664,12.983V24.22l-2.549-0.593c-0.618-0.243-1.104,0.076-0.756,0.672l3.891,5.586c0.352,0.5,0.648,0.5,1,0l3.891-5.586
		c0.348-0.596-0.138-0.915-0.756-0.672l-2.549,0.593V12.983H18.664z"/>
	<path fill="#FFFFFF" d="M24.938,5.346c4.445,0,8.625,1.731,11.768,4.874c3.145,3.144,4.875,7.322,4.875,11.767
		c0,4.445-1.73,8.625-4.875,11.769c-3.143,3.143-7.322,4.874-11.768,4.874c-4.444,0-8.623-1.731-11.767-4.874
		c-3.143-3.144-4.874-7.323-4.874-11.769c0-4.444,1.731-8.623,4.874-11.767C16.314,7.077,20.493,5.346,24.938,5.346 M24.938,4.576
		c-9.615,0-17.41,7.795-17.41,17.41c0,9.616,7.795,17.412,17.41,17.412c9.617,0,17.412-7.796,17.412-17.412
		C42.35,12.371,34.555,4.576,24.938,4.576"/>
	<rect fill="none" width="50.314" height="44"/>
</g>
<g id="Layer_5">
</g>
<g id="Layer_4">
</g>
<g id="Layer_3">
</g>
<g id="Layer_2">
</g>
</svg>
