<?xml version="1.0" encoding="utf-8"?>
<!-- Generator: Adobe Illustrator 16.0.0, SVG Export Plug-In . SVG Version: 6.00 Build 0)  -->
<!DOCTYPE svg PUBLIC "-//W3C//DTD SVG 1.1//EN" "http://www.w3.org/Graphics/SVG/1.1/DTD/svg11.dtd">
<svg version="1.1" xmlns="http://www.w3.org/2000/svg" xmlns:xlink="http://www.w3.org/1999/xlink" x="0px" y="0px"
	 width="50.314px" height="44px" viewBox="0 0 50.314 44" enable-background="new 0 0 50.314 44" xml:space="preserve">
<g id="Layer_11">
</g>
<g id="Layer_10">
</g>
<g id="Layer_9">
</g>
<g id="Layer_8">
</g>
<g id="Layer_7">
	<rect x="7.272" y="4.343" fill="#007DC5" width="35.724" height="35.724"/>
	<path fill="none" stroke="#FFFFFF" stroke-width="0.798" d="M40.175,39.126c1.038,0,1.88-0.842,1.88-1.88V7.163
		c0-1.039-0.842-1.88-1.88-1.88H10.091c-1.037,0-1.88,0.841-1.88,1.88v30.083c0,1.038,0.843,1.88,1.88,1.88H40.175z"/>
	<path fill="#FFFFFF" d="M33.945,34.739V18.368l3.714,0.864c0.899,0.355,1.607-0.11,1.1-0.979l-5.667-8.139
		c-0.512-0.728-0.945-0.728-1.457,0l-5.666,8.139c-0.508,0.868,0.2,1.334,1.099,0.979l3.714-0.864v16.371H33.945z"/>
	<path fill="#ED1C24" d="M17.958,35.279c-0.488,0-0.829-0.404-1.043-0.709l-5.668-8.14c-0.006-0.009-0.011-0.017-0.016-0.026
		c-0.347-0.591-0.214-1-0.104-1.19c0.178-0.311,0.527-0.487,0.958-0.487c0.221,0,0.454,0.046,0.691,0.136l3.215,0.748V9.725
		c0-0.212,0.172-0.385,0.385-0.385h3.164c0.213,0,0.385,0.173,0.385,0.385V25.61l3.215-0.748c0.237-0.09,0.471-0.136,0.691-0.136
		c0.431,0,0.78,0.177,0.957,0.487c0.11,0.19,0.243,0.6-0.104,1.19c-0.005,0.01-0.01,0.018-0.016,0.026l-5.666,8.138
		C18.787,34.875,18.446,35.279,17.958,35.279"/>
	<path fill="#FFFFFF" d="M19.54,9.725v16.371l3.714-0.864c0.207-0.082,0.403-0.12,0.577-0.12c0.583,0,0.913,0.43,0.522,1.099
		l-5.666,8.139c-0.258,0.364-0.493,0.546-0.729,0.546s-0.473-0.182-0.729-0.546l-5.666-8.139c-0.392-0.669-0.062-1.099,0.521-1.099
		c0.174,0,0.37,0.038,0.577,0.12l3.714,0.864V9.725H19.54 M19.54,8.955h-3.164c-0.426,0-0.77,0.345-0.77,0.77v15.401l-2.72-0.633
		c-0.271-0.101-0.542-0.151-0.802-0.151c-0.573,0-1.044,0.248-1.292,0.68c-0.15,0.264-0.338,0.819,0.105,1.577
		c0.01,0.018,0.021,0.035,0.032,0.051l5.666,8.14c0.155,0.219,0.617,0.876,1.361,0.876s1.206-0.657,1.358-0.873l5.669-8.143
		c0.011-0.016,0.021-0.033,0.033-0.051c0.442-0.758,0.256-1.313,0.104-1.577c-0.248-0.432-0.718-0.68-1.291-0.68
		c-0.26,0-0.53,0.051-0.803,0.151l-2.718,0.633V9.725C20.311,9.3,19.965,8.955,19.54,8.955"/>
	<rect fill="none" width="50.314" height="44"/>
</g>
<g id="Layer_6">
</g>
<g id="Layer_5">
</g>
<g id="Layer_4">
</g>
<g id="Layer_3">
</g>
<g id="Layer_2">
</g>
</svg>
