<?xml version="1.0" encoding="utf-8"?>
<!-- Generator: Adobe Illustrator 16.0.0, SVG Export Plug-In . SVG Version: 6.00 Build 0)  -->
<!DOCTYPE svg PUBLIC "-//W3C//DTD SVG 1.1//EN" "http://www.w3.org/Graphics/SVG/1.1/DTD/svg11.dtd">
<svg version="1.1" xmlns="http://www.w3.org/2000/svg" xmlns:xlink="http://www.w3.org/1999/xlink" x="0px" y="0px"
	 width="50.315px" height="44px" viewBox="0 0 50.315 44" enable-background="new 0 0 50.315 44" xml:space="preserve">
<g id="Layer_11">
</g>
<g id="Layer_10">
</g>
<g id="Layer_9">
</g>
<g id="Layer_8">
	<path fill="#ED1C24" d="M25.292,39.713c9.812,0,17.766-7.954,17.766-17.765c0-9.812-7.954-17.765-17.766-17.765
		c-9.811,0-17.765,7.953-17.765,17.765C7.527,31.759,15.481,39.713,25.292,39.713"/>
	<path fill="#FFFFFF" d="M25.283,35.085c7.259,0,13.143-5.884,13.143-13.143c0-7.258-5.884-13.143-13.143-13.143
		S12.14,14.685,12.14,21.942C12.14,29.201,18.024,35.085,25.283,35.085"/>
	<path d="M21.913,17.273v3.246l3.131-0.729c0.759-0.299,1.355,0.093,0.927,0.826l-4.778,6.862c-0.432,0.613-0.796,0.613-1.228,0
		l-4.778-6.862c-0.429-0.733,0.168-1.125,0.926-0.826l3.133,0.729v-3.246c0-7.865,12.758-7.811,12.758,0v12.649h-2.75V17.273
		C29.253,13.038,21.913,13.038,21.913,17.273"/>
	<path fill="#FFFFFF" d="M25.283,5.301c4.444,0,8.624,1.731,11.767,4.874c3.145,3.144,4.875,7.322,4.875,11.768
		c0,4.444-1.73,8.625-4.875,11.768c-3.143,3.143-7.322,4.874-11.767,4.874c-4.445,0-8.624-1.731-11.768-4.874
		c-3.143-3.143-4.874-7.323-4.874-11.768c0-4.445,1.731-8.624,4.874-11.768C16.659,7.032,20.838,5.301,25.283,5.301 M25.283,4.531
		c-9.616,0-17.411,7.795-17.411,17.411c0,9.615,7.795,17.411,17.411,17.411c9.615,0,17.412-7.796,17.412-17.411
		C42.695,12.326,34.898,4.531,25.283,4.531"/>
	<rect fill="none" width="50.315" height="44"/>
</g>
<g id="Layer_7">
</g>
<g id="Layer_6">
</g>
<g id="Layer_5">
</g>
<g id="Layer_4">
</g>
<g id="Layer_3">
</g>
<g id="Layer_2">
</g>
</svg>
