<?xml version="1.0" encoding="utf-8"?>
<!-- Generator: Adobe Illustrator 16.0.0, SVG Export Plug-In . SVG Version: 6.00 Build 0)  -->
<!DOCTYPE svg PUBLIC "-//W3C//DTD SVG 1.1//EN" "http://www.w3.org/Graphics/SVG/1.1/DTD/svg11.dtd">
<svg version="1.1" xmlns="http://www.w3.org/2000/svg" xmlns:xlink="http://www.w3.org/1999/xlink" x="0px" y="0px"
	 width="50.314px" height="44px" viewBox="0 0 50.314 44" enable-background="new 0 0 50.314 44" xml:space="preserve">
<g id="Layer_11">
</g>
<g id="Layer_10">
</g>
<g id="Layer_9">
	<path fill="#FFFFFF" d="M25.088,39.809c9.811,0,17.766-7.953,17.766-17.766c0-9.811-7.955-17.764-17.766-17.764
		S7.323,12.232,7.323,22.043C7.323,31.855,15.277,39.809,25.088,39.809"/>
	<circle fill="none" stroke="#000000" stroke-width="0.22" cx="25.088" cy="22.044" r="17.765"/>
	<path d="M31.681,7.561L15.849,34.982l0.005,0.01c-0.438-0.314-0.861-0.65-1.266-1.004l0.013-0.008L30.191,6.973V6.965
		c0.508,0.172,1.004,0.369,1.487,0.588L31.681,7.561z"/>
	<path d="M33.809,8.721L17.924,36.232l-0.004,0.01c-0.474-0.24-0.933-0.5-1.377-0.785l0.004-0.002L32.439,7.926l0.008,0.004
		c0.467,0.242,0.919,0.51,1.357,0.797L33.809,8.721z"/>
	<path d="M35.742,10.217L20.176,37.18l0.014-0.004c-0.516-0.166-1.018-0.357-1.508-0.572h-0.001L34.5,9.205l0.006,0.01
		c0.431,0.316,0.846,0.654,1.242,1.014L35.742,10.217z"/>
	<rect fill="none" width="50.314" height="44"/>
</g>
<g id="Layer_8">
</g>
<g id="Layer_7">
</g>
<g id="Layer_6">
</g>
<g id="Layer_5">
</g>
<g id="Layer_4">
</g>
<g id="Layer_3">
</g>
<g id="Layer_2">
</g>
</svg>
