<?xml version="1.0" encoding="utf-8"?>
<!-- Generator: Adobe Illustrator 16.0.0, SVG Export Plug-In . SVG Version: 6.00 Build 0)  -->
<!DOCTYPE svg PUBLIC "-//W3C//DTD SVG 1.1//EN" "http://www.w3.org/Graphics/SVG/1.1/DTD/svg11.dtd">
<svg version="1.1" xmlns="http://www.w3.org/2000/svg" xmlns:xlink="http://www.w3.org/1999/xlink" x="0px" y="0px"
	 width="50.314px" height="44px" viewBox="0 0 50.314 44" enable-background="new 0 0 50.314 44" xml:space="preserve">
<g id="Layer_11">
</g>
<g id="Layer_10">
	<rect x="7.223" y="4.352" width="35.317" height="28.275"/>
	<path fill="none" stroke="#FFFFFF" stroke-width="0.096" d="M40.188,32.182c1.044,0,1.891-0.855,1.891-1.908V6.705
		c0-1.055-0.847-1.908-1.891-1.908H9.576c-1.045,0-1.891,0.854-1.891,1.908v23.568c0,1.053,0.846,1.908,1.891,1.908H40.188z"/>
	<path fill="none" stroke="#FFFFFF" stroke-width="0.513" stroke-linecap="round" stroke-dasharray="0.041,1.724" d="M29.303,29.986
		c3.908,0,7.076-3.168,7.076-7.076v-8.842c0-3.908-3.168-7.076-7.076-7.076h-8.844c-3.906,0-7.074,3.168-7.074,7.076v8.842
		c0,3.908,3.168,7.076,7.074,7.076H29.303z"/>
	<path fill="none" stroke="#FFFFFF" stroke-width="0.513" stroke-linecap="round" stroke-dasharray="0.041,1.756" d="M28.564,28.066
		c3.256,0,5.894-2.639,5.894-5.893v-7.367c0-3.256-2.638-5.895-5.894-5.895h-7.367c-3.254,0-5.893,2.639-5.893,5.895v7.367
		c0,3.254,2.639,5.893,5.893,5.893H28.564z"/>
	<rect fill="none" width="50.314" height="44"/>
	
		<line fill="none" stroke="#FFFFFF" stroke-width="0.513" stroke-linecap="round" stroke-dasharray="0.041,1.854" x1="31.332" y1="9.623" x2="16.795" y2="26.098"/>
	
		<line fill="none" stroke="#FFFFFF" stroke-width="0.513" stroke-linecap="round" stroke-dasharray="0.041,1.854" x1="33.018" y1="10.91" x2="18.479" y2="27.385"/>
</g>
<g id="Layer_9">
</g>
<g id="Layer_8">
</g>
<g id="Layer_7">
</g>
<g id="Layer_6">
</g>
<g id="Layer_5">
</g>
<g id="Layer_4">
</g>
<g id="Layer_3">
</g>
<g id="Layer_2">
</g>
</svg>
