<?xml version="1.0" encoding="utf-8"?>
<!-- Generator: Adobe Illustrator 16.0.0, SVG Export Plug-In . SVG Version: 6.00 Build 0)  -->
<!DOCTYPE svg PUBLIC "-//W3C//DTD SVG 1.1//EN" "http://www.w3.org/Graphics/SVG/1.1/DTD/svg11.dtd">
<svg version="1.1" xmlns="http://www.w3.org/2000/svg" xmlns:xlink="http://www.w3.org/1999/xlink" x="0px" y="0px"
	 width="50.315px" height="44px" viewBox="0 0 50.315 44" enable-background="new 0 0 50.315 44" xml:space="preserve">
<g id="Layer_18">
</g>
<g id="Layer_17">
</g>
<g id="Layer_16">
</g>
<g id="Layer_15">
</g>
<g id="Layer_14">
</g>
<g id="Layer_13">
</g>
<g id="Layer_12">
</g>
<g id="Layer_11">
</g>
<g id="Layer_10">
</g>
<g id="Layer_9">
</g>
<g id="Layer_8">
</g>
<g id="Layer_7">
</g>
<g id="Layer_6">
</g>
<g id="Layer_5">
</g>
<g id="Layer_4">
</g>
<g id="Layer_3">
	<rect x="13.539" y="3.862" fill="#007DC5" width="23.377" height="36.082"/>
	<path fill="none" stroke="#FFFFFF" stroke-width="0.798" d="M34.066,38.994c1.049,0,1.899-0.85,1.899-1.899V6.709
		c0-1.049-0.85-1.899-1.899-1.899h-17.68c-1.049,0-1.899,0.85-1.899,1.899v30.385c0,1.049,0.85,1.899,1.899,1.899H34.066z"/>
	<rect fill="none" width="50.315" height="44"/>
	<polygon fill="#FFFFFF" points="22.033,15.083 24.401,6.942 24.896,6.942 24.38,15.082 	"/>
	<polygon fill="#FFFFFF" points="24.115,19.262 23.026,36.422 15.821,36.422 20.816,19.263 	"/>
	<polygon fill="#FFFFFF" points="28.421,15.083 26.052,6.942 25.557,6.942 26.073,15.082 	"/>
	<polygon fill="#FFFFFF" points="26.338,19.262 27.427,36.422 34.632,36.422 29.637,19.263 	"/>
	<polygon fill="#FFFFFF" points="31.346,17.172 31.346,19.262 32.79,19.262 32.79,17.172 34.577,17.172 34.577,16.127 
		15.876,16.127 15.876,17.172 17.665,17.172 17.665,19.262 19.107,19.262 19.107,17.172 	"/>
</g>
</svg>
