<?xml version="1.0" encoding="utf-8"?>
<!-- Generator: Adobe Illustrator 16.0.0, SVG Export Plug-In . SVG Version: 6.00 Build 0)  -->
<!DOCTYPE svg PUBLIC "-//W3C//DTD SVG 1.1//EN" "http://www.w3.org/Graphics/SVG/1.1/DTD/svg11.dtd">
<svg version="1.1" xmlns="http://www.w3.org/2000/svg" xmlns:xlink="http://www.w3.org/1999/xlink" x="0px" y="0px"
	 width="50.314px" height="44px" viewBox="0 0 50.314 44" enable-background="new 0 0 50.314 44" xml:space="preserve">
<g id="Layer_18">
</g>
<g id="Layer_17">
</g>
<g id="Layer_16">
</g>
<g id="Layer_15">
</g>
<g id="Layer_14">
</g>
<g id="Layer_13">
</g>
<g id="Layer_12">
	<path fill="#007DC5" d="M25.237,39.837c9.812,0,17.766-7.954,17.766-17.765c0-9.812-7.954-17.766-17.766-17.766
		c-9.811,0-17.765,7.954-17.765,17.766C7.473,31.883,15.427,39.837,25.237,39.837"/>
	<path fill="#FFFFFF" d="M13.798,14.178l3.079-0.109c1.596-0.551,5.886,4.234,5.886,4.234l2.31-0.88l-0.33-1.925l-0.385,0.55
		l-1.98,0.825l-0.439-0.495l2.035-1.265c0.22-3.355,2.859-3.355,3.245-0.715c0.282,1.942,0.494,3.079,0.494,3.079
		c0.165,0.44-0.109,0.881-0.109,0.881l1.814-0.275c2.529-0.284,3.245,0.385,3.245,0.385c1.32-0.825,4.817-0.956,4.896,2.86
		c0.044,2.142,1.21,2.75,1.21,2.75c-0.22,0.715-2.476,0.99-2.86-0.495c-0.387-1.492-0.165-4.785-2.475-4.675l-0.165,0.055
		c1.1,0.771,1.76,2.356,1.045,3.905c-0.99,2.145,0.604,3.245,0.604,3.245v2.035c0.33,1.595,1.375,2.529,1.375,2.529v1.485
		c-2.145-0.936-1.869-2.75-1.869-2.75c-0.056-2.805-2.53-3.96-2.53-3.96l-0.056,1.979l-0.55,1.155l-0.109,2.255
		c-1.485,0.495-1.485,1.815-1.485,1.815l-1.32-0.056c-0.109-1.154,0.825-1.21,0.825-1.21c3.08-3.96-0.055-7.534-0.055-7.534
		c-3.025,2.199-7.095,0.824-7.095,0.824c-0.495,4.016,1.462,6.391,1.43,6.436c-0.385,0.55-0.275,1.484-0.275,1.484l-1.319,0.056
		c-0.056-0.605,0.55-1.375,0.55-1.375c-0.715-3.465-2.915-5.94-2.915-5.94c-2.86,0.936-3.795,4.016-3.795,4.016
		c-0.44,1.649,0.22,2.034,0.22,2.034l-0.715,0.936l-0.66-1.705v-0.771c1.705-4.454,3.96-6.27,3.96-6.27
		c-0.66-0.77-0.22-2.585-0.22-2.585l-1.65-3.19l-1.21,1.65c0.22,0.55-1.375,1.43-1.485,0c-0.109-1.43,0-2.53,0-2.53l-0.385-0.66
		l0.66-1.43L13.798,14.178z"/>
	<path fill="#FFFFFF" d="M25.375,12.134c0.709,0,1.283-0.575,1.283-1.283c0-0.709-0.574-1.283-1.283-1.283s-1.283,0.574-1.283,1.283
		C24.092,11.559,24.666,12.134,25.375,12.134"/>
	<polygon fill="#ED1C24" points="14.473,35.068 38.193,11.347 35.755,8.908 12.062,32.602 	"/>
	<circle fill="none" stroke="#FFFFFF" stroke-width="0.798" cx="25.237" cy="22.071" r="16.811"/>
	<line fill="none" stroke="#FFFFFF" stroke-width="0.798" x1="12.175" y1="32.367" x2="35.411" y2="9.111"/>
	<line fill="none" stroke="#FFFFFF" stroke-width="0.798" x1="14.845" y1="35.037" x2="38.08" y2="11.78"/>
	<rect fill="none" width="50.314" height="44"/>
</g>
<g id="Layer_11">
</g>
<g id="Layer_10">
</g>
<g id="Layer_9">
</g>
<g id="Layer_8">
</g>
<g id="Layer_7">
</g>
<g id="Layer_6">
</g>
<g id="Layer_5">
</g>
<g id="Layer_4">
</g>
<g id="Layer_3">
</g>
</svg>
