<?xml version="1.0" encoding="utf-8"?>
<!-- Generator: Adobe Illustrator 16.0.0, SVG Export Plug-In . SVG Version: 6.00 Build 0)  -->
<!DOCTYPE svg PUBLIC "-//W3C//DTD SVG 1.1//EN" "http://www.w3.org/Graphics/SVG/1.1/DTD/svg11.dtd">
<svg version="1.1" xmlns="http://www.w3.org/2000/svg" xmlns:xlink="http://www.w3.org/1999/xlink" x="0px" y="0px"
	 width="50.315px" height="44px" viewBox="0 0 50.315 44" enable-background="new 0 0 50.315 44" xml:space="preserve">
<g id="Layer_18">
</g>
<g id="Layer_17">
</g>
<g id="Layer_16">
</g>
<g id="Layer_15">
</g>
<g id="Layer_14">
</g>
<g id="Layer_13">
	<path fill="#007DC5" d="M25.155,39.759c9.811,0,17.765-7.954,17.765-17.765c0-9.812-7.954-17.766-17.765-17.766
		c-9.812,0-17.766,7.954-17.766,17.766C7.39,31.805,15.344,39.759,25.155,39.759"/>
	<circle fill="none" stroke="#FFFFFF" stroke-width="0.798" cx="25.154" cy="21.993" r="16.811"/>
	<path fill="#FFFFFF" d="M12.143,24.154c0-2.824,2.289-5.113,5.113-5.113s5.112,2.289,5.112,5.113s-2.288,5.113-5.112,5.113
		S12.143,26.979,12.143,24.154 M17.249,28.007c2.131,0,3.858-1.728,3.858-3.858c0-2.132-1.728-3.86-3.858-3.86
		c-2.132,0-3.859,1.729-3.859,3.86C13.39,26.279,15.117,28.007,17.249,28.007"/>
	<path fill="#FFFFFF" d="M23.912,14.108v-1.252h-2.217c-0.998,0-1.286,1.252-1.286,1.252c-0.693,1.979-3.537,10.018-3.537,10.018
		c-0.288,0.729,0.863,1.134,1.135,0.44c0.271-0.693,3.52-9.85,3.52-9.85c0.22-0.693,0.863-0.608,0.863-0.608H23.912z"/>
	<path fill="#FFFFFF" d="M33.729,23.524c-0.506-1.082-2.367-5.067-3.547-7.602h-9.688l-0.778,2.062l6.007,6.785h7.294
		C34.438,24.77,33.729,23.524,33.729,23.524"/>
	<path fill="#007DC5" d="M32.373,23.519c-0.833-1.755-2.074-4.428-2.958-6.314l-8.769-0.016l5.618,6.329L32.373,23.519z"/>
	<path fill="#FFFFFF" d="M32.289,14.108v0.998l-4.314-0.017c-0.745,0-0.763-0.981,0-0.981H32.289z"/>
	<path fill="#FFFFFF" d="M28.118,24.154c0-2.824,2.289-5.113,5.112-5.113c2.824,0,5.113,2.289,5.113,5.113s-2.289,5.113-5.113,5.113
		C30.407,29.268,28.118,26.979,28.118,24.154 M33.224,28.007c2.131,0,3.859-1.728,3.859-3.858c0-2.132-1.729-3.86-3.859-3.86
		s-3.858,1.729-3.858,3.86C29.365,26.279,31.093,28.007,33.224,28.007"/>
	<polygon fill="#FFFFFF" points="26.599,24.497 31.1,14.923 29.972,14.392 25.452,24.025 	"/>
	<rect fill="none" width="50.315" height="44"/>
</g>
<g id="Layer_12">
</g>
<g id="Layer_11">
</g>
<g id="Layer_10">
</g>
<g id="Layer_9">
</g>
<g id="Layer_8">
</g>
<g id="Layer_7">
</g>
<g id="Layer_6">
</g>
<g id="Layer_5">
</g>
<g id="Layer_4">
</g>
<g id="Layer_3">
</g>
</svg>
