<?xml version="1.0" encoding="utf-8"?>
<!-- Generator: Adobe Illustrator 16.0.0, SVG Export Plug-In . SVG Version: 6.00 Build 0)  -->
<!DOCTYPE svg PUBLIC "-//W3C//DTD SVG 1.1//EN" "http://www.w3.org/Graphics/SVG/1.1/DTD/svg11.dtd">
<svg version="1.1" xmlns="http://www.w3.org/2000/svg" xmlns:xlink="http://www.w3.org/1999/xlink" x="0px" y="0px"
	 width="50.315px" height="44px" viewBox="0 0 50.315 44" enable-background="new 0 0 50.315 44" xml:space="preserve">
<g id="Layer_18">
</g>
<g id="Layer_17">
</g>
<g id="Layer_16">
</g>
<g id="Layer_15">
</g>
<g id="Layer_14">
	<path fill="#007DC5" d="M25.138,39.562c9.811,0,17.765-7.954,17.765-17.766c0-9.811-7.954-17.765-17.765-17.765
		S7.373,11.985,7.373,21.796C7.373,31.607,15.327,39.562,25.138,39.562"/>
	<path fill="#FFFFFF" d="M12.125,23.956c0-2.823,2.289-5.112,5.113-5.112c2.824,0,5.113,2.289,5.113,5.112
		c0,2.824-2.289,5.113-5.113,5.113C14.415,29.069,12.125,26.78,12.125,23.956 M17.231,27.81c2.131,0,3.859-1.729,3.859-3.859
		c0-2.132-1.728-3.859-3.859-3.859c-2.131,0-3.859,1.728-3.859,3.859C13.373,26.081,15.101,27.81,17.231,27.81"/>
	<path fill="#FFFFFF" d="M23.896,13.91v-1.252h-2.217c-0.998,0-1.286,1.252-1.286,1.252c-0.694,1.98-3.537,10.019-3.537,10.019
		c-0.288,0.728,0.863,1.134,1.134,0.439c0.271-0.692,3.52-9.849,3.52-9.849c0.22-0.694,0.863-0.609,0.863-0.609H23.896z"/>
	<path fill="#FFFFFF" d="M33.712,23.327c-0.506-1.083-2.367-5.068-3.547-7.602h-9.688l-0.778,2.061l6.007,6.786H33
		C34.422,24.572,33.712,23.327,33.712,23.327"/>
	<path fill="#007DC5" d="M32.355,23.32c-0.833-1.754-2.074-4.427-2.958-6.313L20.63,16.99l5.618,6.329L32.355,23.32z"/>
	<path fill="#FFFFFF" d="M32.272,13.91v0.998l-4.315-0.016c-0.745,0-0.762-0.982,0-0.982H32.272z"/>
	<path fill="#FFFFFF" d="M28.101,23.956c0-2.823,2.289-5.112,5.113-5.112c2.824,0,5.113,2.289,5.113,5.112
		c0,2.824-2.289,5.113-5.113,5.113C30.39,29.069,28.101,26.78,28.101,23.956 M33.207,27.81c2.131,0,3.859-1.729,3.859-3.859
		c0-2.132-1.728-3.859-3.859-3.859s-3.859,1.728-3.859,3.859C29.348,26.081,31.076,27.81,33.207,27.81"/>
	<polygon fill="#FFFFFF" points="26.582,24.299 31.083,14.726 29.955,14.194 25.435,23.827 	"/>
	<polygon fill="#ED1C24" points="14.51,34.875 38.231,11.154 35.792,8.715 12.1,32.408 	"/>
	<circle fill="none" stroke="#FFFFFF" stroke-width="0.798" cx="25.138" cy="21.795" r="16.811"/>
	<line fill="none" stroke="#FFFFFF" stroke-width="0.798" x1="12.158" y1="31.981" x2="35.394" y2="8.726"/>
	<line fill="none" stroke="#FFFFFF" stroke-width="0.798" x1="14.827" y1="34.651" x2="38.063" y2="11.395"/>
	<rect fill="none" width="50.315" height="44"/>
</g>
<g id="Layer_13">
</g>
<g id="Layer_12">
</g>
<g id="Layer_11">
</g>
<g id="Layer_10">
</g>
<g id="Layer_9">
</g>
<g id="Layer_8">
</g>
<g id="Layer_7">
</g>
<g id="Layer_6">
</g>
<g id="Layer_5">
</g>
<g id="Layer_4">
</g>
<g id="Layer_3">
</g>
</svg>
