<?xml version="1.0" encoding="utf-8"?>
<!-- Generator: Adobe Illustrator 16.0.0, SVG Export Plug-In . SVG Version: 6.00 Build 0)  -->
<!DOCTYPE svg PUBLIC "-//W3C//DTD SVG 1.1//EN" "http://www.w3.org/Graphics/SVG/1.1/DTD/svg11.dtd">
<svg version="1.1" xmlns="http://www.w3.org/2000/svg" xmlns:xlink="http://www.w3.org/1999/xlink" x="0px" y="0px"
	 width="50.315px" height="44px" viewBox="0 0 50.315 44" enable-background="new 0 0 50.315 44" xml:space="preserve">
<g id="Layer_18">
</g>
<g id="Layer_17">
</g>
<g id="Layer_16">
</g>
<g id="Layer_15">
	<path fill="#007DC5" d="M25.058,39.96c9.919,0,17.96-8.041,17.96-17.96S34.977,4.04,25.058,4.04S7.098,12.081,7.098,22
		S15.139,39.96,25.058,39.96"/>
	<circle fill="none" stroke="#FFFFFF" stroke-width="0.806" cx="25.058" cy="21.998" r="16.996"/>
	<path fill="#FFFFFF" d="M30.457,20.382c1.669,0,3.022-1.353,3.022-3.021s-1.353-3.022-3.022-3.022s-3.022,1.354-3.022,3.022
		S28.788,20.382,30.457,20.382"/>
	<path fill="#007DC5" d="M30.457,19.369c1.11,0,2.01-0.899,2.01-2.01c0-1.109-0.9-2.009-2.01-2.009s-2.01,0.899-2.01,2.009
		C28.447,18.47,29.347,19.369,30.457,19.369"/>
	<path fill="#FFFFFF" d="M19.935,20.382c1.669,0,3.022-1.353,3.022-3.021s-1.353-3.022-3.022-3.022
		c-1.669,0-3.022,1.354-3.022,3.022S18.266,20.382,19.935,20.382"/>
	<path fill="#007DC5" d="M19.935,19.369c1.11,0,2.01-0.899,2.01-2.01c0-1.109-0.9-2.009-2.01-2.009c-1.11,0-2.01,0.899-2.01,2.009
		C17.925,18.47,18.825,19.369,19.935,19.369"/>
	<path fill="#FFFFFF" d="M24.404,10.287h-1.345c0,0-0.694-0.064-1.063,0.868l-2.538,6.096c0,0-0.196,0.456,0.216,0.608
		c0.413,0.151,0.716-0.392,0.716-0.392l2.625-6.14h1.389V10.287z"/>
	<path fill="#FFFFFF" d="M22.083,12.521l2.278,0.043l0.911,1.454l-0.694,1.996l0.586,0.846l5.402,0.022c0,0,0.477-0.022,0.477,0.434
		c0,0.455-0.434,0.542-0.434,0.542l-5.358,0.022c0,0-0.673,0.13-1.15-0.738c0,0-2.213-3.623-2.235-3.623
		S22.083,12.521,22.083,12.521"/>
	<path fill="#FFFFFF" d="M32.583,12.544l0.044,1.192l-2.864,0.152c0,0-0.716,0.087-1.042,0.499
		c-0.325,0.412-0.781,0.239-0.911-0.065c-0.13-0.304-0.672-1.258-0.672-1.258s-0.196-0.521,0.477-0.521H32.583z"/>
	<path fill="#FFFFFF" d="M20.043,14.431l0.043-0.629c0,0-0.998-0.108-1.41,0.152l0.195,0.606L20.043,14.431z"/>
	<path fill="#FFFFFF" d="M20.166,31.94c1.792,0,3.245-1.453,3.245-3.245s-1.453-3.245-3.245-3.245s-3.245,1.453-3.245,3.245
		S18.374,31.94,20.166,31.94"/>
	<path fill="#007DC5" d="M20.162,31.141c1.353,0,2.449-1.097,2.449-2.449s-1.096-2.449-2.449-2.449
		c-1.353,0-2.449,1.097-2.449,2.449S18.809,31.141,20.162,31.141"/>
	<path fill="#FFFFFF" d="M24.391,22.319v-0.795h-1.407c-0.634,0-0.816,0.795-0.816,0.795c-0.441,1.258-2.245,6.358-2.245,6.358
		c-0.182,0.462,0.548,0.72,0.72,0.279c0.171-0.44,2.234-6.25,2.234-6.25c0.139-0.441,0.547-0.388,0.547-0.388H24.391z"/>
	<path fill="#FFFFFF" d="M30.621,28.296c-0.321-0.687-1.502-3.216-2.251-4.824h-6.148l-0.495,1.308l3.813,4.307h4.629
		C31.072,29.086,30.621,28.296,30.621,28.296"/>
	<path fill="#007DC5" d="M29.76,28.292c-0.529-1.113-1.316-2.811-1.877-4.007l-5.565-0.011l3.566,4.018H29.76z"/>
	<path fill="#FFFFFF" d="M29.708,22.319v0.635l-2.739-0.012c-0.472,0-0.483-0.623,0-0.623H29.708z"/>
	<path fill="#FFFFFF" d="M27.061,28.695c0-1.792,1.452-3.244,3.244-3.244c1.793,0,3.245,1.452,3.245,3.244s-1.452,3.245-3.245,3.245
		C28.513,31.94,27.061,30.487,27.061,28.695 M30.301,31.141c1.353,0,2.449-1.097,2.449-2.449s-1.096-2.449-2.449-2.449
		s-2.449,1.097-2.449,2.449S28.948,31.141,30.301,31.141"/>
	<polygon fill="#FFFFFF" points="26.096,28.913 28.953,22.837 28.237,22.5 25.368,28.613 	"/>
	<rect fill="none" width="50.315" height="44"/>
</g>
<g id="Layer_14">
</g>
<g id="Layer_13">
</g>
<g id="Layer_12">
</g>
<g id="Layer_11">
</g>
<g id="Layer_10">
</g>
<g id="Layer_9">
</g>
<g id="Layer_8">
</g>
<g id="Layer_7">
</g>
<g id="Layer_6">
</g>
<g id="Layer_5">
</g>
<g id="Layer_4">
</g>
<g id="Layer_3">
</g>
</svg>
