<?xml version="1.0" encoding="utf-8"?>
<!-- Generator: Adobe Illustrator 16.0.0, SVG Export Plug-In . SVG Version: 6.00 Build 0)  -->
<!DOCTYPE svg PUBLIC "-//W3C//DTD SVG 1.1//EN" "http://www.w3.org/Graphics/SVG/1.1/DTD/svg11.dtd">
<svg version="1.1" xmlns="http://www.w3.org/2000/svg" xmlns:xlink="http://www.w3.org/1999/xlink" x="0px" y="0px"
	 width="50.314px" height="44px" viewBox="0 0 50.314 44" enable-background="new 0 0 50.314 44" xml:space="preserve">
<g id="Layer_18">
</g>
<g id="Layer_17">
</g>
<g id="Layer_16">
	<path fill="#007DC5" d="M25.324,40.076c9.919,0,17.96-8.041,17.96-17.96s-8.041-17.96-17.96-17.96s-17.96,8.041-17.96,17.96
		S15.405,40.076,25.324,40.076"/>
	<path fill="#FFFFFF" d="M30.723,20.498c1.669,0,3.022-1.354,3.022-3.022s-1.354-3.021-3.022-3.021s-3.021,1.353-3.021,3.021
		S29.054,20.498,30.723,20.498"/>
	<path fill="#007DC5" d="M30.723,19.485c1.11,0,2.011-0.899,2.011-2.01s-0.9-2.009-2.011-2.009c-1.109,0-2.01,0.898-2.01,2.009
		S29.613,19.485,30.723,19.485"/>
	<path fill="#FFFFFF" d="M20.201,20.498c1.669,0,3.021-1.354,3.021-3.022s-1.353-3.021-3.021-3.021s-3.022,1.353-3.022,3.021
		S18.532,20.498,20.201,20.498"/>
	<path fill="#007DC5" d="M20.201,19.485c1.109,0,2.01-0.899,2.01-2.01s-0.9-2.009-2.01-2.009c-1.11,0-2.011,0.898-2.011,2.009
		S19.091,19.485,20.201,19.485"/>
	<path fill="#FFFFFF" d="M24.67,10.403h-1.345c0,0-0.694-0.065-1.063,0.868l-2.538,6.096c0,0-0.195,0.456,0.217,0.608
		c0.413,0.151,0.716-0.392,0.716-0.392l2.625-6.14h1.389V10.403z"/>
	<path fill="#FFFFFF" d="M22.349,12.638l2.278,0.043l0.911,1.454l-0.694,1.996l0.586,0.846l5.402,0.022c0,0,0.477-0.022,0.477,0.434
		c0,0.455-0.434,0.542-0.434,0.542l-5.358,0.022c0,0-0.673,0.13-1.15-0.738c0,0-2.213-3.623-2.234-3.623
		C22.109,13.636,22.349,12.638,22.349,12.638"/>
	<path fill="#FFFFFF" d="M32.849,12.659l0.045,1.193l-2.864,0.152c0,0-0.716,0.087-1.042,0.499
		c-0.325,0.412-0.781,0.238-0.911-0.065s-0.672-1.258-0.672-1.258s-0.196-0.521,0.477-0.521H32.849z"/>
	<path fill="#FFFFFF" d="M20.31,14.547l0.043-0.629c0,0-0.998-0.109-1.41,0.152l0.195,0.606L20.31,14.547z"/>
	<path fill="#FFFFFF" d="M20.433,32.057c1.792,0,3.245-1.453,3.245-3.245s-1.453-3.245-3.245-3.245s-3.245,1.453-3.245,3.245
		S18.641,32.057,20.433,32.057"/>
	<path fill="#007DC5" d="M20.428,31.257c1.354,0,2.449-1.097,2.449-2.449s-1.096-2.45-2.449-2.45c-1.353,0-2.448,1.098-2.448,2.45
		S19.075,31.257,20.428,31.257"/>
	<path fill="#FFFFFF" d="M24.657,22.436v-0.795H23.25c-0.634,0-0.815,0.795-0.815,0.795c-0.441,1.257-2.245,6.358-2.245,6.358
		c-0.183,0.462,0.548,0.72,0.72,0.279c0.171-0.44,2.234-6.25,2.234-6.25c0.139-0.441,0.547-0.388,0.547-0.388H24.657z"/>
	<path fill="#FFFFFF" d="M30.887,28.412c-0.32-0.688-1.502-3.216-2.251-4.824h-6.147l-0.495,1.308l3.813,4.307h4.63
		C31.338,29.202,30.887,28.412,30.887,28.412"/>
	<path fill="#007DC5" d="M30.026,28.407c-0.529-1.112-1.316-2.81-1.877-4.007l-5.565-0.01l3.566,4.017H30.026z"/>
	<path fill="#FFFFFF" d="M29.974,22.436v0.634l-2.739-0.011c-0.472,0-0.482-0.623,0-0.623H29.974z"/>
	<path fill="#FFFFFF" d="M27.327,28.812c0-1.792,1.451-3.245,3.243-3.245c1.793,0,3.245,1.453,3.245,3.245s-1.452,3.245-3.245,3.245
		C28.778,32.057,27.327,30.604,27.327,28.812 M30.566,31.257c1.354,0,2.449-1.097,2.449-2.449s-1.096-2.45-2.449-2.45
		c-1.353,0-2.448,1.098-2.448,2.45S29.214,31.257,30.566,31.257"/>
	<polygon fill="#FFFFFF" points="26.362,29.029 29.219,22.953 28.503,22.616 25.634,28.729 	"/>
	<polygon fill="#ED1C24" points="14.359,34.773 38.081,11.053 35.642,8.613 11.949,32.307 	"/>
	<circle fill="none" stroke="#FFFFFF" stroke-width="0.806" cx="25.323" cy="22.114" r="16.996"/>
	<line fill="none" stroke="#FFFFFF" stroke-width="0.806" x1="11.893" y1="32.043" x2="35.34" y2="8.636"/>
	<line fill="none" stroke="#FFFFFF" stroke-width="0.806" x1="14.665" y1="34.935" x2="38.271" y2="11.368"/>
	<rect fill="none" width="50.314" height="44"/>
</g>
<g id="Layer_15">
</g>
<g id="Layer_14">
</g>
<g id="Layer_13">
</g>
<g id="Layer_12">
</g>
<g id="Layer_11">
</g>
<g id="Layer_10">
</g>
<g id="Layer_9">
</g>
<g id="Layer_8">
</g>
<g id="Layer_7">
</g>
<g id="Layer_6">
</g>
<g id="Layer_5">
</g>
<g id="Layer_4">
</g>
<g id="Layer_3">
</g>
</svg>
