<?xml version="1.0" encoding="utf-8"?>
<!-- Generator: Adobe Illustrator 16.0.0, SVG Export Plug-In . SVG Version: 6.00 Build 0)  -->
<!DOCTYPE svg PUBLIC "-//W3C//DTD SVG 1.1//EN" "http://www.w3.org/Graphics/SVG/1.1/DTD/svg11.dtd">
<svg version="1.1" xmlns="http://www.w3.org/2000/svg" xmlns:xlink="http://www.w3.org/1999/xlink" x="0px" y="0px"
	 width="50.315px" height="44px" viewBox="0 0 50.315 44" enable-background="new 0 0 50.315 44" xml:space="preserve">
<g id="Layer_18">
</g>
<g id="Layer_17">
	<rect x="7.396" y="15.283" fill="#007DC5" width="35.369" height="11.994"/>
	<path fill="none" stroke="#FFFFFF" stroke-width="0.798" d="M39.972,26.346c1.027,0,1.861-0.833,1.861-1.862v-6.408
		c0-1.028-0.834-1.861-1.861-1.861H10.188c-1.028,0-1.861,0.833-1.861,1.861v6.408c0,1.029,0.833,1.862,1.861,1.862H39.972z"/>
	<path fill="#FFFFFF" d="M10.48,23.865v-2.868h-0.419v-0.83h0.419v-0.199c0.024-0.81,0.318-1.023,0.911-1.023
		c0.191,0,0.376,0.044,0.566,0.074v0.65c-0.133-0.008-0.266,0.005-0.399,0.005c-0.272,0-0.283,0.187-0.285,0.412v0.081h0.691v0.83
		h-0.691v2.868H10.48z"/>
	<rect x="13.458" y="20.166" fill="#FFFFFF" width="0.89" height="3.698"/>
	<path fill="#FFFFFF" d="M18.652,23.283c-0.25,0.462-0.729,0.692-1.326,0.692c-1.082,0-1.512-0.84-1.512-1.93
		c0-1.083,0.497-1.989,1.565-1.989c1.008,0.022,1.484,0.722,1.484,1.746v0.346h-2.282c-0.073,0.471,0.085,1.1,0.737,1.1
		c0.633,0,0.779-0.349,0.781-0.376L18.652,23.283z M18.103,21.611c0.012-0.551-0.215-0.978-0.766-0.978
		c-0.474,0-0.755,0.439-0.755,0.978H18.103z"/>
	<path fill="#FFFFFF" d="M20.728,20.181v-0.953l0.793-0.221v1.174l0.967,0.005v0.688l-0.967,0.007v1.961
		c0,0.265,0.192,0.349,0.477,0.349c0.29,0,0.483-0.345,0.485-0.36l-0.138,0.896c-0.097,0.36-1.59,0.631-1.617-0.687v-2.145
		l-0.718-0.007v-0.702L20.728,20.181z"/>
	<path fill="#FFFFFF" d="M28.315,20.83c-0.009-0.222-0.025-0.442,0-0.678h0.796l-0.003,0.273h0.003
		c0.118-0.145,0.363-0.364,0.877-0.369c1.135-0.012,1.402,0.957,1.402,1.959c0,0.951-0.584,1.836-1.42,1.851
		c-0.342,0.006-0.563-0.037-0.838-0.422h-0.024v1.271l-0.793,0.413V20.83z M29.108,22.751c0.108,0.172,0.439,0.414,0.861,0.345
		c0.253-0.041,0.669-0.401,0.669-1.093c0-0.693-0.22-1.204-0.662-1.218c-0.434-0.015-0.761,0.115-0.869,0.329L29.108,22.751z"/>
	<path fill="#FFFFFF" d="M32.708,20.874c0.17-0.598,0.722-0.817,1.361-0.817c0.759,0,1.512,0.229,1.512,1.26v1.768
		c0,0.162,0.007,0.473,0.029,0.781c0,0-0.796,0.019-0.795,0.004c0.009-0.103-0.003-0.351,0.005-0.557h0.066
		c-0.228,0.465-0.641,0.664-1.149,0.664c-0.835,0-1.265-0.648-1.265-1.37c0-0.86,0.852-1.249,1.347-1.231
		c0.536,0.021,0.992,0.192,0.992,0.192c0-0.642,0.031-0.961-0.714-0.961c-0.354,0-0.727,0.15-0.762,0.52L32.708,20.874z
		 M33.838,21.953c-0.619,0-0.682,0.609-0.682,0.609c0,0.457,0.262,0.754,0.675,0.754c0.462,0,0.892-0.278,0.981-0.594l-0.001-0.572
		C34.812,22.15,34.443,21.953,33.838,21.953"/>
	<path fill="#FFFFFF" d="M13.911,19.89c0.244,0,0.441-0.198,0.441-0.442c0-0.245-0.197-0.442-0.441-0.442s-0.442,0.197-0.442,0.442
		C13.469,19.691,13.667,19.89,13.911,19.89"/>
	<path fill="#FFFFFF" d="M26.17,20.998c-0.244-0.108-0.832-0.282-1.094-0.282c-0.236,0-0.438,0.116-0.438,0.322
		c0,0.324,0.513,0.468,1.036,0.665c0.522,0.198,1.025,0.467,1.025,1.054c0,0.704-0.702,1.228-1.529,1.228
		c-0.646,0-1.329-0.378-1.567-0.901l0.636-0.263c0.181,0.277,0.523,0.475,0.932,0.475c0.36,0,0.675-0.15,0.675-0.467
		c0-0.197-0.114-0.293-0.314-0.403l-0.836-0.373c-0.494-0.222-0.854-0.428-0.854-0.935c0-0.602,0.589-1.077,1.311-1.077
		c0.653,0,1.358,0.388,1.341,0.389L26.17,20.998z"/>
	<path fill="#FFFFFF" d="M40.2,23.187c0.008,0.221,0.024,0.442,0,0.677h-0.796l0.003-0.273h-0.003
		c-0.119,0.146-0.364,0.365-0.877,0.37c-1.136,0.012-1.403-0.957-1.403-1.959c0-0.951,0.584-1.836,1.42-1.851
		c0.342-0.006,0.563,0.037,0.838,0.42h0.025v-1.27l0.793-0.413V23.187z M39.407,21.266c-0.109-0.172-0.44-0.414-0.862-0.345
		c-0.253,0.041-0.669,0.4-0.669,1.093c0,0.693,0.22,1.218,0.662,1.218c0.434,0,0.761-0.116,0.87-0.329L39.407,21.266z"/>
	<rect fill="none" width="50.315" height="44"/>
</g>
<g id="Layer_16">
</g>
<g id="Layer_15">
</g>
<g id="Layer_14">
</g>
<g id="Layer_13">
</g>
<g id="Layer_12">
</g>
<g id="Layer_11">
</g>
<g id="Layer_10">
</g>
<g id="Layer_9">
</g>
<g id="Layer_8">
</g>
<g id="Layer_7">
</g>
<g id="Layer_6">
</g>
<g id="Layer_5">
</g>
<g id="Layer_4">
</g>
<g id="Layer_3">
</g>
</svg>
