<?xml version="1.0" encoding="utf-8"?>
<!-- Generator: Adobe Illustrator 16.0.0, SVG Export Plug-In . SVG Version: 6.00 Build 0)  -->
<!DOCTYPE svg PUBLIC "-//W3C//DTD SVG 1.1//EN" "http://www.w3.org/Graphics/SVG/1.1/DTD/svg11.dtd">
<svg version="1.1" xmlns="http://www.w3.org/2000/svg" xmlns:xlink="http://www.w3.org/1999/xlink" x="0px" y="0px"
	 width="50.315px" height="20.905px" viewBox="0 0 50.315 20.905" enable-background="new 0 0 50.315 20.905" xml:space="preserve">
<g id="Layer_18">
	<rect x="7.301" y="6.526" fill="#007DC5" width="35.369" height="11.994"/>
	<path fill="#FFFFFF" d="M10.386,15.108V12.24H9.967v-0.83h0.419v-0.198c0.025-0.811,0.319-1.024,0.911-1.024
		c0.192,0,0.376,0.044,0.567,0.074v0.651c-0.133-0.009-0.266,0.005-0.4,0.005c-0.272,0-0.283,0.186-0.285,0.412v0.08h0.692v0.83
		h-0.692v2.868H10.386z"/>
	<rect x="13.364" y="11.411" fill="#FFFFFF" width="0.889" height="3.697"/>
	<path fill="#FFFFFF" d="M18.558,14.527c-0.25,0.461-0.729,0.691-1.326,0.691c-1.082,0-1.512-0.84-1.512-1.93
		c0-1.083,0.497-1.989,1.565-1.989c1.008,0.022,1.485,0.723,1.485,1.746v0.347h-2.282c-0.074,0.47,0.085,1.099,0.737,1.099
		c0.633,0,0.779-0.348,0.781-0.376L18.558,14.527z M18.008,12.855c0.012-0.552-0.215-0.979-0.766-0.979
		c-0.473,0-0.754,0.44-0.754,0.979H18.008z"/>
	<path fill="#FFFFFF" d="M20.633,11.424v-0.953l0.793-0.221v1.174l0.967,0.005v0.688l-0.967,0.007v1.961
		c0,0.266,0.192,0.35,0.476,0.35c0.29,0,0.484-0.346,0.486-0.361l-0.138,0.896c-0.097,0.36-1.59,0.632-1.617-0.687v-2.145
		l-0.718-0.007v-0.702L20.633,11.424z"/>
	<path fill="#FFFFFF" d="M28.22,12.073c-0.008-0.221-0.025-0.442,0-0.677h0.796l-0.003,0.272h0.003
		c0.119-0.145,0.364-0.363,0.877-0.369c1.135-0.012,1.403,0.957,1.403,1.959c0,0.951-0.584,1.837-1.42,1.851
		c-0.342,0.006-0.563-0.037-0.838-0.421h-0.025v1.271l-0.793,0.413V12.073z M29.013,13.994c0.109,0.172,0.44,0.414,0.862,0.345
		c0.253-0.041,0.669-0.4,0.669-1.093s-0.22-1.204-0.662-1.218c-0.434-0.014-0.761,0.116-0.87,0.329L29.013,13.994z"/>
	<path fill="#FFFFFF" d="M32.613,12.117c0.17-0.598,0.722-0.817,1.361-0.817c0.759,0,1.512,0.229,1.512,1.26v1.769
		c0,0.161,0.007,0.472,0.029,0.78c0,0-0.796,0.02-0.795,0.004c0.009-0.103-0.003-0.351,0.005-0.557h0.067
		c-0.228,0.465-0.641,0.664-1.15,0.664c-0.835,0-1.264-0.648-1.264-1.37c0-0.86,0.851-1.249,1.346-1.231
		c0.536,0.021,0.992,0.192,0.992,0.192c0-0.641,0.032-0.961-0.713-0.961c-0.354,0-0.727,0.151-0.762,0.521L32.613,12.117z
		 M33.743,13.196c-0.619,0-0.682,0.609-0.682,0.609c0,0.457,0.262,0.754,0.675,0.754c0.462,0,0.892-0.278,0.981-0.594l-0.001-0.572
		C34.716,13.394,34.348,13.196,33.743,13.196"/>
	<path fill="#FFFFFF" d="M13.816,11.133c0.244,0,0.442-0.197,0.442-0.441c0-0.245-0.198-0.443-0.442-0.443
		c-0.244,0-0.442,0.198-0.442,0.443C13.375,10.936,13.572,11.133,13.816,11.133"/>
	<path fill="#FFFFFF" d="M26.075,12.242c-0.244-0.109-0.832-0.283-1.093-0.283c-0.237,0-0.438,0.117-0.438,0.323
		c0,0.323,0.513,0.467,1.036,0.665c0.523,0.197,1.026,0.467,1.026,1.053c0,0.705-0.703,1.228-1.53,1.228
		c-0.646,0-1.329-0.378-1.567-0.9l0.636-0.264c0.18,0.277,0.523,0.476,0.931,0.476c0.361,0,0.675-0.151,0.675-0.467
		c0-0.198-0.114-0.293-0.314-0.404l-0.836-0.373c-0.494-0.221-0.855-0.427-0.855-0.934c0-0.603,0.589-1.077,1.311-1.077
		c0.653,0,1.358,0.387,1.341,0.388L26.075,12.242z"/>
	<path fill="#FFFFFF" d="M40.105,14.43c0.008,0.222,0.025,0.442,0,0.678h-0.796l0.003-0.274h-0.003
		c-0.119,0.146-0.364,0.365-0.877,0.37c-1.135,0.012-1.403-0.957-1.403-1.959c0-0.951,0.584-1.836,1.42-1.85
		c0.342-0.007,0.563,0.036,0.838,0.42h0.025v-1.271l0.793-0.413V14.43z M39.313,12.509c-0.109-0.172-0.44-0.414-0.862-0.345
		c-0.253,0.041-0.669,0.401-0.669,1.093c0,0.693,0.22,1.219,0.662,1.219c0.434,0,0.761-0.116,0.87-0.329L39.313,12.509z"/>
	<polygon fill="#ED1C24" points="41.519,8.92 40.883,7.632 38.837,7.356 8.656,16.114 8.779,17.28 10.74,17.748 	"/>
	<path fill="none" stroke="#FFFFFF" stroke-width="0.798" d="M39.876,17.589c1.028,0,1.862-0.833,1.862-1.862V9.319
		c0-1.029-0.834-1.862-1.862-1.862H10.093c-1.028,0-1.861,0.833-1.861,1.862v6.407c0,1.029,0.833,1.862,1.861,1.862H39.876z"/>
	<line fill="none" stroke="#FFFFFF" stroke-width="0.798" x1="8.391" y1="15.817" x2="37.514" y2="7.415"/>
	<line fill="none" stroke="#FFFFFF" stroke-width="0.798" x1="12.407" y1="17.625" x2="41.53" y2="9.223"/>
	<rect fill="none" width="50.315" height="20.905"/>
</g>
<g id="Layer_17">
</g>
<g id="Layer_16">
</g>
<g id="Layer_15">
</g>
<g id="Layer_14">
</g>
<g id="Layer_13">
</g>
<g id="Layer_12">
</g>
<g id="Layer_11">
</g>
<g id="Layer_10">
</g>
<g id="Layer_9">
</g>
<g id="Layer_8">
</g>
<g id="Layer_7">
</g>
<g id="Layer_6">
</g>
<g id="Layer_5">
</g>
<g id="Layer_4">
</g>
<g id="Layer_3">
</g>
</svg>
