<?xml version="1.0" encoding="utf-8"?>
<!-- Generator: Adobe Illustrator 16.0.0, SVG Export Plug-In . SVG Version: 6.00 Build 0)  -->
<!DOCTYPE svg PUBLIC "-//W3C//DTD SVG 1.1//EN" "http://www.w3.org/Graphics/SVG/1.1/DTD/svg11.dtd">
<svg version="1.1" xmlns="http://www.w3.org/2000/svg" xmlns:xlink="http://www.w3.org/1999/xlink" x="0px" y="0px"
	 width="50.314px" height="44px" viewBox="0 0 50.314 44" enable-background="new 0 0 50.314 44" xml:space="preserve">
<g id="Layer_18">
</g>
<g id="Layer_17">
</g>
<g id="Layer_16">
</g>
<g id="Layer_15">
</g>
<g id="Layer_14">
</g>
<g id="Layer_13">
</g>
<g id="Layer_12">
</g>
<g id="Layer_11">
</g>
<g id="Layer_10">
</g>
<g id="Layer_9">
</g>
<g id="Layer_8">
</g>
<g id="Layer_7">
</g>
<g id="Layer_6">
</g>
<g id="Layer_5">
</g>
<g id="Layer_4">
	<rect x="13.531" y="3.975" fill="#007DC5" width="23.378" height="36.082"/>
	<polygon fill="#FFFFFF" points="22.025,15.196 24.395,7.055 24.89,7.055 24.374,15.195 	"/>
	<polygon fill="#FFFFFF" points="24.108,19.375 23.02,36.535 15.814,36.535 20.81,19.376 	"/>
	<polygon fill="#FFFFFF" points="28.414,15.196 26.045,7.055 25.55,7.055 26.066,15.195 	"/>
	<polygon fill="#FFFFFF" points="26.331,19.375 27.421,36.535 34.626,36.535 29.631,19.376 	"/>
	<polygon fill="#FFFFFF" points="31.339,17.285 31.339,19.375 32.783,19.375 32.783,17.285 34.569,17.285 34.569,16.24 15.87,16.24 
		15.87,17.285 17.658,17.285 17.658,19.375 19.101,19.375 19.101,17.285 	"/>
	<polygon fill="#ED1C24" points="36.275,7.055 34.515,4.855 14.275,36.865 16.011,39.239 	"/>
	<path fill="none" stroke="#FFFFFF" stroke-width="0.798" d="M34.06,39.107c1.049,0,1.898-0.85,1.898-1.899V6.823
		c0-1.049-0.85-1.899-1.898-1.899H16.38c-1.049,0-1.899,0.85-1.899,1.899v30.385c0,1.049,0.851,1.899,1.899,1.899H34.06z"/>
	<rect fill="none" width="50.314" height="44"/>
	<line fill="none" stroke="#FFFFFF" stroke-width="0.798" x1="14.48" y1="35.784" x2="34.06" y2="4.923"/>
	<line fill="none" stroke="#FFFFFF" stroke-width="0.798" x1="16.432" y1="39.074" x2="36.011" y2="8.214"/>
</g>
<g id="Layer_3">
</g>
</svg>
