<?xml version="1.0" encoding="utf-8"?>
<!-- Generator: Adobe Illustrator 16.0.0, SVG Export Plug-In . SVG Version: 6.00 Build 0)  -->
<!DOCTYPE svg PUBLIC "-//W3C//DTD SVG 1.1//EN" "http://www.w3.org/Graphics/SVG/1.1/DTD/svg11.dtd">
<svg version="1.1" xmlns="http://www.w3.org/2000/svg" xmlns:xlink="http://www.w3.org/1999/xlink" x="0px" y="0px"
	 width="50.315px" height="44px" viewBox="0 0 50.315 44" enable-background="new 0 0 50.315 44" xml:space="preserve">
<g id="Layer_18">
</g>
<g id="Layer_17">
</g>
<g id="Layer_16">
</g>
<g id="Layer_15">
</g>
<g id="Layer_14">
</g>
<g id="Layer_13">
</g>
<g id="Layer_12">
</g>
<g id="Layer_11">
</g>
<g id="Layer_10">
</g>
<g id="Layer_9">
</g>
<g id="Layer_8">
</g>
<g id="Layer_7">
</g>
<g id="Layer_6">
</g>
<g id="Layer_5">
	<rect x="7.254" y="3.927" fill="#007DC5" width="35.369" height="35.369"/>
	<path fill="none" stroke="#FFFFFF" stroke-width="0.798" d="M39.83,38.364c1.028,0,1.862-0.833,1.862-1.862V6.719
		c0-1.029-0.834-1.862-1.862-1.862H10.046c-1.027,0-1.86,0.833-1.86,1.862v29.783c0,1.029,0.833,1.862,1.86,1.862H39.83z"/>
	<path fill="#FFFFFF" d="M24.969,26.854h7.199v3.351c0,0.655,0.472,0.629,0.472,0.629h2.173c0,0,0.472,0.026,0.472-0.629v-3.351
		h0.209l1.466-1.676v-5.341l-1.466-1.099l-2.121-5.368c-4.738-0.628-8.43-0.68-8.43-0.654c0-0.026-3.692,0.026-8.431,0.654
		l-2.12,5.368l-1.467,1.099v5.341l1.467,1.676h0.209v3.351c0,0.655,0.471,0.629,0.471,0.629h2.173c0,0,0.473,0.026,0.473-0.629
		v-3.351h7.199H24.969z"/>
	<path fill="#007DC5" d="M24.942,18.371c0-0.026,6.205,0.157,9.242,0.393l0.023-0.009l-1.621-4.102
		c-4.738-0.628-7.645-0.68-7.645-0.654c0-0.026-2.906,0.026-7.646,0.654l-1.621,4.102l0.024,0.009
		C18.737,18.528,24.942,18.345,24.942,18.371"/>
	<path fill="#007DC5" d="M31.265,23.398h4.032c0.432,0,0.458-0.445,0.458-0.445v-2.081c0,0-0.026-0.446-0.458-0.446h-3.338
		c-0.432,0-0.585,0.303-0.641,0.432c-0.093,0.21-0.524,2.095-0.524,2.095C30.794,23.372,31.265,23.398,31.265,23.398"/>
	<path fill="#007DC5" d="M18.619,23.398h-4.032c-0.432,0-0.458-0.445-0.458-0.445v-2.081c0,0,0.026-0.446,0.458-0.446h3.338
		c0.433,0,0.585,0.303,0.643,0.432c0.091,0.21,0.522,2.095,0.522,2.095C19.09,23.372,18.619,23.398,18.619,23.398"/>
	<rect fill="none" width="50.315" height="44"/>
</g>
<g id="Layer_4">
</g>
<g id="Layer_3">
</g>
</svg>
