<?xml version="1.0" encoding="utf-8"?>
<!-- Generator: Adobe Illustrator 16.0.0, SVG Export Plug-In . SVG Version: 6.00 Build 0)  -->
<!DOCTYPE svg PUBLIC "-//W3C//DTD SVG 1.1//EN" "http://www.w3.org/Graphics/SVG/1.1/DTD/svg11.dtd">
<svg version="1.1" xmlns="http://www.w3.org/2000/svg" xmlns:xlink="http://www.w3.org/1999/xlink" x="0px" y="0px"
	 width="50.315px" height="44px" viewBox="0 0 50.315 44" enable-background="new 0 0 50.315 44" xml:space="preserve">
<g id="Layer_18">
</g>
<g id="Layer_17">
</g>
<g id="Layer_16">
</g>
<g id="Layer_15">
</g>
<g id="Layer_14">
</g>
<g id="Layer_13">
</g>
<g id="Layer_12">
</g>
<g id="Layer_11">
</g>
<g id="Layer_10">
</g>
<g id="Layer_9">
</g>
<g id="Layer_8">
</g>
<g id="Layer_7">
</g>
<g id="Layer_6">
	<rect x="7.477" y="4.313" fill="#007DC5" width="35.369" height="35.369"/>
	<path fill="#FFFFFF" d="M25.659,27.103h7.2v3.351c0,0.655,0.471,0.629,0.471,0.629h2.173c0,0,0.472,0.026,0.472-0.629v-3.351h0.209
		l1.466-1.676v-5.341l-1.466-1.099l-2.121-5.368c-4.739-0.628-8.43-0.68-8.43-0.654c0-0.026-3.692,0.026-8.431,0.654l-2.12,5.368
		l-1.466,1.099v5.341l1.466,1.676h0.209v3.351c0,0.655,0.471,0.629,0.471,0.629h2.173c0,0,0.472,0.026,0.472-0.629v-3.351h7.2
		H25.659z"/>
	<path fill="#007DC5" d="M25.633,18.62c0-0.026,6.205,0.157,9.242,0.393l0.024-0.009l-1.621-4.102
		c-4.739-0.628-7.645-0.68-7.645-0.654c0-0.026-2.906,0.026-7.645,0.654l-1.621,4.102l0.024,0.009
		C19.428,18.777,25.633,18.594,25.633,18.62"/>
	<path fill="#007DC5" d="M31.956,23.647h4.032c0.432,0,0.458-0.445,0.458-0.445V21.12c0,0-0.026-0.445-0.458-0.445h-3.338
		c-0.432,0-0.585,0.303-0.642,0.432c-0.091,0.21-0.523,2.095-0.523,2.095C31.484,23.621,31.956,23.647,31.956,23.647"/>
	<path fill="#007DC5" d="M19.31,23.647h-4.032c-0.432,0-0.458-0.445-0.458-0.445V21.12c0,0,0.026-0.445,0.458-0.445h3.338
		c0.432,0,0.585,0.303,0.642,0.432c0.091,0.21,0.523,2.095,0.523,2.095C19.781,23.621,19.31,23.647,19.31,23.647"/>
	<polygon fill="#ED1C24" points="41.98,8.291 41.414,5.689 38.828,5.221 8.371,35.677 8.854,38.305 11.455,38.815 	"/>
	<path fill="none" stroke="#FFFFFF" stroke-width="0.798" d="M40.053,38.75c1.028,0,1.862-0.833,1.862-1.862V7.105
		c0-1.029-0.834-1.862-1.862-1.862H10.269c-1.028,0-1.861,0.833-1.861,1.862v29.783c0,1.029,0.833,1.862,1.861,1.862H40.053z"/>
	<line fill="none" stroke="#FFFFFF" stroke-width="0.798" x1="8.438" y1="36.04" x2="39.17" y2="5.219"/>
	<line fill="none" stroke="#FFFFFF" stroke-width="0.798" x1="10.934" y1="38.882" x2="41.839" y2="7.888"/>
	<rect fill="none" width="50.315" height="44"/>
</g>
<g id="Layer_5">
</g>
<g id="Layer_4">
</g>
<g id="Layer_3">
</g>
</svg>
