<?xml version="1.0" encoding="utf-8"?>
<!-- Generator: Adobe Illustrator 16.0.0, SVG Export Plug-In . SVG Version: 6.00 Build 0)  -->
<!DOCTYPE svg PUBLIC "-//W3C//DTD SVG 1.1//EN" "http://www.w3.org/Graphics/SVG/1.1/DTD/svg11.dtd">
<svg version="1.1" xmlns="http://www.w3.org/2000/svg" xmlns:xlink="http://www.w3.org/1999/xlink" x="0px" y="0px"
	 width="50.315px" height="44px" viewBox="0 0 50.315 44" enable-background="new 0 0 50.315 44" xml:space="preserve">
<g id="Layer_18">
</g>
<g id="Layer_17">
</g>
<g id="Layer_16">
</g>
<g id="Layer_15">
</g>
<g id="Layer_14">
</g>
<g id="Layer_13">
</g>
<g id="Layer_12">
</g>
<g id="Layer_11">
</g>
<g id="Layer_10">
</g>
<g id="Layer_9">
</g>
<g id="Layer_8">
</g>
<g id="Layer_7">
	<rect x="7.462" y="9.947" fill="#007DC5" width="35.369" height="23.599"/>
	<path fill="none" stroke="#FFFFFF" stroke-width="0.798" d="M40.039,32.614c1.028,0,1.862-0.833,1.862-1.862V12.739
		c0-1.029-0.834-1.862-1.862-1.862H10.254c-1.028,0-1.861,0.833-1.861,1.862v18.013c0,1.029,0.833,1.862,1.861,1.862H40.039z"/>
	<path fill="#FFFFFF" d="M23.599,17.102h2.145V18.1c0,0.195,0.14,0.188,0.14,0.188h0.648c0,0,0.14,0.007,0.14-0.188v-0.998h0.062
		l0.437-0.499v-1.591l-0.437-0.328l-0.631-1.599c-1.412-0.187-2.512-0.202-2.512-0.195c0-0.007-1.099,0.008-2.511,0.195
		l-0.632,1.599l-0.437,0.328v1.591l0.437,0.499h0.062V18.1c0,0.195,0.141,0.188,0.141,0.188h0.647c0,0,0.14,0.007,0.14-0.188v-0.998
		h2.145H23.599z"/>
	<path fill="#007DC5" d="M23.591,14.575c0-0.008,1.848,0.047,2.753,0.117l0.007-0.003l-0.483-1.221
		c-1.411-0.188-2.277-0.203-2.277-0.196c0-0.007-0.866,0.008-2.278,0.196l-0.482,1.221l0.007,0.003
		C21.742,14.622,23.591,14.567,23.591,14.575"/>
	<path fill="#007DC5" d="M25.475,16.073h1.201c0.129,0,0.137-0.133,0.137-0.133v-0.62c0,0-0.008-0.132-0.137-0.132h-0.994
		c-0.129,0-0.175,0.09-0.191,0.128c-0.028,0.063-0.156,0.624-0.156,0.624C25.334,16.064,25.475,16.073,25.475,16.073"/>
	<path fill="#007DC5" d="M21.708,16.073h-1.201c-0.129,0-0.137-0.133-0.137-0.133v-0.62c0,0,0.008-0.132,0.137-0.132H21.5
		c0.129,0,0.175,0.09,0.191,0.128c0.028,0.063,0.156,0.624,0.156,0.624C21.848,16.064,21.708,16.073,21.708,16.073"/>
	<path fill="#FFFFFF" d="M14.871,17.316c-0.721,0-1.305-0.584-1.305-1.305s0.584-1.305,1.305-1.305c0.721,0,1.305,0.584,1.305,1.305
		S15.592,17.316,14.871,17.316"/>
	<path fill="#FFFFFF" d="M14.871,17.51c0.402,0,0.761,0.182,1.001,0.467l3.719,3.806l-0.474,0.494l-2.962-2.271
		c-0.059,1.264-0.316,2.587-0.316,2.587l2.33,8.393H17.3l-2.745-6.319l-0.987,2.705l-2.37,3.535l-0.711-0.593l1.896-3.692
		l0.849-4.266l0.02-2.291L12.6,20.539l-0.454,2.291l-0.652,0.04l0.198-2.844l2.133-2.212C14.299,17.38,14.871,17.51,14.871,17.51"/>
	<path fill="#FFFFFF" d="M25.745,23.089c0.505,0,0.914-0.409,0.914-0.914c0-0.505-0.409-0.914-0.914-0.914
		c-0.505,0-0.914,0.409-0.914,0.914C24.831,22.681,25.24,23.089,25.745,23.089"/>
	<path fill="#FFFFFF" d="M26.028,23.273c-0.23,0.016-0.428,0.134-0.553,0.307l-1.933,2.489l0.414,0.318l1.342-1.389
		c0.153,0.72,0.38,1.219,0.38,1.219l-0.722,4.835l0.579-0.035l1.152-3.295l0.534,1.108l2.541,0.867l0.011-0.848l-1.767-0.632
		l-0.683-2.184l-0.158-1.378l0.351,0.011l0.818,1.044l0.443-0.375l-1.024-1.26l-1.142-0.615
		C26.323,23.231,26.028,23.273,26.028,23.273"/>
	<path fill="#FFFFFF" d="M22.389,30.961c0.547,0,0.99-0.443,0.99-0.99c0-0.546-0.443-0.99-0.99-0.99c-0.547,0-0.99,0.444-0.99,0.99
		C21.399,30.518,21.842,30.961,22.389,30.961"/>
	<path fill="#FFFFFF" d="M31.575,17.084v-1.443h1.21v0.529l-0.001,0.006l2.428-1.828l4.73,3.603v6.132h-1.238v-4.702h-2.31v4.702
		h-5.967v-6.132l1.152-0.868L31.575,17.084z M35.184,19.381h-3.486v3.486h3.486V19.381z"/>
	<rect fill="none" width="50.315" height="44"/>
</g>
<g id="Layer_6">
</g>
<g id="Layer_5">
</g>
<g id="Layer_4">
</g>
<g id="Layer_3">
</g>
</svg>
