<?xml version="1.0" encoding="utf-8"?>
<!-- Generator: Adobe Illustrator 16.0.0, SVG Export Plug-In . SVG Version: 6.00 Build 0)  -->
<!DOCTYPE svg PUBLIC "-//W3C//DTD SVG 1.1//EN" "http://www.w3.org/Graphics/SVG/1.1/DTD/svg11.dtd">
<svg version="1.1" xmlns="http://www.w3.org/2000/svg" xmlns:xlink="http://www.w3.org/1999/xlink" x="0px" y="0px"
	 width="50.314px" height="44px" viewBox="0 0 50.314 44" enable-background="new 0 0 50.314 44" xml:space="preserve">
<g id="Layer_18">
</g>
<g id="Layer_17">
</g>
<g id="Layer_16">
</g>
<g id="Layer_15">
</g>
<g id="Layer_14">
</g>
<g id="Layer_13">
</g>
<g id="Layer_12">
</g>
<g id="Layer_11">
</g>
<g id="Layer_10">
</g>
<g id="Layer_9">
</g>
<g id="Layer_8">
	<rect x="7.401" y="9.993" fill="#007DC5" width="35.369" height="23.599"/>
	<path fill="#FFFFFF" d="M23.538,17.148h2.145v0.998c0,0.195,0.14,0.188,0.14,0.188h0.648c0,0,0.14,0.007,0.14-0.188v-0.998h0.063
		l0.437-0.499v-1.591l-0.437-0.328l-0.631-1.599c-1.412-0.187-2.513-0.202-2.513-0.195c0-0.007-1.1,0.008-2.511,0.195l-0.632,1.599
		l-0.438,0.328v1.591l0.438,0.499h0.062v0.998c0,0.195,0.142,0.188,0.142,0.188h0.646c0,0,0.141,0.007,0.141-0.188v-0.998h2.145
		H23.538z"/>
	<path fill="#007DC5" d="M23.53,14.622c0-0.008,1.848,0.047,2.753,0.117l0.007-0.003l-0.483-1.221
		c-1.41-0.188-2.276-0.203-2.276-0.196c0-0.007-0.866,0.008-2.278,0.196l-0.482,1.221l0.008,0.003
		C21.681,14.668,23.53,14.614,23.53,14.622"/>
	<path fill="#007DC5" d="M25.413,16.119h1.201c0.129,0,0.138-0.133,0.138-0.133v-0.62c0,0-0.009-0.132-0.138-0.132H25.62
		c-0.129,0-0.174,0.09-0.19,0.129c-0.028,0.062-0.156,0.623-0.156,0.623C25.273,16.111,25.413,16.119,25.413,16.119"/>
	<path fill="#007DC5" d="M21.646,16.119h-1.201c-0.129,0-0.137-0.133-0.137-0.133v-0.62c0,0,0.008-0.132,0.137-0.132h0.994
		c0.129,0,0.175,0.09,0.19,0.129c0.028,0.062,0.156,0.623,0.156,0.623C21.786,16.111,21.646,16.119,21.646,16.119"/>
	<path fill="#FFFFFF" d="M14.811,17.362c-0.722,0-1.306-0.584-1.306-1.305s0.584-1.305,1.306-1.305c0.721,0,1.305,0.584,1.305,1.305
		S15.531,17.362,14.811,17.362"/>
	<path fill="#FFFFFF" d="M14.811,17.556c0.401,0,0.761,0.182,1.001,0.467l3.719,3.806l-0.475,0.494l-2.962-2.271
		c-0.059,1.264-0.315,2.587-0.315,2.587l2.33,8.393h-0.869l-2.745-6.319l-0.987,2.705l-2.37,3.535l-0.711-0.593l1.896-3.692
		l0.849-4.266l0.021-2.291l-0.652,0.474l-0.454,2.291l-0.652,0.04l0.198-2.844l2.133-2.212
		C14.238,17.426,14.811,17.556,14.811,17.556"/>
	<path fill="#FFFFFF" d="M25.684,23.136c0.505,0,0.914-0.409,0.914-0.914c0-0.505-0.409-0.914-0.914-0.914s-0.914,0.409-0.914,0.914
		C24.77,22.727,25.179,23.136,25.684,23.136"/>
	<path fill="#FFFFFF" d="M25.967,23.319c-0.23,0.016-0.428,0.134-0.553,0.307l-1.934,2.489l0.414,0.318l1.341-1.389
		c0.154,0.721,0.382,1.219,0.382,1.219l-0.723,4.835l0.579-0.035l1.152-3.295l0.534,1.108l2.541,0.867l0.012-0.848l-1.769-0.632
		l-0.683-2.185l-0.157-1.377l0.351,0.011l0.817,1.044l0.443-0.375l-1.024-1.26l-1.142-0.615
		C26.262,23.277,25.967,23.319,25.967,23.319"/>
	<path fill="#FFFFFF" d="M22.328,31.008c0.547,0,0.99-0.443,0.99-0.99s-0.443-0.99-0.99-0.99s-0.99,0.443-0.99,0.99
		S21.781,31.008,22.328,31.008"/>
	<path fill="#FFFFFF" d="M31.514,17.131v-1.444h1.21v0.529l-0.001,0.006l2.428-1.828l4.73,3.603v6.132h-1.238v-4.702h-2.31v4.702
		h-5.968v-6.132l1.152-0.868L31.514,17.131z M35.123,19.427h-3.486v3.486h3.486V19.427z"/>
	<path fill="#ED1C24" d="M10.565,32.693L41.81,12.458c-0.031-0.979-0.994-1.529-2.177-1.526L8.327,31.195l0.014,0.026
		C8.586,32.077,9.328,32.736,10.565,32.693"/>
	<path fill="none" stroke="#FFFFFF" stroke-width="0.798" d="M39.978,32.66c1.028,0,1.862-0.833,1.862-1.862V12.785
		c0-1.029-0.834-1.862-1.862-1.862H10.193c-1.028,0-1.861,0.833-1.861,1.862v18.013c0,1.029,0.833,1.862,1.861,1.862H39.978z"/>
	<line fill="#FFFFFF" x1="11.336" y1="32.608" x2="41.916" y2="12.846"/>
	<line fill="none" stroke="#FFFFFF" stroke-width="0.798" x1="11.336" y1="32.608" x2="41.916" y2="12.846"/>
	<line fill="#FFFFFF" x1="8.402" y1="30.702" x2="38.982" y2="10.938"/>
	<line fill="none" stroke="#FFFFFF" stroke-width="0.798" x1="8.402" y1="30.702" x2="38.982" y2="10.938"/>
	<rect fill="none" width="50.314" height="44"/>
</g>
<g id="Layer_7">
</g>
<g id="Layer_6">
</g>
<g id="Layer_5">
</g>
<g id="Layer_4">
</g>
<g id="Layer_3">
</g>
</svg>
