<?xml version="1.0" encoding="utf-8"?>
<!-- Generator: Adobe Illustrator 16.0.0, SVG Export Plug-In . SVG Version: 6.00 Build 0)  -->
<!DOCTYPE svg PUBLIC "-//W3C//DTD SVG 1.1//EN" "http://www.w3.org/Graphics/SVG/1.1/DTD/svg11.dtd">
<svg version="1.1" xmlns="http://www.w3.org/2000/svg" xmlns:xlink="http://www.w3.org/1999/xlink" x="0px" y="0px"
	 width="50.315px" height="44px" viewBox="0 0 50.315 44" enable-background="new 0 0 50.315 44" xml:space="preserve">
<g id="Layer_18">
</g>
<g id="Layer_17">
</g>
<g id="Layer_16">
</g>
<g id="Layer_15">
</g>
<g id="Layer_14">
</g>
<g id="Layer_13">
</g>
<g id="Layer_12">
</g>
<g id="Layer_11">
</g>
<g id="Layer_10">
</g>
<g id="Layer_9">
	<path fill="#007DC5" d="M24.981,39.811c9.812,0,17.766-7.954,17.766-17.765c0-9.811-7.954-17.765-17.766-17.765
		c-9.811,0-17.765,7.954-17.765,17.765C7.217,31.856,15.171,39.811,24.981,39.811"/>
	<circle fill="none" stroke="#FFFFFF" stroke-width="0.798" cx="24.981" cy="22.044" r="16.811"/>
	<path fill="#FFFFFF" d="M21.751,12.749c1.004,0,1.816-0.814,1.816-1.817c0-1.004-0.813-1.818-1.816-1.818s-1.817,0.814-1.817,1.818
		C19.934,11.935,20.747,12.749,21.751,12.749"/>
	<path fill="#FFFFFF" d="M31.482,22.27c0.731,0,1.324-0.593,1.324-1.325c0-0.731-0.593-1.325-1.324-1.325
		c-0.732,0-1.325,0.594-1.325,1.325C30.157,21.677,30.75,22.27,31.482,22.27"/>
	<path fill="#FFFFFF" d="M21.736,13.327h1.183c1.319,0.055,2.199,2.2,2.199,2.2l2.559,5.032l-0.771,0.468l-3.08-4.73l-0.055,4.262
		l2.282,13.283h-1.155l-3.162-9.955l-3.162,9.955h-1.155l2.282-13.283l-0.138-4.317l-1.925,5.445l-0.907-0.303l1.623-5.857
		c0,0,0.302-2.2,2.199-2.2H21.736z"/>
	<path fill="#FFFFFF" d="M27.292,21.467l0.604-0.385l1.32,1.513h2.282c0.659,0,0.989,0.494,0.989,0.494l2.943,3.025l-0.577,0.633
		l-2.118-2.063l-0.468,2.145l2.53,5.968l-0.797,0.358l-2.613-4.428l-1.897,5.032h-0.77l1.347-7.094v-2.75l-1.347-0.275
		L27.292,21.467z"/>
	<rect fill="none" width="50.315" height="44"/>
</g>
<g id="Layer_8">
</g>
<g id="Layer_7">
</g>
<g id="Layer_6">
</g>
<g id="Layer_5">
</g>
<g id="Layer_4">
</g>
<g id="Layer_3">
</g>
</svg>
