<?xml version="1.0" encoding="utf-8"?>
<!-- Generator: Adobe Illustrator 16.0.0, SVG Export Plug-In . SVG Version: 6.00 Build 0)  -->
<!DOCTYPE svg PUBLIC "-//W3C//DTD SVG 1.1//EN" "http://www.w3.org/Graphics/SVG/1.1/DTD/svg11.dtd">
<svg version="1.1" xmlns="http://www.w3.org/2000/svg" xmlns:xlink="http://www.w3.org/1999/xlink" x="0px" y="0px"
	 width="50.315px" height="44px" viewBox="0 0 50.315 44" enable-background="new 0 0 50.315 44" xml:space="preserve">
<g id="Layer_18">
</g>
<g id="Layer_17">
</g>
<g id="Layer_16">
</g>
<g id="Layer_15">
</g>
<g id="Layer_14">
</g>
<g id="Layer_13">
</g>
<g id="Layer_12">
</g>
<g id="Layer_11">
</g>
<g id="Layer_10">
	<path fill="#007DC5" d="M25.128,39.849c9.811,0,17.765-7.953,17.765-17.765c0-9.811-7.954-17.765-17.765-17.765
		S7.363,12.273,7.363,22.084C7.363,31.896,15.317,39.849,25.128,39.849"/>
	<path fill="#FFFFFF" d="M21.897,12.787c1.004,0,1.817-0.814,1.817-1.817c0-1.004-0.813-1.817-1.817-1.817S20.08,9.966,20.08,10.97
		C20.08,11.973,20.893,12.787,21.897,12.787"/>
	<path fill="#FFFFFF" d="M31.628,22.309c0.732,0,1.325-0.593,1.325-1.325c0-0.731-0.593-1.325-1.325-1.325
		c-0.732,0-1.325,0.594-1.325,1.325C30.303,21.716,30.896,22.309,31.628,22.309"/>
	<path fill="#FFFFFF" d="M21.883,13.365h1.182c1.321,0.055,2.201,2.2,2.201,2.2l2.557,5.032l-0.77,0.468l-3.08-4.73l-0.055,4.263
		l2.283,13.282h-1.155l-3.163-9.954l-3.162,9.954h-1.156l2.283-13.282L19.71,16.28l-1.925,5.445l-0.907-0.303l1.623-5.857
		c0,0,0.302-2.2,2.2-2.2H21.883z"/>
	<path fill="#FFFFFF" d="M27.438,21.505l0.605-0.385l1.32,1.514h2.282c0.66,0,0.99,0.493,0.99,0.493l2.943,3.026l-0.577,0.632
		l-2.118-2.063l-0.468,2.146l2.53,5.967l-0.797,0.358l-2.613-4.428l-1.897,5.032h-0.77l1.347-7.095v-2.75l-1.347-0.274
		L27.438,21.505z"/>
	<polygon fill="#ED1C24" points="14.438,35.043 38.159,11.322 35.72,8.883 12.027,32.577 	"/>
	<circle fill="none" stroke="#FFFFFF" stroke-width="0.798" cx="25.128" cy="22.083" r="16.811"/>
	<line fill="#ED1C24" x1="35.389" y1="8.899" x2="11.922" y2="32.198"/>
	<line fill="none" stroke="#FFFFFF" stroke-width="0.798" x1="35.389" y1="8.899" x2="11.922" y2="32.198"/>
	<line fill="#ED1C24" x1="38.238" y1="11.749" x2="14.772" y2="35.049"/>
	<line fill="none" stroke="#FFFFFF" stroke-width="0.798" x1="38.238" y1="11.749" x2="14.772" y2="35.049"/>
	<rect fill="none" width="50.315" height="44"/>
</g>
<g id="Layer_9">
</g>
<g id="Layer_8">
</g>
<g id="Layer_7">
</g>
<g id="Layer_6">
</g>
<g id="Layer_5">
</g>
<g id="Layer_4">
</g>
<g id="Layer_3">
</g>
</svg>
