<?xml version="1.0" encoding="utf-8"?>
<!-- Generator: Adobe Illustrator 16.0.0, SVG Export Plug-In . SVG Version: 6.00 Build 0)  -->
<!DOCTYPE svg PUBLIC "-//W3C//DTD SVG 1.1//EN" "http://www.w3.org/Graphics/SVG/1.1/DTD/svg11.dtd">
<svg version="1.1" xmlns="http://www.w3.org/2000/svg" xmlns:xlink="http://www.w3.org/1999/xlink" x="0px" y="0px"
	 width="50.315px" height="44px" viewBox="0 0 50.315 44" enable-background="new 0 0 50.315 44" xml:space="preserve">
<g id="Layer_18">
</g>
<g id="Layer_17">
</g>
<g id="Layer_16">
</g>
<g id="Layer_15">
</g>
<g id="Layer_14">
</g>
<g id="Layer_13">
</g>
<g id="Layer_12">
</g>
<g id="Layer_11">
	<path fill="#007DC5" d="M25.245,39.742c9.811,0,17.765-7.954,17.765-17.765c0-9.812-7.954-17.766-17.765-17.766
		S7.48,12.166,7.48,21.978C7.48,31.788,15.434,39.742,25.245,39.742"/>
	<circle fill="none" stroke="#FFFFFF" stroke-width="0.798" cx="25.245" cy="21.976" r="16.811"/>
	<path fill="#FFFFFF" d="M13.805,14.083l3.08-0.109c1.595-0.55,5.885,4.234,5.885,4.234l2.31-0.88l-0.33-1.925l-0.385,0.55
		l-1.98,0.825l-0.44-0.495l2.035-1.265c0.22-3.355,2.86-3.355,3.245-0.715c0.283,1.942,0.495,3.08,0.495,3.08
		c0.165,0.439-0.11,0.88-0.11,0.88l1.815-0.275c2.529-0.284,3.245,0.385,3.245,0.385c1.32-0.824,4.817-0.955,4.895,2.86
		c0.044,2.143,1.21,2.75,1.21,2.75c-0.22,0.715-2.475,0.99-2.86-0.495c-0.387-1.492-0.165-4.785-2.475-4.675l-0.165,0.055
		c1.1,0.771,1.76,2.356,1.045,3.905c-0.99,2.146,0.605,3.245,0.605,3.245v2.035c0.33,1.595,1.375,2.529,1.375,2.529v1.485
		c-2.145-0.935-1.87-2.75-1.87-2.75c-0.055-2.805-2.53-3.96-2.53-3.96l-0.055,1.98l-0.55,1.154l-0.11,2.255
		C29.7,31.243,29.7,32.563,29.7,32.563l-1.32-0.055c-0.11-1.155,0.825-1.21,0.825-1.21c3.08-3.96-0.055-7.535-0.055-7.535
		c-3.025,2.2-7.095,0.825-7.095,0.825c-0.495,4.015,1.462,6.39,1.43,6.435c-0.385,0.55-0.275,1.485-0.275,1.485l-1.32,0.055
		c-0.055-0.605,0.55-1.375,0.55-1.375c-0.715-3.465-2.915-5.94-2.915-5.94c-2.86,0.936-3.795,4.016-3.795,4.016
		c-0.44,1.649,0.22,2.035,0.22,2.035l-0.715,0.935l-0.66-1.705v-0.77c1.705-4.455,3.96-6.271,3.96-6.271
		c-0.66-0.77-0.22-2.585-0.22-2.585l-1.65-3.189l-1.21,1.649c0.22,0.55-1.375,1.431-1.485,0c-0.11-1.43,0-2.53,0-2.53l-0.385-0.659
		l0.66-1.431L13.805,14.083z"/>
	<path fill="#FFFFFF" d="M25.382,12.039c0.709,0,1.283-0.574,1.283-1.282c0-0.709-0.574-1.284-1.283-1.284s-1.283,0.575-1.283,1.284
		C24.099,11.465,24.673,12.039,25.382,12.039"/>
	<rect fill="none" width="50.315" height="44"/>
</g>
<g id="Layer_10">
</g>
<g id="Layer_9">
</g>
<g id="Layer_8">
</g>
<g id="Layer_7">
</g>
<g id="Layer_6">
</g>
<g id="Layer_5">
</g>
<g id="Layer_4">
</g>
<g id="Layer_3">
</g>
</svg>
