<?xml version="1.0" encoding="utf-8"?>
<!-- Generator: Adobe Illustrator 16.0.0, SVG Export Plug-In . SVG Version: 6.00 Build 0)  -->
<!DOCTYPE svg PUBLIC "-//W3C//DTD SVG 1.1//EN" "http://www.w3.org/Graphics/SVG/1.1/DTD/svg11.dtd">
<svg version="1.1" xmlns="http://www.w3.org/2000/svg" xmlns:xlink="http://www.w3.org/1999/xlink" x="0px" y="0px"
	 width="50.315px" height="32.661px" viewBox="0 0 50.315 32.661" enable-background="new 0 0 50.315 32.661" xml:space="preserve">
<g id="Layer_3">
</g>
<g id="Layer_2">
	<rect x="2.14" y="4.316" fill="#007DC4" width="45.836" height="13.446"/>
	<path fill="#FFFFFF" d="M15.895,13.254c-0.298,0.552-0.871,0.828-1.586,0.828c-1.293,0-1.807-1.005-1.807-2.309
		c0-1.295,0.595-2.379,1.872-2.379c1.205,0.026,1.775,0.863,1.775,2.088v0.414H13.42c-0.089,0.562,0.102,1.314,0.881,1.314
		c0.758,0,0.932-0.416,0.934-0.449L15.895,13.254z M15.238,11.254c0.014-0.66-0.258-1.17-0.916-1.17
		c-0.566,0-0.902,0.526-0.902,1.17H15.238z"/>
	<path fill="#FFFFFF" d="M44.611,13.108c0.011,0.275,0.032,0.55,0.001,0.842h-0.99l0.003-0.34h-0.004
		c-0.147,0.182-0.452,0.454-1.091,0.46c-1.412,0.014-1.746-1.192-1.746-2.439c0-1.182,0.726-2.285,1.767-2.302
		c0.425-0.007,0.7,0.047,1.043,0.524h0.031V8.271l0.986-0.513V13.108z M43.625,10.717c-0.135-0.214-0.547-0.516-1.073-0.43
		c-0.315,0.051-0.832,0.5-0.832,1.361c0,0.862,0.273,1.516,0.824,1.516c0.54,0,0.947-0.145,1.083-0.41L43.625,10.717z"/>
	<polygon fill="#FFFFFF" points="5.974,13.951 5.974,8.098 6.876,8.098 6.876,10.427 9.585,10.427 9.585,8.098 10.487,8.098 
		10.487,13.951 9.585,13.951 9.585,11.313 6.876,11.313 6.876,13.951 	"/>
	<polygon fill="#FFFFFF" points="18.096,13.951 18.096,8.317 19.09,7.823 19.09,13.951 	"/>
	<path fill="#FFFFFF" d="M22.339,10.072h-0.064c0.27-0.568,0.802-0.709,1.262-0.73c0.609-0.027,1.237,0.371,1.294,0.766
		c-0.064-0.448,0.949-0.766,1.479-0.766c0.551,0,1.522,0.356,1.522,1.416v3.193h-1.05v-2.679c-0.055-0.43,0.102-1.051-0.871-1.051
		c-0.262,0-0.619,0.144-0.672,0.428c-0.078,0.424-0.09,0.866-0.09,0.974v2.328h-0.994v-2.679c0-0.785-0.401-1.024-0.864-1.024
		c-0.421,0-0.732,0.218-0.898,0.602c-0.1,0.235-0.036,0.665-0.036,0.773v2.328h-0.939V9.478h0.921V10.072z"/>
	<path fill="#FFFFFF" d="M33.52,11.687c0,1.407-0.464,2.399-1.952,2.399c-1.488,0-2.007-0.992-2.007-2.399
		c0-1.407,0.519-2.399,2.007-2.399C33.056,9.288,33.52,10.28,33.52,11.687 M31.568,13.463c0.717,0,1.051-0.812,1.051-1.777
		c0-0.965-0.307-1.777-1.051-1.777c-0.882,0-1.105,0.812-1.105,1.777C30.463,12.652,30.796,13.463,31.568,13.463"/>
	<path fill="#FFFFFF" d="M36.188,10.09h-0.092c0.289-0.568,0.727-0.72,1.179-0.72c0.315,0,1.686-0.029,1.686,1.451v3.13h-0.967
		v-2.686c0-0.638-0.178-1.044-0.79-1.044c0,0-0.455-0.096-0.816,0.265c-0.126,0.126-0.182,0.283-0.182,1.167v2.298h-0.967V9.423
		h0.949V10.09z"/>
	<path fill="none" stroke="#FFFFFF" stroke-width="0.798" d="M44.844,16.718c1.153,0,2.087-0.934,2.087-2.087V7.446
		c0-1.153-0.934-2.087-2.087-2.087H5.269c-1.153,0-2.087,0.934-2.087,2.087v7.185c0,1.153,0.934,2.087,2.087,2.087H44.844z"/>
	<rect fill="none" width="50.315" height="32.661"/>
</g>
</svg>
