<?xml version="1.0" encoding="utf-8"?>
<!-- Generator: Adobe Illustrator 16.0.0, SVG Export Plug-In . SVG Version: 6.00 Build 0)  -->
<!DOCTYPE svg PUBLIC "-//W3C//DTD SVG 1.1//EN" "http://www.w3.org/Graphics/SVG/1.1/DTD/svg11.dtd">
<svg version="1.1" xmlns="http://www.w3.org/2000/svg" xmlns:xlink="http://www.w3.org/1999/xlink" x="0px" y="0px"
	 width="50.314px" height="32.661px" viewBox="0 0 50.314 32.661" enable-background="new 0 0 50.314 32.661" xml:space="preserve">
<g id="Layer_3">
	<rect x="1.934" y="4.355" fill="#007DC4" width="45.836" height="13.447"/>
	<path fill="#FFFFFF" d="M15.549,13.047c-0.298,0.552-0.871,0.828-1.586,0.828c-1.293,0-1.808-1.005-1.808-2.309
		c0-1.295,0.594-2.379,1.872-2.379c1.205,0.026,1.775,0.863,1.775,2.088v0.414h-2.729c-0.089,0.562,0.103,1.314,0.881,1.314
		c0.759,0,0.933-0.416,0.935-0.449L15.549,13.047z M14.892,11.047c0.014-0.66-0.258-1.17-0.916-1.17
		c-0.566,0-0.902,0.526-0.902,1.17H14.892z"/>
	<path fill="#FFFFFF" d="M44.265,12.901c0.011,0.275,0.031,0.55,0.001,0.842h-0.99l0.003-0.34h-0.004
		c-0.147,0.182-0.453,0.454-1.091,0.46c-1.412,0.014-1.746-1.192-1.746-2.439c0-1.182,0.726-2.285,1.767-2.302
		c0.426-0.007,0.7,0.047,1.043,0.524h0.031V8.064l0.986-0.513V12.901z M43.278,10.51c-0.135-0.214-0.547-0.516-1.073-0.43
		c-0.314,0.051-0.832,0.5-0.832,1.361c0,0.862,0.273,1.516,0.824,1.516c0.54,0,0.947-0.145,1.083-0.41L43.278,10.51z"/>
	<polygon fill="#FFFFFF" points="5.628,13.743 5.628,7.89 6.529,7.89 6.529,10.219 9.238,10.219 9.238,7.89 10.141,7.89 
		10.141,13.743 9.238,13.743 9.238,11.105 6.529,11.105 6.529,13.743 	"/>
	<polygon fill="#FFFFFF" points="17.749,13.743 17.749,8.11 18.743,7.615 18.743,13.743 	"/>
	<path fill="#FFFFFF" d="M21.993,9.865h-0.064c0.271-0.568,0.803-0.709,1.263-0.73C23.8,9.107,24.428,9.505,24.485,9.9
		c-0.065-0.449,0.948-0.766,1.479-0.766c0.551,0,1.522,0.356,1.522,1.416v3.193h-1.051v-2.679c-0.055-0.43,0.103-1.051-0.87-1.051
		c-0.263,0-0.619,0.144-0.673,0.428c-0.077,0.424-0.09,0.866-0.09,0.974v2.328h-0.994v-2.679c0-0.785-0.4-1.024-0.863-1.024
		c-0.421,0-0.732,0.218-0.898,0.602c-0.1,0.235-0.036,0.665-0.036,0.773v2.328h-0.938V9.271h0.921V9.865z"/>
	<path fill="#FFFFFF" d="M33.175,11.479c0,1.407-0.465,2.399-1.953,2.399s-2.007-0.992-2.007-2.399c0-1.407,0.519-2.399,2.007-2.399
		S33.175,10.072,33.175,11.479 M31.222,13.256c0.717,0,1.051-0.812,1.051-1.777c0-0.965-0.307-1.777-1.051-1.777
		c-0.882,0-1.105,0.812-1.105,1.777C30.116,12.444,30.449,13.256,31.222,13.256"/>
	<path fill="#FFFFFF" d="M35.842,9.883H35.75c0.289-0.568,0.727-0.72,1.179-0.72c0.315,0,1.687-0.029,1.687,1.451v3.13h-0.968
		v-2.686c0-0.638-0.178-1.044-0.79-1.044c0,0-0.454-0.096-0.815,0.265c-0.126,0.126-0.182,0.283-0.182,1.167v2.298h-0.968V9.216
		h0.949V9.883z"/>
	<path fill="#EC1C24" d="M5.669,16.579l40.726-10.51l0.026,0.004c-0.377-0.555-1.014-0.92-1.736-0.92h-0.983l-0.054,0.015
		L3.166,15.615l0.006,0.03c0.377,0.558,1.015,0.924,1.739,0.924h0.729L5.669,16.579z"/>
	<path fill="none" stroke="#FFFFFF" stroke-width="0.798" d="M44.498,16.511c1.152,0,2.087-0.934,2.087-2.087V7.239
		c0-1.153-0.935-2.087-2.087-2.087H4.923c-1.153,0-2.087,0.934-2.087,2.087v7.185c0,1.153,0.934,2.087,2.087,2.087H44.498z"/>
	<line fill="none" stroke="#FFFFFF" stroke-width="0.794" x1="3.219" y1="15.205" x2="42.329" y2="5.167"/>
	<line fill="none" stroke="#FFFFFF" stroke-width="0.794" x1="7.51" y1="16.503" x2="46.308" y2="6.469"/>
	<rect fill="none" width="50.314" height="32.661"/>
</g>
<g id="Layer_2">
</g>
</svg>
