<?xml version="1.0" encoding="utf-8"?>
<!-- Generator: Adobe Illustrator 16.0.0, SVG Export Plug-In . SVG Version: 6.00 Build 0)  -->
<!DOCTYPE svg PUBLIC "-//W3C//DTD SVG 1.1//EN" "http://www.w3.org/Graphics/SVG/1.1/DTD/svg11.dtd">
<svg version="1.1" xmlns="http://www.w3.org/2000/svg" xmlns:xlink="http://www.w3.org/1999/xlink" x="0px" y="0px"
	 width="50.315px" height="44px" viewBox="0 0 50.315 44" enable-background="new 0 0 50.315 44" xml:space="preserve">
<g id="Layer_40">
</g>
<g id="Layer_39">
</g>
<g id="Layer_38">
</g>
<g id="Layer_37">
</g>
<g id="Layer_36">
</g>
<g id="Layer_35">
</g>
<g id="Layer_34">
</g>
<g id="Layer_33">
</g>
<g id="Layer_32">
</g>
<g id="Layer_31">
</g>
<g id="Layer_30">
</g>
<g id="Layer_29">
</g>
<g id="Layer_28">
</g>
<g id="Layer_27">
</g>
<g id="Layer_26">
</g>
<g id="Layer_25">
</g>
<g id="Layer_24">
</g>
<g id="Layer_23">
</g>
<g id="Layer_22">
</g>
<g id="Layer_21">
</g>
<g id="Layer_20">
</g>
<g id="Layer_19">
</g>
<g id="Layer_18">
</g>
<g id="Layer_17">
</g>
<g id="Layer_16">
</g>
<g id="Layer_15">
</g>
<g id="Layer_14">
</g>
<g id="Layer_13">
</g>
<g id="Layer_12">
</g>
<g id="Layer_11">
</g>
<g id="Layer_10">
</g>
<g id="Layer_9">
</g>
<g id="Layer_8">
</g>
<g id="Layer_7">
</g>
<g id="Layer_6">
</g>
<g id="Layer_5">
</g>
<g id="Layer_4">
</g>
<g id="Layer_3">
</g>
<g id="Layer_2">
	<path fill="#ED1C24" d="M6.461,39.328C6.461,39.328,8.387,39.328,6.461,39.328c-1.705,0-0.825-1.87-0.825-1.87l18.425-31.9
		c0,0-0.4,0.707,0,0c0.715-1.265,1.65-1.21,2.31-0.055l18.425,31.955c0,0,0.88,1.87-0.825,1.87c-1.925,0,0,0,0,0H6.461z"/>
	<polygon fill="#FFFFFF" points="25.271,13.148 37.592,34.653 12.787,34.653 	"/>
	<path fill="#FFFFFF" d="M25.23,5.885c0.09,0.088,0.249,0.28,0.478,0.687l0.003,0.006c0,0,17.433,30.438,17.694,30.893
		c0.015,0.026,0.032,0.055,0.05,0.086c0.147,0.252,0.238,0.438,0.271,0.555c-0.079,0.022-0.225,0.048-0.472,0.048H25.189H7.207
		c-0.247,0-0.393-0.026-0.472-0.048c0.033-0.117,0.124-0.303,0.271-0.555c0.018-0.031,0.035-0.06,0.05-0.086
		C7.301,37.042,22.777,10.02,24.579,6.875h0.003l0.008-0.014l-0.002-0.002c0.075-0.131,0.126-0.218,0.148-0.258v0.001l0.016-0.03
		c0.001,0,0.001-0.001,0.002-0.002C24.981,6.164,25.141,5.973,25.23,5.885 M25.211,5.087c-0.007,0-0.015,0.001-0.022,0.001v0.003
		c-0.339,0.04-0.686,0.414-1.082,1.119c-0.005,0.009-0.009,0.017-0.014,0.025c0.008-0.015,0.014-0.025,0.014-0.025
		C24.102,6.221,6.674,36.648,6.415,37.104c-0.261,0.455-1.156,1.795,0.792,1.795h17.983h18.065c1.948,0,1.053-1.34,0.792-1.795
		C43.787,36.648,26.354,6.21,26.354,6.21C25.934,5.463,25.57,5.087,25.211,5.087 M23.938,6.512c0,0,0.003-0.005,0.008-0.015
		C23.94,6.507,23.938,6.512,23.938,6.512"/>
	<path d="M32.725,30.136c-1.638,0-2.246-2.514-3.841-2.514c-1.633,0-2.232,2.514-3.856,2.514c-1.604,0-2.421-2.514-4.002-2.514
		c-1.647,0-2.114,2.514-3.629,2.514h-0.448v2.127h16.272V30.13L32.725,30.136z"/>
	<rect fill="none" width="50.315" height="44"/>
</g>
</svg>
