<?xml version="1.0" encoding="utf-8"?>
<!-- Generator: Adobe Illustrator 16.0.0, SVG Export Plug-In . SVG Version: 6.00 Build 0)  -->
<!DOCTYPE svg PUBLIC "-//W3C//DTD SVG 1.1//EN" "http://www.w3.org/Graphics/SVG/1.1/DTD/svg11.dtd">
<svg version="1.1" xmlns="http://www.w3.org/2000/svg" xmlns:xlink="http://www.w3.org/1999/xlink" x="0px" y="0px"
	 width="50.314px" height="44px" viewBox="0 0 50.314 44" enable-background="new 0 0 50.314 44" xml:space="preserve">
<g id="Layer_40">
</g>
<g id="Layer_39">
</g>
<g id="Layer_38">
</g>
<g id="Layer_37">
</g>
<g id="Layer_36">
</g>
<g id="Layer_35">
</g>
<g id="Layer_34">
</g>
<g id="Layer_33">
</g>
<g id="Layer_32">
</g>
<g id="Layer_31">
</g>
<g id="Layer_30">
</g>
<g id="Layer_29">
</g>
<g id="Layer_28">
</g>
<g id="Layer_27">
</g>
<g id="Layer_26">
</g>
<g id="Layer_25">
</g>
<g id="Layer_24">
</g>
<g id="Layer_23">
</g>
<g id="Layer_22">
</g>
<g id="Layer_21">
</g>
<g id="Layer_20">
</g>
<g id="Layer_19">
</g>
<g id="Layer_18">
</g>
<g id="Layer_17">
</g>
<g id="Layer_16">
</g>
<g id="Layer_15">
</g>
<g id="Layer_14">
</g>
<g id="Layer_13">
</g>
<g id="Layer_12">
</g>
<g id="Layer_11">
	<path fill="#ED1C24" d="M6.278,39.568C6.278,39.568,8.203,39.568,6.278,39.568c-1.705,0-0.825-1.87-0.825-1.87l18.425-31.9
		c0,0-0.4,0.707,0,0c0.715-1.265,1.65-1.21,2.311-0.055l18.425,31.955c0,0,0.88,1.87-0.825,1.87c-1.925,0,0,0,0,0H6.278z"/>
	<polygon fill="#FFFFFF" points="25.088,13.388 37.408,34.893 12.603,34.893 	"/>
	<path fill="#FFFFFF" d="M25.047,6.125c0.09,0.088,0.249,0.279,0.478,0.687l0.003,0.006c0,0,17.434,30.438,17.694,30.894
		c0.015,0.025,0.032,0.055,0.05,0.086c0.147,0.252,0.238,0.438,0.271,0.555c-0.079,0.022-0.226,0.048-0.473,0.048H25.006H7.022
		c-0.247,0-0.393-0.025-0.472-0.048c0.033-0.117,0.124-0.303,0.271-0.555c0.019-0.031,0.035-0.061,0.051-0.086
		c0.246-0.43,15.722-27.451,17.522-30.597h0.003l0.008-0.014l-0.002-0.002c0.075-0.131,0.126-0.218,0.148-0.258l0.016-0.029
		c0.001,0,0.001-0.001,0.002-0.002C24.798,6.403,24.957,6.213,25.047,6.125 M25.027,5.327c-0.007,0-0.015,0.001-0.021,0.001v0.003
		c-0.339,0.04-0.687,0.414-1.082,1.119c-0.005,0.009-0.009,0.017-0.014,0.024c0.008-0.015,0.014-0.024,0.014-0.024
		C23.918,6.461,6.49,36.888,6.23,37.344c-0.261,0.455-1.156,1.795,0.792,1.795h17.983H43.07c1.948,0,1.054-1.34,0.792-1.795
		C43.603,36.888,26.17,6.45,26.17,6.45C25.75,5.703,25.387,5.327,25.027,5.327 M23.754,6.752c0,0,0.003-0.005,0.008-0.016
		C23.757,6.747,23.754,6.752,23.754,6.752"/>
	<rect fill="none" width="50.314" height="44"/>
	<polygon points="29.859,23.646 30.574,24.855 30.574,34.398 29.158,34.398 29.158,24.849 	"/>
	<polygon points="27.549,23.646 28.265,24.855 28.265,34.398 26.849,34.398 26.849,24.849 	"/>
	<polygon points="25.239,23.646 25.954,24.855 25.954,34.398 24.538,34.398 24.538,24.849 	"/>
	<polygon points="22.93,23.646 23.645,24.855 23.645,34.398 22.229,34.398 22.229,24.849 	"/>
	<polygon points="20.619,23.646 21.334,24.855 21.334,34.398 19.918,34.398 19.918,24.849 	"/>
	<rect x="18.928" y="26.396" width="12.636" height="1.512"/>
	<rect x="18.928" y="31.455" width="12.636" height="1.513"/>
</g>
<g id="Layer_10">
</g>
<g id="Layer_9">
</g>
<g id="Layer_8">
</g>
<g id="Layer_7">
</g>
<g id="Layer_6">
</g>
<g id="Layer_5">
</g>
<g id="Layer_4">
</g>
<g id="Layer_3">
</g>
<g id="Layer_2">
</g>
</svg>
