<?xml version="1.0" encoding="utf-8"?>
<!-- Generator: Adobe Illustrator 16.0.0, SVG Export Plug-In . SVG Version: 6.00 Build 0)  -->
<!DOCTYPE svg PUBLIC "-//W3C//DTD SVG 1.1//EN" "http://www.w3.org/Graphics/SVG/1.1/DTD/svg11.dtd">
<svg version="1.1" xmlns="http://www.w3.org/2000/svg" xmlns:xlink="http://www.w3.org/1999/xlink" x="0px" y="0px"
	 width="50.315px" height="44px" viewBox="0 0 50.315 44" enable-background="new 0 0 50.315 44" xml:space="preserve">
<g id="Layer_40">
</g>
<g id="Layer_39">
</g>
<g id="Layer_38">
</g>
<g id="Layer_37">
</g>
<g id="Layer_36">
</g>
<g id="Layer_35">
</g>
<g id="Layer_34">
</g>
<g id="Layer_33">
</g>
<g id="Layer_32">
</g>
<g id="Layer_31">
</g>
<g id="Layer_30">
</g>
<g id="Layer_29">
</g>
<g id="Layer_28">
</g>
<g id="Layer_27">
</g>
<g id="Layer_26">
</g>
<g id="Layer_25">
</g>
<g id="Layer_24">
</g>
<g id="Layer_23">
</g>
<g id="Layer_22">
</g>
<g id="Layer_21">
</g>
<g id="Layer_20">
</g>
<g id="Layer_19">
</g>
<g id="Layer_18">
</g>
<g id="Layer_17">
</g>
<g id="Layer_16">
</g>
<g id="Layer_15">
</g>
<g id="Layer_14">
</g>
<g id="Layer_13">
</g>
<g id="Layer_12">
	<path fill="#ED1C24" d="M6.521,39.421C6.521,39.421,8.446,39.421,6.521,39.421c-1.705,0-0.824-1.87-0.824-1.87l18.425-31.9
		c0,0-0.4,0.707,0,0c0.715-1.265,1.649-1.21,2.31-0.055l18.425,31.955c0,0,0.88,1.87-0.824,1.87c-1.926,0,0,0,0,0H6.521z"/>
	<polygon fill="#FFFFFF" points="25.331,13.24 37.65,34.745 12.846,34.745 	"/>
	<path fill="#FFFFFF" d="M25.29,5.978c0.09,0.088,0.249,0.279,0.478,0.687l0.003,0.006c0,0,17.434,30.438,17.694,30.894
		c0.015,0.025,0.032,0.055,0.05,0.086c0.147,0.252,0.238,0.438,0.271,0.555c-0.079,0.022-0.226,0.048-0.473,0.048H25.249H7.266
		c-0.247,0-0.393-0.025-0.472-0.048c0.032-0.117,0.124-0.303,0.271-0.555c0.019-0.031,0.035-0.061,0.05-0.086
		c0.246-0.43,15.723-27.451,17.523-30.597h0.003l0.008-0.014l-0.002-0.002c0.075-0.131,0.126-0.218,0.148-0.258l0.016-0.029
		c0.001,0,0.001-0.001,0.002-0.002C25.041,6.256,25.199,6.065,25.29,5.978 M25.271,5.179c-0.007,0-0.015,0.001-0.021,0.001v0.004
		c-0.34,0.039-0.687,0.413-1.082,1.118c-0.005,0.01-0.01,0.018-0.015,0.025c0.009-0.015,0.015-0.025,0.015-0.025
		C24.161,6.313,6.733,36.74,6.474,37.196c-0.261,0.455-1.156,1.795,0.792,1.795h17.983h18.064c1.948,0,1.053-1.34,0.792-1.795
		C43.846,36.74,26.413,6.302,26.413,6.302C25.992,5.555,25.63,5.179,25.271,5.179 M23.997,6.604c0,0,0.003-0.005,0.008-0.016
		C24,6.6,23.997,6.604,23.997,6.604"/>
	<path d="M21.404,33.693c0.521,0,0.942-0.423,0.942-0.942c0-0.521-0.422-0.941-0.942-0.941c-0.52,0-0.941,0.421-0.941,0.941
		C20.463,33.271,20.885,33.693,21.404,33.693"/>
	<path d="M23.632,33.693c0.521,0,0.942-0.423,0.942-0.942c0-0.521-0.422-0.941-0.942-0.941c-0.52,0-0.941,0.421-0.941,0.941
		C22.69,33.271,23.112,33.693,23.632,33.693"/>
	<path d="M25.859,33.693c0.521,0,0.942-0.423,0.942-0.942c0-0.521-0.422-0.941-0.942-0.941c-0.52,0-0.941,0.421-0.941,0.941
		C24.918,33.271,25.34,33.693,25.859,33.693"/>
	<path d="M28.087,33.693c0.521,0,0.942-0.423,0.942-0.942c0-0.521-0.422-0.941-0.942-0.941c-0.52,0-0.941,0.421-0.941,0.941
		C27.146,33.271,27.567,33.693,28.087,33.693"/>
	<path d="M29.146,32.395V31.61h-8.8v0.88h-1.54v-0.756h0.22l-0.234-2.09l0.124-1.526h0.771v-1.197h1.292v1.114l2.739-0.007
		c0-0.307,0.249-0.54,0.555-0.54s0.554,0.233,0.554,0.54l1.096,0.007v-0.206c0-0.315,0.256-0.571,0.57-0.571
		c0.316,0,0.571,0.256,0.571,0.571v0.206h0.873v-0.688h3.822v0.688h-0.316v3.479h0.316v0.881H29.146z"/>
	<path d="M20.347,25.12c-1.431,0.99,0.949,2.063,0.949,0.646h0.014c0.521,0.192,0.811-0.275,0.811-0.275
		c0-0.014,0.316,0.633,1.06,0.633c0.88,0,1.03-0.907,1.03-0.907c1.293,0.055,1.911-1.691,1.911-1.691
		c3.877,2.53,4.084-4.221,0.716-2.915l-0.041-0.069c-0.371-1.03-2.352-1.003-2.394,0.098v-0.015
		c-3.795-0.138-2.695,3.095-2.695,3.095c-0.77-0.11-1.36,0.22-1.36,1.388V25.12z"/>
	<rect fill="none" width="50.315" height="44"/>
</g>
<g id="Layer_11">
</g>
<g id="Layer_10">
</g>
<g id="Layer_9">
</g>
<g id="Layer_8">
</g>
<g id="Layer_7">
</g>
<g id="Layer_6">
</g>
<g id="Layer_5">
</g>
<g id="Layer_4">
</g>
<g id="Layer_3">
</g>
<g id="Layer_2">
</g>
</svg>
