<?xml version="1.0" encoding="utf-8"?>
<!-- Generator: Adobe Illustrator 16.0.0, SVG Export Plug-In . SVG Version: 6.00 Build 0)  -->
<!DOCTYPE svg PUBLIC "-//W3C//DTD SVG 1.1//EN" "http://www.w3.org/Graphics/SVG/1.1/DTD/svg11.dtd">
<svg version="1.1" xmlns="http://www.w3.org/2000/svg" xmlns:xlink="http://www.w3.org/1999/xlink" x="0px" y="0px"
	 width="16.114px" height="34.66px" viewBox="0 0 16.114 34.66" enable-background="new 0 0 16.114 34.66" xml:space="preserve">
<g id="Layer_40">
</g>
<g id="Layer_39">
</g>
<g id="Layer_38">
</g>
<g id="Layer_37">
</g>
<g id="Layer_36">
</g>
<g id="Layer_35">
</g>
<g id="Layer_34">
</g>
<g id="Layer_33">
</g>
<g id="Layer_32">
</g>
<g id="Layer_31">
</g>
<g id="Layer_30">
</g>
<g id="Layer_29">
</g>
<g id="Layer_28">
</g>
<g id="Layer_27">
</g>
<g id="Layer_26">
</g>
<g id="Layer_25">
</g>
<g id="Layer_24">
</g>
<g id="Layer_23">
</g>
<g id="Layer_22">
</g>
<g id="Layer_21">
</g>
<g id="Layer_20">
</g>
<g id="Layer_19">
</g>
<g id="Layer_18">
</g>
<g id="Layer_17">
</g>
<g id="Layer_16">
</g>
<g id="Layer_15">
</g>
<g id="Layer_14">
</g>
<g id="Layer_13">
	<polygon fill="#FFFFFF" points="3.52,3.29 0.012,1.761 0.048,1.027 0.537,0.551 4.02,2.068 	"/>
	<polygon fill="#FFFFFF" points="12.565,5.789 16.102,7.338 15.993,8.065 15.549,8.528 12.065,7.011 	"/>
	<polygon fill="#FFFFFF" points="0.047,1.027 0.538,0.55 16.102,7.338 15.993,8.065 15.576,8.549 0.012,1.761 	"/>
	<polygon fill="#FFFFFF" points="0.047,1.027 0.538,0.55 16.102,7.338 15.993,8.065 15.576,8.549 0.012,1.761 	"/>
	<polygon fill="#ED1C24" points="3.52,3.29 0.012,1.761 0.048,1.027 0.537,0.551 4.02,2.068 	"/>
	<polygon fill="#ED1C24" points="12.565,5.789 16.102,7.338 15.993,8.065 15.549,8.528 12.065,7.011 	"/>
	<polygon fill="none" stroke="#000000" stroke-width="0.022" points="0.047,1.027 0.538,0.55 16.102,7.338 15.993,8.065 
		15.576,8.549 0.012,1.761 	"/>
	<polygon fill="none" stroke="#000000" stroke-width="0.022" points="0.047,1.027 0.538,0.55 16.102,7.338 15.993,8.065 
		15.576,8.549 0.012,1.761 	"/>
	<rect x="7.396" y="0.011" fill="#FFFFFF" width="1.32" height="34.639"/>
	<polygon fill="#ED1C24" points="8.723,2.457 8.723,0.011 7.397,0.011 7.403,3.121 	"/>
	<polygon fill="#ED1C24" points="8.705,10.549 8.705,6.438 7.385,7.103 7.385,11.213 	"/>
	<polygon fill="#ED1C24" points="8.705,18.714 8.705,14.604 7.385,15.268 7.385,19.378 	"/>
	<polygon fill="#ED1C24" points="8.723,26.687 8.723,22.576 7.403,23.24 7.403,27.351 	"/>
	<polygon fill="#ED1C24" points="8.723,34.649 8.723,30.732 7.403,31.396 7.403,34.649 	"/>
	<rect x="7.396" y="0.011" fill="none" stroke="#000000" stroke-width="0.022" width="1.32" height="34.639"/>
	<rect x="7.396" y="0.011" fill="none" stroke="#000000" stroke-width="0.022" width="1.32" height="34.639"/>
	<polygon fill="#FFFFFF" points="12.594,3.29 16.102,1.761 16.066,1.027 15.577,0.551 12.094,2.068 	"/>
	<polygon fill="#FFFFFF" points="3.548,5.789 0.012,7.338 0.122,8.065 0.565,8.528 4.048,7.011 	"/>
	<polygon fill="#FFFFFF" points="16.066,1.027 15.577,0.55 0.012,7.338 0.121,8.065 0.538,8.549 16.103,1.761 	"/>
	<polygon fill="#FFFFFF" points="16.066,1.027 15.577,0.55 0.012,7.338 0.121,8.065 0.538,8.549 16.103,1.761 	"/>
	<polygon fill="#ED1C24" points="12.594,3.29 16.102,1.761 16.066,1.027 15.577,0.551 12.094,2.068 	"/>
	<polygon fill="#ED1C24" points="3.548,5.789 0.012,7.338 0.122,8.065 0.565,8.528 4.048,7.011 	"/>
	<polygon fill="none" stroke="#000000" stroke-width="0.022" points="16.066,1.027 15.577,0.55 0.012,7.338 0.121,8.065 
		0.538,8.549 16.103,1.761 	"/>
	<polygon fill="none" stroke="#000000" stroke-width="0.022" points="16.066,1.027 15.577,0.55 0.012,7.338 0.121,8.065 
		0.538,8.549 16.103,1.761 	"/>
</g>
<g id="Layer_12">
</g>
<g id="Layer_11">
</g>
<g id="Layer_10">
</g>
<g id="Layer_9">
</g>
<g id="Layer_8">
</g>
<g id="Layer_7">
</g>
<g id="Layer_6">
</g>
<g id="Layer_5">
</g>
<g id="Layer_4">
</g>
<g id="Layer_3">
</g>
<g id="Layer_2">
</g>
</svg>
