<?xml version="1.0" encoding="utf-8"?>
<!-- Generator: Adobe Illustrator 16.0.0, SVG Export Plug-In . SVG Version: 6.00 Build 0)  -->
<!DOCTYPE svg PUBLIC "-//W3C//DTD SVG 1.1//EN" "http://www.w3.org/Graphics/SVG/1.1/DTD/svg11.dtd">
<svg version="1.1" xmlns="http://www.w3.org/2000/svg" xmlns:xlink="http://www.w3.org/1999/xlink" x="0px" y="0px"
	 width="15.696px" height="34.643px" viewBox="0 0 15.696 34.643" enable-background="new 0 0 15.696 34.643" xml:space="preserve">
<g id="Layer_40">
</g>
<g id="Layer_39">
</g>
<g id="Layer_38">
</g>
<g id="Layer_37">
</g>
<g id="Layer_36">
</g>
<g id="Layer_35">
</g>
<g id="Layer_34">
</g>
<g id="Layer_33">
</g>
<g id="Layer_32">
</g>
<g id="Layer_31">
</g>
<g id="Layer_30">
</g>
<g id="Layer_29">
</g>
<g id="Layer_28">
</g>
<g id="Layer_27">
</g>
<g id="Layer_26">
</g>
<g id="Layer_25">
</g>
<g id="Layer_24">
</g>
<g id="Layer_23">
</g>
<g id="Layer_22">
</g>
<g id="Layer_21">
</g>
<g id="Layer_20">
</g>
<g id="Layer_19">
</g>
<g id="Layer_18">
</g>
<g id="Layer_17">
</g>
<g id="Layer_16">
</g>
<g id="Layer_15">
</g>
<g id="Layer_14">
	<polygon fill="#FFFFFF" points="12.268,6.077 15.685,4.587 15.65,3.873 15.173,3.408 11.781,4.887 	"/>
	<polygon fill="#FFFFFF" points="3.457,8.511 0.012,10.02 0.118,10.729 0.551,11.18 3.943,9.7 	"/>
	<polygon fill="#FFFFFF" points="15.65,3.873 15.173,3.408 0.012,10.02 0.118,10.728 0.524,11.199 15.685,4.587 	"/>
	<polygon fill="#FFFFFF" points="15.65,3.873 15.173,3.408 0.012,10.02 0.118,10.728 0.524,11.199 15.685,4.587 	"/>
	<polygon fill="#ED1C24" points="12.268,6.077 15.685,4.587 15.65,3.873 15.173,3.408 11.781,4.887 	"/>
	<polygon fill="#ED1C24" points="3.457,8.511 0.012,10.02 0.118,10.729 0.551,11.18 3.943,9.7 	"/>
	<polygon fill="none" stroke="#000000" stroke-width="0.021" points="15.65,3.873 15.173,3.408 0.012,10.02 0.118,10.728 
		0.524,11.199 15.685,4.587 	"/>
	<polygon fill="none" stroke="#000000" stroke-width="0.021" points="15.65,3.873 15.173,3.408 0.012,10.02 0.118,10.728 
		0.524,11.199 15.685,4.587 	"/>
	<polygon fill="#FFFFFF" points="12.268,2.682 15.685,1.191 15.65,0.478 15.173,0.013 11.781,1.491 	"/>
	<polygon fill="#FFFFFF" points="3.457,5.115 0.012,6.624 0.118,7.333 0.551,7.784 3.943,6.305 	"/>
	<polygon fill="#FFFFFF" points="15.65,0.478 15.173,0.013 0.012,6.624 0.118,7.332 0.524,7.804 15.685,1.191 	"/>
	<polygon fill="#FFFFFF" points="15.65,0.478 15.173,0.013 0.012,6.624 0.118,7.332 0.524,7.804 15.685,1.191 	"/>
	<polygon fill="#ED1C24" points="12.268,2.682 15.685,1.191 15.65,0.478 15.173,0.013 11.781,1.491 	"/>
	<polygon fill="#ED1C24" points="3.457,5.115 0.012,6.624 0.118,7.333 0.551,7.784 3.943,6.305 	"/>
	<polygon fill="none" stroke="#000000" stroke-width="0.021" points="15.65,0.478 15.173,0.013 0.012,6.624 0.118,7.332 
		0.524,7.804 15.685,1.191 	"/>
	<polygon fill="none" stroke="#000000" stroke-width="0.021" points="15.65,0.478 15.173,0.013 0.012,6.624 0.118,7.332 
		0.524,7.804 15.685,1.191 	"/>
	<rect x="7.197" y="0.855" fill="#FFFFFF" width="1.285" height="33.787"/>
	<polygon fill="#ED1C24" points="8.483,5.181 8.483,1.051 7.198,1.811 7.204,5.823 	"/>
	<polygon fill="#ED1C24" points="8.469,13.071 8.469,9.068 7.184,9.714 7.184,13.718 	"/>
	<polygon fill="#ED1C24" points="8.469,21.024 8.469,17.021 7.184,17.667 7.184,21.672 	"/>
	<polygon fill="#ED1C24" points="8.486,28.79 8.486,24.787 7.202,25.434 7.202,29.438 	"/>
	<rect x="7.195" y="0.855" fill="none" stroke="#000000" stroke-width="0.021" width="1.285" height="33.622"/>
	<polygon fill="#ED1C24" points="8.473,34.466 8.473,32.897 7.188,33.544 7.188,34.466 	"/>
	<rect x="7.195" y="0.842" fill="none" stroke="#000000" stroke-width="0.021" width="1.285" height="33.638"/>
	<polygon fill="#FFFFFF" points="3.429,2.682 0.012,1.191 0.046,0.478 0.523,0.013 3.916,1.491 	"/>
	<polygon fill="#FFFFFF" points="12.24,5.115 15.684,6.624 15.578,7.333 15.145,7.784 11.753,6.305 	"/>
	<polygon fill="#FFFFFF" points="0.046,0.478 0.523,0.013 15.684,6.624 15.578,7.332 15.172,7.804 0.011,1.191 	"/>
	<polygon fill="#FFFFFF" points="0.046,0.478 0.523,0.013 15.684,6.624 15.578,7.332 15.172,7.804 0.011,1.191 	"/>
	<polygon fill="#ED1C24" points="3.429,2.682 0.012,1.191 0.046,0.478 0.523,0.013 3.916,1.491 	"/>
	<polygon fill="#ED1C24" points="12.24,5.115 15.684,6.624 15.578,7.333 15.145,7.784 11.753,6.305 	"/>
	<polygon fill="none" stroke="#000000" stroke-width="0.021" points="0.046,0.478 0.523,0.013 15.684,6.624 15.578,7.332 
		15.172,7.804 0.011,1.191 	"/>
	<polygon fill="none" stroke="#000000" stroke-width="0.021" points="0.046,0.478 0.523,0.013 15.684,6.624 15.578,7.332 
		15.172,7.804 0.011,1.191 	"/>
	<polygon fill="#FFFFFF" points="3.429,6.077 0.012,4.587 0.046,3.873 0.523,3.408 3.916,4.887 	"/>
	<polygon fill="#FFFFFF" points="12.24,8.511 15.684,10.02 15.578,10.729 15.145,11.18 11.753,9.7 	"/>
	<polygon fill="#FFFFFF" points="0.046,3.873 0.523,3.408 15.684,10.02 15.578,10.728 15.172,11.199 0.011,4.587 	"/>
	<polygon fill="#FFFFFF" points="0.046,3.873 0.523,3.408 15.684,10.02 15.578,10.728 15.172,11.199 0.011,4.587 	"/>
	<polygon fill="#ED1C24" points="3.429,6.077 0.012,4.587 0.046,3.873 0.523,3.408 3.916,4.887 	"/>
	<polygon fill="#ED1C24" points="12.24,8.511 15.684,10.02 15.578,10.729 15.145,11.18 11.753,9.7 	"/>
	<polygon fill="none" stroke="#000000" stroke-width="0.021" points="0.046,3.873 0.523,3.408 15.684,10.02 15.578,10.728 
		15.172,11.199 0.011,4.587 	"/>
	<polygon fill="none" stroke="#000000" stroke-width="0.021" points="0.046,3.873 0.523,3.408 15.684,10.02 15.578,10.728 
		15.172,11.199 0.011,4.587 	"/>
</g>
<g id="Layer_13">
</g>
<g id="Layer_12">
</g>
<g id="Layer_11">
</g>
<g id="Layer_10">
</g>
<g id="Layer_9">
</g>
<g id="Layer_8">
</g>
<g id="Layer_7">
</g>
<g id="Layer_6">
</g>
<g id="Layer_5">
</g>
<g id="Layer_4">
</g>
<g id="Layer_3">
</g>
<g id="Layer_2">
</g>
</svg>
