<?xml version="1.0" encoding="utf-8"?>
<!-- Generator: Adobe Illustrator 16.0.0, SVG Export Plug-In . SVG Version: 6.00 Build 0)  -->
<!DOCTYPE svg PUBLIC "-//W3C//DTD SVG 1.1//EN" "http://www.w3.org/Graphics/SVG/1.1/DTD/svg11.dtd">
<svg version="1.1" xmlns="http://www.w3.org/2000/svg" xmlns:xlink="http://www.w3.org/1999/xlink" x="0px" y="0px"
	 width="50.314px" height="44px" viewBox="0 0 50.314 44" enable-background="new 0 0 50.314 44" xml:space="preserve">
<g id="Layer_40">
</g>
<g id="Layer_39">
</g>
<g id="Layer_38">
</g>
<g id="Layer_37">
</g>
<g id="Layer_36">
</g>
<g id="Layer_35">
</g>
<g id="Layer_34">
</g>
<g id="Layer_33">
</g>
<g id="Layer_32">
</g>
<g id="Layer_31">
</g>
<g id="Layer_30">
</g>
<g id="Layer_29">
</g>
<g id="Layer_28">
</g>
<g id="Layer_27">
</g>
<g id="Layer_26">
</g>
<g id="Layer_25">
</g>
<g id="Layer_24">
</g>
<g id="Layer_23">
</g>
<g id="Layer_22">
</g>
<g id="Layer_21">
</g>
<g id="Layer_20">
</g>
<g id="Layer_19">
</g>
<g id="Layer_18">
</g>
<g id="Layer_17">
</g>
<g id="Layer_16">
</g>
<g id="Layer_15">
	<path fill="#ED1C24" d="M6.443,39.382C6.443,39.382,8.368,39.382,6.443,39.382c-1.705,0-0.825-1.87-0.825-1.87L24.043,5.612
		c0,0-0.4,0.707,0,0c0.715-1.266,1.65-1.21,2.31-0.056l18.426,31.955c0,0,0.88,1.87-0.825,1.87c-1.925,0,0,0,0,0H6.443z"/>
	<polygon fill="#FFFFFF" points="25.253,13.202 37.573,34.707 12.768,34.707 	"/>
	<path fill="#FFFFFF" d="M25.212,5.938c0.09,0.088,0.249,0.28,0.479,0.688l0.002,0.006c0,0,17.434,30.438,17.694,30.893
		c0.015,0.026,0.032,0.056,0.05,0.086c0.147,0.252,0.238,0.438,0.271,0.556c-0.079,0.021-0.226,0.048-0.473,0.048H25.171H7.188
		c-0.247,0-0.393-0.026-0.472-0.048c0.033-0.117,0.124-0.304,0.271-0.556c0.019-0.03,0.035-0.06,0.051-0.086
		c0.245-0.429,15.722-27.45,17.522-30.596h0.003l0.008-0.014l-0.002-0.002c0.076-0.131,0.126-0.219,0.148-0.259l0.017-0.028
		c0,0,0-0.001,0.001-0.002C24.963,6.218,25.122,6.026,25.212,5.938 M25.192,5.141c-0.007,0-0.015,0.001-0.021,0.001v0.003
		c-0.339,0.04-0.687,0.414-1.082,1.119c-0.005,0.009-0.009,0.018-0.014,0.025c0.009-0.016,0.014-0.025,0.014-0.025
		C24.083,6.274,6.655,36.702,6.396,37.158c-0.261,0.454-1.156,1.795,0.792,1.795h17.983h18.064c1.948,0,1.054-1.341,0.792-1.795
		c-0.26-0.456-17.692-30.895-17.692-30.895C25.915,5.517,25.552,5.141,25.192,5.141 M23.919,6.565c0,0,0.003-0.005,0.008-0.015
		C23.922,6.561,23.919,6.565,23.919,6.565"/>
	<rect fill="none" width="50.314" height="44"/>
	<polygon points="24.95,27.062 21.98,29.097 19.011,27.062 21.98,25.027 	"/>
	<polygon fill="#FFFFFF" points="24.265,27.064 21.98,28.63 19.696,27.064 19.696,27.06 21.98,25.494 24.265,27.06 	"/>
	<path d="M20.041,33.556c-0.098,0.297-0.376,0.512-0.705,0.512c-0.409,0-0.741-0.332-0.741-0.741V33.14h3.922l0.003,0.187
		c0,0.409-0.332,0.741-0.741,0.741c-0.329,0-0.607-0.215-0.704-0.512H20.041z"/>
	<path d="M29.998,33.556c0.097,0.297,0.376,0.512,0.704,0.512c0.41,0,0.742-0.332,0.742-0.741V33.14h-3.923l-0.003,0.187
		c0,0.409,0.332,0.741,0.741,0.741c0.329,0,0.608-0.215,0.704-0.512H29.998z"/>
	<polygon points="26.972,33.332 27.096,32.782 31.881,32.782 32.005,33.332 33.421,33.332 33.421,31.049 32.953,29.262 
		33.036,28.74 17.003,28.74 17.086,29.262 16.618,31.049 16.618,33.332 18.034,33.332 18.157,32.782 22.942,32.782 23.066,33.332 	
		"/>
	<polygon fill="#FFFFFF" points="31.399,29.262 32.664,29.262 33.131,31.049 31.399,31.049 	"/>
	<rect x="28.924" y="29.262" fill="#FFFFFF" width="2.145" height="1.787"/>
	<rect x="26.448" y="29.262" fill="#FFFFFF" width="2.146" height="1.787"/>
	<rect x="23.92" y="29.263" fill="#FFFFFF" width="2.2" height="1.786"/>
	<polygon fill="#FFFFFF" points="18.64,29.262 17.374,29.262 16.906,31.049 18.64,31.049 	"/>
	<rect x="18.97" y="29.262" fill="#FFFFFF" width="2.145" height="1.787"/>
	<rect x="21.444" y="29.262" fill="#FFFFFF" width="2.146" height="1.787"/>
	<rect fill="none" width="50.314" height="44"/>
</g>
<g id="Layer_14">
</g>
<g id="Layer_13">
</g>
<g id="Layer_12">
</g>
<g id="Layer_11">
</g>
<g id="Layer_10">
</g>
<g id="Layer_9">
</g>
<g id="Layer_8">
</g>
<g id="Layer_7">
</g>
<g id="Layer_6">
</g>
<g id="Layer_5">
</g>
<g id="Layer_4">
</g>
<g id="Layer_3">
</g>
<g id="Layer_2">
</g>
</svg>
