<?xml version="1.0" encoding="utf-8"?>
<!-- Generator: Adobe Illustrator 16.0.0, SVG Export Plug-In . SVG Version: 6.00 Build 0)  -->
<!DOCTYPE svg PUBLIC "-//W3C//DTD SVG 1.1//EN" "http://www.w3.org/Graphics/SVG/1.1/DTD/svg11.dtd">
<svg version="1.1" xmlns="http://www.w3.org/2000/svg" xmlns:xlink="http://www.w3.org/1999/xlink" x="0px" y="0px"
	 width="50.315px" height="44px" viewBox="0 0 50.315 44" enable-background="new 0 0 50.315 44" xml:space="preserve">
<g id="Layer_40">
</g>
<g id="Layer_39">
</g>
<g id="Layer_38">
</g>
<g id="Layer_37">
</g>
<g id="Layer_36">
</g>
<g id="Layer_35">
</g>
<g id="Layer_34">
</g>
<g id="Layer_33">
</g>
<g id="Layer_32">
</g>
<g id="Layer_31">
</g>
<g id="Layer_30">
</g>
<g id="Layer_29">
</g>
<g id="Layer_28">
</g>
<g id="Layer_27">
</g>
<g id="Layer_26">
</g>
<g id="Layer_25">
</g>
<g id="Layer_24">
</g>
<g id="Layer_23">
</g>
<g id="Layer_22">
</g>
<g id="Layer_21">
</g>
<g id="Layer_20">
</g>
<g id="Layer_19">
</g>
<g id="Layer_18">
</g>
<g id="Layer_17">
</g>
<g id="Layer_16">
	<path fill="#ED1C24" d="M6.392,39.351C6.392,39.351,8.317,39.351,6.392,39.351c-1.705,0-0.824-1.87-0.824-1.87L23.992,5.581
		c0,0-0.4,0.707,0,0c0.715-1.266,1.649-1.21,2.31-0.056L44.727,37.48c0,0,0.88,1.87-0.824,1.87c-1.926,0,0,0,0,0H6.392z"/>
	<polygon fill="#FFFFFF" points="25.202,13.171 37.521,34.676 12.717,34.676 	"/>
	<path fill="#FFFFFF" d="M25.161,5.907c0.09,0.088,0.249,0.28,0.479,0.688l0.002,0.006c0,0,17.434,30.438,17.694,30.893
		c0.015,0.026,0.032,0.056,0.05,0.086c0.147,0.253,0.238,0.438,0.271,0.556c-0.079,0.021-0.226,0.048-0.473,0.048H25.12H7.137
		c-0.247,0-0.393-0.026-0.472-0.048c0.032-0.117,0.124-0.303,0.271-0.556c0.019-0.03,0.035-0.06,0.05-0.086
		c0.246-0.429,15.723-27.45,17.523-30.596h0.003l0.008-0.014l-0.002-0.002c0.076-0.131,0.126-0.219,0.148-0.258v0.001l0.017-0.03
		c0,0,0-0.001,0.001-0.002C24.912,6.187,25.07,5.995,25.161,5.907 M25.142,5.109c-0.007,0-0.015,0.001-0.021,0.001v0.003
		c-0.34,0.04-0.687,0.414-1.082,1.119c-0.005,0.009-0.01,0.018-0.015,0.025c0.01-0.016,0.015-0.025,0.015-0.025
		C24.032,6.243,6.604,36.671,6.345,37.127c-0.261,0.455-1.156,1.795,0.792,1.795H25.12h18.064c1.948,0,1.053-1.34,0.792-1.795
		c-0.26-0.456-17.692-30.895-17.692-30.895C25.863,5.485,25.501,5.109,25.142,5.109 M23.868,6.534c0,0,0.003-0.005,0.008-0.015
		C23.871,6.529,23.868,6.534,23.868,6.534"/>
	<path fill="none" stroke="#000000" stroke-width="0.616" d="M20.541,32.518c0.646,0,0.88-0.606,1.517-0.606
		c0.669,0,0.779,0.592,1.453,0.592c0.646,0,0.976-0.592,1.632-0.592c0.678,0,0.871,0.606,1.54,0.606
		c0.678,0,0.788-0.509,1.448-0.509s0.963,0.521,1.623,0.521"/>
	<path fill="none" stroke="#000000" stroke-width="0.616" d="M20.541,33.89c0.646,0,0.88-0.606,1.517-0.606
		c0.669,0,0.779,0.592,1.453,0.592c0.646,0,0.976-0.592,1.632-0.592c0.678,0,0.871,0.606,1.54,0.606
		c0.678,0,0.788-0.509,1.448-0.509s0.963,0.521,1.623,0.521"/>
	<rect fill="none" width="50.315" height="44"/>
	<polygon points="20.808,34.305 20.808,27.54 17.295,27.54 13.363,34.305 	"/>
	<polygon points="29.397,34.305 29.397,27.54 32.909,27.54 36.841,34.305 	"/>
	<rect x="20.282" y="24.166" transform="matrix(-0.7216 0.6924 -0.6924 -0.7216 60.0392 25.9803)" width="9.027" height="1.794"/>
</g>
<g id="Layer_15">
</g>
<g id="Layer_14">
</g>
<g id="Layer_13">
</g>
<g id="Layer_12">
</g>
<g id="Layer_11">
</g>
<g id="Layer_10">
</g>
<g id="Layer_9">
</g>
<g id="Layer_8">
</g>
<g id="Layer_7">
</g>
<g id="Layer_6">
</g>
<g id="Layer_5">
</g>
<g id="Layer_4">
</g>
<g id="Layer_3">
</g>
<g id="Layer_2">
</g>
</svg>
