<?xml version="1.0" encoding="utf-8"?>
<!-- Generator: Adobe Illustrator 16.0.0, SVG Export Plug-In . SVG Version: 6.00 Build 0)  -->
<!DOCTYPE svg PUBLIC "-//W3C//DTD SVG 1.1//EN" "http://www.w3.org/Graphics/SVG/1.1/DTD/svg11.dtd">
<svg version="1.1" xmlns="http://www.w3.org/2000/svg" xmlns:xlink="http://www.w3.org/1999/xlink" x="0px" y="0px"
	 width="50.315px" height="44px" viewBox="0 0 50.315 44" enable-background="new 0 0 50.315 44" xml:space="preserve">
<g id="Layer_40">
</g>
<g id="Layer_39">
</g>
<g id="Layer_38">
</g>
<g id="Layer_37">
</g>
<g id="Layer_36">
</g>
<g id="Layer_35">
</g>
<g id="Layer_34">
</g>
<g id="Layer_33">
</g>
<g id="Layer_32">
</g>
<g id="Layer_31">
</g>
<g id="Layer_30">
</g>
<g id="Layer_29">
</g>
<g id="Layer_28">
</g>
<g id="Layer_27">
</g>
<g id="Layer_26">
</g>
<g id="Layer_25">
</g>
<g id="Layer_24">
</g>
<g id="Layer_23">
</g>
<g id="Layer_22">
</g>
<g id="Layer_21">
</g>
<g id="Layer_20">
</g>
<g id="Layer_19">
</g>
<g id="Layer_18">
</g>
<g id="Layer_17">
	<path fill="#ED1C24" d="M6.41,39.706C6.41,39.706,8.335,39.706,6.41,39.706c-1.705,0-0.825-1.87-0.825-1.87L24.01,5.937
		c0,0-0.4,0.707,0,0c0.715-1.265,1.65-1.21,2.31-0.055l18.425,31.954c0,0,0.88,1.87-0.825,1.87c-1.925,0,0,0,0,0H6.41z"/>
	<polygon fill="#FFFFFF" points="25.22,13.526 37.54,35.031 12.735,35.031 	"/>
	<path fill="#FFFFFF" d="M25.179,6.263c0.09,0.089,0.249,0.28,0.478,0.688l0.003,0.006c0,0,17.433,30.438,17.694,30.894
		c0.015,0.025,0.032,0.055,0.05,0.086c0.147,0.252,0.238,0.438,0.271,0.555c-0.079,0.021-0.225,0.048-0.472,0.048H25.138H7.155
		c-0.247,0-0.393-0.026-0.472-0.048c0.033-0.117,0.123-0.303,0.271-0.554c0.018-0.032,0.035-0.062,0.05-0.087
		c0.246-0.43,15.722-27.45,17.523-30.597h0.003l0.008-0.014l-0.002-0.001c0.077-0.136,0.128-0.225,0.15-0.262v0.001l0.015-0.027
		C24.93,6.543,25.089,6.352,25.179,6.263 M25.16,5.465c-0.008,0-0.015,0.001-0.022,0.001v0.003c-0.339,0.04-0.686,0.414-1.082,1.119
		c-0.005,0.009-0.009,0.018-0.014,0.025c0.008-0.016,0.014-0.025,0.014-0.025C24.047,6.604,6.623,37.026,6.363,37.482
		c-0.261,0.455-1.156,1.795,0.792,1.795h17.983h18.065c1.948,0,1.053-1.34,0.792-1.795c-0.26-0.456-17.693-30.895-17.693-30.895
		C25.882,5.841,25.519,5.465,25.16,5.465 M23.886,6.89c0,0,0.003-0.005,0.008-0.015C23.889,6.885,23.886,6.89,23.886,6.89"/>
	<polygon fill="#FFFFFF" points="25.237,13.526 37.557,35.031 12.752,35.031 	"/>
	<path d="M35.045,34.027l-4.62-5.555c-0.55-0.715-1.21-0.88-1.925,0.385l-0.935,1.76c0,0-0.275,0.44-0.715,0.495
		c0,0-0.33-0.385-1.045,0.936l-1.045,1.979H35.045z"/>
	<path d="M24.54,34.055l0.22-3.685c0,0-0.028-0.605-0.22-1.073l-0.495-1.402l3.685,2.091l0.082-0.165l-2.364-1.431v-3.85
		c0-1.403-0.633-1.788-2.173-1.678l-1.402,0.165c0,0-0.386,0.083-0.606,0.439L19.81,25.64l1.375,0.771l-2.75,7.672h0.742
		l3.108-5.335l1.265,1.595l0.302,3.713H24.54z"/>
	<path d="M25.667,20.82c-0.642,0-1.162,0.521-1.162,1.162s0.52,1.162,1.162,1.162s1.162-0.521,1.162-1.162S26.31,20.82,25.667,20.82
		"/>
	<polygon fill="#FFFFFF" points="24.43,27.813 23.577,27.289 24.375,26.218 	"/>
	<polygon fill="#FFFFFF" points="21.377,26.107 20.746,25.723 21.734,24.266 22.478,24.237 	"/>
	<rect fill="none" width="50.315" height="44"/>
</g>
<g id="Layer_16">
</g>
<g id="Layer_15">
</g>
<g id="Layer_14">
</g>
<g id="Layer_13">
</g>
<g id="Layer_12">
</g>
<g id="Layer_11">
</g>
<g id="Layer_10">
</g>
<g id="Layer_9">
</g>
<g id="Layer_8">
</g>
<g id="Layer_7">
</g>
<g id="Layer_6">
</g>
<g id="Layer_5">
</g>
<g id="Layer_4">
</g>
<g id="Layer_3">
</g>
<g id="Layer_2">
</g>
</svg>
