<?xml version="1.0" encoding="utf-8"?>
<!-- Generator: Adobe Illustrator 16.0.0, SVG Export Plug-In . SVG Version: 6.00 Build 0)  -->
<!DOCTYPE svg PUBLIC "-//W3C//DTD SVG 1.1//EN" "http://www.w3.org/Graphics/SVG/1.1/DTD/svg11.dtd">
<svg version="1.1" xmlns="http://www.w3.org/2000/svg" xmlns:xlink="http://www.w3.org/1999/xlink" x="0px" y="0px"
	 width="50.315px" height="44px" viewBox="0 0 50.315 44" enable-background="new 0 0 50.315 44" xml:space="preserve">
<g id="Layer_40">
</g>
<g id="Layer_39">
</g>
<g id="Layer_38">
</g>
<g id="Layer_37">
</g>
<g id="Layer_36">
</g>
<g id="Layer_35">
</g>
<g id="Layer_34">
</g>
<g id="Layer_33">
</g>
<g id="Layer_32">
</g>
<g id="Layer_31">
</g>
<g id="Layer_30">
</g>
<g id="Layer_29">
</g>
<g id="Layer_28">
</g>
<g id="Layer_27">
</g>
<g id="Layer_26">
</g>
<g id="Layer_25">
</g>
<g id="Layer_24">
</g>
<g id="Layer_23">
</g>
<g id="Layer_22">
</g>
<g id="Layer_21">
</g>
<g id="Layer_20">
</g>
<g id="Layer_19">
</g>
<g id="Layer_18">
	<path fill="#ED1C24" d="M6.205,39.637C6.205,39.637,8.13,39.637,6.205,39.637c-1.705,0-0.825-1.87-0.825-1.87L23.805,5.867
		c0,0-0.4,0.707,0,0c0.715-1.266,1.65-1.21,2.31-0.055L44.54,37.767c0,0,0.88,1.87-0.825,1.87c-1.925,0,0,0,0,0H6.205z"/>
	<polygon fill="#FFFFFF" points="25.015,13.457 37.335,34.962 12.53,34.962 	"/>
	<path fill="#FFFFFF" d="M24.974,6.193c0.09,0.088,0.249,0.28,0.478,0.688l0.003,0.006c0,0,17.433,30.438,17.694,30.893
		c0.015,0.026,0.032,0.056,0.05,0.086c0.147,0.253,0.238,0.438,0.271,0.556c-0.079,0.021-0.225,0.048-0.472,0.048H24.933H6.95
		c-0.247,0-0.393-0.026-0.472-0.048c0.033-0.117,0.124-0.303,0.271-0.556c0.018-0.03,0.035-0.06,0.05-0.086
		c0.246-0.429,15.722-27.45,17.523-30.596h0.003l0.008-0.014l-0.002-0.002c0.075-0.131,0.126-0.218,0.148-0.258l0.016-0.029
		c0.001,0,0.001-0.001,0.002-0.002C24.725,6.473,24.884,6.281,24.974,6.193 M24.955,5.396c-0.007,0-0.015,0.001-0.022,0.001v0.003
		c-0.34,0.04-0.686,0.414-1.082,1.119c-0.005,0.009-0.009,0.018-0.014,0.025c0.008-0.016,0.014-0.025,0.014-0.025
		C23.845,6.529,6.418,36.957,6.157,37.413c-0.26,0.455-1.155,1.795,0.793,1.795h17.983h18.065c1.948,0,1.053-1.34,0.792-1.795
		C43.53,36.957,26.097,6.519,26.097,6.519C25.677,5.771,25.314,5.396,24.955,5.396 M23.681,6.82c0,0,0.003-0.005,0.008-0.015
		C23.684,6.815,23.681,6.82,23.681,6.82"/>
	<rect fill="none" width="50.315" height="44"/>
	<polygon points="21.11,28.403 21.11,34.357 19.598,34.357 19.6,27.78 22.57,24.803 22.568,24.8 22.568,18.874 24.08,18.874 
		24.08,25.434 	"/>
	<polygon points="28.865,28.403 28.865,34.357 30.377,34.357 30.375,27.78 27.405,24.803 27.407,24.8 27.407,18.874 25.895,18.874 
		25.895,25.434 	"/>
</g>
<g id="Layer_17">
</g>
<g id="Layer_16">
</g>
<g id="Layer_15">
</g>
<g id="Layer_14">
</g>
<g id="Layer_13">
</g>
<g id="Layer_12">
</g>
<g id="Layer_11">
</g>
<g id="Layer_10">
</g>
<g id="Layer_9">
</g>
<g id="Layer_8">
</g>
<g id="Layer_7">
</g>
<g id="Layer_6">
</g>
<g id="Layer_5">
</g>
<g id="Layer_4">
</g>
<g id="Layer_3">
</g>
<g id="Layer_2">
</g>
</svg>
