<?xml version="1.0" encoding="utf-8"?>
<!-- Generator: Adobe Illustrator 16.0.0, SVG Export Plug-In . SVG Version: 6.00 Build 0)  -->
<!DOCTYPE svg PUBLIC "-//W3C//DTD SVG 1.1//EN" "http://www.w3.org/Graphics/SVG/1.1/DTD/svg11.dtd">
<svg version="1.1" xmlns="http://www.w3.org/2000/svg" xmlns:xlink="http://www.w3.org/1999/xlink" x="0px" y="0px"
	 width="50.314px" height="44px" viewBox="0 0 50.314 44" enable-background="new 0 0 50.314 44" xml:space="preserve">
<g id="Layer_40">
</g>
<g id="Layer_39">
</g>
<g id="Layer_38">
</g>
<g id="Layer_37">
</g>
<g id="Layer_36">
</g>
<g id="Layer_35">
</g>
<g id="Layer_34">
</g>
<g id="Layer_33">
</g>
<g id="Layer_32">
</g>
<g id="Layer_31">
</g>
<g id="Layer_30">
</g>
<g id="Layer_29">
</g>
<g id="Layer_28">
</g>
<g id="Layer_27">
</g>
<g id="Layer_26">
</g>
<g id="Layer_25">
</g>
<g id="Layer_24">
</g>
<g id="Layer_23">
</g>
<g id="Layer_22">
</g>
<g id="Layer_21">
</g>
<g id="Layer_20">
</g>
<g id="Layer_19">
	<path fill="#ED1C24" d="M6.128,39.612C6.128,39.612,8.054,39.612,6.128,39.612c-1.705,0-0.824-1.87-0.824-1.87l18.425-31.9
		c0,0-0.4,0.707,0,0c0.715-1.265,1.649-1.21,2.31-0.055l18.425,31.955c0,0,0.881,1.87-0.824,1.87c-1.926,0,0,0,0,0H6.128z"/>
	<polygon fill="#FFFFFF" points="24.938,13.432 37.259,34.937 12.453,34.937 	"/>
	<path fill="#FFFFFF" d="M24.897,6.169c0.09,0.088,0.249,0.279,0.478,0.687l0.003,0.006c0,0,17.433,30.438,17.694,30.894
		c0.015,0.025,0.032,0.055,0.05,0.086c0.146,0.252,0.238,0.438,0.271,0.555c-0.078,0.022-0.225,0.048-0.472,0.048H24.856H6.873
		c-0.247,0-0.393-0.025-0.472-0.048c0.032-0.117,0.124-0.303,0.271-0.555c0.019-0.031,0.035-0.061,0.05-0.086
		c0.246-0.43,15.723-27.451,17.523-30.597h0.003l0.008-0.014l-0.002-0.002c0.075-0.131,0.126-0.218,0.148-0.258l0.016-0.029
		c0.001,0,0.001-0.001,0.002-0.002C24.648,6.447,24.807,6.257,24.897,6.169 M24.878,5.371c-0.007,0-0.015,0.001-0.021,0.001v0.003
		c-0.34,0.04-0.687,0.414-1.082,1.118c-0.006,0.01-0.01,0.018-0.015,0.025c0.009-0.015,0.015-0.025,0.015-0.025
		C23.768,6.505,6.341,36.932,6.081,37.388c-0.261,0.455-1.156,1.795,0.792,1.795h17.983h18.064c1.948,0,1.053-1.34,0.792-1.795
		C43.453,36.932,26.02,6.493,26.02,6.493C25.6,5.747,25.237,5.371,24.878,5.371 M23.604,6.796c0,0,0.003-0.005,0.008-0.016
		C23.607,6.791,23.604,6.796,23.604,6.796"/>
	<rect fill="none" width="50.314" height="44"/>
	<rect x="22.382" y="18.85" width="1.512" height="15.482"/>
	<polygon points="29.009,28.378 29.009,34.332 30.521,34.332 30.519,27.755 27.548,24.778 27.552,24.776 27.552,18.85 26.038,18.85 
		26.038,25.408 	"/>
</g>
<g id="Layer_18">
</g>
<g id="Layer_17">
</g>
<g id="Layer_16">
</g>
<g id="Layer_15">
</g>
<g id="Layer_14">
</g>
<g id="Layer_13">
</g>
<g id="Layer_12">
</g>
<g id="Layer_11">
</g>
<g id="Layer_10">
</g>
<g id="Layer_9">
</g>
<g id="Layer_8">
</g>
<g id="Layer_7">
</g>
<g id="Layer_6">
</g>
<g id="Layer_5">
</g>
<g id="Layer_4">
</g>
<g id="Layer_3">
</g>
<g id="Layer_2">
</g>
</svg>
