<?xml version="1.0" encoding="utf-8"?>
<!-- Generator: Adobe Illustrator 16.0.0, SVG Export Plug-In . SVG Version: 6.00 Build 0)  -->
<!DOCTYPE svg PUBLIC "-//W3C//DTD SVG 1.1//EN" "http://www.w3.org/Graphics/SVG/1.1/DTD/svg11.dtd">
<svg version="1.1" xmlns="http://www.w3.org/2000/svg" xmlns:xlink="http://www.w3.org/1999/xlink" x="0px" y="0px"
	 width="50.315px" height="44px" viewBox="0 0 50.315 44" enable-background="new 0 0 50.315 44" xml:space="preserve">
<g id="Layer_40">
</g>
<g id="Layer_39">
</g>
<g id="Layer_38">
</g>
<g id="Layer_37">
</g>
<g id="Layer_36">
</g>
<g id="Layer_35">
</g>
<g id="Layer_34">
</g>
<g id="Layer_33">
</g>
<g id="Layer_32">
</g>
<g id="Layer_31">
</g>
<g id="Layer_30">
</g>
<g id="Layer_29">
</g>
<g id="Layer_28">
</g>
<g id="Layer_27">
</g>
<g id="Layer_26">
</g>
<g id="Layer_25">
</g>
<g id="Layer_24">
</g>
<g id="Layer_23">
</g>
<g id="Layer_22">
</g>
<g id="Layer_21">
</g>
<g id="Layer_20">
	<path fill="#ED1C24" d="M6.476,39.518C6.476,39.518,8.4,39.518,6.476,39.518c-1.705,0-0.825-1.87-0.825-1.87l18.425-31.9
		c0,0-0.4,0.707,0,0c0.715-1.265,1.65-1.21,2.31-0.055l18.426,31.955c0,0,0.88,1.87-0.825,1.87c-1.925,0,0,0,0,0H6.476z"/>
	<polygon fill="#FFFFFF" points="25.285,13.338 37.605,34.843 12.8,34.843 	"/>
	<path fill="#FFFFFF" d="M25.244,6.074c0.09,0.088,0.249,0.28,0.478,0.687l0.003,0.007c0,0,17.434,30.438,17.694,30.893
		c0.015,0.026,0.032,0.055,0.05,0.086c0.147,0.252,0.238,0.438,0.271,0.555c-0.079,0.022-0.226,0.049-0.473,0.049H25.203H7.22
		c-0.247,0-0.393-0.026-0.472-0.049c0.033-0.116,0.124-0.303,0.271-0.555c0.019-0.031,0.035-0.06,0.051-0.086
		c0.246-0.429,15.722-27.451,17.522-30.596h0.003l0.009-0.015l-0.003-0.002c0.075-0.131,0.126-0.218,0.148-0.258l0.016-0.029
		c0.001,0,0.001-0.001,0.002-0.002C24.995,6.354,25.154,6.162,25.244,6.074 M25.225,5.276c-0.007,0-0.015,0.001-0.021,0.001V5.28
		c-0.34,0.04-0.687,0.414-1.082,1.119c-0.005,0.009-0.009,0.017-0.014,0.024c0.008-0.015,0.014-0.024,0.014-0.024
		C24.115,6.41,6.688,36.837,6.427,37.293c-0.26,0.455-1.154,1.795,0.793,1.795h17.983h18.064c1.948,0,1.054-1.34,0.792-1.795
		C43.8,36.837,26.367,6.399,26.367,6.399C25.947,5.652,25.584,5.276,25.225,5.276 M23.951,6.701c0,0,0.003-0.005,0.008-0.015
		C23.954,6.696,23.951,6.701,23.951,6.701"/>
	<rect fill="none" width="50.315" height="44"/>
	<rect x="26.247" y="18.754" width="1.513" height="15.483"/>
	<polygon points="21.133,28.284 21.133,34.237 19.621,34.237 19.623,27.661 22.593,24.684 22.591,24.682 22.591,18.755 
		24.103,18.755 24.103,25.313 	"/>
</g>
<g id="Layer_19">
</g>
<g id="Layer_18">
</g>
<g id="Layer_17">
</g>
<g id="Layer_16">
</g>
<g id="Layer_15">
</g>
<g id="Layer_14">
</g>
<g id="Layer_13">
</g>
<g id="Layer_12">
</g>
<g id="Layer_11">
</g>
<g id="Layer_10">
</g>
<g id="Layer_9">
</g>
<g id="Layer_8">
</g>
<g id="Layer_7">
</g>
<g id="Layer_6">
</g>
<g id="Layer_5">
</g>
<g id="Layer_4">
</g>
<g id="Layer_3">
</g>
<g id="Layer_2">
</g>
</svg>
