<?xml version="1.0" encoding="utf-8"?>
<!-- Generator: Adobe Illustrator 16.0.0, SVG Export Plug-In . SVG Version: 6.00 Build 0)  -->
<!DOCTYPE svg PUBLIC "-//W3C//DTD SVG 1.1//EN" "http://www.w3.org/Graphics/SVG/1.1/DTD/svg11.dtd">
<svg version="1.1" xmlns="http://www.w3.org/2000/svg" xmlns:xlink="http://www.w3.org/1999/xlink" x="0px" y="0px"
	 width="50.314px" height="44px" viewBox="0 0 50.314 44" enable-background="new 0 0 50.314 44" xml:space="preserve">
<g id="Layer_40">
</g>
<g id="Layer_39">
</g>
<g id="Layer_38">
</g>
<g id="Layer_37">
</g>
<g id="Layer_36">
</g>
<g id="Layer_35">
</g>
<g id="Layer_34">
</g>
<g id="Layer_33">
</g>
<g id="Layer_32">
</g>
<g id="Layer_31">
</g>
<g id="Layer_30">
</g>
<g id="Layer_29">
</g>
<g id="Layer_28">
</g>
<g id="Layer_27">
</g>
<g id="Layer_26">
</g>
<g id="Layer_25">
</g>
<g id="Layer_24">
</g>
<g id="Layer_23">
</g>
<g id="Layer_22">
</g>
<g id="Layer_21">
</g>
<g id="Layer_20">
</g>
<g id="Layer_19">
</g>
<g id="Layer_18">
</g>
<g id="Layer_17">
</g>
<g id="Layer_16">
</g>
<g id="Layer_15">
</g>
<g id="Layer_14">
</g>
<g id="Layer_13">
</g>
<g id="Layer_12">
</g>
<g id="Layer_11">
</g>
<g id="Layer_10">
</g>
<g id="Layer_9">
</g>
<g id="Layer_8">
</g>
<g id="Layer_7">
</g>
<g id="Layer_6">
</g>
<g id="Layer_5">
</g>
<g id="Layer_4">
</g>
<g id="Layer_3">
	<path fill="#ED1C24" d="M6.437,39.272C6.437,39.272,8.362,39.272,6.437,39.272c-1.705,0-0.824-1.87-0.824-1.87l18.425-31.9
		c0,0-0.4,0.707,0,0c0.715-1.265,1.649-1.21,2.31-0.055l18.425,31.955c0,0,0.881,1.87-0.824,1.87c-1.926,0,0,0,0,0H6.437z"/>
	<polygon fill="#FFFFFF" points="25.247,13.092 37.567,34.597 12.762,34.597 	"/>
	<path fill="#FFFFFF" d="M25.206,5.829c0.09,0.088,0.249,0.28,0.478,0.687l0.003,0.006c0,0,17.433,30.438,17.694,30.893
		c0.015,0.026,0.032,0.055,0.05,0.086c0.146,0.252,0.238,0.438,0.271,0.555c-0.078,0.022-0.225,0.048-0.472,0.048H25.165H7.182
		c-0.247,0-0.393-0.026-0.472-0.048c0.032-0.117,0.124-0.303,0.271-0.555c0.019-0.031,0.035-0.06,0.05-0.086
		C7.276,36.986,22.753,9.964,24.554,6.819h0.003l0.008-0.014l-0.002-0.002c0.075-0.131,0.126-0.218,0.148-0.258v0.001l0.016-0.03
		c0.001,0,0.001-0.001,0.002-0.002C24.957,6.108,25.115,5.917,25.206,5.829 M25.187,5.031c-0.007,0-0.015,0.001-0.021,0.001v0.003
		c-0.34,0.04-0.687,0.414-1.082,1.119c-0.006,0.009-0.01,0.017-0.015,0.025c0.009-0.015,0.015-0.025,0.015-0.025
		C24.076,6.165,6.649,36.592,6.39,37.048c-0.261,0.455-1.156,1.795,0.792,1.795h17.983h18.064c1.948,0,1.053-1.34,0.792-1.795
		c-0.26-0.456-17.693-30.894-17.693-30.894C25.908,5.407,25.546,5.031,25.187,5.031 M23.913,6.456c0,0,0.003-0.005,0.008-0.015
		C23.916,6.451,23.913,6.456,23.913,6.456"/>
	<path d="M26.658,23.473l1.777-3.126c0,0-3.596-0.005-3.594-0.005c0,0-5.893,2.733-5.893,8.508v5.349l1.787-1.788l1.761,1.76
		l-0.014-5.321C22.483,25.275,26.658,23.473,26.658,23.473"/>
	<rect fill="none" width="50.314" height="44"/>
</g>
<g id="Layer_2">
</g>
</svg>
