<?xml version="1.0" encoding="utf-8"?>
<!-- Generator: Adobe Illustrator 16.0.0, SVG Export Plug-In . SVG Version: 6.00 Build 0)  -->
<!DOCTYPE svg PUBLIC "-//W3C//DTD SVG 1.1//EN" "http://www.w3.org/Graphics/SVG/1.1/DTD/svg11.dtd">
<svg version="1.1" xmlns="http://www.w3.org/2000/svg" xmlns:xlink="http://www.w3.org/1999/xlink" x="0px" y="0px"
	 width="50.314px" height="44px" viewBox="0 0 50.314 44" enable-background="new 0 0 50.314 44" xml:space="preserve">
<g id="Layer_40">
</g>
<g id="Layer_39">
</g>
<g id="Layer_38">
</g>
<g id="Layer_37">
</g>
<g id="Layer_36">
</g>
<g id="Layer_35">
</g>
<g id="Layer_34">
</g>
<g id="Layer_33">
</g>
<g id="Layer_32">
</g>
<g id="Layer_31">
</g>
<g id="Layer_30">
</g>
<g id="Layer_29">
</g>
<g id="Layer_28">
</g>
<g id="Layer_27">
</g>
<g id="Layer_26">
</g>
<g id="Layer_25">
</g>
<g id="Layer_24">
</g>
<g id="Layer_23">
</g>
<g id="Layer_22">
</g>
<g id="Layer_21">
	<path fill="#ED1C24" d="M6.355,39.699C6.355,39.699,8.279,39.699,6.355,39.699c-1.705,0-0.826-1.87-0.826-1.87L23.955,5.93
		c0,0-0.4,0.707,0,0c0.715-1.266,1.65-1.211,2.311-0.056l18.424,31.955c0,0,0.881,1.87-0.824,1.87c-1.926,0,0,0,0,0H6.355z"/>
	<polygon fill="#FFFFFF" points="25.165,13.52 37.484,35.024 12.68,35.024 	"/>
	<path fill="#FFFFFF" d="M25.123,6.256c0.09,0.088,0.25,0.28,0.479,0.688l0.002,0.004c0,0,17.433,30.439,17.694,30.895
		c0.015,0.025,0.031,0.055,0.05,0.086c0.147,0.252,0.237,0.438,0.271,0.555c-0.078,0.022-0.225,0.049-0.472,0.049H25.082H7.1
		c-0.247,0-0.393-0.026-0.473-0.049c0.033-0.117,0.125-0.303,0.271-0.555c0.018-0.031,0.035-0.061,0.051-0.086
		C7.195,37.413,22.67,10.391,24.472,7.246h0.003l0.008-0.014L24.48,7.23c0.076-0.132,0.126-0.219,0.148-0.259l0.017-0.028
		c0,0,0-0.002,0.001-0.002C24.875,6.535,25.033,6.344,25.123,6.256 M25.104,5.458c-0.007,0-0.015,0.001-0.022,0.001v0.003
		C24.744,5.502,24.396,5.876,24,6.581c-0.004,0.009-0.008,0.017-0.014,0.024C23.996,6.591,24,6.581,24,6.581
		C23.994,6.592,6.567,37.02,6.308,37.475C6.047,37.93,5.151,39.27,7.1,39.27h17.982h18.065c1.948,0,1.054-1.34,0.792-1.795
		C43.68,37.02,26.246,6.581,26.246,6.581C25.826,5.834,25.463,5.458,25.104,5.458 M23.83,6.883c0,0,0.004-0.005,0.008-0.016
		C23.834,6.878,23.83,6.883,23.83,6.883"/>
	<path d="M24.625,26.257l2.313,0.875l-0.407,1.076c-0.08,0.21,0.076,0.259,0.076,0.259l0.697,0.264c0,0,0.148,0.066,0.229-0.145
		l0.406-1.076l0.067,0.025l0.675-0.359l0.648-1.717l-0.338-0.531l-0.028-1.981c-1.446-0.777-2.626-1.243-2.63-1.234
		c0.004-0.009-1.188-0.44-2.787-0.813l-1.333,1.467l-0.604,0.175l-0.65,1.716l0.269,0.717l0.067,0.024l-0.407,1.077
		c-0.079,0.21,0.075,0.259,0.075,0.259l0.699,0.265c0,0,0.147,0.065,0.227-0.145l0.407-1.077l2.313,0.874L24.625,26.257z"/>
	<path fill="#FFFFFF" d="M25.648,23.528c0.002-0.008,1.973,0.804,2.92,1.249h0.01l-0.022-1.515
		c-1.446-0.777-2.374-1.147-2.377-1.138c0.003-0.01-0.937-0.346-2.536-0.72l-1.018,1.121l0.006,0.007
		C23.636,22.826,25.65,23.521,25.648,23.528"/>
	<polygon fill="#FFFFFF" points="25.863,25.555 25.998,25.15 24.248,24.506 24.113,24.91 	"/>
	
		<rect x="21.392" y="23.528" transform="matrix(-0.3266 0.9452 -0.9452 -0.3266 51.3746 10.6716)" fill="#FFFFFF" width="0.987" height="0.219"/>
	
		<rect x="27.864" y="26.051" transform="matrix(-0.3275 0.9449 -0.9449 -0.3275 62.3623 7.933)" fill="#FFFFFF" width="0.987" height="0.219"/>
	<path d="M20.848,26.646l0.904,0.356c-0.878,0.164-1.152,0.521-1.152,0.521s-0.438,0.823,1.043,1.344
		c1.309,0.461,3.264,0.933,5.621,1.343c0,0-0.328-0.82-0.822-1.59l0.878,0.329c0,0,0.877,0.823,1.097,1.481
		c0,0,5.1,0.986,5.539,4.059H32.2c0,0-0.028-2.002-3.784-3.236c0,0-0.191,1.426-4.195,1.316c0,0-5.129-0.273-7.104,1.811H14.54
		c0,0,1.536-2.716,9.599-2.552c0,0,2.823,0.056,3.043-0.932c0,0-1.426-0.246-3.318-0.687C23.863,30.209,15.473,28.647,20.848,26.646
		"/>
	<rect fill="none" width="50.314" height="44"/>
</g>
<g id="Layer_20">
</g>
<g id="Layer_19">
</g>
<g id="Layer_18">
</g>
<g id="Layer_17">
</g>
<g id="Layer_16">
</g>
<g id="Layer_15">
</g>
<g id="Layer_14">
</g>
<g id="Layer_13">
</g>
<g id="Layer_12">
</g>
<g id="Layer_11">
</g>
<g id="Layer_10">
</g>
<g id="Layer_9">
</g>
<g id="Layer_8">
</g>
<g id="Layer_7">
</g>
<g id="Layer_6">
</g>
<g id="Layer_5">
</g>
<g id="Layer_4">
</g>
<g id="Layer_3">
</g>
<g id="Layer_2">
</g>
</svg>
