<?xml version="1.0" encoding="utf-8"?>
<!-- Generator: Adobe Illustrator 16.0.0, SVG Export Plug-In . SVG Version: 6.00 Build 0)  -->
<!DOCTYPE svg PUBLIC "-//W3C//DTD SVG 1.1//EN" "http://www.w3.org/Graphics/SVG/1.1/DTD/svg11.dtd">
<svg version="1.1" xmlns="http://www.w3.org/2000/svg" xmlns:xlink="http://www.w3.org/1999/xlink" x="0px" y="0px"
	 width="50.314px" height="44px" viewBox="0 0 50.314 44" enable-background="new 0 0 50.314 44" xml:space="preserve">
<g id="Layer_40">
</g>
<g id="Layer_39">
</g>
<g id="Layer_38">
</g>
<g id="Layer_37">
</g>
<g id="Layer_36">
</g>
<g id="Layer_35">
</g>
<g id="Layer_34">
</g>
<g id="Layer_33">
</g>
<g id="Layer_32">
</g>
<g id="Layer_31">
</g>
<g id="Layer_30">
</g>
<g id="Layer_29">
</g>
<g id="Layer_28">
</g>
<g id="Layer_27">
</g>
<g id="Layer_26">
</g>
<g id="Layer_25">
</g>
<g id="Layer_24">
</g>
<g id="Layer_23">
</g>
<g id="Layer_22">
	<path fill="#ED1C24" d="M6.467,39.547C6.467,39.547,8.392,39.547,6.467,39.547c-1.705,0-0.825-1.87-0.825-1.87L24.066,5.777
		c0,0-0.4,0.707,0,0c0.715-1.266,1.65-1.211,2.311-0.056l18.425,31.955c0,0,0.88,1.87-0.825,1.87c-1.925,0,0,0,0,0H6.467z"/>
	<polygon fill="#FFFFFF" points="25.277,13.367 37.597,34.871 12.791,34.871 	"/>
	<path d="M20.908,25.441c0.569,0,1.03-0.461,1.03-1.03c0-0.567-0.461-1.028-1.03-1.028c-0.568,0-1.029,0.461-1.029,1.028
		C19.879,24.98,20.34,25.441,20.908,25.441"/>
	<path d="M21.228,25.648c-0.259,0.018-0.481,0.15-0.623,0.346l-2.178,2.805l0.467,0.358l1.511-1.565
		c0.172,0.812,0.428,1.373,0.428,1.373l-0.813,5.449l0.652-0.039l1.298-3.714l0.603,1.249l2.862,0.977l0.013-0.955l-1.99-0.713
		l-0.771-2.461l-0.178-1.553l0.395,0.014l0.923,1.011l0.443-0.532l-1.098-1.145l-1.287-0.693
		C21.56,25.601,21.228,25.648,21.228,25.648"/>
	<path d="M26.861,22.439c0.598-0.138,0.971-0.733,0.836-1.332c-0.138-0.598-0.733-0.972-1.332-0.836
		c-0.599,0.137-0.973,0.733-0.836,1.332C25.667,22.201,26.263,22.576,26.861,22.439"/>
	<path d="M27.063,22.683c-0.334,0.076-0.598,0.295-0.742,0.578l-2.283,3.728l0.488,0.32l1.945-2.311
		c0.289,1.039,0.753,2.088,0.753,2.088l-0.341,7.408l0.721-0.164l1.079-5.767l1.334,2.058l3.297,1.826l0.478-0.627l-2.934-2.047
		l-1.515-3.379l-0.451-1.898l0.631,0.271l0.812,1.815l0.549-0.092l-0.704-2.322l-2.19-1.432
		C27.513,22.466,27.063,22.683,27.063,22.683"/>
	<path fill="#FFFFFF" d="M25.222,6.086c0.09,0.088,0.249,0.279,0.479,0.687l0.002,0.005c0,0,17.433,30.439,17.693,30.895
		c0.016,0.025,0.032,0.055,0.051,0.086c0.146,0.252,0.237,0.438,0.271,0.555c-0.079,0.021-0.226,0.049-0.472,0.049H25.181H7.197
		c-0.246,0-0.393-0.027-0.472-0.049c0.033-0.117,0.124-0.303,0.271-0.555c0.019-0.031,0.035-0.061,0.051-0.086
		c0.256-0.447,17.062-29.79,17.676-30.863h0.001c0.007-0.013,0.013-0.025,0.021-0.038C24.973,6.365,25.132,6.174,25.222,6.086
		 M25.203,5.287c-0.008,0-0.016,0.002-0.022,0.002v0.002c-0.34,0.041-0.687,0.414-1.082,1.119c-0.005,0.01-0.009,0.018-0.015,0.025
		c0.009-0.015,0.015-0.025,0.015-0.025C24.093,6.422,6.666,36.849,6.406,37.305C6.145,37.76,5.25,39.1,7.197,39.1h17.983h18.065
		c1.947,0,1.053-1.34,0.791-1.795C43.777,36.849,26.345,6.41,26.345,6.41C25.925,5.664,25.562,5.287,25.203,5.287"/>
	<rect fill="none" width="50.314" height="44"/>
</g>
<g id="Layer_21">
</g>
<g id="Layer_20">
</g>
<g id="Layer_19">
</g>
<g id="Layer_18">
</g>
<g id="Layer_17">
</g>
<g id="Layer_16">
</g>
<g id="Layer_15">
</g>
<g id="Layer_14">
</g>
<g id="Layer_13">
</g>
<g id="Layer_12">
</g>
<g id="Layer_11">
</g>
<g id="Layer_10">
</g>
<g id="Layer_9">
</g>
<g id="Layer_8">
</g>
<g id="Layer_7">
</g>
<g id="Layer_6">
</g>
<g id="Layer_5">
</g>
<g id="Layer_4">
</g>
<g id="Layer_3">
</g>
<g id="Layer_2">
</g>
</svg>
