<?xml version="1.0" encoding="utf-8"?>
<!-- Generator: Adobe Illustrator 16.0.0, SVG Export Plug-In . SVG Version: 6.00 Build 0)  -->
<!DOCTYPE svg PUBLIC "-//W3C//DTD SVG 1.1//EN" "http://www.w3.org/Graphics/SVG/1.1/DTD/svg11.dtd">
<svg version="1.1" xmlns="http://www.w3.org/2000/svg" xmlns:xlink="http://www.w3.org/1999/xlink" x="0px" y="0px"
	 width="50.314px" height="44px" viewBox="0 0 50.314 44" enable-background="new 0 0 50.314 44" xml:space="preserve">
<g id="Layer_40">
</g>
<g id="Layer_39">
</g>
<g id="Layer_38">
</g>
<g id="Layer_37">
</g>
<g id="Layer_36">
</g>
<g id="Layer_35">
</g>
<g id="Layer_34">
</g>
<g id="Layer_33">
</g>
<g id="Layer_32">
</g>
<g id="Layer_31">
</g>
<g id="Layer_30">
</g>
<g id="Layer_29">
</g>
<g id="Layer_28">
</g>
<g id="Layer_27">
</g>
<g id="Layer_26">
</g>
<g id="Layer_25">
</g>
<g id="Layer_24">
</g>
<g id="Layer_23">
	<path fill="#ED1C24" d="M6.329,39.546C6.329,39.546,8.255,39.546,6.329,39.546c-1.705,0-0.824-1.87-0.824-1.87l18.425-31.9
		c0,0-0.4,0.707,0,0c0.715-1.265,1.649-1.209,2.31-0.055l18.425,31.955c0,0,0.881,1.87-0.824,1.87c-1.926,0,0,0,0,0H6.329z"/>
	<polygon fill="#FFFFFF" points="25.14,13.365 37.46,34.871 12.654,34.871 	"/>
	<path d="M25.203,20.056c0.601,0,1.089-0.488,1.089-1.089c0-0.602-0.488-1.09-1.089-1.09c-0.602,0-1.089,0.488-1.089,1.09
		C24.114,19.567,24.602,20.056,25.203,20.056"/>
	<path d="M25.203,20.217c-0.335,0-0.635,0.152-0.835,0.391l-3.104,3.175l0.396,0.412l2.472-1.894
		c0.049,1.054,0.263,2.158,0.263,2.158l-1.943,7.002h0.725l2.29-5.272l0.824,2.257l1.867,2.784l0.593-0.494l-1.471-2.916
		l-0.709-3.559l-0.017-1.911l0.544,0.395l0.378,1.912l0.544,0.033l-0.164-2.373l-1.779-1.845
		C25.681,20.108,25.203,20.217,25.203,20.217"/>
	<polygon points="21.784,33.908 19.034,33.908 20.63,29.014 22.637,29.014 	"/>
	<polygon points="17.192,33.908 14.525,33.908 17.192,29.014 19.228,29.014 	"/>
	<polygon points="33.087,33.908 35.754,33.908 33.087,29.014 31.052,29.014 	"/>
	<polygon points="24.514,29.014 26.102,29.014 26.515,33.908 25.14,33.908 23.765,33.908 24.097,29.983 	"/>
	<polygon points="28.192,29.014 29.65,29.014 31.245,33.908 28.495,33.908 28.097,31.633 29.106,30.869 	"/>
	<path fill="#FFFFFF" d="M25.085,6.085c0.09,0.088,0.249,0.28,0.479,0.687l0.002,0.006c0,0,17.434,30.438,17.694,30.894
		c0.015,0.026,0.032,0.055,0.05,0.086c0.147,0.252,0.238,0.438,0.271,0.555c-0.079,0.022-0.226,0.048-0.473,0.048H25.044H7.061
		c-0.247,0-0.393-0.025-0.472-0.048c0.033-0.116,0.124-0.303,0.271-0.555c0.019-0.031,0.035-0.06,0.05-0.086
		c0.257-0.447,17.063-29.79,17.677-30.863h0.001c0.007-0.013,0.013-0.024,0.021-0.038C24.836,6.363,24.994,6.173,25.085,6.085
		 M25.065,5.287c-0.007,0-0.015,0-0.021,0v0.004c-0.339,0.039-0.687,0.414-1.082,1.119c-0.005,0.009-0.01,0.017-0.015,0.024
		c0.01-0.015,0.015-0.024,0.015-0.024C23.956,6.421,6.528,36.848,6.269,37.304c-0.261,0.455-1.156,1.795,0.792,1.795h17.983h18.064
		c1.948,0,1.053-1.34,0.792-1.795C43.641,36.848,26.208,6.41,26.208,6.41C25.788,5.662,25.425,5.287,25.065,5.287"/>
	<rect fill="none" width="50.314" height="44"/>
</g>
<g id="Layer_22">
</g>
<g id="Layer_21">
</g>
<g id="Layer_20">
</g>
<g id="Layer_19">
</g>
<g id="Layer_18">
</g>
<g id="Layer_17">
</g>
<g id="Layer_16">
</g>
<g id="Layer_15">
</g>
<g id="Layer_14">
</g>
<g id="Layer_13">
</g>
<g id="Layer_12">
</g>
<g id="Layer_11">
</g>
<g id="Layer_10">
</g>
<g id="Layer_9">
</g>
<g id="Layer_8">
</g>
<g id="Layer_7">
</g>
<g id="Layer_6">
</g>
<g id="Layer_5">
</g>
<g id="Layer_4">
</g>
<g id="Layer_3">
</g>
<g id="Layer_2">
</g>
</svg>
