<?xml version="1.0" encoding="utf-8"?>
<!-- Generator: Adobe Illustrator 16.0.0, SVG Export Plug-In . SVG Version: 6.00 Build 0)  -->
<!DOCTYPE svg PUBLIC "-//W3C//DTD SVG 1.1//EN" "http://www.w3.org/Graphics/SVG/1.1/DTD/svg11.dtd">
<svg version="1.1" xmlns="http://www.w3.org/2000/svg" xmlns:xlink="http://www.w3.org/1999/xlink" x="0px" y="0px"
	 width="50.315px" height="44px" viewBox="0 0 50.315 44" enable-background="new 0 0 50.315 44" xml:space="preserve">
<g id="Layer_40">
</g>
<g id="Layer_39">
</g>
<g id="Layer_38">
</g>
<g id="Layer_37">
</g>
<g id="Layer_36">
</g>
<g id="Layer_35">
</g>
<g id="Layer_34">
</g>
<g id="Layer_33">
</g>
<g id="Layer_32">
</g>
<g id="Layer_31">
</g>
<g id="Layer_30">
</g>
<g id="Layer_29">
</g>
<g id="Layer_28">
</g>
<g id="Layer_27">
</g>
<g id="Layer_26">
</g>
<g id="Layer_25">
</g>
<g id="Layer_24">
	<path fill="#ED1C24" d="M6.455,39.656C6.455,39.656,8.38,39.656,6.455,39.656c-1.705,0-0.825-1.869-0.825-1.869l18.425-31.9
		c0,0-0.4,0.707,0,0c0.715-1.266,1.65-1.21,2.31-0.055L44.79,37.787c0,0,0.88,1.869-0.825,1.869c-1.925,0,0,0,0,0H6.455z"/>
	<polygon fill="#FFFFFF" points="25.265,13.477 37.585,34.981 12.779,34.981 	"/>
	<path d="M25.165,20.08c0.742,0,1.345-0.603,1.345-1.346c0-0.742-0.603-1.344-1.345-1.344s-1.345,0.602-1.345,1.344
		C23.82,19.478,24.423,20.08,25.165,20.08"/>
	<path d="M25.165,20.279c-0.414,0-0.785,0.188-1.031,0.482l-3.832,3.921l0.489,0.508l3.051-2.339
		c0.062,1.303,0.326,2.665,0.326,2.665l-2.4,8.647h0.895l2.828-6.512l1.018,2.787l2.441,3.643l0.731-0.61l-1.952-3.806l-0.875-4.394
		l-0.021-2.36l0.671,0.488l0.468,2.36l0.673,0.041l-0.204-2.931l-2.197-2.278C25.755,20.146,25.165,20.279,25.165,20.279"/>
	<path fill="#FFFFFF" d="M25.183,6.195c0.09,0.088,0.249,0.28,0.479,0.688l0.002,0.006c0,0,17.434,30.438,17.694,30.893
		c0.015,0.026,0.032,0.055,0.05,0.086c0.147,0.252,0.238,0.438,0.271,0.555c-0.079,0.022-0.226,0.049-0.473,0.049H25.142H7.158
		c-0.247,0-0.393-0.026-0.472-0.049c0.033-0.116,0.124-0.303,0.271-0.555c0.019-0.031,0.035-0.06,0.05-0.086
		C7.264,37.334,24.069,7.992,24.684,6.918h0.001c0.007-0.013,0.013-0.024,0.021-0.037C24.934,6.475,25.092,6.283,25.183,6.195
		 M25.163,5.397c-0.007,0-0.015,0.001-0.021,0.001v0.003c-0.341,0.04-0.687,0.414-1.082,1.119c-0.005,0.009-0.01,0.017-0.015,0.024
		c0.009-0.015,0.015-0.024,0.015-0.024C24.054,6.531,6.626,36.959,6.365,37.414c-0.26,0.455-1.155,1.795,0.793,1.795h17.983h18.064
		c1.948,0,1.053-1.34,0.792-1.795c-0.26-0.455-17.692-30.894-17.692-30.894C25.885,5.773,25.522,5.397,25.163,5.397"/>
	<rect fill="none" width="50.315" height="44"/>
</g>
<g id="Layer_23">
</g>
<g id="Layer_22">
</g>
<g id="Layer_21">
</g>
<g id="Layer_20">
</g>
<g id="Layer_19">
</g>
<g id="Layer_18">
</g>
<g id="Layer_17">
</g>
<g id="Layer_16">
</g>
<g id="Layer_15">
</g>
<g id="Layer_14">
</g>
<g id="Layer_13">
</g>
<g id="Layer_12">
</g>
<g id="Layer_11">
</g>
<g id="Layer_10">
</g>
<g id="Layer_9">
</g>
<g id="Layer_8">
</g>
<g id="Layer_7">
</g>
<g id="Layer_6">
</g>
<g id="Layer_5">
</g>
<g id="Layer_4">
</g>
<g id="Layer_3">
</g>
<g id="Layer_2">
</g>
</svg>
