<?xml version="1.0" encoding="utf-8"?>
<!-- Generator: Adobe Illustrator 16.0.0, SVG Export Plug-In . SVG Version: 6.00 Build 0)  -->
<!DOCTYPE svg PUBLIC "-//W3C//DTD SVG 1.1//EN" "http://www.w3.org/Graphics/SVG/1.1/DTD/svg11.dtd">
<svg version="1.1" xmlns="http://www.w3.org/2000/svg" xmlns:xlink="http://www.w3.org/1999/xlink" x="0px" y="0px"
	 width="50.314px" height="44px" viewBox="0 0 50.314 44" enable-background="new 0 0 50.314 44" xml:space="preserve">
<g id="Layer_40">
</g>
<g id="Layer_39">
</g>
<g id="Layer_38">
</g>
<g id="Layer_37">
</g>
<g id="Layer_36">
</g>
<g id="Layer_35">
</g>
<g id="Layer_34">
</g>
<g id="Layer_33">
</g>
<g id="Layer_32">
</g>
<g id="Layer_31">
</g>
<g id="Layer_30">
</g>
<g id="Layer_29">
</g>
<g id="Layer_28">
</g>
<g id="Layer_27">
</g>
<g id="Layer_26">
</g>
<g id="Layer_25">
	<path fill="#ED1C24" d="M6.41,39.285C6.41,39.285,8.334,39.285,6.41,39.285c-1.705,0-0.826-1.87-0.826-1.87L24.01,5.516
		c0,0-0.4,0.706,0,0c0.715-1.266,1.65-1.211,2.311-0.056l18.424,31.955c0,0,0.881,1.87-0.824,1.87c-1.926,0,0,0,0,0H6.41z"/>
	<polygon fill="#FFFFFF" points="25.22,13.105 37.539,34.609 12.734,34.609 	"/>
	<path d="M20.006,33.832c1.81,0,3.275-1.466,3.275-3.274c0-1.808-1.466-3.274-3.275-3.274c-1.809,0-3.274,1.467-3.274,3.274
		C16.731,32.366,18.197,33.832,20.006,33.832"/>
	<path fill="#FFFFFF" d="M20.002,33.025c1.365,0,2.473-1.107,2.473-2.473c0-1.364-1.107-2.471-2.473-2.471s-2.472,1.106-2.472,2.471
		C17.53,31.918,18.637,33.025,20.002,33.025"/>
	<path d="M24.27,24.123v-0.802h-1.42c-0.639,0-0.823,0.802-0.823,0.802c-0.444,1.268-2.265,6.417-2.265,6.417
		c-0.185,0.466,0.553,0.726,0.726,0.282c0.174-0.445,2.255-6.309,2.255-6.309c0.141-0.444,0.553-0.391,0.553-0.391H24.27z"/>
	<path d="M30.558,30.154c-0.324-0.693-1.517-3.246-2.272-4.869H22.08l-0.498,1.32l3.848,4.346h4.672
		C31.013,30.951,30.558,30.154,30.558,30.154"/>
	<path fill="#FFFFFF" d="M29.689,30.15c-0.533-1.123-1.328-2.836-1.896-4.045l-5.616-0.01l3.6,4.055H29.689z"/>
	<path d="M29.636,24.123v0.641l-2.765-0.012c-0.477,0-0.488-0.629,0-0.629H29.636z"/>
	<path d="M26.965,30.557c0-1.807,1.465-3.273,3.273-3.273s3.275,1.467,3.275,3.273c0,1.81-1.467,3.275-3.275,3.275
		S26.965,32.366,26.965,30.557 M30.234,33.025c1.365,0,2.472-1.107,2.472-2.473c0-1.364-1.106-2.471-2.472-2.471
		s-2.473,1.106-2.473,2.471C27.762,31.918,28.869,33.025,30.234,33.025"/>
	<polygon points="25.99,30.777 28.874,24.645 28.152,24.305 25.256,30.475 	"/>
	<path fill="#FFFFFF" d="M25.179,5.842c0.09,0.088,0.249,0.279,0.478,0.688l0.004,0.006c0,0,17.432,30.438,17.693,30.893
		c0.016,0.025,0.032,0.055,0.05,0.086c0.147,0.252,0.238,0.438,0.271,0.555c-0.078,0.022-0.225,0.049-0.471,0.049H25.138H7.154
		c-0.246,0-0.393-0.026-0.472-0.049c0.032-0.117,0.123-0.303,0.271-0.554c0.019-0.032,0.035-0.062,0.051-0.087
		c0.246-0.43,15.722-27.45,17.522-30.596h0.003l0.008-0.015l-0.002-0.001c0.077-0.136,0.129-0.224,0.15-0.262v0.001l0.016-0.026
		C24.93,6.121,25.088,5.93,25.179,5.842 M25.16,5.043c-0.009,0-0.016,0.002-0.022,0.002v0.003c-0.339,0.04-0.687,0.413-1.082,1.118
		c-0.005,0.01-0.009,0.018-0.015,0.025c0.008-0.015,0.015-0.025,0.015-0.025C24.047,6.182,6.623,36.604,6.362,37.061
		c-0.261,0.455-1.155,1.795,0.792,1.795h17.983h18.065c1.947,0,1.053-1.34,0.791-1.795c-0.26-0.456-17.693-30.895-17.693-30.895
		C25.881,5.42,25.519,5.043,25.16,5.043 M23.886,6.469c0,0,0.003-0.005,0.008-0.016C23.889,6.464,23.886,6.469,23.886,6.469"/>
	<rect fill="none" width="50.314" height="44"/>
</g>
<g id="Layer_24">
</g>
<g id="Layer_23">
</g>
<g id="Layer_22">
</g>
<g id="Layer_21">
</g>
<g id="Layer_20">
</g>
<g id="Layer_19">
</g>
<g id="Layer_18">
</g>
<g id="Layer_17">
</g>
<g id="Layer_16">
</g>
<g id="Layer_15">
</g>
<g id="Layer_14">
</g>
<g id="Layer_13">
</g>
<g id="Layer_12">
</g>
<g id="Layer_11">
</g>
<g id="Layer_10">
</g>
<g id="Layer_9">
</g>
<g id="Layer_8">
</g>
<g id="Layer_7">
</g>
<g id="Layer_6">
</g>
<g id="Layer_5">
</g>
<g id="Layer_4">
</g>
<g id="Layer_3">
</g>
<g id="Layer_2">
</g>
</svg>
