<?xml version="1.0" encoding="utf-8"?>
<!-- Generator: Adobe Illustrator 16.0.0, SVG Export Plug-In . SVG Version: 6.00 Build 0)  -->
<!DOCTYPE svg PUBLIC "-//W3C//DTD SVG 1.1//EN" "http://www.w3.org/Graphics/SVG/1.1/DTD/svg11.dtd">
<svg version="1.1" xmlns="http://www.w3.org/2000/svg" xmlns:xlink="http://www.w3.org/1999/xlink" x="0px" y="0px"
	 width="50.314px" height="44px" viewBox="0 0 50.314 44" enable-background="new 0 0 50.314 44" xml:space="preserve">
<g id="Layer_40">
</g>
<g id="Layer_39">
</g>
<g id="Layer_38">
</g>
<g id="Layer_37">
</g>
<g id="Layer_36">
</g>
<g id="Layer_35">
</g>
<g id="Layer_34">
</g>
<g id="Layer_33">
</g>
<g id="Layer_32">
</g>
<g id="Layer_31">
</g>
<g id="Layer_30">
</g>
<g id="Layer_29">
</g>
<g id="Layer_28">
</g>
<g id="Layer_27">
</g>
<g id="Layer_26">
	<polygon fill="#FFFFFF" points="25.367,13.039 37.688,34.545 12.883,34.545 	"/>
	<path fill="#FFFFFF" d="M24.042,6.389c-0.005,0.009-0.009,0.014-0.009,0.014S24.035,6.398,24.042,6.389"/>
	<path d="M16.605,30.725l4.104-0.012l0.006,1.91c0.001,0.374,0.271,0.358,0.271,0.358l1.238-0.004c0,0,0.27,0.014,0.269-0.359
		l-0.007-1.911h0.119l0.834-0.957l-0.01-3.047l-0.838-0.624l-1.218-3.057c-2.703-0.351-4.808-0.373-4.808-0.358
		c0-0.015,0.9,0.211-1.801,0.578l-1.199,3.064l-0.834,0.629l0.009,3.046l-2.167,0.762h0.119l0.006,1.911
		c0.001,0.373,0.27,0.357,0.27,0.357l1.239-0.004c0,0,0.269,0.015,0.267-0.359l-0.004-1.911l4.104-0.013H16.605z"/>
	<path fill="#FFFFFF" d="M16.576,25.889c0-0.016,3.537,0.078,5.271,0.207l0.013-0.004l-0.931-2.336
		c-2.703-0.351-4.361-0.375-4.36-0.36c-0.001-0.015,0.661-0.304-2.04,0.063l-0.917,2.34l-0.027,0.166
		C15.315,25.824,16.576,25.873,16.576,25.889"/>
	<path fill="#FFFFFF" d="M20.189,28.744l2.299-0.008c0.246,0,0.26-0.254,0.26-0.254l-0.002-1.187c0,0-0.017-0.254-0.263-0.253
		l-1.903,0.005c-0.246,0.001-0.332,0.174-0.365,0.248c-0.051,0.119-0.295,1.194-0.295,1.194
		C19.92,28.73,20.189,28.744,20.189,28.744"/>
	<line fill="none" stroke="#000000" stroke-width="0.172" x1="23.834" y1="32.965" x2="33.678" y2="32.965"/>
	<line fill="none" stroke="#000000" stroke-width="0.172" x1="23.817" y1="32.549" x2="33.125" y2="29.364"/>
	<line fill="none" stroke="#000000" stroke-width="0.172" x1="23.635" y1="32.111" x2="31.18" y2="26.102"/>
	<line fill="none" stroke="#000000" stroke-width="0.172" x1="23.313" y1="31.746" x2="29.033" y2="23.584"/>
	<path d="M26.715,23.412c0.314,0.258-0.029,1.115-0.029,1.115l0.401-0.028c0,0,0.2-0.028,0.258-0.114s0-0.029,0.058-0.143
		c0.057-0.115,0.172-0.516,0.172-0.516s0.143-0.314-0.201-0.344C27.029,23.355,26.715,23.412,26.715,23.412"/>
	<path fill="none" stroke="#FFFFFF" stroke-width="0.092" d="M26.715,23.412c0.314,0.258-0.029,1.115-0.029,1.115l0.401-0.028
		c0,0,0.2-0.028,0.258-0.114s0-0.029,0.058-0.143c0.057-0.115,0.172-0.516,0.172-0.516s0.143-0.314-0.201-0.344
		C27.029,23.355,26.715,23.412,26.715,23.412z"/>
	<path d="M30.635,23.928c0,0-0.143-0.344-0.4-0.201c-0.258,0.144-0.4,0.115-0.4,0.315c0,0.401-0.058,0.515,0.2,0.457
		c0.258-0.057,0.144,0,0.315-0.114c0.172-0.115,0.057-0.172,0.113-0.285C30.521,23.984,30.635,23.928,30.635,23.928"/>
	<path fill="none" stroke="#FFFFFF" stroke-width="0.092" d="M30.635,23.928c0,0-0.143-0.344-0.4-0.201
		c-0.258,0.144-0.4,0.115-0.4,0.315c0,0.401-0.058,0.515,0.2,0.457c0.258-0.057,0.144,0,0.315-0.114
		c0.172-0.115,0.057-0.172,0.113-0.285C30.521,23.984,30.635,23.928,30.635,23.928z"/>
	<path d="M29.891,25.959c-0.258,0.057-0.314-0.057-0.457,0.115c-0.144,0.171-0.201,0.285,0.028,0.343s0.257,0.028,0.257,0.028
		l0.258-0.144l0.172-0.143L29.891,25.959z"/>
	<path fill="none" stroke="#FFFFFF" stroke-width="0.092" d="M29.891,25.959c-0.258,0.057-0.314-0.057-0.457,0.115
		c-0.144,0.171-0.201,0.285,0.028,0.343s0.257,0.028,0.257,0.028l0.258-0.144l0.172-0.143L29.891,25.959z"/>
	<path d="M27.602,26.961c0,0-0.086,0.199-0.285,0.314c-0.201,0.114-0.345,0.057-0.43,0.314c-0.086,0.258-0.314,0.314-0.115,0.486
		c0.2,0.172,0.373,0.029,0.373,0.029s0.371-0.086,0.344-0.286c-0.029-0.2,0.027-0.2,0.113-0.287
		c0.086-0.086,0.057-0.257,0.057-0.257L27.602,26.961z"/>
	<path fill="none" stroke="#FFFFFF" stroke-width="0.092" d="M27.602,26.961c0,0-0.086,0.199-0.285,0.314
		c-0.201,0.114-0.345,0.057-0.43,0.314c-0.086,0.258-0.314,0.314-0.115,0.486c0.2,0.172,0.373,0.029,0.373,0.029
		s0.371-0.086,0.344-0.286c-0.029-0.2,0.027-0.2,0.113-0.287c0.086-0.086,0.057-0.257,0.057-0.257L27.602,26.961z"/>
	<path d="M29.49,28.076c0,0-0.199,0.114-0.229,0.344c-0.029,0.229,0.199,0.086,0.199,0.086h0.373c0.172,0,0.515,0.058,0.601,0.029
		c0.086-0.029-0.171-0.287-0.171-0.287s-0.029-0.028-0.229-0.172c-0.201-0.143-0.229,0-0.229,0H29.49z"/>
	<path fill="none" stroke="#FFFFFF" stroke-width="0.092" d="M29.49,28.076c0,0-0.199,0.114-0.229,0.344
		c-0.029,0.229,0.199,0.086,0.199,0.086h0.373c0.172,0,0.515,0.058,0.601,0.029c0.086-0.029-0.171-0.287-0.171-0.287
		s-0.029-0.028-0.229-0.172c-0.201-0.143-0.229,0-0.229,0H29.49z"/>
	<path d="M31.923,28.277c-0.2,0.113-0.172,0.229-0.172,0.229v0.257l0.172,0.144l0.2,0.258l0.43-0.086l0.2-0.258
		c0,0,0.114-0.143-0.028-0.201c-0.144-0.057-0.172-0.027-0.287-0.199c-0.095-0.143-0.229-0.229-0.229-0.229L31.923,28.277z"/>
	<path fill="none" stroke="#FFFFFF" stroke-width="0.092" d="M31.923,28.277c-0.2,0.113-0.172,0.229-0.172,0.229v0.257l0.172,0.144
		l0.2,0.258l0.43-0.086l0.2-0.258c0,0,0.114-0.143-0.028-0.201c-0.144-0.057-0.172-0.027-0.287-0.199
		c-0.095-0.143-0.229-0.229-0.229-0.229L31.923,28.277z"/>
	<path d="M30.034,31.596l-0.687,0.229c0,0-0.229,0.229-0.144,0.429c0.086,0.2,0.315,0.144,0.315,0.144l0.429-0.257l0.286,0.113
		l0.201-0.086l0.171-0.143l-0.028-0.258L30.034,31.596z"/>
	<path fill="none" stroke="#FFFFFF" stroke-width="0.092" d="M30.034,31.596l-0.687,0.229c0,0-0.229,0.229-0.144,0.429
		c0.086,0.2,0.315,0.144,0.315,0.144l0.429-0.257l0.286,0.113l0.201-0.086l0.171-0.143l-0.028-0.258L30.034,31.596z"/>
	<path d="M33.84,31.467c-0.172,0.043-0.601,0.301-0.601,0.301v0.344l0.315,0.257c0,0,0.229-0.229,0.4-0.257
		c0.171-0.029,0.486,0,0.486,0l0.285,0.028l0.029-0.314l-0.314-0.301L33.84,31.467z"/>
	<path fill="none" stroke="#FFFFFF" stroke-width="0.092" d="M33.84,31.467c-0.172,0.043-0.601,0.301-0.601,0.301v0.344l0.315,0.257
		c0,0,0.229-0.229,0.4-0.257c0.171-0.029,0.486,0,0.486,0l0.285,0.028l0.029-0.314l-0.314-0.301L33.84,31.467z"/>
	<path fill="#ED1C24" d="M44.893,37.35L26.467,5.395c-0.66-1.155-1.595-1.211-2.31,0.055L5.732,37.35c0,0-0.881,1.869,0.824,1.869
		h0.855h35.801h0.855C45.771,39.219,44.893,37.35,44.893,37.35 M24.033,5.669c-0.004,0.007-0.008,0.015-0.012,0.021
		C24.025,5.684,24.029,5.676,24.033,5.669 M24.003,5.723c-0.007,0.012-0.012,0.022-0.017,0.028
		C23.991,5.744,23.996,5.734,24.003,5.723 M12.898,34.544l12.486-21.505l12.319,21.505H12.898z"/>
	<path fill="#FFFFFF" d="M25.313,5.758c0.09,0.088,0.249,0.28,0.479,0.688l0.002,0.006c0,0,17.434,30.438,17.694,30.893
		c0.015,0.026,0.032,0.056,0.05,0.086c0.147,0.252,0.238,0.438,0.271,0.556c-0.08,0.022-0.225,0.048-0.473,0.048H25.271H7.289
		c-0.248,0-0.394-0.025-0.473-0.048c0.033-0.117,0.124-0.304,0.271-0.556c0.018-0.03,0.035-0.06,0.05-0.086
		C7.394,36.897,24.199,7.555,24.813,6.481h0.001c0.008-0.013,0.014-0.025,0.021-0.038C25.063,6.037,25.223,5.846,25.313,5.758
		 M25.293,4.961c-0.006,0-0.015,0-0.021,0v0.004c-0.34,0.039-0.686,0.414-1.082,1.118c-0.005,0.009-0.009,0.017-0.014,0.025
		c0.008-0.015,0.014-0.025,0.014-0.025C24.184,6.094,6.756,36.521,6.496,36.977c-0.261,0.455-1.156,1.796,0.793,1.796h17.982h18.064
		c1.949,0,1.054-1.341,0.793-1.796c-0.26-0.455-17.693-30.894-17.693-30.894C26.016,5.336,25.652,4.961,25.293,4.961"/>
	<rect fill="none" width="50.314" height="44"/>
</g>
<g id="Layer_25">
</g>
<g id="Layer_24">
</g>
<g id="Layer_23">
</g>
<g id="Layer_22">
</g>
<g id="Layer_21">
</g>
<g id="Layer_20">
</g>
<g id="Layer_19">
</g>
<g id="Layer_18">
</g>
<g id="Layer_17">
</g>
<g id="Layer_16">
</g>
<g id="Layer_15">
</g>
<g id="Layer_14">
</g>
<g id="Layer_13">
</g>
<g id="Layer_12">
</g>
<g id="Layer_11">
</g>
<g id="Layer_10">
</g>
<g id="Layer_9">
</g>
<g id="Layer_8">
</g>
<g id="Layer_7">
</g>
<g id="Layer_6">
</g>
<g id="Layer_5">
</g>
<g id="Layer_4">
</g>
<g id="Layer_3">
</g>
<g id="Layer_2">
</g>
</svg>
