<?xml version="1.0" encoding="utf-8"?>
<!-- Generator: Adobe Illustrator 16.0.0, SVG Export Plug-In . SVG Version: 6.00 Build 0)  -->
<!DOCTYPE svg PUBLIC "-//W3C//DTD SVG 1.1//EN" "http://www.w3.org/Graphics/SVG/1.1/DTD/svg11.dtd">
<svg version="1.1" xmlns="http://www.w3.org/2000/svg" xmlns:xlink="http://www.w3.org/1999/xlink" x="0px" y="0px"
	 width="50.314px" height="44px" viewBox="0 0 50.314 44" enable-background="new 0 0 50.314 44" xml:space="preserve">
<g id="Layer_40">
</g>
<g id="Layer_39">
</g>
<g id="Layer_38">
</g>
<g id="Layer_37">
</g>
<g id="Layer_36">
</g>
<g id="Layer_35">
</g>
<g id="Layer_34">
</g>
<g id="Layer_33">
</g>
<g id="Layer_32">
</g>
<g id="Layer_31">
</g>
<g id="Layer_30">
</g>
<g id="Layer_29">
</g>
<g id="Layer_28">
</g>
<g id="Layer_27">
	<path fill="#ED1C24" d="M6.441,39.268C6.441,39.268,8.366,39.268,6.441,39.268c-1.705,0-0.825-1.87-0.825-1.87L24.041,5.498
		c0,0-0.399,0.707,0,0c0.715-1.266,1.65-1.211,2.311-0.056l18.425,31.955c0,0,0.88,1.87-0.825,1.87c-1.925,0,0,0,0,0H6.441z"/>
	<polygon fill="#FFFFFF" points="25.251,13.088 37.571,34.593 12.767,34.593 	"/>
	<path fill="#FFFFFF" d="M25.21,5.824c0.09,0.088,0.249,0.28,0.479,0.688l0.002,0.006c0,0,17.433,30.438,17.693,30.893
		c0.016,0.026,0.032,0.055,0.05,0.088c0.147,0.25,0.238,0.437,0.271,0.553c-0.079,0.022-0.225,0.049-0.472,0.049H25.169H7.186
		c-0.246,0-0.393-0.026-0.472-0.049c0.033-0.116,0.124-0.303,0.271-0.553c0.018-0.033,0.034-0.062,0.05-0.088
		C7.281,36.981,22.762,9.951,24.559,6.813l0.002,0.001l0.01-0.014l-0.003-0.002c0.071-0.125,0.119-0.211,0.144-0.252h0.001
		c0.007-0.013,0.014-0.024,0.021-0.037C24.961,6.104,25.12,5.912,25.21,5.824 M25.191,5.026c-0.008,0-0.016,0.001-0.022,0.001V5.03
		c-0.339,0.04-0.686,0.414-1.082,1.119c-0.005,0.009-0.009,0.017-0.014,0.024c0.008-0.015,0.014-0.024,0.014-0.024
		C24.081,6.16,6.654,36.588,6.394,37.043s-1.155,1.795,0.792,1.795h17.983h18.065c1.947,0,1.053-1.34,0.792-1.795
		S26.333,6.149,26.333,6.149C25.913,5.402,25.55,5.026,25.191,5.026 M23.917,6.451c0,0,0.003-0.005,0.008-0.015
		C23.92,6.446,23.917,6.451,23.917,6.451"/>
	<polygon fill="#FFFFFF" points="25.268,13.088 37.588,34.592 12.783,34.592 	"/>
	<path fill="none" stroke="#000000" stroke-width="0.616" d="M35.729,33.053c-0.477,0.268-0.572,0.48-1.252,0.48l-0.011-0.008
		c-0.66,0-0.962-0.521-1.622-0.521s-0.77,0.509-1.448,0.509c-0.669,0-0.861-0.607-1.54-0.607c-0.654,0-0.984,0.593-1.631,0.593
		c-0.674,0-0.783-0.593-1.453-0.593c-0.637,0-0.869,0.607-1.516,0.607l-0.369-0.082"/>
	<path fill="none" stroke="#000000" stroke-width="0.616" d="M35.028,31.986c-0.089,0.123-0.561,0.168-0.561,0.168
		c-0.66,0-0.963-0.521-1.623-0.521s-0.77,0.51-1.448,0.51c-0.669,0-0.86-0.607-1.539-0.607c-0.655,0-0.985,0.592-1.632,0.592
		c-0.673,0-0.783-0.592-1.452-0.592c-0.637,0-0.871,0.607-1.517,0.607l-0.369-0.1"/>
	<rect fill="none" width="50.314" height="44"/>
	<polygon points="25.042,34.072 25.042,27.27 17.707,27.27 13.694,34.072 	"/>
	<path d="M27.859,28.902c-0.36-0.219-0.476-0.688-0.257-1.049c0.219-0.36,0.688-0.475,1.049-0.258
		c0.36,0.22,0.476,0.688,0.257,1.049C28.689,29.006,28.221,29.121,27.859,28.902"/>
	<path d="M22.868,25.858c-0.36-0.219-0.476-0.688-0.257-1.049s0.688-0.476,1.049-0.257s0.476,0.688,0.258,1.049
		C23.698,25.963,23.229,26.078,22.868,25.858"/>
	<path d="M30.125,29.004l-0.88-0.334c0,0,0.327-0.867-0.451-1.338c-0.699-0.425-1.339,0.125-1.515,0.416l-3.105-1.9
		c0.16-0.354,0.33-1.08-0.329-1.48s-1.2-0.043-1.435,0.194l-0.438-0.474l0.628-1.035l1.328,0.463l1.722-0.399l2.4,1.455l0.523,1.813
		l1.983,1.906L30.125,29.004z M27.873,24.654l-1.239-0.752l-0.589,0.971l2.331,1.414L27.873,24.654z M26.383,23.75l-0.765-0.463
		l-1.574,0.372l1.75,1.062L26.383,23.75z"/>
	<rect fill="none" width="50.314" height="44"/>
</g>
<g id="Layer_26">
</g>
<g id="Layer_25">
</g>
<g id="Layer_24">
</g>
<g id="Layer_23">
</g>
<g id="Layer_22">
</g>
<g id="Layer_21">
</g>
<g id="Layer_20">
</g>
<g id="Layer_19">
</g>
<g id="Layer_18">
</g>
<g id="Layer_17">
</g>
<g id="Layer_16">
</g>
<g id="Layer_15">
</g>
<g id="Layer_14">
</g>
<g id="Layer_13">
</g>
<g id="Layer_12">
</g>
<g id="Layer_11">
</g>
<g id="Layer_10">
</g>
<g id="Layer_9">
</g>
<g id="Layer_8">
</g>
<g id="Layer_7">
</g>
<g id="Layer_6">
</g>
<g id="Layer_5">
</g>
<g id="Layer_4">
</g>
<g id="Layer_3">
</g>
<g id="Layer_2">
</g>
</svg>
