<?xml version="1.0" encoding="utf-8"?>
<!-- Generator: Adobe Illustrator 16.0.0, SVG Export Plug-In . SVG Version: 6.00 Build 0)  -->
<!DOCTYPE svg PUBLIC "-//W3C//DTD SVG 1.1//EN" "http://www.w3.org/Graphics/SVG/1.1/DTD/svg11.dtd">
<svg version="1.1" xmlns="http://www.w3.org/2000/svg" xmlns:xlink="http://www.w3.org/1999/xlink" x="0px" y="0px"
	 width="50.315px" height="44px" viewBox="0 0 50.315 44" enable-background="new 0 0 50.315 44" xml:space="preserve">
<g id="Layer_40">
</g>
<g id="Layer_39">
</g>
<g id="Layer_38">
</g>
<g id="Layer_37">
</g>
<g id="Layer_36">
</g>
<g id="Layer_35">
</g>
<g id="Layer_34">
</g>
<g id="Layer_33">
</g>
<g id="Layer_32">
</g>
<g id="Layer_31">
</g>
<g id="Layer_30">
</g>
<g id="Layer_29">
</g>
<g id="Layer_28">
	<path fill="#ED1C24" d="M6.203,39.408C6.203,39.408,8.128,39.408,6.203,39.408c-1.705,0-0.825-1.87-0.825-1.87L23.803,5.639
		c0,0-0.399,0.707,0,0c0.715-1.266,1.65-1.211,2.311-0.055l18.425,31.954c0,0,0.88,1.87-0.825,1.87c-1.925,0,0,0,0,0H6.203z"/>
	<polygon fill="#FFFFFF" points="25.013,13.229 37.333,34.733 12.528,34.733 	"/>
	<path fill="#FFFFFF" d="M24.972,5.965c0.09,0.088,0.249,0.28,0.479,0.688l0.002,0.005c0,0,17.433,30.438,17.693,30.894
		c0.016,0.026,0.032,0.055,0.051,0.086c0.146,0.252,0.237,0.438,0.271,0.555c-0.079,0.022-0.225,0.049-0.472,0.049H24.931H6.948
		c-0.247,0-0.394-0.026-0.473-0.049c0.033-0.116,0.124-0.303,0.271-0.555c0.018-0.031,0.035-0.06,0.05-0.086
		c0.246-0.429,15.727-27.459,17.524-30.597l0.002,0.001l0.009-0.014l-0.003-0.002c0.071-0.125,0.12-0.211,0.144-0.252h0.001
		c0.007-0.013,0.015-0.024,0.021-0.037C24.723,6.244,24.882,6.053,24.972,5.965 M24.953,5.167c-0.007,0-0.016,0.001-0.022,0.001
		v0.003c-0.34,0.04-0.686,0.414-1.082,1.119c-0.005,0.009-0.009,0.017-0.014,0.024C23.843,6.3,23.849,6.29,23.849,6.29
		C23.843,6.301,6.416,36.729,6.155,37.184S5,38.979,6.948,38.979h17.982h18.065c1.947,0,1.053-1.34,0.792-1.795
		C43.528,36.729,26.095,6.29,26.095,6.29C25.675,5.543,25.312,5.167,24.953,5.167 M23.679,6.592c0,0,0.003-0.005,0.008-0.015
		C23.682,6.587,23.679,6.592,23.679,6.592"/>
	<polygon fill="#FFFFFF" points="25.029,13.229 37.35,34.732 12.545,34.732 	"/>
	<path d="M24.641,24.645c0.315,0.488,0.46,0.92,0.805,0.978c0.346,0.058,1.727,0.058,2.474,0.229
		c0.748,0.172,2.242,0.892,2.33,1.035c0.023,0.041,0.215,0.115,0.215,0.115s0.555-0.018,0.646,0.043
		c0.13,0.086,0.188,0.23,0.044,0.316c-0.144,0.087-0.504,0.044-0.504,0.044l0.059,0.905c0,0,0.157,0.733,0.503,1.078
		c0.361,0.362,1.136,0.359,1.279,0.519c0.144,0.157-0.054,1.753,0.086,2.185c0.316,0.979,0.562,0.733,0.705,0.85
		c0.144,0.113,0.287,0.904,0.215,0.963c-0.071,0.057-0.775-0.374-1.006-0.575c-0.229-0.202-0.2-0.733-0.2-0.733
		s-0.21-0.809-0.36-1.223c-0.156-0.428-0.345-0.818-0.562-0.979c-0.215-0.158-1.192,0.059-1.911-0.33
		c-0.612-0.33-1.654-1.696-1.654-1.696s-1.726,0.014-2.243-0.015c-0.517-0.028-0.992-0.459-0.992-0.459l-0.474,0.043
		c-0.433,0-1.079-0.562-1.525-0.777c-0.433-0.21-0.732-0.303-0.833-0.215c-0.094,0.08,0.475,1.711,0.475,1.711l0.358-0.029
		l0.36,0.748l-0.936-0.102c0,0-0.834-1.696-0.977-2.156c-0.144-0.46-0.202-0.503-0.115-0.646c0.086-0.145-0.044-0.158,0.546-0.188
		c0.604-0.029,0.863,0.058,0.979-0.172c0.115-0.23,0.259-0.26,0.229-0.547c-0.05-0.494-0.028-1.15-0.144-1.582
		s-0.115-0.69-0.403-0.834c-0.287-0.144-0.906-0.144-1.021-0.316c-0.115-0.172-0.158-0.374-0.187-0.489
		c-0.028-0.114,1.812-0.977,1.812-0.977s-0.445-0.13-0.776-0.403c-0.347-0.285-0.374-0.402-0.288-0.488
		c0.087-0.086,0.145,0.028,0.547,0.258c0.402,0.23,1.006,0.289,1.38,0.23c0.374-0.057,0.604-0.145,0.776-0.316
		c0.173-0.172,0.346-0.272,0.202-0.33c-0.103-0.041-0.145-0.043-0.374-0.029c-0.293,0.02-0.633-0.158-0.604-0.287
		c0.052-0.232,0.043-0.115,0.331-0.115c0.287,0,0.417,0.072,0.475-0.216s-0.086-0.748-0.374-1.035
		c-0.287-0.288-0.674-0.466-0.589-0.776c0.043-0.158,1.017,0.564,1.192,0.863c0.064,0.106,0.264,0.52,0.36,0.762
		c0.057,0.144,0.234,0.108,0.302-0.043c0.106-0.244-0.015-0.705-0.101-0.936c-0.154-0.41-0.489-0.551-0.303-0.675
		c0.086-0.058,0.446,0.172,0.575,0.53c0.188,0.523,0.188,0.533,0.188,0.533c0.071-0.015,0.201-0.244,0.144-0.877
		s-0.664-1.166-0.561-1.279c0.144-0.158,0.676,0.594,0.802,1.25c0.129,0.677-0.107,1.514-0.557,2.113
		c-0.476,0.633-1.28,1.18-1.28,1.18s0.129,0.287,0.043,0.389c-0.188,0.219-0.46,0.389-0.46,0.389s0.272,0.474,0.417,1.021
		C24.324,23.623,24.641,24.645,24.641,24.645"/>
	<rect fill="none" width="50.315" height="44"/>
</g>
<g id="Layer_27">
</g>
<g id="Layer_26">
</g>
<g id="Layer_25">
</g>
<g id="Layer_24">
</g>
<g id="Layer_23">
</g>
<g id="Layer_22">
</g>
<g id="Layer_21">
</g>
<g id="Layer_20">
</g>
<g id="Layer_19">
</g>
<g id="Layer_18">
</g>
<g id="Layer_17">
</g>
<g id="Layer_16">
</g>
<g id="Layer_15">
</g>
<g id="Layer_14">
</g>
<g id="Layer_13">
</g>
<g id="Layer_12">
</g>
<g id="Layer_11">
</g>
<g id="Layer_10">
</g>
<g id="Layer_9">
</g>
<g id="Layer_8">
</g>
<g id="Layer_7">
</g>
<g id="Layer_6">
</g>
<g id="Layer_5">
</g>
<g id="Layer_4">
</g>
<g id="Layer_3">
</g>
<g id="Layer_2">
</g>
</svg>
