<?xml version="1.0" encoding="utf-8"?>
<!-- Generator: Adobe Illustrator 16.0.0, SVG Export Plug-In . SVG Version: 6.00 Build 0)  -->
<!DOCTYPE svg PUBLIC "-//W3C//DTD SVG 1.1//EN" "http://www.w3.org/Graphics/SVG/1.1/DTD/svg11.dtd">
<svg version="1.1" xmlns="http://www.w3.org/2000/svg" xmlns:xlink="http://www.w3.org/1999/xlink" x="0px" y="0px"
	 width="50.314px" height="44px" viewBox="0 0 50.314 44" enable-background="new 0 0 50.314 44" xml:space="preserve">
<g id="Layer_40">
</g>
<g id="Layer_39">
</g>
<g id="Layer_38">
</g>
<g id="Layer_37">
</g>
<g id="Layer_36">
</g>
<g id="Layer_35">
</g>
<g id="Layer_34">
</g>
<g id="Layer_33">
</g>
<g id="Layer_32">
</g>
<g id="Layer_31">
</g>
<g id="Layer_30">
</g>
<g id="Layer_29">
	<path fill="#ED1C24" d="M6.295,39.433C6.295,39.433,8.221,39.433,6.295,39.433c-1.704,0-0.824-1.87-0.824-1.87l18.425-31.9
		c0,0-0.399,0.707,0,0c0.716-1.265,1.649-1.209,2.31-0.055l18.426,31.955c0,0,0.88,1.87-0.825,1.87c-1.925,0,0,0,0,0H6.295z"/>
	<polygon fill="#FFFFFF" points="25.105,13.252 37.426,34.758 12.621,34.758 	"/>
	<path fill="#FFFFFF" d="M25.064,5.989c0.09,0.088,0.249,0.28,0.479,0.687l0.002,0.006c0,0,17.434,30.438,17.694,30.894
		c0.015,0.026,0.032,0.056,0.05,0.086c0.147,0.252,0.238,0.438,0.271,0.556c-0.08,0.021-0.225,0.047-0.473,0.047H25.023H7.041
		c-0.248,0-0.394-0.025-0.473-0.047c0.033-0.117,0.124-0.304,0.271-0.556c0.018-0.03,0.035-0.06,0.05-0.086
		c0.245-0.429,15.727-27.459,17.524-30.597h0.002l0.008-0.014l-0.002-0.002c0.071-0.125,0.119-0.209,0.144-0.252l0.001,0.002
		c0.007-0.014,0.014-0.025,0.021-0.039C24.815,6.268,24.975,6.077,25.064,5.989 M25.045,5.191c-0.006,0-0.015,0.001-0.021,0.001
		v0.003c-0.34,0.04-0.686,0.414-1.082,1.119c-0.005,0.009-0.009,0.017-0.014,0.025c0.008-0.016,0.014-0.025,0.014-0.025
		C23.936,6.325,6.508,36.752,6.248,37.208c-0.261,0.455-1.156,1.796,0.793,1.796h17.982h18.064c1.949,0,1.054-1.341,0.793-1.796
		c-0.26-0.456-17.693-30.894-17.693-30.894C25.768,5.567,25.404,5.191,25.045,5.191 M23.771,6.616c0,0,0.003-0.005,0.008-0.015
		C23.774,6.611,23.771,6.616,23.771,6.616"/>
	<polygon fill="#FFFFFF" points="25.122,13.252 37.442,34.758 12.637,34.758 	"/>
	<path d="M20.882,25.031c0.151,0.041,0.388,0.234,0.388,0.234l1.901,0.531c0,0,7.124-0.074,7.345-0.037
		c0.111,0.02,0.184,0.115,0.294,0.337c0,0.291,0.005,3.06,0,4.125c-0.001,0.265,0.08,0.249,0.163,0.388s0.064,0.517,0,0.539
		c-0.064,0.023-0.388-0.313-0.429-0.502c-0.042-0.189,0-0.479,0-0.479s0.017-2.937,0-3.027c-0.032-0.166-0.156-0.185-0.197-0.073
		c-0.042,0.11,0,5.5,0,5.5l-0.065,0.604h-0.68l0.361-0.876c0,0,0.092-0.277,0.055-0.757c-0.037-0.48-0.568-1.066-0.568-1.066
		s-0.151,0.051-0.594-0.061c-0.443-0.11-0.738-0.7-0.738-0.7s-3.082-0.083-3.248,0.014c-0.168,0.097-0.504,0.419-0.541,0.789
		c-0.036,0.369-0.014,1.338-0.051,1.854s-0.115,0.803-0.115,0.803H23.58c0,0,0.212-0.486,0.291-0.887
		c0.148-0.741-0.268-2.006-0.414-2.228c-0.148-0.222-0.397-0.125-0.692-0.53c-0.296-0.406-0.591-1.182-0.591-1.182
		s-0.291-0.171-0.697-0.503s-0.871-0.747-0.871-0.747s-0.373-0.038-0.65,0.014c-0.1,0.019-0.098,0.077-0.194,0.096
		c-0.369,0.074-0.401,0-0.401,0l-0.287-0.336c0,0,0.992-1.338,1.021-1.435s-0.306-0.276-0.317-0.347
		c-0.015-0.069,0.678-0.11,0.678-0.11S20.73,24.99,20.882,25.031"/>
	<rect fill="none" width="50.314" height="44"/>
</g>
<g id="Layer_28">
</g>
<g id="Layer_27">
</g>
<g id="Layer_26">
</g>
<g id="Layer_25">
</g>
<g id="Layer_24">
</g>
<g id="Layer_23">
</g>
<g id="Layer_22">
</g>
<g id="Layer_21">
</g>
<g id="Layer_20">
</g>
<g id="Layer_19">
</g>
<g id="Layer_18">
</g>
<g id="Layer_17">
</g>
<g id="Layer_16">
</g>
<g id="Layer_15">
</g>
<g id="Layer_14">
</g>
<g id="Layer_13">
</g>
<g id="Layer_12">
</g>
<g id="Layer_11">
</g>
<g id="Layer_10">
</g>
<g id="Layer_9">
</g>
<g id="Layer_8">
</g>
<g id="Layer_7">
</g>
<g id="Layer_6">
</g>
<g id="Layer_5">
</g>
<g id="Layer_4">
</g>
<g id="Layer_3">
</g>
<g id="Layer_2">
</g>
</svg>
