<?xml version="1.0" encoding="utf-8"?>
<!-- Generator: Adobe Illustrator 16.0.0, SVG Export Plug-In . SVG Version: 6.00 Build 0)  -->
<!DOCTYPE svg PUBLIC "-//W3C//DTD SVG 1.1//EN" "http://www.w3.org/Graphics/SVG/1.1/DTD/svg11.dtd">
<svg version="1.1" xmlns="http://www.w3.org/2000/svg" xmlns:xlink="http://www.w3.org/1999/xlink" x="0px" y="0px"
	 width="50.314px" height="44px" viewBox="0 0 50.314 44" enable-background="new 0 0 50.314 44" xml:space="preserve">
<g id="Layer_40">
</g>
<g id="Layer_39">
</g>
<g id="Layer_38">
</g>
<g id="Layer_37">
</g>
<g id="Layer_36">
</g>
<g id="Layer_35">
</g>
<g id="Layer_34">
</g>
<g id="Layer_33">
</g>
<g id="Layer_32">
</g>
<g id="Layer_31">
</g>
<g id="Layer_30">
	<path fill="#ED1C24" d="M6.179,39.467C6.179,39.467,8.104,39.467,6.179,39.467c-1.705,0-0.825-1.871-0.825-1.871L23.778,5.696
		c0,0-0.399,0.707,0,0c0.716-1.265,1.65-1.21,2.31-0.056l18.426,31.955c0,0,0.88,1.871-0.825,1.871c-1.925,0,0,0,0,0H6.179z"/>
	<polygon fill="#FFFFFF" points="24.988,13.286 37.309,34.791 12.504,34.791 	"/>
	<path fill="#FFFFFF" d="M24.947,6.023c0.09,0.088,0.249,0.279,0.479,0.687l0.002,0.005c0,0,17.434,30.439,17.695,30.895
		c0.014,0.025,0.031,0.055,0.049,0.086c0.147,0.252,0.238,0.438,0.271,0.555c-0.079,0.021-0.225,0.048-0.473,0.048H24.906H6.924
		c-0.248,0-0.394-0.026-0.473-0.048c0.033-0.117,0.124-0.303,0.271-0.555c0.018-0.031,0.035-0.061,0.05-0.086
		C7.019,37.18,22.5,10.15,24.297,7.012l0.002,0.001l0.008-0.014l-0.002-0.002c0.072-0.125,0.119-0.21,0.144-0.252l0.001,0.001
		c0.008-0.014,0.014-0.025,0.021-0.038C24.698,6.302,24.857,6.111,24.947,6.023 M24.928,5.225c-0.006,0-0.014,0.002-0.021,0.002
		v0.002c-0.339,0.041-0.686,0.414-1.082,1.119c-0.005,0.01-0.009,0.018-0.014,0.025c0.008-0.016,0.014-0.025,0.014-0.025
		C23.818,6.359,6.391,36.786,6.131,37.242c-0.261,0.455-1.155,1.795,0.793,1.795h17.982h18.064c1.949,0,1.054-1.34,0.793-1.795
		C43.504,36.786,26.07,6.348,26.07,6.348C25.65,5.602,25.287,5.225,24.928,5.225 M23.654,6.65c0,0,0.003-0.006,0.008-0.016
		C23.657,6.645,23.654,6.65,23.654,6.65"/>
	<polygon fill="#FFFFFF" points="25.006,13.286 37.325,34.791 12.52,34.791 	"/>
	<path d="M28.58,33.682v-7.865l1.784,0.416c0.433,0.171,0.772-0.053,0.528-0.469l-2.723-3.91c-0.246-0.35-0.453-0.35-0.699,0
		l-2.723,3.91c-0.244,0.416,0.096,0.64,0.528,0.469l1.784-0.416v7.865H28.58z"/>
	<path d="M21.076,21.666v7.863l-1.784-0.416c-0.433-0.17-0.772,0.053-0.528,0.471l2.723,3.91c0.246,0.349,0.453,0.349,0.699,0
		l2.723-3.91c0.244-0.418-0.096-0.641-0.528-0.471l-1.784,0.416v-7.863H21.076z"/>
	<rect fill="none" width="50.314" height="44"/>
</g>
<g id="Layer_29">
</g>
<g id="Layer_28">
</g>
<g id="Layer_27">
</g>
<g id="Layer_26">
</g>
<g id="Layer_25">
</g>
<g id="Layer_24">
</g>
<g id="Layer_23">
</g>
<g id="Layer_22">
</g>
<g id="Layer_21">
</g>
<g id="Layer_20">
</g>
<g id="Layer_19">
</g>
<g id="Layer_18">
</g>
<g id="Layer_17">
</g>
<g id="Layer_16">
</g>
<g id="Layer_15">
</g>
<g id="Layer_14">
</g>
<g id="Layer_13">
</g>
<g id="Layer_12">
</g>
<g id="Layer_11">
</g>
<g id="Layer_10">
</g>
<g id="Layer_9">
</g>
<g id="Layer_8">
</g>
<g id="Layer_7">
</g>
<g id="Layer_6">
</g>
<g id="Layer_5">
</g>
<g id="Layer_4">
</g>
<g id="Layer_3">
</g>
<g id="Layer_2">
</g>
</svg>
