<?xml version="1.0" encoding="utf-8"?>
<!-- Generator: Adobe Illustrator 16.0.0, SVG Export Plug-In . SVG Version: 6.00 Build 0)  -->
<!DOCTYPE svg PUBLIC "-//W3C//DTD SVG 1.1//EN" "http://www.w3.org/Graphics/SVG/1.1/DTD/svg11.dtd">
<svg version="1.1" xmlns="http://www.w3.org/2000/svg" xmlns:xlink="http://www.w3.org/1999/xlink" x="0px" y="0px"
	 width="50.315px" height="44px" viewBox="0 0 50.315 44" enable-background="new 0 0 50.315 44" xml:space="preserve">
<g id="Layer_40">
</g>
<g id="Layer_39">
</g>
<g id="Layer_38">
</g>
<g id="Layer_37">
</g>
<g id="Layer_36">
</g>
<g id="Layer_35">
</g>
<g id="Layer_34">
</g>
<g id="Layer_33">
</g>
<g id="Layer_32">
</g>
<g id="Layer_31">
</g>
<g id="Layer_30">
</g>
<g id="Layer_29">
</g>
<g id="Layer_28">
</g>
<g id="Layer_27">
</g>
<g id="Layer_26">
</g>
<g id="Layer_25">
</g>
<g id="Layer_24">
</g>
<g id="Layer_23">
</g>
<g id="Layer_22">
</g>
<g id="Layer_21">
</g>
<g id="Layer_20">
</g>
<g id="Layer_19">
</g>
<g id="Layer_18">
</g>
<g id="Layer_17">
</g>
<g id="Layer_16">
</g>
<g id="Layer_15">
</g>
<g id="Layer_14">
</g>
<g id="Layer_13">
</g>
<g id="Layer_12">
</g>
<g id="Layer_11">
</g>
<g id="Layer_10">
</g>
<g id="Layer_9">
</g>
<g id="Layer_8">
</g>
<g id="Layer_7">
</g>
<g id="Layer_6">
</g>
<g id="Layer_5">
</g>
<g id="Layer_4">
	<path fill="#ED1C24" d="M6.223,39.416C6.223,39.416,8.147,39.416,6.223,39.416c-1.705,0-0.825-1.87-0.825-1.87l18.425-31.9
		c0,0-0.399,0.707,0,0c0.716-1.265,1.65-1.21,2.311-0.055l18.425,31.955c0,0,0.88,1.87-0.825,1.87c-1.925,0,0,0,0,0H6.223z"/>
	<polygon fill="#FFFFFF" points="25.033,13.236 37.353,34.741 12.548,34.741 	"/>
	<path fill="#FFFFFF" d="M24.991,5.973c0.09,0.088,0.249,0.28,0.479,0.687l0.003,0.006c0,0,17.433,30.438,17.694,30.893
		c0.015,0.026,0.031,0.055,0.05,0.086c0.146,0.252,0.237,0.438,0.271,0.555c-0.079,0.022-0.225,0.048-0.472,0.048H24.95H6.968
		c-0.247,0-0.394-0.026-0.473-0.048c0.033-0.117,0.124-0.303,0.271-0.555c0.018-0.031,0.035-0.06,0.05-0.086
		C7.063,37.129,22.538,10.107,24.34,6.962h0.003l0.008-0.014l-0.002-0.002c0.075-0.131,0.126-0.218,0.147-0.258v0.001l0.017-0.03
		c0.001,0,0.001-0.001,0.002-0.002C24.742,6.251,24.901,6.061,24.991,5.973 M24.973,5.174c-0.007,0-0.015,0.001-0.022,0.001v0.003
		c-0.34,0.04-0.686,0.414-1.082,1.119c-0.005,0.009-0.009,0.017-0.014,0.025c0.008-0.015,0.014-0.025,0.014-0.025
		C23.862,6.309,6.436,36.735,6.175,37.191c-0.261,0.455-1.155,1.795,0.793,1.795H24.95h18.065c1.948,0,1.053-1.34,0.792-1.795
		c-0.26-0.456-17.693-30.894-17.693-30.894C25.694,5.55,25.331,5.174,24.973,5.174 M23.698,6.6c0,0,0.003-0.005,0.008-0.015
		C23.701,6.594,23.698,6.6,23.698,6.6"/>
	<path d="M23.539,23.451l-1.777-3.126c0,0,3.596-0.005,3.594-0.005c0,0,5.893,2.733,5.893,8.508v5.349l-1.787-1.788l-1.761,1.76
		l0.014-5.321C27.714,25.253,23.539,23.451,23.539,23.451"/>
	<rect fill="none" width="50.315" height="44"/>
</g>
<g id="Layer_3">
</g>
<g id="Layer_2">
</g>
</svg>
