<?xml version="1.0" encoding="utf-8"?>
<!-- Generator: Adobe Illustrator 16.0.0, SVG Export Plug-In . SVG Version: 6.00 Build 0)  -->
<!DOCTYPE svg PUBLIC "-//W3C//DTD SVG 1.1//EN" "http://www.w3.org/Graphics/SVG/1.1/DTD/svg11.dtd">
<svg version="1.1" xmlns="http://www.w3.org/2000/svg" xmlns:xlink="http://www.w3.org/1999/xlink" x="0px" y="0px"
	 width="50.314px" height="44px" viewBox="0 0 50.314 44" enable-background="new 0 0 50.314 44" xml:space="preserve">
<g id="Layer_40">
</g>
<g id="Layer_39">
</g>
<g id="Layer_38">
</g>
<g id="Layer_37">
</g>
<g id="Layer_36">
</g>
<g id="Layer_35">
</g>
<g id="Layer_34">
</g>
<g id="Layer_33">
</g>
<g id="Layer_32">
</g>
<g id="Layer_31">
	<path fill="#ED1C24" d="M6.472,39.508C6.472,39.508,8.396,39.508,6.472,39.508c-1.705,0-0.825-1.871-0.825-1.871L24.072,5.737
		c0,0-0.4,0.707,0,0c0.715-1.265,1.649-1.21,2.31-0.056l18.425,31.955c0,0,0.88,1.871-0.825,1.871c-1.925,0,0,0,0,0H6.472z"/>
	<polygon fill="#FFFFFF" points="25.282,13.327 37.602,34.832 12.797,34.832 	"/>
	<path fill="#FFFFFF" d="M25.24,6.064c0.091,0.088,0.249,0.279,0.479,0.687l0.002,0.006c0,0,17.433,30.438,17.694,30.894
		c0.015,0.025,0.031,0.055,0.05,0.086c0.147,0.252,0.238,0.438,0.271,0.555c-0.079,0.021-0.225,0.048-0.472,0.048H25.199H7.217
		c-0.247,0-0.394-0.026-0.473-0.048c0.033-0.117,0.124-0.303,0.271-0.555c0.018-0.031,0.035-0.061,0.05-0.086
		c0.246-0.43,15.728-27.459,17.524-30.598l0.002,0.002l0.009-0.015l-0.003-0.002c0.072-0.124,0.12-0.21,0.144-0.252l0.001,0.001
		c0.008-0.014,0.015-0.025,0.021-0.038C24.991,6.343,25.15,6.152,25.24,6.064 M25.222,5.266c-0.008,0-0.015,0.002-0.022,0.002V5.27
		c-0.339,0.041-0.686,0.414-1.082,1.119c-0.005,0.01-0.009,0.018-0.014,0.025c0.008-0.016,0.014-0.025,0.014-0.025
		C24.111,6.4,6.685,36.827,6.425,37.283c-0.261,0.455-1.156,1.795,0.792,1.795h17.982h18.065c1.948,0,1.053-1.34,0.792-1.795
		c-0.26-0.456-17.693-30.895-17.693-30.895C25.943,5.643,25.581,5.266,25.222,5.266 M23.947,6.691c0,0,0.003-0.006,0.009-0.016
		C23.95,6.686,23.947,6.691,23.947,6.691"/>
	<polygon fill="#FFFFFF" points="25.299,13.327 37.618,34.832 12.813,34.832 	"/>
	<path d="M26.118,33.913l-3.484-5.478c0,0-2.797,0-3.524-0.076s-1.455-0.66-1.455-0.842c0-0.193,0.651-0.729,1.378-0.805
		c0.729-0.077,3.64-0.115,3.64-0.115l3.446-5.42h1.149L26.1,23.945v2.682l3.543,0.238l1.034-1.799h0.525v2.258l0.47,0.136v0.172
		l-0.47,0.153v2.26l-0.564-0.039l-0.995-1.781L26.1,28.503l-0.02,2.519l1.188,2.892H26.118z"/>
	<rect fill="none" width="50.314" height="44"/>
</g>
<g id="Layer_30">
</g>
<g id="Layer_29">
</g>
<g id="Layer_28">
</g>
<g id="Layer_27">
</g>
<g id="Layer_26">
</g>
<g id="Layer_25">
</g>
<g id="Layer_24">
</g>
<g id="Layer_23">
</g>
<g id="Layer_22">
</g>
<g id="Layer_21">
</g>
<g id="Layer_20">
</g>
<g id="Layer_19">
</g>
<g id="Layer_18">
</g>
<g id="Layer_17">
</g>
<g id="Layer_16">
</g>
<g id="Layer_15">
</g>
<g id="Layer_14">
</g>
<g id="Layer_13">
</g>
<g id="Layer_12">
</g>
<g id="Layer_11">
</g>
<g id="Layer_10">
</g>
<g id="Layer_9">
</g>
<g id="Layer_8">
</g>
<g id="Layer_7">
</g>
<g id="Layer_6">
</g>
<g id="Layer_5">
</g>
<g id="Layer_4">
</g>
<g id="Layer_3">
</g>
<g id="Layer_2">
</g>
</svg>
