<?xml version="1.0" encoding="utf-8"?>
<!-- Generator: Adobe Illustrator 16.0.0, SVG Export Plug-In . SVG Version: 6.00 Build 0)  -->
<!DOCTYPE svg PUBLIC "-//W3C//DTD SVG 1.1//EN" "http://www.w3.org/Graphics/SVG/1.1/DTD/svg11.dtd">
<svg version="1.1" xmlns="http://www.w3.org/2000/svg" xmlns:xlink="http://www.w3.org/1999/xlink" x="0px" y="0px"
	 width="50.315px" height="44px" viewBox="0 0 50.315 44" enable-background="new 0 0 50.315 44" xml:space="preserve">
<g id="Layer_40">
</g>
<g id="Layer_39">
</g>
<g id="Layer_38">
</g>
<g id="Layer_37">
</g>
<g id="Layer_36">
</g>
<g id="Layer_35">
</g>
<g id="Layer_34">
</g>
<g id="Layer_33">
</g>
<g id="Layer_32">
	<path fill="#ED1C24" d="M6.458,39.548C6.458,39.548,8.384,39.548,6.458,39.548c-1.705,0-0.824-1.87-0.824-1.87L24.059,5.778
		c0,0-0.4,0.707,0,0c0.715-1.265,1.649-1.21,2.31-0.056l18.425,31.955c0,0,0.88,1.87-0.824,1.87c-1.926,0,0,0,0,0H6.458z"/>
	<polygon fill="#FFFFFF" points="25.269,13.368 37.588,34.873 12.783,34.873 	"/>
	<path fill="#FFFFFF" d="M25.227,6.105c0.091,0.088,0.249,0.279,0.479,0.687l0.002,0.006c0,0,17.433,30.438,17.694,30.894
		c0.015,0.025,0.031,0.055,0.05,0.086c0.146,0.252,0.238,0.438,0.271,0.555c-0.079,0.021-0.225,0.048-0.472,0.048H25.187H7.203
		c-0.247,0-0.394-0.026-0.472-0.048c0.032-0.117,0.124-0.303,0.271-0.555c0.019-0.031,0.035-0.061,0.05-0.086
		c0.246-0.43,15.728-27.459,17.524-30.598l0.002,0.001l0.009-0.015l-0.003-0.002c0.072-0.125,0.12-0.209,0.145-0.252l0.001,0.002
		c0.007-0.014,0.014-0.025,0.021-0.039C24.979,6.384,25.137,6.193,25.227,6.105 M25.208,5.307c-0.007,0-0.015,0.001-0.021,0.001
		v0.003c-0.34,0.04-0.687,0.414-1.082,1.119c-0.006,0.01-0.01,0.018-0.015,0.025c0.008-0.016,0.015-0.025,0.015-0.025
		C24.098,6.441,6.671,36.867,6.411,37.324c-0.261,0.455-1.156,1.795,0.792,1.795h17.983h18.064c1.948,0,1.053-1.34,0.792-1.795
		C43.783,36.867,26.35,6.43,26.35,6.43C25.93,5.683,25.567,5.307,25.208,5.307 M23.934,6.732c0,0,0.004-0.006,0.009-0.016
		C23.938,6.727,23.934,6.732,23.934,6.732"/>
	<rect fill="none" width="50.315" height="44"/>
	<rect x="18.627" y="26.5" width="0.771" height="7.975"/>
	<path d="M23.704,28.297c0.35-0.98,1.373-1.918,2.08-2.148c-0.557-0.26-0.897-0.442-1.249-0.551
		c-0.992-0.307-2.114,0.684-2.633,2.139c-0.52,1.455-0.339,2.871,0.652,3.177c0.352,0.108,0.717,0.144,1.355,0.312
		C23.493,30.646,23.355,29.275,23.704,28.297"/>
	<path fill="none" stroke="#000000" stroke-width="0.154" d="M23.704,28.297c0.35-0.98,1.373-1.918,2.08-2.148
		c-0.557-0.26-0.897-0.442-1.249-0.551c-0.992-0.307-2.114,0.684-2.633,2.139c-0.52,1.455-0.339,2.871,0.652,3.177
		c0.352,0.108,0.717,0.144,1.355,0.312C23.493,30.646,23.355,29.275,23.704,28.297z"/>
	<path d="M27.59,29.68c0.304-0.853,1.254-1.74,1.868-1.957c-0.471-0.209-0.782-0.384-1.134-0.492
		c-0.88-0.271-1.967,0.556-2.428,1.848c-0.46,1.292-0.119,2.559,0.761,2.831c0.317,0.099,0.564,0.183,1.143,0.333
		C27.496,31.723,27.302,30.487,27.59,29.68"/>
	<path fill="none" stroke="#000000" stroke-width="0.154" d="M27.59,29.68c0.304-0.853,1.254-1.74,1.868-1.957
		c-0.471-0.209-0.782-0.384-1.134-0.492c-0.88-0.271-1.967,0.556-2.428,1.848c-0.46,1.292-0.119,2.559,0.761,2.831
		c0.317,0.099,0.564,0.183,1.143,0.333C27.496,31.723,27.302,30.487,27.59,29.68z"/>
	<path d="M30.362,32.887c0.433,0.09,1.327,0.254,1.327,0.254c-0.708-0.646-0.539-1.547-0.289-2.25
		c0.238-0.668,0.939-1.437,1.65-1.508c0.115-0.011-0.855-0.451-1.267-0.625c-0.76-0.322-1.712,0.473-2.123,1.629
		C29.249,31.545,29.555,32.719,30.362,32.887"/>
	<path fill="none" stroke="#000000" stroke-width="0.154" d="M30.362,32.887c0.433,0.09,1.327,0.254,1.327,0.254
		c-0.708-0.646-0.539-1.547-0.289-2.25c0.238-0.668,0.939-1.437,1.65-1.508c0.115-0.011-0.855-0.451-1.267-0.625
		c-0.76-0.322-1.712,0.473-2.123,1.629C29.249,31.545,29.555,32.719,30.362,32.887z"/>
	<path fill="#FFFFFF" d="M31.992,33.339c0.729,0.226,1.629-0.46,2.011-1.53c0.381-1.07,0.099-2.119-0.63-2.345
		c-0.729-0.226-1.63,0.46-2.011,1.53S31.263,33.113,31.992,33.339"/>
	<path fill="none" stroke="#000000" stroke-width="0.22" d="M31.992,33.339c0.729,0.226,1.629-0.46,2.011-1.53
		c0.381-1.07,0.099-2.119-0.63-2.345c-0.729-0.226-1.63,0.46-2.011,1.53S31.263,33.113,31.992,33.339z"/>
	<polyline fill="none" stroke="#000000" stroke-width="0.22" points="33.373,29.464 24.301,25.428 19.122,26.665 22.037,30.734 
		31.992,33.339 	"/>
	<rect fill="none" width="50.315" height="44"/>
</g>
<g id="Layer_31">
</g>
<g id="Layer_30">
</g>
<g id="Layer_29">
</g>
<g id="Layer_28">
</g>
<g id="Layer_27">
</g>
<g id="Layer_26">
</g>
<g id="Layer_25">
</g>
<g id="Layer_24">
</g>
<g id="Layer_23">
</g>
<g id="Layer_22">
</g>
<g id="Layer_21">
</g>
<g id="Layer_20">
</g>
<g id="Layer_19">
</g>
<g id="Layer_18">
</g>
<g id="Layer_17">
</g>
<g id="Layer_16">
</g>
<g id="Layer_15">
</g>
<g id="Layer_14">
</g>
<g id="Layer_13">
</g>
<g id="Layer_12">
</g>
<g id="Layer_11">
</g>
<g id="Layer_10">
</g>
<g id="Layer_9">
</g>
<g id="Layer_8">
</g>
<g id="Layer_7">
</g>
<g id="Layer_6">
</g>
<g id="Layer_5">
</g>
<g id="Layer_4">
</g>
<g id="Layer_3">
</g>
<g id="Layer_2">
</g>
</svg>
