<?xml version="1.0" encoding="utf-8"?>
<!-- Generator: Adobe Illustrator 16.0.0, SVG Export Plug-In . SVG Version: 6.00 Build 0)  -->
<!DOCTYPE svg PUBLIC "-//W3C//DTD SVG 1.1//EN" "http://www.w3.org/Graphics/SVG/1.1/DTD/svg11.dtd">
<svg version="1.1" xmlns="http://www.w3.org/2000/svg" xmlns:xlink="http://www.w3.org/1999/xlink" x="0px" y="0px"
	 width="50.314px" height="44px" viewBox="0 0 50.314 44" enable-background="new 0 0 50.314 44" xml:space="preserve">
<g id="Layer_40">
</g>
<g id="Layer_39">
</g>
<g id="Layer_38">
</g>
<g id="Layer_37">
</g>
<g id="Layer_36">
</g>
<g id="Layer_35">
</g>
<g id="Layer_34">
</g>
<g id="Layer_33">
	<path fill="#ED1C24" d="M6.233,39.514C6.233,39.514,8.158,39.514,6.233,39.514c-1.705,0-0.825-1.87-0.825-1.87L23.834,5.744
		c0,0-0.4,0.707,0,0c0.715-1.266,1.649-1.211,2.31-0.056l18.425,31.955c0,0,0.881,1.87-0.824,1.87c-1.926,0,0,0,0,0H6.233z"/>
	<polygon fill="#FFFFFF" points="25.043,13.334 37.363,34.839 12.559,34.839 	"/>
	<path fill="#FFFFFF" d="M25.002,6.07c0.09,0.088,0.249,0.28,0.479,0.687l0.002,0.006c0,0,17.433,30.438,17.694,30.894
		c0.015,0.026,0.031,0.055,0.049,0.086c0.147,0.252,0.238,0.438,0.271,0.555c-0.078,0.022-0.225,0.049-0.472,0.049H24.961H6.979
		c-0.247,0-0.394-0.026-0.473-0.049c0.033-0.116,0.125-0.303,0.271-0.555c0.018-0.031,0.035-0.06,0.05-0.086
		C7.073,37.228,22.555,10.197,24.352,7.06l0.002,0.001l0.009-0.015l-0.003-0.002c0.072-0.125,0.119-0.21,0.145-0.252v0.001
		c0.008-0.013,0.014-0.024,0.021-0.038C24.754,6.35,24.912,6.158,25.002,6.07 M24.983,5.272c-0.007,0-0.015,0.001-0.022,0.001v0.003
		c-0.34,0.04-0.686,0.414-1.082,1.119c-0.005,0.009-0.009,0.017-0.014,0.024c0.008-0.015,0.014-0.024,0.014-0.024
		C23.873,6.406,6.446,36.833,6.186,37.289c-0.26,0.455-1.155,1.795,0.793,1.795h17.982h18.065c1.948,0,1.053-1.34,0.792-1.795
		c-0.26-0.456-17.693-30.894-17.693-30.894C25.705,5.648,25.342,5.272,24.983,5.272 M23.709,6.697c0,0,0.004-0.005,0.008-0.015
		C23.713,6.692,23.709,6.697,23.709,6.697"/>
	<path d="M25.096,33.59c1.551,0,2.807-1.256,2.807-2.806v-9.666c0-1.55-1.256-2.808-2.807-2.808c-1.55,0-2.806,1.258-2.806,2.808
		v9.666C22.29,32.334,23.546,33.59,25.096,33.59"/>
	<path fill="#FFDD00" d="M25.105,28.002c1.113,0,2.017-0.903,2.017-2.018c0-1.113-0.903-2.016-2.017-2.016
		c-1.114,0-2.018,0.902-2.018,2.016C23.088,27.099,23.991,28.002,25.105,28.002"/>
	<path fill="#ED1C24" d="M25.105,23.248c1.113,0,2.017-0.903,2.017-2.018c0-1.112-0.903-2.016-2.017-2.016
		c-1.114,0-2.018,0.903-2.018,2.016C23.088,22.345,23.991,23.248,25.105,23.248"/>
	<path fill="#91A93E" d="M25.105,32.652c1.113,0,2.017-0.902,2.017-2.017c0-1.113-0.903-2.016-2.017-2.016
		c-1.114,0-2.018,0.902-2.018,2.016C23.088,31.75,23.991,32.652,25.105,32.652"/>
	<rect fill="none" width="50.314" height="44"/>
</g>
<g id="Layer_32">
</g>
<g id="Layer_31">
</g>
<g id="Layer_30">
</g>
<g id="Layer_29">
</g>
<g id="Layer_28">
</g>
<g id="Layer_27">
</g>
<g id="Layer_26">
</g>
<g id="Layer_25">
</g>
<g id="Layer_24">
</g>
<g id="Layer_23">
</g>
<g id="Layer_22">
</g>
<g id="Layer_21">
</g>
<g id="Layer_20">
</g>
<g id="Layer_19">
</g>
<g id="Layer_18">
</g>
<g id="Layer_17">
</g>
<g id="Layer_16">
</g>
<g id="Layer_15">
</g>
<g id="Layer_14">
</g>
<g id="Layer_13">
</g>
<g id="Layer_12">
</g>
<g id="Layer_11">
</g>
<g id="Layer_10">
</g>
<g id="Layer_9">
</g>
<g id="Layer_8">
</g>
<g id="Layer_7">
</g>
<g id="Layer_6">
</g>
<g id="Layer_5">
</g>
<g id="Layer_4">
</g>
<g id="Layer_3">
</g>
<g id="Layer_2">
</g>
</svg>
