<?xml version="1.0" encoding="utf-8"?>
<!-- Generator: Adobe Illustrator 16.0.0, SVG Export Plug-In . SVG Version: 6.00 Build 0)  -->
<!DOCTYPE svg PUBLIC "-//W3C//DTD SVG 1.1//EN" "http://www.w3.org/Graphics/SVG/1.1/DTD/svg11.dtd">
<svg version="1.1" xmlns="http://www.w3.org/2000/svg" xmlns:xlink="http://www.w3.org/1999/xlink" x="0px" y="0px"
	 width="50.314px" height="44px" viewBox="0 0 50.314 44" enable-background="new 0 0 50.314 44" xml:space="preserve">
<g id="Layer_40">
</g>
<g id="Layer_39">
</g>
<g id="Layer_38">
</g>
<g id="Layer_37">
</g>
<g id="Layer_36">
</g>
<g id="Layer_35">
</g>
<g id="Layer_34">
	<path fill="#ED1C24" d="M6.589,39.287C6.589,39.287,8.514,39.287,6.589,39.287c-1.705,0-0.825-1.869-0.825-1.869l18.425-31.9
		c0,0-0.399,0.707,0,0c0.716-1.265,1.65-1.21,2.31-0.055l18.426,31.955c0,0,0.88,1.869-0.825,1.869c-1.925,0,0,0,0,0H6.589z"/>
	<polygon fill="#FFFFFF" points="25.398,13.107 37.719,34.612 12.914,34.612 	"/>
	<path fill="#FFFFFF" d="M25.357,5.845c0.09,0.088,0.249,0.279,0.479,0.687l0.002,0.006c0,0,17.434,30.438,17.694,30.894
		c0.015,0.025,0.032,0.055,0.05,0.086c0.147,0.252,0.238,0.438,0.271,0.555c-0.08,0.022-0.225,0.048-0.473,0.048H25.316H7.334
		c-0.248,0-0.394-0.025-0.473-0.048c0.033-0.117,0.124-0.303,0.271-0.555c0.018-0.031,0.035-0.061,0.049-0.086
		c0.246-0.43,15.728-27.459,17.525-30.598l0.002,0.001l0.008-0.014l-0.002-0.002c0.071-0.125,0.119-0.21,0.144-0.252l0.001,0.001
		c0.007-0.013,0.014-0.025,0.021-0.038C25.108,6.123,25.268,5.933,25.357,5.845 M25.338,5.046c-0.006,0-0.015,0.001-0.021,0.001
		v0.004c-0.34,0.039-0.686,0.413-1.082,1.118c-0.005,0.01-0.009,0.018-0.014,0.025c0.008-0.015,0.014-0.025,0.014-0.025
		C24.229,6.181,6.801,36.607,6.541,37.063c-0.261,0.455-1.156,1.795,0.793,1.795h17.982h18.064c1.948,0,1.054-1.34,0.793-1.795
		C43.914,36.607,26.48,6.169,26.48,6.169C26.061,5.422,25.697,5.046,25.338,5.046 M24.064,6.472c0,0,0.003-0.006,0.008-0.016
		C24.067,6.466,24.064,6.472,24.064,6.472"/>
	<path fill="#FFFFFF" d="M23.756,25.853l1.766,0.004l-0.002,0.821c0,0.161,0.114,0.154,0.114,0.154l0.533,0.001
		c0,0,0.116,0.007,0.116-0.153l0.002-0.822l0.051,0.001l0.359-0.41l0.004-1.31l-0.359-0.271l-0.518-1.316
		c-1.16-0.156-2.065-0.171-2.065-0.165c0-0.006-0.905,0.005-2.067,0.156l-0.522,1.314l-0.36,0.27l-0.002,1.309l0.358,0.412h0.051
		l-0.001,0.821c-0.001,0.16,0.115,0.153,0.115,0.153l0.533,0.002c0,0,0.115,0.006,0.115-0.153l0.002-0.822l1.765,0.004H23.756z"/>
	<path d="M23.756,25.781l1.663,0.004l-0.003,0.773c0,0.151,0.109,0.146,0.109,0.146l0.502,0.001c0,0,0.109,0.006,0.109-0.146
		l0.002-0.773h0.048l0.341-0.387l0.002-1.233l-0.338-0.255l-0.488-1.24c-1.094-0.148-1.946-0.162-1.946-0.156
		c0-0.006-0.853,0.004-1.948,0.147L21.316,23.9l-0.339,0.253l-0.003,1.234l0.338,0.388h0.049l-0.002,0.774
		c0,0.151,0.108,0.145,0.108,0.145l0.502,0.001c0,0,0.108,0.008,0.108-0.144l0.002-0.775l1.664,0.005H23.756z"/>
	<path fill="#FFFFFF" d="M23.754,23.821c0-0.006,1.434,0.039,2.135,0.095l0.006-0.002l-0.373-0.947
		c-1.094-0.147-1.766-0.161-1.766-0.155c0-0.006-0.671,0.004-1.766,0.146l-0.377,0.947l0.006,0.002
		C22.32,23.854,23.754,23.815,23.754,23.821"/>
	
		<rect x="21.079" y="24.705" transform="matrix(0.0265 0.9996 -0.9996 0.0265 45.6152 2.72)" fill="#FFFFFF" width="0.664" height="0.148"/>
	
		<rect x="25.75" y="24.763" transform="matrix(0.0235 0.9997 -0.9997 0.0235 50.2985 -1.8221)" fill="#FFFFFF" width="0.664" height="0.148"/>
	<path fill="#FFFFFF" d="M26.451,28.589l2.06,0.005l-0.002,0.959c-0.001,0.187,0.134,0.18,0.134,0.18l0.621,0.001
		c0,0,0.135,0.008,0.135-0.179l0.002-0.959l0.061,0.001l0.421-0.479l0.003-1.527l-0.419-0.314l-0.603-1.536
		c-1.354-0.183-2.41-0.2-2.41-0.192c0-0.008-1.056,0.006-2.412,0.183l-0.608,1.533l-0.42,0.313l-0.003,1.528l0.418,0.479h0.061
		l-0.002,0.958c-0.002,0.188,0.133,0.181,0.133,0.181l0.621,0.001c0,0,0.135,0.008,0.135-0.18l0.002-0.958l2.06,0.004H26.451z"/>
	<path d="M26.451,28.506l1.94,0.004l-0.002,0.903c0,0.176,0.127,0.17,0.127,0.17l0.585,0.001c0,0,0.127,0.007,0.127-0.169
		l0.002-0.903h0.057l0.396-0.451l0.003-1.438l-0.396-0.298l-0.567-1.446c-1.276-0.172-2.271-0.188-2.271-0.182
		c0-0.007-0.996,0.006-2.272,0.172l-0.574,1.444l-0.396,0.296l-0.004,1.439l0.395,0.452h0.057l-0.002,0.902
		c-0.001,0.177,0.126,0.169,0.126,0.169l0.587,0.002c0,0,0.127,0.008,0.127-0.169l0.002-0.902l1.939,0.004H26.451z"/>
	<path fill="#FFFFFF" d="M26.449,26.22c0-0.007,1.672,0.047,2.49,0.111l0.006-0.002l-0.434-1.105
		c-1.276-0.173-2.061-0.188-2.061-0.182c0-0.007-0.783,0.005-2.061,0.172l-0.438,1.104l0.007,0.003
		C24.777,26.259,26.449,26.213,26.449,26.22"/>
	
		<rect x="23.329" y="27.252" transform="matrix(0.0252 0.9997 -0.9997 0.0252 50.448 2.9394)" fill="#FFFFFF" width="0.775" height="0.172"/>
	
		<rect x="28.778" y="27.429" transform="matrix(0.0265 0.9996 -0.9996 0.0265 55.8989 -2.3686)" fill="#FFFFFF" width="0.775" height="0.172"/>
	<path fill="#FFFFFF" d="M29.313,32.109l2.527,0.006l-0.002,1.176c-0.001,0.23,0.165,0.222,0.165,0.222l0.763,0.001
		c0,0,0.165,0.01,0.166-0.221l0.002-1.176h0.074l0.516-0.587l0.004-1.875l-0.514-0.387l-0.74-1.886
		c-1.664-0.225-2.959-0.245-2.959-0.236c0-0.009-1.297,0.006-2.961,0.223l-0.748,1.883l-0.515,0.386l-0.004,1.875l0.513,0.589h0.074
		l-0.003,1.177c-0.001,0.229,0.165,0.221,0.165,0.221l0.763,0.001c0,0,0.165,0.011,0.166-0.22l0.002-1.176l2.528,0.005H29.313z"/>
	<path d="M29.313,32.007l2.382,0.005l-0.003,1.109c0,0.216,0.156,0.208,0.156,0.208l0.718,0.001c0,0,0.156,0.009,0.157-0.207
		l0.002-1.109h0.07l0.485-0.553l0.003-1.768l-0.484-0.363l-0.697-1.777c-1.566-0.211-2.788-0.23-2.788-0.223
		c0-0.008-1.222,0.006-2.789,0.211l-0.705,1.773l-0.485,0.362l-0.004,1.767L25.813,32h0.069l-0.002,1.107
		c0,0.218,0.156,0.208,0.156,0.208l0.717,0.002c0,0,0.156,0.01,0.158-0.208l0.002-1.107l2.381,0.005H29.313z"/>
	<path fill="#FFFFFF" d="M29.311,29.201c0-0.01,2.051,0.056,3.057,0.136l0.008-0.003l-0.534-1.357
		c-1.567-0.212-2.528-0.23-2.528-0.222c0-0.009-0.961,0.006-2.529,0.211l-0.539,1.354l0.009,0.003
		C27.257,29.249,29.311,29.191,29.311,29.201"/>
	<polygon fill="#FFFFFF" points="30.189,30.955 30.174,30.544 28.378,30.557 28.395,30.968 	"/>
	
		<rect x="25.479" y="30.467" transform="matrix(0.0257 0.9997 -0.9997 0.0257 55.8506 3.8415)" fill="#FFFFFF" width="0.951" height="0.211"/>
	
		<rect x="32.168" y="30.55" transform="matrix(0.0257 0.9997 -0.9997 0.0257 62.4516 -2.7646)" fill="#FFFFFF" width="0.951" height="0.211"/>
	<rect fill="none" width="50.314" height="44"/>
</g>
<g id="Layer_33">
</g>
<g id="Layer_32">
</g>
<g id="Layer_31">
</g>
<g id="Layer_30">
</g>
<g id="Layer_29">
</g>
<g id="Layer_28">
</g>
<g id="Layer_27">
</g>
<g id="Layer_26">
</g>
<g id="Layer_25">
</g>
<g id="Layer_24">
</g>
<g id="Layer_23">
</g>
<g id="Layer_22">
</g>
<g id="Layer_21">
</g>
<g id="Layer_20">
</g>
<g id="Layer_19">
</g>
<g id="Layer_18">
</g>
<g id="Layer_17">
</g>
<g id="Layer_16">
</g>
<g id="Layer_15">
</g>
<g id="Layer_14">
</g>
<g id="Layer_13">
</g>
<g id="Layer_12">
</g>
<g id="Layer_11">
</g>
<g id="Layer_10">
</g>
<g id="Layer_9">
</g>
<g id="Layer_8">
</g>
<g id="Layer_7">
</g>
<g id="Layer_6">
</g>
<g id="Layer_5">
</g>
<g id="Layer_4">
</g>
<g id="Layer_3">
</g>
<g id="Layer_2">
</g>
</svg>
