<?xml version="1.0" encoding="utf-8"?>
<!-- Generator: Adobe Illustrator 16.0.0, SVG Export Plug-In . SVG Version: 6.00 Build 0)  -->
<!DOCTYPE svg PUBLIC "-//W3C//DTD SVG 1.1//EN" "http://www.w3.org/Graphics/SVG/1.1/DTD/svg11.dtd">
<svg version="1.1" xmlns="http://www.w3.org/2000/svg" xmlns:xlink="http://www.w3.org/1999/xlink" x="0px" y="0px"
	 width="50.314px" height="44px" viewBox="0 0 50.314 44" enable-background="new 0 0 50.314 44" xml:space="preserve">
<g id="Layer_40">
</g>
<g id="Layer_39">
</g>
<g id="Layer_38">
</g>
<g id="Layer_37">
</g>
<g id="Layer_36">
</g>
<g id="Layer_35">
	<path fill="#ED1C24" d="M6.414,39.307C6.414,39.307,8.339,39.307,6.414,39.307c-1.705,0-0.825-1.87-0.825-1.87l18.425-31.9
		c0,0-0.399,0.707,0,0c0.716-1.265,1.65-1.21,2.311-0.055l18.425,31.955c0,0,0.88,1.87-0.825,1.87c-1.925,0,0,0,0,0H6.414z"/>
	<polygon fill="#FFFFFF" points="25.224,13.127 37.544,34.632 12.739,34.632 	"/>
	<path fill="#FFFFFF" d="M25.183,5.863c0.09,0.088,0.249,0.28,0.479,0.687l0.002,0.007c0,0,17.433,30.438,17.693,30.893
		c0.016,0.027,0.032,0.055,0.051,0.086c0.146,0.252,0.237,0.438,0.271,0.555c-0.079,0.022-0.225,0.049-0.472,0.049H25.142H7.159
		c-0.247,0-0.394-0.026-0.473-0.049c0.033-0.116,0.124-0.303,0.271-0.555c0.018-0.031,0.035-0.059,0.05-0.086
		C7.254,37.021,22.735,9.99,24.532,6.853l0.002,0.001l0.009-0.015L24.54,6.837c0.072-0.125,0.12-0.21,0.144-0.252l0.001,0.001
		c0.008-0.013,0.015-0.024,0.021-0.038C24.934,6.143,25.093,5.951,25.183,5.863 M25.164,5.065c-0.007,0-0.016,0.001-0.022,0.001
		v0.003c-0.339,0.04-0.686,0.414-1.082,1.119c-0.005,0.009-0.009,0.017-0.014,0.024c0.008-0.015,0.014-0.024,0.014-0.024
		C24.054,6.199,6.627,36.626,6.367,37.082c-0.262,0.455-1.156,1.796,0.792,1.796h17.982h18.065c1.948,0,1.053-1.341,0.792-1.796
		c-0.26-0.456-17.693-30.894-17.693-30.894C25.886,5.441,25.522,5.065,25.164,5.065 M23.89,6.49c0,0,0.003-0.005,0.008-0.015
		C23.893,6.485,23.89,6.49,23.89,6.49"/>
	<rect fill="none" width="50.314" height="44"/>
	<rect x="17.111" y="32.644" width="16.5" height="0.66"/>
	<path d="M27.216,27.584l1.156-3.109l1.448,0.537c0.282,0.105,0.347-0.102,0.347-0.102l0.35-0.939c0,0,0.087-0.198-0.196-0.305
		l-1.448-0.538l0.034-0.091l-0.488-0.902l-2.307-0.857L25.4,21.733l-2.659,0.054c-1.033,1.946-1.648,3.532-1.637,3.537
		c-0.012-0.005-0.582,1.598-1.072,3.747l1.978,1.778l0.239,0.81l2.308,0.858l0.959-0.364l0.034-0.09l1.447,0.538
		c0.283,0.104,0.348-0.103,0.348-0.103l0.349-0.938c0,0,0.087-0.2-0.196-0.306l-1.446-0.538l1.156-3.109L27.216,27.584z"/>
	<path fill="#FFFFFF" d="M23.547,26.232c-0.011-0.004,1.064-2.655,1.655-3.929l-0.001-0.013l-2.032,0.041
		c-1.032,1.946-1.522,3.193-1.511,3.197c-0.012-0.004-0.455,1.26-0.945,3.408l1.511,1.359l0.008-0.01
		C22.618,28.938,23.536,26.229,23.547,26.232"/>
	<path fill="#FFFFFF" d="M26.734,24.309l0.647-1.742c0.069-0.186-0.118-0.269-0.118-0.269l-0.899-0.335c0,0-0.196-0.06-0.266,0.127
		l-0.536,1.442c-0.07,0.186,0.036,0.301,0.083,0.346c0.076,0.073,0.82,0.563,0.82,0.563C26.647,24.508,26.734,24.309,26.734,24.309"
		/>
	<path fill="#FFFFFF" d="M24.702,29.771l-0.647,1.742c-0.069,0.186-0.267,0.126-0.267,0.126l-0.898-0.334
		c0,0-0.188-0.083-0.119-0.271l0.537-1.441c0.068-0.187,0.224-0.204,0.29-0.207c0.104-0.006,0.987,0.109,0.987,0.109
		C24.767,29.563,24.702,29.771,24.702,29.771"/>
	<rect fill="none" width="50.314" height="44"/>
</g>
<g id="Layer_34">
</g>
<g id="Layer_33">
</g>
<g id="Layer_32">
</g>
<g id="Layer_31">
</g>
<g id="Layer_30">
</g>
<g id="Layer_29">
</g>
<g id="Layer_28">
</g>
<g id="Layer_27">
</g>
<g id="Layer_26">
</g>
<g id="Layer_25">
</g>
<g id="Layer_24">
</g>
<g id="Layer_23">
</g>
<g id="Layer_22">
</g>
<g id="Layer_21">
</g>
<g id="Layer_20">
</g>
<g id="Layer_19">
</g>
<g id="Layer_18">
</g>
<g id="Layer_17">
</g>
<g id="Layer_16">
</g>
<g id="Layer_15">
</g>
<g id="Layer_14">
</g>
<g id="Layer_13">
</g>
<g id="Layer_12">
</g>
<g id="Layer_11">
</g>
<g id="Layer_10">
</g>
<g id="Layer_9">
</g>
<g id="Layer_8">
</g>
<g id="Layer_7">
</g>
<g id="Layer_6">
</g>
<g id="Layer_5">
</g>
<g id="Layer_4">
</g>
<g id="Layer_3">
</g>
<g id="Layer_2">
</g>
</svg>
