<?xml version="1.0" encoding="utf-8"?>
<!-- Generator: Adobe Illustrator 16.0.0, SVG Export Plug-In . SVG Version: 6.00 Build 0)  -->
<!DOCTYPE svg PUBLIC "-//W3C//DTD SVG 1.1//EN" "http://www.w3.org/Graphics/SVG/1.1/DTD/svg11.dtd">
<svg version="1.1" xmlns="http://www.w3.org/2000/svg" xmlns:xlink="http://www.w3.org/1999/xlink" x="0px" y="0px"
	 width="50.315px" height="44px" viewBox="0 0 50.315 44" enable-background="new 0 0 50.315 44" xml:space="preserve">
<g id="Layer_40">
</g>
<g id="Layer_39">
</g>
<g id="Layer_38">
</g>
<g id="Layer_37">
</g>
<g id="Layer_36">
	<path fill="#ED1C24" d="M6.32,39.435C6.32,39.435,8.245,39.435,6.32,39.435c-1.705,0-0.825-1.87-0.825-1.87L23.921,5.665
		c0,0-0.4,0.707,0,0c0.715-1.266,1.649-1.21,2.31-0.056l18.425,31.955c0,0,0.88,1.87-0.825,1.87c-1.925,0,0,0,0,0H6.32z"/>
	<polygon fill="#FFFFFF" points="25.131,13.255 37.45,34.76 12.646,34.76 	"/>
	<path fill="#FFFFFF" d="M25.089,5.991c0.091,0.088,0.249,0.28,0.479,0.688l0.002,0.006c0,0,17.433,30.438,17.694,30.893
		c0.015,0.026,0.031,0.056,0.05,0.086c0.146,0.252,0.237,0.438,0.271,0.556c-0.079,0.021-0.225,0.048-0.472,0.048H25.048H7.065
		c-0.247,0-0.394-0.026-0.473-0.048c0.033-0.117,0.124-0.304,0.271-0.556c0.018-0.03,0.035-0.06,0.05-0.086
		C7.16,37.148,22.642,10.118,24.438,6.98l0.002,0.001l0.009-0.014l-0.003-0.002c0.072-0.125,0.12-0.21,0.144-0.253l0.001,0.002
		c0.008-0.014,0.015-0.025,0.021-0.038C24.84,6.271,24.999,6.079,25.089,5.991 M25.07,5.193c-0.007,0-0.015,0.001-0.022,0.001v0.003
		c-0.34,0.04-0.686,0.414-1.082,1.119c-0.005,0.009-0.009,0.017-0.014,0.025c0.008-0.016,0.014-0.025,0.014-0.025
		C23.96,6.327,6.533,36.754,6.273,37.21c-0.261,0.455-1.156,1.796,0.792,1.796h17.982h18.065c1.948,0,1.053-1.341,0.792-1.796
		c-0.26-0.456-17.693-30.894-17.693-30.894C25.792,5.569,25.43,5.193,25.07,5.193 M23.796,6.618c0,0,0.003-0.005,0.009-0.015
		C23.799,6.613,23.796,6.618,23.796,6.618"/>
	<path d="M24.86,31.928l3.221-0.01l0.004,1.499c0.001,0.293,0.212,0.28,0.212,0.28l0.972-0.003c0,0,0.211,0.011,0.21-0.281
		l-0.005-1.499h0.094l0.653-0.752l-0.007-2.388l-0.657-0.49l-0.956-2.397c-2.12-0.274-3.771-0.293-3.771-0.281
		c0-0.012-1.651,0.017-3.77,0.304l-0.94,2.404l-0.655,0.493l0.008,2.389l0.658,0.747h0.093l0.005,1.499
		c0.001,0.293,0.211,0.279,0.211,0.279l0.973-0.003c0,0,0.211,0.012,0.21-0.28l-0.004-1.499l3.22-0.011H24.86z"/>
	<path fill="#FFFFFF" d="M24.838,28.135c0-0.012,2.774,0.062,4.134,0.163l0.01-0.004l-0.73-1.832
		c-2.119-0.275-3.42-0.294-3.42-0.282c0-0.012-1.3,0.015-3.418,0.303l-0.719,1.836l0.01,0.004
		C22.063,28.214,24.838,28.123,24.838,28.135"/>
	<path fill="#FFFFFF" d="M27.672,30.374l1.803-0.005c0.193-0.001,0.204-0.2,0.204-0.2l-0.002-0.931c0,0-0.013-0.199-0.206-0.198
		l-1.492,0.004c-0.193,0.001-0.262,0.136-0.286,0.194c-0.041,0.094-0.231,0.938-0.231,0.938
		C27.461,30.363,27.672,30.374,27.672,30.374"/>
	<path fill="#FFFFFF" d="M22.017,30.392l-1.803,0.005c-0.193,0.001-0.206-0.198-0.206-0.198l-0.002-0.931c0,0,0.011-0.199,0.204-0.2
		l1.492-0.004c0.193-0.001,0.263,0.134,0.287,0.191c0.041,0.095,0.237,0.937,0.237,0.937C22.228,30.379,22.017,30.392,22.017,30.392
		"/>
	<path d="M33.738,31.022c-0.15,0-0.272,0.122-0.272,0.272s0.122,0.271,0.272,0.271c0.149,0,0.271-0.121,0.271-0.271
		S33.888,31.022,33.738,31.022"/>
	<path d="M33.271,30.156c-0.15,0-0.272,0.122-0.272,0.272S33.12,30.7,33.271,30.7s0.271-0.121,0.271-0.271
		S33.421,30.156,33.271,30.156"/>
	<path d="M32.803,29.29c-0.149,0-0.271,0.122-0.271,0.271c0,0.151,0.122,0.272,0.271,0.272c0.15,0,0.272-0.121,0.272-0.272
		C33.075,29.412,32.953,29.29,32.803,29.29"/>
	<path d="M30.272,26.567c-0.149,0-0.271,0.122-0.271,0.272s0.122,0.271,0.271,0.271c0.15,0,0.272-0.121,0.272-0.271
		S30.423,26.567,30.272,26.567"/>
	<path d="M29.806,25.701c-0.15,0-0.272,0.122-0.272,0.272s0.122,0.271,0.272,0.271c0.149,0,0.271-0.121,0.271-0.271
		S29.955,25.701,29.806,25.701"/>
	<path d="M29.338,24.835c-0.15,0-0.271,0.122-0.271,0.272s0.121,0.271,0.271,0.271s0.272-0.121,0.272-0.271
		S29.488,24.835,29.338,24.835"/>
	<path d="M28.513,20.188c-0.149,0-0.271,0.122-0.271,0.272s0.122,0.272,0.271,0.272c0.15,0,0.272-0.122,0.272-0.272
		S28.663,20.188,28.513,20.188"/>
	<path d="M28.046,19.321c-0.15,0-0.272,0.122-0.272,0.271c0,0.151,0.122,0.272,0.272,0.272c0.149,0,0.271-0.121,0.271-0.272
		C28.317,19.443,28.195,19.321,28.046,19.321"/>
	<path d="M27.578,18.455c-0.15,0-0.272,0.122-0.272,0.271c0,0.151,0.122,0.272,0.272,0.272c0.149,0,0.271-0.121,0.271-0.272
		C27.85,18.577,27.728,18.455,27.578,18.455"/>
	<path d="M27.578,24.037c-0.15,0-0.272,0.122-0.272,0.272c0,0.151,0.122,0.271,0.272,0.271c0.149,0,0.271-0.12,0.271-0.271
		C27.85,24.159,27.728,24.037,27.578,24.037"/>
	<path d="M27.11,23.171c-0.15,0-0.271,0.122-0.271,0.272s0.121,0.272,0.271,0.272s0.272-0.122,0.272-0.272
		S27.261,23.171,27.11,23.171"/>
	<path d="M26.643,22.305c-0.149,0-0.271,0.122-0.271,0.272s0.122,0.271,0.271,0.271c0.15,0,0.272-0.121,0.272-0.271
		S26.793,22.305,26.643,22.305"/>
	<path d="M24.608,20.353c-0.15,0-0.272,0.122-0.272,0.271c0,0.151,0.122,0.272,0.272,0.272c0.149,0,0.271-0.121,0.271-0.272
		C24.88,20.475,24.758,20.353,24.608,20.353"/>
	<path d="M24.141,19.486c-0.15,0-0.272,0.122-0.272,0.271c0,0.151,0.122,0.272,0.272,0.272c0.149,0,0.271-0.121,0.271-0.272
		C24.412,19.608,24.29,19.486,24.141,19.486"/>
	<path d="M23.673,18.62c-0.15,0-0.271,0.122-0.271,0.271c0,0.151,0.121,0.272,0.271,0.272s0.272-0.121,0.272-0.272
		C23.945,18.742,23.823,18.62,23.673,18.62"/>
	<path d="M23.013,23.982c-0.149,0-0.271,0.122-0.271,0.272s0.122,0.272,0.271,0.272c0.15,0,0.272-0.122,0.272-0.272
		S23.163,23.982,23.013,23.982"/>
	<path d="M22.546,23.116c-0.15,0-0.272,0.122-0.272,0.272s0.122,0.271,0.272,0.271c0.149,0,0.271-0.121,0.271-0.271
		S22.695,23.116,22.546,23.116"/>
	<path d="M22.078,22.25c-0.15,0-0.272,0.122-0.272,0.272s0.122,0.272,0.272,0.272c0.149,0,0.271-0.122,0.271-0.272
		S22.228,22.25,22.078,22.25"/>
	<path d="M19.493,27.558c-0.15,0-0.272,0.122-0.272,0.271c0,0.151,0.122,0.272,0.272,0.272c0.149,0,0.271-0.121,0.271-0.272
		C19.765,27.68,19.643,27.558,19.493,27.558"/>
	<path d="M19.025,26.691c-0.15,0-0.271,0.122-0.271,0.271c0,0.151,0.121,0.272,0.271,0.272s0.272-0.121,0.272-0.272
		C19.298,26.813,19.176,26.691,19.025,26.691"/>
	<path d="M18.558,25.825c-0.149,0-0.271,0.122-0.271,0.271c0,0.151,0.122,0.272,0.271,0.272c0.15,0,0.272-0.121,0.272-0.272
		C18.83,25.947,18.708,25.825,18.558,25.825"/>
	<path d="M17.458,32.013c-0.15,0-0.272,0.122-0.272,0.271c0,0.151,0.122,0.272,0.272,0.272s0.271-0.121,0.271-0.272
		C17.729,32.135,17.608,32.013,17.458,32.013"/>
	<path d="M16.99,31.146c-0.149,0-0.271,0.122-0.271,0.271c0,0.151,0.122,0.272,0.271,0.272c0.15,0,0.272-0.121,0.272-0.272
		C17.263,31.269,17.141,31.146,16.99,31.146"/>
	<path d="M16.522,30.28c-0.149,0-0.271,0.122-0.271,0.271c0,0.151,0.122,0.272,0.271,0.272c0.15,0,0.272-0.121,0.272-0.272
		C16.795,30.402,16.673,30.28,16.522,30.28"/>
	<rect fill="none" width="50.315" height="44"/>
</g>
<g id="Layer_35">
</g>
<g id="Layer_34">
</g>
<g id="Layer_33">
</g>
<g id="Layer_32">
</g>
<g id="Layer_31">
</g>
<g id="Layer_30">
</g>
<g id="Layer_29">
</g>
<g id="Layer_28">
</g>
<g id="Layer_27">
</g>
<g id="Layer_26">
</g>
<g id="Layer_25">
</g>
<g id="Layer_24">
</g>
<g id="Layer_23">
</g>
<g id="Layer_22">
</g>
<g id="Layer_21">
</g>
<g id="Layer_20">
</g>
<g id="Layer_19">
</g>
<g id="Layer_18">
</g>
<g id="Layer_17">
</g>
<g id="Layer_16">
</g>
<g id="Layer_15">
</g>
<g id="Layer_14">
</g>
<g id="Layer_13">
</g>
<g id="Layer_12">
</g>
<g id="Layer_11">
</g>
<g id="Layer_10">
</g>
<g id="Layer_9">
</g>
<g id="Layer_8">
</g>
<g id="Layer_7">
</g>
<g id="Layer_6">
</g>
<g id="Layer_5">
</g>
<g id="Layer_4">
</g>
<g id="Layer_3">
</g>
<g id="Layer_2">
</g>
</svg>
