<?xml version="1.0" encoding="utf-8"?>
<!-- Generator: Adobe Illustrator 16.0.0, SVG Export Plug-In . SVG Version: 6.00 Build 0)  -->
<!DOCTYPE svg PUBLIC "-//W3C//DTD SVG 1.1//EN" "http://www.w3.org/Graphics/SVG/1.1/DTD/svg11.dtd">
<svg version="1.1" xmlns="http://www.w3.org/2000/svg" xmlns:xlink="http://www.w3.org/1999/xlink" x="0px" y="0px"
	 width="50.314px" height="44px" viewBox="0 0 50.314 44" enable-background="new 0 0 50.314 44" xml:space="preserve">
<g id="Layer_40">
</g>
<g id="Layer_39">
</g>
<g id="Layer_38">
</g>
<g id="Layer_37">
	<path fill="#ED1C24" d="M6.462,39.496C6.462,39.496,8.387,39.496,6.462,39.496c-1.705,0-0.825-1.87-0.825-1.87l18.426-31.9
		c0,0-0.4,0.707,0,0c0.715-1.265,1.649-1.21,2.31-0.055l18.425,31.955c0,0,0.88,1.87-0.824,1.87c-1.926,0,0,0,0,0H6.462z"/>
	<polygon fill="#FFFFFF" points="25.271,13.315 37.592,34.82 12.787,34.82 	"/>
	<path fill="#FFFFFF" d="M25.23,6.053c0.09,0.088,0.249,0.279,0.479,0.687l0.003,0.006c0,0,17.433,30.438,17.694,30.894
		c0.015,0.025,0.031,0.055,0.049,0.086c0.147,0.252,0.238,0.438,0.271,0.555c-0.079,0.022-0.225,0.048-0.472,0.048H25.189H7.207
		c-0.248,0-0.394-0.025-0.473-0.048c0.033-0.117,0.125-0.303,0.271-0.555c0.018-0.031,0.035-0.061,0.05-0.086
		C7.302,37.209,22.783,10.18,24.58,7.041l0.002,0.001l0.009-0.014l-0.003-0.002c0.072-0.125,0.119-0.21,0.145-0.252v0.001
		c0.008-0.013,0.014-0.025,0.021-0.038C24.982,6.331,25.141,6.141,25.23,6.053 M25.212,5.254c-0.007,0-0.015,0.001-0.022,0.001
		v0.004c-0.339,0.04-0.686,0.413-1.082,1.118c-0.005,0.01-0.009,0.018-0.014,0.025c0.008-0.015,0.014-0.025,0.014-0.025
		C24.102,6.389,6.675,36.815,6.414,37.271c-0.26,0.455-1.155,1.795,0.793,1.795h17.982h18.065c1.948,0,1.053-1.34,0.792-1.795
		c-0.26-0.456-17.693-30.895-17.693-30.895C25.934,5.63,25.57,5.254,25.212,5.254 M23.938,6.68c0,0,0.004-0.005,0.008-0.016
		C23.941,6.675,23.938,6.68,23.938,6.68"/>
	<rect fill="none" width="50.314" height="44"/>
	<polygon points="26.664,26.516 18.552,26.516 18.084,27.286 18.552,28.027 26.691,28.027 	"/>
	<polygon points="22.262,27.325 20.524,24.692 19.623,24.728 19.264,25.528 20.467,27.305 	"/>
	<polygon points="22.262,27.246 20.524,29.879 19.623,29.844 19.264,29.043 20.467,27.267 	"/>
	<polygon points="25.314,25.72 21.259,32.745 21.691,33.535 22.568,33.501 26.639,26.451 	"/>
	<polygon points="23.814,29.937 20.666,30.124 20.246,30.923 20.76,31.635 22.899,31.48 	"/>
	<polygon points="23.746,29.897 25.158,32.719 24.676,33.479 23.803,33.392 22.866,31.462 	"/>
	<polygon points="23.951,26.489 28.007,33.515 28.908,33.535 29.316,32.759 25.246,25.709 	"/>
	<polygon points="26.853,29.897 25.44,32.719 25.922,33.479 26.795,33.392 27.732,31.462 	"/>
	<polygon points="26.785,29.937 29.934,30.124 30.353,30.923 29.84,31.635 27.699,31.48 	"/>
	<polygon points="23.936,28.056 32.049,28.056 32.516,27.286 32.049,26.544 23.908,26.544 	"/>
	<polygon points="28.338,27.246 30.074,29.879 30.976,29.844 31.335,29.043 30.133,27.267 	"/>
	<polygon points="28.338,27.325 30.074,24.692 30.976,24.728 31.335,25.528 30.133,27.305 	"/>
	<polygon points="25.284,28.852 29.34,21.826 28.907,21.036 28.03,21.07 23.96,28.12 	"/>
	<polygon points="26.785,24.635 29.934,24.446 30.353,23.648 29.84,22.937 27.699,23.091 	"/>
	<polygon points="26.853,24.674 25.44,21.854 25.922,21.091 26.795,21.18 27.732,23.109 	"/>
	<polygon points="26.648,28.082 22.592,21.056 21.691,21.036 21.283,21.813 25.353,28.862 	"/>
	<polygon points="23.746,24.674 25.158,21.854 24.676,21.091 23.803,21.18 22.866,23.109 	"/>
	<polygon points="23.814,24.635 20.666,24.446 20.246,23.648 20.76,22.937 22.899,23.091 	"/>
</g>
<g id="Layer_36">
</g>
<g id="Layer_35">
</g>
<g id="Layer_34">
</g>
<g id="Layer_33">
</g>
<g id="Layer_32">
</g>
<g id="Layer_31">
</g>
<g id="Layer_30">
</g>
<g id="Layer_29">
</g>
<g id="Layer_28">
</g>
<g id="Layer_27">
</g>
<g id="Layer_26">
</g>
<g id="Layer_25">
</g>
<g id="Layer_24">
</g>
<g id="Layer_23">
</g>
<g id="Layer_22">
</g>
<g id="Layer_21">
</g>
<g id="Layer_20">
</g>
<g id="Layer_19">
</g>
<g id="Layer_18">
</g>
<g id="Layer_17">
</g>
<g id="Layer_16">
</g>
<g id="Layer_15">
</g>
<g id="Layer_14">
</g>
<g id="Layer_13">
</g>
<g id="Layer_12">
</g>
<g id="Layer_11">
</g>
<g id="Layer_10">
</g>
<g id="Layer_9">
</g>
<g id="Layer_8">
</g>
<g id="Layer_7">
</g>
<g id="Layer_6">
</g>
<g id="Layer_5">
</g>
<g id="Layer_4">
</g>
<g id="Layer_3">
</g>
<g id="Layer_2">
</g>
</svg>
