<?xml version="1.0" encoding="utf-8"?>
<!-- Generator: Adobe Illustrator 16.0.0, SVG Export Plug-In . SVG Version: 6.00 Build 0)  -->
<!DOCTYPE svg PUBLIC "-//W3C//DTD SVG 1.1//EN" "http://www.w3.org/Graphics/SVG/1.1/DTD/svg11.dtd">
<svg version="1.1" xmlns="http://www.w3.org/2000/svg" xmlns:xlink="http://www.w3.org/1999/xlink" x="0px" y="0px"
	 width="53.858px" height="50.596px" viewBox="0 0 53.858 50.596" enable-background="new 0 0 53.858 50.596" xml:space="preserve">
<g id="Layer_40">
</g>
<g id="Layer_39">
</g>
<g id="Layer_38">
	<path fill="#ED1C24" d="M9.935,38.405C9.935,38.405,11.859,38.405,9.935,38.405c-1.705,0-0.825-1.87-0.825-1.87l18.425-31.9
		c0,0-0.4,0.707,0,0c0.715-1.265,1.65-1.21,2.311-0.055L48.27,36.535c0,0,0.88,1.87-0.825,1.87c-1.925,0,0,0,0,0H9.935z"/>
	<polygon fill="#FFFFFF" points="28.745,12.226 41.064,33.73 16.259,33.73 	"/>
	<path fill="#FFFFFF" d="M28.703,4.962c0.09,0.088,0.249,0.28,0.479,0.687l0.002,0.007c0,0,17.433,30.438,17.693,30.893
		c0.016,0.026,0.032,0.055,0.051,0.086c0.146,0.252,0.237,0.438,0.271,0.555c-0.08,0.022-0.226,0.049-0.472,0.049H28.662H10.679
		c-0.246,0-0.393-0.026-0.472-0.049c0.033-0.116,0.124-0.303,0.271-0.555c0.019-0.031,0.035-0.06,0.051-0.086
		c0.246-0.429,15.727-27.459,17.523-30.597l0.002,0.001l0.01-0.015L28.06,5.936c0.072-0.125,0.121-0.21,0.145-0.252l0.001,0.001
		c0.007-0.013,0.015-0.024,0.021-0.038C28.454,5.241,28.613,5.05,28.703,4.962 M28.685,4.164c-0.008,0-0.016,0.001-0.022,0.001
		v0.003c-0.339,0.04-0.687,0.414-1.082,1.119c-0.005,0.009-0.009,0.017-0.015,0.024c0.009-0.015,0.015-0.024,0.015-0.024
		C27.574,5.298,10.147,35.725,9.888,36.181c-0.262,0.455-1.156,1.795,0.791,1.795h17.983h18.065c1.947,0,1.053-1.34,0.791-1.795
		c-0.26-0.456-17.692-30.894-17.692-30.894C29.406,4.54,29.043,4.164,28.685,4.164 M27.41,5.589c0,0,0.003-0.005,0.008-0.015
		C27.413,5.584,27.41,5.589,27.41,5.589"/>
	<polygon fill="#FFFFFF" points="28.761,12.225 41.081,33.729 16.276,33.729 	"/>
	<path fill="#FFFFFF" d="M47.851,48.4c0.373,0,0.675-0.45,0.675-1.006v-7.396c0-0.556-0.302-1.006-0.675-1.006H9.528
		c-0.373,0-0.675,0.45-0.675,1.006v7.396c0,0.556,0.302,1.006,0.675,1.006H47.851z"/>
	<path fill="none" stroke="#000000" stroke-width="0.11" d="M47.851,48.4c0.373,0,0.675-0.45,0.675-1.006v-7.396
		c0-0.556-0.302-1.006-0.675-1.006H9.528c-0.373,0-0.675,0.45-0.675,1.006v7.396c0,0.556,0.302,1.006,0.675,1.006H47.851z"/>
	<path d="M28.689,32.359c0.729,0,1.319-0.592,1.319-1.32c0-0.73-0.59-1.321-1.319-1.321s-1.32,0.591-1.32,1.321
		C27.369,31.768,27.96,32.359,28.689,32.359"/>
	<circle fill="none" stroke="#000000" stroke-width="0.11" cx="28.689" cy="31.039" r="1.321"/>
	<path d="M28.689,28.643c0.724,0,1.312-0.605,1.312-1.353v-8.479c0-0.746-0.588-1.352-1.312-1.352s-1.312,0.605-1.312,1.352v8.479
		C27.378,28.037,27.966,28.643,28.689,28.643"/>
	<path fill="none" stroke="#000000" stroke-width="0.11" d="M28.689,28.643c0.724,0,1.312-0.605,1.312-1.353v-8.479
		c0-0.746-0.588-1.352-1.312-1.352s-1.312,0.605-1.312,1.352v8.479C27.378,28.037,27.966,28.643,28.689,28.643z"/>
	<rect fill="none" width="53.858" height="50.596"/>
</g>
<g id="Layer_37">
</g>
<g id="Layer_36">
</g>
<g id="Layer_35">
</g>
<g id="Layer_34">
</g>
<g id="Layer_33">
</g>
<g id="Layer_32">
</g>
<g id="Layer_31">
</g>
<g id="Layer_30">
</g>
<g id="Layer_29">
</g>
<g id="Layer_28">
</g>
<g id="Layer_27">
</g>
<g id="Layer_26">
</g>
<g id="Layer_25">
</g>
<g id="Layer_24">
</g>
<g id="Layer_23">
</g>
<g id="Layer_22">
</g>
<g id="Layer_21">
</g>
<g id="Layer_20">
</g>
<g id="Layer_19">
</g>
<g id="Layer_18">
</g>
<g id="Layer_17">
</g>
<g id="Layer_16">
</g>
<g id="Layer_15">
</g>
<g id="Layer_14">
</g>
<g id="Layer_13">
</g>
<g id="Layer_12">
</g>
<g id="Layer_11">
</g>
<g id="Layer_10">
</g>
<g id="Layer_9">
</g>
<g id="Layer_8">
</g>
<g id="Layer_7">
</g>
<g id="Layer_6">
</g>
<g id="Layer_5">
</g>
<g id="Layer_4">
</g>
<g id="Layer_3">
</g>
<g id="Layer_2">
</g>
</svg>
