<?xml version="1.0" encoding="utf-8"?>
<!-- Generator: Adobe Illustrator 16.0.0, SVG Export Plug-In . SVG Version: 6.00 Build 0)  -->
<!DOCTYPE svg PUBLIC "-//W3C//DTD SVG 1.1//EN" "http://www.w3.org/Graphics/SVG/1.1/DTD/svg11.dtd">
<svg version="1.1" xmlns="http://www.w3.org/2000/svg" xmlns:xlink="http://www.w3.org/1999/xlink" x="0px" y="0px"
	 width="50.314px" height="44px" viewBox="0 0 50.314 44" enable-background="new 0 0 50.314 44" xml:space="preserve">
<g id="Layer_40">
</g>
<g id="Layer_39">
	<path fill="#ED1C24" d="M6.461,39.507C6.461,39.507,8.386,39.507,6.461,39.507c-1.705,0-0.825-1.87-0.825-1.87L24.062,5.737
		c0,0-0.4,0.707,0,0c0.715-1.266,1.649-1.21,2.31-0.056l18.425,31.955c0,0,0.88,1.87-0.824,1.87c-1.926,0,0,0,0,0H6.461z"/>
	<polygon fill="#FFFFFF" points="25.271,13.327 37.591,34.832 12.786,34.832 	"/>
	<path fill="#FFFFFF" d="M25.23,6.063c0.09,0.088,0.249,0.28,0.478,0.688l0.003,0.006c0,0,17.433,30.438,17.694,30.893
		c0.015,0.026,0.031,0.055,0.05,0.086c0.146,0.252,0.238,0.438,0.271,0.556c-0.078,0.021-0.225,0.048-0.472,0.048H25.189H7.206
		c-0.247,0-0.393-0.026-0.472-0.048c0.032-0.117,0.124-0.304,0.271-0.556c0.019-0.031,0.035-0.06,0.05-0.086
		c0.246-0.429,15.723-27.451,17.523-30.596h0.003l0.008-0.015l-0.002-0.002c0.075-0.131,0.126-0.218,0.148-0.258l0.016-0.028
		c0.001,0,0.001-0.001,0.002-0.002C24.981,6.343,25.14,6.151,25.23,6.063 M25.211,5.266c-0.007,0-0.015,0.001-0.021,0.001V5.27
		c-0.34,0.04-0.687,0.414-1.082,1.119c-0.006,0.009-0.01,0.017-0.015,0.024c0.009-0.015,0.015-0.024,0.015-0.024
		C24.101,6.399,6.674,36.826,6.414,37.282c-0.261,0.455-1.156,1.795,0.792,1.795h17.983h18.064c1.948,0,1.053-1.34,0.792-1.795
		c-0.26-0.456-17.693-30.894-17.693-30.894C25.933,5.642,25.57,5.266,25.211,5.266 M23.937,6.69c0,0,0.004-0.005,0.009-0.015
		C23.94,6.686,23.937,6.69,23.937,6.69"/>
	<polygon fill="#FFFFFF" points="25.288,13.326 37.608,34.832 12.803,34.832 	"/>
	<path d="M25.216,32.539h-8.132v-2.127c4.063-0.002,4.939-3.509,8.132-3.509"/>
	<path d="M25.216,32.539h8.133v-2.127c-4.063-0.002-4.939-3.509-8.133-3.509"/>
	<rect fill="none" width="50.314" height="44"/>
</g>
<g id="Layer_38">
</g>
<g id="Layer_37">
</g>
<g id="Layer_36">
</g>
<g id="Layer_35">
</g>
<g id="Layer_34">
</g>
<g id="Layer_33">
</g>
<g id="Layer_32">
</g>
<g id="Layer_31">
</g>
<g id="Layer_30">
</g>
<g id="Layer_29">
</g>
<g id="Layer_28">
</g>
<g id="Layer_27">
</g>
<g id="Layer_26">
</g>
<g id="Layer_25">
</g>
<g id="Layer_24">
</g>
<g id="Layer_23">
</g>
<g id="Layer_22">
</g>
<g id="Layer_21">
</g>
<g id="Layer_20">
</g>
<g id="Layer_19">
</g>
<g id="Layer_18">
</g>
<g id="Layer_17">
</g>
<g id="Layer_16">
</g>
<g id="Layer_15">
</g>
<g id="Layer_14">
</g>
<g id="Layer_13">
</g>
<g id="Layer_12">
</g>
<g id="Layer_11">
</g>
<g id="Layer_10">
</g>
<g id="Layer_9">
</g>
<g id="Layer_8">
</g>
<g id="Layer_7">
</g>
<g id="Layer_6">
</g>
<g id="Layer_5">
</g>
<g id="Layer_4">
</g>
<g id="Layer_3">
</g>
<g id="Layer_2">
</g>
</svg>
