<?xml version="1.0" encoding="utf-8"?>
<!-- Generator: Adobe Illustrator 16.0.0, SVG Export Plug-In . SVG Version: 6.00 Build 0)  -->
<!DOCTYPE svg PUBLIC "-//W3C//DTD SVG 1.1//EN" "http://www.w3.org/Graphics/SVG/1.1/DTD/svg11.dtd">
<svg version="1.1" xmlns="http://www.w3.org/2000/svg" xmlns:xlink="http://www.w3.org/1999/xlink" x="0px" y="0px"
	 width="50.315px" height="44px" viewBox="0 0 50.315 44" enable-background="new 0 0 50.315 44" xml:space="preserve">
<g id="Layer_40">
	<path fill="#ED1C24" d="M6.462,39.507C6.462,39.507,8.387,39.507,6.462,39.507c-1.705,0-0.825-1.87-0.825-1.87L24.062,5.737
		c0,0-0.399,0.707,0,0c0.715-1.266,1.65-1.21,2.311-0.056l18.425,31.955c0,0,0.88,1.87-0.825,1.87c-1.925,0,0,0,0,0H6.462z"/>
	<polygon fill="#FFFFFF" points="25.271,13.327 37.592,34.832 12.787,34.832 	"/>
	<path fill="#FFFFFF" d="M25.23,6.063c0.091,0.088,0.249,0.28,0.479,0.688l0.003,0.005c0,0,17.433,30.438,17.694,30.893
		c0.014,0.027,0.03,0.055,0.05,0.087c0.146,0.251,0.238,0.438,0.271,0.554c-0.08,0.022-0.225,0.049-0.472,0.049H25.188H7.207
		c-0.247,0-0.394-0.026-0.473-0.049c0.032-0.116,0.123-0.303,0.271-0.554c0.018-0.032,0.035-0.06,0.05-0.087
		c0.246-0.429,15.723-27.451,17.523-30.596h0.003l0.008-0.015l-0.002-0.001c0.075-0.132,0.125-0.219,0.147-0.258l0.017-0.028
		c0.001-0.002,0.001-0.003,0.001-0.004C24.981,6.344,25.141,6.151,25.23,6.063 M25.212,5.267c-0.008,0-0.015,0-0.023,0V5.27
		c-0.339,0.04-0.685,0.414-1.081,1.119c-0.005,0.009-0.01,0.017-0.014,0.024c0.008-0.015,0.014-0.023,0.014-0.024
		C24.101,6.399,6.675,36.827,6.414,37.282s-1.155,1.796,0.793,1.796h17.981h18.066c1.948,0,1.053-1.341,0.792-1.796
		C43.786,36.826,26.354,6.389,26.354,6.389C25.934,5.643,25.57,5.267,25.212,5.267 M23.938,6.69c0,0,0.003-0.005,0.009-0.014
		C23.939,6.687,23.938,6.69,23.938,6.69"/>
	<polygon fill="#FFFFFF" points="25.359,13.367 37.68,34.872 12.874,34.872 	"/>
	<path d="M21.223,31.227c0.682,0.152,1.359-0.278,1.511-0.96c0.152-0.682-0.277-1.359-0.96-1.511
		c-0.683-0.152-1.358,0.277-1.511,0.96S20.541,31.074,21.223,31.227"/>
	<path d="M30.688,33.31c0.682,0.152,1.358-0.278,1.511-0.96s-0.278-1.359-0.96-1.511c-0.682-0.152-1.359,0.277-1.511,0.96
		C29.575,32.481,30.005,33.157,30.688,33.31"/>
	<path d="M18.695,27.401l4.56-0.005l2.708-1.57l4.542,1.012l1.603,2.453l2.121,0.97l-0.437,1.959l-1.068,0.064
		c-0.009-0.553-0.245-1.602-1.493-1.88c-1.248-0.277-1.878,0.787-2.092,1.395l-5.896-1.288c0.122-0.549-0.013-1.941-1.335-2.236
		c-1.473-0.328-2.076,1.083-2.076,1.083l-1.436-0.607L18.695,27.401z M23.605,27.503l4.411,0.982l0.408-1.836l-2.346-0.522
		L23.605,27.503z M28.49,28.592l3.313,0.738l-1.456-2.252l-1.448-0.323L28.49,28.592z"/>
	<rect x="16.592" y="33.518" width="18.586" height="0.26"/>
	<rect x="22.469" y="31.306" width="2.276" height="2.276"/>
	<path d="M22.47,31.326v-0.03c0,0,0.12-0.73,0.926-0.817l0.449,0.082l-0.017,0.942L22.47,31.326z"/>
	<path d="M24.746,31.326v-0.03c0,0-0.12-0.73-0.927-0.817l-0.448,0.082l0.017,0.942L24.746,31.326z"/>
	<rect fill="none" width="50.315" height="44"/>
</g>
<g id="Layer_39">
</g>
<g id="Layer_38">
</g>
<g id="Layer_37">
</g>
<g id="Layer_36">
</g>
<g id="Layer_35">
</g>
<g id="Layer_34">
</g>
<g id="Layer_33">
</g>
<g id="Layer_32">
</g>
<g id="Layer_31">
</g>
<g id="Layer_30">
</g>
<g id="Layer_29">
</g>
<g id="Layer_28">
</g>
<g id="Layer_27">
</g>
<g id="Layer_26">
</g>
<g id="Layer_25">
</g>
<g id="Layer_24">
</g>
<g id="Layer_23">
</g>
<g id="Layer_22">
</g>
<g id="Layer_21">
</g>
<g id="Layer_20">
</g>
<g id="Layer_19">
</g>
<g id="Layer_18">
</g>
<g id="Layer_17">
</g>
<g id="Layer_16">
</g>
<g id="Layer_15">
</g>
<g id="Layer_14">
</g>
<g id="Layer_13">
</g>
<g id="Layer_12">
</g>
<g id="Layer_11">
</g>
<g id="Layer_10">
</g>
<g id="Layer_9">
</g>
<g id="Layer_8">
</g>
<g id="Layer_7">
</g>
<g id="Layer_6">
</g>
<g id="Layer_5">
</g>
<g id="Layer_4">
</g>
<g id="Layer_3">
</g>
<g id="Layer_2">
</g>
</svg>
