<?xml version="1.0" encoding="utf-8"?>
<!-- Generator: Adobe Illustrator 16.0.0, SVG Export Plug-In . SVG Version: 6.00 Build 0)  -->
<!DOCTYPE svg PUBLIC "-//W3C//DTD SVG 1.1//EN" "http://www.w3.org/Graphics/SVG/1.1/DTD/svg11.dtd">
<svg version="1.1" xmlns="http://www.w3.org/2000/svg" xmlns:xlink="http://www.w3.org/1999/xlink" x="0px" y="0px"
	 width="50.315px" height="44px" viewBox="0 0 50.315 44" enable-background="new 0 0 50.315 44" xml:space="preserve">
<g id="Layer_40">
</g>
<g id="Layer_39">
</g>
<g id="Layer_38">
</g>
<g id="Layer_37">
</g>
<g id="Layer_36">
</g>
<g id="Layer_35">
</g>
<g id="Layer_34">
</g>
<g id="Layer_33">
</g>
<g id="Layer_32">
</g>
<g id="Layer_31">
</g>
<g id="Layer_30">
</g>
<g id="Layer_29">
</g>
<g id="Layer_28">
</g>
<g id="Layer_27">
</g>
<g id="Layer_26">
</g>
<g id="Layer_25">
</g>
<g id="Layer_24">
</g>
<g id="Layer_23">
</g>
<g id="Layer_22">
</g>
<g id="Layer_21">
</g>
<g id="Layer_20">
</g>
<g id="Layer_19">
</g>
<g id="Layer_18">
</g>
<g id="Layer_17">
</g>
<g id="Layer_16">
</g>
<g id="Layer_15">
</g>
<g id="Layer_14">
</g>
<g id="Layer_13">
</g>
<g id="Layer_12">
</g>
<g id="Layer_11">
</g>
<g id="Layer_10">
</g>
<g id="Layer_9">
</g>
<g id="Layer_8">
</g>
<g id="Layer_7">
</g>
<g id="Layer_6">
</g>
<g id="Layer_5">
	<path fill="#ED1C24" d="M6.263,39.533C6.263,39.533,8.188,39.533,6.263,39.533c-1.705,0-0.825-1.87-0.825-1.87l18.425-31.9
		c0,0-0.4,0.707,0,0c0.715-1.265,1.65-1.21,2.31-0.055l18.425,31.955c0,0,0.88,1.87-0.825,1.87c-1.925,0,0,0,0,0H6.263z"/>
	<polygon fill="#FFFFFF" points="25.073,13.353 37.393,34.858 12.588,34.858 	"/>
	<path fill="#FFFFFF" d="M25.032,6.09c0.09,0.088,0.249,0.28,0.478,0.687l0.003,0.006c0,0,17.433,30.438,17.694,30.893
		c0.015,0.026,0.032,0.055,0.05,0.086c0.147,0.252,0.238,0.438,0.271,0.555c-0.079,0.022-0.225,0.048-0.472,0.048H24.991H7.008
		c-0.247,0-0.393-0.026-0.472-0.048c0.033-0.117,0.124-0.303,0.271-0.555c0.018-0.031,0.035-0.06,0.05-0.086
		C7.103,37.247,22.579,10.225,24.38,7.08h0.003l0.008-0.014l-0.002-0.002c0.075-0.131,0.126-0.218,0.148-0.258v0.001l0.016-0.03
		c0.001,0,0.001-0.001,0.002-0.002C24.783,6.369,24.942,6.178,25.032,6.09 M25.013,5.292c-0.007,0-0.015,0.001-0.022,0.001v0.003
		c-0.34,0.04-0.686,0.414-1.082,1.119C23.904,6.424,23.9,6.432,23.895,6.44c0.008-0.015,0.014-0.025,0.014-0.025
		C23.903,6.426,6.476,36.853,6.215,37.309c-0.26,0.455-1.155,1.795,0.793,1.795h17.983h18.065c1.948,0,1.053-1.34,0.792-1.795
		c-0.26-0.456-17.693-30.894-17.693-30.894C25.735,5.668,25.372,5.292,25.013,5.292 M23.739,6.717c0,0,0.003-0.005,0.008-0.015
		C23.742,6.712,23.739,6.717,23.739,6.717"/>
	<path d="M27.878,21.005l1.622,2.888v3.657c0,0-0.137,3.41-3.987,3.41c0,0-1.788-0.027-2.888-1.017c0,0-1.485-1.265-1.485,0.385
		l0.004,4.262l-1.763-1.237l-1.733,1.265v-5.253c0,0,0.138-3.41,3.987-3.41c0,0,1.788,0.028,2.888,1.017
		c0,0,1.485,1.266,1.485-0.384V24.03L27.878,21.005z"/>
	<rect fill="none" width="50.315" height="44"/>
</g>
<g id="Layer_4">
</g>
<g id="Layer_3">
</g>
<g id="Layer_2">
</g>
</svg>
