<?xml version="1.0" encoding="utf-8"?>
<!-- Generator: Adobe Illustrator 16.0.0, SVG Export Plug-In . SVG Version: 6.00 Build 0)  -->
<!DOCTYPE svg PUBLIC "-//W3C//DTD SVG 1.1//EN" "http://www.w3.org/Graphics/SVG/1.1/DTD/svg11.dtd">
<svg version="1.1" xmlns="http://www.w3.org/2000/svg" xmlns:xlink="http://www.w3.org/1999/xlink" x="0px" y="0px"
	 width="50.314px" height="44px" viewBox="0 0 50.314 44" enable-background="new 0 0 50.314 44" xml:space="preserve">
<g id="Layer_40">
</g>
<g id="Layer_39">
</g>
<g id="Layer_38">
</g>
<g id="Layer_37">
</g>
<g id="Layer_36">
</g>
<g id="Layer_35">
</g>
<g id="Layer_34">
</g>
<g id="Layer_33">
</g>
<g id="Layer_32">
</g>
<g id="Layer_31">
</g>
<g id="Layer_30">
</g>
<g id="Layer_29">
</g>
<g id="Layer_28">
</g>
<g id="Layer_27">
</g>
<g id="Layer_26">
</g>
<g id="Layer_25">
</g>
<g id="Layer_24">
</g>
<g id="Layer_23">
</g>
<g id="Layer_22">
</g>
<g id="Layer_21">
</g>
<g id="Layer_20">
</g>
<g id="Layer_19">
</g>
<g id="Layer_18">
</g>
<g id="Layer_17">
</g>
<g id="Layer_16">
</g>
<g id="Layer_15">
</g>
<g id="Layer_14">
</g>
<g id="Layer_13">
</g>
<g id="Layer_12">
</g>
<g id="Layer_11">
</g>
<g id="Layer_10">
</g>
<g id="Layer_9">
</g>
<g id="Layer_8">
</g>
<g id="Layer_7">
	<path fill="#ED1C24" d="M6.198,39.531C6.198,39.531,8.124,39.531,6.198,39.531c-1.705,0-0.824-1.87-0.824-1.87l18.425-31.9
		c0,0-0.4,0.707,0,0c0.715-1.265,1.649-1.21,2.31-0.055l18.425,31.955c0,0,0.881,1.87-0.824,1.87c-1.926,0,0,0,0,0H6.198z"/>
	<polygon fill="#FFFFFF" points="25.009,13.351 37.328,34.856 12.523,34.856 	"/>
	<path fill="#FFFFFF" d="M24.968,6.087c0.09,0.088,0.249,0.28,0.478,0.687l0.003,0.006c0,0,17.434,30.438,17.694,30.893
		c0.015,0.026,0.032,0.055,0.05,0.086c0.147,0.252,0.238,0.438,0.271,0.555c-0.079,0.022-0.226,0.048-0.473,0.048H24.927H6.943
		c-0.247,0-0.393-0.026-0.472-0.048c0.033-0.117,0.124-0.303,0.271-0.555c0.019-0.031,0.035-0.06,0.05-0.086
		c0.246-0.429,15.723-27.451,17.523-30.596h0.003l0.008-0.014l-0.002-0.002c0.075-0.131,0.126-0.218,0.148-0.258v0.001l0.016-0.03
		c0.001,0,0.001-0.001,0.002-0.002C24.719,6.367,24.877,6.175,24.968,6.087 M24.948,5.29c-0.007,0-0.015,0.001-0.021,0.001v0.003
		c-0.341,0.04-0.687,0.414-1.082,1.119c-0.005,0.009-0.01,0.017-0.015,0.025c0.009-0.015,0.015-0.025,0.015-0.025
		C23.839,6.423,6.411,36.851,6.15,37.307c-0.26,0.455-1.155,1.795,0.793,1.795h17.983h18.064c1.948,0,1.053-1.34,0.792-1.795
		c-0.26-0.456-17.692-30.894-17.692-30.894C25.67,5.666,25.308,5.29,24.948,5.29 M23.675,6.714c0,0,0.003-0.005,0.008-0.015
		C23.678,6.709,23.675,6.714,23.675,6.714"/>
	<rect fill="none" width="50.314" height="44"/>
	<polygon points="30.866,24.58 36.696,34.479 13.211,34.479 	"/>
	<path d="M22.89,28.505l-0.855,0.491l-1.797-3.102l-0.479,0.39l-0.325-0.537c0,0,0.327-0.51,0.462-1.13l0.575-0.335L22.89,28.505z"
		/>
	<path d="M22.363,23.088c0.916-0.585,2.245-0.081,2.967,1.127c0.724,1.207,0.566,2.661-0.351,3.246
		c-0.916,0.586-2.245,0.081-2.967-1.126C21.289,25.127,21.447,23.673,22.363,23.088"/>
	<path fill="#FFFFFF" d="M22.986,23.963c0.474-0.228,1.187,0.165,1.591,0.88c0.405,0.714,0.348,1.479-0.126,1.707
		c-0.475,0.229-1.188-0.165-1.591-0.88C22.455,24.956,22.512,24.191,22.986,23.963"/>
	<path d="M25.791,21.178c0.424-0.27,1.036-0.037,1.369,0.52c0.334,0.557,0.262,1.228-0.162,1.498
		c-0.423,0.27-1.036,0.037-1.368-0.52C25.297,22.119,25.368,21.448,25.791,21.178"/>
	<path fill="#FFFFFF" d="M26.079,21.582c0.219-0.105,0.548,0.076,0.733,0.406c0.188,0.33,0.161,0.682-0.058,0.788
		c-0.22,0.105-0.548-0.077-0.734-0.406C25.834,22.04,25.859,21.687,26.079,21.582"/>
	<path d="M28.705,22.511c0.423-0.27,1.036-0.037,1.369,0.52c0.334,0.557,0.261,1.228-0.162,1.498s-1.036,0.037-1.369-0.52
		S28.282,22.781,28.705,22.511"/>
	<path fill="#FFFFFF" d="M28.992,22.915c0.22-0.105,0.548,0.076,0.734,0.406s0.161,0.682-0.058,0.788
		c-0.22,0.105-0.549-0.077-0.734-0.406C28.747,23.373,28.773,23.02,28.992,22.915"/>
	<polygon points="27.682,20.095 28.212,19.893 27.972,25.533 27.462,25.811 	"/>
	<rect fill="none" width="50.314" height="44"/>
</g>
<g id="Layer_6">
</g>
<g id="Layer_5">
</g>
<g id="Layer_4">
</g>
<g id="Layer_3">
</g>
<g id="Layer_2">
</g>
</svg>
