<?xml version="1.0" encoding="utf-8"?>
<!-- Generator: Adobe Illustrator 16.0.0, SVG Export Plug-In . SVG Version: 6.00 Build 0)  -->
<!DOCTYPE svg PUBLIC "-//W3C//DTD SVG 1.1//EN" "http://www.w3.org/Graphics/SVG/1.1/DTD/svg11.dtd">
<svg version="1.1" xmlns="http://www.w3.org/2000/svg" xmlns:xlink="http://www.w3.org/1999/xlink" x="0px" y="0px"
	 width="50.315px" height="44px" viewBox="0 0 50.315 44" enable-background="new 0 0 50.315 44" xml:space="preserve">
<g id="Layer_40">
</g>
<g id="Layer_39">
</g>
<g id="Layer_38">
</g>
<g id="Layer_37">
</g>
<g id="Layer_36">
</g>
<g id="Layer_35">
</g>
<g id="Layer_34">
</g>
<g id="Layer_33">
</g>
<g id="Layer_32">
</g>
<g id="Layer_31">
</g>
<g id="Layer_30">
</g>
<g id="Layer_29">
</g>
<g id="Layer_28">
</g>
<g id="Layer_27">
</g>
<g id="Layer_26">
</g>
<g id="Layer_25">
</g>
<g id="Layer_24">
</g>
<g id="Layer_23">
</g>
<g id="Layer_22">
</g>
<g id="Layer_21">
</g>
<g id="Layer_20">
</g>
<g id="Layer_19">
</g>
<g id="Layer_18">
</g>
<g id="Layer_17">
</g>
<g id="Layer_16">
</g>
<g id="Layer_15">
</g>
<g id="Layer_14">
</g>
<g id="Layer_13">
</g>
<g id="Layer_12">
</g>
<g id="Layer_11">
</g>
<g id="Layer_10">
</g>
<g id="Layer_9">
</g>
<g id="Layer_8">
	<path fill="#ED1C24" d="M6.121,39.498C6.121,39.498,8.047,39.498,6.121,39.498c-1.705,0-0.824-1.87-0.824-1.87l18.425-31.9
		c0,0-0.4,0.707,0,0c0.715-1.265,1.649-1.21,2.31-0.055l18.425,31.955c0,0,0.881,1.87-0.824,1.87c-1.926,0,0,0,0,0H6.121z"/>
	<polygon fill="#FFFFFF" points="24.932,13.318 37.251,34.823 12.446,34.823 	"/>
	<path fill="#FFFFFF" d="M24.89,6.055c0.091,0.088,0.249,0.28,0.479,0.687l0.003,0.005c0,0,17.433,30.439,17.694,30.894
		c0.015,0.026,0.031,0.055,0.05,0.086c0.146,0.252,0.238,0.438,0.271,0.555c-0.078,0.022-0.225,0.048-0.472,0.048H24.85H6.866
		c-0.247,0-0.393-0.026-0.472-0.048c0.032-0.117,0.124-0.303,0.271-0.555c0.019-0.031,0.035-0.06,0.05-0.086
		C6.961,37.212,22.438,10.19,24.238,7.045h0.003l0.008-0.014l-0.002-0.002c0.075-0.131,0.126-0.218,0.148-0.258l0.016-0.029
		c0.001,0,0.001-0.001,0.002-0.002C24.642,6.334,24.8,6.143,24.89,6.055 M24.871,5.257c-0.007,0-0.015,0.001-0.021,0.001v0.003
		c-0.341,0.04-0.687,0.414-1.082,1.119c-0.006,0.009-0.01,0.017-0.015,0.025c0.008-0.015,0.015-0.025,0.015-0.025
		C23.761,6.391,6.334,36.818,6.074,37.274c-0.261,0.455-1.156,1.795,0.792,1.795H24.85h18.064c1.948,0,1.053-1.34,0.792-1.795
		C43.446,36.818,26.013,6.38,26.013,6.38C25.593,5.633,25.23,5.257,24.871,5.257 M23.597,6.682c0,0,0.004-0.005,0.009-0.015
		C23.601,6.677,23.597,6.682,23.597,6.682"/>
	<rect fill="none" width="50.315" height="44"/>
	<polygon points="18.957,24.58 13.127,34.479 36.612,34.479 	"/>
	<path d="M21.103,25.212l-0.854-0.495l1.788-3.108l-0.578-0.22l0.303-0.55c0,0,0.605,0.028,1.21-0.165l0.577,0.33L21.103,25.212z"/>
	<path d="M25.53,22.048c0.965,0.501,1.193,1.904,0.508,3.133c-0.685,1.23-2.021,1.82-2.986,1.319
		c-0.966-0.5-1.193-1.903-0.509-3.133C23.228,22.138,24.565,21.547,25.53,22.048"/>
	<path fill="#FFFFFF" d="M25.084,23.024c0.435,0.296,0.45,1.11,0.034,1.818c-0.417,0.707-1.107,1.041-1.542,0.744
		c-0.436-0.296-0.45-1.11-0.034-1.818C23.959,23.062,24.648,22.729,25.084,23.024"/>
	<path d="M28.898,24.062c0.445,0.231,0.55,0.878,0.234,1.446c-0.316,0.567-0.934,0.84-1.378,0.608
		c-0.445-0.231-0.55-0.878-0.234-1.445C27.837,24.103,28.454,23.831,28.898,24.062"/>
	<path fill="#FFFFFF" d="M28.692,24.512c0.201,0.137,0.208,0.512,0.017,0.839c-0.193,0.326-0.512,0.48-0.712,0.343
		c-0.201-0.137-0.208-0.512-0.016-0.839C28.174,24.529,28.492,24.375,28.692,24.512"/>
	<path d="M29.201,27.251c0.445,0.231,0.55,0.878,0.234,1.446c-0.316,0.567-0.934,0.839-1.378,0.608
		c-0.445-0.231-0.551-0.878-0.234-1.445C28.139,27.292,28.756,27.021,29.201,27.251"/>
	<path fill="#FFFFFF" d="M28.995,27.702c0.201,0.137,0.208,0.512,0.017,0.839c-0.193,0.326-0.512,0.48-0.713,0.343
		c-0.199-0.137-0.208-0.512-0.015-0.839C28.477,27.719,28.794,27.565,28.995,27.702"/>
	<polygon points="30.782,25.157 31.222,25.514 26.217,28.127 25.722,27.825 	"/>
	<rect fill="none" width="50.315" height="44"/>
</g>
<g id="Layer_7">
</g>
<g id="Layer_6">
</g>
<g id="Layer_5">
</g>
<g id="Layer_4">
</g>
<g id="Layer_3">
</g>
<g id="Layer_2">
</g>
</svg>
