<?xml version="1.0" encoding="utf-8"?>
<!-- Generator: Adobe Illustrator 16.0.0, SVG Export Plug-In . SVG Version: 6.00 Build 0)  -->
<!DOCTYPE svg PUBLIC "-//W3C//DTD SVG 1.1//EN" "http://www.w3.org/Graphics/SVG/1.1/DTD/svg11.dtd">
<svg version="1.1" xmlns="http://www.w3.org/2000/svg" xmlns:xlink="http://www.w3.org/1999/xlink" x="0px" y="0px"
	 width="50.315px" height="44px" viewBox="0 0 50.315 44" enable-background="new 0 0 50.315 44" xml:space="preserve">
<g id="Layer_40">
</g>
<g id="Layer_39">
</g>
<g id="Layer_38">
</g>
<g id="Layer_37">
</g>
<g id="Layer_36">
</g>
<g id="Layer_35">
</g>
<g id="Layer_34">
</g>
<g id="Layer_33">
</g>
<g id="Layer_32">
</g>
<g id="Layer_31">
</g>
<g id="Layer_30">
</g>
<g id="Layer_29">
</g>
<g id="Layer_28">
</g>
<g id="Layer_27">
</g>
<g id="Layer_26">
</g>
<g id="Layer_25">
</g>
<g id="Layer_24">
</g>
<g id="Layer_23">
</g>
<g id="Layer_22">
</g>
<g id="Layer_21">
</g>
<g id="Layer_20">
</g>
<g id="Layer_19">
</g>
<g id="Layer_18">
</g>
<g id="Layer_17">
</g>
<g id="Layer_16">
</g>
<g id="Layer_15">
</g>
<g id="Layer_14">
</g>
<g id="Layer_13">
</g>
<g id="Layer_12">
</g>
<g id="Layer_11">
</g>
<g id="Layer_10">
</g>
<g id="Layer_9">
	<path fill="#ED1C24" d="M6.561,39.698C6.561,39.698,8.486,39.698,6.561,39.698c-1.705,0-0.825-1.87-0.825-1.87L24.161,5.929
		c0,0-0.4,0.707,0,0c0.715-1.266,1.65-1.21,2.31-0.056l18.425,31.955c0,0,0.88,1.87-0.825,1.87c-1.925,0,0,0,0,0H6.561z"/>
	<polygon fill="#FFFFFF" points="25.371,13.519 37.691,35.023 12.886,35.023 	"/>
	<path fill="#FFFFFF" d="M25.33,6.255c0.09,0.088,0.249,0.28,0.478,0.688l0.003,0.006c0,0,17.433,30.438,17.694,30.893
		c0.015,0.026,0.032,0.056,0.05,0.086c0.147,0.252,0.238,0.438,0.271,0.556c-0.079,0.021-0.225,0.048-0.472,0.048H25.289H7.305
		c-0.247,0-0.393-0.026-0.472-0.048c0.033-0.117,0.124-0.304,0.271-0.556c0.018-0.03,0.035-0.06,0.05-0.086
		C7.4,37.412,22.876,10.39,24.677,7.245h0.003l0.008-0.014l-0.002-0.002c0.075-0.132,0.126-0.219,0.148-0.259l0.016-0.028
		c0.001,0,0.001-0.001,0.002-0.002C25.081,6.534,25.239,6.343,25.33,6.255 M25.311,5.457c-0.007,0-0.015,0.001-0.022,0.001v0.003
		c-0.339,0.04-0.686,0.414-1.082,1.119c-0.005,0.009-0.009,0.017-0.014,0.025C24.2,6.59,24.207,6.58,24.207,6.58
		C24.2,6.591,6.773,37.018,6.513,37.474c-0.261,0.455-1.156,1.795,0.792,1.795h17.983h18.065c1.948,0,1.053-1.34,0.792-1.795
		C43.885,37.018,26.453,6.58,26.453,6.58C26.032,5.833,25.669,5.457,25.311,5.457 M24.037,6.882c0,0,0.003-0.005,0.008-0.015
		C24.04,6.877,24.037,6.882,24.037,6.882"/>
	<rect fill="none" width="50.315" height="44"/>
	<rect x="18.999" y="27.09" transform="matrix(0.7071 0.7071 -0.7071 0.7071 27.6214 -9.6327)" width="12.878" height="2.868"/>
	<rect x="18.998" y="27.09" transform="matrix(0.7071 -0.7071 0.7071 0.7071 -12.7194 26.3427)" width="12.878" height="2.868"/>
</g>
<g id="Layer_8">
</g>
<g id="Layer_7">
</g>
<g id="Layer_6">
</g>
<g id="Layer_5">
</g>
<g id="Layer_4">
</g>
<g id="Layer_3">
</g>
<g id="Layer_2">
</g>
</svg>
