<?xml version="1.0" encoding="utf-8"?>
<!-- Generator: Adobe Illustrator 16.0.0, SVG Export Plug-In . SVG Version: 6.00 Build 0)  -->
<!DOCTYPE svg PUBLIC "-//W3C//DTD SVG 1.1//EN" "http://www.w3.org/Graphics/SVG/1.1/DTD/svg11.dtd">
<svg version="1.1" xmlns="http://www.w3.org/2000/svg" xmlns:xlink="http://www.w3.org/1999/xlink" x="0px" y="0px"
	 width="50.315px" height="44px" viewBox="0 0 50.315 44" enable-background="new 0 0 50.315 44" xml:space="preserve">
<g id="Layer_40">
</g>
<g id="Layer_39">
</g>
<g id="Layer_38">
</g>
<g id="Layer_37">
</g>
<g id="Layer_36">
</g>
<g id="Layer_35">
</g>
<g id="Layer_34">
</g>
<g id="Layer_33">
</g>
<g id="Layer_32">
</g>
<g id="Layer_31">
</g>
<g id="Layer_30">
</g>
<g id="Layer_29">
</g>
<g id="Layer_28">
</g>
<g id="Layer_27">
</g>
<g id="Layer_26">
</g>
<g id="Layer_25">
</g>
<g id="Layer_24">
</g>
<g id="Layer_23">
</g>
<g id="Layer_22">
</g>
<g id="Layer_21">
</g>
<g id="Layer_20">
</g>
<g id="Layer_19">
</g>
<g id="Layer_18">
</g>
<g id="Layer_17">
</g>
<g id="Layer_16">
</g>
<g id="Layer_15">
</g>
<g id="Layer_14">
</g>
<g id="Layer_13">
</g>
<g id="Layer_12">
</g>
<g id="Layer_11">
</g>
<g id="Layer_10">
	<path fill="#ED1C24" d="M6.569,39.354C6.569,39.354,8.494,39.354,6.569,39.354c-1.705,0-0.825-1.87-0.825-1.87l18.425-31.9
		c0,0-0.4,0.707,0,0c0.715-1.265,1.65-1.21,2.31-0.055l18.425,31.955c0,0,0.88,1.87-0.825,1.87c-1.925,0,0,0,0,0H6.569z"/>
	<polygon fill="#FFFFFF" points="25.379,13.175 37.699,34.68 12.894,34.68 	"/>
	<path fill="#FFFFFF" d="M25.337,5.911c0.09,0.088,0.249,0.28,0.478,0.687l0.003,0.007c0,0,17.433,30.438,17.694,30.893
		c0.015,0.026,0.032,0.055,0.05,0.086c0.147,0.252,0.238,0.438,0.271,0.555c-0.079,0.022-0.225,0.049-0.472,0.049H25.297H7.313
		c-0.247,0-0.393-0.026-0.472-0.049c0.033-0.116,0.124-0.303,0.271-0.555c0.018-0.031,0.035-0.06,0.05-0.086
		c0.246-0.429,15.722-27.451,17.523-30.596h0.003l0.008-0.015l-0.002-0.002c0.075-0.131,0.126-0.218,0.148-0.258l0.016-0.029
		c0.001,0,0.001-0.001,0.002-0.002C25.089,6.19,25.248,5.999,25.337,5.911 M25.319,5.113c-0.007,0-0.015,0.001-0.022,0.001v0.003
		c-0.34,0.04-0.686,0.414-1.082,1.119c-0.005,0.009-0.009,0.017-0.014,0.024c0.008-0.015,0.014-0.024,0.014-0.024
		C24.208,6.247,6.782,36.674,6.521,37.13c-0.261,0.455-1.156,1.795,0.792,1.795h17.983h18.065c1.948,0,1.053-1.34,0.792-1.795
		C43.894,36.674,26.46,6.236,26.46,6.236C26.041,5.489,25.678,5.113,25.319,5.113 M24.044,6.538c0,0,0.003-0.005,0.008-0.015
		C24.048,6.533,24.044,6.538,24.044,6.538"/>
	<path d="M23.993,23.814c-1.301,0.473-2.295,1.586-2.599,2.959l0.003-0.005l1.016-0.143c0.313-0.092,0.537,0.085,0.34,0.362
		l-2.148,2.566c-0.194,0.229-0.339,0.217-0.49-0.044l-1.661-2.904c-0.145-0.308,0.107-0.442,0.398-0.297l0.834,0.274l-0.002-0.001
		c0.384-2.018,1.81-3.667,3.698-4.365L23.993,23.814z"/>
	<path d="M22.775,30.8c1.06,0.891,2.521,1.194,3.862,0.771l-0.005-0.001l-0.631-0.809c-0.237-0.225-0.195-0.507,0.143-0.475
		l3.297,0.576c0.295,0.054,0.357,0.186,0.207,0.445l-1.685,2.893c-0.194,0.279-0.437,0.129-0.456-0.197l-0.18-0.858v0.002
		c-1.939,0.676-4.08,0.266-5.629-1.021L22.775,30.8z"/>
	<path d="M29.434,28.361c0.241-1.362-0.227-2.779-1.263-3.73l0.001,0.005l-0.384,0.951c-0.076,0.317-0.342,0.423-0.483,0.113
		l-1.149-3.144c-0.102-0.282-0.018-0.402,0.283-0.402l3.347,0.015c0.338,0.027,0.329,0.313,0.057,0.492l-0.654,0.586l0.001-0.001
		c1.556,1.342,2.271,3.4,1.932,5.385L29.434,28.361z"/>
	<rect fill="none" width="50.315" height="44"/>
</g>
<g id="Layer_9">
</g>
<g id="Layer_8">
</g>
<g id="Layer_7">
</g>
<g id="Layer_6">
</g>
<g id="Layer_5">
</g>
<g id="Layer_4">
</g>
<g id="Layer_3">
</g>
<g id="Layer_2">
</g>
</svg>
