<?xml version="1.0" encoding="utf-8"?>
<!-- Generator: Adobe Illustrator 16.0.0, SVG Export Plug-In . SVG Version: 6.00 Build 0)  -->
<!DOCTYPE svg PUBLIC "-//W3C//DTD SVG 1.1//EN" "http://www.w3.org/Graphics/SVG/1.1/DTD/svg11.dtd">
<svg version="1.1" xmlns="http://www.w3.org/2000/svg" xmlns:xlink="http://www.w3.org/1999/xlink" x="0px" y="0px"
	 width="42.584px" height="24.235px" viewBox="0 0 42.584 24.235" enable-background="new 0 0 42.584 24.235" xml:space="preserve">
<g id="Layer_15">
</g>
<g id="Layer_14">
</g>
<g id="Layer_13">
</g>
<g id="Layer_12">
</g>
<g id="Layer_11">
</g>
<g id="Layer_10">
</g>
<g id="Layer_9">
</g>
<g id="Layer_8">
</g>
<g id="Layer_7">
</g>
<g id="Layer_6">
</g>
<g id="Layer_5">
</g>
<g id="Layer_4">
</g>
<g id="Layer_3">
</g>
<g id="Layer_2">
	<rect fill="#007DC5" width="42.584" height="24.235"/>
	<path fill="#FFFFFF" d="M0.863,3.553l0.043-0.518l0.162-0.508l0.248-0.464l0.336-0.41l0.41-0.335l0.465-0.249l0.496-0.151
		l0.529-0.054h35.479l0.529,0.054l0.496,0.151l0.475,0.249l0.4,0.335l0.346,0.41l0.238,0.464l0.161,0.508l0.043,0.518v17.129
		L41.677,21.2l-0.161,0.508l-0.238,0.464l-0.346,0.411l-0.4,0.334l-0.475,0.249l-0.496,0.151l-0.529,0.054H3.553l-0.529-0.054
		l-0.496-0.151l-0.465-0.249l-0.41-0.334l-0.336-0.411l-0.248-0.464L0.906,21.2l-0.043-0.518V3.553z M39.031,23.911l0.625-0.065
		l0.617-0.183l0.562-0.292l0.485-0.41l0.399-0.486l0.304-0.562l0.183-0.605l0.054-0.626V3.553l-0.054-0.626l-0.183-0.605L41.72,1.76
		L41.32,1.274l-0.485-0.41l-0.562-0.292l-0.617-0.183l-0.625-0.065H3.553L2.927,0.389L2.322,0.572L1.76,0.864l-0.497,0.41
		L0.863,1.76L0.572,2.322L0.389,2.927L0.324,3.553v17.129l0.064,0.626l0.184,0.605l0.291,0.562l0.399,0.486l0.497,0.41l0.563,0.292
		l0.604,0.183l0.626,0.065H39.031z"/>
	<polygon fill="#FFFFFF" points="6.609,6.956 6.739,9.915 4.838,9.915 4.979,6.956 2.905,7.441 2.786,7.441 2.668,7.398 2.57,7.312 
		2.527,7.193 2.527,7.063 2.57,6.944 5.518,2.679 5.562,2.636 5.605,2.592 5.67,2.56 5.723,2.539 5.799,2.539 5.854,2.539 
		5.918,2.56 5.973,2.592 6.026,2.636 6.069,2.679 9.018,6.944 9.062,7.063 9.062,7.193 9.008,7.312 8.92,7.398 8.801,7.441 
		8.672,7.441 	"/>
	<polygon fill="#FFFFFF" points="25.855,8.867 25.908,9.159 26.07,9.407 26.318,9.569 26.611,9.623 39.322,9.623 39.613,9.569 
		39.863,9.407 40.025,9.159 40.079,8.867 40.079,3.867 40.025,3.575 39.863,3.338 39.613,3.176 39.322,3.122 26.611,3.122 
		26.318,3.176 26.07,3.338 25.908,3.575 25.855,3.867 	"/>
	<polygon fill="#ED1C24" points="26.179,3.867 26.211,3.705 26.309,3.565 26.449,3.467 26.611,3.435 39.322,3.435 39.484,3.467 
		39.636,3.565 39.722,3.705 39.755,3.867 39.755,8.867 39.722,9.04 39.636,9.181 39.484,9.267 39.322,9.299 26.611,9.299 
		26.449,9.267 26.309,9.181 26.211,9.04 26.179,8.867 	"/>
	<path fill="#FFFFFF" d="M29.376,4.73l1.382,3.283h-0.583l-0.347-0.81h-1.436l-0.345,0.81h-0.573l1.383-3.283H29.376z M28.619,6.675
		h0.994l-0.486-1.177L28.619,6.675z"/>
	<path fill="none" stroke="#ED1C24" stroke-width="0.045" d="M29.376,4.73l1.382,3.283h-0.583l-0.347-0.81h-1.436l-0.345,0.81
		h-0.573l1.383-3.283H29.376z M28.619,6.675h0.994l-0.486-1.177L28.619,6.675z"/>
	<path fill="#FFFFFF" d="M34.549,4.73v2.117h0.508v0.497h-0.508v0.669H34.02V7.345h-1.998V6.848L34.02,4.73H34.549z M32.713,6.848
		h1.307V5.466L32.713,6.848z"/>
	<path fill="none" stroke="#ED1C24" stroke-width="0.045" d="M34.549,4.73v2.117h0.508v0.497h-0.508v0.669H34.02V7.345h-1.998V6.848
		L34.02,4.73H34.549z M32.713,6.848h1.307V5.466L32.713,6.848z"/>
	<path fill="#FFFFFF" d="M37.951,4.73v2.117h0.508v0.497h-0.508v0.669h-0.529V7.345h-1.998V6.848l1.998-2.117H37.951z M36.115,6.848
		h1.307V5.466L36.115,6.848z"/>
	<path fill="none" stroke="#ED1C24" stroke-width="0.045" d="M37.951,4.73v2.117h0.508v0.497h-0.508v0.669h-0.529V7.345h-1.998
		V6.848l1.998-2.117H37.951z M36.115,6.848h1.307V5.466L36.115,6.848z"/>
	<path fill="#FFFFFF" d="M5.238,17.842l1.371,3.272H6.025l-0.334-0.799H4.244l-0.346,0.799H3.326l1.383-3.272H5.238z M4.471,19.786
		h1.004l-0.496-1.188L4.471,19.786z"/>
	<path fill="none" stroke="#007DC5" stroke-width="0.045" d="M5.238,17.842l1.371,3.272H6.025l-0.334-0.799H4.244l-0.346,0.799
		H3.326l1.383-3.272H5.238z M4.471,19.786h1.004l-0.496-1.188L4.471,19.786z"/>
	<polygon fill="#FFFFFF" points="8.11,18.652 8.11,18.868 8.153,18.825 8.207,18.781 8.295,18.727 8.435,18.674 8.586,18.641 
		8.748,18.63 8.932,18.641 9.115,18.706 9.256,18.781 9.353,18.856 9.406,18.911 9.438,18.954 9.482,18.911 9.547,18.856 
		9.666,18.771 9.816,18.685 9.979,18.641 10.162,18.63 10.4,18.663 10.638,18.76 10.821,18.911 10.961,19.116 11.037,19.354 
		11.069,19.624 11.069,21.114 10.476,21.114 10.476,19.646 10.443,19.483 10.347,19.343 10.205,19.246 10.033,19.213 9.871,19.246 
		9.73,19.343 9.633,19.483 9.59,19.656 9.59,21.114 9.006,21.114 9.006,19.646 8.963,19.473 8.877,19.333 8.736,19.235 
		8.564,19.203 8.392,19.224 8.25,19.321 8.143,19.473 8.11,19.635 8.11,21.114 7.517,21.114 7.517,18.652 	"/>
	<polygon fill="none" stroke="#007DC5" stroke-width="0.045" points="8.11,18.652 8.11,18.868 8.153,18.825 8.207,18.781 
		8.295,18.727 8.435,18.674 8.586,18.641 8.748,18.63 8.932,18.641 9.115,18.706 9.256,18.781 9.353,18.856 9.406,18.911 
		9.438,18.954 9.482,18.911 9.547,18.856 9.666,18.771 9.816,18.685 9.979,18.641 10.162,18.63 10.4,18.663 10.638,18.76 
		10.821,18.911 10.961,19.116 11.037,19.354 11.069,19.624 11.069,21.114 10.476,21.114 10.476,19.646 10.443,19.483 10.347,19.343 
		10.205,19.246 10.033,19.213 9.871,19.246 9.73,19.343 9.633,19.483 9.59,19.656 9.59,21.114 9.006,21.114 9.006,19.646 
		8.963,19.473 8.877,19.333 8.736,19.235 8.564,19.203 8.392,19.224 8.25,19.321 8.143,19.473 8.11,19.635 8.11,21.114 
		7.517,21.114 7.517,18.652 	"/>
	<polygon fill="#FFFFFF" points="14.083,18.954 13.835,19.429 13.781,19.397 13.716,19.343 13.586,19.278 13.424,19.224 
		13.251,19.181 13.1,19.17 12.98,19.181 12.895,19.202 12.818,19.224 12.775,19.278 12.755,19.332 12.744,19.386 12.755,19.451 
		12.775,19.494 12.818,19.537 12.884,19.57 13.673,19.829 13.855,19.937 13.997,20.088 14.083,20.261 14.105,20.455 14.083,20.639 
		13.997,20.801 13.855,20.941 13.65,21.06 13.393,21.136 13.1,21.168 12.852,21.146 12.604,21.092 12.355,21.017 12.171,20.93 
		12.085,20.876 12.031,20.844 12.29,20.347 12.355,20.39 12.42,20.444 12.561,20.509 12.744,20.574 12.938,20.617 13.111,20.628 
		13.24,20.628 13.338,20.617 13.413,20.585 13.467,20.531 13.5,20.477 13.511,20.423 13.5,20.358 13.479,20.293 13.424,20.261 
		13.338,20.218 12.636,19.969 12.432,19.872 12.279,19.732 12.193,19.548 12.171,19.343 12.193,19.148 12.279,18.986 12.398,18.846 
		12.57,18.738 12.798,18.673 13.068,18.641 13.35,18.662 13.597,18.716 13.791,18.792 13.953,18.868 14.029,18.922 	"/>
	<polygon fill="none" stroke="#007DC5" stroke-width="0.045" points="14.083,18.954 13.835,19.429 13.781,19.397 13.716,19.343 
		13.586,19.278 13.424,19.224 13.251,19.181 13.1,19.17 12.98,19.181 12.895,19.202 12.818,19.224 12.775,19.278 12.755,19.332 
		12.744,19.386 12.755,19.451 12.775,19.494 12.818,19.537 12.884,19.57 13.673,19.829 13.855,19.937 13.997,20.088 14.083,20.261 
		14.105,20.455 14.083,20.639 13.997,20.801 13.855,20.941 13.65,21.06 13.393,21.136 13.1,21.168 12.852,21.146 12.604,21.092 
		12.355,21.017 12.171,20.93 12.085,20.876 12.031,20.844 12.29,20.347 12.355,20.39 12.42,20.444 12.561,20.509 12.744,20.574 
		12.938,20.617 13.111,20.628 13.24,20.628 13.338,20.617 13.413,20.585 13.467,20.531 13.5,20.477 13.511,20.423 13.5,20.358 
		13.479,20.293 13.424,20.261 13.338,20.218 12.636,19.969 12.432,19.872 12.279,19.732 12.193,19.548 12.171,19.343 12.193,19.148 
		12.279,18.986 12.398,18.846 12.57,18.738 12.798,18.673 13.068,18.641 13.35,18.662 13.597,18.716 13.791,18.792 13.953,18.868 
		14.029,18.922 	"/>
	<polygon fill="#FFFFFF" points="15.832,17.842 15.832,18.663 16.426,18.663 16.426,19.213 15.832,19.213 15.832,20.357 
		15.832,20.412 15.844,20.466 15.865,20.52 15.918,20.563 15.983,20.584 16.049,20.606 16.125,20.596 16.199,20.584 16.265,20.553 
		16.34,20.51 16.404,20.477 16.459,20.434 16.33,21.039 16.287,21.07 16.222,21.093 16.146,21.125 16.049,21.146 15.951,21.158 
		15.854,21.158 15.746,21.146 15.639,21.114 15.53,21.06 15.433,20.984 15.347,20.876 15.281,20.758 15.25,20.627 15.238,20.488 
		15.238,19.213 14.807,19.213 14.807,18.663 15.238,18.663 15.238,18.068 	"/>
	<polygon fill="none" stroke="#007DC5" stroke-width="0.045" points="15.832,17.842 15.832,18.663 16.426,18.663 16.426,19.213 
		15.832,19.213 15.832,20.357 15.832,20.412 15.844,20.466 15.865,20.52 15.918,20.563 15.983,20.584 16.049,20.606 16.125,20.596 
		16.199,20.584 16.265,20.553 16.34,20.51 16.404,20.477 16.459,20.434 16.33,21.039 16.287,21.07 16.222,21.093 16.146,21.125 
		16.049,21.146 15.951,21.158 15.854,21.158 15.746,21.146 15.639,21.114 15.53,21.06 15.433,20.984 15.347,20.876 15.281,20.758 
		15.25,20.627 15.238,20.488 15.238,19.213 14.807,19.213 14.807,18.663 15.238,18.663 15.238,18.068 	"/>
	<path fill="#FFFFFF" d="M19.311,20.023h-1.502v0.065l0.012,0.086l0.021,0.097l0.043,0.108l0.075,0.098l0.097,0.086l0.098,0.054
		l0.107,0.021l0.108-0.01l0.108-0.033l0.086-0.032l0.076-0.043l0.043-0.033l0.055-0.032l0.388,0.302l-0.054,0.065l-0.075,0.065
		l-0.142,0.097l-0.193,0.086l-0.216,0.054l-0.216,0.022l-0.248-0.043l-0.238-0.108l-0.205-0.173l-0.173-0.227l-0.108-0.313
		l-0.043-0.389l0.032-0.378l0.119-0.335l0.162-0.226l0.194-0.173l0.26-0.108l0.27-0.043l0.27,0.021l0.271,0.108l0.248,0.195
		l0.173,0.27l0.075,0.302l0.022,0.259v0.098v0.053V20.023z M18.717,19.526l-0.012-0.054l-0.031-0.065l-0.044-0.075l-0.065-0.076
		l-0.086-0.065l-0.098-0.043l-0.119-0.011l-0.107,0.011l-0.098,0.054l-0.074,0.054l-0.055,0.076l-0.054,0.075l-0.022,0.065
		l-0.01,0.043l-0.012,0.065h0.896L18.717,19.526z"/>
	<path fill="none" stroke="#007DC5" stroke-width="0.045" d="M19.311,20.023h-1.502v0.065l0.012,0.086l0.021,0.097l0.043,0.108
		l0.075,0.098l0.097,0.086l0.098,0.054l0.107,0.021l0.108-0.01l0.108-0.033l0.086-0.032l0.076-0.043l0.043-0.033l0.055-0.032
		l0.388,0.302l-0.054,0.065l-0.075,0.065l-0.142,0.097l-0.193,0.086l-0.216,0.054l-0.216,0.022l-0.248-0.043l-0.238-0.108
		l-0.205-0.173l-0.173-0.227l-0.108-0.313l-0.043-0.389l0.032-0.378l0.119-0.335l0.162-0.226l0.194-0.173l0.26-0.108l0.27-0.043
		l0.27,0.021l0.271,0.108l0.248,0.195l0.173,0.27l0.075,0.302l0.022,0.259v0.098v0.053V20.023z M18.717,19.526l-0.012-0.054
		l-0.031-0.065l-0.044-0.075l-0.065-0.076l-0.086-0.065l-0.098-0.043l-0.119-0.011l-0.107,0.011l-0.098,0.054l-0.074,0.054
		l-0.055,0.076l-0.054,0.075l-0.022,0.065l-0.01,0.043l-0.012,0.065h0.896L18.717,19.526z"/>
	<polygon fill="#FFFFFF" points="20.941,18.652 20.941,18.856 20.973,18.825 21.027,18.781 21.104,18.727 21.222,18.674 
		21.352,18.63 21.48,18.619 21.611,18.63 21.708,18.663 21.794,18.695 21.859,18.717 21.902,18.749 21.945,18.771 21.773,19.386 
		21.74,19.354 21.708,19.321 21.654,19.289 21.578,19.246 21.492,19.224 21.395,19.213 21.297,19.235 21.199,19.268 21.081,19.354 
		20.995,19.462 20.951,19.581 20.941,19.731 20.941,21.125 20.347,21.125 20.347,18.652 	"/>
	<polygon fill="none" stroke="#007DC5" stroke-width="0.045" points="20.941,18.652 20.941,18.856 20.973,18.825 21.027,18.781 
		21.104,18.727 21.222,18.674 21.352,18.63 21.48,18.619 21.611,18.63 21.708,18.663 21.794,18.695 21.859,18.717 21.902,18.749 
		21.945,18.771 21.773,19.386 21.74,19.354 21.708,19.321 21.654,19.289 21.578,19.246 21.492,19.224 21.395,19.213 21.297,19.235 
		21.199,19.268 21.081,19.354 20.995,19.462 20.951,19.581 20.941,19.731 20.941,21.125 20.347,21.125 20.347,18.652 	"/>
	<path fill="#FFFFFF" d="M23.986,17.971l0.583-0.216v3.37h-0.583v-0.151l-0.054,0.032l-0.087,0.054l-0.172,0.054l-0.238,0.033
		l-0.248-0.033l-0.216-0.097l-0.194-0.173l-0.162-0.238l-0.119-0.323l-0.054-0.357l0.043-0.378l0.119-0.335l0.173-0.27l0.194-0.172
		l0.216-0.098l0.236-0.032l0.238,0.032l0.174,0.065l0.086,0.054l0.064,0.043V17.971z M23.986,19.397l-0.043-0.043L23.89,19.3
		l-0.13-0.065l-0.174-0.032l-0.162,0.032L23.285,19.3l-0.109,0.108l-0.074,0.14l-0.055,0.173l-0.01,0.194l0.021,0.206l0.065,0.172
		l0.086,0.13l0.107,0.086l0.13,0.065l0.14,0.011l0.152-0.022l0.118-0.054l0.076-0.065l0.054-0.053V19.397z"/>
	<path fill="none" stroke="#007DC5" stroke-width="0.045" d="M23.986,17.971l0.583-0.216v3.37h-0.583v-0.151l-0.054,0.032
		l-0.087,0.054l-0.172,0.054l-0.238,0.033l-0.248-0.033l-0.216-0.097l-0.194-0.173l-0.162-0.238l-0.119-0.323l-0.054-0.357
		l0.043-0.378l0.119-0.335l0.173-0.27l0.194-0.172l0.216-0.098l0.236-0.032l0.238,0.032l0.174,0.065l0.086,0.054l0.064,0.043V17.971
		z M23.986,19.397l-0.043-0.043L23.89,19.3l-0.13-0.065l-0.174-0.032l-0.162,0.032L23.285,19.3l-0.109,0.108l-0.074,0.14
		l-0.055,0.173l-0.01,0.194l0.021,0.206l0.065,0.172l0.086,0.13l0.107,0.086l0.13,0.065l0.14,0.011l0.152-0.022l0.118-0.054
		l0.076-0.065l0.054-0.053V19.397z"/>
	<path fill="#FFFFFF" d="M27.627,19.473v1.652h-0.584v-0.13l-0.065,0.022l-0.063,0.022l-0.108,0.043l-0.142,0.032l-0.15,0.033
		h-0.162l-0.15-0.022l-0.174-0.065l-0.184-0.119l-0.161-0.173l-0.099-0.205l-0.031-0.216l0.021-0.216l0.086-0.205l0.131-0.184
		l0.193-0.14l0.248-0.097l0.26-0.032l0.227,0.01l0.162,0.043l0.097,0.033l0.076,0.032v-0.118l-0.011-0.098L27,19.3l-0.055-0.076
		l-0.086-0.054l-0.098-0.032l-0.129-0.011l-0.141,0.011l-0.141,0.021l-0.14,0.044l-0.108,0.043l-0.064,0.032l-0.065,0.033
		l-0.216-0.4l0.064-0.033l0.076-0.043l0.161-0.075l0.206-0.065l0.205-0.043l0.227-0.011l0.227,0.021l0.249,0.065l0.228,0.141
		l0.139,0.184l0.065,0.194L27.627,19.473z M27,20.045l-0.043-0.022l-0.076-0.043l-0.107-0.032l-0.119-0.022l-0.129-0.011
		l-0.119,0.022l-0.108,0.043l-0.076,0.065l-0.054,0.076l-0.032,0.075l-0.011,0.076l0.011,0.086l0.022,0.086l0.063,0.065l0.087,0.076
		l0.098,0.043l0.119,0.022h0.118l0.13-0.033l0.107-0.032l0.076-0.043l0.054-0.022l0.032-0.032v-0.411L27,20.045z"/>
	<path fill="none" stroke="#007DC5" stroke-width="0.045" d="M27.627,19.473v1.652h-0.584v-0.13l-0.065,0.022l-0.063,0.022
		l-0.108,0.043l-0.142,0.032l-0.15,0.033h-0.162l-0.15-0.022l-0.174-0.065l-0.184-0.119l-0.161-0.173l-0.099-0.205l-0.031-0.216
		l0.021-0.216l0.086-0.205l0.131-0.184l0.193-0.14l0.248-0.097l0.26-0.032l0.227,0.01l0.162,0.043l0.097,0.033l0.076,0.032v-0.118
		l-0.011-0.098L27,19.3l-0.055-0.076l-0.086-0.054l-0.098-0.032l-0.129-0.011l-0.141,0.011l-0.141,0.021l-0.14,0.044l-0.108,0.043
		l-0.064,0.032l-0.065,0.033l-0.216-0.4l0.064-0.033l0.076-0.043l0.161-0.075l0.206-0.065l0.205-0.043l0.227-0.011l0.227,0.021
		l0.249,0.065l0.228,0.141l0.139,0.184l0.065,0.194L27.627,19.473z M27,20.045l-0.043-0.022l-0.076-0.043l-0.107-0.032l-0.119-0.022
		l-0.129-0.011l-0.119,0.022l-0.108,0.043l-0.076,0.065l-0.054,0.076l-0.032,0.075l-0.011,0.076l0.011,0.086l0.022,0.086
		l0.063,0.065l0.087,0.076l0.098,0.043l0.119,0.022h0.118l0.13-0.033l0.107-0.032l0.076-0.043l0.054-0.022l0.032-0.032v-0.411
		L27,20.045z"/>
	<polygon fill="#FFFFFF" points="29.483,18.652 29.483,18.868 29.527,18.825 29.58,18.781 29.668,18.727 29.797,18.674 
		29.959,18.641 30.121,18.63 30.305,18.641 30.488,18.706 30.617,18.781 30.715,18.856 30.769,18.911 30.812,18.954 30.855,18.911 
		30.92,18.856 31.039,18.771 31.19,18.685 31.342,18.641 31.535,18.63 31.773,18.663 32,18.76 32.195,18.911 32.334,19.116 
		32.41,19.354 32.442,19.624 32.442,21.114 31.849,21.114 31.849,19.646 31.816,19.483 31.72,19.343 31.578,19.246 31.406,19.213 
		31.244,19.246 31.104,19.343 30.996,19.483 30.963,19.656 30.963,21.114 30.369,21.114 30.369,19.646 30.336,19.473 30.25,19.333 
		30.111,19.235 29.949,19.203 29.775,19.224 29.613,19.321 29.517,19.473 29.483,19.635 29.483,21.114 28.89,21.114 28.89,18.652 	
		"/>
	<polygon fill="none" stroke="#007DC5" stroke-width="0.045" points="29.483,18.652 29.483,18.868 29.527,18.825 29.58,18.781 
		29.668,18.727 29.797,18.674 29.959,18.641 30.121,18.63 30.305,18.641 30.488,18.706 30.617,18.781 30.715,18.856 30.769,18.911 
		30.812,18.954 30.855,18.911 30.92,18.856 31.039,18.771 31.19,18.685 31.342,18.641 31.535,18.63 31.773,18.663 32,18.76 
		32.195,18.911 32.334,19.116 32.41,19.354 32.442,19.624 32.442,21.114 31.849,21.114 31.849,19.646 31.816,19.483 31.72,19.343 
		31.578,19.246 31.406,19.213 31.244,19.246 31.104,19.343 30.996,19.483 30.963,19.656 30.963,21.114 30.369,21.114 30.369,19.646 
		30.336,19.473 30.25,19.333 30.111,19.235 29.949,19.203 29.775,19.224 29.613,19.321 29.517,19.473 29.483,19.635 29.483,21.114 
		28.89,21.114 28.89,18.652 	"/>
	<polygon fill="#FFFFFF" points="36.19,19.764 36.233,19.797 36.276,19.84 36.342,19.926 36.406,20.045 36.449,20.185 
		36.461,20.326 36.449,20.488 36.396,20.639 36.287,20.801 36.115,20.941 35.953,21.039 35.791,21.092 35.619,21.136 35.435,21.147 
		35.219,21.114 34.971,21.028 34.732,20.887 34.646,20.812 34.582,20.736 34.527,20.661 34.494,20.617 34.83,20.401 34.862,20.444 
		34.905,20.509 35.002,20.585 35.133,20.671 35.283,20.725 35.457,20.747 35.629,20.725 35.791,20.682 35.92,20.596 36.006,20.509 
		36.061,20.412 36.071,20.326 36.051,20.239 36.018,20.153 35.942,20.088 35.855,20.034 35.77,20.002 35.672,19.991 35.457,19.991 
		35.457,19.591 35.662,19.591 35.727,19.591 35.791,19.57 35.845,19.537 35.898,19.483 35.932,19.408 35.932,19.343 35.92,19.256 
		35.877,19.181 35.813,19.116 35.715,19.062 35.607,19.03 35.478,19.019 35.349,19.03 35.219,19.062 35.1,19.116 35.014,19.17 
		34.971,19.213 34.926,19.256 34.635,18.986 34.679,18.943 34.732,18.889 34.862,18.803 35.035,18.706 35.24,18.652 35.467,18.63 
		35.715,18.652 35.942,18.727 36.125,18.857 36.244,19.019 36.31,19.181 36.33,19.343 36.31,19.516 36.256,19.645 36.223,19.71 	"/>
	<polygon fill="none" stroke="#007DC5" stroke-width="0.045" points="36.19,19.764 36.233,19.797 36.276,19.84 36.342,19.926 
		36.406,20.045 36.449,20.185 36.461,20.326 36.449,20.488 36.396,20.639 36.287,20.801 36.115,20.941 35.953,21.039 35.791,21.092 
		35.619,21.136 35.435,21.147 35.219,21.114 34.971,21.028 34.732,20.887 34.646,20.812 34.582,20.736 34.527,20.661 34.494,20.617 
		34.83,20.401 34.862,20.444 34.905,20.509 35.002,20.585 35.133,20.671 35.283,20.725 35.457,20.747 35.629,20.725 35.791,20.682 
		35.92,20.596 36.006,20.509 36.061,20.412 36.071,20.326 36.051,20.239 36.018,20.153 35.942,20.088 35.855,20.034 35.77,20.002 
		35.672,19.991 35.457,19.991 35.457,19.591 35.662,19.591 35.727,19.591 35.791,19.57 35.845,19.537 35.898,19.483 35.932,19.408 
		35.932,19.343 35.92,19.256 35.877,19.181 35.813,19.116 35.715,19.062 35.607,19.03 35.478,19.019 35.349,19.03 35.219,19.062 
		35.1,19.116 35.014,19.17 34.971,19.213 34.926,19.256 34.635,18.986 34.679,18.943 34.732,18.889 34.862,18.803 35.035,18.706 
		35.24,18.652 35.467,18.63 35.715,18.652 35.942,18.727 36.125,18.857 36.244,19.019 36.31,19.181 36.33,19.343 36.31,19.516 
		36.256,19.645 36.223,19.71 	"/>
	<path fill="#FFFFFF" d="M38.879,18.652v1.598h0.379v0.367h-0.379v0.508h-0.41v-0.508h-1.489V20.25l1.489-1.598H38.879z
		 M37.498,20.25h0.971v-1.047L37.498,20.25z"/>
	<path fill="none" stroke="#007DC5" stroke-width="0.045" d="M38.879,18.652v1.598h0.379v0.367h-0.379v0.508h-0.41v-0.508h-1.489
		V20.25l1.489-1.598H38.879z M37.498,20.25h0.971v-1.047L37.498,20.25z"/>
	<polygon fill="#FFFFFF" points="5.951,12.096 5.951,15.379 5.422,15.379 5.422,13.899 3.867,13.899 3.867,15.379 3.326,15.379 
		3.326,12.096 3.867,12.096 3.867,13.36 5.422,13.36 5.422,12.096 	"/>
	<polygon fill="none" stroke="#007DC5" stroke-width="0.045" points="5.951,12.096 5.951,15.379 5.422,15.379 5.422,13.899 
		3.867,13.899 3.867,15.379 3.326,15.379 3.326,12.096 3.867,12.096 3.867,13.36 5.422,13.36 5.422,12.096 	"/>
	<path fill="#FFFFFF" d="M9.137,13.716v1.663H8.553l-0.011-0.13l-0.054,0.022l-0.064,0.022l-0.119,0.043l-0.141,0.032l-0.15,0.033
		H7.862l-0.151-0.022l-0.173-0.065l-0.185-0.118l-0.162-0.173l-0.096-0.206l-0.043-0.215l0.031-0.217L7.16,14.17l0.13-0.173
		l0.194-0.141l0.248-0.097l0.26-0.032l0.227,0.011l0.172,0.043l0.088,0.032l0.074,0.033v-0.13L8.542,13.63l-0.043-0.087
		l-0.054-0.075L8.37,13.424l-0.108-0.032l-0.129-0.011l-0.141,0.011l-0.141,0.022l-0.129,0.043L7.614,13.5l-0.076,0.033
		l-0.054,0.032l-0.217-0.4l0.055-0.032l0.086-0.043l0.162-0.076l0.195-0.065l0.215-0.043l0.217-0.011l0.236,0.022l0.238,0.065
		l0.227,0.14l0.152,0.184L9.115,13.5L9.137,13.716z M8.51,14.299l-0.054-0.032L8.38,14.234l-0.097-0.032L8.164,14.17H8.035
		l-0.119,0.021l-0.107,0.043l-0.086,0.065l-0.055,0.076L7.635,14.45l-0.011,0.076l0.011,0.086l0.033,0.087l0.055,0.065l0.086,0.075
		l0.107,0.043l0.107,0.022h0.131l0.117-0.033l0.108-0.032l0.087-0.043l0.043-0.032l0.043-0.022v-0.421L8.51,14.299z"/>
	<path fill="none" stroke="#007DC5" stroke-width="0.045" d="M9.137,13.716v1.663H8.553l-0.011-0.13l-0.054,0.022l-0.064,0.022
		l-0.119,0.043l-0.141,0.032l-0.15,0.033H7.862l-0.151-0.022l-0.173-0.065l-0.185-0.118l-0.162-0.173l-0.096-0.206l-0.043-0.215
		l0.031-0.217L7.16,14.17l0.13-0.173l0.194-0.141l0.248-0.097l0.26-0.032l0.227,0.011l0.172,0.043l0.088,0.032l0.074,0.033v-0.13
		L8.542,13.63l-0.043-0.087l-0.054-0.075L8.37,13.424l-0.108-0.032l-0.129-0.011l-0.141,0.011l-0.141,0.022l-0.129,0.043L7.614,13.5
		l-0.076,0.033l-0.054,0.032l-0.217-0.4l0.055-0.032l0.086-0.043l0.162-0.076l0.195-0.065l0.215-0.043l0.217-0.011l0.236,0.022
		l0.238,0.065l0.227,0.14l0.152,0.184L9.115,13.5L9.137,13.716z M8.51,14.299l-0.054-0.032L8.38,14.234l-0.097-0.032L8.164,14.17
		H8.035l-0.119,0.021l-0.107,0.043l-0.086,0.065l-0.055,0.076L7.635,14.45l-0.011,0.076l0.011,0.086l0.033,0.087l0.055,0.065
		l0.086,0.075l0.107,0.043l0.107,0.022h0.131l0.117-0.033l0.108-0.032l0.087-0.043l0.043-0.032l0.043-0.022v-0.421L8.51,14.299z"/>
	<path fill="#FFFFFF" d="M12.182,13.716v1.663h-0.583v-0.13l-0.065,0.022l-0.063,0.022l-0.108,0.043l-0.141,0.032l-0.15,0.033
		h-0.162l-0.151-0.022l-0.173-0.065L10.4,15.196l-0.152-0.173l-0.107-0.206l-0.031-0.215l0.021-0.217l0.087-0.215l0.129-0.173
		l0.195-0.141l0.236-0.097l0.271-0.032l0.228,0.011l0.161,0.043l0.097,0.032l0.076,0.033v-0.13l-0.021-0.086l-0.032-0.087
		l-0.065-0.075l-0.074-0.044l-0.098-0.032l-0.13-0.011l-0.141,0.011l-0.14,0.022l-0.141,0.043L10.66,13.5l-0.065,0.033l-0.065,0.032
		l-0.216-0.4l0.065-0.032l0.074-0.043l0.162-0.076l0.207-0.065l0.205-0.043l0.227-0.011l0.226,0.022l0.249,0.065l0.227,0.14
		l0.141,0.184L12.16,13.5L12.182,13.716z M11.556,14.299l-0.043-0.032l-0.076-0.033l-0.108-0.032l-0.119-0.032H11.08l-0.118,0.021
		l-0.108,0.043l-0.076,0.065l-0.054,0.076l-0.032,0.075l-0.011,0.076l0.011,0.086l0.022,0.087l0.063,0.065l0.088,0.075l0.097,0.043
		l0.118,0.022h0.119l0.129-0.033l0.108-0.032l0.076-0.043l0.054-0.032l0.043-0.022l-0.011-0.421L11.556,14.299z"/>
	<path fill="none" stroke="#007DC5" stroke-width="0.045" d="M12.182,13.716v1.663h-0.583v-0.13l-0.065,0.022l-0.063,0.022
		l-0.108,0.043l-0.141,0.032l-0.15,0.033h-0.162l-0.151-0.022l-0.173-0.065L10.4,15.196l-0.152-0.173l-0.107-0.206l-0.031-0.215
		l0.021-0.217l0.087-0.215l0.129-0.173l0.195-0.141l0.236-0.097l0.271-0.032l0.228,0.011l0.161,0.043l0.097,0.032l0.076,0.033v-0.13
		l-0.021-0.086l-0.032-0.087l-0.065-0.075l-0.074-0.044l-0.098-0.032l-0.13-0.011l-0.141,0.011l-0.14,0.022l-0.141,0.043L10.66,13.5
		l-0.065,0.033l-0.065,0.032l-0.216-0.4l0.065-0.032l0.074-0.043l0.162-0.076l0.207-0.065l0.205-0.043l0.227-0.011l0.226,0.022
		l0.249,0.065l0.227,0.14l0.141,0.184L12.16,13.5L12.182,13.716z M11.556,14.299l-0.043-0.032l-0.076-0.033l-0.108-0.032
		l-0.119-0.032H11.08l-0.118,0.021l-0.108,0.043l-0.076,0.065l-0.054,0.076l-0.032,0.075l-0.011,0.076l0.011,0.086l0.022,0.087
		l0.063,0.065l0.088,0.075l0.097,0.043l0.118,0.022h0.119l0.129-0.033l0.108-0.032l0.076-0.043l0.054-0.032l0.043-0.022
		l-0.011-0.421L11.556,14.299z"/>
	<polygon fill="#FFFFFF" points="14.029,12.906 14.029,13.111 14.072,13.079 14.115,13.036 14.202,12.982 14.311,12.928 
		14.439,12.884 14.58,12.875 14.699,12.884 14.807,12.906 14.893,12.938 14.947,12.971 14.99,12.992 15.033,13.025 14.861,13.64 
		14.828,13.608 14.796,13.576 14.742,13.532 14.666,13.5 14.58,13.479 14.492,13.467 14.396,13.479 14.288,13.522 14.169,13.597 
		14.094,13.716 14.04,13.835 14.029,13.986 14.029,15.368 13.436,15.368 13.436,12.906 	"/>
	<polygon fill="none" stroke="#007DC5" stroke-width="0.045" points="14.029,12.906 14.029,13.111 14.072,13.079 14.115,13.036 
		14.202,12.982 14.311,12.928 14.439,12.884 14.58,12.875 14.699,12.884 14.807,12.906 14.893,12.938 14.947,12.971 14.99,12.992 
		15.033,13.025 14.861,13.64 14.828,13.608 14.796,13.576 14.742,13.532 14.666,13.5 14.58,13.479 14.492,13.467 14.396,13.479 
		14.288,13.522 14.169,13.597 14.094,13.716 14.04,13.835 14.029,13.986 14.029,15.368 13.436,15.368 13.436,12.906 	"/>
	<polygon fill="#FFFFFF" points="15.822,12.204 15.822,15.379 16.395,15.379 16.395,11.988 	"/>
	<polygon fill="none" stroke="#007DC5" stroke-width="0.045" points="16.395,11.988 16.395,15.379 15.822,15.379 15.822,12.205 	"/>
	<path fill="#FFFFFF" d="M19.473,14.278h-1.502l0.012,0.064v0.076l0.021,0.108l0.043,0.108l0.076,0.097l0.086,0.076l0.108,0.065
		l0.107,0.01h0.098l0.119-0.032l0.086-0.043l0.076-0.033l0.043-0.032l0.055-0.043l0.388,0.313l-0.054,0.065l-0.075,0.065
		l-0.142,0.097l-0.193,0.086l-0.217,0.054l-0.215,0.022l-0.238-0.043l-0.248-0.108l-0.205-0.162l-0.173-0.238l-0.108-0.313
		l-0.043-0.378l0.032-0.4l0.119-0.324l0.151-0.226l0.215-0.173l0.25-0.108l0.279-0.043l0.271,0.021l0.26,0.108l0.248,0.195
		l0.173,0.27l0.075,0.302l0.022,0.259v0.086v0.065V14.278z M18.878,13.781l-0.011-0.054l-0.032-0.076l-0.043-0.064l-0.065-0.076
		l-0.086-0.065l-0.098-0.043l-0.119-0.011l-0.107,0.011l-0.098,0.043l-0.074,0.065l-0.065,0.076l-0.043,0.064l-0.022,0.065
		l-0.011,0.054l-0.011,0.065h0.896L18.878,13.781z"/>
	<path fill="none" stroke="#007DC5" stroke-width="0.045" d="M19.473,14.278h-1.502l0.012,0.064v0.076l0.021,0.108l0.043,0.108
		l0.076,0.097l0.086,0.076l0.108,0.065l0.107,0.01h0.098l0.119-0.032l0.086-0.043l0.076-0.033l0.043-0.032l0.055-0.043l0.388,0.313
		l-0.054,0.065l-0.075,0.065l-0.142,0.097l-0.193,0.086l-0.217,0.054l-0.215,0.022l-0.238-0.043l-0.248-0.108l-0.205-0.162
		l-0.173-0.238l-0.108-0.313l-0.043-0.378l0.032-0.4l0.119-0.324l0.151-0.226l0.215-0.173l0.25-0.108l0.279-0.043l0.271,0.021
		l0.26,0.108l0.248,0.195l0.173,0.27l0.075,0.302l0.022,0.259v0.086v0.065V14.278z M18.878,13.781l-0.011-0.054l-0.032-0.076
		l-0.043-0.064l-0.065-0.076l-0.086-0.065l-0.098-0.043l-0.119-0.011l-0.107,0.011l-0.098,0.043l-0.074,0.065l-0.065,0.076
		l-0.043,0.064l-0.022,0.065l-0.011,0.054l-0.011,0.065h0.896L18.878,13.781z"/>
	<polygon fill="#FFFFFF" points="21.104,12.906 21.104,13.122 21.156,13.079 21.199,13.036 21.297,12.982 21.427,12.928 
		21.578,12.896 21.74,12.884 21.936,12.896 22.107,12.96 22.248,13.036 22.345,13.111 22.398,13.165 22.441,13.208 22.484,13.165 
		22.55,13.111 22.658,13.025 22.809,12.938 22.971,12.896 23.166,12.884 23.402,12.917 23.63,13.014 23.824,13.165 23.965,13.36 
		24.041,13.597 24.072,13.867 24.072,15.368 23.479,15.368 23.479,13.899 23.436,13.738 23.338,13.586 23.197,13.5 23.036,13.467 
		22.874,13.5 22.723,13.597 22.626,13.738 22.593,13.91 22.593,15.368 21.999,15.368 21.999,13.899 21.967,13.728 21.87,13.586 
		21.729,13.489 21.566,13.458 21.395,13.479 21.242,13.576 21.146,13.716 21.104,13.888 21.104,15.368 20.509,15.368 20.509,12.906 
			"/>
	<polygon fill="none" stroke="#007DC5" stroke-width="0.045" points="21.104,12.906 21.104,13.122 21.156,13.079 21.199,13.036 
		21.297,12.982 21.427,12.928 21.578,12.896 21.74,12.884 21.936,12.896 22.107,12.96 22.248,13.036 22.345,13.111 22.398,13.165 
		22.441,13.208 22.484,13.165 22.55,13.111 22.658,13.025 22.809,12.938 22.971,12.896 23.166,12.884 23.402,12.917 23.63,13.014 
		23.824,13.165 23.965,13.36 24.041,13.597 24.072,13.867 24.072,15.368 23.479,15.368 23.479,13.899 23.436,13.738 23.338,13.586 
		23.197,13.5 23.036,13.467 22.874,13.5 22.723,13.597 22.626,13.738 22.593,13.91 22.593,15.368 21.999,15.368 21.999,13.899 
		21.967,13.728 21.87,13.586 21.729,13.489 21.566,13.458 21.395,13.479 21.242,13.576 21.146,13.716 21.104,13.888 21.104,15.368 
		20.509,15.368 20.509,12.906 	"/>
	<polygon fill="#FFFFFF" points="28.102,14.969 28.102,15.379 26.114,15.379 26.125,15.282 26.135,15.163 26.18,14.958 
		26.276,14.721 26.385,14.537 26.514,14.375 26.687,14.213 26.881,14.083 27.075,14.008 27.27,13.943 27.399,13.911 27.485,13.878 
		27.562,13.857 27.615,13.814 27.658,13.76 27.691,13.684 27.701,13.608 27.691,13.522 27.647,13.457 27.582,13.392 27.465,13.328 
		27.303,13.284 27.107,13.274 26.936,13.284 26.783,13.328 26.633,13.392 26.504,13.457 26.438,13.511 26.385,13.554 26.114,13.252 
		26.168,13.209 26.244,13.155 26.385,13.068 26.601,12.971 26.838,12.906 27.098,12.885 27.346,12.896 27.594,12.95 27.81,13.068 
		27.971,13.23 28.069,13.403 28.102,13.598 28.08,13.77 28.025,13.911 27.961,14.04 27.854,14.137 27.724,14.224 27.551,14.278 
		27.377,14.332 27.194,14.386 27.075,14.429 26.957,14.505 26.828,14.613 26.719,14.742 26.654,14.84 26.633,14.904 26.601,14.969 	
		"/>
	<polygon fill="none" stroke="#007DC5" stroke-width="0.045" points="28.102,14.969 28.102,15.379 26.114,15.379 26.125,15.282 
		26.135,15.163 26.18,14.958 26.276,14.721 26.385,14.537 26.514,14.375 26.687,14.213 26.881,14.083 27.075,14.008 27.27,13.943 
		27.399,13.911 27.485,13.878 27.562,13.857 27.615,13.814 27.658,13.76 27.691,13.684 27.701,13.608 27.691,13.522 27.647,13.457 
		27.582,13.392 27.465,13.328 27.303,13.284 27.107,13.274 26.936,13.284 26.783,13.328 26.633,13.392 26.504,13.457 26.438,13.511 
		26.385,13.554 26.114,13.252 26.168,13.209 26.244,13.155 26.385,13.068 26.601,12.971 26.838,12.906 27.098,12.885 27.346,12.896 
		27.594,12.95 27.81,13.068 27.971,13.23 28.069,13.403 28.102,13.598 28.08,13.77 28.025,13.911 27.961,14.04 27.854,14.137 
		27.724,14.224 27.551,14.278 27.377,14.332 27.194,14.386 27.075,14.429 26.957,14.505 26.828,14.613 26.719,14.742 26.654,14.84 
		26.633,14.904 26.601,14.969 	"/>
	<polygon fill="#FFFFFF" points="30.315,14.019 30.358,14.05 30.401,14.094 30.467,14.18 30.531,14.299 30.574,14.439 
		30.586,14.581 30.574,14.731 30.521,14.882 30.401,15.055 30.239,15.195 30.077,15.282 29.916,15.346 29.743,15.391 29.559,15.4 
		29.332,15.368 29.094,15.282 28.857,15.142 28.76,15.055 28.707,14.99 28.641,14.915 28.608,14.872 28.943,14.655 28.987,14.698 
		29.03,14.763 29.116,14.839 29.256,14.925 29.408,14.979 29.57,15.001 29.743,14.979 29.905,14.925 30.034,14.851 30.121,14.763 
		30.174,14.667 30.186,14.581 30.174,14.493 30.131,14.407 30.067,14.342 29.98,14.277 29.883,14.256 29.786,14.246 29.582,14.234 
		29.582,13.845 29.775,13.845 29.852,13.845 29.916,13.824 29.969,13.792 30.012,13.738 30.045,13.663 30.057,13.586 30.034,13.511 
		30.002,13.436 29.926,13.371 29.84,13.316 29.721,13.284 29.592,13.273 29.463,13.284 29.332,13.316 29.213,13.371 29.127,13.424 
		29.084,13.467 29.041,13.511 28.76,13.241 28.793,13.198 28.857,13.145 28.977,13.046 29.159,12.96 29.354,12.896 29.592,12.884 
		29.84,12.906 30.067,12.982 30.239,13.111 30.358,13.273 30.434,13.436 30.444,13.597 30.434,13.771 30.381,13.899 30.348,13.964 	
		"/>
	<polygon fill="none" stroke="#007DC5" stroke-width="0.045" points="30.315,14.019 30.358,14.05 30.401,14.094 30.467,14.18 
		30.531,14.299 30.574,14.439 30.586,14.581 30.574,14.731 30.521,14.882 30.401,15.055 30.239,15.195 30.077,15.282 29.916,15.346 
		29.743,15.391 29.559,15.4 29.332,15.368 29.094,15.282 28.857,15.142 28.76,15.055 28.707,14.99 28.641,14.915 28.608,14.872 
		28.943,14.655 28.987,14.698 29.03,14.763 29.116,14.839 29.256,14.925 29.408,14.979 29.57,15.001 29.743,14.979 29.905,14.925 
		30.034,14.851 30.121,14.763 30.174,14.667 30.186,14.581 30.174,14.493 30.131,14.407 30.067,14.342 29.98,14.277 29.883,14.256 
		29.786,14.246 29.582,14.234 29.582,13.845 29.775,13.845 29.852,13.845 29.916,13.824 29.969,13.792 30.012,13.738 30.045,13.663 
		30.057,13.586 30.034,13.511 30.002,13.436 29.926,13.371 29.84,13.316 29.721,13.284 29.592,13.273 29.463,13.284 29.332,13.316 
		29.213,13.371 29.127,13.424 29.084,13.467 29.041,13.511 28.76,13.241 28.793,13.198 28.857,13.145 28.977,13.046 29.159,12.96 
		29.354,12.896 29.592,12.884 29.84,12.906 30.067,12.982 30.239,13.111 30.358,13.273 30.434,13.436 30.444,13.597 30.434,13.771 
		30.381,13.899 30.348,13.964 	"/>
</g>
</svg>
