<?xml version="1.0" encoding="utf-8"?>
<!-- Generator: Adobe Illustrator 16.0.0, SVG Export Plug-In . SVG Version: 6.00 Build 0)  -->
<!DOCTYPE svg PUBLIC "-//W3C//DTD SVG 1.1//EN" "http://www.w3.org/Graphics/SVG/1.1/DTD/svg11.dtd">
<svg version="1.1" xmlns="http://www.w3.org/2000/svg" xmlns:xlink="http://www.w3.org/1999/xlink" x="0px" y="0px"
	 width="52.845px" height="25.311px" viewBox="0 0 52.845 25.311" enable-background="new 0 0 52.845 25.311" xml:space="preserve">
<g id="Layer_15">
</g>
<g id="Layer_14">
</g>
<g id="Layer_13">
</g>
<g id="Layer_12">
	<path fill="#FFFFFF" d="M6.367,3.433H5.682l0.011-0.042V3.359l0.023-0.042l0.036-0.051l0.047-0.042l0.048-0.041L5.93,3.152
		l0.083-0.011l0.083,0.011l0.083,0.031l0.059,0.041l0.047,0.042L6.32,3.317l0.023,0.042l0.012,0.031L6.367,3.433z M6.806,3.67V3.566
		L6.781,3.391L6.723,3.193L6.592,3.027L6.403,2.893L6.213,2.82L6,2.799L5.799,2.831L5.61,2.903L5.444,3.018L5.326,3.172L5.243,3.391
		L5.207,3.649l0.036,0.249l0.094,0.208l0.119,0.155l0.165,0.104l0.178,0.072l0.189,0.031l0.154-0.01l0.166-0.031l0.153-0.062
		l0.106-0.063l0.06-0.051l0.035-0.031L6.367,4.013L6.332,4.034L6.284,4.055L6.237,4.085L6.166,4.106l-0.083,0.02H6l-0.07-0.01
		L5.847,4.085L5.775,4.034L5.729,3.96L5.692,3.889L5.669,3.826V3.774V3.723h1.124L6.806,3.67z"/>
	<path fill="none" stroke="#007DC3" stroke-width="0.039" d="M6.367,3.433H5.682l0.011-0.042V3.359l0.023-0.042l0.036-0.051
		l0.047-0.042l0.048-0.041L5.93,3.152l0.083-0.011l0.083,0.011l0.083,0.031l0.059,0.041l0.047,0.042L6.32,3.317l0.023,0.042
		l0.012,0.031L6.367,3.433z M6.806,3.67V3.566L6.781,3.391L6.723,3.193L6.592,3.027L6.403,2.893L6.213,2.82L6,2.799L5.799,2.831
		L5.61,2.903L5.444,3.018L5.326,3.172L5.243,3.391L5.207,3.649l0.036,0.249l0.094,0.208l0.119,0.155l0.165,0.104l0.178,0.072
		l0.189,0.031l0.154-0.01l0.166-0.031l0.153-0.062l0.106-0.063l0.06-0.051l0.035-0.031L6.367,4.013L6.332,4.034L6.284,4.055
		L6.237,4.085L6.166,4.106l-0.083,0.02H6l-0.07-0.01L5.847,4.085L5.775,4.034L5.729,3.96L5.692,3.889L5.669,3.826V3.774V3.723h1.124
		L6.806,3.67z"/>
	<polygon fill="#FFFFFF" points="8.036,2.82 8.036,2.944 8.083,2.913 8.119,2.882 8.19,2.861 8.273,2.83 8.379,2.81 8.486,2.799 
		8.592,2.799 8.723,2.83 8.876,2.893 9.006,2.996 9.102,3.11 9.16,3.224 9.185,3.349 9.196,3.484 9.196,4.458 8.746,4.458 
		8.746,3.484 8.723,3.37 8.641,3.266 8.533,3.193 8.392,3.173 8.261,3.193 8.143,3.266 8.061,3.37 8.036,3.494 8.036,4.458 
		7.586,4.458 7.586,2.82 	"/>
	<polygon fill="none" stroke="#007DC3" stroke-width="0.039" points="8.036,2.82 8.036,2.944 8.083,2.913 8.119,2.882 8.19,2.861 
		8.273,2.83 8.379,2.81 8.486,2.799 8.592,2.799 8.723,2.83 8.876,2.893 9.006,2.996 9.102,3.11 9.16,3.224 9.185,3.349 
		9.196,3.484 9.196,4.458 8.746,4.458 8.746,3.484 8.723,3.37 8.641,3.266 8.533,3.193 8.392,3.173 8.261,3.193 8.143,3.266 
		8.061,3.37 8.036,3.494 8.036,4.458 7.586,4.458 7.586,2.82 	"/>
	<path fill="#FFFFFF" d="M3.007,2.644H3.35h0.13l0.118,0.021l0.119,0.031l0.142,0.073l0.13,0.103l0.106,0.135l0.071,0.166
		L4.178,3.37L4.153,3.557l-0.07,0.176L3.977,3.877L3.835,3.981L3.681,4.055L3.539,4.085l-0.096,0.02H3.338H3.007V2.644z
		 M2.604,4.458H3.36l0.132-0.01l0.152-0.021l0.202-0.052l0.225-0.104l0.201-0.155l0.165-0.208l0.107-0.248l0.036-0.28L4.557,3.089
		L4.45,2.84L4.285,2.634L4.083,2.468L3.882,2.375L3.705,2.313L3.526,2.292L3.35,2.281H2.604V4.458z"/>
	<path fill="none" stroke="#007DC3" stroke-width="0.039" d="M3.007,2.644H3.35h0.13l0.118,0.021l0.119,0.031l0.142,0.073
		l0.13,0.103l0.106,0.135l0.071,0.166L4.178,3.37L4.153,3.557l-0.07,0.176L3.977,3.877L3.835,3.981L3.681,4.055L3.539,4.085
		l-0.096,0.02H3.338H3.007V2.644z M2.604,4.458H3.36l0.132-0.01l0.152-0.021l0.202-0.052l0.225-0.104l0.201-0.155l0.165-0.208
		l0.107-0.248l0.036-0.28L4.557,3.089L4.45,2.84L4.285,2.634L4.083,2.468L3.882,2.375L3.705,2.313L3.526,2.292L3.35,2.281H2.604
		V4.458z"/>
	<polygon fill="#FFFFFF" points="49.827,6.086 49.827,6.625 50.277,6.625 50.277,6.999 49.827,6.999 49.827,7.755 49.827,7.797 
		49.827,7.829 49.851,7.859 49.886,7.891 49.933,7.912 49.993,7.921 50.04,7.912 50.099,7.901 50.158,7.88 50.206,7.859 
		50.253,7.829 50.3,7.808 50.206,8.202 50.158,8.223 50.123,8.244 50.064,8.253 49.993,8.274 49.922,8.285 49.851,8.285 
		49.768,8.274 49.673,8.253 49.602,8.223 49.519,8.17 49.46,8.099 49.413,8.025 49.389,7.933 49.377,7.838 49.377,6.999 
		49.046,6.999 49.046,6.625 49.377,6.625 49.377,6.231 	"/>
	<polygon fill="none" stroke="#007DC3" stroke-width="0.039" points="49.827,6.086 49.827,6.625 50.277,6.625 50.277,6.999 
		49.827,6.999 49.827,7.755 49.827,7.797 49.827,7.829 49.851,7.859 49.886,7.891 49.933,7.912 49.993,7.921 50.04,7.912 
		50.099,7.901 50.158,7.88 50.206,7.859 50.253,7.829 50.3,7.808 50.206,8.202 50.158,8.223 50.123,8.244 50.064,8.253 
		49.993,8.274 49.922,8.285 49.851,8.285 49.768,8.274 49.673,8.253 49.602,8.223 49.519,8.17 49.46,8.099 49.413,8.025 
		49.389,7.933 49.377,7.838 49.377,6.999 49.046,6.999 49.046,6.625 49.377,6.625 49.377,6.231 	"/>
	<polygon fill="#007DC3" points="52.845,0 2.226,0 0,0 0,1.949 0,23.351 0,25.311 2.226,25.311 52.845,25.311 	"/>
	<path fill="#FFFFFF" d="M35.447,24.989l-0.355-0.031l-0.354-0.094l-0.32-0.155l-0.284-0.197l-0.225-0.249l-0.177-0.29l-0.107-0.301
		l-0.035-0.321V1.949l0.035-0.311l0.107-0.311l0.177-0.28l0.225-0.249l0.284-0.197l0.32-0.155l0.354-0.094l0.355-0.031h15.161
		l0.354,0.031l0.355,0.094l0.32,0.155l0.283,0.197l0.236,0.249l0.166,0.28l0.107,0.311l0.034,0.311v21.402l-0.034,0.321
		l-0.107,0.301l-0.166,0.29l-0.236,0.249l-0.283,0.197l-0.32,0.155l-0.355,0.094l-0.354,0.031H35.447z M50.608,24.657l0.284-0.021
		l0.283-0.072l0.261-0.125l0.225-0.155l0.19-0.208l0.13-0.217l0.083-0.249l0.035-0.259V1.949L52.064,1.7l-0.083-0.249l-0.13-0.228
		l-0.19-0.197l-0.225-0.155l-0.261-0.125l-0.283-0.072l-0.284-0.021H35.447l-0.284,0.021l-0.284,0.072l-0.261,0.125l-0.225,0.155
		l-0.178,0.197l-0.142,0.228L33.991,1.7l-0.024,0.249v21.402l0.024,0.259l0.083,0.249l0.142,0.217l0.178,0.208l0.225,0.155
		l0.261,0.125l0.284,0.072l0.284,0.021H50.608z"/>
	<path fill="#FFFFFF" d="M31.364,0.321l0.354,0.031l0.355,0.094l0.318,0.155l0.284,0.197l0.226,0.249l0.178,0.28l0.105,0.311
		l0.036,0.311v21.402l-0.036,0.321l-0.105,0.301l-0.178,0.29l-0.226,0.249l-0.284,0.197l-0.318,0.156l-0.355,0.093l-0.354,0.031
		H2.225L1.87,24.958l-0.355-0.093l-0.319-0.156l-0.284-0.197l-0.226-0.249l-0.177-0.29l-0.106-0.301l-0.035-0.321V1.949l0.035-0.311
		l0.106-0.311l0.177-0.28l0.226-0.249l0.284-0.197l0.319-0.155L1.87,0.352l0.354-0.031H31.364z M2.225,0.653L1.941,0.674
		L1.657,0.746L1.396,0.871L1.172,1.026L0.994,1.223L0.852,1.451L0.769,1.7L0.746,1.949v21.402l0.022,0.259l0.083,0.249l0.143,0.218
		l0.178,0.207l0.225,0.155l0.261,0.125l0.284,0.073l0.283,0.02h29.14l0.284-0.02l0.283-0.073l0.261-0.125l0.225-0.155l0.178-0.207
		l0.143-0.218l0.082-0.249l0.023-0.259V1.949L32.819,1.7l-0.082-0.249l-0.143-0.228l-0.178-0.197l-0.225-0.155l-0.261-0.125
		l-0.283-0.072l-0.284-0.021H2.225z"/>
	<polygon fill="#FFFFFF" points="11.539,13.801 11.422,13.78 11.314,13.718 11.243,13.625 11.22,13.521 11.22,13.117 11.22,12.764 
		11.22,12.443 11.22,12.163 11.22,11.924 11.22,11.717 11.22,11.551 11.22,11.427 11.22,11.198 11.22,10.908 11.22,10.566 
		11.22,10.182 11.243,10.068 11.314,9.975 11.422,9.913 11.539,9.892 22.05,9.892 22.18,9.913 22.286,9.975 22.357,10.068 
		22.381,10.182 22.381,13.521 22.357,13.625 22.286,13.718 22.18,13.78 22.05,13.801 	"/>
	<polygon fill="#FFFFFF" points="23.41,6.625 23.41,6.75 23.445,6.719 23.493,6.688 23.564,6.657 23.647,6.636 23.753,6.616 
		23.86,6.604 23.967,6.604 24.098,6.636 24.238,6.699 24.382,6.802 24.476,6.916 24.534,7.02 24.559,7.144 24.57,7.29 24.57,8.254 
		24.12,8.254 24.12,7.29 24.098,7.176 24.015,7.072 23.896,6.999 23.766,6.979 23.623,6.999 23.517,7.072 23.435,7.176 23.41,7.3 
		23.41,8.254 22.96,8.254 22.96,6.625 	"/>
	<polygon fill="none" stroke="#007DC3" stroke-width="0.039" points="23.41,6.625 23.41,6.75 23.445,6.719 23.493,6.688 
		23.564,6.657 23.647,6.636 23.753,6.616 23.86,6.604 23.967,6.604 24.098,6.636 24.238,6.699 24.382,6.802 24.476,6.916 
		24.534,7.02 24.559,7.144 24.57,7.29 24.57,8.254 24.12,8.254 24.12,7.29 24.098,7.176 24.015,7.072 23.896,6.999 23.766,6.979 
		23.623,6.999 23.517,7.072 23.435,7.176 23.41,7.3 23.41,8.254 22.96,8.254 22.96,6.625 	"/>
	<polygon fill="#FFFFFF" points="11.635,6.086 11.196,8.253 10.746,8.253 10.332,6.833 9.906,8.253 9.469,8.253 9.019,6.086 
		9.433,6.086 9.729,7.444 10.131,6.086 10.533,6.086 10.937,7.444 11.221,6.086 	"/>
	<polygon fill="none" stroke="#007DC3" stroke-width="0.039" points="11.635,6.086 11.196,8.253 10.746,8.253 10.332,6.833 
		9.906,8.253 9.469,8.253 9.019,6.086 9.433,6.086 9.729,7.444 10.131,6.086 10.533,6.086 10.937,7.444 11.221,6.086 	"/>
	<path fill="#FFFFFF" d="M12.925,8.274l-0.19-0.021l-0.188-0.072l-0.189-0.135l-0.131-0.187l-0.083-0.207L12.12,7.424l0.034-0.218
		l0.071-0.197l0.143-0.176l0.166-0.125l0.2-0.072l0.201-0.032l0.213,0.032l0.19,0.072l0.165,0.114l0.142,0.166l0.071,0.208
		l0.036,0.228l-0.024,0.228l-0.083,0.207l-0.13,0.187l-0.188,0.135l-0.201,0.072L12.925,8.274z M13.031,7.912l0.095-0.041
		l0.083-0.073l0.059-0.104l0.023-0.135l0.012-0.134l-0.012-0.146l-0.035-0.114l-0.047-0.083l-0.072-0.072l-0.094-0.042l-0.107-0.02
		l-0.094,0.02l-0.095,0.042l-0.071,0.072l-0.047,0.083L12.593,7.29l-0.024,0.135l0.013,0.134l0.023,0.115l0.06,0.113l0.07,0.073
		l0.083,0.052l0.107,0.021L13.031,7.912z"/>
	<path fill="none" stroke="#007DC3" stroke-width="0.039" d="M12.925,8.274l-0.19-0.021l-0.188-0.072l-0.189-0.135l-0.131-0.187
		l-0.083-0.207L12.12,7.424l0.034-0.218l0.071-0.197l0.143-0.176l0.166-0.125l0.2-0.072l0.201-0.032l0.213,0.032l0.19,0.072
		l0.165,0.114l0.142,0.166l0.071,0.208l0.036,0.228l-0.024,0.228l-0.083,0.207l-0.13,0.187l-0.188,0.135l-0.201,0.072L12.925,8.274z
		 M13.031,7.912l0.095-0.041l0.083-0.073l0.059-0.104l0.023-0.135l0.012-0.134l-0.012-0.146l-0.035-0.114l-0.047-0.083l-0.072-0.072
		l-0.094-0.042l-0.107-0.02l-0.094,0.02l-0.095,0.042l-0.071,0.072l-0.047,0.083L12.593,7.29l-0.024,0.135l0.013,0.134l0.023,0.115
		l0.06,0.113l0.07,0.073l0.083,0.052l0.107,0.021L13.031,7.912z"/>
	<path fill="#FFFFFF" d="M15.445,7.238h-0.687l0.012-0.042l0.012-0.031l0.023-0.042l0.035-0.051l0.036-0.052l0.06-0.042l0.07-0.031
		h0.083h0.083l0.083,0.031l0.071,0.042l0.035,0.052l0.036,0.051l0.022,0.042l0.012,0.031L15.445,7.238z M15.883,7.476V7.372
		l-0.012-0.176l-0.059-0.197l-0.131-0.176l-0.189-0.125l-0.201-0.072L15.09,6.605l-0.213,0.031l-0.188,0.073l-0.154,0.114
		l-0.119,0.155l-0.082,0.218l-0.036,0.249l0.036,0.259l0.082,0.207l0.131,0.146l0.153,0.114l0.178,0.072l0.189,0.021h0.166
		l0.153-0.041L15.54,8.16l0.106-0.062l0.059-0.041l0.036-0.042l-0.296-0.207L15.41,7.839L15.374,7.86l-0.047,0.02l-0.083,0.031
		l-0.071,0.021H15.09l-0.083-0.01l-0.07-0.042l-0.071-0.051l-0.06-0.063l-0.035-0.072l-0.012-0.073l-0.012-0.052V7.528h1.136V7.476z
		"/>
	<path fill="none" stroke="#007DC3" stroke-width="0.039" d="M15.445,7.238h-0.687l0.012-0.042l0.012-0.031l0.023-0.042l0.035-0.051
		l0.036-0.052l0.06-0.042l0.07-0.031h0.083h0.083l0.083,0.031l0.071,0.042l0.035,0.052l0.036,0.051l0.022,0.042l0.012,0.031
		L15.445,7.238z M15.883,7.476V7.372l-0.012-0.176l-0.059-0.197l-0.131-0.176l-0.189-0.125l-0.201-0.072L15.09,6.605l-0.213,0.031
		l-0.188,0.073l-0.154,0.114l-0.119,0.155l-0.082,0.218l-0.036,0.249l0.036,0.259l0.082,0.207l0.131,0.146l0.153,0.114l0.178,0.072
		l0.189,0.021h0.166l0.153-0.041L15.54,8.16l0.106-0.062l0.059-0.041l0.036-0.042l-0.296-0.207L15.41,7.839L15.374,7.86l-0.047,0.02
		l-0.083,0.031l-0.071,0.021H15.09l-0.083-0.01l-0.07-0.042l-0.071-0.051l-0.06-0.063l-0.035-0.072l-0.012-0.073l-0.012-0.052V7.528
		h1.136V7.476z"/>
	<polygon fill="#FFFFFF" points="17.114,6.625 17.114,6.761 17.138,6.74 17.173,6.708 17.244,6.678 17.327,6.636 17.422,6.616 
		17.528,6.604 17.611,6.616 17.694,6.625 17.765,6.646 17.812,6.667 17.836,6.688 17.872,6.708 17.741,7.113 17.718,7.093 
		17.694,7.072 17.646,7.041 17.599,7.01 17.528,6.999 17.457,6.999 17.386,7.01 17.303,7.03 17.22,7.082 17.161,7.155 17.126,7.238 
		17.114,7.341 17.114,8.254 16.664,8.254 16.664,6.625 	"/>
	<polygon fill="none" stroke="#007DC3" stroke-width="0.039" points="17.114,6.625 17.114,6.761 17.138,6.74 17.173,6.708 
		17.244,6.678 17.327,6.636 17.422,6.616 17.528,6.604 17.611,6.616 17.694,6.625 17.765,6.646 17.812,6.667 17.836,6.688 
		17.872,6.708 17.741,7.113 17.718,7.093 17.694,7.072 17.646,7.041 17.599,7.01 17.528,6.999 17.457,6.999 17.386,7.01 
		17.303,7.03 17.22,7.082 17.161,7.155 17.126,7.238 17.114,7.341 17.114,8.254 16.664,8.254 16.664,6.625 	"/>
	<path fill="#FFFFFF" d="M19.41,7.766l-0.047,0.042l-0.048,0.041l-0.095,0.042l-0.119,0.01l-0.094-0.01l-0.106-0.042l-0.083-0.052
		l-0.06-0.083L18.712,7.6l-0.024-0.145L18.7,7.331l0.047-0.114l0.048-0.094l0.082-0.072l0.107-0.042l0.13-0.021l0.13,0.021
		l0.083,0.042l0.048,0.031l0.035,0.031V7.766z M19.41,6.75l-0.047-0.031l-0.06-0.031l-0.143-0.052l-0.177-0.021l-0.179,0.021
		l-0.165,0.062l-0.142,0.125l-0.131,0.165l-0.094,0.229L18.25,7.466l0.036,0.238l0.094,0.207l0.119,0.156l0.142,0.114l0.165,0.072
		l0.19,0.021l0.177-0.021l0.131-0.041l0.06-0.031L19.41,8.16v0.093h0.45V6.035l-0.45,0.134V6.75z"/>
	<path fill="none" stroke="#007DC3" stroke-width="0.039" d="M19.41,7.766l-0.047,0.042l-0.048,0.041l-0.095,0.042l-0.119,0.01
		l-0.094-0.01l-0.106-0.042l-0.083-0.052l-0.06-0.083L18.712,7.6l-0.024-0.145L18.7,7.331l0.047-0.114l0.048-0.094l0.082-0.072
		l0.107-0.042l0.13-0.021l0.13,0.021l0.083,0.042l0.048,0.031l0.035,0.031V7.766z M19.41,6.75l-0.047-0.031l-0.06-0.031
		l-0.143-0.052l-0.177-0.021l-0.179,0.021l-0.165,0.062l-0.142,0.125l-0.131,0.165l-0.094,0.229L18.25,7.466l0.036,0.238
		l0.094,0.207l0.119,0.156l0.142,0.114l0.165,0.072l0.19,0.021l0.177-0.021l0.131-0.041l0.06-0.031L19.41,8.16v0.093h0.45V6.035
		l-0.45,0.134V6.75z"/>
	<path fill="#FFFFFF" d="M21.741,7.238h-0.686l0.011-0.042l0.012-0.031l0.013-0.042l0.036-0.051l0.047-0.052l0.059-0.042
		l0.071-0.031h0.083h0.083l0.083,0.031l0.059,0.042l0.047,0.052l0.036,0.051l0.024,0.042l0.011,0.031L21.741,7.238z M22.18,7.476
		V7.372l-0.024-0.176l-0.047-0.197l-0.13-0.176l-0.19-0.125l-0.2-0.072l-0.201-0.021l-0.213,0.031l-0.189,0.073L20.83,6.823
		L20.7,6.978l-0.083,0.218l-0.023,0.249l0.036,0.259l0.082,0.207l0.131,0.146l0.152,0.114l0.179,0.072l0.188,0.021h0.166
		l0.154-0.041l0.154-0.063l0.105-0.062l0.06-0.041l0.035-0.042l-0.296-0.207l-0.035,0.031L21.671,7.86l-0.06,0.02L21.54,7.911
		l-0.083,0.021h-0.07l-0.083-0.01L21.221,7.88l-0.071-0.051l-0.047-0.063l-0.036-0.072l-0.011-0.073l-0.012-0.052V7.528h1.136V7.476
		z"/>
	<path fill="none" stroke="#007DC3" stroke-width="0.039" d="M21.741,7.238h-0.686l0.011-0.042l0.012-0.031l0.013-0.042l0.036-0.051
		l0.047-0.052l0.059-0.042l0.071-0.031h0.083h0.083l0.083,0.031l0.059,0.042l0.047,0.052l0.036,0.051l0.024,0.042l0.011,0.031
		L21.741,7.238z M22.18,7.476V7.372l-0.024-0.176l-0.047-0.197l-0.13-0.176l-0.19-0.125l-0.2-0.072l-0.201-0.021l-0.213,0.031
		l-0.189,0.073L20.83,6.823L20.7,6.978l-0.083,0.218l-0.023,0.249l0.036,0.259l0.082,0.207l0.131,0.146l0.152,0.114l0.179,0.072
		l0.188,0.021h0.166l0.154-0.041l0.154-0.063l0.105-0.062l0.06-0.041l0.035-0.042l-0.296-0.207l-0.035,0.031L21.671,7.86l-0.06,0.02
		L21.54,7.911l-0.083,0.021h-0.07l-0.083-0.01L21.221,7.88l-0.071-0.051l-0.047-0.063l-0.036-0.072l-0.011-0.073l-0.012-0.052V7.528
		h1.136V7.476z"/>
	<polygon fill="#FFFFFF" points="46.702,6.086 47.152,6.086 47.152,6.896 47.176,6.864 47.199,6.833 47.259,6.792 47.317,6.739 
		47.4,6.688 47.495,6.656 47.578,6.636 47.674,6.625 47.757,6.625 47.851,6.646 47.945,6.667 48.039,6.718 48.135,6.781 
		48.218,6.875 48.276,6.967 48.301,7.062 48.323,7.165 48.323,7.29 48.323,8.253 47.874,8.253 47.874,7.373 47.862,7.278 
		47.851,7.207 47.826,7.133 47.779,7.071 47.732,7.03 47.661,6.999 47.603,6.979 47.52,6.979 47.437,6.988 47.354,7.02 
		47.282,7.062 47.235,7.112 47.188,7.186 47.164,7.258 47.164,7.331 47.152,7.414 47.152,8.253 46.702,8.253 	"/>
	<polygon fill="none" stroke="#007DC3" stroke-width="0.039" points="46.702,6.086 47.152,6.086 47.152,6.896 47.176,6.864 
		47.199,6.833 47.259,6.792 47.317,6.739 47.4,6.688 47.495,6.656 47.578,6.636 47.674,6.625 47.757,6.625 47.851,6.646 
		47.945,6.667 48.039,6.718 48.135,6.781 48.218,6.875 48.276,6.967 48.301,7.062 48.323,7.165 48.323,7.29 48.323,8.253 
		47.874,8.253 47.874,7.373 47.862,7.278 47.851,7.207 47.826,7.133 47.779,7.071 47.732,7.03 47.661,6.999 47.603,6.979 
		47.52,6.979 47.437,6.988 47.354,7.02 47.282,7.062 47.235,7.112 47.188,7.186 47.164,7.258 47.164,7.331 47.152,7.414 
		47.152,8.253 46.702,8.253 	"/>
	<polygon fill="#FFFFFF" points="45.945,6.937 45.649,7.217 45.637,7.186 45.603,7.144 45.554,7.082 45.473,7.03 45.365,6.989 
		45.224,6.968 45.081,6.989 44.976,7.051 44.88,7.124 44.82,7.217 44.785,7.341 44.773,7.466 44.797,7.601 44.844,7.704 
		44.915,7.787 45.01,7.849 45.116,7.891 45.224,7.912 45.354,7.901 45.46,7.86 45.554,7.798 45.603,7.746 45.625,7.704 
		45.649,7.673 45.934,7.943 45.898,7.984 45.851,8.036 45.768,8.109 45.613,8.192 45.424,8.254 45.224,8.275 45.045,8.254 
		44.868,8.202 44.667,8.098 44.501,7.932 44.371,7.715 44.323,7.455 44.359,7.207 44.465,6.978 44.619,6.812 44.81,6.699 
		45.01,6.626 45.235,6.605 45.448,6.626 45.637,6.688 45.779,6.781 45.874,6.854 45.91,6.906 	"/>
	<polygon fill="none" stroke="#007DC3" stroke-width="0.039" points="45.945,6.937 45.649,7.217 45.637,7.186 45.603,7.144 
		45.554,7.082 45.473,7.03 45.365,6.989 45.224,6.968 45.081,6.989 44.976,7.051 44.88,7.124 44.82,7.217 44.785,7.341 
		44.773,7.466 44.797,7.601 44.844,7.704 44.915,7.787 45.01,7.849 45.116,7.891 45.224,7.912 45.354,7.901 45.46,7.86 
		45.554,7.798 45.603,7.746 45.625,7.704 45.649,7.673 45.934,7.943 45.898,7.984 45.851,8.036 45.768,8.109 45.613,8.192 
		45.424,8.254 45.224,8.275 45.045,8.254 44.868,8.202 44.667,8.098 44.501,7.932 44.371,7.715 44.323,7.455 44.359,7.207 
		44.465,6.978 44.619,6.812 44.81,6.699 45.01,6.626 45.235,6.605 45.448,6.626 45.637,6.688 45.779,6.781 45.874,6.854 
		45.91,6.906 	"/>
	<path fill="#FFFFFF" d="M43.317,7.238h-0.686l0.011-0.042V7.165l0.023-0.042l0.036-0.051l0.047-0.052l0.06-0.042l0.071-0.031h0.083
		l0.095,0.011l0.071,0.02l0.059,0.042l0.047,0.052l0.036,0.051l0.023,0.042l0.012,0.041L43.317,7.238z M43.756,7.476V7.372
		l-0.013-0.166l-0.059-0.207l-0.13-0.176l-0.19-0.125l-0.201-0.072l-0.2-0.021l-0.214,0.031l-0.188,0.073l-0.154,0.114l-0.131,0.155
		l-0.082,0.218l-0.036,0.249l0.036,0.259l0.094,0.207l0.119,0.156l0.165,0.104l0.178,0.072l0.189,0.031l0.166-0.01l0.154-0.031
		l0.153-0.062l0.106-0.063l0.06-0.051l0.035-0.031l-0.296-0.208l-0.035,0.021L43.246,7.86l-0.059,0.031l-0.071,0.02l-0.083,0.021
		h-0.07l-0.083-0.01l-0.083-0.031l-0.071-0.062l-0.047-0.063l-0.036-0.062l-0.011-0.073L42.619,7.58V7.538h1.137V7.476z"/>
	<path fill="none" stroke="#007DC3" stroke-width="0.039" d="M43.317,7.238h-0.686l0.011-0.042V7.165l0.023-0.042l0.036-0.051
		l0.047-0.052l0.06-0.042l0.071-0.031h0.083l0.095,0.011l0.071,0.02l0.059,0.042l0.047,0.052l0.036,0.051l0.023,0.042l0.012,0.041
		L43.317,7.238z M43.756,7.476V7.372l-0.013-0.166l-0.059-0.207l-0.13-0.176l-0.19-0.125l-0.201-0.072l-0.2-0.021l-0.214,0.031
		l-0.188,0.073l-0.154,0.114l-0.131,0.155l-0.082,0.218l-0.036,0.249l0.036,0.259l0.094,0.207l0.119,0.156l0.165,0.104l0.178,0.072
		l0.189,0.031l0.166-0.01l0.154-0.031l0.153-0.062l0.106-0.063l0.06-0.051l0.035-0.031l-0.296-0.208l-0.035,0.021L43.246,7.86
		l-0.059,0.031l-0.071,0.02l-0.083,0.021h-0.07l-0.083-0.01l-0.083-0.031l-0.071-0.062l-0.047-0.063l-0.036-0.062l-0.011-0.073
		L42.619,7.58V7.538h1.137V7.476z"/>
	<polygon fill="#FFFFFF" points="41.021,6.625 41.021,6.761 41.045,6.74 41.093,6.708 41.151,6.678 41.234,6.636 41.342,6.616 
		41.436,6.604 41.53,6.616 41.613,6.625 41.672,6.646 41.72,6.667 41.743,6.688 41.79,6.708 41.648,7.113 41.637,7.093 
		41.602,7.072 41.565,7.041 41.507,7.01 41.436,6.999 41.376,6.999 41.293,7.01 41.21,7.03 41.128,7.082 41.068,7.155 41.033,7.248 
		41.021,7.341 41.021,8.254 40.571,8.254 40.571,6.625 	"/>
	<polygon fill="none" stroke="#007DC3" stroke-width="0.039" points="41.021,6.625 41.021,6.761 41.045,6.74 41.093,6.708 
		41.151,6.678 41.234,6.636 41.342,6.616 41.436,6.604 41.53,6.616 41.613,6.625 41.672,6.646 41.72,6.667 41.743,6.688 
		41.79,6.708 41.648,7.113 41.637,7.093 41.602,7.072 41.565,7.041 41.507,7.01 41.436,6.999 41.376,6.999 41.293,7.01 41.21,7.03 
		41.128,7.082 41.068,7.155 41.033,7.248 41.021,7.341 41.021,8.254 40.571,8.254 40.571,6.625 	"/>
	<polygon fill="#FFFFFF" points="39.317,6.086 39.317,6.625 39.768,6.625 39.768,6.999 39.317,6.999 39.317,7.755 39.317,7.797 
		39.329,7.829 39.353,7.859 39.389,7.891 39.436,7.912 39.483,7.921 39.542,7.912 39.589,7.901 39.648,7.88 39.708,7.859 
		39.755,7.829 39.79,7.808 39.696,8.202 39.66,8.223 39.625,8.244 39.554,8.253 39.483,8.274 39.412,8.285 39.341,8.285 
		39.258,8.274 39.175,8.253 39.092,8.223 39.021,8.17 38.95,8.099 38.903,8.025 38.879,7.933 38.879,7.838 38.879,6.999 
		38.548,6.999 38.548,6.625 38.879,6.625 38.879,6.231 	"/>
	<polygon fill="none" stroke="#007DC3" stroke-width="0.039" points="39.317,6.086 39.317,6.625 39.768,6.625 39.768,6.999 
		39.317,6.999 39.317,7.755 39.317,7.797 39.329,7.829 39.353,7.859 39.389,7.891 39.436,7.912 39.483,7.921 39.542,7.912 
		39.589,7.901 39.648,7.88 39.708,7.859 39.755,7.829 39.79,7.808 39.696,8.202 39.66,8.223 39.625,8.244 39.554,8.253 
		39.483,8.274 39.412,8.285 39.341,8.285 39.258,8.274 39.175,8.253 39.092,8.223 39.021,8.17 38.95,8.099 38.903,8.025 
		38.879,7.933 38.879,7.838 38.879,6.999 38.548,6.999 38.548,6.625 38.879,6.625 38.879,6.231 	"/>
	<polygon fill="#FFFFFF" points="37.803,6.086 37.803,7.414 37.731,7.746 37.519,8.025 37.198,8.212 37.009,8.265 36.809,8.285 
		36.607,8.265 36.405,8.223 36.099,8.025 35.896,7.746 35.825,7.403 35.825,6.086 36.229,6.086 36.229,7.403 36.264,7.601 
		36.395,7.767 36.571,7.88 36.809,7.921 37.044,7.891 37.234,7.776 37.364,7.61 37.4,7.414 37.4,6.086 	"/>
	<polygon fill="none" stroke="#007DC3" stroke-width="0.039" points="37.803,6.086 37.803,7.414 37.731,7.746 37.519,8.025 
		37.198,8.212 37.009,8.265 36.809,8.285 36.607,8.265 36.405,8.223 36.099,8.025 35.896,7.746 35.825,7.403 35.825,6.086 
		36.229,6.086 36.229,7.403 36.264,7.601 36.395,7.767 36.571,7.88 36.809,7.921 37.044,7.891 37.234,7.776 37.364,7.61 37.4,7.414 
		37.4,6.086 	"/>
	<polygon fill="#FFFFFF" points="12.723,2.281 12.723,4.459 12.321,4.459 12.321,3.473 11.149,3.473 11.149,4.459 10.746,4.459 
		10.746,2.281 11.149,2.281 11.149,3.121 12.321,3.121 12.321,2.281 	"/>
	<polygon fill="none" stroke="#007DC3" stroke-width="0.039" points="12.723,2.281 12.723,4.459 12.321,4.459 12.321,3.473 
		11.149,3.473 11.149,4.459 10.746,4.459 10.746,2.281 11.149,2.281 11.149,3.121 12.321,3.121 12.321,2.281 	"/>
	<path fill="#FFFFFF" d="M15.125,3.359v1.1h-0.438V4.365l-0.047,0.021l-0.048,0.01L14.51,4.427l-0.106,0.021l-0.118,0.021h-0.118
		l-0.119-0.01l-0.13-0.042l-0.13-0.083L13.67,4.22l-0.083-0.135L13.563,3.94l0.012-0.145l0.071-0.135l0.095-0.114l0.142-0.093
		l0.189-0.073l0.201-0.021l0.166,0.011l0.13,0.031l0.071,0.021l0.047,0.02V3.359V3.297l-0.035-0.052l-0.035-0.051l-0.071-0.032
		l-0.071-0.02L14.38,3.131l-0.106,0.011l-0.106,0.01l-0.106,0.031l-0.083,0.031L13.93,3.235l-0.047,0.021l-0.166-0.26l0.048-0.031
		l0.06-0.02l0.118-0.052l0.153-0.042l0.165-0.031l0.166-0.01l0.179,0.01l0.177,0.052l0.166,0.093l0.118,0.125l0.048,0.124
		L15.125,3.359z M14.652,3.743l-0.035-0.021l-0.048-0.02l-0.083-0.021L14.393,3.66h-0.096l-0.083,0.01l-0.083,0.032l-0.07,0.041
		l-0.035,0.052l-0.024,0.052l-0.012,0.052l0.012,0.051l0.024,0.052l0.035,0.052l0.07,0.042l0.071,0.031l0.095,0.01h0.096l0.094-0.01
		l0.083-0.031l0.059-0.021l0.036-0.021l0.023-0.021V3.764L14.652,3.743z"/>
	<path fill="none" stroke="#007DC3" stroke-width="0.039" d="M15.125,3.359v1.1h-0.438V4.365l-0.047,0.021l-0.048,0.01L14.51,4.427
		l-0.106,0.021l-0.118,0.021h-0.118l-0.119-0.01l-0.13-0.042l-0.13-0.083L13.67,4.22l-0.083-0.135L13.563,3.94l0.012-0.145
		l0.071-0.135l0.095-0.114l0.142-0.093l0.189-0.073l0.201-0.021l0.166,0.011l0.13,0.031l0.071,0.021l0.047,0.02V3.359V3.297
		l-0.035-0.052l-0.035-0.051l-0.071-0.032l-0.071-0.02L14.38,3.131l-0.106,0.011l-0.106,0.01l-0.106,0.031l-0.083,0.031L13.93,3.235
		l-0.047,0.021l-0.166-0.26l0.048-0.031l0.06-0.02l0.118-0.052l0.153-0.042l0.165-0.031l0.166-0.01l0.179,0.01l0.177,0.052
		l0.166,0.093l0.118,0.125l0.048,0.124L15.125,3.359z M14.652,3.743l-0.035-0.021l-0.048-0.02l-0.083-0.021L14.393,3.66h-0.096
		l-0.083,0.01l-0.083,0.032l-0.07,0.041l-0.035,0.052l-0.024,0.052l-0.012,0.052l0.012,0.051l0.024,0.052l0.035,0.052l0.07,0.042
		l0.071,0.031l0.095,0.01h0.096l0.094-0.01l0.083-0.031l0.059-0.021l0.036-0.021l0.023-0.021V3.764L14.652,3.743z"/>
	<path fill="#FFFFFF" d="M17.433,3.359v1.1h-0.438V4.365l-0.047,0.021l-0.047,0.01l-0.083,0.031l-0.107,0.021l-0.118,0.021h-0.118
		l-0.118-0.01l-0.13-0.042l-0.143-0.083L15.966,4.22l-0.07-0.135L15.871,3.94l0.012-0.145l0.071-0.135l0.095-0.114l0.143-0.093
		L16.38,3.38l0.201-0.021l0.166,0.011l0.13,0.031l0.071,0.021l0.059,0.02V3.359l-0.012-0.062L16.96,3.245l-0.035-0.051l-0.07-0.032
		l-0.072-0.02l-0.094-0.011l-0.107,0.011l-0.106,0.01l-0.106,0.031l-0.083,0.031l-0.047,0.021l-0.047,0.021l-0.166-0.26l0.047-0.031
		l0.06-0.02l0.118-0.052l0.154-0.042l0.165-0.031l0.166-0.01l0.178,0.01l0.177,0.052l0.179,0.093l0.105,0.125l0.048,0.124
		L17.433,3.359z M16.96,3.743l-0.035-0.021l-0.06-0.02l-0.07-0.021L16.7,3.66h-0.095l-0.083,0.01l-0.083,0.032l-0.071,0.041
		l-0.035,0.052l-0.024,0.052l-0.012,0.052l0.012,0.051l0.024,0.052l0.035,0.052l0.071,0.042l0.083,0.031l0.07,0.01H16.7l0.095-0.01
		l0.082-0.031l0.06-0.021l0.035-0.021l0.023-0.021V3.764L16.96,3.743z"/>
	<path fill="none" stroke="#007DC3" stroke-width="0.039" d="M17.433,3.359v1.1h-0.438V4.365l-0.047,0.021l-0.047,0.01l-0.083,0.031
		l-0.107,0.021l-0.118,0.021h-0.118l-0.118-0.01l-0.13-0.042l-0.143-0.083L15.966,4.22l-0.07-0.135L15.871,3.94l0.012-0.145
		l0.071-0.135l0.095-0.114l0.143-0.093L16.38,3.38l0.201-0.021l0.166,0.011l0.13,0.031l0.071,0.021l0.059,0.02V3.359l-0.012-0.062
		L16.96,3.245l-0.035-0.051l-0.07-0.032l-0.072-0.02l-0.094-0.011l-0.107,0.011l-0.106,0.01l-0.106,0.031l-0.083,0.031l-0.047,0.021
		l-0.047,0.021l-0.166-0.26l0.047-0.031l0.06-0.02l0.118-0.052l0.154-0.042l0.165-0.031l0.166-0.01l0.178,0.01l0.177,0.052
		l0.179,0.093l0.105,0.125l0.048,0.124L17.433,3.359z M16.96,3.743l-0.035-0.021l-0.06-0.02l-0.07-0.021L16.7,3.66h-0.095
		l-0.083,0.01l-0.083,0.032l-0.071,0.041l-0.035,0.052l-0.024,0.052l-0.012,0.052l0.012,0.051l0.024,0.052l0.035,0.052l0.071,0.042
		l0.083,0.031l0.07,0.01H16.7l0.095-0.01l0.082-0.031l0.06-0.021l0.035-0.021l0.023-0.021V3.764L16.96,3.743z"/>
	<path fill="#FFFFFF" d="M19.765,2.831v1.617l-0.023,0.197L19.67,4.821l-0.094,0.146l-0.143,0.124l-0.166,0.104l-0.142,0.052
		l-0.083,0.02l-0.047,0.011l-0.19-0.373h0.048h0.06l0.083-0.021l0.105-0.052l0.107-0.083l0.071-0.093l0.035-0.094l0.023-0.103V4.365
		l-0.047,0.011l-0.048,0.031l-0.071,0.031L19.09,4.459l-0.094,0.02L18.913,4.49l-0.107-0.011l-0.13-0.031l-0.118-0.062L18.44,4.303
		l-0.096-0.114l-0.083-0.156l-0.07-0.176l-0.013-0.186l0.013-0.198l0.059-0.196l0.083-0.156l0.095-0.124l0.13-0.083L18.7,2.851
		l0.118-0.02l0.106-0.011l0.118,0.011l0.095,0.02l0.071,0.021l0.047,0.021l0.048,0.031l0.035,0.021V2.831H19.765z M19.339,3.318
		l-0.023-0.021l-0.035-0.02l-0.047-0.021l-0.061-0.031l-0.059-0.021l-0.083-0.01l-0.083,0.01l-0.082,0.021l-0.071,0.041
		l-0.071,0.062l-0.048,0.073l-0.035,0.083l-0.023,0.093v0.094l0.012,0.103l0.024,0.083L18.7,3.94l0.047,0.062l0.071,0.042
		l0.083,0.041l0.07,0.021h0.071l0.071-0.01l0.07-0.021l0.06-0.021l0.036-0.031l0.023-0.021l0.035-0.02V3.318z"/>
	<path fill="none" stroke="#007DC3" stroke-width="0.039" d="M19.765,2.831v1.617l-0.023,0.197L19.67,4.821l-0.094,0.146
		l-0.143,0.124l-0.166,0.104l-0.142,0.052l-0.083,0.02l-0.047,0.011l-0.19-0.373h0.048h0.06l0.083-0.021l0.105-0.052l0.107-0.083
		l0.071-0.093l0.035-0.094l0.023-0.103V4.365l-0.047,0.011l-0.048,0.031l-0.071,0.031L19.09,4.459l-0.094,0.02L18.913,4.49
		l-0.107-0.011l-0.13-0.031l-0.118-0.062L18.44,4.303l-0.096-0.114l-0.083-0.156l-0.07-0.176l-0.013-0.186l0.013-0.198l0.059-0.196
		l0.083-0.156l0.095-0.124l0.13-0.083L18.7,2.851l0.118-0.02l0.106-0.011l0.118,0.011l0.095,0.02l0.071,0.021l0.047,0.021
		l0.048,0.031l0.035,0.021V2.831H19.765z M19.339,3.318l-0.023-0.021l-0.035-0.02l-0.047-0.021l-0.061-0.031l-0.059-0.021
		l-0.083-0.01l-0.083,0.01l-0.082,0.021l-0.071,0.041l-0.071,0.062l-0.048,0.073l-0.035,0.083l-0.023,0.093v0.094l0.012,0.103
		l0.024,0.083L18.7,3.94l0.047,0.062l0.071,0.042l0.083,0.041l0.07,0.021h0.071l0.071-0.01l0.07-0.021l0.06-0.021l0.036-0.031
		l0.023-0.021l0.035-0.02V3.318z"/>
	<path fill="#FFFFFF" d="M24.097,2.281l1.041,2.178h-0.437L24.439,3.92h-1.089l-0.26,0.539h-0.438l1.053-2.178H24.097z
		 M23.517,3.567h0.758l-0.366-0.788L23.517,3.567z"/>
	<path fill="none" stroke="#007DC3" stroke-width="0.039" d="M24.097,2.281l1.041,2.178h-0.437L24.439,3.92h-1.089l-0.26,0.539
		h-0.438l1.053-2.178H24.097z M23.517,3.567h0.758l-0.366-0.788L23.517,3.567z"/>
	<polygon fill="#FFFFFF" points="26.499,2.271 26.477,2.303 26.452,2.333 26.405,2.365 26.345,2.406 26.275,2.447 26.216,2.468 
		26.156,2.478 26.12,2.499 26.12,2.78 26.441,2.78 26.441,4.458 26.854,4.458 26.854,2.271 	"/>
	<polygon fill="none" stroke="#007DC3" stroke-width="0.039" points="26.854,2.271 26.854,4.458 26.44,4.458 26.44,2.779 
		26.12,2.779 26.12,2.499 26.156,2.478 26.216,2.468 26.274,2.447 26.346,2.406 26.404,2.364 26.452,2.333 26.476,2.302 
		26.499,2.271 	"/>
	<polygon fill="#FFFFFF" points="29.506,4.096 29.506,4.458 27.494,4.458 27.506,4.375 27.518,4.271 27.553,4.085 27.647,3.877 
		27.766,3.711 27.896,3.566 28.073,3.421 28.274,3.317 28.464,3.246 28.666,3.184 28.796,3.152 28.879,3.131 28.949,3.111 
		29.021,3.07 29.056,3.018 29.092,2.955 29.104,2.883 29.092,2.821 29.044,2.748 28.973,2.696 28.854,2.644 28.688,2.603 
		28.5,2.593 28.334,2.603 28.169,2.634 28.015,2.696 27.885,2.758 27.824,2.8 27.766,2.841 27.494,2.572 27.553,2.53 27.624,2.478 
		27.766,2.406 27.979,2.323 28.228,2.261 28.487,2.24 28.749,2.25 28.984,2.302 29.21,2.406 29.376,2.551 29.471,2.707 
		29.506,2.872 29.494,3.028 29.435,3.163 29.363,3.277 29.257,3.359 29.127,3.432 28.949,3.483 28.771,3.536 28.583,3.578 
		28.464,3.619 28.346,3.681 28.216,3.785 28.108,3.898 28.05,3.981 28.015,4.043 27.99,4.096 	"/>
	<polygon fill="none" stroke="#007DC3" stroke-width="0.039" points="29.506,4.096 29.506,4.458 27.494,4.458 27.506,4.375 
		27.518,4.271 27.553,4.085 27.647,3.877 27.766,3.711 27.896,3.566 28.073,3.421 28.274,3.317 28.464,3.246 28.666,3.184 
		28.796,3.152 28.879,3.131 28.949,3.111 29.021,3.07 29.056,3.018 29.092,2.955 29.104,2.883 29.092,2.821 29.044,2.748 
		28.973,2.696 28.854,2.644 28.688,2.603 28.5,2.593 28.334,2.603 28.169,2.634 28.015,2.696 27.885,2.758 27.824,2.8 27.766,2.841 
		27.494,2.572 27.553,2.53 27.624,2.478 27.766,2.406 27.979,2.323 28.228,2.261 28.487,2.24 28.749,2.25 28.984,2.302 29.21,2.406 
		29.376,2.551 29.471,2.707 29.506,2.872 29.494,3.028 29.435,3.163 29.363,3.277 29.257,3.359 29.127,3.432 28.949,3.483 
		28.771,3.536 28.583,3.578 28.464,3.619 28.346,3.681 28.216,3.785 28.108,3.898 28.05,3.981 28.015,4.043 27.99,4.096 	"/>
	<polygon fill="#FFFFFF" points="9.539,23.029 9.539,17.482 8.439,17.71 8.379,17.71 8.309,17.689 8.262,17.647 8.237,17.585 
		8.237,17.534 8.262,17.472 9.823,15.492 9.848,15.471 9.87,15.45 9.906,15.439 9.931,15.429 9.965,15.429 10.001,15.429 
		10.036,15.439 10.061,15.45 10.096,15.471 10.107,15.492 11.682,17.472 11.705,17.534 11.705,17.585 11.669,17.647 11.622,17.689 
		11.563,17.71 11.492,17.71 10.403,17.482 10.403,23.029 	"/>
	<polygon fill="#FFDD00" points="11.539,13.801 11.422,13.78 11.314,13.718 11.243,13.625 11.22,13.521 11.22,10.182 11.243,10.068 
		11.314,9.975 11.422,9.913 11.539,9.892 22.05,9.892 22.18,9.913 22.286,9.975 22.357,10.068 22.381,10.182 22.381,13.521 
		22.357,13.625 22.286,13.718 22.18,13.78 22.05,13.801 	"/>
	<polygon fill="#FFFFFF" points="30.121,2.126 30.322,2.437 30.465,2.737 30.548,3.049 30.583,3.37 30.548,3.681 30.476,3.993 
		30.322,4.303 30.134,4.594 30.274,4.594 30.583,4.324 30.808,4.034 30.938,3.713 30.984,3.36 30.938,3.007 30.808,2.696 
		30.583,2.395 30.274,2.126 	"/>
	<polygon fill="none" stroke="#007DC3" stroke-width="0.039" points="30.274,4.593 30.583,4.323 30.808,4.033 30.938,3.712 
		30.984,3.359 30.938,3.007 30.808,2.696 30.583,2.396 30.274,2.125 30.121,2.125 30.322,2.437 30.464,2.737 30.547,3.048 
		30.583,3.369 30.547,3.681 30.476,3.992 30.322,4.303 30.133,4.593 	"/>
	<polygon fill="#FFFFFF" points="21.884,2.126 21.576,2.395 21.351,2.696 21.221,3.007 21.174,3.36 21.221,3.713 21.351,4.034 
		21.576,4.324 21.884,4.594 22.038,4.594 21.836,4.303 21.694,3.993 21.6,3.681 21.576,3.37 21.6,3.049 21.694,2.737 21.836,2.437 
		22.038,2.126 	"/>
	<polygon fill="none" stroke="#007DC3" stroke-width="0.039" points="21.884,4.593 21.575,4.323 21.351,4.033 21.221,3.712 
		21.174,3.359 21.221,3.007 21.351,2.696 21.575,2.396 21.884,2.125 22.037,2.125 21.837,2.437 21.694,2.737 21.6,3.048 
		21.575,3.369 21.6,3.681 21.694,3.992 21.837,4.303 22.037,4.593 	"/>
	<polygon fill="#FFFFFF" points="47.069,14.008 47.282,13.978 47.472,13.863 47.591,13.708 47.638,13.521 47.638,10.192 
		47.591,10.006 47.472,9.84 47.282,9.736 47.069,9.694 38.914,9.694 38.69,9.736 38.5,9.84 38.383,10.006 38.335,10.192 
		38.335,13.521 38.383,13.708 38.5,13.863 38.69,13.978 38.914,14.008 	"/>
	<polygon fill="#FFFFFF" points="23.186,23.029 23.186,17.482 22.097,17.71 22.025,17.71 21.967,17.689 21.907,17.647 
		21.884,17.585 21.884,17.534 21.907,17.472 23.47,15.492 23.493,15.471 23.528,15.45 23.553,15.439 23.588,15.429 23.624,15.429 
		23.647,15.429 23.683,15.439 23.719,15.45 23.741,15.471 23.766,15.492 25.327,17.472 25.352,17.534 25.352,17.585 25.327,17.647 
		25.28,17.689 25.21,17.71 25.15,17.71 24.05,17.482 24.05,23.029 	"/>
	<polygon fill="#FFFFFF" points="42.548,23.029 42.548,18.467 43.033,18.052 43.447,17.68 43.803,17.378 44.099,17.12 
		44.323,16.922 44.478,16.776 44.584,16.693 44.619,16.663 43.661,16.134 43.613,16.103 43.589,16.041 43.589,15.979 43.613,15.926 
		43.661,15.885 43.721,15.865 46.431,15.429 46.465,15.429 46.489,15.429 46.525,15.439 46.561,15.45 46.584,15.471 46.608,15.492 
		46.619,15.522 46.631,15.554 46.644,15.584 46.631,15.616 46.146,17.979 46.11,18.032 46.063,18.074 46.004,18.104 45.934,18.104 
		45.874,18.074 45.826,18.032 45.235,17.191 43.424,18.789 43.424,23.029 	"/>
	<polygon fill="#ED1C24" points="38.915,13.801 38.785,13.78 38.678,13.718 38.606,13.625 38.584,13.521 38.584,10.193 
		38.606,10.089 38.678,9.996 38.785,9.933 38.915,9.913 47.069,9.913 47.188,9.933 47.295,9.996 47.366,10.089 47.389,10.193 
		47.389,13.521 47.366,13.625 47.295,13.718 47.188,13.78 47.069,13.801 	"/>
	<path fill="#FFFFFF" d="M40.998,10.773l1.053,2.167h-0.449l-0.261-0.528h-1.089l-0.261,0.528h-0.438l1.054-2.167H40.998z
		 M40.43,12.059h0.757l-0.378-0.788L40.43,12.059z"/>
	<path fill="none" stroke="#ED1C24" stroke-width="0.039" d="M40.998,10.773l1.053,2.167h-0.449l-0.261-0.528h-1.089l-0.261,0.528
		h-0.438l1.054-2.167H40.998z M40.43,12.059h0.757l-0.378-0.788L40.43,12.059z"/>
	<polygon fill="#FFFFFF" points="43.412,10.763 43.389,10.794 43.365,10.814 43.318,10.856 43.258,10.898 43.188,10.939 
		43.117,10.96 43.069,10.97 43.021,10.981 43.021,11.271 43.353,11.271 43.353,12.951 43.767,12.951 43.767,10.763 	"/>
	<polygon fill="none" stroke="#ED1C24" stroke-width="0.039" points="43.768,10.763 43.768,12.951 43.354,12.951 43.354,11.271 
		43.021,11.271 43.021,10.981 43.069,10.97 43.116,10.96 43.188,10.939 43.258,10.898 43.317,10.856 43.365,10.815 43.389,10.794 
		43.412,10.763 	"/>
	<polygon fill="#FFFFFF" points="46.419,12.578 46.419,12.951 44.406,12.951 44.406,12.868 44.419,12.765 44.466,12.578 
		44.561,12.371 44.667,12.205 44.809,12.06 44.986,11.914 45.188,11.799 45.377,11.728 45.577,11.675 45.696,11.645 45.792,11.624 
		45.862,11.592 45.922,11.562 45.969,11.509 46.005,11.447 46.005,11.375 45.992,11.302 45.957,11.239 45.886,11.188 45.768,11.136 
		45.602,11.094 45.412,11.075 45.234,11.094 45.08,11.125 44.916,11.188 44.797,11.25 44.726,11.292 44.667,11.333 44.406,11.075 
		44.453,11.033 44.536,10.97 44.679,10.897 44.892,10.805 45.129,10.752 45.4,10.731 45.649,10.743 45.897,10.794 46.123,10.897 
		46.289,11.033 46.384,11.198 46.419,11.364 46.395,11.52 46.348,11.654 46.265,11.758 46.17,11.852 46.027,11.924 45.851,11.977 
		45.673,12.018 45.495,12.069 45.364,12.11 45.259,12.173 45.129,12.276 45.01,12.391 44.95,12.474 44.928,12.537 44.903,12.578 	
		"/>
	<polygon fill="none" stroke="#ED1C24" stroke-width="0.039" points="46.419,12.578 46.419,12.951 44.406,12.951 44.406,12.868 
		44.419,12.765 44.466,12.578 44.561,12.371 44.667,12.205 44.809,12.06 44.986,11.914 45.188,11.799 45.377,11.728 45.577,11.675 
		45.696,11.645 45.792,11.624 45.862,11.592 45.922,11.562 45.969,11.509 46.005,11.447 46.005,11.375 45.992,11.302 45.957,11.239 
		45.886,11.188 45.768,11.136 45.602,11.094 45.412,11.075 45.234,11.094 45.08,11.125 44.916,11.188 44.797,11.25 44.726,11.292 
		44.667,11.333 44.406,11.075 44.453,11.033 44.536,10.97 44.679,10.897 44.892,10.805 45.129,10.752 45.4,10.731 45.649,10.743 
		45.897,10.794 46.123,10.897 46.289,11.033 46.384,11.198 46.419,11.364 46.395,11.52 46.348,11.654 46.265,11.758 46.17,11.852 
		46.027,11.924 45.851,11.977 45.673,12.018 45.495,12.069 45.364,12.11 45.259,12.173 45.129,12.276 45.01,12.391 44.95,12.474 
		44.928,12.537 44.903,12.578 	"/>
	<polygon points="14.227,10.752 14.227,12.94 13.741,12.94 12.675,11.562 12.675,12.94 12.19,12.94 12.19,11.852 12.19,10.752 
		12.628,10.752 13.741,12.173 13.741,10.752 	"/>
	<polygon fill="none" stroke="#FFDD00" stroke-width="0.039" points="14.227,10.752 14.227,12.94 13.741,12.94 12.675,11.562 
		12.675,12.94 12.19,12.94 12.19,11.852 12.19,10.752 12.628,10.752 13.741,12.173 13.741,10.752 	"/>
	<polygon points="18.392,10.763 18.38,10.794 18.356,10.814 18.333,10.836 18.286,10.876 18.238,10.908 18.18,10.939 18.12,10.96 
		18.072,10.97 18.037,10.981 17.99,10.991 17.99,11.333 18.309,11.333 18.309,12.94 18.783,12.94 18.783,10.763 	"/>
	<polygon fill="none" stroke="#FFDD00" stroke-width="0.039" points="18.783,10.763 18.783,12.94 18.31,12.94 18.31,11.333 
		17.99,11.333 17.99,10.991 18.037,10.981 18.073,10.97 18.12,10.96 18.179,10.939 18.238,10.908 18.286,10.877 18.333,10.836 
		18.356,10.815 18.381,10.794 18.392,10.763 	"/>
	<polygon points="17.41,12.515 17.41,12.94 15.397,12.94 15.397,12.888 15.397,12.816 15.422,12.67 15.469,12.494 15.563,12.308 
		15.706,12.121 15.883,11.945 16.096,11.82 16.297,11.727 16.511,11.654 16.735,11.603 16.806,11.583 16.866,11.551 16.9,11.509 
		16.925,11.468 16.937,11.426 16.937,11.385 16.925,11.333 16.889,11.271 16.818,11.219 16.688,11.167 16.546,11.146 16.404,11.136 
		16.273,11.146 16.155,11.167 16.024,11.198 15.919,11.24 15.836,11.292 15.777,11.333 15.729,11.354 15.694,11.385 15.363,11.084 
		15.397,11.063 15.457,11.022 15.563,10.949 15.718,10.877 15.883,10.804 16.061,10.763 16.238,10.742 16.416,10.721 16.629,10.742 
		16.854,10.794 17.09,10.887 17.268,11.032 17.375,11.198 17.41,11.385 17.397,11.551 17.339,11.686 17.231,11.81 17.114,11.903 
		16.96,11.976 16.771,12.028 16.617,12.059 16.463,12.1 16.345,12.152 16.238,12.214 16.144,12.287 16.073,12.37 16.024,12.432 
		15.99,12.474 15.966,12.515 	"/>
	<polygon fill="none" stroke="#FFDD00" stroke-width="0.039" points="17.41,12.515 17.41,12.94 15.397,12.94 15.397,12.888 
		15.397,12.816 15.422,12.67 15.469,12.494 15.563,12.308 15.706,12.121 15.883,11.945 16.096,11.82 16.297,11.727 16.511,11.654 
		16.735,11.603 16.806,11.583 16.866,11.551 16.9,11.509 16.925,11.468 16.937,11.426 16.937,11.385 16.925,11.333 16.889,11.271 
		16.818,11.219 16.688,11.167 16.546,11.146 16.404,11.136 16.273,11.146 16.155,11.167 16.024,11.198 15.919,11.24 15.836,11.292 
		15.777,11.333 15.729,11.354 15.694,11.385 15.363,11.084 15.397,11.063 15.457,11.022 15.563,10.949 15.718,10.877 15.883,10.804 
		16.061,10.763 16.238,10.742 16.416,10.721 16.629,10.742 16.854,10.794 17.09,10.887 17.268,11.032 17.375,11.198 17.41,11.385 
		17.397,11.551 17.339,11.686 17.231,11.81 17.114,11.903 16.96,11.976 16.771,12.028 16.617,12.059 16.463,12.1 16.345,12.152 
		16.238,12.214 16.144,12.287 16.073,12.37 16.024,12.432 15.99,12.474 15.966,12.515 	"/>
	<polygon points="21.445,12.515 21.445,12.94 19.434,12.94 19.434,12.888 19.434,12.816 19.445,12.67 19.505,12.494 19.6,12.308 
		19.729,12.121 19.919,11.945 20.12,11.82 20.321,11.727 20.535,11.654 20.76,11.603 20.831,11.583 20.89,11.551 20.937,11.509 
		20.961,11.468 20.961,11.426 20.961,11.385 20.961,11.333 20.925,11.271 20.842,11.219 20.724,11.167 20.569,11.146 20.428,11.136 
		20.298,11.146 20.18,11.167 20.049,11.198 19.955,11.24 19.859,11.292 19.801,11.333 19.765,11.354 19.718,11.385 19.397,11.084 
		19.434,11.063 19.48,11.022 19.6,10.949 19.754,10.877 19.919,10.804 20.097,10.763 20.262,10.742 20.452,10.721 20.652,10.742 
		20.89,10.794 21.114,10.887 21.304,11.032 21.411,11.198 21.445,11.385 21.422,11.551 21.362,11.686 21.257,11.81 21.138,11.903 
		20.983,11.976 20.807,12.028 20.652,12.059 20.499,12.1 20.369,12.152 20.273,12.214 20.18,12.287 20.097,12.37 20.049,12.432 
		20.025,12.474 19.989,12.515 	"/>
	<polygon fill="none" stroke="#FFDD00" stroke-width="0.039" points="21.445,12.515 21.445,12.94 19.434,12.94 19.434,12.888 
		19.434,12.816 19.445,12.67 19.505,12.494 19.6,12.308 19.729,12.121 19.919,11.945 20.12,11.82 20.321,11.727 20.535,11.654 
		20.76,11.603 20.831,11.583 20.89,11.551 20.937,11.509 20.961,11.468 20.961,11.426 20.961,11.385 20.961,11.333 20.925,11.271 
		20.842,11.219 20.724,11.167 20.569,11.146 20.428,11.136 20.298,11.146 20.18,11.167 20.049,11.198 19.955,11.24 19.859,11.292 
		19.801,11.333 19.765,11.354 19.718,11.385 19.397,11.084 19.434,11.063 19.48,11.022 19.6,10.949 19.754,10.877 19.919,10.804 
		20.097,10.763 20.262,10.742 20.452,10.721 20.652,10.742 20.89,10.794 21.114,10.887 21.304,11.032 21.411,11.198 21.445,11.385 
		21.422,11.551 21.362,11.686 21.257,11.81 21.138,11.903 20.983,11.976 20.807,12.028 20.652,12.059 20.499,12.1 20.369,12.152 
		20.273,12.214 20.18,12.287 20.097,12.37 20.049,12.432 20.025,12.474 19.989,12.515 	"/>
</g>
<g id="Layer_11">
</g>
<g id="Layer_10">
</g>
<g id="Layer_9">
</g>
<g id="Layer_8">
</g>
<g id="Layer_7">
</g>
<g id="Layer_6">
</g>
<g id="Layer_5">
</g>
<g id="Layer_4">
</g>
<g id="Layer_3">
</g>
<g id="Layer_2">
</g>
</svg>
