<?xml version="1.0" encoding="utf-8"?>
<!-- Generator: Adobe Illustrator 16.0.0, SVG Export Plug-In . SVG Version: 6.00 Build 0)  -->
<!DOCTYPE svg PUBLIC "-//W3C//DTD SVG 1.1//EN" "http://www.w3.org/Graphics/SVG/1.1/DTD/svg11.dtd">
<svg version="1.1" xmlns="http://www.w3.org/2000/svg" xmlns:xlink="http://www.w3.org/1999/xlink" x="0px" y="0px"
	 width="33.438px" height="32.888px" viewBox="0 0 33.438 32.888" enable-background="new 0 0 33.438 32.888" xml:space="preserve">
<g id="Layer_15">
</g>
<g id="Layer_14">
</g>
<g id="Layer_13">
	<polygon fill="#007DC5" points="0,31.933 0.022,32.113 0.079,32.292 0.168,32.461 0.281,32.607 0.428,32.73 0.596,32.809 
		0.775,32.865 0.967,32.888 32.483,32.888 32.663,32.865 32.843,32.809 33.012,32.73 33.157,32.607 33.28,32.461 33.37,32.292 
		33.415,32.113 33.438,31.933 33.438,0.955 33.415,0.775 33.37,0.596 33.28,0.427 33.157,0.281 33.012,0.158 32.843,0.079 
		32.663,0.023 32.483,0 0.967,0 0.775,0.023 0.596,0.079 0.428,0.158 0.281,0.281 0.168,0.427 0.079,0.596 0.022,0.775 0,0.955 	"/>
	<path fill="#FFFFFF" d="M0.281,0.955l0.012-0.123l0.033-0.135l0.157-0.225l0.213-0.146l0.136-0.033L0.967,0.27h31.517l0.123,0.023
		l0.135,0.033l0.226,0.146l0.146,0.225l0.033,0.135l0.023,0.123v30.978l-0.023,0.124l-0.033,0.135l-0.146,0.224l-0.226,0.146
		l-0.135,0.034l-0.123,0.023H0.967l-0.135-0.023l-0.136-0.034l-0.213-0.146l-0.157-0.224l-0.033-0.135L0.27,31.922L0.281,0.955z
		 M0.686,31.922l0.022,0.101l0.057,0.101l0.101,0.056l0.102,0.023h31.517l0.102-0.023l0.09-0.056l0.056-0.09l0.022-0.101V0.955
		L32.73,0.854l-0.056-0.09l-0.09-0.056l-0.102-0.022H0.967L0.865,0.708L0.765,0.764l-0.057,0.09L0.686,0.967V31.922z"/>
	<polygon fill="#FFFFFF" points="31.248,2.258 31.226,2.213 31.181,2.191 2.258,2.191 2.213,2.213 2.202,2.258 2.202,22.959 
		2.213,23.004 2.258,23.026 31.181,23.026 31.226,23.004 31.248,22.959 	"/>
	<polygon fill="#FFFFFF" points="17.41,28.316 17.522,30.81 15.916,30.81 16.028,28.316 14.287,28.732 14.175,28.732 14.074,28.688 
		13.995,28.619 13.951,28.519 13.951,28.406 13.995,28.305 16.489,24.699 16.523,24.654 16.568,24.621 16.613,24.598 16.669,24.576 
		16.726,24.576 16.781,24.576 16.826,24.598 16.871,24.621 16.916,24.654 16.949,24.699 19.443,28.305 19.488,28.406 19.488,28.519 
		19.443,28.619 19.364,28.688 19.263,28.732 19.162,28.732 	"/>
	<path d="M12.019,20.792l-0.112,0.146l-0.135,0.101l-0.157,0.067l-0.191,0.023l-0.19-0.023l-0.157-0.056l-0.146-0.09l-0.112-0.135
		l-0.102-0.168l-0.057-0.191l-0.045-0.236l-0.011-0.258l0.011-0.259l0.034-0.224l0.067-0.191l0.09-0.169l0.112-0.123l0.123-0.09
		l0.146-0.056l0.169-0.011l0.168,0.011l0.146,0.056l0.124,0.09l0.112,0.123l0.09,0.169l0.067,0.224l0.034,0.259l0.011,0.326h-1.067
		l0.034,0.28l0.079,0.191l0.123,0.101l0.135,0.034l0.146-0.034l0.146-0.112L12.019,20.792z M11.659,19.735l-0.021-0.214
		l-0.068-0.146l-0.102-0.089l-0.111-0.034l-0.124,0.034l-0.09,0.089l-0.067,0.158l-0.023,0.202H11.659z"/>
	<path fill="none" stroke="#FFFFFF" stroke-width="0.047" d="M12.019,20.792l-0.112,0.146l-0.135,0.101l-0.157,0.067l-0.191,0.023
		l-0.19-0.023l-0.157-0.056l-0.146-0.09l-0.112-0.135l-0.102-0.168l-0.057-0.191l-0.045-0.236l-0.011-0.258l0.011-0.259l0.034-0.224
		l0.067-0.191l0.09-0.169l0.112-0.123l0.123-0.09l0.146-0.056l0.169-0.011l0.168,0.011l0.146,0.056l0.124,0.09l0.112,0.123
		l0.09,0.169l0.067,0.224l0.034,0.259l0.011,0.326h-1.067l0.034,0.28l0.079,0.191l0.123,0.101l0.135,0.034l0.146-0.034l0.146-0.112
		L12.019,20.792z M11.659,19.735l-0.021-0.214l-0.068-0.146l-0.102-0.089l-0.111-0.034l-0.124,0.034l-0.09,0.089l-0.067,0.158
		l-0.023,0.202H11.659z"/>
	<polygon points="13.546,19.252 13.411,19.274 13.311,19.342 13.243,19.454 13.221,19.555 13.221,21.083 12.793,21.083 
		12.793,18.87 13.209,18.87 13.221,18.982 13.422,18.881 13.682,18.848 13.816,18.859 13.939,18.904 14.04,18.96 14.13,19.05 
		14.266,19.274 14.3,19.555 14.3,21.083 13.872,21.083 13.872,19.6 13.85,19.454 13.782,19.342 13.682,19.274 	"/>
	<polygon fill="none" stroke="#FFFFFF" stroke-width="0.047" points="13.546,19.252 13.411,19.274 13.311,19.342 13.243,19.454 
		13.221,19.555 13.221,21.083 12.793,21.083 12.793,18.87 13.209,18.87 13.221,18.982 13.422,18.881 13.682,18.848 13.816,18.859 
		13.939,18.904 14.04,18.96 14.13,19.05 14.266,19.274 14.3,19.555 14.3,21.083 13.872,21.083 13.872,19.6 13.85,19.454 
		13.782,19.342 13.682,19.274 	"/>
	<polygon points="15.399,21.083 14.928,18.87 15.354,18.87 15.591,19.994 15.815,18.87 16.241,18.87 16.488,19.994 16.702,18.87 
		17.151,18.87 16.714,21.083 16.275,21.083 16.039,20.05 15.838,21.083 	"/>
	<polygon fill="none" stroke="#FFFFFF" stroke-width="0.047" points="15.399,21.083 14.928,18.87 15.354,18.87 15.591,19.994 
		15.815,18.87 16.241,18.87 16.488,19.994 16.702,18.87 17.151,18.87 16.714,21.083 16.275,21.083 16.039,20.05 15.838,21.083 	"/>
	<rect x="17.793" y="18.87" width="0.427" height="2.213"/>
	<rect x="17.792" y="18.87" fill="none" stroke="#FFFFFF" stroke-width="0.047" width="0.427" height="2.213"/>
	<polygon points="17.916,18.174 17.849,18.23 17.793,18.308 17.78,18.387 17.793,18.478 17.849,18.556 17.916,18.602 18.006,18.624 
		18.095,18.602 18.174,18.556 18.219,18.478 18.241,18.387 18.219,18.308 18.174,18.23 18.095,18.174 18.006,18.162 	"/>
	<polygon fill="none" stroke="#FFFFFF" stroke-width="0.047" points="18.241,18.387 18.218,18.478 18.174,18.556 18.095,18.601 
		18.005,18.624 17.915,18.601 17.849,18.556 17.792,18.478 17.781,18.387 17.792,18.309 17.849,18.23 17.915,18.174 18.005,18.163 
		18.095,18.174 18.174,18.23 18.218,18.309 	"/>
	<polygon points="19.117,18.87 19.117,21.375 19.094,21.499 19.027,21.634 18.904,21.723 18.668,21.757 18.668,22.184 18.87,22.173 
		19.049,22.128 19.196,22.049 19.33,21.936 19.432,21.802 19.499,21.656 19.555,21.499 19.566,21.319 19.566,18.87 	"/>
	<polygon fill="none" stroke="#FFFFFF" stroke-width="0.047" points="19.117,18.87 19.566,18.87 19.566,21.319 19.556,21.499 
		19.499,21.656 19.433,21.802 19.33,21.937 19.196,22.049 19.05,22.127 18.87,22.172 18.668,22.184 18.668,21.757 18.904,21.723 
		19.027,21.633 19.096,21.499 19.117,21.375 	"/>
	<polygon points="19.252,18.163 19.173,18.22 19.129,18.298 19.106,18.388 19.129,18.478 19.173,18.556 19.252,18.601 
		19.342,18.624 19.432,18.601 19.51,18.556 19.566,18.478 19.578,18.388 19.566,18.298 19.51,18.22 19.432,18.163 19.342,18.15 	"/>
	<polygon fill="none" stroke="#FFFFFF" stroke-width="0.047" points="19.578,18.387 19.566,18.478 19.511,18.556 19.432,18.601 
		19.342,18.624 19.252,18.601 19.173,18.556 19.129,18.478 19.105,18.387 19.129,18.297 19.173,18.219 19.252,18.163 19.342,18.151 
		19.432,18.163 19.511,18.219 19.566,18.297 	"/>
	<path d="M8.436,19.982v0.202l-0.022,0.169l-0.034,0.123l-0.032,0.09l-0.113,0.112L8.11,20.712l-0.124-0.034l-0.102-0.123
		l-0.045-0.09l-0.033-0.123l-0.022-0.169v-0.202V19.77l0.022-0.158l0.022-0.134l0.045-0.09l0.102-0.101l0.135-0.045l0.123,0.045
		l0.101,0.112l0.045,0.09l0.034,0.135l0.022,0.157V19.982z M8.852,19.735L8.817,19.51L8.75,19.319l-0.079-0.168L8.56,19.016
		l-0.136-0.101l-0.146-0.056L8.11,18.848l-0.18,0.011l-0.146,0.056L7.66,19.016L7.548,19.14l-0.09,0.157L7.402,19.5l-0.034,0.213
		l-0.011,0.259l0.011,0.247l0.034,0.224l0.066,0.203l0.091,0.168l0.112,0.135l0.123,0.09l0.157,0.056l0.169,0.022l0.168-0.022
		l0.146-0.056l0.124-0.09l0.111-0.124l0.09-0.168l0.057-0.191l0.034-0.225l0.021-0.247L8.852,19.735z"/>
	<path fill="none" stroke="#FFFFFF" stroke-width="0.047" d="M8.436,19.982v0.202l-0.022,0.169l-0.034,0.123l-0.032,0.09
		l-0.113,0.112L8.11,20.712l-0.124-0.034l-0.102-0.123l-0.045-0.09l-0.033-0.123l-0.022-0.169v-0.202V19.77l0.022-0.158l0.022-0.134
		l0.045-0.09l0.102-0.101l0.135-0.045l0.123,0.045l0.101,0.112l0.045,0.09l0.034,0.135l0.022,0.157V19.982z M8.852,19.735
		L8.817,19.51L8.75,19.319l-0.079-0.168L8.56,19.016l-0.136-0.101l-0.146-0.056L8.11,18.848l-0.18,0.011l-0.146,0.056L7.66,19.016
		L7.548,19.14l-0.09,0.157L7.402,19.5l-0.034,0.213l-0.011,0.259l0.011,0.247l0.034,0.224l0.066,0.203l0.091,0.168l0.112,0.135
		l0.123,0.09l0.157,0.056l0.169,0.022l0.168-0.022l0.146-0.056l0.124-0.09l0.111-0.124l0.09-0.168l0.057-0.191l0.034-0.225
		l0.021-0.247L8.852,19.735z"/>
	<polygon points="9.548,7.155 9.121,7.155 9.121,4.942 9.548,4.942 9.548,5.056 9.738,4.955 9.964,4.92 10.087,4.932 10.198,4.977 
		10.312,5.056 10.424,5.156 10.535,5.056 10.659,4.977 10.783,4.932 10.93,4.92 11.063,4.932 11.188,4.965 11.289,5.032 
		11.379,5.123 11.502,5.335 11.547,5.561 11.547,7.155 11.119,7.155 11.119,5.627 11.098,5.516 11.042,5.425 10.951,5.37 
		10.827,5.348 10.716,5.37 10.626,5.425 10.569,5.526 10.548,5.627 10.548,7.155 10.121,7.155 10.121,5.627 10.098,5.516 
		10.042,5.425 9.951,5.37 9.829,5.348 9.716,5.37 9.627,5.425 9.569,5.526 9.548,5.627 	"/>
	<polygon fill="none" stroke="#FFFFFF" stroke-width="0.047" points="9.548,7.155 9.121,7.155 9.121,4.942 9.548,4.942 9.548,5.056 
		9.738,4.955 9.964,4.92 10.087,4.932 10.198,4.977 10.312,5.056 10.424,5.156 10.535,5.056 10.659,4.977 10.783,4.932 10.93,4.92 
		11.063,4.932 11.188,4.965 11.289,5.032 11.379,5.123 11.502,5.335 11.547,5.561 11.547,7.155 11.119,7.155 11.119,5.627 
		11.098,5.516 11.042,5.425 10.951,5.37 10.827,5.348 10.716,5.37 10.626,5.425 10.569,5.526 10.548,5.627 10.548,7.155 
		10.121,7.155 10.121,5.627 10.098,5.516 10.042,5.425 9.951,5.37 9.829,5.348 9.716,5.37 9.627,5.425 9.569,5.526 9.548,5.627 	"/>
	<path d="M8.031,6.055L8.02,6.256L8.009,6.415L7.975,6.548L7.93,6.639L7.829,6.751L7.706,6.785L7.582,6.751L7.47,6.627l-0.045-0.09
		L7.391,6.402L7.369,6.246V6.043V5.842l0.021-0.169l0.034-0.123l0.034-0.09l0.112-0.113l0.123-0.033l0.124,0.045L7.93,5.471
		l0.045,0.09l0.034,0.123L8.02,5.853L8.031,6.055z M8.447,5.808L8.402,5.583L8.346,5.392l-0.09-0.168L8.144,5.088L8.009,4.987
		L7.863,4.932L7.694,4.909L7.526,4.932L7.38,4.987l-0.135,0.09L7.133,5.212L7.054,5.37L6.987,5.561L6.953,5.786L6.942,6.043
		l0.011,0.247l0.045,0.225l0.056,0.202l0.09,0.168L7.256,7.01L7.391,7.11l0.146,0.056l0.169,0.023l0.168-0.023L8.02,7.11l0.136-0.09
		l0.101-0.135l0.09-0.157l0.067-0.191l0.034-0.225l0.011-0.258L8.447,5.808z"/>
	<path fill="none" stroke="#FFFFFF" stroke-width="0.047" d="M8.031,6.055L8.02,6.256L8.009,6.415L7.975,6.548L7.93,6.639
		L7.829,6.751L7.706,6.785L7.582,6.751L7.47,6.627l-0.045-0.09L7.391,6.402L7.369,6.246V6.043V5.842l0.021-0.169l0.034-0.123
		l0.034-0.09l0.112-0.113l0.123-0.033l0.124,0.045L7.93,5.471l0.045,0.09l0.034,0.123L8.02,5.853L8.031,6.055z M8.447,5.808
		L8.402,5.583L8.346,5.392l-0.09-0.168L8.144,5.088L8.009,4.987L7.863,4.932L7.694,4.909L7.526,4.932L7.38,4.987l-0.135,0.09
		L7.133,5.212L7.054,5.37L6.987,5.561L6.953,5.786L6.942,6.043l0.011,0.247l0.045,0.225l0.056,0.202l0.09,0.168L7.256,7.01
		L7.391,7.11l0.146,0.056l0.169,0.023l0.168-0.023L8.02,7.11l0.136-0.09l0.101-0.135l0.09-0.157l0.067-0.191l0.034-0.225
		l0.011-0.258L8.447,5.808z"/>
	<polygon points="20.701,4.942 20.701,7.437 20.689,7.57 20.622,7.694 20.488,7.795 20.263,7.817 20.263,8.256 20.454,8.245 
		20.633,8.2 20.779,8.122 20.914,8.009 21.015,7.874 21.094,7.728 21.139,7.57 21.15,7.392 21.15,4.942 	"/>
	<polygon fill="none" stroke="#FFFFFF" stroke-width="0.047" points="20.701,4.942 21.15,4.942 21.15,7.392 21.139,7.571 
		21.094,7.729 21.016,7.875 20.915,8.009 20.78,8.122 20.634,8.2 20.454,8.245 20.263,8.256 20.263,7.817 20.488,7.796 
		20.622,7.695 20.689,7.571 20.701,7.436 	"/>
	<polygon points="20.836,4.235 20.757,4.291 20.712,4.37 20.69,4.459 20.712,4.549 20.757,4.617 20.836,4.673 20.925,4.696 
		21.015,4.673 21.094,4.617 21.15,4.549 21.162,4.459 21.15,4.37 21.094,4.291 21.015,4.235 20.925,4.223 	"/>
	<polygon fill="none" stroke="#FFFFFF" stroke-width="0.047" points="21.161,4.459 21.15,4.55 21.094,4.617 21.016,4.673 
		20.926,4.696 20.836,4.673 20.757,4.617 20.713,4.55 20.689,4.459 20.713,4.37 20.757,4.292 20.836,4.235 20.926,4.224 
		21.016,4.235 21.094,4.292 21.15,4.37 	"/>
	<rect x="19.387" y="4.942" width="0.416" height="2.213"/>
	<rect x="19.387" y="4.942" fill="none" stroke="#FFFFFF" stroke-width="0.047" width="0.416" height="2.213"/>
	<polygon points="19.499,4.246 19.432,4.303 19.376,4.37 19.364,4.459 19.376,4.549 19.432,4.628 19.499,4.673 19.589,4.696 
		19.679,4.673 19.758,4.628 19.803,4.549 19.825,4.459 19.803,4.37 19.758,4.303 19.679,4.246 19.589,4.235 	"/>
	<polygon fill="none" stroke="#FFFFFF" stroke-width="0.047" points="19.825,4.459 19.803,4.55 19.758,4.627 19.679,4.673 
		19.589,4.696 19.499,4.673 19.432,4.627 19.376,4.55 19.364,4.459 19.376,4.37 19.432,4.303 19.499,4.247 19.589,4.235 
		19.679,4.247 19.758,4.303 19.803,4.37 	"/>
	<polygon points="16.983,7.155 16.511,4.942 16.938,4.942 17.186,6.065 17.41,4.942 17.825,4.942 18.072,6.065 18.286,4.942 
		18.746,4.942 18.297,7.155 17.859,7.155 17.623,6.123 17.421,7.155 	"/>
	<polygon fill="none" stroke="#FFFFFF" stroke-width="0.047" points="16.983,7.155 16.511,4.942 16.938,4.942 17.186,6.065 
		17.41,4.942 17.825,4.942 18.072,6.065 18.286,4.942 18.746,4.942 18.297,7.155 17.859,7.155 17.623,6.123 17.421,7.155 	"/>
	<polygon points="15.13,5.325 14.995,5.347 14.894,5.415 14.827,5.516 14.804,5.627 14.804,7.156 14.377,7.156 14.377,4.942 
		14.804,4.942 14.804,5.055 15.006,4.954 15.265,4.92 15.4,4.932 15.522,4.977 15.624,5.033 15.725,5.123 15.849,5.347 
		15.894,5.627 15.894,7.156 15.456,7.156 15.456,5.662 15.433,5.516 15.366,5.415 15.265,5.347 	"/>
	<polygon fill="none" stroke="#FFFFFF" stroke-width="0.047" points="15.13,5.325 14.995,5.347 14.894,5.415 14.827,5.516 
		14.804,5.627 14.804,7.156 14.377,7.156 14.377,4.942 14.804,4.942 14.804,5.055 15.006,4.954 15.265,4.92 15.4,4.932 
		15.522,4.977 15.624,5.033 15.725,5.123 15.849,5.347 15.894,5.627 15.894,7.156 15.456,7.156 15.456,5.662 15.433,5.516 
		15.366,5.415 15.265,5.347 	"/>
	<path d="M13.602,6.853L13.49,7.01L13.354,7.11l-0.156,0.067l-0.191,0.023l-0.191-0.023l-0.156-0.056l-0.146-0.09l-0.111-0.134
		l-0.091-0.169l-0.067-0.191l-0.045-0.236l-0.012-0.258l0.012-0.258l0.045-0.225L12.3,5.37l0.089-0.169l0.113-0.123l0.123-0.09
		l0.146-0.056l0.169-0.023l0.169,0.023l0.146,0.056l0.135,0.09l0.102,0.123l0.09,0.169l0.066,0.213l0.034,0.27l0.023,0.326h-1.079
		l0.034,0.28l0.079,0.18l0.123,0.113l0.135,0.033l0.146-0.033l0.146-0.113L13.602,6.853z M13.243,5.808l-0.022-0.213l-0.067-0.158
		l-0.102-0.09l-0.112-0.022l-0.112,0.034l-0.102,0.09l-0.066,0.146l-0.023,0.213H13.243z"/>
	<path fill="none" stroke="#FFFFFF" stroke-width="0.047" d="M13.602,6.853L13.49,7.01L13.354,7.11l-0.156,0.067l-0.191,0.023
		l-0.191-0.023l-0.156-0.056l-0.146-0.09l-0.111-0.134l-0.091-0.169l-0.067-0.191l-0.045-0.236l-0.012-0.258l0.012-0.258
		l0.045-0.225L12.3,5.37l0.089-0.169l0.113-0.123l0.123-0.09l0.146-0.056l0.169-0.023l0.169,0.023l0.146,0.056l0.135,0.09
		l0.102,0.123l0.09,0.169l0.066,0.213l0.034,0.27l0.023,0.326h-1.079l0.034,0.28l0.079,0.18l0.123,0.113l0.135,0.033l0.146-0.033
		l0.146-0.113L13.602,6.853z M13.243,5.808l-0.022-0.213l-0.067-0.158l-0.102-0.09l-0.112-0.022l-0.112,0.034l-0.102,0.09
		l-0.066,0.146l-0.023,0.213H13.243z"/>
	<path d="M5.919,6.089L5.818,5.931L5.661,5.819L5.459,5.785H4.875v0.966h0.641l0.168-0.033l0.135-0.124l0.101-0.157l0.034-0.169
		L5.919,6.089z M5.853,4.819l-0.09-0.134l-0.136-0.09L5.471,4.561H4.875V5.37h0.596l0.156-0.023l0.124-0.101l0.091-0.135
		l0.032-0.146L5.853,4.819z M6.145,5.718l0.124,0.157l0.066,0.18l0.022,0.18L6.347,6.426L6.302,6.594L6.224,6.751L6.122,6.886
		L5.977,7.01L5.796,7.088L5.582,7.144L5.313,7.156H4.459v-3.01h0.854l0.247,0.011l0.213,0.056l0.169,0.079l0.123,0.112l0.101,0.135
		l0.068,0.146l0.045,0.146L6.29,4.988L6.269,5.145L6.211,5.302L6.11,5.437L5.987,5.572L6.145,5.718z"/>
	<path fill="none" stroke="#FFFFFF" stroke-width="0.047" d="M5.919,6.089L5.818,5.931L5.661,5.819L5.459,5.785H4.875v0.966h0.641
		l0.168-0.033l0.135-0.124l0.101-0.157l0.034-0.169L5.919,6.089z M5.853,4.819l-0.09-0.134l-0.136-0.09L5.471,4.561H4.875V5.37
		h0.596l0.156-0.023l0.124-0.101l0.091-0.135l0.032-0.146L5.853,4.819z M6.145,5.718l0.124,0.157l0.066,0.18l0.022,0.18L6.347,6.426
		L6.302,6.594L6.224,6.751L6.122,6.886L5.977,7.01L5.796,7.088L5.582,7.144L5.313,7.156H4.459v-3.01h0.854l0.247,0.011l0.213,0.056
		l0.169,0.079l0.123,0.112l0.101,0.135l0.068,0.146l0.045,0.146L6.29,4.988L6.269,5.145L6.211,5.302L6.11,5.437L5.987,5.572
		L6.145,5.718z"/>
	<path d="M10.008,9.581h0.416v2.404l-0.034,0.292l-0.123,0.281l-0.102,0.123l-0.134,0.101l-0.169,0.079l-0.213,0.056l-0.146-0.415
		l0.191-0.045l0.168-0.101l0.078-0.09l0.046-0.135l0.021-0.168v-0.225L9.84,11.817l-0.202,0.022l-0.112-0.011l-0.112-0.045
		l-0.112-0.068L9.2,11.614L9.098,11.48L9.031,11.3l-0.057-0.225L8.94,10.806v-0.281l0.034-0.259l0.057-0.202L9.11,9.885l0.111-0.146
		l0.112-0.102l0.124-0.056l0.135-0.022l0.236,0.022L9.997,9.66L10.008,9.581z M9.997,10.098l-0.124-0.09L9.716,9.986L9.57,10.031
		l-0.112,0.123l-0.045,0.101L9.39,10.39l-0.021,0.169v0.202l0.011,0.202l0.034,0.157l0.045,0.124l0.067,0.078l0.135,0.09
		l0.111,0.023l0.113-0.034l0.112-0.079V10.098z"/>
	<path fill="none" stroke="#FFFFFF" stroke-width="0.047" d="M10.008,9.581h0.416v2.404l-0.034,0.292l-0.123,0.281l-0.102,0.123
		l-0.134,0.101l-0.169,0.079l-0.213,0.056l-0.146-0.415l0.191-0.045l0.168-0.101l0.078-0.09l0.046-0.135l0.021-0.168v-0.225
		L9.84,11.817l-0.202,0.022l-0.112-0.011l-0.112-0.045l-0.112-0.068L9.2,11.614L9.098,11.48L9.031,11.3l-0.057-0.225L8.94,10.806
		v-0.281l0.034-0.259l0.057-0.202L9.11,9.885l0.111-0.146l0.112-0.102l0.124-0.056l0.135-0.022l0.236,0.022L9.997,9.66L10.008,9.581
		z M9.997,10.098l-0.124-0.09L9.716,9.986L9.57,10.031l-0.112,0.123l-0.045,0.101L9.39,10.39l-0.021,0.169v0.202l0.011,0.202
		l0.034,0.157l0.045,0.124l0.067,0.078l0.135,0.09l0.111,0.023l0.113-0.034l0.112-0.079V10.098z"/>
	<path d="M8.064,10.693l-0.011,0.202l-0.011,0.169l-0.034,0.123l-0.045,0.09l-0.102,0.112l-0.123,0.034l-0.124-0.034l-0.111-0.112
		l-0.045-0.101l-0.034-0.123l-0.011-0.169l-0.012-0.202V10.48l0.022-0.158l0.034-0.134l0.033-0.09l0.112-0.101l0.123-0.034
		l0.124,0.034l0.112,0.112l0.045,0.09l0.034,0.135l0.011,0.168L8.064,10.693z M8.48,10.446l-0.045-0.225L8.38,10.03L8.29,9.862
		L8.178,9.728l-0.135-0.09L7.896,9.582L7.728,9.56L7.56,9.57L7.414,9.626L7.278,9.728L7.178,9.852l-0.09,0.168L7.021,10.21
		l-0.034,0.225l-0.011,0.247l0.011,0.258l0.045,0.214l0.057,0.202l0.09,0.168l0.112,0.135l0.135,0.101l0.146,0.056l0.169,0.012
		l0.168-0.012l0.146-0.056l0.135-0.101l0.112-0.123l0.079-0.169l0.066-0.191l0.034-0.225l0.011-0.247L8.48,10.446z"/>
	<path fill="none" stroke="#FFFFFF" stroke-width="0.047" d="M8.064,10.693l-0.011,0.202l-0.011,0.169l-0.034,0.123l-0.045,0.09
		l-0.102,0.112l-0.123,0.034l-0.124-0.034l-0.111-0.112l-0.045-0.101l-0.034-0.123l-0.011-0.169l-0.012-0.202V10.48l0.022-0.158
		l0.034-0.134l0.033-0.09l0.112-0.101l0.123-0.034l0.124,0.034l0.112,0.112l0.045,0.09l0.034,0.135l0.011,0.168L8.064,10.693z
		 M8.48,10.446l-0.045-0.225L8.38,10.03L8.29,9.862L8.178,9.728l-0.135-0.09L7.896,9.582L7.728,9.56L7.56,9.57L7.414,9.626
		L7.278,9.728L7.178,9.852l-0.09,0.168L7.021,10.21l-0.034,0.225l-0.011,0.247l0.011,0.258l0.045,0.214l0.057,0.202l0.09,0.168
		l0.112,0.135l0.135,0.101l0.146,0.056l0.169,0.012l0.168-0.012l0.146-0.056l0.135-0.101l0.112-0.123l0.079-0.169l0.066-0.191
		l0.034-0.225l0.011-0.247L8.48,10.446z"/>
	<polygon points="18.511,9.581 18.511,12.086 18.487,12.221 18.422,12.344 18.286,12.434 18.062,12.468 18.062,12.895 
		18.253,12.883 18.433,12.839 18.59,12.76 18.713,12.647 18.813,12.513 18.893,12.366 18.938,12.21 18.948,12.03 18.948,9.581 	"/>
	<polygon fill="none" stroke="#FFFFFF" stroke-width="0.047" points="18.511,9.582 18.949,9.582 18.949,12.03 18.938,12.209 
		18.893,12.367 18.813,12.514 18.713,12.647 18.59,12.76 18.432,12.838 18.253,12.883 18.062,12.895 18.062,12.468 18.286,12.435 
		18.421,12.344 18.488,12.222 18.511,12.086 	"/>
	<polygon points="18.634,8.874 18.556,8.931 18.511,9.009 18.488,9.099 18.511,9.188 18.556,9.267 18.634,9.312 18.724,9.335 
		18.826,9.312 18.893,9.267 18.949,9.188 18.972,9.099 18.949,9.009 18.893,8.931 18.826,8.874 18.724,8.863 	"/>
	<polygon fill="none" stroke="#FFFFFF" stroke-width="0.047" points="18.972,9.099 18.949,9.188 18.893,9.267 18.825,9.312 
		18.725,9.334 18.634,9.312 18.557,9.267 18.511,9.188 18.488,9.099 18.511,9.009 18.557,8.931 18.634,8.874 18.725,8.862 
		18.825,8.874 18.893,8.931 18.949,9.009 	"/>
	<rect x="17.185" y="9.581" width="0.416" height="2.224"/>
	<rect x="17.185" y="9.582" fill="none" stroke="#FFFFFF" stroke-width="0.047" width="0.416" height="2.224"/>
	<polygon points="17.309,8.896 17.231,8.941 17.186,9.019 17.163,9.109 17.186,9.188 17.231,9.267 17.309,9.323 17.399,9.334 
		17.489,9.323 17.556,9.267 17.612,9.188 17.623,9.109 17.612,9.019 17.556,8.941 17.489,8.896 17.399,8.873 	"/>
	<polygon fill="none" stroke="#FFFFFF" stroke-width="0.047" points="17.623,9.11 17.612,9.189 17.557,9.267 17.488,9.323 
		17.398,9.335 17.31,9.323 17.23,9.267 17.186,9.189 17.162,9.11 17.186,9.02 17.23,8.942 17.31,8.897 17.398,8.874 17.488,8.897 
		17.557,8.942 17.612,9.02 	"/>
	<polygon points="14.782,11.806 14.31,9.582 14.737,9.582 14.983,10.705 15.209,9.582 15.624,9.582 15.872,10.705 16.096,9.582 
		16.545,9.582 16.096,11.806 15.669,11.806 15.433,10.772 15.23,11.806 	"/>
	<polygon fill="none" stroke="#FFFFFF" stroke-width="0.047" points="14.782,11.806 14.31,9.582 14.737,9.582 14.983,10.705 
		15.209,9.582 15.624,9.582 15.872,10.705 16.096,9.582 16.545,9.582 16.096,11.806 15.669,11.806 15.433,10.772 15.23,11.806 	"/>
	<path d="M12.479,11.502l-0.101,0.146l-0.134,0.112l-0.169,0.056l-0.181,0.023l-0.19-0.023l-0.168-0.056l-0.136-0.09l-0.123-0.135
		l-0.09-0.157l-0.067-0.202l-0.033-0.225l-0.012-0.269l0.012-0.259L11.12,10.2l0.067-0.191l0.078-0.158l0.113-0.134l0.134-0.09
		l0.146-0.056l0.169-0.012l0.156,0.012l0.146,0.056l0.135,0.09l0.112,0.123l0.079,0.169l0.066,0.224l0.034,0.27l0.023,0.314h-1.068
		l0.023,0.281l0.09,0.191l0.112,0.112l0.135,0.034l0.146-0.045l0.146-0.112L12.479,11.502z M12.12,10.458l-0.022-0.225l-0.067-0.146
		l-0.091-0.09l-0.123-0.033l-0.112,0.033l-0.102,0.09l-0.066,0.158l-0.023,0.213H12.12z"/>
	<path fill="none" stroke="#FFFFFF" stroke-width="0.047" d="M12.479,11.502l-0.101,0.146l-0.134,0.112l-0.169,0.056l-0.181,0.023
		l-0.19-0.023l-0.168-0.056l-0.136-0.09l-0.123-0.135l-0.09-0.157l-0.067-0.202l-0.033-0.225l-0.012-0.269l0.012-0.259L11.12,10.2
		l0.067-0.191l0.078-0.158l0.113-0.134l0.134-0.09l0.146-0.056l0.169-0.012l0.156,0.012l0.146,0.056l0.135,0.09l0.112,0.123
		l0.079,0.169l0.066,0.224l0.034,0.27l0.023,0.314h-1.068l0.023,0.281l0.09,0.191l0.112,0.112l0.135,0.034l0.146-0.045l0.146-0.112
		L12.479,11.502z M12.12,10.458l-0.022-0.225l-0.067-0.146l-0.091-0.09l-0.123-0.033l-0.112,0.033l-0.102,0.09l-0.066,0.158
		l-0.023,0.213H12.12z"/>
	<polygon points="4.46,8.784 4.863,8.784 5.526,11.053 6.2,8.784 6.616,8.784 5.718,11.805 5.526,11.805 5.336,11.805 	"/>
	<polygon fill="none" stroke="#FFFFFF" stroke-width="0.047" points="4.46,8.784 4.863,8.784 5.526,11.053 6.2,8.784 6.616,8.784 
		5.718,11.805 5.526,11.805 5.336,11.805 	"/>
	<path d="M17.623,16.141l-0.112,0.146l-0.135,0.112l-0.157,0.067l-0.19,0.012l-0.181-0.012L16.68,16.41l-0.146-0.09l-0.112-0.134
		l-0.09-0.169l-0.068-0.202l-0.045-0.225l-0.011-0.258l0.011-0.258l0.045-0.236l0.058-0.191l0.089-0.158l0.113-0.123l0.123-0.09
		l0.156-0.056l0.158-0.023l0.168,0.023l0.146,0.045l0.135,0.09l0.101,0.134l0.09,0.169l0.067,0.213l0.034,0.27l0.021,0.326h-1.077
		l0.033,0.269l0.079,0.191l0.123,0.112l0.135,0.034l0.146-0.034l0.146-0.112L17.623,16.141z M17.264,15.096l-0.021-0.213
		l-0.068-0.158l-0.101-0.09l-0.112-0.022l-0.113,0.022l-0.101,0.09l-0.067,0.158l-0.022,0.213H17.264z"/>
	<path fill="none" stroke="#FFFFFF" stroke-width="0.047" d="M17.623,16.141l-0.112,0.146l-0.135,0.112l-0.157,0.067l-0.19,0.012
		l-0.181-0.012L16.68,16.41l-0.146-0.09l-0.112-0.134l-0.09-0.169l-0.068-0.202l-0.045-0.225l-0.011-0.258l0.011-0.258l0.045-0.236
		l0.058-0.191l0.089-0.158l0.113-0.123l0.123-0.09l0.156-0.056l0.158-0.023l0.168,0.023l0.146,0.045l0.135,0.09l0.101,0.134
		l0.09,0.169l0.067,0.213l0.034,0.27l0.021,0.326h-1.077l0.033,0.269l0.079,0.191l0.123,0.112l0.135,0.034l0.146-0.034l0.146-0.112
		L17.623,16.141z M17.264,15.096l-0.021-0.213l-0.068-0.158l-0.101-0.09l-0.112-0.022l-0.113,0.022l-0.101,0.09l-0.067,0.158
		l-0.022,0.213H17.264z"/>
	<polygon points="19.151,14.602 19.016,14.636 18.915,14.703 18.848,14.804 18.825,14.916 18.825,16.444 18.399,16.444 
		18.399,14.231 18.825,14.231 18.825,14.344 19.027,14.243 19.286,14.209 19.421,14.22 19.544,14.254 19.646,14.321 19.735,14.411 
		19.87,14.636 19.915,14.916 19.915,16.444 19.477,16.444 19.477,14.95 19.454,14.804 19.387,14.703 19.286,14.624 	"/>
	<polygon fill="none" stroke="#FFFFFF" stroke-width="0.047" points="19.151,14.602 19.016,14.636 18.915,14.703 18.848,14.804 
		18.825,14.916 18.825,16.444 18.399,16.444 18.399,14.231 18.825,14.231 18.825,14.344 19.027,14.243 19.286,14.209 19.421,14.22 
		19.544,14.254 19.646,14.321 19.735,14.411 19.87,14.636 19.915,14.916 19.915,16.444 19.477,16.444 19.477,14.95 19.454,14.804 
		19.387,14.703 19.286,14.624 	"/>
	<polygon points="21.004,16.444 20.532,14.231 20.959,14.231 21.206,15.355 21.432,14.231 21.847,14.231 22.093,15.355 
		22.308,14.231 22.769,14.231 22.318,16.444 21.88,16.444 21.645,15.411 21.442,16.444 	"/>
	<polygon fill="none" stroke="#FFFFFF" stroke-width="0.047" points="21.004,16.444 20.532,14.231 20.959,14.231 21.206,15.355 
		21.432,14.231 21.847,14.231 22.093,15.355 22.308,14.231 22.769,14.231 22.318,16.444 21.88,16.444 21.645,15.411 21.442,16.444 	
		"/>
	<rect x="23.409" y="14.231" width="0.414" height="2.213"/>
	<rect x="23.407" y="14.231" fill="none" stroke="#FFFFFF" stroke-width="0.047" width="0.416" height="2.213"/>
	<polygon points="23.531,13.535 23.452,13.592 23.396,13.659 23.386,13.749 23.396,13.838 23.452,13.906 23.531,13.963 
		23.609,13.985 23.699,13.963 23.778,13.906 23.835,13.838 23.846,13.749 23.835,13.659 23.778,13.592 23.699,13.535 23.609,13.524 
			"/>
	<polygon fill="none" stroke="#FFFFFF" stroke-width="0.047" points="23.846,13.749 23.835,13.839 23.779,13.906 23.7,13.961 
		23.61,13.985 23.532,13.961 23.453,13.906 23.396,13.839 23.385,13.749 23.396,13.659 23.453,13.592 23.532,13.536 23.61,13.523 
		23.7,13.536 23.779,13.592 23.835,13.659 	"/>
	<polygon points="24.723,14.231 24.723,16.726 24.71,16.859 24.644,16.983 24.51,17.073 24.284,17.106 24.284,17.545 24.476,17.522 
		24.655,17.478 24.801,17.398 24.936,17.297 25.036,17.163 25.114,17.017 25.159,16.849 25.171,16.681 25.171,14.231 	"/>
	<polygon fill="none" stroke="#FFFFFF" stroke-width="0.047" points="24.722,14.231 25.171,14.231 25.171,16.681 25.16,16.849 
		25.115,17.018 25.036,17.164 24.935,17.297 24.801,17.398 24.655,17.478 24.475,17.522 24.284,17.544 24.284,17.106 24.509,17.074 
		24.643,16.983 24.711,16.859 24.722,16.725 	"/>
	<polygon points="24.856,13.524 24.778,13.58 24.733,13.647 24.71,13.737 24.733,13.827 24.778,13.906 24.856,13.962 24.946,13.973 
		25.036,13.962 25.114,13.906 25.172,13.827 25.183,13.737 25.172,13.647 25.114,13.58 25.036,13.524 24.946,13.501 	"/>
	<polygon fill="none" stroke="#FFFFFF" stroke-width="0.047" points="25.183,13.737 25.172,13.827 25.114,13.905 25.036,13.962 
		24.946,13.973 24.856,13.962 24.778,13.905 24.733,13.827 24.711,13.737 24.733,13.647 24.778,13.581 24.856,13.524 24.946,13.501 
		25.036,13.524 25.114,13.581 25.172,13.647 	"/>
	<polygon points="15.299,15.872 15.299,15.837 15.299,15.759 15.299,15.658 15.299,15.513 15.299,15.343 15.299,15.13 
		15.299,14.895 15.299,14.613 15.715,14.613 15.715,14.165 15.299,14.165 15.299,13.39 14.85,13.546 14.85,14.165 14.534,14.165 
		14.534,14.613 14.85,14.613 14.85,15.961 14.883,16.174 14.995,16.333 15.152,16.444 15.344,16.479 15.534,16.456 15.669,16.399 
		15.736,15.894 15.602,16.006 15.467,16.051 15.389,16.051 15.344,16.006 	"/>
	<polygon fill="none" stroke="#FFFFFF" stroke-width="0.047" points="15.299,15.872 15.299,15.837 15.299,15.759 15.299,15.658 
		15.299,15.513 15.299,15.343 15.299,15.13 15.299,14.895 15.299,14.613 15.715,14.613 15.715,14.165 15.299,14.165 15.299,13.39 
		14.85,13.546 14.85,14.165 14.534,14.165 14.534,14.613 14.85,14.613 14.85,15.961 14.883,16.174 14.995,16.333 15.152,16.444 
		15.344,16.479 15.534,16.456 15.669,16.399 15.736,15.894 15.602,16.006 15.467,16.051 15.389,16.051 15.344,16.006 	"/>
	<path d="M13.984,16.141l-0.112,0.146l-0.135,0.112l-0.157,0.067l-0.191,0.012l-0.19-0.012l-0.157-0.056l-0.146-0.09l-0.111-0.134
		l-0.09-0.169l-0.068-0.202L12.58,15.59l-0.011-0.258l0.011-0.258l0.034-0.236l0.067-0.191l0.089-0.158l0.113-0.123l0.123-0.09
		l0.146-0.056l0.169-0.023l0.168,0.023l0.146,0.045l0.124,0.09l0.112,0.134l0.09,0.169l0.056,0.213l0.045,0.27l0.012,0.326h-1.067
		l0.034,0.269l0.079,0.191l0.123,0.112l0.135,0.034l0.135-0.034l0.157-0.112L13.984,16.141z M13.625,15.096l-0.022-0.213
		l-0.067-0.158l-0.102-0.09l-0.111-0.022l-0.113,0.022l-0.101,0.09l-0.067,0.158l-0.023,0.213H13.625z"/>
	<path fill="none" stroke="#FFFFFF" stroke-width="0.047" d="M13.984,16.141l-0.112,0.146l-0.135,0.112l-0.157,0.067l-0.191,0.012
		l-0.19-0.012l-0.157-0.056l-0.146-0.09l-0.111-0.134l-0.09-0.169l-0.068-0.202L12.58,15.59l-0.011-0.258l0.011-0.258l0.034-0.236
		l0.067-0.191l0.089-0.158l0.113-0.123l0.123-0.09l0.146-0.056l0.169-0.023l0.168,0.023l0.146,0.045l0.124,0.09l0.112,0.134
		l0.09,0.169l0.056,0.213l0.045,0.27l0.012,0.326h-1.067l0.034,0.269l0.079,0.191l0.123,0.112l0.135,0.034l0.135-0.034l0.157-0.112
		L13.984,16.141z M13.625,15.096l-0.022-0.213l-0.067-0.158l-0.102-0.09l-0.111-0.022l-0.113,0.022l-0.101,0.09l-0.067,0.158
		l-0.023,0.213H13.625z"/>
	<polygon points="11.176,14.602 11.041,14.636 10.93,14.703 10.862,14.804 10.839,14.916 10.839,16.444 10.412,16.444 
		10.412,14.231 10.839,14.231 10.839,14.344 11.052,14.243 11.312,14.209 11.446,14.22 11.559,14.254 11.67,14.321 11.76,14.411 
		11.884,14.636 11.93,14.916 11.93,16.444 11.502,16.444 11.502,14.95 11.479,14.804 11.412,14.703 11.312,14.624 	"/>
	<polygon fill="none" stroke="#FFFFFF" stroke-width="0.047" points="11.176,14.602 11.041,14.636 10.93,14.703 10.862,14.804 
		10.839,14.916 10.839,16.444 10.412,16.444 10.412,14.231 10.839,14.231 10.839,14.344 11.052,14.243 11.312,14.209 11.446,14.22 
		11.559,14.254 11.67,14.321 11.76,14.411 11.884,14.636 11.93,14.916 11.93,16.444 11.502,16.444 11.502,14.95 11.479,14.804 
		11.412,14.703 11.312,14.624 	"/>
	<path d="M9.132,15.961l-0.135,0.09l-0.146,0.034l-0.135-0.034l-0.101-0.079l-0.067-0.123l-0.021-0.146l0.021-0.135l0.067-0.124
		l0.101-0.078l0.124-0.023l0.146,0.023l0.146,0.09V15.961z M9.177,16.444H9.57V14.86l-0.012-0.157l-0.045-0.135l-0.056-0.112
		l-0.09-0.09l-0.226-0.123l-0.292-0.045l-0.168,0.011l-0.169,0.045l-0.168,0.067l-0.18,0.09l0.169,0.371l0.27-0.124l0.18-0.034
		l0.135,0.012l0.123,0.056l0.079,0.123l0.011,0.214l-0.168-0.068L8.75,14.95l-0.123,0.011l-0.124,0.034l-0.112,0.056l-0.101,0.09
		l-0.101,0.101l-0.068,0.135l-0.034,0.135L8.076,15.68l0.045,0.315l0.146,0.258l0.102,0.09l0.101,0.067l0.124,0.045l0.123,0.011
		l0.236-0.022l0.18-0.079L9.177,16.444z"/>
	<path fill="none" stroke="#FFFFFF" stroke-width="0.047" d="M9.132,15.961l-0.135,0.09l-0.146,0.034l-0.135-0.034l-0.101-0.079
		l-0.067-0.123l-0.021-0.146l0.021-0.135l0.067-0.124l0.101-0.078l0.124-0.023l0.146,0.023l0.146,0.09V15.961z M9.177,16.444H9.57
		V14.86l-0.012-0.157l-0.045-0.135l-0.056-0.112l-0.09-0.09l-0.226-0.123l-0.292-0.045l-0.168,0.011l-0.169,0.045l-0.168,0.067
		l-0.18,0.09l0.169,0.371l0.27-0.124l0.18-0.034l0.135,0.012l0.123,0.056l0.079,0.123l0.011,0.214l-0.168-0.068L8.75,14.95
		l-0.123,0.011l-0.124,0.034l-0.112,0.056l-0.101,0.09l-0.101,0.101l-0.068,0.135l-0.034,0.135L8.076,15.68l0.045,0.315l0.146,0.258
		l0.102,0.09l0.101,0.067l0.124,0.045l0.123,0.011l0.236-0.022l0.18-0.079L9.177,16.444z"/>
	<path d="M4.864,16.444H4.459v-3.01h0.955l0.214,0.011l0.191,0.056l0.157,0.09l0.135,0.112l0.101,0.146l0.078,0.158l0.045,0.157
		l0.011,0.168l-0.011,0.169l-0.056,0.157L6.2,14.804l-0.112,0.135l-0.135,0.112l-0.134,0.09l-0.147,0.045l-0.134,0.011H4.864V16.444
		z M5.358,14.804l0.146-0.011l0.124-0.023l0.102-0.045l0.077-0.067l0.102-0.157l0.034-0.18l-0.034-0.168l-0.102-0.158l-0.146-0.112
		l-0.168-0.034H4.864v0.955H5.358z"/>
	<path fill="none" stroke="#FFFFFF" stroke-width="0.047" d="M4.864,16.444H4.459v-3.01h0.955l0.214,0.011l0.191,0.056l0.157,0.09
		l0.135,0.112l0.101,0.146l0.078,0.158l0.045,0.157l0.011,0.168l-0.011,0.169l-0.056,0.157L6.2,14.804l-0.112,0.135l-0.135,0.112
		l-0.134,0.09l-0.147,0.045l-0.134,0.011H4.864V16.444z M5.358,14.804l0.146-0.011l0.124-0.023l0.102-0.045l0.077-0.067l0.102-0.157
		l0.034-0.18l-0.034-0.168l-0.102-0.158l-0.146-0.112l-0.168-0.034H4.864v0.955H5.358z"/>
	<polygon points="9.525,18.185 9.525,21.083 9.963,21.083 9.963,18.027 	"/>
	<polygon fill="none" stroke="#FFFFFF" stroke-width="0.047" points="9.525,21.083 9.525,18.185 9.963,18.028 9.963,21.083 	"/>
	<polygon points="4.46,21.083 4.46,18.073 4.842,18.073 5.549,19.915 6.234,18.073 6.639,18.073 6.639,21.083 6.223,21.083 
		6.223,19.309 5.549,21.083 4.863,19.309 4.863,21.083 	"/>
	<polygon fill="none" stroke="#FFFFFF" stroke-width="0.047" points="4.46,21.083 4.46,18.073 4.842,18.073 5.549,19.915 
		6.234,18.073 6.639,18.073 6.639,21.083 6.223,21.083 6.223,19.309 5.549,21.083 4.863,19.309 4.863,21.083 	"/>
	<polygon points="20.409,21.083 20.409,18.185 20.847,18.028 20.847,19.589 21.397,18.859 21.936,18.859 21.409,19.567 
		21.936,21.083 21.476,21.083 21.094,19.994 20.847,20.308 20.847,21.083 	"/>
	<polygon fill="none" stroke="#FFFFFF" stroke-width="0.047" points="20.409,21.083 20.409,18.185 20.847,18.028 20.847,19.589 
		21.397,18.859 21.936,18.859 21.409,19.567 21.936,21.083 21.476,21.083 21.094,19.994 20.847,20.308 20.847,21.083 	"/>
	<polygon points="7.01,13.546 7.01,16.444 7.437,16.444 7.437,13.389 	"/>
	<polygon fill="none" stroke="#FFFFFF" stroke-width="0.047" points="7.009,16.444 7.009,13.546 7.437,13.389 7.437,16.444 	"/>
	<polygon points="26.025,16.444 26.025,13.546 26.452,13.389 26.452,14.939 27.002,14.22 27.541,14.22 27.013,14.928 27.541,16.444 
		27.081,16.444 26.699,15.343 26.452,15.669 26.452,16.444 	"/>
	<polygon fill="none" stroke="#FFFFFF" stroke-width="0.047" points="26.025,16.444 26.025,13.546 26.452,13.389 26.452,14.939 
		27.002,14.22 27.541,14.22 27.013,14.928 27.541,16.444 27.081,16.444 26.699,15.343 26.452,15.669 26.452,16.444 	"/>
	<polygon points="19.803,11.806 19.803,8.896 20.229,8.75 20.229,10.3 20.779,9.582 21.318,9.582 20.79,10.277 21.318,11.806 
		20.858,11.806 20.477,10.705 20.229,11.03 20.229,11.806 	"/>
	<polygon fill="none" stroke="#FFFFFF" stroke-width="0.047" points="19.803,11.806 19.803,8.896 20.229,8.75 20.229,10.3 
		20.779,9.582 21.318,9.582 20.79,10.277 21.318,11.806 20.858,11.806 20.477,10.705 20.229,11.03 20.229,11.806 	"/>
	<polygon points="13.255,8.896 13.255,11.805 13.691,11.805 13.691,8.75 	"/>
	<polygon fill="none" stroke="#FFFFFF" stroke-width="0.047" points="13.254,11.806 13.254,8.896 13.692,8.75 13.692,11.806 	"/>
	<polygon points="22.004,7.155 22.004,4.257 22.431,4.101 22.431,5.65 22.98,4.932 23.52,4.932 22.992,5.64 23.52,7.155 
		23.06,7.155 22.678,6.055 22.431,6.38 22.431,7.155 	"/>
	<polygon fill="none" stroke="#FFFFFF" stroke-width="0.047" points="22.004,7.155 22.004,4.257 22.431,4.101 22.431,5.65 
		22.98,4.932 23.52,4.932 22.992,5.64 23.52,7.155 23.06,7.155 22.678,6.055 22.431,6.38 22.431,7.155 	"/>
</g>
<g id="Layer_12">
</g>
<g id="Layer_11">
</g>
<g id="Layer_10">
</g>
<g id="Layer_9">
</g>
<g id="Layer_8">
</g>
<g id="Layer_7">
</g>
<g id="Layer_6">
</g>
<g id="Layer_5">
</g>
<g id="Layer_4">
</g>
<g id="Layer_3">
</g>
<g id="Layer_2">
</g>
</svg>
