<?xml version="1.0" encoding="utf-8"?>
<!-- Generator: Adobe Illustrator 16.0.0, SVG Export Plug-In . SVG Version: 6.00 Build 0)  -->
<!DOCTYPE svg PUBLIC "-//W3C//DTD SVG 1.1//EN" "http://www.w3.org/Graphics/SVG/1.1/DTD/svg11.dtd">
<svg version="1.1" xmlns="http://www.w3.org/2000/svg" xmlns:xlink="http://www.w3.org/1999/xlink" x="0px" y="0px"
	 width="36.256px" height="33.922px" viewBox="0 0 36.256 33.922" enable-background="new 0 0 36.256 33.922" xml:space="preserve">
<g id="Layer_15">
</g>
<g id="Layer_14">
	<polygon fill="#007DC5" points="0,1.814 0.032,1.458 0.14,1.123 0.302,0.81 0.529,0.529 0.81,0.302 1.123,0.14 1.458,0.032 
		1.814,0 34.441,0 34.798,0.032 35.132,0.14 35.446,0.302 35.726,0.529 35.953,0.81 36.115,1.123 36.223,1.458 36.256,1.814 
		36.256,32.108 36.223,32.464 36.115,32.799 35.953,33.112 35.726,33.393 35.446,33.62 35.132,33.782 34.798,33.89 34.441,33.922 
		1.814,33.922 1.458,33.89 1.123,33.782 0.81,33.62 0.529,33.393 0.302,33.112 0.14,32.799 0.032,32.464 0,32.108 	"/>
	<polygon fill="#FFFFFF" points="18.587,29.397 13.597,29.625 13.597,27.658 18.587,27.885 18.144,25.984 18.133,25.865 
		18.177,25.757 18.263,25.671 18.371,25.628 18.49,25.628 18.598,25.671 22.529,28.394 22.572,28.425 22.615,28.468 22.637,28.522 
		22.659,28.576 22.659,28.642 22.659,28.695 22.637,28.76 22.615,28.803 22.572,28.857 22.529,28.889 18.598,31.611 18.49,31.654 
		18.371,31.654 18.263,31.611 18.177,31.525 18.133,31.417 18.144,31.298 	"/>
	<path fill="#FFFFFF" d="M0.929,1.814l0.01-0.173l0.054-0.162L1.08,1.328l0.108-0.141l0.14-0.107l0.151-0.087L1.641,0.95
		l0.173-0.022h32.627l0.173,0.022l0.162,0.043l0.151,0.087l0.14,0.107l0.109,0.141l0.075,0.151l0.054,0.162l0.011,0.173v30.294
		l-0.011,0.173l-0.054,0.162l-0.075,0.151l-0.109,0.14l-0.14,0.108l-0.151,0.087l-0.162,0.043l-0.173,0.021H1.814l-0.173-0.021
		l-0.162-0.043l-0.151-0.087l-0.14-0.108l-0.108-0.14l-0.087-0.151L0.95,32.281l-0.021-0.173V1.814z M0.313,32.108l0.022,0.291
		l0.086,0.281l0.14,0.259l0.184,0.227l0.227,0.195l0.27,0.14l0.281,0.086l0.291,0.022h32.627l0.292-0.022l0.28-0.086l0.26-0.14
		l0.227-0.195l0.194-0.227l0.14-0.259l0.076-0.281l0.032-0.291V1.814L35.91,1.522l-0.076-0.28l-0.14-0.26L35.5,0.755l-0.227-0.194
		l-0.26-0.14l-0.28-0.087l-0.292-0.021H1.814L1.523,0.334L1.242,0.421l-0.27,0.14L0.745,0.755L0.561,0.982l-0.14,0.26l-0.086,0.28
		L0.313,1.814V32.108z"/>
	<polygon fill="#FFFFFF" points="2.873,23.673 2.775,23.642 2.743,23.543 2.743,2.873 2.775,2.775 2.873,2.743 33.383,2.743 
		33.479,2.775 33.513,2.873 33.513,23.543 33.479,23.642 33.383,23.673 	"/>
	<polygon points="8.64,5.508 8.651,10.951 7.625,10.951 7.625,6.944 6.912,6.944 6.912,6.059 7.009,6.048 7.096,6.026 7.204,5.994 
		7.322,5.939 7.452,5.875 7.56,5.789 7.657,5.702 7.722,5.626 7.754,5.573 7.798,5.508 	"/>
	<polygon fill="none" stroke="#FFFFFF" stroke-width="0.051" points="8.64,5.508 8.651,10.951 7.625,10.951 7.625,6.944 
		6.912,6.944 6.912,6.059 7.009,6.048 7.096,6.026 7.204,5.994 7.322,5.939 7.452,5.875 7.56,5.789 7.657,5.702 7.722,5.626 
		7.754,5.573 7.798,5.508 	"/>
	<path d="M13.457,8.229l-0.022,0.388l-0.076,0.378L13.252,9.31L13.1,9.569l-0.183,0.183l-0.216,0.13l-0.249,0.076l-0.27,0.021
		l-0.227-0.032l-0.216-0.065l-0.216-0.119L11.318,9.58l-0.173-0.26l-0.118-0.313l-0.076-0.378l-0.022-0.399l0.022-0.389l0.065-0.367
		l0.129-0.346l0.087-0.151l0.086-0.13l0.173-0.173l0.194-0.118l0.217-0.076l0.237-0.032l0.238,0.021l0.248,0.065l0.227,0.13
		l0.205,0.183l0.097,0.119l0.087,0.151l0.129,0.357l0.065,0.378L13.457,8.229z M14.461,7.83l-0.032-0.324l-0.065-0.292l-0.076-0.27
		l-0.227-0.475L13.759,6.08l-0.378-0.302l-0.194-0.119l-0.216-0.097l-0.206-0.065l-0.216-0.054l-0.421-0.021l-0.389,0.043
		l-0.388,0.119l-0.206,0.097L10.951,5.8l-0.184,0.14l-0.162,0.151l-0.14,0.173l-0.13,0.205l-0.118,0.227l-0.108,0.259L9.957,7.528
		L9.914,7.841L9.903,8.165l0.011,0.324l0.033,0.335l0.064,0.324l0.087,0.28l0.097,0.249l0.108,0.205l0.249,0.367l0.161,0.162
		l0.195,0.162l0.205,0.13l0.216,0.119l0.216,0.075l0.227,0.065l0.205,0.032l0.216,0.011l0.41-0.043l0.217-0.054l0.215-0.086
		l0.217-0.098l0.215-0.14l0.206-0.151l0.172-0.173l0.152-0.194l0.118-0.195l0.108-0.227l0.087-0.248l0.075-0.27l0.054-0.313
		l0.033-0.324V8.154L14.461,7.83z"/>
	<path fill="none" stroke="#FFFFFF" stroke-width="0.045" d="M13.457,8.229l-0.022,0.388l-0.076,0.378L13.252,9.31L13.1,9.569
		l-0.183,0.183l-0.216,0.13l-0.249,0.076l-0.27,0.021l-0.227-0.032l-0.216-0.065l-0.216-0.119L11.318,9.58l-0.173-0.26l-0.118-0.313
		l-0.076-0.378l-0.022-0.399l0.022-0.389l0.065-0.367l0.129-0.346l0.087-0.151l0.086-0.13l0.173-0.173l0.194-0.118l0.217-0.076
		l0.237-0.032l0.238,0.021l0.248,0.065l0.227,0.13l0.205,0.183l0.097,0.119l0.087,0.151l0.129,0.357l0.065,0.378L13.457,8.229z
		 M14.461,7.83l-0.032-0.324l-0.065-0.292l-0.076-0.27l-0.227-0.475L13.759,6.08l-0.378-0.302l-0.194-0.119l-0.216-0.097
		l-0.206-0.065l-0.216-0.054l-0.421-0.021l-0.389,0.043l-0.388,0.119l-0.206,0.097L10.951,5.8l-0.184,0.14l-0.162,0.151l-0.14,0.173
		l-0.13,0.205l-0.118,0.227l-0.108,0.259L9.957,7.528L9.914,7.841L9.903,8.165l0.011,0.324l0.033,0.335l0.064,0.324l0.087,0.28
		l0.097,0.249l0.108,0.205l0.249,0.367l0.161,0.162l0.195,0.162l0.205,0.13l0.216,0.119l0.216,0.075l0.227,0.065l0.205,0.032
		l0.216,0.011l0.41-0.043l0.217-0.054l0.215-0.086l0.217-0.098l0.215-0.14l0.206-0.151l0.172-0.173l0.152-0.194l0.118-0.195
		l0.108-0.227l0.087-0.248l0.075-0.27l0.054-0.313l0.033-0.324V8.154L14.461,7.83z"/>
	<polygon points="25.207,19.85 25.207,20.898 20.801,20.898 20.812,20.768 20.812,20.692 20.812,20.584 20.822,20.433 
		20.855,20.239 20.963,19.785 21.049,19.559 21.168,19.321 21.308,19.083 21.47,18.846 21.654,18.63 21.87,18.424 22.086,18.241 
		22.313,18.089 22.766,17.863 23.22,17.701 23.717,17.56 23.879,17.506 23.998,17.431 24.084,17.334 24.138,17.236 24.16,17.128 
		24.16,17.01 24.138,16.869 24.052,16.739 23.987,16.675 23.89,16.599 23.619,16.491 23.306,16.416 22.993,16.394 22.712,16.416 
		22.442,16.47 22.172,16.556 21.946,16.664 21.762,16.772 21.622,16.869 21.535,16.945 21.449,17.02 20.736,16.286 20.822,16.21 
		20.93,16.113 21.028,16.038 21.168,15.94 21.503,15.746 21.881,15.584 22.248,15.476 22.626,15.4 23.026,15.379 23.49,15.411 
		23.728,15.465 23.987,15.541 24.246,15.638 24.505,15.778 24.721,15.951 24.894,16.135 25.024,16.34 25.11,16.556 25.175,16.783 
		25.196,17.01 25.185,17.225 25.153,17.42 25.099,17.603 25.024,17.776 24.808,18.079 24.537,18.306 24.214,18.468 23.803,18.608 
		23.458,18.705 23.134,18.813 22.864,18.943 22.648,19.094 22.442,19.267 22.269,19.472 22.162,19.634 22.097,19.742 22.043,19.85 	
		"/>
	<polygon fill="none" stroke="#FFFFFF" stroke-width="0.051" points="25.207,19.85 25.207,20.898 20.801,20.898 20.812,20.768 
		20.812,20.692 20.812,20.584 20.822,20.433 20.855,20.239 20.963,19.785 21.049,19.559 21.168,19.321 21.308,19.083 21.47,18.846 
		21.654,18.63 21.87,18.424 22.086,18.241 22.313,18.089 22.766,17.863 23.22,17.701 23.717,17.56 23.879,17.506 23.998,17.431 
		24.084,17.334 24.138,17.236 24.16,17.128 24.16,17.01 24.138,16.869 24.052,16.739 23.987,16.675 23.89,16.599 23.619,16.491 
		23.306,16.416 22.993,16.394 22.712,16.416 22.442,16.47 22.172,16.556 21.946,16.664 21.762,16.772 21.622,16.869 21.535,16.945 
		21.449,17.02 20.736,16.286 20.822,16.21 20.93,16.113 21.028,16.038 21.168,15.94 21.503,15.746 21.881,15.584 22.248,15.476 
		22.626,15.4 23.026,15.379 23.49,15.411 23.728,15.465 23.987,15.541 24.246,15.638 24.505,15.778 24.721,15.951 24.894,16.135 
		25.024,16.34 25.11,16.556 25.175,16.783 25.196,17.01 25.185,17.225 25.153,17.42 25.099,17.603 25.024,17.776 24.808,18.079 
		24.537,18.306 24.214,18.468 23.803,18.608 23.458,18.705 23.134,18.813 22.864,18.943 22.648,19.094 22.442,19.267 22.269,19.472 
		22.162,19.634 22.097,19.742 22.043,19.85 	"/>
	<polygon points="30.315,15.465 30.315,16.48 27.746,16.48 27.712,17.258 27.82,17.225 27.939,17.193 28.133,17.15 28.372,17.096 
		28.62,17.063 28.879,17.063 29.182,17.085 29.517,17.16 29.862,17.313 30.174,17.539 30.435,17.819 30.65,18.176 30.791,18.586 
		30.824,18.792 30.833,19.007 30.824,19.234 30.779,19.439 30.65,19.85 30.435,20.185 30.165,20.476 29.83,20.714 29.657,20.8 
		29.483,20.854 29.127,20.919 28.75,20.941 28.35,20.919 27.929,20.865 27.507,20.779 27.313,20.725 27.151,20.671 26.881,20.563 
		26.687,20.487 26.557,20.422 26.45,20.379 26.892,19.45 27.043,19.515 27.119,19.547 27.227,19.601 27.368,19.655 27.55,19.709 
		27.951,19.828 28.35,19.904 28.738,19.926 28.9,19.926 29.051,19.904 29.29,19.839 29.397,19.785 29.505,19.709 29.667,19.504 
		29.765,19.267 29.808,19.018 29.775,18.749 29.679,18.5 29.495,18.295 29.387,18.219 29.269,18.166 29.063,18.1 28.879,18.079 
		28.707,18.079 28.522,18.1 28.307,18.143 28.08,18.208 27.896,18.273 27.767,18.316 27.669,18.349 27.562,18.403 26.644,18.122 
		26.751,15.465 	"/>
	<polygon fill="none" stroke="#FFFFFF" stroke-width="0.051" points="30.315,15.465 30.315,16.48 27.746,16.48 27.712,17.258 
		27.82,17.225 27.939,17.193 28.133,17.15 28.372,17.096 28.62,17.063 28.879,17.063 29.182,17.085 29.517,17.16 29.862,17.313 
		30.174,17.539 30.435,17.819 30.65,18.176 30.791,18.586 30.824,18.792 30.833,19.007 30.824,19.234 30.779,19.439 30.65,19.85 
		30.435,20.185 30.165,20.476 29.83,20.714 29.657,20.8 29.483,20.854 29.127,20.919 28.75,20.941 28.35,20.919 27.929,20.865 
		27.507,20.779 27.313,20.725 27.151,20.671 26.881,20.563 26.687,20.487 26.557,20.422 26.45,20.379 26.892,19.45 27.043,19.515 
		27.119,19.547 27.227,19.601 27.368,19.655 27.55,19.709 27.951,19.828 28.35,19.904 28.738,19.926 28.9,19.926 29.051,19.904 
		29.29,19.839 29.397,19.785 29.505,19.709 29.667,19.504 29.765,19.267 29.808,19.018 29.775,18.749 29.679,18.5 29.495,18.295 
		29.387,18.219 29.269,18.166 29.063,18.1 28.879,18.079 28.707,18.079 28.522,18.1 28.307,18.143 28.08,18.208 27.896,18.273 
		27.767,18.316 27.669,18.349 27.562,18.403 26.644,18.122 26.751,15.465 	"/>
	<polygon points="23.598,5.508 23.598,10.951 22.583,10.951 22.583,6.944 21.859,6.944 21.859,6.059 21.967,6.048 22.043,6.026 
		22.151,5.994 22.28,5.939 22.399,5.875 22.507,5.789 22.604,5.702 22.669,5.626 22.712,5.573 22.745,5.508 	"/>
	<polygon fill="none" stroke="#FFFFFF" stroke-width="0.051" points="23.598,5.508 23.598,10.951 22.583,10.951 22.583,6.944 
		21.859,6.944 21.859,6.059 21.967,6.048 22.043,6.026 22.151,5.994 22.28,5.939 22.399,5.875 22.507,5.789 22.604,5.702 
		22.669,5.626 22.712,5.573 22.745,5.508 	"/>
	<polygon points="29.257,9.903 29.257,10.951 24.84,10.951 24.851,10.821 24.851,10.746 24.851,10.637 24.862,10.486 24.894,10.292 
		25.013,9.838 25.088,9.611 25.207,9.375 25.348,9.136 25.51,8.899 25.693,8.683 25.909,8.478 26.136,8.294 26.352,8.144 
		26.806,7.905 27.27,7.754 27.767,7.613 27.918,7.549 28.048,7.473 28.134,7.387 28.177,7.279 28.21,7.171 28.21,7.052 
		28.177,6.922 28.102,6.782 28.037,6.717 27.94,6.652 27.669,6.533 27.346,6.469 27.032,6.447 26.752,6.469 26.481,6.523 
		26.212,6.609 25.985,6.707 25.801,6.825 25.661,6.922 25.574,6.999 25.477,7.073 24.775,6.329 24.862,6.263 24.969,6.155 
		25.067,6.081 25.207,5.994 25.542,5.789 25.92,5.637 26.298,5.519 26.676,5.454 27.076,5.421 27.529,5.454 27.778,5.507 
		28.037,5.583 28.296,5.691 28.544,5.832 28.771,6.004 28.944,6.188 29.074,6.382 29.16,6.609 29.225,6.836 29.246,7.063 
		29.235,7.279 29.203,7.473 29.149,7.657 29.074,7.83 28.858,8.132 28.587,8.359 28.253,8.521 27.842,8.662 27.508,8.758 
		27.173,8.866 26.903,8.997 26.687,9.147 26.481,9.332 26.319,9.525 26.201,9.688 26.136,9.795 26.082,9.903 	"/>
	<polygon fill="none" stroke="#FFFFFF" stroke-width="0.051" points="29.257,9.903 29.257,10.951 24.84,10.951 24.851,10.821 
		24.851,10.746 24.851,10.637 24.862,10.486 24.894,10.292 25.013,9.838 25.088,9.611 25.207,9.375 25.348,9.136 25.51,8.899 
		25.693,8.683 25.909,8.478 26.136,8.294 26.352,8.144 26.806,7.905 27.27,7.754 27.767,7.613 27.918,7.549 28.048,7.473 
		28.134,7.387 28.177,7.279 28.21,7.171 28.21,7.052 28.177,6.922 28.102,6.782 28.037,6.717 27.94,6.652 27.669,6.533 
		27.346,6.469 27.032,6.447 26.752,6.469 26.481,6.523 26.212,6.609 25.985,6.707 25.801,6.825 25.661,6.922 25.574,6.999 
		25.477,7.073 24.775,6.329 24.862,6.263 24.969,6.155 25.067,6.081 25.207,5.994 25.542,5.789 25.92,5.637 26.298,5.519 
		26.676,5.454 27.076,5.421 27.529,5.454 27.778,5.507 28.037,5.583 28.296,5.691 28.544,5.832 28.771,6.004 28.944,6.188 
		29.074,6.382 29.16,6.609 29.225,6.836 29.246,7.063 29.235,7.279 29.203,7.473 29.149,7.657 29.074,7.83 28.858,8.132 
		28.587,8.359 28.253,8.521 27.842,8.662 27.508,8.758 27.173,8.866 26.903,8.997 26.687,9.147 26.481,9.332 26.319,9.525 
		26.201,9.688 26.136,9.795 26.082,9.903 	"/>
	<polygon points="8.542,15.465 8.554,20.897 7.528,20.897 7.528,16.891 6.815,16.891 6.815,16.016 6.912,15.994 6.999,15.973 
		7.107,15.94 7.225,15.897 7.354,15.821 7.463,15.735 7.56,15.649 7.625,15.573 7.657,15.519 7.701,15.465 	"/>
	<polygon fill="none" stroke="#FFFFFF" stroke-width="0.051" points="8.542,15.465 8.554,20.897 7.528,20.897 7.528,16.891 
		6.815,16.891 6.815,16.016 6.912,15.994 6.999,15.973 7.107,15.94 7.225,15.897 7.354,15.821 7.463,15.735 7.56,15.649 
		7.625,15.573 7.657,15.519 7.701,15.465 	"/>
	<path d="M12.722,16.988v1.911h-1.814L12.722,16.988z M12.787,15.465L9.536,18.91v0.94h3.186v1.047h1.037V19.85h0.821v-0.951h-0.821
		v-3.434H12.787z"/>
	<path fill="none" stroke="#FFFFFF" stroke-width="0.045" d="M12.722,16.988v1.911h-1.814L12.722,16.988z M12.787,15.465
		L9.536,18.91v0.94h3.186v1.047h1.037V19.85h0.821v-0.951h-0.821v-3.434H12.787z"/>
	<path d="M5.13,22.636l-0.27-0.032l-0.248-0.075L4.374,22.41L4.18,22.237l-0.173-0.205l-0.13-0.227l-0.075-0.259l-0.022-0.26v-6.209
		l0.022-0.271l0.075-0.248l0.13-0.238l0.173-0.205l0.194-0.162l0.238-0.129l0.248-0.076l0.27-0.021h11.135l0.259,0.021l0.259,0.076
		l0.227,0.129l0.205,0.162l0.162,0.205l0.13,0.238l0.076,0.248l0.032,0.271v6.209l-0.032,0.26l-0.076,0.259l-0.13,0.227
		l-0.162,0.205L17.01,22.41l-0.227,0.119l-0.259,0.075l-0.259,0.032H5.13z M16.265,22.064l0.151-0.011l0.141-0.043l0.14-0.075
		l0.119-0.098l0.097-0.119l0.065-0.129l0.043-0.151l0.022-0.152v-6.209l-0.022-0.163l-0.043-0.14l-0.065-0.129l-0.097-0.119
		l-0.119-0.097l-0.14-0.076l-0.141-0.043l-0.151-0.022H5.13L4.979,14.31l-0.151,0.043l-0.13,0.076l-0.119,0.097l-0.097,0.119
		l-0.075,0.129l-0.044,0.14l-0.01,0.163v6.209l0.01,0.152l0.044,0.151l0.075,0.129l0.097,0.119l0.119,0.098l0.13,0.075l0.151,0.043
		l0.151,0.011H16.265z"/>
	<path d="M16.265,4.352l0.151,0.011l0.14,0.043l0.141,0.076l0.119,0.097l0.097,0.108l0.065,0.141l0.043,0.14l0.021,0.162v6.21
		l-0.021,0.151l-0.043,0.151l-0.065,0.13l-0.097,0.119l-0.119,0.097l-0.141,0.076l-0.14,0.043l-0.151,0.011H5.13l-0.151-0.011
		l-0.151-0.043l-0.13-0.076l-0.119-0.097l-0.097-0.119l-0.076-0.13l-0.043-0.151L4.352,11.34V5.13l0.011-0.162l0.043-0.14
		l0.076-0.141l0.097-0.108l0.119-0.097l0.13-0.076l0.151-0.043L5.13,4.352H16.265z M5.13,3.78L4.86,3.802L4.612,3.876l-0.238,0.13
		L4.18,4.168L4.007,4.374l-0.13,0.237L3.802,4.86L3.78,5.13v6.21l0.022,0.259l0.075,0.259l0.13,0.227L4.18,12.29l0.194,0.173
		l0.238,0.119l0.248,0.076l0.27,0.032h11.135l0.259-0.032l0.259-0.076l0.227-0.119l0.205-0.173l0.162-0.205l0.13-0.227l0.075-0.259
		l0.033-0.259V5.13l-0.033-0.27l-0.075-0.249l-0.13-0.237l-0.162-0.205L17.01,4.007l-0.227-0.13l-0.259-0.075L16.265,3.78H5.13z"/>
	<path d="M31.126,3.78l0.259,0.021l0.259,0.076l0.227,0.129l0.205,0.162l0.173,0.206l0.119,0.237l0.075,0.249l0.033,0.27v6.209
		l-0.033,0.26l-0.075,0.259l-0.119,0.227l-0.173,0.205l-0.205,0.173l-0.227,0.119l-0.259,0.075l-0.259,0.032H19.991l-0.259-0.032
		l-0.26-0.075l-0.226-0.119L19.04,12.29l-0.172-0.205l-0.119-0.227l-0.076-0.259l-0.032-0.26V5.13l0.032-0.27l0.076-0.249
		l0.119-0.237l0.172-0.206l0.206-0.162l0.226-0.129l0.26-0.076l0.259-0.021H31.126z M19.991,4.352L19.84,4.363l-0.152,0.043
		l-0.129,0.076L19.44,4.579l-0.097,0.108l-0.076,0.14l-0.043,0.14L19.213,5.13v6.209l0.011,0.152l0.043,0.151l0.076,0.13
		l0.097,0.118l0.119,0.098l0.129,0.075l0.152,0.043l0.151,0.011h11.135l0.151-0.011l0.151-0.043l0.13-0.075l0.118-0.098l0.098-0.118
		l0.075-0.13l0.044-0.151l0.01-0.152V5.13l-0.01-0.163l-0.044-0.14l-0.075-0.14l-0.098-0.108l-0.118-0.097l-0.13-0.076l-0.151-0.043
		l-0.151-0.011H19.991z"/>
	<path d="M19.991,22.636l-0.259-0.032l-0.259-0.075l-0.227-0.119l-0.205-0.173l-0.173-0.205l-0.119-0.227l-0.076-0.259l-0.032-0.26
		v-6.209l0.032-0.271l0.076-0.248l0.119-0.238l0.173-0.205l0.205-0.162l0.227-0.129l0.259-0.076l0.259-0.021h11.135l0.259,0.021
		l0.259,0.076l0.227,0.129l0.205,0.162l0.173,0.205l0.119,0.238l0.075,0.248l0.033,0.271v6.209l-0.033,0.26l-0.075,0.259
		l-0.119,0.227l-0.173,0.205l-0.205,0.173l-0.227,0.119l-0.259,0.075l-0.259,0.032H19.991z M31.125,22.064l0.151-0.011l0.151-0.043
		l0.13-0.075l0.119-0.098l0.097-0.119l0.076-0.129l0.043-0.151l0.011-0.152v-6.209l-0.011-0.163l-0.043-0.14l-0.076-0.129
		l-0.097-0.119l-0.119-0.097l-0.13-0.076l-0.151-0.043l-0.151-0.022H19.991l-0.151,0.022l-0.151,0.043l-0.13,0.076l-0.119,0.097
		l-0.097,0.119l-0.076,0.129l-0.043,0.14l-0.011,0.163v6.209l0.011,0.152l0.043,0.151l0.076,0.129l0.097,0.119l0.119,0.098
		l0.13,0.075l0.151,0.043l0.151,0.011H31.125z"/>
</g>
<g id="Layer_13">
</g>
<g id="Layer_12">
</g>
<g id="Layer_11">
</g>
<g id="Layer_10">
</g>
<g id="Layer_9">
</g>
<g id="Layer_8">
</g>
<g id="Layer_7">
</g>
<g id="Layer_6">
</g>
<g id="Layer_5">
</g>
<g id="Layer_4">
</g>
<g id="Layer_3">
</g>
<g id="Layer_2">
</g>
</svg>
