<?xml version="1.0" encoding="utf-8"?>
<!-- Generator: Adobe Illustrator 16.0.0, SVG Export Plug-In . SVG Version: 6.00 Build 0)  -->
<!DOCTYPE svg PUBLIC "-//W3C//DTD SVG 1.1//EN" "http://www.w3.org/Graphics/SVG/1.1/DTD/svg11.dtd">
<svg version="1.1" xmlns="http://www.w3.org/2000/svg" xmlns:xlink="http://www.w3.org/1999/xlink" x="0px" y="0px"
	 width="89.102px" height="44px" viewBox="0 0 89.102 44" enable-background="new 0 0 89.102 44" xml:space="preserve">
<g id="Layer_15">
</g>
<g id="Layer_14">
</g>
<g id="Layer_13">
</g>
<g id="Layer_12">
</g>
<g id="Layer_11">
</g>
<g id="Layer_10">
</g>
<g id="Layer_9">
</g>
<g id="Layer_8">
</g>
<g id="Layer_7">
</g>
<g id="Layer_6">
</g>
<g id="Layer_5">
</g>
<g id="Layer_4">
</g>
<g id="Layer_3">
	<rect x="42.998" y="5.117" fill="#007DC5" width="30.281" height="33.894"/>
	<path fill="#FFFFFF" d="M43.723,8.132l0.043-0.443l0.131-0.421l0.215-0.4l0.281-0.346l0.346-0.281l0.389-0.205l0.434-0.129
		l0.441-0.043h24.303l0.443,0.043l0.43,0.129l0.391,0.205l0.346,0.281l0.281,0.346l0.215,0.4l0.131,0.421l0.043,0.443v27.852
		l-0.043,0.443l-0.131,0.432l-0.215,0.389l-0.281,0.346l-0.346,0.281l-0.391,0.215l-0.43,0.12l-0.443,0.054H46.002l-0.441-0.054
		l-0.434-0.12l-0.389-0.215l-0.346-0.281l-0.281-0.346l-0.215-0.389l-0.131-0.432l-0.043-0.443V8.132z M70.305,38.717l0.529-0.054
		l0.52-0.162l0.473-0.248l0.412-0.335l0.334-0.422l0.26-0.464l0.15-0.518l0.055-0.53V8.132l-0.055-0.53l-0.15-0.507l-0.26-0.475
		l-0.334-0.411l-0.412-0.345l-0.473-0.249l-0.52-0.162L70.305,5.41H46.002l-0.529,0.043l-0.518,0.162l-0.477,0.249l-0.41,0.345
		L43.734,6.62l-0.26,0.475l-0.15,0.507l-0.055,0.53v27.852l0.055,0.53l0.15,0.518l0.26,0.464l0.334,0.422l0.41,0.335l0.477,0.248
		l0.518,0.162l0.529,0.054H70.305z"/>
	<polygon fill="#FFDD00" points="57.08,32.88 57.215,32.902 57.338,32.992 57.428,33.115 57.449,33.261 57.449,36.479 
		57.428,36.625 57.338,36.748 57.215,36.826 57.08,36.848 46.723,36.848 46.588,36.826 46.465,36.748 46.377,36.625 46.354,36.479 
		46.354,33.261 46.377,33.115 46.465,32.992 46.588,32.902 46.723,32.88 	"/>
	<polygon fill="#FFFFFF" points="68.502,9.042 67.223,8.244 67.148,8.18 67.121,8.099 67.113,8.008 67.148,7.926 67.213,7.863 
		67.293,7.827 70.926,7.164 70.971,7.164 71.018,7.164 71.063,7.182 71.1,7.2 71.135,7.227 71.162,7.264 71.189,7.3 71.197,7.345 
		71.207,7.391 71.197,7.436 70.535,11.068 70.508,11.149 70.443,11.213 70.354,11.249 70.264,11.249 70.182,11.213 70.117,11.149 
		69.328,9.869 66.732,12.711 65.66,11.639 	"/>
	<polygon points="47.668,36.008 47.283,36.008 47.283,33.686 47.668,33.686 48.77,35.286 48.77,33.686 49.154,33.686 49.154,36.008 
		48.77,36.008 47.668,34.363 	"/>
	<path d="M51.273,33.686h0.373v1.489h0.35v0.346h-0.344v0.487h-0.379v-0.487h-1.381v-0.33L51.273,33.686z M51.273,34.197
		l-0.891,0.977h0.891V34.197z"/>
	<path d="M54.27,33.685v0.363c0,0-0.402,0.391-0.596,0.967c-0.188,0.547-0.17,0.992-0.17,0.992h-0.375c0,0-0.031-0.534,0.182-1.068
		c0.236-0.602,0.484-0.894,0.484-0.894h-1.359v-0.36H54.27z"/>
	<path d="M55.697,33.666c0.51,0,0.967,0.401,0.967,1.181c0,0.782-0.457,1.183-0.967,1.183c-0.506,0-0.963-0.401-0.963-1.183
		C54.734,34.067,55.191,33.666,55.697,33.666 M55.697,34.032c-0.258,0-0.598,0.184-0.598,0.815c0,0.633,0.344,0.817,0.602,0.817
		c0.262,0,0.6-0.184,0.6-0.817C56.301,34.216,55.959,34.032,55.697,34.032"/>
	<polyline fill="#FFFFFF" points="47.465,10.857 46.115,10.857 47.154,8.037 47.469,8.037 	"/>
	<polyline fill="#FFFFFF" points="47.627,10.857 48.977,10.857 47.936,8.037 47.623,8.037 	"/>
	<path fill="#FFFFFF" d="M49.195,8.335c0,0-0.715,0.385-0.902,0.768c-0.186,0.384,0.684,1.754,0.684,1.754s-0.486-1.232,0.42-2.117"
		/>
	<polygon fill="#FFFFFF" points="49.141,8.468 48.797,8.153 48.777,8.13 48.773,8.104 48.777,8.075 48.793,8.053 48.814,8.037 
		48.842,8.03 49.984,8.033 49.998,8.035 50.012,8.038 50.023,8.046 50.033,8.053 50.045,8.063 50.051,8.076 50.057,8.089 
		50.057,8.103 50.057,8.117 50.051,8.131 49.646,9.198 49.633,9.221 49.609,9.237 49.58,9.243 49.553,9.238 49.529,9.222 
		49.514,9.199 49.346,8.766 49.225,8.594 49.225,8.491 	"/>
	<path fill="#FFFFFF" d="M52.408,8.473v0.323c0,0-0.357,0.349-0.531,0.862c-0.168,0.488-0.15,0.885-0.15,0.885h-0.334
		c0,0-0.029-0.476,0.162-0.953c0.209-0.536,0.432-0.796,0.432-0.796h-1.211V8.473H52.408z"/>
	<path fill="none" stroke="#FFFFFF" stroke-width="0.255" d="M53.748,10.72c0,0.459-0.371,0.831-0.832,0.831h-6.77
		c-0.459,0-0.83-0.372-0.83-0.831V8.295c0-0.459,0.371-0.831,0.83-0.831h6.77c0.461,0,0.832,0.372,0.832,0.831V10.72z"/>
	<rect fill="none" width="89.102" height="44"/>
	<polygon fill="#FFFFFF" points="48.41,17.238 48.41,17.688 46.197,17.688 46.197,17.189 47.828,15.401 46.281,15.401 
		46.281,14.951 48.379,14.951 48.379,15.468 46.768,17.238 	"/>
	<polygon fill="none" stroke="#007DC5" stroke-width="0.045" points="48.41,17.238 48.41,17.688 46.197,17.688 46.197,17.189 
		47.828,15.401 46.281,15.401 46.281,14.951 48.379,14.951 48.379,15.468 46.768,17.238 	"/>
	<path fill="#FFFFFF" d="M50.105,17.714c-0.533,0-0.885-0.454-0.885-1.046c0-0.589,0.352-1.042,0.885-1.042
		c0.531,0,0.885,0.453,0.885,1.042C50.99,17.26,50.637,17.714,50.105,17.714 M49.699,16.668c0,0.341,0.125,0.615,0.406,0.615
		s0.404-0.274,0.404-0.615c0-0.337-0.123-0.611-0.404-0.611S49.699,16.331,49.699,16.668"/>
	<path fill="none" stroke="#007DC5" stroke-width="0.045" d="M50.105,17.714c-0.533,0-0.885-0.454-0.885-1.046
		c0-0.589,0.352-1.042,0.885-1.042c0.531,0,0.885,0.453,0.885,1.042C50.99,17.26,50.637,17.714,50.105,17.714z M49.699,16.668
		c0,0.341,0.125,0.615,0.406,0.615s0.404-0.274,0.404-0.615c0-0.337-0.123-0.611-0.404-0.611S49.699,16.331,49.699,16.668z"/>
	<path fill="#FFFFFF" d="M52.467,17.714c-0.527,0-0.885-0.454-0.885-1.046c0-0.589,0.357-1.042,0.885-1.042
		c0.533,0,0.887,0.453,0.887,1.042c0,0.041,0,0.083-0.006,0.124H52.07c0.029,0.281,0.168,0.498,0.396,0.498
		c0.189,0,0.289-0.045,0.383-0.157l0.342,0.266C52.996,17.605,52.756,17.714,52.467,17.714 M52.467,16.057
		c-0.209,0-0.33,0.154-0.379,0.375h0.762C52.801,16.211,52.682,16.057,52.467,16.057"/>
	<path fill="none" stroke="#007DC5" stroke-width="0.045" d="M52.467,17.714c-0.527,0-0.885-0.454-0.885-1.046
		c0-0.589,0.357-1.042,0.885-1.042c0.533,0,0.887,0.453,0.887,1.042c0,0.041,0,0.083-0.006,0.124H52.07
		c0.029,0.281,0.168,0.498,0.396,0.498c0.189,0,0.289-0.045,0.383-0.157l0.342,0.266C52.996,17.605,52.756,17.714,52.467,17.714z
		 M52.467,16.057c-0.209,0-0.33,0.154-0.379,0.375h0.762C52.801,16.211,52.682,16.057,52.467,16.057z"/>
	<path fill="#FFFFFF" d="M54.777,17.714c-0.266,0-0.48-0.218-0.48-0.48v-1.125h-0.363v-0.453h0.363v-0.488l0.451-0.191v0.679h0.51
		v0.453h-0.51v0.968c0,0.108,0.086,0.195,0.195,0.195c0.104,0,0.217-0.034,0.334-0.154l-0.105,0.498
		C55.107,17.654,55.039,17.714,54.777,17.714"/>
	<path fill="none" stroke="#007DC5" stroke-width="0.045" d="M54.777,17.714c-0.266,0-0.48-0.218-0.48-0.48v-1.125h-0.363v-0.453
		h0.363v-0.488l0.451-0.191v0.679h0.51v0.453h-0.51v0.968c0,0.108,0.086,0.195,0.195,0.195c0.104,0,0.217-0.034,0.334-0.154
		l-0.105,0.498C55.107,17.654,55.039,17.714,54.777,17.714z"/>
	<path fill="#FFFFFF" d="M56.775,17.714c-0.527,0-0.885-0.454-0.885-1.046c0-0.589,0.357-1.042,0.885-1.042
		c0.533,0,0.887,0.453,0.887,1.042c0,0.041,0,0.083-0.004,0.124h-1.279c0.031,0.281,0.168,0.498,0.396,0.498
		c0.189,0,0.289-0.045,0.385-0.157l0.34,0.266C57.305,17.605,57.064,17.714,56.775,17.714 M56.775,16.057
		c-0.209,0-0.33,0.154-0.379,0.375h0.764C57.109,16.211,56.99,16.057,56.775,16.057"/>
	<path fill="none" stroke="#007DC5" stroke-width="0.045" d="M56.775,17.714c-0.527,0-0.885-0.454-0.885-1.046
		c0-0.589,0.357-1.042,0.885-1.042c0.533,0,0.887,0.453,0.887,1.042c0,0.041,0,0.083-0.004,0.124h-1.279
		c0.031,0.281,0.168,0.498,0.396,0.498c0.189,0,0.289-0.045,0.385-0.157l0.34,0.266C57.305,17.605,57.064,17.714,56.775,17.714z
		 M56.775,16.057c-0.209,0-0.33,0.154-0.379,0.375h0.764C57.109,16.211,56.99,16.057,56.775,16.057z"/>
	<path fill="#FFFFFF" d="M59.4,16.094c-0.23,0-0.424,0.188-0.424,0.424v1.169h-0.449v-2.035h0.449v0.206
		c0.139-0.143,0.297-0.24,0.514-0.24c0.17,0,0.26,0.045,0.342,0.112l-0.135,0.506C59.635,16.139,59.521,16.094,59.4,16.094"/>
	<path fill="none" stroke="#007DC5" stroke-width="0.045" d="M59.4,16.094c-0.23,0-0.424,0.188-0.424,0.424v1.169h-0.449v-2.035
		h0.449v0.206c0.139-0.143,0.297-0.24,0.514-0.24c0.17,0,0.26,0.045,0.342,0.112l-0.135,0.506
		C59.635,16.139,59.521,16.094,59.4,16.094z"/>
	<path fill="#FFFFFF" d="M61.479,15.625c0.24,0,0.453,0.112,0.592,0.289c0.139-0.177,0.354-0.289,0.594-0.289
		c0.416,0,0.752,0.337,0.752,0.754v1.308h-0.453v-1.196c0-0.221-0.176-0.397-0.393-0.397c-0.219,0-0.395,0.176-0.395,0.397v1.196
		h-0.453v-1.196c0-0.221-0.18-0.397-0.398-0.397c-0.217,0-0.393,0.176-0.393,0.397v1.196h-0.449v-2.036h0.449v0.21
		C61.07,15.716,61.264,15.625,61.479,15.625"/>
	<path fill="none" stroke="#007DC5" stroke-width="0.045" d="M61.479,15.625c0.24,0,0.453,0.112,0.592,0.289
		c0.139-0.177,0.354-0.289,0.594-0.289c0.416,0,0.752,0.337,0.752,0.754v1.308h-0.453v-1.196c0-0.221-0.176-0.397-0.393-0.397
		c-0.219,0-0.395,0.176-0.395,0.397v1.196h-0.453v-1.196c0-0.221-0.18-0.397-0.398-0.397c-0.217,0-0.393,0.176-0.393,0.397v1.196
		h-0.449v-2.036h0.449v0.21C61.07,15.716,61.264,15.625,61.479,15.625z"/>
	<path fill="#FFFFFF" d="M65.113,17.714c-0.529,0-0.887-0.454-0.887-1.046c0-0.589,0.357-1.042,0.887-1.042
		c0.531,0,0.885,0.453,0.885,1.042c0,0.041,0,0.083-0.004,0.124h-1.279c0.031,0.281,0.168,0.498,0.398,0.498
		c0.188,0,0.289-0.045,0.381-0.157l0.342,0.266C65.641,17.605,65.402,17.714,65.113,17.714 M65.113,16.057
		c-0.211,0-0.33,0.154-0.381,0.375h0.762C65.447,16.211,65.326,16.057,65.113,16.057"/>
	<path fill="none" stroke="#007DC5" stroke-width="0.045" d="M65.113,17.714c-0.529,0-0.887-0.454-0.887-1.046
		c0-0.589,0.357-1.042,0.887-1.042c0.531,0,0.885,0.453,0.885,1.042c0,0.041,0,0.083-0.004,0.124h-1.279
		c0.031,0.281,0.168,0.498,0.398,0.498c0.188,0,0.289-0.045,0.381-0.157l0.342,0.266C65.641,17.605,65.402,17.714,65.113,17.714z
		 M65.113,16.057c-0.211,0-0.33,0.154-0.381,0.375h0.762C65.447,16.211,65.326,16.057,65.113,16.057z"/>
	<path fill="#FFFFFF" d="M67.508,17.714c-0.527,0-0.885-0.454-0.885-1.046c0-0.589,0.357-1.042,0.885-1.042
		c0.533,0,0.887,0.453,0.887,1.042c0,0.041,0,0.083-0.006,0.124h-1.277c0.029,0.281,0.168,0.498,0.396,0.498
		c0.189,0,0.289-0.045,0.383-0.157l0.342,0.266C68.037,17.605,67.797,17.714,67.508,17.714 M67.508,16.057
		c-0.209,0-0.33,0.154-0.379,0.375h0.762C67.842,16.211,67.723,16.057,67.508,16.057"/>
	<path fill="none" stroke="#007DC5" stroke-width="0.045" d="M67.508,17.714c-0.527,0-0.885-0.454-0.885-1.046
		c0-0.589,0.357-1.042,0.885-1.042c0.533,0,0.887,0.453,0.887,1.042c0,0.041,0,0.083-0.006,0.124h-1.277
		c0.029,0.281,0.168,0.498,0.396,0.498c0.189,0,0.289-0.045,0.383-0.157l0.342,0.266C68.037,17.605,67.797,17.714,67.508,17.714z
		 M67.508,16.057c-0.209,0-0.33,0.154-0.379,0.375h0.762C67.842,16.211,67.723,16.057,67.508,16.057z"/>
	<path fill="#FFFFFF" d="M70.133,16.094c-0.23,0-0.424,0.188-0.424,0.424v1.169H69.26v-2.035h0.449v0.206
		c0.139-0.143,0.297-0.24,0.514-0.24c0.17,0,0.26,0.045,0.342,0.112l-0.135,0.506C70.365,16.139,70.254,16.094,70.133,16.094"/>
	<path fill="none" stroke="#007DC5" stroke-width="0.045" d="M70.133,16.094c-0.23,0-0.424,0.188-0.424,0.424v1.169H69.26v-2.035
		h0.449v0.206c0.139-0.143,0.297-0.24,0.514-0.24c0.17,0,0.26,0.045,0.342,0.112l-0.135,0.506
		C70.365,16.139,70.254,16.094,70.133,16.094z"/>
	<path fill="#FFFFFF" d="M48.459,20.096c0,0.457-0.371,0.832-0.83,0.832h-0.877v1.076h-0.453v-2.737h1.33
		C48.088,19.267,48.459,19.639,48.459,20.096 M48.004,20.096c0-0.21-0.168-0.375-0.379-0.375h-0.873v0.757h0.873
		C47.836,20.478,48.004,20.306,48.004,20.096"/>
	<path fill="none" stroke="#007DC5" stroke-width="0.045" d="M48.459,20.096c0,0.457-0.371,0.832-0.83,0.832h-0.877v1.076h-0.453
		v-2.737h1.33C48.088,19.267,48.459,19.639,48.459,20.096z M48.004,20.096c0-0.21-0.168-0.375-0.379-0.375h-0.873v0.757h0.873
		C47.836,20.478,48.004,20.306,48.004,20.096z"/>
	<path fill="#FFFFFF" d="M49.564,19.293c0.143,0,0.26,0.116,0.26,0.259c0,0.146-0.117,0.262-0.26,0.262
		c-0.146,0-0.262-0.116-0.262-0.262C49.303,19.409,49.418,19.293,49.564,19.293 M49.336,19.968h0.453v2.036h-0.453V19.968z"/>
	<path fill="none" stroke="#007DC5" stroke-width="0.045" d="M49.564,19.293c0.143,0,0.26,0.116,0.26,0.259
		c0,0.146-0.117,0.262-0.26,0.262c-0.145,0-0.262-0.116-0.262-0.262C49.303,19.409,49.42,19.293,49.564,19.293z M49.336,19.968
		h0.455v2.036h-0.455V19.968z"/>
	<path fill="#FFFFFF" d="M50.416,22.989v-0.453c0.297,0,0.537-0.237,0.537-0.533v-2.035h0.449v2.035
		C51.402,22.547,50.963,22.989,50.416,22.989 M51.178,19.29c0.143,0,0.26,0.12,0.26,0.263c0,0.142-0.117,0.258-0.26,0.258
		s-0.26-0.116-0.26-0.258C50.918,19.41,51.035,19.29,51.178,19.29"/>
	<path fill="none" stroke="#007DC5" stroke-width="0.045" d="M50.416,22.989v-0.453c0.297,0,0.537-0.237,0.537-0.533v-2.035h0.449
		v2.035C51.402,22.547,50.963,22.989,50.416,22.989z M51.178,19.29c0.143,0,0.26,0.12,0.26,0.263c0,0.142-0.117,0.258-0.26,0.258
		s-0.26-0.116-0.26-0.258C50.918,19.41,51.035,19.29,51.178,19.29z"/>
	<path fill="#FFFFFF" d="M52.486,22.004v-2.036h0.449v0.206c0.141-0.142,0.334-0.236,0.547-0.236c0.416,0,0.754,0.341,0.754,0.754
		v1.312h-0.449v-1.17c0-0.232-0.191-0.423-0.428-0.423c-0.232,0-0.424,0.191-0.424,0.423v1.17H52.486z"/>
	<path fill="none" stroke="#007DC5" stroke-width="0.045" d="M52.486,22.004v-2.036h0.449v0.206
		c0.141-0.142,0.334-0.236,0.547-0.236c0.416,0,0.754,0.341,0.754,0.754v1.312h-0.449v-1.17c0-0.232-0.191-0.423-0.428-0.423
		c-0.232,0-0.424,0.191-0.424,0.423v1.17H52.486z"/>
	<path fill="#FFFFFF" d="M55.857,22.026c-0.445,0-0.811-0.311-0.811-0.694c0-0.382,0.365-0.693,0.811-0.693
		c0.174,0,0.33,0.045,0.461,0.124v-0.199c0-0.094-0.16-0.218-0.303-0.218c-0.305,0-0.436,0.06-0.615,0.154l-0.18-0.334
		c0.287-0.161,0.457-0.239,0.857-0.224c0.406,0.015,0.701,0.284,0.689,0.607v1.455h-0.449v-0.102
		C56.188,21.981,56.027,22.026,55.857,22.026 M55.857,21.01c-0.18,0-0.33,0.135-0.33,0.3c0,0.165,0.15,0.3,0.33,0.3
		c0.199,0,0.363-0.045,0.461-0.124v-0.333C56.213,21.066,56.037,21.01,55.857,21.01"/>
	<path fill="none" stroke="#007DC5" stroke-width="0.045" d="M55.857,22.026c-0.445,0-0.811-0.311-0.811-0.694
		c0-0.382,0.365-0.693,0.811-0.693c0.174,0,0.33,0.045,0.461,0.124v-0.199c0-0.094-0.16-0.218-0.303-0.218
		c-0.305,0-0.436,0.06-0.615,0.154l-0.18-0.334c0.287-0.161,0.457-0.239,0.857-0.224c0.406,0.015,0.701,0.284,0.689,0.607v1.455
		h-0.449v-0.102C56.188,21.981,56.027,22.026,55.857,22.026z M55.857,21.01c-0.18,0-0.33,0.135-0.33,0.3c0,0.165,0.15,0.3,0.33,0.3
		c0.199,0,0.363-0.045,0.461-0.124v-0.333C56.213,21.066,56.037,21.01,55.857,21.01z"/>
	<path fill="#FFFFFF" d="M58.572,20.384c-0.277,0-0.502,0.27-0.502,0.6c0,0.334,0.225,0.6,0.502,0.6
		c0.195,0,0.379-0.124,0.461-0.319l0.338,0.337c-0.18,0.259-0.473,0.428-0.799,0.428c-0.547,0-0.99-0.469-0.99-1.046
		c0-0.574,0.443-1.042,0.99-1.042c0.318,0,0.604,0.161,0.785,0.408l-0.33,0.334C58.939,20.497,58.764,20.384,58.572,20.384"/>
	<path fill="none" stroke="#007DC5" stroke-width="0.045" d="M58.572,20.384c-0.277,0-0.502,0.27-0.502,0.6
		c0,0.334,0.225,0.6,0.502,0.6c0.195,0,0.379-0.124,0.461-0.319l0.338,0.337c-0.18,0.259-0.473,0.428-0.799,0.428
		c-0.547,0-0.99-0.469-0.99-1.046c0-0.574,0.443-1.042,0.99-1.042c0.318,0,0.604,0.161,0.785,0.408l-0.33,0.334
		C58.939,20.497,58.764,20.384,58.572,20.384z"/>
	<polygon fill="#FFFFFF" points="61.434,22.004 61.025,20.999 60.664,21.404 60.664,22.004 60.215,22.004 60.215,19.376 
		60.664,19.181 60.664,20.722 61.332,19.968 61.936,19.968 61.359,20.621 61.92,22.004 	"/>
	<polygon fill="none" stroke="#007DC5" stroke-width="0.045" points="61.434,22.004 61.025,20.999 60.664,21.404 60.664,22.004 
		60.215,22.004 60.215,19.376 60.664,19.181 60.664,20.722 61.332,19.968 61.936,19.968 61.359,20.621 61.92,22.004 	"/>
	<path fill="#FFFFFF" d="M63.414,22.03c-0.529,0-0.885-0.454-0.885-1.046c0-0.589,0.355-1.042,0.885-1.042
		c0.533,0,0.885,0.453,0.885,1.042c0,0.041,0,0.083-0.004,0.124h-1.279c0.031,0.281,0.17,0.498,0.398,0.498
		c0.188,0,0.289-0.045,0.381-0.157l0.342,0.266C63.943,21.921,63.703,22.03,63.414,22.03 M63.414,20.373
		c-0.211,0-0.33,0.154-0.379,0.375h0.76C63.748,20.527,63.627,20.373,63.414,20.373"/>
	<path fill="none" stroke="#007DC5" stroke-width="0.045" d="M63.414,22.03c-0.529,0-0.885-0.454-0.885-1.046
		c0-0.589,0.355-1.042,0.885-1.042c0.533,0,0.885,0.453,0.885,1.042c0,0.041,0,0.083-0.004,0.124h-1.279
		c0.031,0.281,0.17,0.498,0.398,0.498c0.188,0,0.289-0.045,0.381-0.157l0.342,0.266C63.943,21.921,63.703,22.03,63.414,22.03z
		 M63.414,20.373c-0.211,0-0.33,0.154-0.379,0.375h0.76C63.748,20.527,63.627,20.373,63.414,20.373z"/>
	<path fill="#FFFFFF" d="M66.039,20.411c-0.232,0-0.424,0.188-0.424,0.424v1.169h-0.449v-2.035h0.449v0.206
		c0.139-0.143,0.295-0.24,0.514-0.24c0.168,0,0.258,0.045,0.34,0.112l-0.135,0.507C66.27,20.456,66.158,20.411,66.039,20.411"/>
	<path fill="none" stroke="#007DC5" stroke-width="0.045" d="M66.039,20.411c-0.232,0-0.424,0.188-0.424,0.424v1.169h-0.449v-2.035
		h0.449v0.206c0.139-0.143,0.295-0.24,0.514-0.24c0.168,0,0.258,0.045,0.34,0.112l-0.135,0.507
		C66.27,20.456,66.158,20.411,66.039,20.411z"/>
	<path fill="#FFFFFF" d="M46.299,23.804h1.357c0.412,0,0.746,0.334,0.746,0.742c0,0.195-0.072,0.372-0.191,0.503
		c0.178,0.157,0.293,0.386,0.293,0.641c0,0.469-0.383,0.847-0.852,0.847h-1.354V23.804z M47.949,24.546
		c0-0.161-0.131-0.292-0.293-0.292h-0.908v0.585h0.908C47.818,24.839,47.949,24.708,47.949,24.546 M48.049,25.69
		c0-0.221-0.176-0.397-0.396-0.397h-0.904v0.794h0.904C47.873,26.087,48.049,25.907,48.049,25.69"/>
	<path fill="none" stroke="#007DC5" stroke-width="0.045" d="M46.299,23.804h1.357c0.412,0,0.746,0.334,0.746,0.742
		c0,0.195-0.072,0.372-0.191,0.503c0.178,0.157,0.293,0.386,0.293,0.641c0,0.469-0.383,0.847-0.852,0.847h-1.354V23.804z
		 M47.949,24.546c0-0.161-0.131-0.292-0.293-0.292h-0.908v0.585h0.908C47.818,24.839,47.949,24.708,47.949,24.546z M48.049,25.69
		c0-0.221-0.176-0.397-0.396-0.397h-0.904v0.794h0.904C47.873,26.087,48.049,25.907,48.049,25.69z"/>
	<path fill="#FFFFFF" d="M50.143,26.564c-0.527,0-0.885-0.453-0.885-1.046c0-0.588,0.357-1.042,0.885-1.042
		c0.533,0,0.885,0.454,0.885,1.042c0,0.041,0,0.083-0.004,0.124h-1.277c0.029,0.281,0.168,0.498,0.396,0.498
		c0.188,0,0.289-0.045,0.383-0.157l0.342,0.266C50.672,26.455,50.432,26.564,50.143,26.564 M50.143,24.907
		c-0.211,0-0.33,0.154-0.379,0.375h0.762C50.477,25.061,50.357,24.907,50.143,24.907"/>
	<path fill="none" stroke="#007DC5" stroke-width="0.045" d="M50.143,26.564c-0.527,0-0.885-0.453-0.885-1.046
		c0-0.588,0.357-1.042,0.885-1.042c0.533,0,0.885,0.454,0.885,1.042c0,0.041,0,0.083-0.004,0.124h-1.277
		c0.029,0.281,0.168,0.498,0.396,0.498c0.188,0,0.289-0.045,0.383-0.157l0.342,0.266C50.672,26.455,50.432,26.564,50.143,26.564z
		 M50.143,24.907c-0.211,0-0.33,0.154-0.379,0.375h0.762C50.477,25.061,50.357,24.907,50.143,24.907z"/>
	<path fill="#FFFFFF" d="M52.768,24.944c-0.232,0-0.424,0.188-0.424,0.424v1.169h-0.449v-2.036h0.449v0.207
		c0.139-0.143,0.295-0.24,0.514-0.24c0.17,0,0.26,0.045,0.342,0.112l-0.137,0.506C53,24.989,52.887,24.944,52.768,24.944"/>
	<path fill="none" stroke="#007DC5" stroke-width="0.045" d="M52.768,24.944c-0.232,0-0.424,0.188-0.424,0.424v1.169h-0.449v-2.036
		h0.449v0.207c0.139-0.143,0.295-0.24,0.514-0.24c0.17,0,0.26,0.045,0.342,0.112l-0.137,0.506
		C53,24.989,52.887,24.944,52.768,24.944z"/>
	<polygon fill="#FFFFFF" points="55.066,26.538 54.656,25.533 54.297,25.938 54.297,26.538 53.848,26.538 53.848,23.91 
		54.297,23.715 54.297,25.256 54.965,24.502 55.568,24.502 54.99,25.155 55.553,26.538 	"/>
	<polygon fill="none" stroke="#007DC5" stroke-width="0.045" points="55.066,26.538 54.656,25.533 54.297,25.938 54.297,26.538 
		53.848,26.538 53.848,23.91 54.297,23.715 54.297,25.256 54.965,24.502 55.568,24.502 54.99,25.155 55.553,26.538 	"/>
	<path fill="#FFFFFF" d="M57.047,26.564c-0.529,0-0.885-0.453-0.885-1.046c0-0.588,0.355-1.042,0.885-1.042
		c0.533,0,0.885,0.454,0.885,1.042c0,0.041,0,0.083-0.004,0.124h-1.279c0.031,0.281,0.168,0.498,0.398,0.498
		c0.188,0,0.289-0.045,0.383-0.157l0.34,0.266C57.576,26.455,57.336,26.564,57.047,26.564 M57.047,24.907
		c-0.211,0-0.33,0.154-0.379,0.375h0.762C57.381,25.061,57.26,24.907,57.047,24.907"/>
	<path fill="none" stroke="#007DC5" stroke-width="0.045" d="M57.047,26.564c-0.529,0-0.885-0.453-0.885-1.046
		c0-0.588,0.355-1.042,0.885-1.042c0.533,0,0.885,0.454,0.885,1.042c0,0.041,0,0.083-0.004,0.124h-1.279
		c0.031,0.281,0.168,0.498,0.398,0.498c0.188,0,0.289-0.045,0.383-0.157l0.34,0.266C57.576,26.455,57.336,26.564,57.047,26.564z
		 M57.047,24.907c-0.211,0-0.33,0.154-0.379,0.375h0.762C57.381,25.061,57.26,24.907,57.047,24.907z"/>
	<polygon fill="#FFFFFF" points="58.797,23.91 59.248,23.719 59.248,26.538 58.797,26.538 	"/>
	<polygon fill="none" stroke="#007DC5" stroke-width="0.045" points="58.797,23.91 59.248,23.719 59.248,26.538 58.797,26.538 	"/>
	<path fill="#FFFFFF" d="M62.195,26.564c-0.529,0-0.885-0.453-0.885-1.046c0-0.588,0.355-1.042,0.885-1.042
		c0.533,0,0.885,0.454,0.885,1.042c0,0.041,0,0.083-0.004,0.124h-1.277c0.029,0.281,0.168,0.498,0.396,0.498
		c0.188,0,0.289-0.045,0.381-0.157l0.342,0.266C62.725,26.455,62.484,26.564,62.195,26.564 M62.195,24.907
		c-0.211,0-0.33,0.154-0.379,0.375h0.76C62.529,25.061,62.408,24.907,62.195,24.907"/>
	<path fill="none" stroke="#007DC5" stroke-width="0.045" d="M62.195,26.564c-0.529,0-0.885-0.453-0.885-1.046
		c0-0.588,0.355-1.042,0.885-1.042c0.533,0,0.885,0.454,0.885,1.042c0,0.041,0,0.083-0.004,0.124h-1.277
		c0.029,0.281,0.168,0.498,0.396,0.498c0.188,0,0.289-0.045,0.381-0.157l0.342,0.266C62.725,26.455,62.484,26.564,62.195,26.564z
		 M62.195,24.907c-0.211,0-0.33,0.154-0.379,0.375h0.76C62.529,25.061,62.408,24.907,62.195,24.907z"/>
	<path fill="#FFFFFF" d="M63.947,26.538v-2.036h0.449v0.206c0.139-0.142,0.334-0.236,0.547-0.236c0.416,0,0.754,0.341,0.754,0.754
		v1.312h-0.449v-1.17c0-0.232-0.191-0.423-0.428-0.423c-0.232,0-0.424,0.191-0.424,0.423v1.17H63.947z"/>
	<path fill="none" stroke="#007DC5" stroke-width="0.045" d="M63.947,26.538v-2.036h0.449v0.206
		c0.139-0.142,0.334-0.236,0.547-0.236c0.416,0,0.754,0.341,0.754,0.754v1.312h-0.449v-1.17c0-0.232-0.191-0.423-0.428-0.423
		c-0.232,0-0.424,0.191-0.424,0.423v1.17H63.947z"/>
	<path fill="#FFFFFF" d="M52.973,31.162l-0.502-1.076h-0.758v1.076h-0.449v-2.736h1.33c0.457,0,0.83,0.371,0.83,0.828
		c0,0.337-0.203,0.63-0.492,0.761l0.537,1.147H52.973z M52.969,29.254c0-0.21-0.168-0.375-0.379-0.375h-0.877v0.754h0.877
		C52.801,29.633,52.969,29.464,52.969,29.254"/>
	<path fill="none" stroke="#007DC5" stroke-width="0.045" d="M52.973,31.162l-0.502-1.076h-0.758v1.076h-0.449v-2.736h1.33
		c0.457,0,0.83,0.371,0.83,0.828c0,0.337-0.203,0.63-0.492,0.761l0.537,1.147H52.973z M52.969,29.254
		c0-0.21-0.168-0.375-0.379-0.375h-0.877v0.754h0.877C52.801,29.633,52.969,29.464,52.969,29.254z"/>
	<path fill="#FFFFFF" d="M55.035,31.188c-0.533,0-0.885-0.454-0.885-1.046c0-0.589,0.352-1.042,0.885-1.042s0.885,0.453,0.885,1.042
		C55.92,30.734,55.568,31.188,55.035,31.188 M54.631,30.143c0,0.341,0.123,0.615,0.404,0.615s0.406-0.274,0.406-0.615
		c0-0.337-0.125-0.611-0.406-0.611S54.631,29.806,54.631,30.143"/>
	<path fill="none" stroke="#007DC5" stroke-width="0.045" d="M55.035,31.188c-0.533,0-0.885-0.454-0.885-1.046
		c0-0.589,0.352-1.042,0.885-1.042s0.885,0.453,0.885,1.042C55.92,30.734,55.568,31.188,55.035,31.188z M54.631,30.143
		c0,0.341,0.123,0.615,0.404,0.615s0.406-0.274,0.406-0.615c0-0.337-0.125-0.611-0.406-0.611S54.631,29.806,54.631,30.143z"/>
	<path fill="#FFFFFF" d="M58.256,28.343v2.82h-0.453v-0.094c-0.115,0.075-0.25,0.12-0.404,0.12c-0.533,0-0.885-0.454-0.885-1.046
		c0-0.589,0.352-1.042,0.885-1.042c0.154,0,0.289,0.045,0.404,0.116v-0.682L58.256,28.343z M57.469,29.573
		c-0.279,0-0.445,0.232-0.445,0.57c0,0.341,0.166,0.574,0.445,0.574c0.143,0,0.26-0.064,0.334-0.173v-0.799
		C57.729,29.637,57.611,29.573,57.469,29.573"/>
	<path fill="none" stroke="#007DC5" stroke-width="0.045" d="M58.256,28.343v2.82h-0.453v-0.094c-0.115,0.075-0.25,0.12-0.404,0.12
		c-0.533,0-0.885-0.454-0.885-1.046c0-0.589,0.352-1.042,0.885-1.042c0.154,0,0.289,0.045,0.404,0.116v-0.682L58.256,28.343z
		 M57.469,29.573c-0.279,0-0.445,0.232-0.445,0.57c0,0.341,0.166,0.574,0.445,0.574c0.143,0,0.26-0.064,0.334-0.173v-0.799
		C57.729,29.637,57.611,29.573,57.469,29.573z"/>
	<path fill="#FFFFFF" d="M59.951,31.188c-0.527,0-0.885-0.454-0.885-1.046c0-0.589,0.357-1.042,0.885-1.042
		c0.533,0,0.887,0.453,0.887,1.042c0,0.041,0,0.082-0.004,0.124h-1.279c0.031,0.281,0.168,0.498,0.396,0.498
		c0.189,0,0.289-0.045,0.383-0.157l0.342,0.266C60.48,31.08,60.24,31.188,59.951,31.188 M59.951,29.531
		c-0.209,0-0.328,0.154-0.379,0.375h0.762C60.285,29.686,60.166,29.531,59.951,29.531"/>
	<path fill="none" stroke="#007DC5" stroke-width="0.045" d="M59.951,31.188c-0.527,0-0.885-0.454-0.885-1.046
		c0-0.589,0.357-1.042,0.885-1.042c0.533,0,0.887,0.453,0.887,1.042c0,0.041,0,0.082-0.004,0.124h-1.279
		c0.031,0.281,0.168,0.498,0.396,0.498c0.189,0,0.289-0.045,0.383-0.157l0.342,0.266C60.48,31.08,60.24,31.188,59.951,31.188z
		 M59.951,29.531c-0.209,0-0.328,0.154-0.379,0.375h0.762C60.285,29.686,60.166,29.531,59.951,29.531z"/>
	<path fill="#FFFFFF" d="M61.703,31.162v-2.036h0.451v0.206c0.139-0.142,0.334-0.236,0.547-0.236c0.416,0,0.754,0.341,0.754,0.754
		v1.312h-0.451v-1.17c0-0.232-0.191-0.423-0.428-0.423c-0.232,0-0.422,0.191-0.422,0.423v1.17H61.703z"/>
	<path fill="none" stroke="#007DC5" stroke-width="0.045" d="M61.703,31.162v-2.036h0.451v0.206
		c0.139-0.142,0.334-0.236,0.547-0.236c0.416,0,0.754,0.341,0.754,0.754v1.312h-0.451v-1.17c0-0.232-0.191-0.423-0.428-0.423
		c-0.232,0-0.422,0.191-0.422,0.423v1.17H61.703z"/>
	<path fill="#FFFFFF" d="M65.379,29.569c-0.232,0-0.426,0.188-0.426,0.424v1.169h-0.447v-2.035h0.447v0.206
		c0.141-0.143,0.297-0.24,0.516-0.24c0.168,0,0.258,0.045,0.34,0.112l-0.135,0.506C65.609,29.614,65.498,29.569,65.379,29.569"/>
	<path fill="none" stroke="#007DC5" stroke-width="0.045" d="M65.379,29.569c-0.232,0-0.426,0.188-0.426,0.424v1.169h-0.447v-2.035
		h0.447v0.206c0.141-0.143,0.297-0.24,0.516-0.24c0.168,0,0.258,0.045,0.34,0.112l-0.135,0.506
		C65.609,29.614,65.498,29.569,65.379,29.569z"/>
	<path fill="#FFFFFF" d="M66.721,28.451c0.143,0,0.26,0.117,0.26,0.259c0,0.146-0.117,0.263-0.26,0.263
		c-0.146,0-0.264-0.117-0.264-0.263C66.457,28.568,66.574,28.451,66.721,28.451 M66.492,29.126h0.453v2.036h-0.453V29.126z"/>
	<path fill="none" stroke="#007DC5" stroke-width="0.045" d="M66.721,28.452c0.143,0,0.258,0.116,0.258,0.259
		c0,0.146-0.115,0.262-0.258,0.262c-0.146,0-0.264-0.116-0.264-0.262C66.457,28.567,66.574,28.452,66.721,28.452z M66.492,29.126
		h0.453v2.036h-0.453V29.126z"/>
	<path fill="#FFFFFF" d="M67.572,32.148v-0.453c0.297,0,0.535-0.237,0.535-0.533v-2.035h0.451v2.035
		C68.559,31.706,68.119,32.148,67.572,32.148 M68.334,28.448c0.143,0,0.258,0.12,0.258,0.262c0,0.143-0.115,0.259-0.258,0.259
		s-0.26-0.116-0.26-0.259C68.074,28.568,68.191,28.448,68.334,28.448"/>
	<path fill="none" stroke="#007DC5" stroke-width="0.045" d="M67.572,32.148v-0.453c0.297,0,0.535-0.237,0.535-0.533v-2.035h0.451
		v2.035C68.559,31.706,68.119,32.148,67.572,32.148z M68.334,28.448c0.143,0,0.258,0.12,0.258,0.262
		c0,0.143-0.115,0.259-0.258,0.259s-0.26-0.116-0.26-0.259C68.074,28.568,68.191,28.448,68.334,28.448z"/>
	<path fill="#FFFFFF" d="M70.336,30.757c0.139,0,0.254-0.079,0.254-0.176c0-0.116-0.119-0.161-0.254-0.21
		c-0.139-0.045-0.217-0.075-0.42-0.15c-0.289-0.109-0.443-0.281-0.443-0.525c0-0.322,0.326-0.585,0.729-0.585
		c0.404,0,0.58,0.083,0.85,0.259l-0.197,0.367c-0.174-0.105-0.346-0.214-0.648-0.214c-0.143,0-0.256,0.079-0.256,0.173
		c0,0.135,0.131,0.18,0.256,0.221c0.127,0.042,0.236,0.083,0.367,0.131c0.33,0.124,0.498,0.24,0.498,0.555
		c0,0.323-0.326,0.585-0.727,0.585c-0.404,0-0.713-0.097-0.986-0.266l0.213-0.401C69.732,30.615,69.945,30.757,70.336,30.757"/>
	<path fill="none" stroke="#007DC5" stroke-width="0.045" d="M70.336,30.757c0.139,0,0.254-0.079,0.254-0.176
		c0-0.116-0.119-0.161-0.254-0.21c-0.139-0.045-0.217-0.075-0.42-0.15c-0.289-0.109-0.443-0.281-0.443-0.525
		c0-0.322,0.326-0.585,0.729-0.585c0.404,0,0.58,0.083,0.85,0.259l-0.197,0.367c-0.174-0.105-0.346-0.214-0.648-0.214
		c-0.143,0-0.256,0.079-0.256,0.173c0,0.135,0.131,0.18,0.256,0.221c0.127,0.042,0.236,0.083,0.367,0.131
		c0.33,0.124,0.498,0.24,0.498,0.555c0,0.323-0.326,0.585-0.727,0.585c-0.404,0-0.713-0.097-0.986-0.266l0.213-0.401
		C69.732,30.615,69.945,30.757,70.336,30.757z"/>
	<rect x="12.477" y="5.156" fill="#007DC5" width="28.5" height="33.858"/>
	<polygon fill="none" stroke="#000000" stroke-width="0.032" points="24.906,31.432 25.037,31.454 25.154,31.54 25.242,31.659 
		25.262,31.799 25.262,36.022 25.242,36.162 25.154,36.281 25.037,36.357 24.906,36.378 14.916,36.378 14.787,36.357 14.668,36.281 
		14.582,36.162 14.561,36.022 14.561,31.799 14.582,31.659 14.668,31.54 14.787,31.454 14.916,31.432 	"/>
	<path fill="#FFFFFF" d="M13.199,8.159l0.043-0.443l0.131-0.421l0.215-0.4l0.281-0.346l0.346-0.281l0.389-0.205l0.432-0.129
		l0.441-0.043h22.498l0.443,0.043l0.432,0.129l0.389,0.205l0.346,0.281l0.281,0.346l0.215,0.4l0.131,0.421l0.043,0.443v27.852
		l-0.043,0.443l-0.131,0.432l-0.215,0.389l-0.281,0.346l-0.346,0.281l-0.389,0.215l-0.432,0.119l-0.443,0.055H15.477l-0.441-0.055
		l-0.432-0.119l-0.389-0.215l-0.346-0.281l-0.281-0.346l-0.215-0.389l-0.131-0.432l-0.043-0.443V8.159z M37.975,38.744l0.529-0.054
		l0.518-0.162l0.477-0.249l0.41-0.334l0.334-0.422l0.26-0.464l0.15-0.518l0.055-0.53V8.159l-0.055-0.53l-0.15-0.507l-0.26-0.475
		l-0.334-0.411l-0.41-0.345l-0.477-0.249L38.504,5.48l-0.529-0.043H15.477L14.949,5.48l-0.52,0.162l-0.475,0.249l-0.41,0.345
		l-0.334,0.411l-0.26,0.475l-0.152,0.507l-0.053,0.53v27.852l0.053,0.53l0.152,0.518l0.26,0.464l0.334,0.422l0.41,0.334l0.475,0.249
		l0.52,0.162l0.527,0.054H37.975z"/>
	<polygon fill="#FFFFFF" points="14.561,25.557 14.582,25.417 14.668,25.298 14.787,25.211 14.916,25.19 34.486,25.19 
		34.627,25.211 34.744,25.298 34.832,25.417 34.854,25.557 34.854,28.98 34.832,29.121 34.744,29.239 34.627,29.326 34.486,29.347 
		14.916,29.347 14.787,29.326 14.668,29.239 14.582,29.121 14.561,28.98 	"/>
	<polygon fill="#FFDD00" points="24.906,31.432 25.037,31.454 25.154,31.54 25.242,31.659 25.262,31.799 25.262,36.022 
		25.242,36.162 25.154,36.281 25.037,36.357 24.906,36.378 14.916,36.378 14.787,36.357 14.668,36.281 14.582,36.162 14.561,36.022 
		14.561,31.799 14.582,31.659 14.668,31.54 14.787,31.454 14.916,31.432 	"/>
	<polygon points="17.887,32.523 17.887,35.299 17.369,35.299 16.18,33.538 16.18,35.299 15.65,35.299 15.65,33.905 15.65,32.523 
		16.127,32.523 17.369,34.326 17.369,32.523 	"/>
	<polygon fill="none" stroke="#FFDD00" stroke-width="0.045" points="17.887,32.523 17.887,35.299 17.369,35.299 16.18,33.538 
		16.18,35.299 15.65,35.299 15.65,33.905 15.65,32.523 16.127,32.523 17.369,34.326 17.369,32.523 	"/>
	<polygon points="23.361,25.881 23.361,26.41 22.596,26.41 22.596,28.656 22.066,28.656 22.066,26.41 21.311,26.41 21.311,25.881 	
		"/>
	<polygon fill="none" stroke="#FFFFFF" stroke-width="0.045" points="23.361,25.881 23.361,26.41 22.596,26.41 22.596,28.656 
		22.066,28.656 22.066,26.41 21.311,26.41 21.311,25.881 	"/>
	<path d="M25.631,27.771H24.42v0.043l0.012,0.043l0.021,0.076l0.043,0.075l0.043,0.076l0.064,0.043l0.064,0.032l0.076,0.011h0.086
		l0.088-0.032l0.076-0.033l0.053-0.043l0.033-0.032l0.02-0.032l0.4,0.323l-0.031,0.033l-0.033,0.032l-0.064,0.065l-0.109,0.065
		l-0.107,0.064l-0.129,0.055l-0.141,0.032l-0.152,0.011l-0.15-0.022l-0.162-0.043l-0.162-0.086l-0.139-0.119L24,28.257l-0.088-0.184
		l-0.055-0.216l-0.02-0.248l0.01-0.26l0.076-0.226l0.096-0.195l0.131-0.151l0.131-0.097l0.139-0.065l0.152-0.043l0.16-0.022
		l0.162,0.022l0.162,0.043l0.152,0.076l0.141,0.108l0.119,0.14l0.074,0.162l0.055,0.173l0.033,0.184v0.129v0.076v0.054V27.771z
		 M25.025,27.274l-0.012-0.033l-0.01-0.032l-0.043-0.043l-0.043-0.054l-0.066-0.032l-0.053-0.022h-0.066l-0.064,0.011l-0.064,0.021
		l-0.053,0.033l-0.045,0.043l-0.031,0.043l-0.012,0.032l-0.021,0.033l-0.01,0.043h0.605L25.025,27.274z"/>
	<path fill="none" stroke="#FFFFFF" stroke-width="0.045" d="M25.631,27.771H24.42v0.043l0.012,0.043l0.021,0.076l0.043,0.075
		l0.043,0.076l0.064,0.043l0.064,0.032l0.076,0.011h0.086l0.088-0.032l0.076-0.033l0.053-0.043l0.033-0.032l0.02-0.032l0.4,0.323
		l-0.031,0.033l-0.033,0.032l-0.064,0.065l-0.109,0.065l-0.107,0.064l-0.129,0.055l-0.141,0.032l-0.152,0.011l-0.15-0.022
		l-0.162-0.043l-0.162-0.086l-0.139-0.119L24,28.257l-0.088-0.184l-0.055-0.216l-0.02-0.248l0.01-0.26l0.076-0.226l0.096-0.195
		l0.131-0.151l0.131-0.097l0.139-0.065l0.152-0.043l0.16-0.022l0.162,0.022l0.162,0.043l0.152,0.076l0.141,0.108l0.119,0.14
		l0.074,0.162l0.055,0.173l0.033,0.184v0.129v0.076v0.054V27.771z M25.025,27.274l-0.012-0.033l-0.01-0.032l-0.043-0.043
		l-0.043-0.054l-0.066-0.032l-0.053-0.022h-0.066l-0.064,0.011l-0.064,0.021l-0.053,0.033l-0.045,0.043l-0.031,0.043l-0.012,0.032
		l-0.021,0.033l-0.01,0.043h0.605L25.025,27.274z"/>
	<polygon points="27.012,26.573 27.012,26.702 27.045,26.669 27.088,26.648 27.141,26.616 27.217,26.583 27.303,26.573 
		27.402,26.562 27.51,26.573 27.605,26.594 27.691,26.616 27.758,26.648 27.791,26.669 27.834,26.702 27.639,27.329 27.629,27.297 
		27.605,27.264 27.563,27.221 27.498,27.178 27.434,27.145 27.348,27.135 27.26,27.145 27.174,27.178 27.109,27.231 27.055,27.307 
		27.023,27.404 27.012,27.5 27.012,28.657 26.43,28.657 26.43,26.573 	"/>
	<polygon fill="none" stroke="#FFFFFF" stroke-width="0.045" points="27.012,26.573 27.012,26.702 27.045,26.669 27.088,26.648 
		27.141,26.616 27.217,26.583 27.303,26.573 27.402,26.562 27.51,26.573 27.605,26.594 27.691,26.616 27.758,26.648 27.791,26.669 
		27.834,26.702 27.639,27.329 27.629,27.297 27.605,27.264 27.563,27.221 27.498,27.178 27.434,27.145 27.348,27.135 27.26,27.145 
		27.174,27.178 27.109,27.231 27.055,27.307 27.023,27.404 27.012,27.5 27.012,28.657 26.43,28.657 26.43,26.573 	"/>
	<polygon points="28.979,25.773 28.979,28.656 28.406,28.656 28.406,25.989 	"/>
	<polygon fill="none" stroke="#FFFFFF" stroke-width="0.045" points="28.979,25.773 28.979,28.656 28.406,28.656 28.406,25.989 	"/>
	<path d="M31.516,27.771h-1.199v0.043v0.043l0.023,0.076l0.043,0.075l0.053,0.076l0.066,0.043l0.063,0.032l0.076,0.011h0.086
		l0.088-0.032l0.074-0.033l0.045-0.043l0.031-0.032l0.021-0.032l0.4,0.323l-0.021,0.033l-0.033,0.032l-0.064,0.065l-0.107,0.065
		l-0.119,0.064l-0.119,0.055l-0.15,0.032l-0.152,0.011l-0.15-0.022l-0.162-0.043l-0.162-0.086l-0.141-0.119l-0.107-0.151
		l-0.086-0.184l-0.066-0.216l-0.021-0.248l0.021-0.26l0.066-0.226l0.096-0.195l0.129-0.151l0.143-0.097l0.139-0.065l0.152-0.043
		l0.15-0.022l0.162,0.022l0.162,0.043l0.152,0.076l0.139,0.108l0.119,0.14l0.086,0.162l0.055,0.173l0.021,0.184l0.012,0.129v0.076
		v0.054L31.516,27.771z M30.922,27.274l-0.012-0.033l-0.021-0.032l-0.031-0.043l-0.055-0.054l-0.053-0.032l-0.066-0.022h-0.053
		l-0.076,0.011L30.49,27.09l-0.043,0.033l-0.043,0.043l-0.033,0.043l-0.021,0.032l-0.01,0.033l-0.012,0.043h0.594V27.274z"/>
	<path fill="none" stroke="#FFFFFF" stroke-width="0.045" d="M31.516,27.771h-1.199v0.043v0.043l0.023,0.076l0.043,0.075
		l0.053,0.076l0.066,0.043l0.063,0.032l0.076,0.011h0.086l0.088-0.032l0.074-0.033l0.045-0.043l0.031-0.032l0.021-0.032l0.4,0.323
		l-0.021,0.033l-0.033,0.032l-0.064,0.065l-0.107,0.065l-0.119,0.064l-0.119,0.055l-0.15,0.032l-0.152,0.011l-0.15-0.022
		l-0.162-0.043l-0.162-0.086l-0.141-0.119l-0.107-0.151l-0.086-0.184l-0.066-0.216l-0.021-0.248l0.021-0.26l0.066-0.226l0.096-0.195
		l0.129-0.151l0.143-0.097l0.139-0.065l0.152-0.043l0.15-0.022l0.162,0.022l0.162,0.043l0.152,0.076l0.139,0.108l0.119,0.14
		l0.086,0.162l0.055,0.173l0.021,0.184l0.012,0.129v0.076v0.054L31.516,27.771z M30.922,27.274l-0.012-0.033l-0.021-0.032
		l-0.031-0.043l-0.055-0.054l-0.053-0.032l-0.066-0.022h-0.053l-0.076,0.011L30.49,27.09l-0.043,0.033l-0.043,0.043l-0.033,0.043
		l-0.021,0.032l-0.01,0.033l-0.012,0.043h0.594V27.274z"/>
	<polygon points="32.996,25.849 32.996,26.573 33.471,26.573 33.471,27.113 32.996,27.113 32.996,27.998 32.996,28.041 
		33.006,28.074 33.027,28.095 33.049,28.117 33.082,28.138 33.135,28.138 33.18,28.138 33.234,28.128 33.287,28.106 33.342,28.074 
		33.396,28.03 33.428,27.998 33.461,27.966 33.504,27.933 33.373,28.57 33.33,28.592 33.287,28.613 33.223,28.635 33.135,28.657 
		33.061,28.678 32.963,28.678 32.865,28.667 32.748,28.624 32.65,28.57 32.564,28.505 32.51,28.43 32.467,28.333 32.434,28.214 
		32.424,28.085 32.424,27.113 32.066,27.113 32.066,26.573 32.424,26.573 32.424,26.076 	"/>
	<polygon fill="none" stroke="#FFFFFF" stroke-width="0.045" points="32.996,25.849 32.996,26.573 33.471,26.573 33.471,27.113 
		32.996,27.113 32.996,27.998 32.996,28.041 33.006,28.074 33.027,28.095 33.049,28.117 33.082,28.138 33.135,28.138 33.18,28.138 
		33.234,28.128 33.287,28.106 33.342,28.074 33.396,28.03 33.428,27.998 33.461,27.966 33.504,27.933 33.373,28.57 33.33,28.592 
		33.287,28.613 33.223,28.635 33.135,28.657 33.061,28.678 32.963,28.678 32.865,28.667 32.748,28.624 32.65,28.57 32.564,28.505 
		32.51,28.43 32.467,28.333 32.434,28.214 32.424,28.085 32.424,27.113 32.066,27.113 32.066,26.573 32.424,26.573 32.424,26.076 	
		"/>
	<polygon points="19.916,27.274 19.895,27.209 19.82,27.155 19.766,27.124 19.668,27.09 19.549,27.059 19.398,27.037 19.258,27.016 
		19.053,27.004 18.793,27.004 18.469,27.004 18.275,26.669 18.092,26.378 17.951,26.129 17.822,25.924 17.725,25.763 17.648,25.644 
		17.594,25.568 17.574,25.524 17.529,25.471 17.498,25.45 17.465,25.45 17.4,25.45 17.303,25.45 17.174,25.45 17.541,26.325 
		17.541,27.026 17.229,27.037 16.957,27.047 16.719,27.069 16.525,27.09 16.418,26.886 16.332,26.734 16.287,26.638 16.268,26.593 
		16.213,26.562 16.115,26.562 16.115,27.209 15.986,27.231 15.943,27.274 15.986,27.307 16.115,27.329 16.115,27.977 16.213,27.977 
		16.268,27.944 16.287,27.9 16.332,27.804 16.418,27.652 16.525,27.447 16.719,27.468 16.957,27.49 17.229,27.501 17.541,27.522 
		17.541,28.213 17.174,29.088 17.303,29.088 17.4,29.088 17.465,29.088 17.498,29.088 17.529,29.067 17.574,29.013 17.594,28.98 
		17.648,28.895 17.725,28.775 17.822,28.613 17.951,28.409 18.092,28.16 18.275,27.869 18.469,27.544 18.793,27.534 19.053,27.534 
		19.258,27.522 19.398,27.513 19.549,27.479 19.668,27.447 19.766,27.416 19.82,27.382 19.895,27.329 	"/>
	<polygon points="21.072,32.523 21.072,33.041 19.766,33.041 19.744,33.441 19.799,33.419 19.863,33.409 19.961,33.387 
		20.08,33.354 20.209,33.344 20.348,33.333 20.5,33.354 20.672,33.387 20.846,33.463 21.008,33.581 21.137,33.733 21.246,33.905 
		21.32,34.121 21.342,34.337 21.32,34.553 21.246,34.769 21.137,34.942 20.996,35.093 20.834,35.201 20.652,35.277 20.467,35.32 
		20.273,35.32 20.068,35.32 19.852,35.288 19.637,35.245 19.453,35.18 19.322,35.137 19.215,35.093 19.15,35.061 19.096,35.039 
		19.322,34.564 19.398,34.597 19.496,34.64 19.658,34.694 19.863,34.759 20.068,34.791 20.273,34.802 20.424,34.791 20.553,34.759 
		20.662,34.694 20.748,34.586 20.803,34.467 20.814,34.337 20.803,34.208 20.748,34.078 20.662,33.97 20.543,33.905 20.436,33.873 
		20.338,33.862 20.252,33.862 20.166,33.873 20.047,33.895 19.928,33.927 19.842,33.959 19.777,33.981 19.723,34.003 19.668,34.024 
		19.203,33.884 19.258,32.523 	"/>
	<polygon fill="none" stroke="#FFDD00" stroke-width="0.045" points="21.072,32.523 21.072,33.041 19.766,33.041 19.744,33.441 
		19.799,33.419 19.863,33.409 19.961,33.387 20.08,33.354 20.209,33.344 20.348,33.333 20.5,33.354 20.672,33.387 20.846,33.463 
		21.008,33.581 21.137,33.733 21.246,33.905 21.32,34.121 21.342,34.337 21.32,34.553 21.246,34.769 21.137,34.942 20.996,35.093 
		20.834,35.201 20.652,35.277 20.467,35.32 20.273,35.32 20.068,35.32 19.852,35.288 19.637,35.245 19.453,35.18 19.322,35.137 
		19.215,35.093 19.15,35.061 19.096,35.039 19.322,34.564 19.398,34.597 19.496,34.64 19.658,34.694 19.863,34.759 20.068,34.791 
		20.273,34.802 20.424,34.791 20.553,34.759 20.662,34.694 20.748,34.586 20.803,34.467 20.814,34.337 20.803,34.208 20.748,34.078 
		20.662,33.97 20.543,33.905 20.436,33.873 20.338,33.862 20.252,33.862 20.166,33.873 20.047,33.895 19.928,33.927 19.842,33.959 
		19.777,33.981 19.723,34.003 19.668,34.024 19.203,33.884 19.258,32.523 	"/>
	<path d="M24.172,33.873l-0.021,0.335l-0.064,0.302l-0.098,0.238l-0.141,0.194l-0.184,0.173l-0.227,0.13l-0.215,0.065l-0.217,0.021
		l-0.217-0.021l-0.227-0.076l-0.215-0.13l-0.174-0.162l-0.129-0.183l-0.109-0.238l-0.074-0.302l-0.021-0.335l0.031-0.324
		l0.076-0.303l0.107-0.237l0.141-0.195l0.184-0.151l0.195-0.108l0.205-0.065l0.193-0.021l0.217,0.021l0.215,0.055l0.205,0.107
		l0.195,0.152l0.15,0.205l0.119,0.237l0.076,0.292L24.172,33.873z M23.643,33.722l-0.033-0.194l-0.074-0.184l-0.088-0.141
		l-0.107-0.086l-0.107-0.065l-0.129-0.032l-0.119-0.011l-0.131,0.011l-0.107,0.043l-0.098,0.054l-0.086,0.097l-0.086,0.141
		l-0.064,0.173l-0.033,0.194l-0.012,0.194l0.012,0.206l0.033,0.194l0.064,0.162l0.086,0.119l0.098,0.097l0.119,0.065l0.107,0.032
		l0.119,0.011l0.129-0.011l0.131-0.032l0.107-0.065l0.098-0.097l0.076-0.13l0.053-0.162l0.043-0.194l0.012-0.195L23.643,33.722z"/>
	<path fill="none" stroke="#FFDD00" stroke-width="0.045" d="M24.172,33.873l-0.021,0.335l-0.064,0.302l-0.098,0.238l-0.141,0.194
		l-0.184,0.173l-0.227,0.13l-0.215,0.065l-0.217,0.021l-0.217-0.021l-0.227-0.076l-0.215-0.13l-0.174-0.162l-0.129-0.183
		l-0.109-0.238l-0.074-0.302l-0.021-0.335l0.031-0.324l0.076-0.303l0.107-0.237l0.141-0.195l0.184-0.151l0.195-0.108l0.205-0.065
		l0.193-0.021l0.217,0.021l0.215,0.055l0.205,0.107l0.195,0.152l0.15,0.205l0.119,0.237l0.076,0.292L24.172,33.873z M23.643,33.722
		l-0.033-0.194l-0.074-0.184l-0.088-0.141l-0.107-0.086l-0.107-0.065l-0.129-0.032l-0.119-0.011l-0.131,0.011l-0.107,0.043
		l-0.098,0.054l-0.086,0.097l-0.086,0.141l-0.064,0.173l-0.033,0.194l-0.012,0.194l0.012,0.206l0.033,0.194l0.064,0.162l0.086,0.119
		l0.098,0.097l0.119,0.065l0.107,0.032l0.119,0.011l0.129-0.011l0.131-0.032l0.107-0.065l0.098-0.097l0.076-0.13l0.053-0.162
		l0.043-0.194l0.012-0.195L23.643,33.722z"/>
	<polygon fill="#FFFFFF" points="26.688,9.778 26.688,9.962 26.73,9.919 26.773,9.886 26.85,9.843 26.959,9.8 27.088,9.768 
		27.229,9.756 27.391,9.768 27.541,9.821 27.66,9.897 27.736,9.951 27.779,10.005 27.822,10.038 27.854,10.005 27.908,9.951 
		28.006,9.875 28.135,9.812 28.266,9.768 28.438,9.756 28.633,9.79 28.826,9.875 28.988,10.005 29.107,10.167 29.172,10.373 
		29.195,10.6 29.195,11.862 28.697,11.862 28.697,10.621 28.664,10.48 28.578,10.361 28.459,10.275 28.32,10.253 28.178,10.275 
		28.061,10.361 27.973,10.491 27.941,10.631 27.941,11.862 27.445,11.862 27.445,10.61 27.412,10.469 27.336,10.351 27.217,10.275 
		27.078,10.243 26.936,10.265 26.807,10.351 26.721,10.469 26.688,10.61 26.688,11.862 26.18,11.862 26.18,9.778 	"/>
	<polygon fill="none" stroke="#007DC5" stroke-width="0.045" points="26.688,9.778 26.688,9.962 26.73,9.919 26.773,9.886 
		26.85,9.843 26.959,9.8 27.088,9.768 27.229,9.756 27.391,9.768 27.541,9.821 27.66,9.897 27.736,9.951 27.779,10.005 
		27.822,10.038 27.854,10.005 27.908,9.951 28.006,9.875 28.135,9.812 28.266,9.768 28.438,9.756 28.633,9.79 28.826,9.875 
		28.988,10.005 29.107,10.167 29.172,10.373 29.195,10.6 29.195,11.862 28.697,11.862 28.697,10.621 28.664,10.48 28.578,10.361 
		28.459,10.275 28.32,10.253 28.178,10.275 28.061,10.361 27.973,10.491 27.941,10.631 27.941,11.862 27.445,11.862 27.445,10.61 
		27.412,10.469 27.336,10.351 27.217,10.275 27.078,10.243 26.936,10.265 26.807,10.351 26.721,10.469 26.688,10.61 26.688,11.862 
		26.18,11.862 26.18,9.778 	"/>
	<polygon fill="#FFFFFF" points="35.469,9.692 33.945,8.742 33.859,8.666 33.826,8.569 33.816,8.461 33.859,8.364 33.936,8.288 
		34.033,8.245 38.354,7.457 38.406,7.457 38.461,7.457 38.516,7.478 38.559,7.5 38.602,7.532 38.633,7.575 38.666,7.618 
		38.678,7.673 38.688,7.726 38.678,7.781 37.889,12.101 37.855,12.198 37.779,12.273 37.672,12.316 37.564,12.316 37.467,12.273 
		37.391,12.198 36.451,10.675 33.363,14.055 32.088,12.781 	"/>
	<path fill="#FFFFFF" d="M16.17,20.33l1.166,2.776H16.84l-0.281-0.681h-1.221l-0.291,0.681h-0.486l1.176-2.776H16.17z
		 M15.531,21.972h0.842l-0.42-0.994L15.531,21.972z"/>
	<path fill="none" stroke="#007DC5" stroke-width="0.045" d="M16.17,20.33l1.166,2.776H16.84l-0.281-0.681h-1.221l-0.291,0.681
		h-0.486l1.176-2.776H16.17z M15.531,21.972h0.842l-0.42-0.994L15.531,21.972z"/>
	<path fill="#FFFFFF" d="M18.588,21.659l0.033-0.022l0.053-0.043l0.098-0.065l0.131-0.022l0.117,0.011l0.109,0.043l0.107,0.076
		l0.076,0.108l0.055,0.162l0.02,0.194l-0.031,0.206l-0.064,0.162l-0.066,0.086l-0.096,0.065l-0.109,0.032l-0.117,0.011l-0.119-0.022
		l-0.098-0.043l-0.055-0.054l-0.043-0.043V21.659z M18.102,21.043v2.776l0.486-0.184v-0.648l0.055,0.032l0.076,0.054l0.15,0.054
		l0.205,0.033l0.217-0.044l0.205-0.107l0.141-0.141l0.117-0.183l0.098-0.27l0.033-0.325l-0.033-0.334l-0.107-0.292l-0.141-0.205
		l-0.162-0.14l-0.184-0.076l-0.205-0.032l-0.195,0.032l-0.15,0.054l-0.076,0.043l-0.043,0.033v-0.13H18.102z"/>
	<path fill="none" stroke="#007DC5" stroke-width="0.045" d="M18.588,21.659l0.033-0.022l0.053-0.043l0.098-0.065l0.131-0.022
		l0.117,0.011l0.109,0.043l0.107,0.076l0.076,0.108l0.055,0.162l0.02,0.194l-0.031,0.206l-0.064,0.162l-0.066,0.086l-0.096,0.065
		l-0.109,0.032l-0.117,0.011l-0.119-0.022l-0.098-0.043l-0.055-0.054l-0.043-0.043V21.659z M18.102,21.043v2.776l0.486-0.184v-0.648
		l0.055,0.032l0.076,0.054l0.15,0.054l0.205,0.033l0.217-0.044l0.205-0.107l0.141-0.141l0.117-0.183l0.098-0.27l0.033-0.325
		l-0.033-0.334l-0.107-0.292l-0.141-0.205l-0.162-0.14l-0.184-0.076l-0.205-0.032l-0.195,0.032l-0.15,0.054l-0.076,0.043
		l-0.043,0.033v-0.13H18.102z"/>
	<path fill="#FFFFFF" d="M22.271,22.177h-1.264v0.065l0.01,0.065l0.012,0.086l0.043,0.097l0.055,0.076l0.086,0.065l0.086,0.043
		l0.086,0.022h0.098l0.088-0.022l0.074-0.043l0.064-0.033l0.033-0.021l0.043-0.033l0.336,0.259l-0.045,0.055l-0.064,0.054
		l-0.119,0.086l-0.172,0.076l-0.174,0.043l-0.182,0.01l-0.207-0.032l-0.205-0.097l-0.184-0.14l-0.129-0.184l-0.107-0.27L20.5,22.08
		l0.033-0.335l0.096-0.27l0.131-0.205l0.172-0.141l0.217-0.097L21.385,21l0.229,0.022l0.227,0.086l0.205,0.173l0.15,0.227
		l0.064,0.248l0.023,0.227l-0.012,0.075v0.044V22.177z M21.773,21.756l-0.01-0.043l-0.021-0.054l-0.043-0.065l-0.055-0.065
		l-0.064-0.043l-0.098-0.043l-0.086-0.011l-0.098,0.011l-0.086,0.043l-0.064,0.043l-0.045,0.065l-0.043,0.065l-0.02,0.054
		l-0.012,0.043l-0.012,0.054h0.768L21.773,21.756z"/>
	<path fill="none" stroke="#007DC5" stroke-width="0.045" d="M22.271,22.177h-1.264v0.065l0.01,0.065l0.012,0.086l0.043,0.097
		l0.055,0.076l0.086,0.065l0.086,0.043l0.086,0.022h0.098l0.088-0.022l0.074-0.043l0.064-0.033l0.033-0.021l0.043-0.033l0.336,0.259
		l-0.045,0.055l-0.064,0.054l-0.119,0.086l-0.172,0.076l-0.174,0.043l-0.182,0.01l-0.207-0.032l-0.205-0.097l-0.184-0.14
		l-0.129-0.184l-0.107-0.27L20.5,22.08l0.033-0.335l0.096-0.27l0.131-0.205l0.172-0.141l0.217-0.097L21.385,21l0.229,0.022
		l0.227,0.086l0.205,0.173l0.15,0.227l0.064,0.248l0.023,0.227l-0.012,0.075v0.044V22.177z M21.773,21.756l-0.01-0.043l-0.021-0.054
		l-0.043-0.065l-0.055-0.065l-0.064-0.043l-0.098-0.043l-0.086-0.011l-0.098,0.011l-0.086,0.043l-0.064,0.043l-0.045,0.065
		l-0.043,0.065l-0.02,0.054l-0.012,0.043l-0.012,0.054h0.768L21.773,21.756z"/>
	<polygon fill="#FFFFFF" points="23.643,20.244 23.643,23.105 23.156,23.105 23.156,20.428 	"/>
	<polygon fill="none" stroke="#007DC5" stroke-width="0.045" points="23.643,20.244 23.643,23.105 23.156,23.105 23.156,20.428 	"/>
	<path fill="#FFFFFF" d="M25.77,20.438l0.498-0.173v2.841H25.77v-0.13l-0.043,0.033l-0.074,0.043L25.5,23.106l-0.193,0.032
		L25.1,23.106l-0.193-0.086l-0.162-0.141l-0.129-0.205l-0.109-0.27l-0.043-0.303l0.033-0.324l0.107-0.281l0.141-0.226l0.174-0.151
		l0.182-0.076l0.195-0.032l0.205,0.032l0.152,0.054l0.064,0.043l0.053,0.043V20.438z M25.77,21.648l-0.031-0.033l-0.055-0.053
		l-0.107-0.044l-0.141-0.032l-0.141,0.021l-0.119,0.065l-0.086,0.087l-0.064,0.118l-0.043,0.152l-0.012,0.162l0.012,0.173
		l0.055,0.151l0.074,0.108l0.098,0.075l0.107,0.043l0.119,0.022l0.129-0.022l0.098-0.053l0.064-0.055l0.043-0.043V21.648z"/>
	<path fill="none" stroke="#007DC5" stroke-width="0.045" d="M25.77,20.438l0.498-0.173v2.841H25.77v-0.13l-0.043,0.033
		l-0.074,0.043L25.5,23.106l-0.193,0.032L25.1,23.106l-0.193-0.086l-0.162-0.141l-0.129-0.205l-0.109-0.27l-0.043-0.303l0.033-0.324
		l0.107-0.281l0.141-0.226l0.174-0.151l0.182-0.076l0.195-0.032l0.205,0.032l0.152,0.054l0.064,0.043l0.053,0.043V20.438z
		 M25.77,21.648l-0.031-0.033l-0.055-0.053l-0.107-0.044l-0.141-0.032l-0.141,0.021l-0.119,0.065l-0.086,0.087l-0.064,0.118
		l-0.043,0.152l-0.012,0.162l0.012,0.173l0.055,0.151l0.074,0.108l0.098,0.075l0.107,0.043l0.119,0.022l0.129-0.022l0.098-0.053
		l0.064-0.055l0.043-0.043V21.648z"/>
	<path fill="#FFFFFF" d="M27.994,23.138l-0.215-0.032l-0.217-0.097l-0.205-0.162l-0.15-0.238l-0.088-0.27l-0.02-0.291l0.031-0.281
		l0.086-0.259l0.141-0.217l0.205-0.162l0.217-0.097L28.006,21l0.227,0.032l0.229,0.097l0.193,0.152l0.141,0.205l0.098,0.27
		l0.031,0.292l-0.031,0.291l-0.088,0.27l-0.15,0.238l-0.205,0.162l-0.227,0.097L27.994,23.138z M28.113,22.674l0.109-0.054
		l0.096-0.097l0.055-0.141l0.031-0.162l0.012-0.183l-0.012-0.173l-0.031-0.151l-0.064-0.119l-0.086-0.086l-0.098-0.055l-0.119-0.01
		l-0.107,0.021l-0.098,0.054l-0.086,0.076l-0.064,0.119l-0.033,0.151l-0.021,0.184l0.01,0.162l0.033,0.162l0.055,0.129l0.086,0.108
		l0.098,0.065l0.117,0.022L28.113,22.674z"/>
	<path fill="none" stroke="#007DC5" stroke-width="0.032" d="M27.994,23.138l-0.215-0.032l-0.217-0.097l-0.205-0.162l-0.15-0.238
		l-0.088-0.27l-0.02-0.291l0.031-0.281l0.086-0.259l0.141-0.217l0.205-0.162l0.217-0.097L28.006,21l0.227,0.032l0.229,0.097
		l0.193,0.152l0.141,0.205l0.098,0.27l0.031,0.292l-0.031,0.291l-0.088,0.27l-0.15,0.238l-0.205,0.162l-0.227,0.097L27.994,23.138z
		 M28.113,22.674l0.109-0.054l0.096-0.097l0.055-0.141l0.031-0.162l0.012-0.183l-0.012-0.173l-0.031-0.151l-0.064-0.119
		l-0.086-0.086l-0.098-0.055l-0.119-0.01l-0.107,0.021l-0.098,0.054l-0.086,0.076l-0.064,0.119l-0.033,0.151l-0.021,0.184
		l0.01,0.162l0.033,0.162l0.055,0.129l0.086,0.108l0.098,0.065l0.117,0.022L28.113,22.674z"/>
	<path fill="#FFFFFF" d="M30.436,23.138l-0.217-0.032l-0.215-0.097l-0.205-0.162l-0.162-0.238l-0.074-0.27l-0.033-0.291l0.043-0.281
		l0.076-0.259l0.15-0.217l0.193-0.162l0.227-0.097L30.447,21l0.227,0.032l0.227,0.097l0.184,0.152l0.152,0.205l0.096,0.27
		l0.033,0.292l-0.033,0.291l-0.086,0.27l-0.152,0.238l-0.203,0.162l-0.229,0.097L30.436,23.138z M30.555,22.674l0.107-0.054
		l0.086-0.097l0.066-0.141l0.031-0.162l0.012-0.183l-0.012-0.173l-0.043-0.151l-0.055-0.119l-0.086-0.086l-0.107-0.055l-0.107-0.01
		l-0.119,0.021l-0.098,0.054l-0.074,0.076l-0.066,0.119l-0.043,0.151l-0.01,0.184l0.01,0.162l0.033,0.162l0.053,0.129l0.086,0.108
		l0.098,0.065l0.119,0.022L30.555,22.674z"/>
	<path fill="none" stroke="#007DC5" stroke-width="0.032" d="M30.436,23.138l-0.217-0.032l-0.215-0.097l-0.205-0.162l-0.162-0.238
		l-0.074-0.27l-0.033-0.291l0.043-0.281l0.076-0.259l0.15-0.217l0.193-0.162l0.227-0.097L30.447,21l0.227,0.032l0.227,0.097
		l0.184,0.152l0.152,0.205l0.096,0.27l0.033,0.292l-0.033,0.291l-0.086,0.27l-0.152,0.238l-0.203,0.162l-0.229,0.097L30.436,23.138z
		 M30.555,22.674l0.107-0.054l0.086-0.097l0.066-0.141l0.031-0.162l0.012-0.183l-0.012-0.173l-0.043-0.151l-0.055-0.119
		l-0.086-0.086l-0.107-0.055l-0.107-0.01l-0.119,0.021l-0.098,0.054l-0.074,0.076l-0.066,0.119l-0.043,0.151l-0.01,0.184l0.01,0.162
		l0.033,0.162l0.053,0.129l0.086,0.108l0.098,0.065l0.119,0.022L30.555,22.674z"/>
	<polygon fill="#FFFFFF" points="32.703,21.021 32.703,21.194 32.736,21.162 32.779,21.129 32.844,21.086 32.941,21.032 
		33.061,21.01 33.168,21 33.275,21 33.363,21.021 33.438,21.053 33.482,21.075 33.525,21.098 33.557,21.118 33.406,21.647 
		33.385,21.615 33.363,21.593 33.309,21.55 33.244,21.519 33.168,21.497 33.094,21.497 33.018,21.507 32.92,21.54 32.822,21.615 
		32.758,21.701 32.715,21.81 32.703,21.928 32.703,23.105 32.207,23.105 32.207,21.021 	"/>
	<polygon fill="none" stroke="#007DC5" stroke-width="0.045" points="32.703,21.021 32.703,21.194 32.736,21.162 32.779,21.129 
		32.844,21.086 32.941,21.032 33.061,21.01 33.168,21 33.275,21 33.363,21.021 33.438,21.053 33.482,21.075 33.525,21.098 
		33.557,21.118 33.406,21.647 33.385,21.615 33.363,21.593 33.309,21.55 33.244,21.519 33.168,21.497 33.094,21.497 33.018,21.507 
		32.92,21.54 32.822,21.615 32.758,21.701 32.715,21.81 32.703,21.928 32.703,23.105 32.207,23.105 32.207,21.021 	"/>
	<polygon fill="#FFFFFF" points="34.723,21.021 34.723,21.172 34.766,21.141 34.82,21.107 34.896,21.064 34.994,21.032 35.102,21 
		35.232,20.988 35.35,21 35.502,21.032 35.664,21.118 35.814,21.249 35.922,21.388 35.988,21.528 36.008,21.69 36.02,21.875 
		36.02,23.116 35.523,23.116 35.523,21.875 35.49,21.724 35.404,21.593 35.275,21.507 35.123,21.475 34.973,21.507 34.842,21.593 
		34.756,21.724 34.723,21.875 34.723,23.116 34.227,23.116 34.227,21.021 	"/>
	<polygon fill="none" stroke="#007DC5" stroke-width="0.045" points="34.723,21.021 34.723,21.172 34.766,21.141 34.82,21.107 
		34.896,21.064 34.994,21.032 35.102,21 35.232,20.988 35.35,21 35.502,21.032 35.664,21.118 35.814,21.249 35.922,21.388 
		35.988,21.528 36.008,21.69 36.02,21.875 36.02,23.116 35.523,23.116 35.523,21.875 35.49,21.724 35.404,21.593 35.275,21.507 
		35.123,21.475 34.973,21.507 34.842,21.593 34.756,21.724 34.723,21.875 34.723,23.116 34.227,23.116 34.227,21.021 	"/>
	<path fill="#FFFFFF" d="M16.18,15.48l1.156,2.776H16.85l-0.291-0.681h-1.221l-0.291,0.681h-0.486l1.176-2.776H16.18z
		 M15.531,17.123h0.842l-0.42-1.004L15.531,17.123z"/>
	<path fill="none" stroke="#007DC5" stroke-width="0.045" d="M16.18,15.48l1.156,2.776H16.85l-0.291-0.681h-1.221l-0.291,0.681
		h-0.486l1.176-2.776H16.18z M15.531,17.123h0.842l-0.42-1.004L15.531,17.123z"/>
	<polygon fill="#FFFFFF" points="18.6,16.161 18.6,16.345 18.631,16.313 18.676,16.27 18.74,16.227 18.838,16.184 18.945,16.15 
		19.063,16.14 19.172,16.15 19.258,16.172 19.334,16.193 19.377,16.227 19.42,16.248 19.453,16.27 19.301,16.788 19.279,16.767 
		19.248,16.733 19.205,16.701 19.139,16.669 19.063,16.647 18.988,16.647 18.912,16.658 18.814,16.69 18.719,16.755 18.652,16.841 
		18.609,16.949 18.6,17.08 18.6,18.256 18.102,18.256 18.102,16.161 	"/>
	<polygon fill="none" stroke="#007DC5" stroke-width="0.045" points="18.6,16.161 18.6,16.345 18.631,16.313 18.676,16.27 
		18.74,16.227 18.838,16.184 18.945,16.15 19.063,16.14 19.172,16.15 19.258,16.172 19.334,16.193 19.377,16.227 19.42,16.248 
		19.453,16.27 19.301,16.788 19.279,16.767 19.248,16.733 19.205,16.701 19.139,16.669 19.063,16.647 18.988,16.647 18.912,16.658 
		18.814,16.69 18.719,16.755 18.652,16.841 18.609,16.949 18.6,17.08 18.6,18.256 18.102,18.256 18.102,16.161 	"/>
	<polygon fill="#FFFFFF" points="20.619,16.161 20.619,16.323 20.662,16.28 20.715,16.248 20.791,16.215 20.889,16.172 
		20.996,16.15 21.127,16.14 21.244,16.14 21.396,16.184 21.559,16.258 21.709,16.388 21.818,16.528 21.883,16.679 21.904,16.841 
		21.914,17.015 21.914,18.256 21.418,18.256 21.418,17.015 21.387,16.863 21.299,16.733 21.17,16.647 21.02,16.625 20.867,16.647 
		20.738,16.733 20.65,16.875 20.619,17.025 20.619,18.256 20.121,18.256 20.121,16.161 	"/>
	<polygon fill="none" stroke="#007DC5" stroke-width="0.045" points="20.619,16.161 20.619,16.323 20.662,16.28 20.715,16.248 
		20.791,16.215 20.889,16.172 20.996,16.15 21.127,16.14 21.244,16.14 21.396,16.184 21.559,16.258 21.709,16.388 21.818,16.528 
		21.883,16.679 21.904,16.841 21.914,17.015 21.914,18.256 21.418,18.256 21.418,17.015 21.387,16.863 21.299,16.733 21.17,16.647 
		21.02,16.625 20.867,16.647 20.738,16.733 20.65,16.875 20.619,17.025 20.619,18.256 20.121,18.256 20.121,16.161 	"/>
	<polygon fill="#FFFFFF" points="22.984,15.481 23.492,15.481 23.492,16.507 23.514,16.475 23.547,16.442 23.6,16.377 
		23.686,16.313 23.773,16.248 23.869,16.204 23.967,16.183 24.064,16.172 24.16,16.172 24.27,16.194 24.377,16.226 24.484,16.28 
		24.594,16.366 24.68,16.485 24.744,16.604 24.777,16.723 24.799,16.853 24.799,17.015 24.799,18.256 24.291,18.256 24.291,17.123 
		24.291,17.004 24.27,16.907 24.236,16.809 24.193,16.734 24.129,16.68 24.064,16.637 23.988,16.626 23.902,16.615 23.805,16.626 
		23.719,16.669 23.643,16.723 23.578,16.788 23.523,16.885 23.502,16.972 23.492,17.069 23.492,17.187 23.492,18.256 22.984,18.256 
			"/>
	<polygon fill="none" stroke="#007DC5" stroke-width="0.045" points="22.984,15.481 23.492,15.481 23.492,16.507 23.514,16.475 
		23.547,16.442 23.6,16.377 23.686,16.313 23.773,16.248 23.869,16.204 23.967,16.183 24.064,16.172 24.16,16.172 24.27,16.194 
		24.377,16.226 24.484,16.28 24.594,16.366 24.68,16.485 24.744,16.604 24.777,16.723 24.799,16.853 24.799,17.015 24.799,18.256 
		24.291,18.256 24.291,17.123 24.291,17.004 24.27,16.907 24.236,16.809 24.193,16.734 24.129,16.68 24.064,16.637 23.988,16.626 
		23.902,16.615 23.805,16.626 23.719,16.669 23.643,16.723 23.578,16.788 23.523,16.885 23.502,16.972 23.492,17.069 23.492,17.187 
		23.492,18.256 22.984,18.256 	"/>
	<path fill="#FFFFFF" d="M26.904,16.95h-0.756l0.012-0.054l0.01-0.044l0.021-0.054l0.033-0.064l0.053-0.054l0.066-0.054l0.074-0.044
		l0.098-0.011l0.098,0.011l0.086,0.044l0.076,0.054l0.055,0.054l0.031,0.064l0.031,0.054l0.012,0.054V16.95z M27.4,17.252v-0.054
		v-0.075l-0.01-0.217l-0.076-0.259l-0.141-0.227l-0.205-0.161l-0.227-0.098l-0.227-0.021l-0.238,0.043l-0.215,0.086l-0.174,0.151
		l-0.139,0.195l-0.088,0.281l-0.031,0.324l0.031,0.324l0.098,0.27l0.141,0.194l0.172,0.14l0.205,0.087l0.205,0.043l0.195-0.022
		l0.172-0.043l0.174-0.075l0.119-0.076l0.064-0.065l0.043-0.043l-0.334-0.27l-0.043,0.032l-0.043,0.033l-0.055,0.032l-0.076,0.033
		l-0.098,0.021l-0.086,0.011l-0.086-0.022l-0.098-0.043l-0.076-0.075l-0.053-0.076l-0.043-0.097l-0.023-0.086v-0.065v-0.054H27.4
		V17.252z"/>
	<path fill="none" stroke="#007DC5" stroke-width="0.045" d="M26.904,16.95h-0.756l0.012-0.054l0.01-0.044l0.021-0.054l0.033-0.064
		l0.053-0.054l0.066-0.054l0.074-0.044l0.098-0.011l0.098,0.011l0.086,0.044l0.076,0.054l0.055,0.054l0.031,0.064l0.031,0.054
		l0.012,0.054V16.95z M27.4,17.252v-0.054v-0.075l-0.01-0.217l-0.076-0.259l-0.141-0.227l-0.205-0.161l-0.227-0.098l-0.227-0.021
		l-0.238,0.043l-0.215,0.086l-0.174,0.151l-0.139,0.195l-0.088,0.281l-0.031,0.324l0.031,0.324l0.098,0.27l0.141,0.194l0.172,0.14
		l0.205,0.087l0.205,0.043l0.195-0.022l0.172-0.043l0.174-0.075l0.119-0.076l0.064-0.065l0.043-0.043l-0.334-0.27l-0.043,0.032
		l-0.043,0.033l-0.055,0.032l-0.076,0.033l-0.098,0.021l-0.086,0.011l-0.086-0.022l-0.098-0.043l-0.076-0.075l-0.053-0.076
		l-0.043-0.097l-0.023-0.086v-0.065v-0.054H27.4V17.252z"/>
	<polygon fill="#FFFFFF" points="28.783,16.161 28.783,16.345 28.826,16.313 28.869,16.27 28.945,16.227 29.064,16.184 
		29.193,16.15 29.324,16.14 29.486,16.161 29.637,16.215 29.756,16.28 29.832,16.345 29.885,16.388 29.918,16.42 29.951,16.388 
		30.004,16.334 30.102,16.258 30.23,16.193 30.371,16.161 30.533,16.15 30.729,16.172 30.922,16.258 31.084,16.388 31.203,16.55 
		31.268,16.755 31.301,16.982 31.301,18.256 30.793,18.256 30.793,17.003 30.76,16.863 30.686,16.744 30.566,16.669 30.414,16.636 
		30.275,16.669 30.156,16.744 30.08,16.875 30.047,17.015 30.047,18.256 29.539,18.256 29.539,17.003 29.52,16.863 29.432,16.744 
		29.324,16.658 29.172,16.625 29.031,16.658 28.902,16.733 28.816,16.853 28.783,17.003 28.783,18.256 28.287,18.256 28.287,16.161 
			"/>
	<polygon fill="none" stroke="#007DC5" stroke-width="0.045" points="28.783,16.161 28.783,16.345 28.826,16.313 28.869,16.27 
		28.945,16.227 29.064,16.184 29.193,16.15 29.324,16.14 29.486,16.161 29.637,16.215 29.756,16.28 29.832,16.345 29.885,16.388 
		29.918,16.42 29.951,16.388 30.004,16.334 30.102,16.258 30.23,16.193 30.371,16.161 30.533,16.15 30.729,16.172 30.922,16.258 
		31.084,16.388 31.203,16.55 31.268,16.755 31.301,16.982 31.301,18.256 30.793,18.256 30.793,17.003 30.76,16.863 30.686,16.744 
		30.566,16.669 30.414,16.636 30.275,16.669 30.156,16.744 30.08,16.875 30.047,17.015 30.047,18.256 29.539,18.256 29.539,17.003 
		29.52,16.863 29.432,16.744 29.324,16.658 29.172,16.625 29.031,16.658 28.902,16.733 28.816,16.853 28.783,17.003 28.783,18.256 
		28.287,18.256 28.287,16.161 	"/>
	<path fill="#FFFFFF" d="M15.836,13.116l-0.143-0.033l-0.119-0.075L15.5,12.889l-0.021-0.14v-0.497v-0.421v-0.367v-0.292V11.01
		v-0.205v-0.26v-0.302V9.887v-0.4V9.033V8.526l0.021-0.14l0.074-0.119l0.119-0.076l0.143-0.032h14.223l0.139,0.032l0.119,0.076
		l0.076,0.119l0.033,0.14v4.223l-0.033,0.14l-0.076,0.119l-0.119,0.075l-0.139,0.033H15.836z M30.059,13.386l0.248-0.043
		l0.205-0.141l0.141-0.205l0.043-0.248V8.526l-0.043-0.238l-0.141-0.216l-0.205-0.14l-0.248-0.043H15.836l-0.238,0.043l-0.205,0.14
		l-0.141,0.216l-0.055,0.238v0.507v0.454v0.4v0.356v0.302v0.26v0.205v0.162v0.292v0.367v0.421v0.497l0.055,0.248l0.141,0.205
		l0.205,0.141l0.238,0.043H30.059z"/>
	<polygon fill="#FFFFFF" points="17.434,9.411 17.434,11.863 17.033,11.863 17.033,9.983 16.699,9.983 16.699,9.659 16.752,9.649 
		16.795,9.638 16.861,9.605 16.936,9.563 16.99,9.52 17.033,9.477 17.066,9.443 17.086,9.411 	"/>
	<polygon fill="none" stroke="#007DC5" stroke-width="0.045" points="17.434,9.411 17.434,11.863 17.033,11.863 17.033,9.983 
		16.699,9.983 16.699,9.659 16.752,9.649 16.795,9.638 16.861,9.605 16.936,9.563 16.99,9.52 17.033,9.477 17.066,9.443 
		17.086,9.411 	"/>
	<polygon fill="#FFFFFF" points="19.971,11.453 19.971,11.862 17.994,11.862 17.994,11.776 18.004,11.658 18.049,11.453 
		18.146,11.214 18.254,11.031 18.383,10.87 18.557,10.708 18.762,10.578 18.945,10.502 19.141,10.438 19.27,10.404 19.355,10.383 
		19.42,10.351 19.484,10.308 19.527,10.253 19.561,10.179 19.57,10.103 19.549,10.017 19.518,9.952 19.441,9.875 19.334,9.821 
		19.172,9.778 18.977,9.768 18.805,9.778 18.652,9.821 18.49,9.875 18.373,9.952 18.309,10.005 18.254,10.048 17.994,9.756 
		18.049,9.703 18.113,9.649 18.266,9.563 18.471,9.465 18.707,9.4 18.967,9.378 19.215,9.39 19.463,9.455 19.68,9.563 19.84,9.713 
		19.939,9.897 19.971,10.091 19.949,10.265 19.895,10.404 19.82,10.535 19.723,10.631 19.594,10.708 19.41,10.772 19.248,10.827 
		19.064,10.88 18.945,10.923 18.826,11 18.697,11.106 18.588,11.236 18.523,11.333 18.502,11.398 18.471,11.453 	"/>
	<polygon fill="none" stroke="#007DC5" stroke-width="0.045" points="19.971,11.453 19.971,11.862 17.994,11.862 17.994,11.776 
		18.004,11.658 18.049,11.453 18.146,11.214 18.254,11.031 18.383,10.87 18.557,10.708 18.762,10.578 18.945,10.502 19.141,10.438 
		19.27,10.404 19.355,10.383 19.42,10.351 19.484,10.308 19.527,10.253 19.561,10.179 19.57,10.103 19.549,10.017 19.518,9.952 
		19.441,9.875 19.334,9.821 19.172,9.778 18.977,9.768 18.805,9.778 18.652,9.821 18.49,9.875 18.373,9.952 18.309,10.005 
		18.254,10.048 17.994,9.756 18.049,9.703 18.113,9.649 18.266,9.563 18.471,9.465 18.707,9.4 18.967,9.378 19.215,9.39 
		19.463,9.455 19.68,9.563 19.84,9.713 19.939,9.897 19.971,10.091 19.949,10.265 19.895,10.404 19.82,10.535 19.723,10.631 
		19.594,10.708 19.41,10.772 19.248,10.827 19.064,10.88 18.945,10.923 18.826,11 18.697,11.106 18.588,11.236 18.523,11.333 
		18.502,11.398 18.471,11.453 	"/>
	<path fill="#FFFFFF" d="M22.443,10.653l-0.031,0.335l-0.076,0.281l-0.098,0.205l-0.129,0.162l-0.152,0.119l-0.172,0.086
		l-0.184,0.054l-0.195,0.011l-0.182-0.011l-0.174-0.054l-0.174-0.086l-0.139-0.119l-0.131-0.151L20.5,11.279l-0.074-0.291
		l-0.033-0.335l0.033-0.324l0.063-0.259l0.098-0.205l0.109-0.151l0.139-0.13l0.174-0.097l0.205-0.076L21.43,9.39l0.205,0.021
		l0.193,0.065l0.184,0.108l0.141,0.13l0.109,0.151l0.096,0.216l0.066,0.27L22.443,10.653z M22.023,10.394l-0.055-0.205l-0.064-0.151
		L21.818,9.94L21.73,9.876l-0.086-0.054L21.537,9.8l-0.131-0.011l-0.139,0.022l-0.119,0.043l-0.066,0.043l-0.074,0.065l-0.076,0.086
		l-0.064,0.141l-0.043,0.205l-0.021,0.248l0.01,0.249l0.045,0.194l0.063,0.13l0.066,0.097l0.096,0.086l0.098,0.065l0.109,0.033
		l0.117,0.01l0.143-0.01l0.117-0.033l0.109-0.065l0.086-0.086l0.064-0.097l0.055-0.13l0.043-0.183l0.021-0.249L22.023,10.394z"/>
	<path fill="none" stroke="#007DC5" stroke-width="0.045" d="M22.443,10.653l-0.031,0.335l-0.076,0.281l-0.098,0.205l-0.129,0.162
		l-0.152,0.119l-0.172,0.086l-0.184,0.054l-0.195,0.011l-0.182-0.011l-0.174-0.054l-0.174-0.086l-0.139-0.119l-0.131-0.151
		L20.5,11.279l-0.074-0.291l-0.033-0.335l0.033-0.324l0.063-0.259l0.098-0.205l0.109-0.151l0.139-0.13l0.174-0.097l0.205-0.076
		L21.43,9.39l0.205,0.021l0.193,0.065l0.184,0.108l0.141,0.13l0.109,0.151l0.096,0.216l0.066,0.27L22.443,10.653z M22.023,10.394
		l-0.055-0.205l-0.064-0.151L21.818,9.94L21.73,9.876l-0.086-0.054L21.537,9.8l-0.131-0.011l-0.139,0.022l-0.119,0.043l-0.066,0.043
		l-0.074,0.065l-0.076,0.086l-0.064,0.141l-0.043,0.205l-0.021,0.248l0.01,0.249l0.045,0.194l0.063,0.13l0.066,0.097l0.096,0.086
		l0.098,0.065l0.109,0.033l0.117,0.01l0.143-0.01l0.117-0.033l0.109-0.065l0.086-0.086l0.064-0.097l0.055-0.13l0.043-0.183
		l0.021-0.249L22.023,10.394z"/>
	<path fill="#FFFFFF" d="M24.961,10.653l-0.033,0.335l-0.076,0.281l-0.107,0.205l-0.129,0.162l-0.152,0.119l-0.162,0.086
		l-0.193,0.054l-0.195,0.011l-0.184-0.011l-0.172-0.054l-0.162-0.086l-0.15-0.119l-0.119-0.151l-0.109-0.206l-0.076-0.291
		l-0.031-0.335l0.031-0.324l0.066-0.259l0.086-0.205l0.119-0.151l0.141-0.13l0.172-0.097l0.205-0.076l0.217-0.021l0.193,0.021
		l0.205,0.065l0.174,0.108l0.15,0.13l0.107,0.151l0.088,0.216l0.064,0.27L24.961,10.653z M24.539,10.394l-0.055-0.205l-0.064-0.151
		L24.334,9.94l-0.086-0.064L24.15,9.822L24.043,9.8l-0.119-0.011l-0.141,0.022l-0.119,0.043l-0.076,0.043l-0.064,0.065l-0.074,0.086
		l-0.066,0.141l-0.053,0.205l-0.021,0.248l0.021,0.249l0.043,0.194l0.053,0.13l0.076,0.097l0.086,0.086l0.109,0.065l0.107,0.033
		l0.119,0.01l0.141-0.01l0.117-0.033l0.1-0.065l0.096-0.086l0.064-0.097l0.055-0.13l0.043-0.183l0.012-0.249L24.539,10.394z"/>
	<path fill="none" stroke="#007DC5" stroke-width="0.045" d="M24.961,10.653l-0.033,0.335l-0.076,0.281l-0.107,0.205l-0.129,0.162
		l-0.152,0.119l-0.162,0.086l-0.193,0.054l-0.195,0.011l-0.184-0.011l-0.172-0.054l-0.162-0.086l-0.15-0.119l-0.119-0.151
		l-0.109-0.206l-0.076-0.291l-0.031-0.335l0.031-0.324l0.066-0.259l0.086-0.205l0.119-0.151l0.141-0.13l0.172-0.097l0.205-0.076
		l0.217-0.021l0.193,0.021l0.205,0.065l0.174,0.108l0.15,0.13l0.107,0.151l0.088,0.216l0.064,0.27L24.961,10.653z M24.539,10.394
		l-0.055-0.205l-0.064-0.151L24.334,9.94l-0.086-0.064L24.15,9.822L24.043,9.8l-0.119-0.011l-0.141,0.022l-0.119,0.043l-0.076,0.043
		l-0.064,0.065l-0.074,0.086l-0.066,0.141l-0.053,0.205l-0.021,0.248l0.021,0.249l0.043,0.194l0.053,0.13l0.076,0.097l0.086,0.086
		l0.109,0.065l0.107,0.033l0.119,0.01l0.141-0.01l0.117-0.033l0.1-0.065l0.096-0.086l0.064-0.097l0.055-0.13l0.043-0.183
		l0.012-0.249L24.539,10.394z"/>
	<rect fill="none" width="89.102" height="44"/>
</g>
<g id="Layer_2">
</g>
</svg>
