<?xml version="1.0" encoding="utf-8"?>
<!-- Generator: Adobe Illustrator 16.0.0, SVG Export Plug-In . SVG Version: 6.00 Build 0)  -->
<!DOCTYPE svg PUBLIC "-//W3C//DTD SVG 1.1//EN" "http://www.w3.org/Graphics/SVG/1.1/DTD/svg11.dtd">
<svg version="1.1" xmlns="http://www.w3.org/2000/svg" xmlns:xlink="http://www.w3.org/1999/xlink" x="0px" y="0px"
	 width="33.912px" height="29.612px" viewBox="0 0 33.912 29.612" enable-background="new 0 0 33.912 29.612" xml:space="preserve">
<g id="Layer_15">
</g>
<g id="Layer_14">
</g>
<g id="Layer_13">
</g>
<g id="Layer_12">
</g>
<g id="Layer_11">
</g>
<g id="Layer_10">
</g>
<g id="Layer_9">
</g>
<g id="Layer_8">
</g>
<g id="Layer_7">
</g>
<g id="Layer_6">
</g>
<g id="Layer_5">
</g>
<g id="Layer_4">
	<rect x="0.075" y="0.075" fill="#007DC5" width="33.761" height="29.462"/>
	<rect x="0.075" y="0.075" fill="none" stroke="#007DC5" stroke-width="0.15" width="33.761" height="29.462"/>
	<path fill="#FFFFFF" d="M32.897,1.016l0.27,0.324l0.205,0.367l0.119,0.399l0.043,0.422v24.559l-0.043,0.421l-0.119,0.399
		l-0.205,0.368l-0.27,0.324l-0.313,0.27l-0.378,0.205l-0.4,0.118l-0.421,0.044H2.527l-0.421-0.044l-0.4-0.118l-0.378-0.205
		l-0.313-0.27l-0.27-0.324L0.54,27.906l-0.119-0.399l-0.043-0.421V2.527l0.043-0.422L0.54,1.707l0.205-0.367l0.27-0.324l0.313-0.27
		L1.706,0.54l0.4-0.118l0.421-0.044h28.858l0.421,0.044l0.4,0.118l0.378,0.206L32.897,1.016z M32.303,1.155l-0.281-0.162
		l-0.313-0.086l-0.324-0.033H2.527L2.203,0.907L1.89,0.993L1.609,1.155L1.361,1.36L1.156,1.609L0.994,1.89L0.907,2.204L0.875,2.527
		v24.559l0.032,0.324l0.087,0.313l0.162,0.281l0.205,0.248l0.248,0.205L1.89,28.62l0.313,0.086l0.324,0.033h28.858l0.324-0.033
		l0.313-0.086l0.281-0.162l0.248-0.205l0.205-0.248l0.163-0.281l0.086-0.313l0.032-0.324V2.527l-0.032-0.324L32.919,1.89
		l-0.163-0.28L32.551,1.36L32.303,1.155z"/>
	<polygon fill="#FFFFFF" points="31.817,2.095 31.849,2.138 31.882,2.192 31.903,2.246 31.903,2.3 31.903,2.354 31.061,6.944 
		31.018,7.052 30.942,7.128 30.834,7.171 30.715,7.171 30.607,7.128 30.532,7.041 29.527,5.432 26.244,9.018 24.894,7.668 
		28.479,4.385 26.87,3.38 26.784,3.305 26.741,3.197 26.741,3.078 26.773,2.97 26.86,2.894 26.968,2.851 31.547,2.009 31.612,2.009 
		31.666,2.009 31.72,2.03 31.774,2.052 	"/>
	<path fill="#FFFFFF" d="M3.65,10.778h0.68h0.745h0.821h0.886l0.464,0.043l0.454,0.14l0.41,0.216l0.367,0.303l0.292,0.356
		l0.227,0.411L9.125,12.7l0.054,0.465l-0.054,0.464l-0.129,0.454l-0.227,0.41L8.478,14.86L8.11,15.163l-0.41,0.216l-0.454,0.14
		l-0.464,0.043H4.946V18.5H3.65V10.778z M4.946,12.063v2.203h1.836l0.216-0.011l0.205-0.064l0.356-0.249l0.249-0.356l0.054-0.205
		l0.021-0.216l-0.021-0.216l-0.054-0.206L7.56,12.387l-0.356-0.238l-0.205-0.064l-0.216-0.022H4.946z"/>
	<polygon fill="#FFFFFF" points="11.977,11.264 12.02,11.08 12.128,10.918 12.29,10.81 12.474,10.767 19.224,10.767 19.407,10.81 
		19.569,10.918 19.677,11.08 19.71,11.264 19.71,18.014 19.677,18.198 19.569,18.359 19.407,18.468 19.224,18.5 12.474,18.5 
		12.29,18.468 12.128,18.359 12.02,18.198 11.977,18.014 	"/>
	<polygon fill="#FFFFFF" points="22.507,11.264 22.539,11.08 22.647,10.918 22.809,10.81 22.993,10.767 29.743,10.767 29.937,10.81 
		30.089,10.918 30.197,11.08 30.24,11.264 30.24,18.014 30.197,18.198 30.089,18.359 29.937,18.468 29.743,18.5 22.993,18.5 
		22.809,18.468 22.647,18.359 22.539,18.198 22.507,18.014 	"/>
	<polygon fill="#FFFFFF" points="3.65,21.373 3.682,21.21 3.78,21.07 3.92,20.983 4.082,20.952 29.829,20.952 29.991,20.983 
		30.132,21.07 30.229,21.21 30.261,21.373 30.261,25.67 30.229,25.833 30.132,25.974 29.991,26.071 29.829,26.103 4.082,26.103 
		3.92,26.071 3.78,25.974 3.682,25.833 3.65,25.67 	"/>
	<polygon points="26.319,21.934 26.319,23.403 26.871,22.787 27.681,22.787 27.053,23.5 27.647,25.001 27,25.001 26.601,24.019 
		26.319,24.331 26.319,25.001 25.714,25.001 25.714,22.161 	"/>
	<polygon fill="none" stroke="#FFFFFF" stroke-width="0.045" points="26.319,21.934 26.319,23.403 26.871,22.787 27.681,22.787 
		27.053,23.5 27.647,25.001 27,25.001 26.601,24.019 26.319,24.331 26.319,25.001 25.714,25.001 25.714,22.161 	"/>
	<polygon points="24.224,22.788 24.224,22.917 24.267,22.884 24.31,22.863 24.365,22.831 24.451,22.798 24.537,22.788 
		24.645,22.776 24.753,22.776 24.861,22.798 24.958,22.831 25.012,22.863 25.056,22.896 25.099,22.917 24.904,23.586 24.883,23.554 
		24.861,23.521 24.807,23.468 24.742,23.424 24.667,23.393 24.58,23.381 24.494,23.393 24.408,23.424 24.332,23.489 24.267,23.565 
		24.235,23.663 24.224,23.771 24.224,25.001 23.608,25.001 23.608,22.788 	"/>
	<polygon fill="none" stroke="#FFFFFF" stroke-width="0.045" points="24.224,22.788 24.224,22.917 24.267,22.884 24.31,22.863 
		24.365,22.831 24.451,22.798 24.537,22.788 24.645,22.776 24.753,22.776 24.861,22.798 24.958,22.831 25.012,22.863 25.056,22.896 
		25.099,22.917 24.904,23.586 24.883,23.554 24.861,23.521 24.807,23.468 24.742,23.424 24.667,23.393 24.58,23.381 24.494,23.393 
		24.408,23.424 24.332,23.489 24.267,23.565 24.235,23.663 24.224,23.771 24.224,25.001 23.608,25.001 23.608,22.788 	"/>
	<path d="M22.572,23.641v1.361h-0.605v-0.076l-0.065,0.022l-0.064,0.021l-0.108,0.022l-0.098,0.022l-0.086,0.01h-0.108l-0.141-0.01
		l-0.14-0.044l-0.13-0.065l-0.118-0.097l-0.097-0.108l-0.065-0.129l-0.043-0.152l-0.022-0.151l0.022-0.151l0.043-0.14l0.075-0.151
		l0.119-0.119l0.141-0.097l0.162-0.065l0.183-0.043l0.151-0.011h0.119l0.086,0.011l0.065,0.021l0.054,0.022l0.033,0.01l0.032,0.011
		v-0.021v-0.043l-0.011-0.044l-0.021-0.054l-0.044-0.043l-0.064-0.032l-0.076-0.022l-0.086-0.011H21.6l-0.076,0.011l-0.097,0.022
		l-0.108,0.032l-0.097,0.043l-0.065,0.033l-0.032,0.021l-0.043,0.022l-0.249-0.432l0.043-0.032l0.076-0.044l0.14-0.065l0.195-0.075
		l0.205-0.043l0.194-0.011l0.184,0.011l0.173,0.032l0.173,0.065l0.151,0.119l0.108,0.129l0.065,0.141l0.021,0.162L22.572,23.641z
		 M21.924,24.062l-0.043-0.022l-0.054-0.021l-0.065-0.021l-0.076-0.011l-0.097-0.01l-0.097,0.01l-0.086,0.033l-0.065,0.043
		l-0.044,0.054l-0.01,0.065l-0.011,0.065l0.011,0.054l0.021,0.065l0.044,0.053l0.064,0.044l0.087,0.032l0.086,0.011l0.097-0.011
		l0.076-0.011l0.076-0.032l0.043-0.022l0.043-0.021l0.043-0.022v-0.302L21.924,24.062z"/>
	<path fill="none" stroke="#FFFFFF" stroke-width="0.045" d="M22.572,23.641v1.361h-0.605v-0.076l-0.065,0.022l-0.064,0.021
		l-0.108,0.022l-0.098,0.022l-0.086,0.01h-0.108l-0.141-0.01l-0.14-0.044l-0.13-0.065l-0.118-0.097l-0.097-0.108l-0.065-0.129
		l-0.043-0.152l-0.022-0.151l0.022-0.151l0.043-0.14l0.075-0.151l0.119-0.119l0.141-0.097l0.162-0.065l0.183-0.043l0.151-0.011
		h0.119l0.086,0.011l0.065,0.021l0.054,0.022l0.033,0.01l0.032,0.011v-0.021v-0.043l-0.011-0.044l-0.021-0.054l-0.044-0.043
		l-0.064-0.032l-0.076-0.022l-0.086-0.011H21.6l-0.076,0.011l-0.097,0.022l-0.108,0.032l-0.097,0.043l-0.065,0.033l-0.032,0.021
		l-0.043,0.022l-0.249-0.432l0.043-0.032l0.076-0.044l0.14-0.065l0.195-0.075l0.205-0.043l0.194-0.011l0.184,0.011l0.173,0.032
		l0.173,0.065l0.151,0.119l0.108,0.129l0.065,0.141l0.021,0.162L22.572,23.641z M21.924,24.062l-0.043-0.022l-0.054-0.021
		l-0.065-0.021l-0.076-0.011l-0.097-0.01l-0.097,0.01l-0.086,0.033l-0.065,0.043l-0.044,0.054l-0.01,0.065l-0.011,0.065l0.011,0.054
		l0.021,0.065l0.044,0.053l0.064,0.044l0.087,0.032l0.086,0.011l0.097-0.011l0.076-0.011l0.076-0.032l0.043-0.022l0.043-0.021
		l0.043-0.022v-0.302L21.924,24.062z"/>
	<polygon points="17.334,22.788 17.334,22.906 17.377,22.884 17.431,22.853 17.507,22.82 17.604,22.788 17.712,22.766 17.82,22.755 
		17.96,22.766 18.101,22.81 18.23,22.863 18.328,22.928 18.382,22.971 18.436,23.015 18.468,22.981 18.522,22.938 18.619,22.863 
		18.749,22.81 18.9,22.766 19.073,22.755 19.267,22.776 19.462,22.853 19.645,22.981 19.775,23.166 19.861,23.393 19.894,23.673 
		19.894,25.001 19.289,25.001 19.289,23.706 19.256,23.565 19.191,23.458 19.084,23.381 18.954,23.35 18.824,23.381 18.716,23.458 
		18.641,23.565 18.619,23.706 18.619,25.001 18.004,25.001 18.004,23.706 17.982,23.576 17.906,23.458 17.809,23.381 17.68,23.359 
		17.55,23.381 17.442,23.458 17.366,23.565 17.334,23.706 17.334,25.001 16.729,25.001 16.729,22.788 	"/>
	<polygon fill="none" stroke="#FFFFFF" stroke-width="0.045" points="17.334,22.788 17.334,22.906 17.377,22.884 17.431,22.853 
		17.507,22.82 17.604,22.788 17.712,22.766 17.82,22.755 17.96,22.766 18.101,22.81 18.23,22.863 18.328,22.928 18.382,22.971 
		18.436,23.015 18.468,22.981 18.522,22.938 18.619,22.863 18.749,22.81 18.9,22.766 19.073,22.755 19.267,22.776 19.462,22.853 
		19.645,22.981 19.775,23.166 19.861,23.393 19.894,23.673 19.894,25.001 19.289,25.001 19.289,23.706 19.256,23.565 19.191,23.458 
		19.084,23.381 18.954,23.35 18.824,23.381 18.716,23.458 18.641,23.565 18.619,23.706 18.619,25.001 18.004,25.001 18.004,23.706 
		17.982,23.576 17.906,23.458 17.809,23.381 17.68,23.359 17.55,23.381 17.442,23.458 17.366,23.565 17.334,23.706 17.334,25.001 
		16.729,25.001 16.729,22.788 	"/>
	<polygon points="15.239,22.788 15.239,22.917 15.282,22.884 15.325,22.863 15.39,22.831 15.466,22.798 15.563,22.788 15.66,22.776 
		15.768,22.776 15.875,22.798 15.973,22.831 16.038,22.863 16.081,22.896 16.114,22.917 15.918,23.586 15.897,23.554 15.875,23.521 
		15.833,23.468 15.768,23.424 15.693,23.393 15.595,23.381 15.509,23.393 15.423,23.424 15.347,23.489 15.292,23.565 15.25,23.663 
		15.239,23.771 15.239,25.001 14.623,25.001 14.623,22.788 	"/>
	<polygon fill="none" stroke="#FFFFFF" stroke-width="0.045" points="15.239,22.788 15.239,22.917 15.282,22.884 15.325,22.863 
		15.39,22.831 15.466,22.798 15.563,22.788 15.66,22.776 15.768,22.776 15.875,22.798 15.973,22.831 16.038,22.863 16.081,22.896 
		16.114,22.917 15.918,23.586 15.897,23.554 15.875,23.521 15.833,23.468 15.768,23.424 15.693,23.393 15.595,23.381 15.509,23.393 
		15.423,23.424 15.347,23.489 15.292,23.565 15.25,23.663 15.239,23.771 15.239,25.001 14.623,25.001 14.623,22.788 	"/>
	<path d="M13.144,23.576h-0.637l0.01-0.044l0.011-0.032l0.022-0.043l0.032-0.054l0.043-0.033l0.054-0.032l0.076-0.032l0.076-0.011
		l0.064,0.011l0.065,0.021l0.054,0.033l0.054,0.043l0.033,0.054l0.021,0.043l0.011,0.032L13.144,23.576z M13.781,23.997v-0.054
		v-0.076l-0.011-0.14l-0.032-0.195l-0.054-0.183l-0.087-0.173l-0.118-0.151l-0.152-0.119l-0.162-0.076l-0.172-0.054l-0.173-0.01
		l-0.162,0.021l-0.162,0.033l-0.151,0.075l-0.141,0.108l-0.14,0.151l-0.108,0.206l-0.065,0.259l-0.022,0.27l0.022,0.259l0.065,0.238
		l0.086,0.194l0.13,0.151l0.151,0.13l0.162,0.086l0.173,0.054l0.162,0.022l0.162-0.011l0.151-0.043l0.14-0.054l0.119-0.065
		l0.108-0.075l0.076-0.055l0.032-0.043l0.033-0.043l-0.432-0.335l-0.022,0.033l-0.032,0.032l-0.054,0.043l-0.076,0.043l-0.097,0.033
		h-0.087l-0.086-0.011l-0.065-0.032l-0.065-0.054l-0.053-0.076l-0.055-0.086l-0.021-0.076v-0.054v-0.043h1.274L13.781,23.997z"/>
	<path fill="none" stroke="#FFFFFF" stroke-width="0.045" d="M13.144,23.576h-0.637l0.01-0.044l0.011-0.032l0.022-0.043l0.032-0.054
		l0.043-0.033l0.054-0.032l0.076-0.032l0.076-0.011l0.064,0.011l0.065,0.021l0.054,0.033l0.054,0.043l0.033,0.054l0.021,0.043
		l0.011,0.032L13.144,23.576z M13.781,23.997v-0.054v-0.076l-0.011-0.14l-0.032-0.195l-0.054-0.183l-0.087-0.173l-0.118-0.151
		l-0.152-0.119l-0.162-0.076l-0.172-0.054l-0.173-0.01l-0.162,0.021l-0.162,0.033l-0.151,0.075l-0.141,0.108l-0.14,0.151
		l-0.108,0.206l-0.065,0.259l-0.022,0.27l0.022,0.259l0.065,0.238l0.086,0.194l0.13,0.151l0.151,0.13l0.162,0.086l0.173,0.054
		l0.162,0.022l0.162-0.011l0.151-0.043l0.14-0.054l0.119-0.065l0.108-0.075l0.076-0.055l0.032-0.043l0.033-0.043l-0.432-0.335
		l-0.022,0.033l-0.032,0.032l-0.054,0.043l-0.076,0.043l-0.097,0.033h-0.087l-0.086-0.011l-0.065-0.032l-0.065-0.054l-0.053-0.076
		l-0.055-0.086l-0.021-0.076v-0.054v-0.043h1.274L13.781,23.997z"/>
	<path d="M10.703,23.9l-0.011,0.129l-0.011,0.13l-0.032,0.108l-0.044,0.075l-0.043,0.065l-0.075,0.043l-0.076,0.033h-0.086
		l-0.076-0.011l-0.076-0.022l-0.064-0.054l-0.044-0.065l-0.043-0.075l-0.021-0.097l-0.022-0.119L9.968,23.9l0.011-0.141l0.032-0.129
		l0.033-0.108l0.043-0.065l0.043-0.054l0.065-0.043l0.076-0.022l0.075-0.011l0.065,0.011l0.076,0.022l0.065,0.043l0.043,0.054
		l0.043,0.086l0.032,0.097l0.022,0.13L10.703,23.9z M11.275,23.608l-0.076-0.248l-0.097-0.173l-0.119-0.151l-0.162-0.13
		l-0.172-0.076l-0.162-0.043l-0.162-0.011l-0.141,0.022l-0.162,0.032l-0.173,0.087l-0.162,0.119l-0.118,0.14L9.471,23.36
		l-0.075,0.248L9.363,23.91l0.033,0.292l0.075,0.259l0.098,0.173l0.129,0.14l0.151,0.119l0.162,0.076l0.173,0.054l0.162,0.011
		l0.162-0.011l0.162-0.043l0.162-0.076l0.141-0.119l0.129-0.162l0.108-0.205l0.076-0.248l0.021-0.27L11.275,23.608z"/>
	<path fill="none" stroke="#FFFFFF" stroke-width="0.045" d="M10.703,23.9l-0.011,0.129l-0.011,0.13l-0.032,0.108l-0.044,0.075
		l-0.043,0.065l-0.075,0.043l-0.076,0.033h-0.086l-0.076-0.011l-0.076-0.022l-0.064-0.054l-0.044-0.065l-0.043-0.075l-0.021-0.097
		l-0.022-0.119L9.968,23.9l0.011-0.141l0.032-0.129l0.033-0.108l0.043-0.065l0.043-0.054l0.065-0.043l0.076-0.022l0.075-0.011
		l0.065,0.011l0.076,0.022l0.065,0.043l0.043,0.054l0.043,0.086l0.032,0.097l0.022,0.13L10.703,23.9z M11.275,23.608l-0.076-0.248
		l-0.097-0.173l-0.119-0.151l-0.162-0.13l-0.172-0.076l-0.162-0.043l-0.162-0.011l-0.141,0.022l-0.162,0.032l-0.173,0.087
		l-0.162,0.119l-0.118,0.14L9.471,23.36l-0.075,0.248L9.363,23.91l0.033,0.292l0.075,0.259l0.098,0.173l0.129,0.14l0.151,0.119
		l0.162,0.076l0.173,0.054l0.162,0.011l0.162-0.011l0.162-0.043l0.162-0.076l0.141-0.119l0.129-0.162l0.108-0.205l0.076-0.248
		l0.021-0.27L11.275,23.608z"/>
	<path d="M6.264,22.054h1.426l0.173,0.01l0.162,0.043l0.14,0.076l0.13,0.097l0.119,0.13L8.5,22.583l0.054,0.162l0.011,0.151
		l-0.022,0.151L8.51,23.166l-0.054,0.108L8.402,23.35L8.37,23.393l-0.032,0.032l0.032,0.032l0.044,0.054l0.075,0.087l0.076,0.14
		l0.043,0.162l0.022,0.173l-0.011,0.173l-0.043,0.162l-0.087,0.173l-0.129,0.151l-0.152,0.119l-0.162,0.086l-0.172,0.043
		l-0.206,0.011H6.264V22.054z M6.826,23.155h0.886l0.108-0.021l0.086-0.055l0.065-0.075l0.032-0.108l-0.021-0.097l-0.065-0.097
		l-0.097-0.065l-0.119-0.022H6.826V23.155z M6.826,24.451h0.864l0.14-0.032l0.13-0.087l0.076-0.119l0.032-0.14l-0.032-0.14
		l-0.087-0.108L7.83,23.738l-0.151-0.021H6.826V24.451z"/>
	<polygon points="18.381,11.686 17.42,12.905 17.291,12.808 18.262,11.577 18.154,11.501 17.193,12.733 17.074,12.625 
		18.036,11.404 17.938,11.329 16.988,12.527 16.892,12.689 16.837,12.852 16.804,12.959 16.75,13.11 16.665,13.294 16.557,13.521 
		16.318,13.921 15.974,14.428 15.757,13.867 15.639,13.262 15.595,12.949 15.52,12.668 15.422,12.43 15.314,12.236 15.056,11.933 
		14.817,11.739 14.59,11.599 14.354,11.512 14.115,11.458 13.899,11.469 13.694,11.512 13.521,11.62 13.381,11.761 13.283,11.955 
		13.24,12.171 13.229,12.408 13.273,12.657 13.349,12.917 13.5,13.187 13.737,13.5 13.911,13.651 14.115,13.802 14.363,13.931 
		14.667,14.05 15.26,14.299 15.768,14.645 15.79,14.655 15.563,14.958 15.173,15.4 14.786,15.812 14.385,16.189 13.976,16.523 
		13.706,16.815 13.489,17.139 13.359,17.452 13.337,17.712 13.414,17.874 13.586,17.906 13.834,17.819 14.104,17.614 14.375,17.333 
		14.59,17.009 14.817,16.523 15.087,16.048 15.39,15.573 15.747,15.098 15.952,14.839 16.557,15.595 16.892,16.082 17.128,16.534 
		17.215,16.739 17.291,16.901 17.344,17.021 17.387,17.085 17.571,17.333 17.841,17.614 18.123,17.819 18.359,17.906 18.532,17.863 
		18.62,17.701 18.586,17.441 18.446,17.128 18.23,16.804 18.111,16.675 18.025,16.577 17.96,16.523 17.863,16.438 17.723,16.34 
		17.549,16.199 17.15,15.865 16.75,15.443 16.113,14.633 16.34,14.363 16.545,14.137 16.739,13.942 16.901,13.792 17.258,13.51 
		17.485,13.359 17.636,13.273 17.766,13.144 18.706,11.933 18.608,11.858 17.647,13.078 17.518,12.981 18.479,11.761 	"/>
	<path d="M24.624,13.618v0.109l0.022,0.183l0.054,0.238l0.054,0.302l0.097,0.67v0.68l-0.032,0.324l-0.043,0.281l-0.076,0.227
		l-0.086,0.173l-0.097,0.14l-0.087,0.097l-0.076,0.054l-0.064,0.022l-0.119-0.065l-0.119-0.184l-0.054-0.151l-0.043-0.194
		l-0.022-0.259v-0.303l0.054-0.68l0.151-0.702l0.087-0.335l0.075-0.292l0.065-0.226l0.054-0.173l0.065,0.021l0.043-0.162
		l0.043-0.118l0.033-0.076l0.032-0.043l0.087-0.022l0.054,0.043l-0.033,0.054l-0.086,0.108l-0.022,0.108L24.624,13.618z
		 M25.822,12.798h1.102v0.778h-1.102V12.798z M25.822,12.215h1.102v0.389h-1.102V12.215z M24.764,12.83l-0.227,0.13l-0.14,0.086
		l-0.065,0.033l-0.043,0.075l-0.097,0.335l0.064,0.011l-0.054,0.183l-0.054,0.238l-0.086,0.281l-0.087,0.345l-0.14,0.724
		l-0.065,0.702v0.324l0.033,0.27l0.043,0.227l0.075,0.173l0.087,0.129l0.086,0.097l0.087,0.054l0.108,0.022l0.097-0.022l0.108-0.064
		l0.108-0.108l0.119-0.162l0.119-0.205l0.075-0.249l0.065-0.292l0.032-0.345v-0.713l-0.097-0.68l-0.065-0.303l-0.043-0.237
		l-0.032-0.152l-0.011-0.086l0.043-0.151l0.13-0.054l0.118,0.043l0.033,0.108v0.086v0.195v0.313v0.421v0.551v0.67v0.777
		l-0.011,0.907h-0.929v0.249h4.45v-0.249h-0.94v-1.155v-1.005v-0.874v-0.735v-0.594v-0.453v-0.314v-0.172l-0.011-0.087l-0.054-0.075
		l-0.075-0.044l-0.087-0.021v5.519h-0.097v-5.768l-0.011-0.097l-0.054-0.065l-0.064-0.054l-0.098-0.01h-1.479l-0.086,0.01
		l-0.076,0.054l-0.043,0.065l-0.022,0.097v5.768h-0.097v-5.519l-0.087,0.021l-0.064,0.044l-0.054,0.075l-0.022,0.087v0.432
		L24.764,12.83z"/>
</g>
<g id="Layer_3">
</g>
<g id="Layer_2">
</g>
</svg>
