<?xml version="1.0" encoding="utf-8"?>
<!-- Generator: Adobe Illustrator 16.0.0, SVG Export Plug-In . SVG Version: 6.00 Build 0)  -->
<!DOCTYPE svg PUBLIC "-//W3C//DTD SVG 1.1//EN" "http://www.w3.org/Graphics/SVG/1.1/DTD/svg11.dtd">
<svg version="1.1" xmlns="http://www.w3.org/2000/svg" xmlns:xlink="http://www.w3.org/1999/xlink" x="0px" y="0px"
	 width="145.452px" height="48.456px" viewBox="0 0 145.452 48.456" enable-background="new 0 0 145.452 48.456"
	 xml:space="preserve">
<g id="Layer_15">
</g>
<g id="Layer_14">
</g>
<g id="Layer_13">
</g>
<g id="Layer_12">
</g>
<g id="Layer_11">
</g>
<g id="Layer_10">
</g>
<g id="Layer_9">
</g>
<g id="Layer_8">
</g>
<g id="Layer_7">
</g>
<g id="Layer_6">
</g>
<g id="Layer_5">
	<polygon fill="#00A651" points="139.301,5.5 139.42,5.475 139.528,5.408 139.592,5.303 139.606,5.184 139.606,1.957 139.592,1.837 
		139.528,1.731 139.42,1.666 139.301,1.64 131.684,1.64 131.581,1.666 131.473,1.731 131.409,1.837 131.381,1.957 131.381,5.184 
		131.409,5.303 131.473,5.408 131.581,5.475 131.684,5.5 132.518,5.5 133.377,5.5 134.264,5.5 135.204,5.5 136.168,5.5 137.172,5.5 
		138.217,5.5 	"/>
	<polygon fill="#FFFFFF" points="138.456,2.499 138.442,2.525 138.417,2.552 138.377,2.592 138.325,2.631 138.27,2.671 
		138.206,2.697 138.165,2.697 138.125,2.71 138.125,3.001 138.417,3.001 138.417,4.654 138.76,4.654 138.76,2.499 	"/>
	<polygon fill="none" stroke="#00A651" stroke-width="0.055" points="138.76,2.499 138.76,4.654 138.417,4.654 138.417,3.001 
		138.125,3.001 138.125,2.711 138.165,2.697 138.206,2.697 138.27,2.671 138.323,2.631 138.377,2.592 138.417,2.552 138.442,2.525 
		138.456,2.499 	"/>
	<polygon fill="#FFFFFF" points="137.264,2.499 137.252,2.525 137.225,2.552 137.186,2.592 137.133,2.631 137.081,2.671 
		137.014,2.697 136.973,2.697 136.936,2.71 136.936,3.001 137.213,3.001 137.213,4.654 137.583,4.654 137.583,2.499 	"/>
	<polygon fill="none" stroke="#00A651" stroke-width="0.055" points="137.583,2.499 137.583,4.654 137.213,4.654 137.213,3.001 
		136.934,3.001 136.934,2.711 136.975,2.697 137.014,2.697 137.081,2.671 137.133,2.631 137.186,2.592 137.225,2.552 137.252,2.525 
		137.264,2.499 	"/>
	<polygon fill="#FFFFFF" points="136.141,3.451 136.18,3.491 136.221,3.53 136.274,3.596 136.327,3.702 136.366,3.821 
		136.379,3.953 136.366,4.086 136.327,4.218 136.221,4.363 136.075,4.482 135.944,4.575 135.797,4.628 135.639,4.654 135.481,4.667 
		135.282,4.641 135.071,4.562 134.872,4.443 134.78,4.377 134.739,4.31 134.686,4.244 134.661,4.205 134.952,4.02 134.977,4.059 
		135.018,4.112 135.096,4.178 135.215,4.257 135.348,4.297 135.493,4.324 135.639,4.31 135.784,4.257 135.903,4.191 135.983,4.112 
		136.022,4.033 136.036,3.953 136.022,3.874 135.983,3.808 135.93,3.742 135.85,3.689 135.772,3.663 135.678,3.649 135.506,3.649 
		135.506,3.306 135.678,3.306 135.731,3.306 135.797,3.292 135.838,3.253 135.891,3.213 135.903,3.147 135.917,3.081 135.903,3.014 
		135.864,2.949 135.811,2.896 135.731,2.843 135.625,2.816 135.506,2.803 135.401,2.816 135.295,2.843 135.19,2.896 135.11,2.935 
		135.071,2.975 135.03,3.014 134.78,2.777 134.819,2.737 134.872,2.684 134.977,2.618 135.137,2.539 135.309,2.486 135.506,2.459 
		135.731,2.486 135.93,2.552 136.075,2.658 136.18,2.803 136.249,2.949 136.26,3.094 136.249,3.239 136.208,3.358 136.168,3.411 	
		"/>
	<polygon fill="none" stroke="#00A651" stroke-width="0.055" points="136.141,3.451 136.18,3.491 136.221,3.53 136.274,3.596 
		136.327,3.702 136.366,3.821 136.379,3.953 136.366,4.086 136.327,4.218 136.221,4.363 136.075,4.482 135.944,4.575 135.797,4.628 
		135.639,4.654 135.481,4.667 135.282,4.641 135.071,4.562 134.872,4.443 134.78,4.377 134.739,4.31 134.686,4.244 134.661,4.205 
		134.952,4.02 134.977,4.059 135.018,4.112 135.096,4.178 135.215,4.257 135.348,4.297 135.493,4.324 135.639,4.31 135.784,4.257 
		135.903,4.191 135.983,4.112 136.022,4.033 136.036,3.953 136.022,3.874 135.983,3.808 135.93,3.742 135.85,3.689 135.772,3.663 
		135.678,3.649 135.506,3.649 135.506,3.306 135.678,3.306 135.731,3.306 135.797,3.292 135.838,3.253 135.891,3.213 135.903,3.147 
		135.917,3.081 135.903,3.014 135.864,2.949 135.811,2.896 135.731,2.843 135.625,2.816 135.506,2.803 135.401,2.816 135.295,2.843 
		135.19,2.896 135.11,2.935 135.071,2.975 135.03,3.014 134.78,2.777 134.819,2.737 134.872,2.684 134.977,2.618 135.137,2.539 
		135.309,2.486 135.506,2.459 135.731,2.486 135.93,2.552 136.075,2.658 136.18,2.803 136.249,2.949 136.26,3.094 136.249,3.239 
		136.208,3.358 136.168,3.411 	"/>
	<polygon fill="#FFFFFF" points="133.788,2.499 133.788,2.843 132.584,2.843 132.584,3.332 133.272,3.332 133.272,3.676 
		132.584,3.676 132.584,4.297 133.829,4.297 133.829,4.654 132.227,4.654 132.227,2.499 	"/>
	<polygon fill="none" stroke="#00A651" stroke-width="0.055" points="133.788,2.499 133.788,2.843 132.584,2.843 132.584,3.332 
		133.272,3.332 133.272,3.676 132.584,3.676 132.584,4.297 133.829,4.297 133.829,4.654 132.227,4.654 132.227,2.499 	"/>
	<polygon fill="#007DC5" points="139.883,44.032 139.883,46.994 136.922,46.994 103.786,46.994 100.823,46.994 100.823,44.032 
		100.823,8.727 100.823,5.765 103.786,5.765 136.922,5.765 139.883,5.765 139.883,8.727 	"/>
	<path fill="#FFFFFF" d="M139.17,44.032l-0.053,0.436l-0.119,0.423l-0.213,0.384l-0.277,0.343l-0.344,0.278l-0.383,0.212
		l-0.424,0.119l-0.436,0.053h-33.137l-0.438-0.053l-0.422-0.119l-0.385-0.212l-0.344-0.278l-0.277-0.343l-0.211-0.384l-0.119-0.423
		l-0.053-0.436V8.727l0.053-0.436l0.119-0.423l0.211-0.384l0.277-0.344l0.344-0.278l0.385-0.198l0.422-0.132l0.438-0.04h33.137
		l0.436,0.04l0.424,0.132l0.383,0.198l0.344,0.278l0.277,0.344l0.213,0.384l0.119,0.423l0.053,0.436V44.032z M139.606,8.727
		l-0.041-0.516l-0.156-0.516l-0.252-0.462l-0.33-0.41l-0.41-0.331l-0.463-0.251l-0.502-0.145l-0.529-0.053h-33.137l-0.529,0.053
		l-0.502,0.145l-0.463,0.251l-0.41,0.331l-0.33,0.41l-0.252,0.462l-0.158,0.516L101.1,8.727v35.305l0.041,0.529l0.158,0.502
		l0.252,0.463l0.33,0.41l0.41,0.33l0.463,0.251l0.502,0.159l0.529,0.053h33.137l0.529-0.053l0.502-0.159l0.463-0.251l0.41-0.33
		l0.33-0.41l0.252-0.463l0.156-0.502l0.041-0.529V8.727z"/>
	<polygon fill="#FFFFFF" points="134.45,10.248 132.942,9.309 132.862,9.229 132.823,9.137 132.823,9.032 132.862,8.926 
		132.942,8.859 133.034,8.819 137.292,8.04 137.344,8.026 137.399,8.04 137.452,8.053 137.504,8.079 137.543,8.119 137.571,8.159 
		137.596,8.198 137.622,8.25 137.622,8.304 137.622,8.356 136.842,12.627 136.803,12.721 136.723,12.799 136.618,12.839 
		136.512,12.826 136.418,12.787 136.34,12.721 135.415,11.212 132.36,14.544 131.104,13.289 	"/>
	<polygon fill="#FFFFFF" points="106.483,16.767 105.981,16.938 105.954,16.885 105.915,16.819 105.821,16.688 105.676,16.568 
		105.491,16.488 105.293,16.462 105.094,16.488 104.909,16.582 104.737,16.727 104.604,16.952 104.512,17.255 104.485,17.6 
		104.526,17.943 104.62,18.234 104.75,18.459 104.936,18.591 105.122,18.67 105.305,18.684 105.518,18.657 105.715,18.551 
		105.875,18.406 105.967,18.26 105.995,18.167 106.006,18.088 105.424,18.088 105.424,17.573 106.549,17.573 106.549,17.678 
		106.549,17.745 106.549,17.851 106.522,18.154 106.456,18.473 106.377,18.604 106.286,18.75 105.995,19.001 105.663,19.159 
		105.305,19.212 104.963,19.173 104.631,19.027 104.354,18.79 104.141,18.473 104.01,18.063 103.969,17.6 104.01,17.136 
		104.129,16.727 104.354,16.37 104.5,16.225 104.645,16.119 104.963,15.974 105.293,15.934 105.624,15.974 105.94,16.119 
		106.231,16.343 106.338,16.476 106.403,16.582 106.43,16.661 106.456,16.7 	"/>
	<polygon fill="none" stroke="#007DC5" stroke-width="0.039" points="106.483,16.767 105.981,16.938 105.954,16.885 105.915,16.819 
		105.821,16.688 105.676,16.568 105.491,16.488 105.293,16.462 105.094,16.488 104.909,16.582 104.737,16.727 104.604,16.952 
		104.512,17.255 104.485,17.6 104.526,17.943 104.62,18.234 104.75,18.459 104.936,18.591 105.122,18.67 105.305,18.684 
		105.518,18.657 105.715,18.551 105.875,18.406 105.967,18.26 105.995,18.167 106.006,18.088 105.424,18.088 105.424,17.573 
		106.549,17.573 106.549,17.678 106.549,17.745 106.549,17.851 106.522,18.154 106.456,18.473 106.377,18.604 106.286,18.75 
		105.995,19.001 105.663,19.159 105.305,19.212 104.963,19.173 104.631,19.027 104.354,18.79 104.141,18.473 104.01,18.063 
		103.969,17.6 104.01,17.136 104.129,16.727 104.354,16.37 104.5,16.225 104.645,16.119 104.963,15.974 105.293,15.934 
		105.624,15.974 105.94,16.119 106.231,16.343 106.338,16.476 106.403,16.582 106.43,16.661 106.456,16.7 	"/>
	<path fill="#FFFFFF" d="M108.415,18.697l-0.135-0.027l-0.119-0.066l-0.092-0.119l-0.064-0.158l-0.041-0.186l-0.014-0.198
		l0.027-0.198l0.039-0.185l0.066-0.133l0.094-0.092l0.119-0.066l0.131-0.027l0.133,0.027l0.119,0.053l0.105,0.105l0.066,0.133
		l0.039,0.172l0.014,0.211v0.212l-0.041,0.185l-0.078,0.158l-0.105,0.119l-0.119,0.067L108.415,18.697z M108.678,19.186l0.264-0.119
		l0.238-0.185l0.172-0.278l0.105-0.317l0.041-0.331l-0.041-0.344l-0.105-0.317l-0.172-0.238l-0.225-0.185l-0.266-0.106l-0.264-0.026
		l-0.266,0.026l-0.25,0.119l-0.238,0.185l-0.172,0.252l-0.092,0.304l-0.041,0.33l0.027,0.331l0.092,0.317l0.186,0.278l0.238,0.185
		l0.25,0.119l0.254,0.026L108.678,19.186z"/>
	<path fill="none" stroke="#007DC5" stroke-width="0.039" d="M108.415,18.697l-0.135-0.027l-0.119-0.066l-0.092-0.119l-0.064-0.158
		l-0.041-0.186l-0.014-0.198l0.027-0.198l0.039-0.185l0.066-0.133l0.094-0.092l0.119-0.066l0.131-0.027l0.133,0.027l0.119,0.053
		l0.105,0.105l0.066,0.133l0.039,0.172l0.014,0.211v0.212l-0.041,0.185l-0.078,0.158l-0.105,0.119l-0.119,0.067L108.415,18.697z
		 M108.678,19.186l0.264-0.119l0.238-0.185l0.172-0.278l0.105-0.317l0.041-0.331l-0.041-0.344l-0.105-0.317l-0.172-0.238
		l-0.225-0.185l-0.266-0.106l-0.264-0.026l-0.266,0.026l-0.25,0.119l-0.238,0.185l-0.172,0.252l-0.092,0.304l-0.041,0.33
		l0.027,0.331l0.092,0.317l0.186,0.278l0.238,0.185l0.25,0.119l0.254,0.026L108.678,19.186z"/>
	<polygon fill="#FFFFFF" points="111.057,16.753 111.057,16.965 111.096,16.925 111.137,16.885 111.229,16.832 111.336,16.779 
		111.467,16.74 111.6,16.727 111.719,16.74 111.825,16.766 111.903,16.793 111.969,16.819 112.01,16.846 112.049,16.872 
		111.877,17.48 111.85,17.454 111.811,17.414 111.758,17.374 111.692,17.335 111.6,17.322 111.506,17.308 111.415,17.322 
		111.309,17.361 111.204,17.441 111.124,17.546 111.071,17.679 111.057,17.824 111.057,19.186 110.475,19.186 110.475,16.753 	"/>
	<polygon fill="none" stroke="#007DC5" stroke-width="0.039" points="111.057,16.753 111.057,16.965 111.096,16.925 111.137,16.885 
		111.229,16.832 111.336,16.779 111.467,16.74 111.6,16.727 111.719,16.74 111.825,16.766 111.903,16.793 111.969,16.819 
		112.01,16.846 112.049,16.872 111.877,17.48 111.85,17.454 111.811,17.414 111.758,17.374 111.692,17.335 111.6,17.322 
		111.506,17.308 111.415,17.322 111.309,17.361 111.204,17.441 111.124,17.546 111.071,17.679 111.057,17.824 111.057,19.186 
		110.475,19.186 110.475,16.753 	"/>
	<polygon fill="#FFFFFF" points="112.829,16.767 112.829,19.186 113.411,19.186 113.411,16.753 	"/>
	<polygon fill="none" stroke="#007DC5" stroke-width="0.039" points="113.411,16.753 113.411,19.186 112.829,19.186 112.829,16.766 
			"/>
	<polygon fill="#FFFFFF" points="113.014,15.986 112.922,16.052 112.856,16.145 112.829,16.264 112.856,16.383 112.909,16.488 
		113.014,16.556 113.133,16.582 113.252,16.556 113.344,16.488 113.411,16.396 113.438,16.277 113.424,16.158 113.358,16.052 
		113.252,15.986 113.133,15.959 	"/>
	<polygon fill="none" stroke="#007DC5" stroke-width="0.039" points="113.133,16.582 113.014,16.555 112.909,16.488 112.856,16.383 
		112.831,16.264 112.856,16.146 112.922,16.052 113.014,15.986 113.133,15.96 113.252,15.986 113.358,16.052 113.424,16.158 
		113.438,16.277 113.411,16.396 113.346,16.488 113.252,16.555 	"/>
	<polygon fill="#FFFFFF" points="115.262,16.753 115.262,16.938 115.329,16.898 115.381,16.859 115.461,16.819 115.579,16.766 
		115.711,16.74 115.858,16.727 116.002,16.74 116.161,16.779 116.36,16.872 116.532,17.017 116.665,17.189 116.731,17.348 
		116.77,17.533 116.77,17.745 116.77,19.186 116.202,19.186 116.202,17.745 116.161,17.573 116.055,17.427 115.911,17.322 
		115.725,17.282 115.553,17.322 115.407,17.427 115.303,17.573 115.262,17.758 115.262,19.186 114.68,19.186 114.68,16.753 	"/>
	<polygon fill="none" stroke="#007DC5" stroke-width="0.039" points="115.262,16.753 115.262,16.938 115.329,16.898 115.381,16.859 
		115.461,16.819 115.579,16.766 115.711,16.74 115.858,16.727 116.002,16.74 116.161,16.779 116.36,16.872 116.532,17.017 
		116.665,17.189 116.731,17.348 116.77,17.533 116.77,17.745 116.77,19.186 116.202,19.186 116.202,17.745 116.161,17.573 
		116.055,17.427 115.911,17.322 115.725,17.282 115.553,17.322 115.407,17.427 115.303,17.573 115.262,17.758 115.262,19.186 
		114.68,19.186 114.68,16.753 	"/>
	<polygon fill="#FFFFFF" points="119.838,17.229 119.454,17.639 119.44,17.586 119.401,17.52 119.336,17.441 119.217,17.361 
		119.071,17.295 118.899,17.269 118.727,17.308 118.569,17.388 118.463,17.493 118.383,17.639 118.331,17.811 118.317,18.009 
		118.344,18.194 118.411,18.366 118.502,18.485 118.622,18.578 118.766,18.644 118.913,18.657 119.071,18.644 119.217,18.591 
		119.323,18.498 119.401,18.419 119.428,18.366 119.454,18.313 119.838,18.71 119.786,18.776 119.731,18.842 119.6,18.961 
		119.401,19.08 119.163,19.173 118.913,19.212 118.674,19.186 118.436,19.107 118.184,18.948 117.959,18.71 117.801,18.379 
		117.749,18.194 117.735,17.996 117.774,17.612 117.92,17.295 118.12,17.044 118.356,16.859 118.635,16.766 118.913,16.727 
		119.19,16.766 119.44,16.859 119.625,16.991 119.745,17.11 119.797,17.176 	"/>
	<polygon fill="none" stroke="#007DC5" stroke-width="0.039" points="119.838,17.229 119.454,17.639 119.44,17.586 119.401,17.52 
		119.336,17.441 119.217,17.361 119.071,17.295 118.899,17.269 118.727,17.308 118.569,17.388 118.463,17.493 118.383,17.639 
		118.331,17.811 118.317,18.009 118.344,18.194 118.411,18.366 118.502,18.485 118.622,18.578 118.766,18.644 118.913,18.657 
		119.071,18.644 119.217,18.591 119.323,18.498 119.401,18.419 119.428,18.366 119.454,18.313 119.838,18.71 119.786,18.776 
		119.731,18.842 119.6,18.961 119.401,19.08 119.163,19.173 118.913,19.212 118.674,19.186 118.436,19.107 118.184,18.948 
		117.959,18.71 117.801,18.379 117.749,18.194 117.735,17.996 117.774,17.612 117.92,17.295 118.12,17.044 118.356,16.859 
		118.635,16.766 118.913,16.727 119.19,16.766 119.44,16.859 119.625,16.991 119.745,17.11 119.797,17.176 	"/>
	<polygon fill="#FFFFFF" points="120.817,15.96 121.411,15.96 121.411,17.15 121.438,17.124 121.477,17.071 121.543,17.005 
		121.635,16.925 121.743,16.859 121.846,16.806 121.967,16.78 122.084,16.767 122.192,16.767 122.311,16.793 122.442,16.833 
		122.563,16.886 122.694,16.991 122.799,17.124 122.866,17.269 122.905,17.401 122.932,17.56 122.932,17.745 122.932,19.186 
		122.35,19.186 122.35,17.864 122.336,17.732 122.311,17.613 122.284,17.507 122.231,17.428 122.165,17.362 122.073,17.309 
		121.981,17.282 121.887,17.282 121.782,17.296 121.676,17.335 121.583,17.401 121.504,17.48 121.452,17.586 121.424,17.692 
		121.411,17.811 121.411,17.943 121.411,19.186 120.817,19.186 	"/>
	<polygon fill="none" stroke="#007DC5" stroke-width="0.039" points="120.817,15.96 121.411,15.96 121.411,17.15 121.438,17.124 
		121.477,17.071 121.543,17.005 121.635,16.925 121.743,16.859 121.846,16.806 121.967,16.78 122.084,16.767 122.192,16.767 
		122.311,16.793 122.442,16.833 122.563,16.886 122.694,16.991 122.799,17.124 122.866,17.269 122.905,17.401 122.932,17.56 
		122.932,17.745 122.932,19.186 122.35,19.186 122.35,17.864 122.336,17.732 122.311,17.613 122.284,17.507 122.231,17.428 
		122.165,17.362 122.073,17.309 121.981,17.282 121.887,17.282 121.782,17.296 121.676,17.335 121.583,17.401 121.504,17.48 
		121.452,17.586 121.424,17.692 121.411,17.811 121.411,17.943 121.411,19.186 120.817,19.186 	"/>
	<path fill="#FFFFFF" d="M125.959,18.102h-1.48l0.014,0.066v0.08l0.025,0.105l0.041,0.106l0.064,0.093l0.094,0.079l0.105,0.053
		l0.105,0.026l0.105-0.013l0.107-0.026l0.092-0.04l0.064-0.04l0.041-0.026l0.053-0.04l0.396,0.304l-0.064,0.067l-0.066,0.066
		l-0.146,0.092l-0.186,0.093l-0.211,0.053l-0.211,0.013l-0.238-0.04l-0.238-0.119l-0.213-0.158l-0.156-0.225l-0.121-0.304
		l-0.039-0.384l0.039-0.383l0.105-0.318l0.16-0.238l0.197-0.158l0.252-0.119l0.277-0.04l0.264,0.027l0.266,0.105l0.238,0.199
		l0.105,0.132l0.066,0.132l0.078,0.291l0.014,0.264v0.08v0.066V18.102z M125.377,17.613l-0.012-0.053l-0.027-0.066l-0.053-0.066
		l-0.053-0.079l-0.08-0.053l-0.105-0.053l-0.119-0.013l-0.105,0.013l-0.092,0.053l-0.08,0.053l-0.053,0.079l-0.053,0.066
		l-0.014,0.066l-0.014,0.053l-0.014,0.053h0.887L125.377,17.613z"/>
	<path fill="none" stroke="#007DC5" stroke-width="0.039" d="M125.959,18.102h-1.48l0.014,0.066v0.08l0.025,0.105l0.041,0.106
		l0.064,0.093l0.094,0.079l0.105,0.053l0.105,0.026l0.105-0.013l0.107-0.026l0.092-0.04l0.064-0.04l0.041-0.026l0.053-0.04
		l0.396,0.304l-0.064,0.067l-0.066,0.066l-0.146,0.092l-0.186,0.093l-0.211,0.053l-0.211,0.013l-0.238-0.04l-0.238-0.119
		l-0.213-0.158l-0.156-0.225l-0.121-0.304l-0.039-0.384l0.039-0.383l0.105-0.318l0.16-0.238l0.197-0.158l0.252-0.119l0.277-0.04
		l0.264,0.027l0.266,0.105l0.238,0.199l0.105,0.132l0.066,0.132l0.078,0.291l0.014,0.264v0.08v0.066V18.102z M125.377,17.613
		l-0.012-0.053l-0.027-0.066l-0.053-0.066l-0.053-0.079l-0.08-0.053l-0.105-0.053l-0.119-0.013l-0.105,0.013l-0.092,0.053
		l-0.08,0.053l-0.053,0.079l-0.053,0.066l-0.014,0.066l-0.014,0.053l-0.014,0.053h0.887L125.377,17.613z"/>
	<polygon fill="#FFFFFF" points="127.573,16.753 127.573,16.965 127.614,16.925 127.667,16.885 127.758,16.832 127.891,16.779 
		128.036,16.74 128.194,16.727 128.379,16.753 128.565,16.806 128.698,16.885 128.79,16.965 128.842,17.017 128.881,17.057 
		128.922,17.017 128.989,16.965 129.108,16.872 129.252,16.793 129.411,16.753 129.596,16.74 129.821,16.766 130.045,16.859 
		130.245,17.017 130.375,17.203 130.456,17.441 130.483,17.705 130.483,19.186 129.901,19.186 129.901,17.731 129.862,17.573 
		129.768,17.427 129.635,17.335 129.463,17.308 129.305,17.335 129.161,17.427 129.067,17.573 129.028,17.745 129.028,19.186 
		128.446,19.186 128.446,17.731 128.407,17.56 128.327,17.427 128.194,17.335 128.024,17.295 127.852,17.322 127.706,17.414 
		127.614,17.56 127.573,17.731 127.573,19.186 126.979,19.186 126.979,16.753 	"/>
	<polygon fill="none" stroke="#007DC5" stroke-width="0.039" points="127.573,16.753 127.573,16.965 127.614,16.925 127.667,16.885 
		127.758,16.832 127.891,16.779 128.036,16.74 128.194,16.727 128.379,16.753 128.565,16.806 128.698,16.885 128.79,16.965 
		128.842,17.017 128.881,17.057 128.922,17.017 128.989,16.965 129.108,16.872 129.252,16.793 129.411,16.753 129.596,16.74 
		129.821,16.766 130.045,16.859 130.245,17.017 130.375,17.203 130.456,17.441 130.483,17.705 130.483,19.186 129.901,19.186 
		129.901,17.731 129.862,17.573 129.768,17.427 129.635,17.335 129.463,17.308 129.305,17.335 129.161,17.427 129.067,17.573 
		129.028,17.745 129.028,19.186 128.446,19.186 128.446,17.731 128.407,17.56 128.327,17.427 128.194,17.335 128.024,17.295 
		127.852,17.322 127.706,17.414 127.614,17.56 127.573,17.731 127.573,19.186 126.979,19.186 126.979,16.753 	"/>
	<path fill="#FFFFFF" d="M104.499,35.635h1.031l0.186-0.04l0.158-0.092l0.107-0.159l0.025-0.172L105.981,35l-0.107-0.145
		l-0.158-0.106l-0.186-0.04h-1.031V35.635z M104.499,34.18h1.045l0.146-0.026l0.131-0.08l0.08-0.105l0.025-0.132l-0.025-0.132
		l-0.08-0.119l-0.119-0.08l-0.158-0.039h-1.045V34.18z M103.969,32.951h1.588l0.264,0.026l0.225,0.106l0.186,0.159l0.119,0.172
		l0.08,0.211l0.025,0.185l-0.012,0.186l-0.053,0.145l-0.066,0.132l-0.066,0.092l-0.053,0.04l-0.041,0.04l0.053,0.039l0.055,0.053
		l0.078,0.093l0.094,0.132l0.078,0.198l0.025,0.225l-0.025,0.225l-0.078,0.225l-0.146,0.211l-0.211,0.172l-0.266,0.119l-0.316,0.04
		h-1.535V32.951z"/>
	<path fill="none" stroke="#007DC5" stroke-width="0.039" d="M104.499,35.635h1.031l0.186-0.04l0.158-0.092l0.107-0.159l0.025-0.172
		L105.981,35l-0.107-0.145l-0.158-0.106l-0.186-0.04h-1.031V35.635z M104.499,34.18h1.045l0.146-0.026l0.131-0.08l0.08-0.105
		l0.025-0.132l-0.025-0.132l-0.08-0.119l-0.119-0.08l-0.158-0.039h-1.045V34.18z M103.969,32.951h1.588l0.264,0.026l0.225,0.106
		l0.186,0.159l0.119,0.172l0.08,0.211l0.025,0.185l-0.012,0.186l-0.053,0.145l-0.066,0.132l-0.066,0.092l-0.053,0.04l-0.041,0.04
		l0.053,0.039l0.055,0.053l0.078,0.093l0.094,0.132l0.078,0.198l0.025,0.225l-0.025,0.225l-0.078,0.225l-0.146,0.211l-0.211,0.172
		l-0.266,0.119l-0.316,0.04h-1.535V32.951z"/>
	<polygon fill="#FFFFFF" points="108.307,33.745 108.307,33.942 108.348,33.917 108.387,33.876 108.467,33.811 108.584,33.757 
		108.717,33.731 108.836,33.719 108.956,33.731 109.075,33.757 109.153,33.785 109.206,33.811 109.247,33.837 109.299,33.864 
		109.127,34.472 109.1,34.432 109.061,34.406 109.008,34.366 108.928,34.327 108.85,34.3 108.758,34.3 108.665,34.313 
		108.559,34.353 108.44,34.432 108.36,34.538 108.321,34.657 108.307,34.803 108.307,36.178 107.725,36.178 107.725,33.745 	"/>
	<polygon fill="none" stroke="#007DC5" stroke-width="0.039" points="108.307,33.745 108.307,33.942 108.348,33.917 108.387,33.876 
		108.467,33.811 108.584,33.757 108.717,33.731 108.836,33.719 108.956,33.731 109.075,33.757 109.153,33.785 109.206,33.811 
		109.247,33.837 109.299,33.864 109.127,34.472 109.1,34.432 109.061,34.406 109.008,34.366 108.928,34.327 108.85,34.3 
		108.758,34.3 108.665,34.313 108.559,34.353 108.44,34.432 108.36,34.538 108.321,34.657 108.307,34.803 108.307,36.178 
		107.725,36.178 107.725,33.745 	"/>
	<path fill="#FFFFFF" d="M111.852,35.093h-1.469v0.066l0.014,0.08l0.014,0.105l0.051,0.106l0.068,0.093l0.092,0.079l0.105,0.053
		l0.105,0.027l0.092-0.014l0.107-0.026l0.092-0.04l0.066-0.039l0.053-0.027l0.053-0.039l0.385,0.303l-0.055,0.053l-0.064,0.08
		l-0.146,0.092l-0.199,0.08l-0.211,0.052l-0.211,0.014l-0.238-0.04l-0.238-0.106l-0.197-0.158l-0.172-0.225l-0.107-0.318
		l-0.053-0.37l0.041-0.383l0.119-0.318l0.145-0.238l0.213-0.158l0.25-0.119l0.266-0.04l0.264,0.027l0.266,0.106l0.25,0.198
		l0.092,0.132l0.066,0.132l0.08,0.291l0.025,0.264v0.08v0.066L111.852,35.093z M111.27,34.604l-0.014-0.053l-0.027-0.066
		l-0.039-0.079l-0.066-0.066l-0.08-0.067l-0.105-0.039l-0.105-0.013l-0.119,0.013l-0.092,0.039l-0.066,0.067l-0.066,0.066
		l-0.039,0.079l-0.027,0.066l-0.012,0.053l-0.014,0.053h0.885L111.27,34.604z"/>
	<path fill="none" stroke="#007DC5" stroke-width="0.039" d="M111.852,35.093h-1.469v0.066l0.014,0.08l0.014,0.105l0.051,0.106
		l0.068,0.093l0.092,0.079l0.105,0.053l0.105,0.027l0.092-0.014l0.107-0.026l0.092-0.04l0.066-0.039l0.053-0.027l0.053-0.039
		l0.385,0.303l-0.055,0.053l-0.064,0.08l-0.146,0.092l-0.199,0.08l-0.211,0.052l-0.211,0.014l-0.238-0.04l-0.238-0.106l-0.197-0.158
		l-0.172-0.225l-0.107-0.318l-0.053-0.37l0.041-0.383l0.119-0.318l0.145-0.238l0.213-0.158l0.25-0.119l0.266-0.04l0.264,0.027
		l0.266,0.106l0.25,0.198l0.092,0.132l0.066,0.132l0.08,0.291l0.025,0.264v0.08v0.066L111.852,35.093z M111.27,34.604l-0.014-0.053
		l-0.027-0.066l-0.039-0.079l-0.066-0.066l-0.08-0.067l-0.105-0.039l-0.105-0.013l-0.119,0.013l-0.092,0.039l-0.066,0.067
		l-0.066,0.066l-0.039,0.079l-0.027,0.066l-0.012,0.053l-0.014,0.053h0.885L111.27,34.604z"/>
	<path fill="#FFFFFF" d="M114.125,33.071l0.582-0.212v3.319h-0.582v-0.159l-0.066,0.04l-0.078,0.052l-0.174,0.067l-0.223,0.026
		l-0.238-0.039l-0.227-0.093l-0.184-0.172l-0.16-0.238l-0.119-0.304L112.604,35l0.041-0.371l0.119-0.33l0.158-0.264l0.197-0.172
		l0.213-0.092l0.238-0.04l0.236,0.04l0.094,0.026l0.08,0.039l0.078,0.053l0.066,0.04V33.071z M114.125,34.472l-0.039-0.04
		l-0.066-0.053l-0.119-0.066l-0.172-0.026l-0.158,0.026l-0.133,0.079l-0.105,0.106l-0.08,0.132l-0.053,0.173l-0.014,0.185
		l0.027,0.211l0.053,0.172l0.092,0.119l0.107,0.093l0.119,0.052l0.145,0.014l0.146-0.027l0.117-0.052l0.066-0.053l0.066-0.067
		V34.472z"/>
	<path fill="none" stroke="#007DC5" stroke-width="0.039" d="M114.125,33.071l0.582-0.212v3.319h-0.582v-0.159l-0.066,0.04
		l-0.078,0.052l-0.174,0.067l-0.223,0.026l-0.238-0.039l-0.227-0.093l-0.184-0.172l-0.16-0.238l-0.119-0.304L112.604,35l0.041-0.371
		l0.119-0.33l0.158-0.264l0.197-0.172l0.213-0.092l0.238-0.04l0.236,0.04l0.094,0.026l0.08,0.039l0.078,0.053l0.066,0.04V33.071z
		 M114.125,34.472l-0.039-0.04l-0.066-0.053l-0.119-0.066l-0.172-0.026l-0.158,0.026l-0.133,0.079l-0.105,0.106l-0.08,0.132
		l-0.053,0.173l-0.014,0.185l0.027,0.211l0.053,0.172l0.092,0.119l0.107,0.093l0.119,0.052l0.145,0.014l0.146-0.027l0.117-0.052
		l0.066-0.053l0.066-0.067V34.472z"/>
	<path fill="#FFFFFF" d="M117.141,35.146v0.409l-0.041,0.027l-0.053,0.026l-0.066,0.04l-0.119,0.04l-0.119,0.026h-0.117
		l-0.119-0.026l-0.092-0.04l-0.094-0.066l-0.053-0.079l-0.027-0.08l-0.014-0.079l0.014-0.079l0.027-0.08l0.053-0.066l0.078-0.066
		l0.107-0.039l0.119-0.027L116.756,35l0.105,0.014l0.107,0.039l0.078,0.04l0.053,0.026L117.141,35.146z M117.696,34.339
		l-0.066-0.198l-0.066-0.093l-0.08-0.092l-0.223-0.133l-0.238-0.065l-0.238-0.027l-0.213,0.013l-0.197,0.04l-0.213,0.066
		l-0.158,0.08l-0.078,0.039l-0.055,0.027l0.213,0.396l0.066-0.026l0.066-0.04l0.105-0.04l0.131-0.04l0.133-0.026h0.146h0.119
		l0.105,0.026l0.078,0.053l0.055,0.08l0.039,0.079l0.014,0.093v0.119l-0.068-0.027l-0.092-0.04l-0.172-0.039l-0.225-0.013
		l-0.25,0.039l-0.252,0.093l-0.186,0.132L115.764,35l-0.078,0.199l-0.027,0.211l0.039,0.212l0.107,0.211l0.145,0.172l0.186,0.119
		l0.172,0.053l0.145,0.026h0.16l0.145-0.026l0.146-0.04l0.105-0.039l0.064-0.027l0.055-0.026l0.014,0.132h0.568v-1.626
		L117.696,34.339z"/>
	<path fill="none" stroke="#007DC5" stroke-width="0.039" d="M117.141,35.146v0.409l-0.041,0.027l-0.053,0.026l-0.066,0.04
		l-0.119,0.04l-0.119,0.026h-0.117l-0.119-0.026l-0.092-0.04l-0.094-0.066l-0.053-0.079l-0.027-0.08l-0.014-0.079l0.014-0.079
		l0.027-0.08l0.053-0.066l0.078-0.066l0.107-0.039l0.119-0.027L116.756,35l0.105,0.014l0.107,0.039l0.078,0.04l0.053,0.026
		L117.141,35.146z M117.696,34.339l-0.066-0.198l-0.066-0.093l-0.08-0.092l-0.223-0.133l-0.238-0.065l-0.238-0.027l-0.213,0.013
		l-0.197,0.04l-0.213,0.066l-0.158,0.08l-0.078,0.039l-0.055,0.027l0.213,0.396l0.066-0.026l0.066-0.04l0.105-0.04l0.131-0.04
		l0.133-0.026h0.146h0.119l0.105,0.026l0.078,0.053l0.055,0.08l0.039,0.079l0.014,0.093v0.119l-0.068-0.027l-0.092-0.04
		l-0.172-0.039l-0.225-0.013l-0.25,0.039l-0.252,0.093l-0.186,0.132L115.764,35l-0.078,0.199l-0.027,0.211l0.039,0.212l0.107,0.211
		l0.145,0.172l0.186,0.119l0.172,0.053l0.145,0.026h0.16l0.145-0.026l0.146-0.04l0.105-0.039l0.064-0.027l0.055-0.026l0.014,0.132
		h0.568v-1.626L117.696,34.339z"/>
	<polygon fill="#FFFFFF" points="106.549,27.266 106.549,29.235 106.522,29.486 106.442,29.725 106.338,29.949 106.178,30.148 
		105.979,30.307 105.756,30.425 105.504,30.505 105.239,30.531 104.975,30.505 104.737,30.425 104.512,30.307 104.313,30.148 
		104.168,29.962 104.063,29.738 103.997,29.486 103.971,29.223 103.971,27.266 104.485,27.266 104.485,29.223 104.54,29.514 
		104.698,29.765 104.936,29.937 105.094,29.977 105.239,30.002 105.399,29.989 105.543,29.949 105.795,29.777 105.967,29.526 
		106.006,29.381 106.02,29.235 106.02,27.266 	"/>
	<polygon fill="none" stroke="#007DC5" stroke-width="0.039" points="106.549,27.266 106.549,29.235 106.522,29.486 106.442,29.725 
		106.338,29.949 106.178,30.148 105.979,30.307 105.756,30.425 105.504,30.505 105.239,30.531 104.975,30.505 104.737,30.425 
		104.512,30.307 104.313,30.148 104.168,29.962 104.063,29.738 103.997,29.486 103.971,29.223 103.971,27.266 104.485,27.266 
		104.485,29.223 104.54,29.514 104.698,29.765 104.936,29.937 105.094,29.977 105.239,30.002 105.399,29.989 105.543,29.949 
		105.795,29.777 105.967,29.526 106.006,29.381 106.02,29.235 106.02,27.266 	"/>
	<polygon fill="#FFFFFF" points="108.506,27.266 108.506,28.072 109.1,28.072 109.1,28.614 108.518,28.614 108.518,29.738 
		108.518,29.805 108.518,29.857 108.545,29.896 108.598,29.949 108.665,29.977 108.731,29.989 108.797,29.977 108.875,29.962 
		108.942,29.937 109.022,29.896 109.075,29.857 109.127,29.817 109.008,30.413 108.956,30.438 108.903,30.465 108.823,30.491 
		108.731,30.519 108.637,30.531 108.532,30.531 108.426,30.519 108.321,30.491 108.227,30.438 108.124,30.359 108.03,30.253 
		107.977,30.134 107.95,30.016 107.936,29.871 107.936,28.614 107.5,28.614 107.5,28.072 107.936,28.072 107.936,27.477 	"/>
	<polygon fill="none" stroke="#007DC5" stroke-width="0.039" points="108.506,27.266 108.506,28.072 109.1,28.072 109.1,28.614 
		108.518,28.614 108.518,29.738 108.518,29.805 108.518,29.857 108.545,29.896 108.598,29.949 108.665,29.977 108.731,29.989 
		108.797,29.977 108.875,29.962 108.942,29.937 109.022,29.896 109.075,29.857 109.127,29.817 109.008,30.413 108.956,30.438 
		108.903,30.465 108.823,30.491 108.731,30.519 108.637,30.531 108.532,30.531 108.426,30.519 108.321,30.491 108.227,30.438 
		108.124,30.359 108.03,30.253 107.977,30.134 107.95,30.016 107.936,29.871 107.936,28.614 107.5,28.614 107.5,28.072 
		107.936,28.072 107.936,27.477 	"/>
	<polygon fill="#FFFFFF" points="110.727,28.059 110.727,28.27 110.766,28.231 110.821,28.191 110.899,28.138 111.004,28.085 
		111.137,28.046 111.27,28.032 111.387,28.046 111.495,28.072 111.573,28.099 111.639,28.125 111.678,28.151 111.719,28.178 
		111.547,28.786 111.52,28.76 111.495,28.72 111.442,28.68 111.362,28.641 111.27,28.627 111.176,28.614 111.084,28.627 
		110.979,28.667 110.872,28.746 110.793,28.852 110.741,28.984 110.727,29.13 110.727,30.492 110.145,30.492 110.145,28.059 	"/>
	<polygon fill="none" stroke="#007DC5" stroke-width="0.039" points="110.727,28.059 110.727,28.27 110.766,28.231 110.821,28.191 
		110.899,28.138 111.004,28.085 111.137,28.046 111.27,28.032 111.387,28.046 111.495,28.072 111.573,28.099 111.639,28.125 
		111.678,28.151 111.719,28.178 111.547,28.786 111.52,28.76 111.495,28.72 111.442,28.68 111.362,28.641 111.27,28.627 
		111.176,28.614 111.084,28.627 110.979,28.667 110.872,28.746 110.793,28.852 110.741,28.984 110.727,29.13 110.727,30.492 
		110.145,30.492 110.145,28.059 	"/>
	<path fill="#FFFFFF" d="M114.284,29.42h-1.48l0.014,0.053v0.08l0.025,0.105l0.039,0.106l0.066,0.093l0.094,0.079l0.105,0.053
		l0.105,0.027l0.105-0.014l0.105-0.026l0.094-0.04l0.064-0.04l0.053-0.026l0.041-0.04l0.396,0.304l-0.066,0.066l-0.064,0.067
		l-0.133,0.092l-0.211,0.093l-0.199,0.053l-0.211,0.013l-0.238-0.04l-0.238-0.106l-0.213-0.172l-0.158-0.224l-0.117-0.304
		l-0.041-0.384l0.041-0.383l0.104-0.318l0.16-0.224l0.199-0.172l0.25-0.106l0.277-0.053l0.266,0.04l0.264,0.092l0.238,0.199
		l0.105,0.132l0.066,0.132l0.08,0.291l0.012,0.264v0.093v0.053V29.42z M113.702,28.918l-0.012-0.053l-0.027-0.066l-0.053-0.066
		l-0.053-0.079l-0.08-0.054l-0.105-0.039l-0.119-0.026l-0.105,0.026l-0.092,0.039l-0.08,0.054l-0.053,0.079l-0.053,0.066
		l-0.014,0.066l-0.027,0.053v0.066h0.887L113.702,28.918z"/>
	<path fill="none" stroke="#007DC5" stroke-width="0.039" d="M114.284,29.42h-1.48l0.014,0.053v0.08l0.025,0.105l0.039,0.106
		l0.066,0.093l0.094,0.079l0.105,0.053l0.105,0.027l0.105-0.014l0.105-0.026l0.094-0.04l0.064-0.04l0.053-0.026l0.041-0.04
		l0.396,0.304l-0.066,0.066l-0.064,0.067l-0.133,0.092l-0.211,0.093l-0.199,0.053l-0.211,0.013l-0.238-0.04l-0.238-0.106
		l-0.213-0.172l-0.158-0.224l-0.117-0.304l-0.041-0.384l0.041-0.383l0.104-0.318l0.16-0.224l0.199-0.172l0.25-0.106l0.277-0.053
		l0.266,0.04l0.264,0.092l0.238,0.199l0.105,0.132l0.066,0.132l0.08,0.291l0.012,0.264v0.093v0.053V29.42z M113.702,28.918
		l-0.012-0.053l-0.027-0.066l-0.053-0.066l-0.053-0.079l-0.08-0.054l-0.105-0.039l-0.119-0.026l-0.105,0.026l-0.092,0.039
		l-0.08,0.054l-0.053,0.079l-0.053,0.066l-0.014,0.066l-0.027,0.053v0.066h0.887L113.702,28.918z"/>
	<polygon fill="#FFFFFF" points="117.127,28.535 116.756,28.945 116.729,28.892 116.704,28.839 116.625,28.746 116.518,28.654 
		116.374,28.601 116.202,28.575 116.016,28.614 115.872,28.694 115.752,28.799 115.672,28.945 115.633,29.117 115.62,29.315 
		115.645,29.5 115.7,29.672 115.805,29.791 115.924,29.884 116.055,29.95 116.202,29.976 116.36,29.95 116.506,29.897 
		116.625,29.804 116.69,29.725 116.729,29.672 116.756,29.619 117.127,30.016 117.088,30.082 117.02,30.161 116.903,30.267 
		116.704,30.386 116.454,30.479 116.202,30.518 115.977,30.492 115.725,30.413 115.473,30.254 115.249,30.016 115.09,29.685 
		115.051,29.5 115.038,29.302 115.079,28.918 115.209,28.601 115.409,28.35 115.659,28.165 115.924,28.072 116.215,28.033 
		116.493,28.072 116.745,28.165 116.928,28.297 117.034,28.416 117.1,28.482 	"/>
	<polygon fill="none" stroke="#007DC5" stroke-width="0.039" points="117.127,28.535 116.756,28.945 116.729,28.892 116.704,28.839 
		116.625,28.746 116.518,28.654 116.374,28.601 116.202,28.575 116.016,28.614 115.872,28.694 115.752,28.799 115.672,28.945 
		115.633,29.117 115.62,29.315 115.645,29.5 115.7,29.672 115.805,29.791 115.924,29.884 116.055,29.95 116.202,29.976 
		116.36,29.95 116.506,29.897 116.625,29.804 116.69,29.725 116.729,29.672 116.756,29.619 117.127,30.016 117.088,30.082 
		117.02,30.161 116.903,30.267 116.704,30.386 116.454,30.479 116.202,30.518 115.977,30.492 115.725,30.413 115.473,30.254 
		115.249,30.016 115.09,29.685 115.051,29.5 115.038,29.302 115.079,28.918 115.209,28.601 115.409,28.35 115.659,28.165 
		115.924,28.072 116.215,28.033 116.493,28.072 116.745,28.165 116.928,28.297 117.034,28.416 117.1,28.482 	"/>
	<polygon fill="#FFFFFF" points="118.12,27.266 118.713,27.266 118.713,28.468 118.741,28.43 118.78,28.376 118.846,28.311 
		118.938,28.23 119.032,28.165 119.149,28.111 119.268,28.085 119.375,28.072 119.495,28.072 119.612,28.099 119.745,28.139 
		119.864,28.205 119.997,28.296 120.102,28.43 120.168,28.574 120.208,28.707 120.235,28.865 120.235,29.05 120.235,30.491 
		119.639,30.491 119.639,29.169 119.639,29.05 119.612,28.918 119.586,28.813 119.534,28.733 119.454,28.667 119.375,28.614 
		119.282,28.587 119.19,28.587 119.084,28.601 118.977,28.653 118.885,28.707 118.807,28.786 118.754,28.892 118.727,28.998 
		118.713,29.116 118.713,29.249 118.713,30.491 118.12,30.491 	"/>
	<polygon fill="none" stroke="#007DC5" stroke-width="0.039" points="118.12,27.266 118.713,27.266 118.713,28.468 118.741,28.43 
		118.78,28.376 118.846,28.311 118.938,28.23 119.032,28.165 119.149,28.111 119.268,28.085 119.375,28.072 119.495,28.072 
		119.612,28.099 119.745,28.139 119.864,28.205 119.997,28.296 120.102,28.43 120.168,28.574 120.208,28.707 120.235,28.865 
		120.235,29.05 120.235,30.491 119.639,30.491 119.639,29.169 119.639,29.05 119.612,28.918 119.586,28.813 119.534,28.733 
		119.454,28.667 119.375,28.614 119.282,28.587 119.19,28.587 119.084,28.601 118.977,28.653 118.885,28.707 118.807,28.786 
		118.754,28.892 118.727,28.998 118.713,29.116 118.713,29.249 118.713,30.491 118.12,30.491 	"/>
	<polygon fill="#FFFFFF" points="122.192,27.266 122.192,28.072 122.774,28.072 122.774,28.614 122.192,28.614 122.192,29.738 
		122.192,29.805 122.192,29.857 122.219,29.896 122.272,29.949 122.336,29.977 122.403,29.989 122.469,29.977 122.547,29.962 
		122.614,29.937 122.694,29.896 122.747,29.857 122.799,29.817 122.68,30.413 122.627,30.438 122.575,30.465 122.495,30.491 
		122.403,30.519 122.311,30.531 122.219,30.531 122.098,30.519 121.993,30.491 121.901,30.438 121.793,30.359 121.702,30.253 
		121.649,30.134 121.622,30.016 121.61,29.871 121.61,28.614 121.172,28.614 121.172,28.072 121.61,28.072 121.61,27.477 	"/>
	<polygon fill="none" stroke="#007DC5" stroke-width="0.039" points="122.192,27.266 122.192,28.072 122.774,28.072 122.774,28.614 
		122.192,28.614 122.192,29.738 122.192,29.805 122.192,29.857 122.219,29.896 122.272,29.949 122.336,29.977 122.403,29.989 
		122.469,29.977 122.547,29.962 122.614,29.937 122.694,29.896 122.747,29.857 122.799,29.817 122.68,30.413 122.627,30.438 
		122.575,30.465 122.495,30.491 122.403,30.519 122.311,30.531 122.219,30.531 122.098,30.519 121.993,30.491 121.901,30.438 
		121.793,30.359 121.702,30.253 121.649,30.134 121.622,30.016 121.61,29.871 121.61,28.614 121.172,28.614 121.172,28.072 
		121.61,28.072 121.61,27.477 	"/>
	<polygon fill="#FFFFFF" points="106.284,22.095 105.887,22.452 105.848,22.412 105.795,22.359 105.702,22.28 105.543,22.188 
		105.346,22.135 105.135,22.108 104.948,22.121 104.79,22.174 104.659,22.24 104.565,22.32 104.526,22.399 104.512,22.492 
		104.54,22.584 104.59,22.677 104.684,22.756 104.79,22.796 105.649,22.981 105.981,23.113 106.112,23.193 106.219,23.313 
		106.364,23.563 106.403,23.867 106.364,24.171 106.231,24.409 106.045,24.594 105.782,24.74 105.452,24.845 105.12,24.872 
		104.79,24.832 104.446,24.713 104.155,24.554 104.036,24.475 103.971,24.396 103.891,24.316 103.838,24.25 104.235,23.907 
		104.274,23.959 104.34,24.026 104.459,24.131 104.631,24.237 104.856,24.303 105.094,24.343 105.319,24.33 105.518,24.277 
		105.69,24.197 105.809,24.092 105.862,23.986 105.887,23.867 105.862,23.748 105.809,23.642 105.702,23.563 105.571,23.51 
		104.709,23.325 104.407,23.206 104.182,23.021 104.036,22.769 103.997,22.505 104.024,22.254 104.143,22.029 104.301,21.831 
		104.526,21.698 104.817,21.606 105.12,21.566 105.438,21.606 105.729,21.698 105.981,21.831 106.086,21.897 106.153,21.963 
		106.231,22.042 	"/>
	<polygon fill="none" stroke="#007DC5" stroke-width="0.039" points="106.284,22.095 105.887,22.452 105.848,22.412 105.795,22.359 
		105.702,22.28 105.543,22.188 105.346,22.135 105.135,22.108 104.948,22.121 104.79,22.174 104.659,22.24 104.565,22.32 
		104.526,22.399 104.512,22.492 104.54,22.584 104.59,22.677 104.684,22.756 104.79,22.796 105.649,22.981 105.981,23.113 
		106.112,23.193 106.219,23.313 106.364,23.563 106.403,23.867 106.364,24.171 106.231,24.409 106.045,24.594 105.782,24.74 
		105.452,24.845 105.12,24.872 104.79,24.832 104.446,24.713 104.155,24.554 104.036,24.475 103.971,24.396 103.891,24.316 
		103.838,24.25 104.235,23.907 104.274,23.959 104.34,24.026 104.459,24.131 104.631,24.237 104.856,24.303 105.094,24.343 
		105.319,24.33 105.518,24.277 105.69,24.197 105.809,24.092 105.862,23.986 105.887,23.867 105.862,23.748 105.809,23.642 
		105.702,23.563 105.571,23.51 104.709,23.325 104.407,23.206 104.182,23.021 104.036,22.769 103.997,22.505 104.024,22.254 
		104.143,22.029 104.301,21.831 104.526,21.698 104.817,21.606 105.12,21.566 105.438,21.606 105.729,21.698 105.981,21.831 
		106.086,21.897 106.153,21.963 106.231,22.042 	"/>
	<polygon fill="#FFFFFF" points="109.26,22.875 108.875,23.286 108.85,23.246 108.823,23.18 108.758,23.101 108.637,23.007 
		108.493,22.941 108.321,22.928 108.149,22.955 107.991,23.035 107.885,23.153 107.805,23.286 107.752,23.47 107.739,23.655 
		107.766,23.854 107.831,24.013 107.924,24.131 108.043,24.225 108.176,24.291 108.321,24.316 108.479,24.291 108.637,24.237 
		108.743,24.145 108.809,24.065 108.85,24.013 108.875,23.959 109.247,24.37 109.206,24.422 109.141,24.501 109.022,24.607 
		108.823,24.739 108.584,24.833 108.321,24.858 108.096,24.833 107.858,24.753 107.594,24.594 107.368,24.356 107.209,24.04 
		107.17,23.84 107.157,23.655 107.196,23.272 107.329,22.941 107.54,22.69 107.778,22.519 108.043,22.413 108.333,22.374 
		108.612,22.413 108.862,22.505 109.047,22.638 109.167,22.756 109.219,22.822 	"/>
	<polygon fill="none" stroke="#007DC5" stroke-width="0.039" points="109.26,22.875 108.875,23.286 108.85,23.246 108.823,23.18 
		108.758,23.101 108.637,23.007 108.493,22.941 108.321,22.928 108.149,22.955 107.991,23.035 107.885,23.153 107.805,23.286 
		107.752,23.47 107.739,23.655 107.766,23.854 107.831,24.013 107.924,24.131 108.043,24.225 108.176,24.291 108.321,24.316 
		108.479,24.291 108.637,24.237 108.743,24.145 108.809,24.065 108.85,24.013 108.875,23.959 109.247,24.37 109.206,24.422 
		109.141,24.501 109.022,24.607 108.823,24.739 108.584,24.833 108.321,24.858 108.096,24.833 107.858,24.753 107.594,24.594 
		107.368,24.356 107.209,24.04 107.17,23.84 107.157,23.655 107.196,23.272 107.329,22.941 107.54,22.69 107.778,22.519 
		108.043,22.413 108.333,22.374 108.612,22.413 108.862,22.505 109.047,22.638 109.167,22.756 109.219,22.822 	"/>
	<polygon fill="#FFFFFF" points="110.239,21.606 110.833,21.606 110.833,22.809 110.86,22.77 110.899,22.73 110.965,22.651 
		111.057,22.571 111.165,22.505 111.268,22.452 111.389,22.426 111.506,22.413 111.614,22.426 111.731,22.439 111.864,22.479 
		111.983,22.545 112.116,22.651 112.221,22.783 112.288,22.915 112.327,23.061 112.354,23.206 112.354,23.405 112.354,24.846 
		111.772,24.846 111.772,23.524 111.758,23.391 111.731,23.272 111.706,23.166 111.653,23.074 111.586,23.008 111.495,22.968 
		111.415,22.942 111.309,22.929 111.204,22.955 111.096,22.995 111.004,23.061 110.938,23.14 110.874,23.246 110.846,23.352 
		110.833,23.457 110.833,23.59 110.833,24.846 110.239,24.846 	"/>
	<polygon fill="none" stroke="#007DC5" stroke-width="0.039" points="110.239,21.606 110.833,21.606 110.833,22.809 110.86,22.77 
		110.899,22.73 110.965,22.651 111.057,22.571 111.165,22.505 111.268,22.452 111.389,22.426 111.506,22.413 111.614,22.426 
		111.731,22.439 111.864,22.479 111.983,22.545 112.116,22.651 112.221,22.783 112.288,22.915 112.327,23.061 112.354,23.206 
		112.354,23.405 112.354,24.846 111.772,24.846 111.772,23.524 111.758,23.391 111.731,23.272 111.706,23.166 111.653,23.074 
		111.586,23.008 111.495,22.968 111.415,22.942 111.309,22.929 111.204,22.955 111.096,22.995 111.004,23.061 110.938,23.14 
		110.874,23.246 110.846,23.352 110.833,23.457 110.833,23.59 110.833,24.846 110.239,24.846 	"/>
	<path fill="#FFFFFF" d="M114.364,24.872l-0.252-0.04l-0.25-0.105l-0.238-0.199l-0.172-0.277l-0.107-0.318l-0.025-0.33l0.039-0.331
		l0.094-0.291l0.172-0.251l0.238-0.198l0.25-0.106l0.266-0.04l0.264,0.04l0.264,0.106l0.225,0.172l0.172,0.251l0.107,0.304
		l0.039,0.344l-0.039,0.344l-0.107,0.304l-0.172,0.277l-0.238,0.199l-0.264,0.105L114.364,24.872z M114.508,24.33l0.119-0.066
		l0.107-0.119l0.078-0.146l0.039-0.198V23.59l-0.012-0.199l-0.041-0.172l-0.064-0.132l-0.094-0.106l-0.133-0.066l-0.131-0.026
		l-0.133,0.026l-0.119,0.066l-0.092,0.106l-0.066,0.132l-0.041,0.172l-0.025,0.212l0.014,0.198l0.039,0.172l0.066,0.159l0.092,0.119
		l0.119,0.079l0.133,0.026L114.508,24.33z"/>
	<path fill="none" stroke="#007DC5" stroke-width="0.039" d="M114.364,24.872l-0.252-0.04l-0.25-0.105l-0.238-0.199l-0.172-0.277
		l-0.107-0.318l-0.025-0.33l0.039-0.331l0.094-0.291l0.172-0.251l0.238-0.198l0.25-0.106l0.266-0.04l0.264,0.04l0.264,0.106
		l0.225,0.172l0.172,0.251l0.107,0.304l0.039,0.344l-0.039,0.344l-0.107,0.304l-0.172,0.277l-0.238,0.199l-0.264,0.105
		L114.364,24.872z M114.508,24.33l0.119-0.066l0.107-0.119l0.078-0.146l0.039-0.198V23.59l-0.012-0.199l-0.041-0.172l-0.064-0.132
		l-0.094-0.106l-0.133-0.066l-0.131-0.026l-0.133,0.026l-0.119,0.066l-0.092,0.106l-0.066,0.132l-0.041,0.172l-0.025,0.212
		l0.014,0.198l0.039,0.172l0.066,0.159l0.092,0.119l0.119,0.079l0.133,0.026L114.508,24.33z"/>
	<path fill="#FFFFFF" d="M117.208,24.872l-0.252-0.04l-0.252-0.105l-0.238-0.199l-0.186-0.277l-0.092-0.318l-0.027-0.33l0.027-0.331
		l0.105-0.291l0.172-0.251l0.238-0.198l0.252-0.106l0.264-0.04l0.264,0.04l0.252,0.106l0.227,0.172l0.17,0.251l0.105,0.304
		l0.041,0.344l-0.027,0.344l-0.105,0.304l-0.172,0.277l-0.238,0.199l-0.264,0.105L117.208,24.872z M117.338,24.33l0.133-0.066
		l0.105-0.119l0.066-0.146l0.039-0.198l0.014-0.211l-0.014-0.199l-0.039-0.172l-0.08-0.132l-0.092-0.106l-0.119-0.066l-0.133-0.026
		l-0.131,0.026l-0.119,0.066l-0.094,0.106l-0.066,0.132l-0.053,0.172l-0.014,0.212l0.014,0.198l0.027,0.172l0.066,0.159l0.105,0.119
		l0.119,0.079l0.133,0.026L117.338,24.33z"/>
	<path fill="none" stroke="#007DC5" stroke-width="0.039" d="M117.208,24.872l-0.252-0.04l-0.252-0.105l-0.238-0.199l-0.186-0.277
		l-0.092-0.318l-0.027-0.33l0.027-0.331l0.105-0.291l0.172-0.251l0.238-0.198l0.252-0.106l0.264-0.04l0.264,0.04l0.252,0.106
		l0.227,0.172l0.17,0.251l0.105,0.304l0.041,0.344l-0.027,0.344l-0.105,0.304l-0.172,0.277l-0.238,0.199l-0.264,0.105
		L117.208,24.872z M117.338,24.33l0.133-0.066l0.105-0.119l0.066-0.146l0.039-0.198l0.014-0.211l-0.014-0.199l-0.039-0.172
		l-0.08-0.132l-0.092-0.106l-0.119-0.066l-0.133-0.026l-0.131,0.026l-0.119,0.066l-0.094,0.106l-0.066,0.132l-0.053,0.172
		l-0.014,0.212l0.014,0.198l0.027,0.172l0.066,0.159l0.105,0.119l0.119,0.079l0.133,0.026L117.338,24.33z"/>
	<polygon fill="#FFFFFF" points="119.85,22.399 119.85,22.584 119.905,22.544 119.969,22.505 120.049,22.465 120.168,22.425 
		120.301,22.387 120.432,22.374 120.579,22.387 120.75,22.425 120.95,22.519 121.12,22.664 121.252,22.835 121.319,23.007 
		121.358,23.192 121.358,23.404 121.358,24.846 120.79,24.846 120.79,23.404 120.737,23.219 120.643,23.073 120.499,22.968 
		120.315,22.941 120.141,22.981 119.983,23.073 119.891,23.232 119.85,23.404 119.85,24.846 119.268,24.846 119.268,22.399 	"/>
	<polygon fill="none" stroke="#007DC5" stroke-width="0.039" points="119.85,22.399 119.85,22.584 119.905,22.544 119.969,22.505 
		120.049,22.465 120.168,22.425 120.301,22.387 120.432,22.374 120.579,22.387 120.75,22.425 120.95,22.519 121.12,22.664 
		121.252,22.835 121.319,23.007 121.358,23.192 121.358,23.404 121.358,24.846 120.79,24.846 120.79,23.404 120.737,23.219 
		120.643,23.073 120.499,22.968 120.315,22.941 120.141,22.981 119.983,23.073 119.891,23.232 119.85,23.404 119.85,24.846 
		119.268,24.846 119.268,22.399 	"/>
	<polygon fill="#FFFFFF" points="122.602,21.606 123.196,21.606 123.196,22.809 123.223,22.77 123.262,22.73 123.329,22.651 
		123.42,22.571 123.514,22.505 123.631,22.452 123.739,22.426 123.858,22.413 123.977,22.426 124.096,22.439 124.227,22.479 
		124.346,22.545 124.479,22.651 124.584,22.783 124.651,22.915 124.69,23.061 124.704,23.206 124.717,23.405 124.717,24.846 
		124.122,24.846 124.122,23.524 124.122,23.391 124.096,23.272 124.069,23.166 124.002,23.074 123.936,23.008 123.858,22.968 
		123.766,22.942 123.672,22.929 123.567,22.955 123.459,22.995 123.368,23.061 123.29,23.14 123.237,23.246 123.209,23.352 
		123.196,23.457 123.196,23.59 123.196,24.846 122.602,24.846 	"/>
	<polygon fill="none" stroke="#007DC5" stroke-width="0.039" points="122.602,21.606 123.196,21.606 123.196,22.809 123.223,22.77 
		123.262,22.73 123.329,22.651 123.42,22.571 123.514,22.505 123.631,22.452 123.739,22.426 123.858,22.413 123.977,22.426 
		124.096,22.439 124.227,22.479 124.346,22.545 124.479,22.651 124.584,22.783 124.651,22.915 124.69,23.061 124.704,23.206 
		124.717,23.405 124.717,24.846 124.122,24.846 124.122,23.524 124.122,23.391 124.096,23.272 124.069,23.166 124.002,23.074 
		123.936,23.008 123.858,22.968 123.766,22.942 123.672,22.929 123.567,22.955 123.459,22.995 123.368,23.061 123.29,23.14 
		123.237,23.246 123.209,23.352 123.196,23.457 123.196,23.59 123.196,24.846 122.602,24.846 	"/>
	<path fill="#FFFFFF" d="M126.727,24.872l-0.25-0.04l-0.252-0.105l-0.238-0.199l-0.186-0.277l-0.094-0.318l-0.025-0.33l0.041-0.331
		l0.092-0.291l0.172-0.251l0.238-0.198l0.252-0.106l0.264-0.04l0.264,0.04l0.266,0.106l0.225,0.172l0.158,0.251l0.119,0.304
		l0.039,0.344l-0.039,0.344l-0.107,0.304l-0.17,0.277l-0.24,0.199l-0.264,0.105L126.727,24.872z M126.872,24.33l0.119-0.066
		l0.107-0.119l0.078-0.146l0.039-0.198V23.59l-0.012-0.199l-0.041-0.172l-0.064-0.132l-0.107-0.106l-0.119-0.066l-0.131-0.026
		l-0.133,0.026l-0.119,0.066l-0.092,0.106l-0.066,0.132l-0.053,0.172l-0.014,0.212l0.014,0.198l0.025,0.172l0.08,0.159l0.094,0.119
		l0.117,0.079l0.133,0.026L126.872,24.33z"/>
	<path fill="none" stroke="#007DC5" stroke-width="0.039" d="M126.727,24.872l-0.25-0.04l-0.252-0.105l-0.238-0.199l-0.186-0.277
		l-0.094-0.318l-0.025-0.33l0.041-0.331l0.092-0.291l0.172-0.251l0.238-0.198l0.252-0.106l0.264-0.04l0.264,0.04l0.266,0.106
		l0.225,0.172l0.158,0.251l0.119,0.304l0.039,0.344l-0.039,0.344l-0.107,0.304l-0.17,0.277l-0.24,0.199l-0.264,0.105L126.727,24.872
		z M126.872,24.33l0.119-0.066l0.107-0.119l0.078-0.146l0.039-0.198V23.59l-0.012-0.199l-0.041-0.172l-0.064-0.132l-0.107-0.106
		l-0.119-0.066l-0.131-0.026l-0.133,0.026l-0.119,0.066l-0.092,0.106l-0.066,0.132l-0.053,0.172l-0.014,0.212l0.014,0.198
		l0.025,0.172l0.08,0.159l0.094,0.119l0.117,0.079l0.133,0.026L126.872,24.33z"/>
	<polygon fill="#FFFFFF" points="130.918,22.413 130.006,24.846 129.397,24.846 128.499,22.413 129.106,22.413 129.702,24.013 
		130.297,22.413 	"/>
	<polygon fill="none" stroke="#007DC5" stroke-width="0.039" points="130.918,22.413 130.006,24.846 129.397,24.846 128.499,22.413 
		129.106,22.413 129.702,24.013 130.297,22.413 	"/>
	<path fill="#FFFFFF" d="M133.616,23.761h-1.467v0.066v0.066l0.025,0.106l0.039,0.119l0.08,0.093l0.092,0.079l0.094,0.053
		l0.105,0.013h0.105l0.105-0.026l0.094-0.04l0.066-0.04l0.053-0.039l0.039-0.04l0.396,0.317l-0.053,0.053l-0.078,0.067l-0.135,0.092
		l-0.197,0.093l-0.211,0.053l-0.213,0.013l-0.236-0.04l-0.238-0.106l-0.211-0.158l-0.16-0.225l-0.105-0.318l-0.053-0.37l0.039-0.383
		l0.107-0.331l0.158-0.225l0.211-0.171l0.238-0.106l0.277-0.04l0.264,0.027l0.266,0.105l0.252,0.199l0.092,0.119l0.066,0.132
		l0.08,0.304l0.025,0.251v0.093l-0.014,0.053V23.761z M133.034,23.272l-0.012-0.066l-0.027-0.053l-0.039-0.079l-0.066-0.066
		l-0.08-0.067l-0.105-0.039l-0.105-0.013l-0.119,0.013l-0.094,0.039l-0.078,0.067l-0.053,0.066l-0.041,0.079l-0.025,0.053
		l-0.014,0.053l-0.014,0.066h0.887L133.034,23.272z"/>
	<path fill="none" stroke="#007DC5" stroke-width="0.039" d="M133.616,23.761h-1.467v0.066v0.066l0.025,0.106l0.039,0.119
		l0.08,0.093l0.092,0.079l0.094,0.053l0.105,0.013h0.105l0.105-0.026l0.094-0.04l0.066-0.04l0.053-0.039l0.039-0.04l0.396,0.317
		l-0.053,0.053l-0.078,0.067l-0.135,0.092l-0.197,0.093l-0.211,0.053l-0.213,0.013l-0.236-0.04l-0.238-0.106l-0.211-0.158
		l-0.16-0.225l-0.105-0.318l-0.053-0.37l0.039-0.383l0.107-0.331l0.158-0.225l0.211-0.171l0.238-0.106l0.277-0.04l0.264,0.027
		l0.266,0.105l0.252,0.199l0.092,0.119l0.066,0.132l0.08,0.304l0.025,0.251v0.093l-0.014,0.053V23.761z M133.034,23.272
		l-0.012-0.066l-0.027-0.053l-0.039-0.079l-0.066-0.066l-0.08-0.067l-0.105-0.039l-0.105-0.013l-0.119,0.013l-0.094,0.039
		l-0.078,0.067l-0.053,0.066l-0.041,0.079l-0.025,0.053l-0.014,0.053l-0.014,0.066h0.887L133.034,23.272z"/>
	<polygon fill="#FFFFFF" points="135.229,22.399 135.229,22.584 135.282,22.544 135.348,22.505 135.426,22.465 135.547,22.425 
		135.678,22.387 135.811,22.374 135.956,22.387 136.127,22.425 136.327,22.519 136.499,22.664 136.631,22.835 136.698,23.007 
		136.723,23.192 136.737,23.404 136.737,24.846 136.155,24.846 136.155,23.404 136.116,23.219 136.022,23.073 135.877,22.968 
		135.692,22.941 135.52,22.981 135.362,23.073 135.27,23.232 135.229,23.404 135.229,24.846 134.647,24.846 134.647,22.399 	"/>
	<polygon fill="none" stroke="#007DC5" stroke-width="0.039" points="135.229,22.399 135.229,22.584 135.282,22.544 135.348,22.505 
		135.426,22.465 135.547,22.425 135.678,22.387 135.811,22.374 135.956,22.387 136.127,22.425 136.327,22.519 136.499,22.664 
		136.631,22.835 136.698,23.007 136.723,23.192 136.737,23.404 136.737,24.846 136.155,24.846 136.155,23.404 136.116,23.219 
		136.022,23.073 135.877,22.968 135.692,22.941 135.52,22.981 135.362,23.073 135.27,23.232 135.229,23.404 135.229,24.846 
		134.647,24.846 134.647,22.399 	"/>
	<polygon fill="#FFFFFF" points="104.604,44.032 104.354,43.979 104.157,43.847 104.01,43.635 103.969,43.396 103.969,39.231 
		104.01,38.994 104.157,38.783 104.354,38.649 104.592,38.597 114.799,38.597 115.038,38.649 115.249,38.783 115.381,38.994 
		115.42,39.231 115.42,43.396 115.381,43.635 115.249,43.847 115.038,43.979 114.799,44.032 	"/>
	<polygon fill="#ED1C24" points="104.592,43.754 104.459,43.727 104.34,43.648 104.26,43.529 104.235,43.397 104.235,39.232 
		104.26,39.099 104.34,38.981 104.459,38.901 104.592,38.875 114.799,38.875 114.932,38.901 115.051,38.981 115.131,39.099 
		115.157,39.232 115.157,43.397 115.131,43.529 115.051,43.648 114.932,43.727 114.799,43.754 	"/>
	<polygon fill="#FFFFFF" points="114.086,39.946 114.086,40.395 114.034,40.449 113.954,40.528 113.887,40.607 113.807,40.726 
		113.61,41.03 113.438,41.374 113.305,41.744 113.213,42.141 113.186,42.326 113.174,42.472 113.174,42.564 113.174,42.617 
		113.174,42.683 112.723,42.683 112.723,42.604 112.723,42.551 112.723,42.472 112.737,42.339 112.75,42.181 112.817,41.824 
		112.936,41.44 113.067,41.096 113.227,40.805 113.293,40.673 113.358,40.594 113.438,40.475 113.491,40.395 111.891,40.395 
		111.891,39.946 	"/>
	<polygon fill="none" stroke="#ED1C24" stroke-width="0.055" points="114.086,39.946 114.086,40.395 114.034,40.449 113.954,40.528 
		113.887,40.607 113.807,40.726 113.61,41.03 113.438,41.374 113.305,41.744 113.213,42.141 113.186,42.326 113.174,42.472 
		113.174,42.564 113.174,42.617 113.174,42.683 112.723,42.683 112.723,42.604 112.723,42.551 112.723,42.472 112.737,42.339 
		112.75,42.181 112.817,41.824 112.936,41.44 113.067,41.096 113.227,40.805 113.293,40.673 113.358,40.594 113.438,40.475 
		113.491,40.395 111.891,40.395 111.891,39.946 	"/>
	<polygon fill="#FFFFFF" points="111.323,42.233 111.323,42.684 109.127,42.684 109.127,42.577 109.141,42.458 109.153,42.353 
		109.194,42.22 109.299,41.956 109.418,41.757 109.563,41.572 109.762,41.387 109.973,41.254 110.186,41.162 110.411,41.096 
		110.542,41.056 110.633,41.03 110.713,41.003 110.78,40.95 110.833,40.884 110.872,40.805 110.872,40.727 110.86,40.633 
		110.821,40.554 110.741,40.475 110.622,40.408 110.436,40.369 110.225,40.355 110.04,40.369 109.854,40.408 109.682,40.475 
		109.549,40.554 109.485,40.607 109.418,40.659 109.127,40.329 109.194,40.276 109.258,40.223 109.432,40.117 109.657,40.011 
		109.92,39.945 110.211,39.919 110.489,39.932 110.752,39.999 111.004,40.117 111.19,40.29 111.282,40.501 111.323,40.712 
		111.309,40.898 111.256,41.056 111.163,41.202 111.059,41.307 110.899,41.4 110.713,41.466 110.516,41.532 110.317,41.585 
		110.186,41.638 110.053,41.717 109.92,41.849 109.788,41.982 109.723,42.088 109.696,42.167 109.668,42.233 	"/>
	<polygon fill="none" stroke="#ED1C24" stroke-width="0.055" points="111.323,42.233 111.323,42.684 109.127,42.684 109.127,42.577 
		109.141,42.458 109.153,42.353 109.194,42.22 109.299,41.956 109.418,41.757 109.563,41.572 109.762,41.387 109.973,41.254 
		110.186,41.162 110.411,41.096 110.542,41.056 110.633,41.03 110.713,41.003 110.78,40.95 110.833,40.884 110.872,40.805 
		110.872,40.727 110.86,40.633 110.821,40.554 110.741,40.475 110.622,40.408 110.436,40.369 110.225,40.355 110.04,40.369 
		109.854,40.408 109.682,40.475 109.549,40.554 109.485,40.607 109.418,40.659 109.127,40.329 109.194,40.276 109.258,40.223 
		109.432,40.117 109.657,40.011 109.92,39.945 110.211,39.919 110.489,39.932 110.752,39.999 111.004,40.117 111.19,40.29 
		111.282,40.501 111.323,40.712 111.309,40.898 111.256,41.056 111.163,41.202 111.059,41.307 110.899,41.4 110.713,41.466 
		110.516,41.532 110.317,41.585 110.186,41.638 110.053,41.717 109.92,41.849 109.788,41.982 109.723,42.088 109.696,42.167 
		109.668,42.233 	"/>
	<path fill="#FFFFFF" d="M106.694,40.581l0.41,0.978h-0.832L106.694,40.581z M106.469,39.946l-1.15,2.737h0.475l0.279-0.674h1.217
		l0.277,0.674h0.49l-1.152-2.737H106.469z"/>
	<path fill="none" stroke="#ED1C24" stroke-width="0.055" d="M106.694,40.581l0.41,0.978h-0.832L106.694,40.581z M106.469,39.946
		l-1.15,2.737h0.475l0.279-0.674h1.217l0.277,0.674h0.49l-1.152-2.737H106.469z"/>
	<polygon fill="#007DC5" points="43.694,29.143 43.694,25.771 40.323,25.771 7.804,25.771 4.433,25.771 4.433,29.143 4.433,43.598 
		4.433,46.983 7.804,46.983 40.323,46.983 43.694,46.983 43.694,43.598 	"/>
	<path fill="#FFFFFF" d="M7.366,46.655H6.388H5.448H4.55H3.69H2.884H2.116H1.39H0.715H0.067H0h7.519H7.366z M7.519,46.655h0.039
		h0.08h0.133h0.17H8.14h0.265h0.304h0.331h0.383h0.425h0.476h0.516H7.519z M0,46.153h0.08h0.647h0.676H2.13h0.768h0.806H4.55h0.912
		h0.68H0z M5.462,26.579H4.55H3.703H2.897H2.13H1.403H0.728H0.08H0h6.117H5.462z M6.117,26.579l-0.463,0.397l-0.384,0.463
		l-0.291,0.515l-0.158,0.582l-0.066,0.595v14.457l0.066,0.608l0.158,0.569l0.291,0.529l0.384,0.476l0.463,0.37l0.024,0.013h4.709
		h-0.516H9.872H9.449H9.065h-0.33H8.444H8.192H7.981H7.81H7.69H7.61H7.571l-0.305-0.053l-0.422-0.146L6.408,45.73l-0.397-0.331
		l-0.318-0.383l-0.237-0.45L5.31,44.09l-0.039-0.502V29.131l0.039-0.489l0.146-0.476l0.237-0.45l0.318-0.383l0.397-0.331
		l0.437-0.224l0.422-0.146l0.305-0.053H7.61h0.08H7.81h0.172h0.211h0.252h0.291h0.33h0.384h0.423h0.463h0.516H6.117z M0,26.077
		h0.067h0.647H1.39h0.727h0.768H3.69H4.55h0.898h0.939h0.959H0z M10.322,26.077H9.847H9.422H9.039H8.708H8.404H8.14H7.94h-0.17
		H7.638h-0.08H7.519H7.347h3.491H10.322z M40.646,26.077h-0.039h-0.08h-0.133h-0.172h-0.197h-0.266h-0.304h-0.331h-0.383h-0.424
		h-0.475h-0.517h-0.542h-0.596h-0.647h-0.674H34.14h-0.767h-0.808h-0.858h-0.899h-0.938h-0.978h-1.019h-1.071H25.69h-1.164h-1.188
		h-1.243h-1.283H19.49h-1.362h-1.361h-1.322h-1.282h-1.243h-1.189h-1.164h-1.11H8.384H7.366h-0.02L7.147,26.13l-0.225,0.066
		l-0.277,0.106l-0.528,0.277h0.271h0.979h1.031h1.058h1.11h1.164h1.189h1.243h1.282h1.322h1.361h1.362h1.321h1.283h1.243h1.188
		h1.164h1.111h1.057h1.033h0.978h0.926h0.912h0.847h0.807h0.766h0.729h0.674h0.648h0.58h0.557h0.516h0.463h0.423h0.384h0.33h0.291
		h0.252h0.211h0.172h0.119h0.078h0.041l0.303,0.053l0.424,0.146l0.437,0.224l0.396,0.331l0.318,0.383l0.238,0.45l0.145,0.476
		l0.041,0.489v14.457l-0.041,0.502l-0.145,0.476l-0.238,0.45l-0.318,0.383l-0.396,0.331l-0.437,0.224l-0.424,0.146l-0.303,0.053
		h-0.041h-0.078h-0.119h-0.172h-0.211H39.72h-0.291h-0.33h-0.384h-0.423h-0.463h-0.516h-0.557h-0.58h-0.648h-0.674h-0.729H33.36
		h-0.807h-0.847h-0.912h-0.926h-0.978h-1.033h-1.057H25.69h-1.164h-1.188h-1.243h-1.283H19.49h-1.362h-1.361h-1.322h-1.282h-1.243
		h-1.189h-1.164h-1.11H8.397H7.366H6.388H6.142l0.504,0.278l0.277,0.105l0.225,0.067l0.199,0.039l0.172,0.013h0.865h1.071h1.11
		h1.164h1.189h1.243h1.282h1.322h1.361h1.362h1.321h1.283h1.243h1.188h1.164h1.111h1.071h1.019h0.978h0.938h0.899h0.858h0.808h0.767
		h0.728h0.674h0.647h0.596h0.542h0.517h0.475h0.424h0.383h0.331h0.304h0.266h0.197h0.172h0.133h0.08h0.039l0.172-0.013l0.197-0.039
		l0.226-0.067l0.278-0.105l0.529-0.291l0.463-0.37l0.383-0.476l0.291-0.529l0.158-0.569l0.066-0.608V29.131l-0.066-0.595
		l-0.158-0.582l-0.291-0.515l-0.383-0.463l-0.463-0.397l-0.529-0.277l-0.278-0.106l-0.226-0.066l-0.197-0.053H40.646z"/>
	<polygon fill="#FFFFFF" points="22.603,42.515 22.805,42.477 22.978,42.371 23.083,42.208 23.122,41.996 23.122,38.546 
		23.083,38.344 22.978,38.181 22.805,38.075 22.603,38.027 15.165,38.027 14.963,38.075 14.79,38.181 14.674,38.344 14.646,38.546 
		14.646,41.996 14.674,42.208 14.79,42.371 14.963,42.477 15.165,42.515 	"/>
	<polygon fill="#ED1C24" points="15.164,42.304 15.05,42.285 14.953,42.218 14.886,42.112 14.866,41.996 14.866,38.546 
		14.886,38.441 14.953,38.335 15.05,38.268 15.164,38.248 22.603,38.248 22.718,38.268 22.813,38.335 22.882,38.441 22.9,38.546 
		22.9,41.996 22.882,42.112 22.813,42.218 22.718,42.285 22.603,42.304 	"/>
	<polygon fill="#FFFFFF" points="19.268,39.133 19.249,39.162 19.229,39.19 19.191,39.229 19.134,39.277 19.065,39.315 
		19.009,39.334 18.96,39.354 18.913,39.373 18.913,39.661 19.22,39.661 19.22,41.411 19.595,41.411 19.595,39.133 	"/>
	<polygon fill="none" stroke="#ED1C24" stroke-width="0.055" points="19.595,39.132 19.595,41.411 19.22,41.411 19.22,39.662 
		18.913,39.662 18.913,39.373 18.96,39.354 19.009,39.334 19.066,39.315 19.134,39.276 19.191,39.229 19.229,39.19 19.249,39.162 
		19.268,39.132 	"/>
	<path fill="#FFFFFF" d="M17.077,39.142l0.941,2.268h-0.395l-0.24-0.557h-0.998l-0.231,0.557H15.75l0.962-2.268H17.077z
		 M16.548,40.478h0.682l-0.325-0.817L16.548,40.478z"/>
	<path fill="none" stroke="#ED1C24" stroke-width="0.055" d="M17.077,39.142l0.941,2.268h-0.395l-0.24-0.557h-0.998l-0.231,0.557
		H15.75l0.962-2.268H17.077z M16.548,40.478h0.682l-0.325-0.817L16.548,40.478z"/>
	<polygon fill="#FFFFFF" points="32.823,42.513 33.022,42.475 33.194,42.37 33.3,42.209 33.337,41.999 33.337,38.541 33.3,38.341 
		33.194,38.179 33.022,38.075 32.823,38.027 24.293,38.027 24.093,38.075 23.922,38.179 23.808,38.341 23.779,38.541 23.779,41.999 
		23.808,42.209 23.922,42.37 24.093,42.475 24.293,42.513 	"/>
	<polygon fill="#00A651" points="24.335,42.318 24.214,42.282 24.105,42.221 24.032,42.112 24.009,41.991 24.009,38.572 
		24.032,38.451 24.105,38.342 24.214,38.27 24.335,38.245 32.802,38.245 32.923,38.27 33.031,38.342 33.104,38.451 33.128,38.572 
		33.128,41.991 33.104,42.112 33.031,42.221 32.923,42.282 32.802,42.318 	"/>
	<polygon fill="#FFFFFF" points="29.208,40.134 29.245,40.17 29.294,40.218 29.342,40.291 29.401,40.4 29.438,40.521 29.45,40.654 
		29.438,40.799 29.39,40.933 29.294,41.09 29.148,41.211 28.991,41.296 28.846,41.357 28.688,41.393 28.519,41.405 28.313,41.381 
		28.083,41.296 27.878,41.163 27.792,41.102 27.731,41.03 27.684,40.969 27.659,40.921 27.962,40.727 27.985,40.775 28.034,40.824 
		28.118,40.897 28.241,40.969 28.374,41.018 28.53,41.042 28.688,41.018 28.833,40.969 28.954,40.909 29.038,40.836 29.075,40.739 
		29.1,40.654 29.075,40.582 29.052,40.509 28.979,40.436 28.907,40.388 28.821,40.364 28.725,40.352 28.542,40.352 28.542,39.989 
		28.725,39.989 28.784,39.989 28.833,39.964 28.894,39.928 28.942,39.88 28.967,39.819 28.967,39.758 28.954,39.674 28.917,39.613 
		28.857,39.553 28.772,39.504 28.676,39.468 28.542,39.468 28.434,39.48 28.313,39.504 28.204,39.553 28.118,39.601 28.083,39.638 
		28.046,39.674 27.792,39.432 27.816,39.383 27.878,39.347 27.985,39.25 28.155,39.178 28.325,39.117 28.542,39.105 28.772,39.129 
		28.979,39.202 29.148,39.311 29.257,39.468 29.317,39.613 29.342,39.758 29.305,39.916 29.27,40.037 29.245,40.097 	"/>
	<polygon fill="none" stroke="#00A651" stroke-width="0.055" points="29.208,40.134 29.245,40.17 29.294,40.218 29.342,40.291 
		29.401,40.4 29.438,40.521 29.45,40.654 29.438,40.799 29.39,40.933 29.294,41.09 29.148,41.211 28.991,41.296 28.846,41.357 
		28.688,41.393 28.519,41.405 28.313,41.381 28.083,41.296 27.878,41.163 27.792,41.102 27.731,41.03 27.684,40.969 27.659,40.921 
		27.962,40.727 27.985,40.775 28.034,40.824 28.118,40.897 28.241,40.969 28.374,41.018 28.53,41.042 28.688,41.018 28.833,40.969 
		28.954,40.909 29.038,40.836 29.075,40.739 29.1,40.654 29.075,40.582 29.052,40.509 28.979,40.436 28.907,40.388 28.821,40.364 
		28.725,40.352 28.542,40.352 28.542,39.989 28.725,39.989 28.784,39.989 28.833,39.964 28.894,39.928 28.942,39.88 28.967,39.819 
		28.967,39.758 28.954,39.674 28.917,39.613 28.857,39.553 28.772,39.504 28.676,39.468 28.542,39.468 28.434,39.48 28.313,39.504 
		28.204,39.553 28.118,39.601 28.083,39.638 28.046,39.674 27.792,39.432 27.816,39.383 27.878,39.347 27.985,39.25 28.155,39.178 
		28.325,39.117 28.542,39.105 28.772,39.129 28.979,39.202 29.148,39.311 29.257,39.468 29.317,39.613 29.342,39.758 29.305,39.916 
		29.27,40.037 29.245,40.097 	"/>
	<polygon fill="#FFFFFF" points="26.751,39.129 26.751,39.504 25.492,39.504 25.492,40.013 26.206,40.013 26.206,40.376 
		25.492,40.376 25.492,41.017 26.774,41.017 26.774,41.393 25.129,41.393 25.129,40.255 25.129,39.129 	"/>
	<polygon fill="none" stroke="#00A651" stroke-width="0.055" points="26.751,39.129 26.751,39.504 25.492,39.504 25.492,40.013 
		26.206,40.013 26.206,40.376 25.492,40.376 25.492,41.017 26.774,41.017 26.774,41.393 25.129,41.393 25.129,40.255 25.129,39.129 
			"/>
	<polygon fill="#FFFFFF" points="10.584,42.644 10.679,44.81 9.288,44.81 9.391,42.644 7.872,43 7.786,43 7.698,42.968 
		7.628,42.905 7.596,42.818 7.596,42.723 7.628,42.636 9.786,39.514 9.817,39.482 9.849,39.45 9.897,39.427 9.936,39.411 
		9.991,39.411 10.03,39.411 10.077,39.427 10.118,39.45 10.157,39.482 10.188,39.514 12.347,42.636 12.378,42.723 12.378,42.818 
		12.339,42.905 12.276,42.968 12.188,43 12.094,43 	"/>
	<polygon fill="#FFFFFF" points="38.774,42.644 38.869,44.81 37.478,44.81 37.581,42.644 36.063,43 35.976,43 35.89,42.968 
		35.818,42.905 35.786,42.818 35.786,42.723 35.818,42.636 37.976,39.514 38.007,39.482 38.039,39.45 38.087,39.427 38.126,39.411 
		38.181,39.411 38.222,39.411 38.269,39.427 38.308,39.45 38.349,39.482 38.38,39.514 40.537,42.636 40.568,42.723 40.568,42.818 
		40.529,42.905 40.466,42.968 40.38,43 40.284,43 	"/>
	<path fill="#FFFFFF" d="M18.241,31.188H17.74l-0.28-0.667h-1.261l-0.282,0.667h-0.502l1.172-2.796h0.482L18.241,31.188z
		 M16.392,30.058h0.873l-0.436-1.042L16.392,30.058z"/>
	<path fill="none" stroke="#007DC5" stroke-width="0.039" d="M18.241,31.188H17.74l-0.28-0.667h-1.261l-0.282,0.667h-0.502
		l1.172-2.796h0.482L18.241,31.188z M16.392,30.058h0.873l-0.436-1.042L16.392,30.058z"/>
	<path fill="#FFFFFF" d="M19.901,29.56c-0.237,0-0.434,0.192-0.434,0.433v1.195h-0.46v-2.08h0.46v0.211
		c0.143-0.146,0.303-0.245,0.525-0.245c0.172,0,0.264,0.046,0.348,0.114l-0.139,0.518C20.138,29.605,20.024,29.56,19.901,29.56"/>
	<path fill="none" stroke="#007DC5" stroke-width="0.039" d="M19.901,29.56c-0.237,0-0.434,0.192-0.434,0.433v1.195h-0.46v-2.08
		h0.46v0.211c0.143-0.146,0.303-0.245,0.525-0.245c0.172,0,0.264,0.046,0.348,0.114l-0.139,0.518
		C20.138,29.605,20.024,29.56,19.901,29.56z"/>
	<path fill="#FFFFFF" d="M21.005,31.188v-2.08h0.459v0.211c0.142-0.146,0.342-0.242,0.56-0.242c0.425,0,0.771,0.349,0.771,0.77
		v1.341h-0.461v-1.195c0-0.238-0.195-0.433-0.436-0.433c-0.238,0-0.434,0.195-0.434,0.433v1.195H21.005z"/>
	<path fill="none" stroke="#007DC5" stroke-width="0.039" d="M21.005,31.188v-2.08h0.459v0.211c0.142-0.146,0.342-0.242,0.56-0.242
		c0.425,0,0.771,0.349,0.771,0.77v1.341h-0.461v-1.195c0-0.238-0.195-0.433-0.436-0.433c-0.238,0-0.434,0.195-0.434,0.433v1.195
		H21.005z"/>
	<path fill="#FFFFFF" d="M24.33,28.303v1.015c0.138-0.145,0.325-0.237,0.544-0.237c0.425,0,0.762,0.344,0.762,0.77v1.337h-0.463
		v-1.196c0-0.237-0.184-0.432-0.422-0.432c-0.241,0-0.421,0.195-0.421,0.432v1.196h-0.464v-2.686L24.33,28.303z"/>
	<path fill="none" stroke="#007DC5" stroke-width="0.039" d="M24.33,28.303v1.015c0.138-0.145,0.325-0.237,0.544-0.237
		c0.425,0,0.762,0.344,0.762,0.77v1.337h-0.463v-1.196c0-0.237-0.184-0.432-0.422-0.432c-0.241,0-0.421,0.195-0.421,0.432v1.196
		h-0.464v-2.686L24.33,28.303z"/>
	<path fill="#FFFFFF" d="M27.368,31.214c-0.54,0-0.904-0.463-0.904-1.069c0-0.601,0.364-1.065,0.904-1.065
		c0.544,0,0.904,0.464,0.904,1.065c0,0.042,0,0.085-0.004,0.127h-1.307c0.031,0.287,0.172,0.509,0.406,0.509
		c0.191,0,0.295-0.046,0.391-0.161l0.348,0.272C27.908,31.104,27.663,31.214,27.368,31.214 M27.368,29.521
		c-0.215,0-0.337,0.157-0.387,0.383h0.777C27.709,29.678,27.586,29.521,27.368,29.521"/>
	<path fill="none" stroke="#007DC5" stroke-width="0.039" d="M27.368,31.214c-0.54,0-0.904-0.463-0.904-1.069
		c0-0.601,0.364-1.065,0.904-1.065c0.544,0,0.904,0.464,0.904,1.065c0,0.042,0,0.085-0.004,0.127h-1.307
		c0.031,0.287,0.172,0.509,0.406,0.509c0.191,0,0.295-0.046,0.391-0.161l0.348,0.272C27.908,31.104,27.663,31.214,27.368,31.214z
		 M27.368,29.521c-0.215,0-0.337,0.157-0.387,0.383h0.777C27.709,29.678,27.586,29.521,27.368,29.521z"/>
	<path fill="#FFFFFF" d="M30.177,29.081c0.244,0,0.463,0.115,0.604,0.295c0.142-0.18,0.36-0.295,0.604-0.295
		c0.427,0,0.771,0.345,0.771,0.77v1.337h-0.463v-1.222c0-0.226-0.18-0.406-0.401-0.406c-0.223,0-0.402,0.18-0.402,0.406v1.222
		h-0.465v-1.222c0-0.226-0.184-0.406-0.405-0.406s-0.401,0.18-0.401,0.406v1.222h-0.461v-2.08h0.461v0.214
		C29.759,29.173,29.958,29.081,30.177,29.081"/>
	<path fill="none" stroke="#007DC5" stroke-width="0.039" d="M30.177,29.081c0.244,0,0.463,0.115,0.604,0.295
		c0.142-0.18,0.36-0.295,0.604-0.295c0.427,0,0.771,0.345,0.771,0.77v1.337h-0.463v-1.222c0-0.226-0.18-0.406-0.401-0.406
		c-0.223,0-0.402,0.18-0.402,0.406v1.222h-0.465v-1.222c0-0.226-0.184-0.406-0.405-0.406s-0.401,0.18-0.401,0.406v1.222h-0.461
		v-2.08h0.461v0.214C29.759,29.173,29.958,29.081,30.177,29.081z"/>
	<path fill="#FFFFFF" d="M16.608,33.063v1.701c0,0.368,0.299,0.662,0.666,0.662c0.364,0,0.664-0.294,0.664-0.662v-1.701h0.463v1.701
		c0,0.624-0.506,1.126-1.127,1.126c-0.619,0-1.125-0.502-1.125-1.126v-1.701H16.608z"/>
	<path fill="none" stroke="#007DC5" stroke-width="0.039" d="M16.608,33.063v1.701c0,0.368,0.299,0.662,0.666,0.662
		c0.364,0,0.664-0.294,0.664-0.662v-1.701h0.463v1.701c0,0.624-0.506,1.126-1.127,1.126c-0.619,0-1.125-0.502-1.125-1.126v-1.701
		H16.608z"/>
	<path fill="#FFFFFF" d="M20.058,35.886c-0.273,0-0.49-0.222-0.49-0.49v-1.15h-0.373v-0.463h0.373v-0.498l0.459-0.196v0.694h0.521
		v0.463h-0.521v0.989c0,0.111,0.088,0.199,0.199,0.199c0.107,0,0.223-0.034,0.34-0.157l-0.106,0.509
		C20.394,35.825,20.325,35.886,20.058,35.886"/>
	<path fill="none" stroke="#007DC5" stroke-width="0.039" d="M20.058,35.886c-0.273,0-0.49-0.222-0.49-0.49v-1.15h-0.373v-0.463
		h0.373v-0.498l0.459-0.196v0.694h0.521v0.463h-0.521v0.989c0,0.111,0.088,0.199,0.199,0.199c0.107,0,0.223-0.034,0.34-0.157
		l-0.106,0.509C20.394,35.825,20.325,35.886,20.058,35.886z"/>
	<path fill="#FFFFFF" d="M22.333,34.23c-0.237,0-0.434,0.192-0.434,0.433v1.195h-0.46v-2.08h0.46v0.211
		c0.143-0.146,0.303-0.245,0.525-0.245c0.172,0,0.264,0.046,0.348,0.114l-0.138,0.518C22.569,34.276,22.456,34.23,22.333,34.23"/>
	<path fill="none" stroke="#007DC5" stroke-width="0.039" d="M22.333,34.23c-0.237,0-0.434,0.192-0.434,0.433v1.195h-0.46v-2.08
		h0.46v0.211c0.143-0.146,0.303-0.245,0.525-0.245c0.172,0,0.264,0.046,0.348,0.114l-0.138,0.518
		C22.569,34.276,22.456,34.23,22.333,34.23z"/>
	<path fill="#FFFFFF" d="M24.095,35.885c-0.539,0-0.904-0.463-0.904-1.069c0-0.601,0.365-1.065,0.904-1.065
		c0.545,0,0.904,0.464,0.904,1.065c0,0.043,0,0.085-0.004,0.127h-1.307c0.031,0.287,0.172,0.509,0.406,0.509
		c0.192,0,0.295-0.046,0.391-0.161l0.349,0.272C24.636,35.774,24.39,35.885,24.095,35.885 M24.095,34.192
		c-0.215,0-0.336,0.157-0.387,0.383h0.777C24.437,34.349,24.313,34.192,24.095,34.192"/>
	<path fill="none" stroke="#007DC5" stroke-width="0.039" d="M24.095,35.885c-0.539,0-0.904-0.463-0.904-1.069
		c0-0.601,0.365-1.065,0.904-1.065c0.545,0,0.904,0.464,0.904,1.065c0,0.043,0,0.085-0.004,0.127h-1.307
		c0.031,0.287,0.172,0.509,0.406,0.509c0.192,0,0.295-0.046,0.391-0.161l0.349,0.272C24.636,35.774,24.39,35.885,24.095,35.885z
		 M24.095,34.192c-0.215,0-0.336,0.157-0.387,0.383h0.777C24.437,34.349,24.313,34.192,24.095,34.192z"/>
	<path fill="#FFFFFF" d="M26.65,34.204c-0.282,0-0.513,0.276-0.513,0.613c0,0.341,0.23,0.613,0.513,0.613
		c0.199,0,0.388-0.127,0.472-0.326l0.345,0.345c-0.185,0.264-0.483,0.437-0.816,0.437c-0.559,0-1.011-0.479-1.011-1.069
		c0-0.586,0.452-1.065,1.011-1.065c0.326,0,0.617,0.165,0.802,0.417l-0.338,0.342C27.025,34.319,26.846,34.204,26.65,34.204"/>
	<path fill="none" stroke="#007DC5" stroke-width="0.039" d="M26.65,34.204c-0.282,0-0.513,0.276-0.513,0.613
		c0,0.341,0.23,0.613,0.513,0.613c0.199,0,0.388-0.127,0.472-0.326l0.345,0.345c-0.185,0.264-0.483,0.437-0.816,0.437
		c-0.559,0-1.011-0.479-1.011-1.069c0-0.586,0.452-1.065,1.011-1.065c0.326,0,0.617,0.165,0.802,0.417l-0.338,0.342
		C27.025,34.319,26.846,34.204,26.65,34.204z"/>
	<path fill="#FFFFFF" d="M28.792,32.974v1.015c0.139-0.145,0.325-0.237,0.545-0.237c0.424,0,0.762,0.344,0.762,0.77v1.337h-0.463
		v-1.196c0-0.237-0.185-0.432-0.422-0.432c-0.242,0-0.422,0.195-0.422,0.432v1.196h-0.464v-2.686L28.792,32.974z"/>
	<path fill="none" stroke="#007DC5" stroke-width="0.039" d="M28.792,32.974v1.015c0.139-0.145,0.325-0.237,0.545-0.237
		c0.424,0,0.762,0.344,0.762,0.77v1.337h-0.463v-1.196c0-0.237-0.185-0.432-0.422-0.432c-0.242,0-0.422,0.195-0.422,0.432v1.196
		h-0.464v-2.686L28.792,32.974z"/>
	<path fill="#FFFFFF" d="M31.742,35.886c-0.272,0-0.489-0.222-0.489-0.49v-1.15H30.88v-0.463h0.373v-0.498l0.459-0.196v0.694h0.521
		v0.463h-0.521v0.989c0,0.111,0.088,0.199,0.199,0.199c0.107,0,0.223-0.034,0.34-0.157l-0.106,0.509
		C32.079,35.825,32.011,35.886,31.742,35.886"/>
	<path fill="none" stroke="#007DC5" stroke-width="0.039" d="M31.742,35.886c-0.272,0-0.489-0.222-0.489-0.49v-1.15H30.88v-0.463
		h0.373v-0.498l0.459-0.196v0.694h0.521v0.463h-0.521v0.989c0,0.111,0.088,0.199,0.199,0.199c0.107,0,0.223-0.034,0.34-0.157
		l-0.106,0.509C32.079,35.825,32.011,35.886,31.742,35.886z"/>
	<polygon fill="#00A651" points="68.627,28.257 68.497,28.217 68.377,28.151 68.297,28.032 68.272,27.9 68.272,24.211 
		68.297,24.078 68.377,23.96 68.497,23.88 68.627,23.854 75.954,23.854 76.086,23.88 76.206,23.96 76.284,24.078 76.311,24.211 
		76.311,27.9 76.284,28.032 76.206,28.151 76.086,28.217 75.954,28.257 	"/>
	<polygon fill="#007DC5" points="97.877,31.933 97.877,28.561 94.504,28.561 50.077,28.561 46.704,28.561 46.704,31.933 
		46.704,43.608 46.704,46.994 50.077,46.994 94.504,46.994 97.877,46.994 97.877,43.608 	"/>
	<path fill="#FFFFFF" d="M97.057,43.608l-0.039,0.502l-0.146,0.476l-0.238,0.45l-0.316,0.383L95.92,45.75l-0.436,0.225l-0.424,0.145
		l-0.305,0.053h-0.039h-0.08h-0.119h-0.172h-0.211h-0.252h-0.291h-0.33h-0.383h-0.424h-0.463h-0.516h-0.555H90.34h-0.648h-0.674
		H88.29h-0.766h-0.807h-0.846h-0.914h-0.924h-0.98h-1.029h-1.059h-1.111h-1.162H77.5h-1.242h-1.283h-1.322h-1.361h-1.363h-1.32
		h-1.283h-1.244h-1.189h-1.164h-1.109h-1.059h-1.031h-0.979h-0.926h-0.912h-0.846h-0.809h-0.766h-0.727h-0.676h-0.646h-0.582h-0.557
		h-0.516h-0.463h-0.422h-0.385h-0.33h-0.291h-0.25h-0.213h-0.172h-0.119h-0.078h-0.041l-0.303-0.053l-0.424-0.145l-0.436-0.225
		l-0.398-0.331l-0.316-0.383l-0.238-0.45l-0.145-0.476l-0.041-0.502V31.933l0.041-0.489l0.145-0.476l0.238-0.45l0.316-0.383
		l0.398-0.331l0.436-0.224l0.424-0.146l0.303-0.053h0.041h0.078h0.119h0.172h0.213h0.25h0.291h0.33h0.385h0.422h0.463h0.516h0.557
		h0.582h0.646h0.676h0.727h0.766h0.809h0.846h0.912h0.926h0.979h1.031h1.059h1.109h1.164h1.189h1.244h1.283h1.32h1.363h1.361h1.322
		h1.283H77.5h1.191h1.162h1.111h1.059h1.029h0.98h0.924h0.914h0.846h0.807h0.766h0.729h0.674h0.648h0.582h0.555h0.516h0.463h0.424
		h0.383h0.33h0.291h0.252h0.211h0.172h0.119h0.08h0.039l0.305,0.053l0.424,0.146l0.436,0.224l0.396,0.331l0.316,0.383l0.238,0.45
		l0.146,0.476l0.039,0.489V43.608z M97.573,31.933l-0.066-0.595l-0.158-0.582l-0.291-0.515l-0.383-0.463l-0.463-0.397l-0.529-0.277
		l-0.277-0.106l-0.225-0.066l-0.199-0.053h-0.172H94.77h-0.08h-0.133h-0.172h-0.197h-0.264H93.62h-0.33h-0.385h-0.422h-0.477h-0.516
		h-0.543h-0.594h-0.648h-0.674h-0.729h-0.766h-0.807h-0.859h-0.9h-0.938h-0.98h-1.018h-1.07h-1.111h-1.162H77.5h-1.242h-1.283
		h-1.322h-1.361h-1.363h-1.32h-1.283h-1.244h-1.189h-1.164h-1.109h-1.072h-1.018h-0.979H59.61h-0.898h-0.859h-0.807h-0.768h-0.727
		h-0.676h-0.646h-0.596H53.09h-0.514H52.1h-0.424h-0.383h-0.332h-0.303h-0.264h-0.199h-0.172h-0.133h-0.078h-0.041H49.6
		l-0.197,0.053l-0.227,0.066l-0.275,0.106l-0.529,0.277l-0.463,0.397l-0.385,0.463l-0.291,0.515l-0.158,0.582l-0.066,0.595v11.676
		l0.066,0.608l0.158,0.569l0.291,0.529l0.385,0.476l0.463,0.37l0.529,0.291l0.275,0.106l0.227,0.066l0.197,0.039l0.172,0.013h0.041
		h0.078h0.133h0.172h0.199h0.264h0.303h0.332h0.383H52.1h0.477h0.514h0.543h0.596h0.646h0.676h0.727h0.768h0.807h0.859h0.898h0.939
		h0.979h1.018h1.072h1.109h1.164h1.189h1.244h1.283h1.32h1.363h1.361h1.322h1.283H77.5h1.191h1.162h1.111h1.07h1.018h0.98h0.938h0.9
		h0.859h0.807h0.766h0.729h0.674h0.648h0.594h0.543h0.516h0.477h0.422h0.385h0.33h0.305h0.264h0.197h0.172h0.133h0.08h0.039
		l0.172-0.013l0.199-0.039l0.225-0.066l0.277-0.106l0.529-0.291l0.463-0.37l0.383-0.476l0.291-0.529l0.158-0.569l0.066-0.608V31.933
		z"/>
	<polygon fill="#FFFFFF" points="90.208,44.111 85.938,40.29 85.924,40.29 85.858,40.184 85.831,40.065 85.858,39.946 85.924,39.84 
		86.03,39.774 86.149,39.747 86.215,39.761 89.428,40.528 89.428,40.118 89.428,39.628 89.428,39.099 89.428,38.505 90.989,38.505 
		90.989,39.099 90.989,39.628 90.989,40.118 90.989,40.528 94.188,39.761 94.266,39.747 94.385,39.774 94.493,39.84 94.545,39.946 
		94.573,40.065 94.545,40.184 94.493,40.29 94.465,40.29 	"/>
	<polygon fill="#FFFFFF" points="77.409,44.111 77.686,44.058 77.924,43.912 78.069,43.688 78.122,43.397 78.122,38.65 
		78.069,38.372 77.924,38.147 77.686,38.002 77.409,37.936 67.174,37.936 66.897,38.002 66.659,38.147 66.499,38.372 66.459,38.65 
		66.459,43.397 66.499,43.688 66.659,43.912 66.897,44.058 67.174,44.111 	"/>
	<polygon fill="#FFFFFF" points="54.374,44.111 58.645,40.29 58.659,40.29 58.723,40.184 58.75,40.065 58.723,39.946 58.659,39.84 
		58.551,39.774 58.432,39.747 58.368,39.761 55.155,40.528 55.155,40.118 55.155,39.628 55.155,39.099 55.155,38.505 53.594,38.505 
		53.594,39.099 53.594,39.628 53.594,40.118 53.594,40.528 50.393,39.761 50.315,39.747 50.196,39.774 50.09,39.84 50.038,39.946 
		50.01,40.065 50.038,40.184 50.09,40.29 50.116,40.29 	"/>
	<polygon fill="#ED1C24" points="67.174,43.82 67.014,43.793 66.883,43.701 66.792,43.556 66.764,43.397 66.764,38.65 
		66.792,38.505 66.883,38.359 67.014,38.266 67.174,38.24 77.407,38.24 77.567,38.266 77.698,38.359 77.792,38.505 77.817,38.65 
		77.817,43.397 77.792,43.556 77.698,43.701 77.567,43.793 77.407,43.82 	"/>
	<polygon fill="#FFFFFF" points="76.297,39.443 76.297,40.038 74.817,40.038 74.803,40.488 74.87,40.461 74.936,40.448 
		75.042,40.422 75.174,40.396 75.319,40.369 75.477,40.356 75.649,40.382 75.834,40.435 76.034,40.514 76.219,40.633 76.364,40.805 
		76.495,41.003 76.561,41.241 76.602,41.479 76.561,41.731 76.483,41.969 76.364,42.167 76.204,42.326 76.02,42.458 75.821,42.537 
		75.624,42.59 75.399,42.59 75.174,42.59 74.922,42.55 74.684,42.484 74.485,42.431 74.327,42.378 74.209,42.326 74.143,42.299 
		74.077,42.273 74.34,41.731 74.42,41.77 74.526,41.823 74.711,41.889 74.936,41.955 75.174,41.995 75.385,42.008 75.571,41.995 
		75.715,41.955 75.834,41.876 75.928,41.77 75.979,41.625 76.006,41.493 75.979,41.334 75.94,41.188 75.834,41.069 75.702,41.003 
		75.584,40.964 75.477,40.95 75.372,40.95 75.266,40.964 75.147,40.99 75.014,41.03 74.909,41.056 74.829,41.083 74.776,41.109 
		74.711,41.136 74.194,40.977 74.249,39.443 	"/>
	<polygon fill="none" stroke="#ED1C24" stroke-width="0.055" points="76.297,39.443 76.297,40.038 74.817,40.038 74.803,40.488 
		74.87,40.461 74.936,40.448 75.042,40.422 75.174,40.396 75.319,40.369 75.477,40.356 75.649,40.382 75.834,40.435 76.034,40.514 
		76.219,40.633 76.364,40.805 76.495,41.003 76.561,41.241 76.602,41.479 76.561,41.731 76.483,41.969 76.364,42.167 76.204,42.326 
		76.02,42.458 75.821,42.537 75.624,42.59 75.399,42.59 75.174,42.59 74.922,42.55 74.684,42.484 74.485,42.431 74.327,42.378 
		74.209,42.326 74.143,42.299 74.077,42.273 74.34,41.731 74.42,41.77 74.526,41.823 74.711,41.889 74.936,41.955 75.174,41.995 
		75.385,42.008 75.571,41.995 75.715,41.955 75.834,41.876 75.928,41.77 75.979,41.625 76.006,41.493 75.979,41.334 75.94,41.188 
		75.834,41.069 75.702,41.003 75.584,40.964 75.477,40.95 75.372,40.95 75.266,40.964 75.147,40.99 75.014,41.03 74.909,41.056 
		74.829,41.083 74.776,41.109 74.711,41.136 74.194,40.977 74.249,39.443 	"/>
	<polygon fill="#FFFFFF" points="73.27,39.457 73.27,42.59 72.754,42.59 72.754,40.184 72.331,40.184 72.331,39.787 72.397,39.761 
		72.463,39.734 72.543,39.708 72.635,39.655 72.715,39.588 72.766,39.536 72.793,39.497 72.819,39.457 	"/>
	<polygon fill="none" stroke="#ED1C24" stroke-width="0.055" points="73.27,39.457 73.27,42.59 72.754,42.59 72.754,40.184 
		72.331,40.184 72.331,39.787 72.397,39.761 72.463,39.734 72.543,39.708 72.635,39.655 72.715,39.588 72.766,39.536 72.793,39.497 
		72.819,39.457 	"/>
	<path fill="#FFFFFF" d="M69.805,39.47l1.295,3.121h-0.541l-0.33-0.767h-1.377l-0.316,0.767h-0.555l1.322-3.121H69.805z
		 M69.079,41.308h0.938l-0.449-1.124L69.079,41.308z"/>
	<path fill="none" stroke="#ED1C24" stroke-width="0.055" d="M69.805,39.47l1.295,3.121h-0.541l-0.33-0.767h-1.377l-0.316,0.767
		h-0.555l1.322-3.121H69.805z M69.079,41.308h0.938l-0.449-1.124L69.079,41.308z"/>
	<polygon fill="#FFFFFF" points="73.706,25.916 73.745,25.956 73.799,26.009 73.852,26.088 73.918,26.207 73.958,26.339 
		73.971,26.485 73.958,26.643 73.903,26.789 73.799,26.961 73.639,27.093 73.467,27.186 73.309,27.252 73.137,27.291 72.952,27.305 
		72.727,27.278 72.475,27.186 72.252,27.04 72.159,26.974 72.092,26.895 72.04,26.828 72.014,26.776 72.344,26.564 72.37,26.617 
		72.424,26.67 72.516,26.749 72.647,26.828 72.793,26.881 72.965,26.908 73.137,26.881 73.295,26.828 73.428,26.762 73.52,26.683 
		73.561,26.577 73.586,26.485 73.561,26.405 73.534,26.326 73.454,26.247 73.375,26.194 73.282,26.167 73.176,26.154 72.979,26.154 
		72.979,25.758 73.176,25.758 73.243,25.758 73.295,25.731 73.362,25.691 73.415,25.638 73.442,25.572 73.442,25.506 73.428,25.414 
		73.389,25.347 73.323,25.282 73.229,25.228 73.124,25.189 72.979,25.189 72.86,25.202 72.727,25.228 72.608,25.282 72.516,25.334 
		72.475,25.374 72.436,25.414 72.159,25.149 72.184,25.096 72.252,25.057 72.37,24.951 72.555,24.871 72.741,24.805 72.979,24.792 
		73.229,24.819 73.454,24.898 73.639,25.017 73.758,25.189 73.825,25.347 73.852,25.506 73.811,25.678 73.772,25.81 73.745,25.876 	
		"/>
	<polygon fill="none" stroke="#00A651" stroke-width="0.055" points="73.706,25.916 73.745,25.956 73.799,26.009 73.852,26.088 
		73.918,26.207 73.958,26.339 73.971,26.485 73.958,26.643 73.903,26.789 73.799,26.961 73.639,27.093 73.467,27.186 73.309,27.252 
		73.137,27.291 72.952,27.305 72.727,27.278 72.475,27.186 72.252,27.04 72.159,26.974 72.092,26.895 72.04,26.828 72.014,26.776 
		72.344,26.564 72.37,26.617 72.424,26.67 72.516,26.749 72.647,26.828 72.793,26.881 72.965,26.908 73.137,26.881 73.295,26.828 
		73.428,26.762 73.52,26.683 73.561,26.577 73.586,26.485 73.561,26.405 73.534,26.326 73.454,26.247 73.375,26.194 73.282,26.167 
		73.176,26.154 72.979,26.154 72.979,25.758 73.176,25.758 73.243,25.758 73.295,25.731 73.362,25.691 73.415,25.638 73.442,25.572 
		73.442,25.506 73.428,25.414 73.389,25.347 73.323,25.282 73.229,25.228 73.124,25.189 72.979,25.189 72.86,25.202 72.727,25.228 
		72.608,25.282 72.516,25.334 72.475,25.374 72.436,25.414 72.159,25.149 72.184,25.096 72.252,25.057 72.37,24.951 72.555,24.871 
		72.741,24.805 72.979,24.792 73.229,24.819 73.454,24.898 73.639,25.017 73.758,25.189 73.825,25.347 73.852,25.506 73.811,25.678 
		73.772,25.81 73.745,25.876 	"/>
	<polygon fill="#FFFFFF" points="75.333,24.819 75.333,27.292 74.922,27.292 74.922,25.401 74.606,25.401 74.606,25.07 
		74.645,25.057 74.698,25.057 74.764,25.017 74.844,24.978 74.895,24.938 74.936,24.899 74.961,24.845 74.975,24.819 	"/>
	<polygon fill="none" stroke="#00A651" stroke-width="0.055" points="75.333,24.819 75.333,27.292 74.922,27.292 74.922,25.401 
		74.606,25.401 74.606,25.07 74.645,25.057 74.698,25.057 74.764,25.017 74.844,24.978 74.895,24.938 74.936,24.899 74.961,24.845 
		74.975,24.819 	"/>
	<polygon fill="#FFFFFF" points="71.022,24.819 71.022,25.229 69.647,25.229 69.647,25.784 70.426,25.784 70.426,26.181 
		69.647,26.181 69.647,26.882 71.049,26.882 71.049,27.292 69.249,27.292 69.249,26.049 69.249,24.819 	"/>
	<polygon fill="none" stroke="#00A651" stroke-width="0.055" points="71.022,24.819 71.022,25.229 69.647,25.229 69.647,25.784 
		70.426,25.784 70.426,26.181 69.647,26.181 69.647,26.882 71.049,26.882 71.049,27.292 69.249,27.292 69.249,26.049 69.249,24.819 
			"/>
	<path fill="#FFFFFF" d="M58.129,32.091h1.137l0.211,0.04l0.172,0.106l0.119,0.172l0.041,0.185l-0.041,0.198l-0.119,0.159
		l-0.172,0.106l-0.211,0.052h-1.137V32.091z M57.508,35.159h0.621v-1.455h1.004l0.688,1.455h0.648l-0.713-1.547l0.078-0.04
		l0.094-0.066l0.145-0.119l0.158-0.198l0.133-0.265l0.053-0.304l-0.025-0.277l-0.105-0.265L60.1,31.827l-0.238-0.199l-0.291-0.105
		l-0.318-0.053h-1.744V35.159z"/>
	<path fill="none" stroke="#007DC5" stroke-width="0.055" d="M58.129,32.091h1.137l0.211,0.04l0.172,0.106l0.119,0.172l0.041,0.185
		l-0.041,0.198l-0.119,0.159l-0.172,0.106l-0.211,0.052h-1.137V32.091z M57.508,35.159h0.621v-1.455h1.004l0.688,1.455h0.648
		l-0.713-1.547l0.078-0.04l0.094-0.066l0.145-0.119l0.158-0.198l0.133-0.265l0.053-0.304l-0.025-0.277l-0.105-0.265L60.1,31.827
		l-0.238-0.199l-0.291-0.105l-0.318-0.053h-1.744V35.159z"/>
	<path fill="#FFFFFF" d="M62.586,35.199l-0.279-0.04l-0.291-0.119l-0.277-0.238l-0.197-0.318l-0.119-0.356l-0.014-0.371l0.039-0.383
		l0.119-0.331l0.186-0.291l0.264-0.211l0.291-0.133l0.291-0.039l0.305,0.039l0.305,0.133l0.25,0.198l0.199,0.265l0.119,0.357
		l0.039,0.396l-0.039,0.384l-0.119,0.357l-0.199,0.304l-0.264,0.238l-0.305,0.119L62.586,35.199z M62.745,34.577l0.145-0.066
		l0.133-0.132l0.066-0.185l0.053-0.212v-0.238l-0.014-0.238l-0.039-0.198l-0.08-0.159l-0.119-0.106l-0.133-0.079l-0.145-0.013
		l-0.146,0.026l-0.145,0.079l-0.105,0.093l-0.08,0.159l-0.053,0.198l-0.012,0.238v0.225l0.053,0.212l0.064,0.185l0.119,0.132
		l0.133,0.079l0.146,0.027L62.745,34.577z"/>
	<path fill="none" stroke="#007DC5" stroke-width="0.055" d="M62.586,35.199l-0.279-0.04l-0.291-0.119l-0.277-0.238l-0.197-0.318
		l-0.119-0.356l-0.014-0.371l0.039-0.383l0.119-0.331l0.186-0.291l0.264-0.211l0.291-0.133l0.291-0.039l0.305,0.039l0.305,0.133
		l0.25,0.198l0.199,0.265l0.119,0.357l0.039,0.396l-0.039,0.384l-0.119,0.357l-0.199,0.304l-0.264,0.238l-0.305,0.119L62.586,35.199
		z M62.745,34.577l0.145-0.066l0.133-0.132l0.066-0.185l0.053-0.212v-0.238l-0.014-0.238l-0.039-0.198l-0.08-0.159l-0.119-0.106
		l-0.133-0.079l-0.145-0.013l-0.146,0.026l-0.145,0.079l-0.105,0.093l-0.08,0.159l-0.053,0.198l-0.012,0.238v0.225l0.053,0.212
		l0.064,0.185l0.119,0.132l0.133,0.079l0.146,0.027L62.745,34.577z"/>
	<polygon fill="#FFFFFF" points="65.758,31.483 65.758,32.395 66.42,32.395 66.42,33.017 65.758,33.017 65.758,34.299 
		65.758,34.379 65.772,34.432 65.799,34.485 65.852,34.538 65.918,34.564 65.997,34.577 66.09,34.577 66.155,34.564 66.249,34.524 
		66.34,34.485 66.393,34.432 66.459,34.392 66.329,35.066 66.26,35.093 66.196,35.133 66.116,35.159 65.997,35.199 65.891,35.199 
		65.799,35.199 65.667,35.199 65.534,35.159 65.428,35.093 65.309,35.014 65.217,34.895 65.137,34.749 65.11,34.617 65.098,34.458 
		65.098,33.017 64.608,33.017 64.608,32.395 65.098,32.395 65.098,31.734 	"/>
	<polygon fill="none" stroke="#007DC5" stroke-width="0.055" points="65.758,31.483 65.758,32.395 66.42,32.395 66.42,33.017 
		65.758,33.017 65.758,34.299 65.758,34.379 65.772,34.432 65.799,34.485 65.852,34.538 65.918,34.564 65.997,34.577 66.09,34.577 
		66.155,34.564 66.249,34.524 66.34,34.485 66.393,34.432 66.459,34.392 66.329,35.066 66.26,35.093 66.196,35.133 66.116,35.159 
		65.997,35.199 65.891,35.199 65.799,35.199 65.667,35.199 65.534,35.159 65.428,35.093 65.309,35.014 65.217,34.895 65.137,34.749 
		65.11,34.617 65.098,34.458 65.098,33.017 64.608,33.017 64.608,32.395 65.098,32.395 65.098,31.734 	"/>
	<polygon fill="#FFFFFF" points="68.43,31.483 68.43,32.395 69.104,32.395 69.104,33.017 68.43,33.017 68.43,34.299 68.444,34.379 
		68.444,34.432 68.483,34.485 68.536,34.538 68.602,34.564 68.68,34.577 68.76,34.577 68.84,34.564 68.918,34.524 68.999,34.485 
		69.079,34.432 69.131,34.392 68.999,35.066 68.932,35.093 68.879,35.133 68.799,35.159 68.68,35.199 68.575,35.199 68.456,35.199 
		68.336,35.199 68.217,35.159 68.098,35.093 67.979,35.014 67.887,34.895 67.823,34.749 67.782,34.617 67.782,34.458 67.782,33.017 
		67.28,33.017 67.28,32.395 67.782,32.395 67.782,31.734 	"/>
	<polygon fill="none" stroke="#007DC5" stroke-width="0.055" points="68.43,31.483 68.43,32.395 69.104,32.395 69.104,33.017 
		68.43,33.017 68.43,34.299 68.444,34.379 68.444,34.432 68.483,34.485 68.536,34.538 68.602,34.564 68.68,34.577 68.76,34.577 
		68.84,34.564 68.918,34.524 68.999,34.485 69.079,34.432 69.131,34.392 68.999,35.066 68.932,35.093 68.879,35.133 68.799,35.159 
		68.68,35.199 68.575,35.199 68.456,35.199 68.336,35.199 68.217,35.159 68.098,35.093 67.979,35.014 67.887,34.895 67.823,34.749 
		67.782,34.617 67.782,34.458 67.782,33.017 67.28,33.017 67.28,32.395 67.782,32.395 67.782,31.734 	"/>
	<path fill="#FFFFFF" d="M72.331,33.93h-1.68l0.014,0.079v0.079l0.025,0.119l0.053,0.119l0.08,0.119l0.107,0.093l0.119,0.053
		l0.104,0.026l0.133-0.013l0.119-0.027l0.092-0.039l0.08-0.053l0.053-0.04l0.066-0.026l0.438,0.33l-0.066,0.08l-0.08,0.066
		l-0.158,0.119l-0.225,0.092l-0.238,0.066l-0.238,0.014l-0.277-0.04l-0.266-0.132l-0.236-0.172l-0.186-0.265L70.03,34.22
		l-0.053-0.436l0.039-0.423l0.133-0.37l0.184-0.265l0.227-0.185l0.277-0.132l0.316-0.053l0.305,0.04l0.305,0.119l0.277,0.224
		l0.105,0.146l0.08,0.158l0.092,0.318l0.027,0.304l-0.014,0.106v0.066V33.93z M71.668,33.361l-0.012-0.053l-0.027-0.066
		l-0.053-0.093l-0.08-0.079l-0.092-0.066l-0.105-0.053l-0.133-0.013l-0.117,0.013l-0.119,0.053l-0.094,0.066l-0.053,0.079
		l-0.053,0.093l-0.027,0.066l-0.014,0.053l-0.012,0.066h1.004L71.668,33.361z"/>
	<path fill="none" stroke="#007DC5" stroke-width="0.055" d="M72.331,33.93h-1.68l0.014,0.079v0.079l0.025,0.119l0.053,0.119
		l0.08,0.119l0.107,0.093l0.119,0.053l0.104,0.026l0.133-0.013l0.119-0.027l0.092-0.039l0.08-0.053l0.053-0.04l0.066-0.026
		l0.438,0.33l-0.066,0.08l-0.08,0.066l-0.158,0.119l-0.225,0.092l-0.238,0.066l-0.238,0.014l-0.277-0.04l-0.266-0.132l-0.236-0.172
		l-0.186-0.265L70.03,34.22l-0.053-0.436l0.039-0.423l0.133-0.37l0.184-0.265l0.227-0.185l0.277-0.132l0.316-0.053l0.305,0.04
		l0.305,0.119l0.277,0.224l0.105,0.146l0.08,0.158l0.092,0.318l0.027,0.304l-0.014,0.106v0.066V33.93z M71.668,33.361l-0.012-0.053
		l-0.027-0.066l-0.053-0.093l-0.08-0.079l-0.092-0.066l-0.105-0.053l-0.133-0.013l-0.117,0.013l-0.119,0.053l-0.094,0.066
		l-0.053,0.079l-0.053,0.093l-0.027,0.066l-0.014,0.053l-0.012,0.066h1.004L71.668,33.361z"/>
	<polygon fill="#FFFFFF" points="74.155,32.396 74.155,32.621 74.208,32.581 74.249,32.541 74.354,32.476 74.473,32.408 
		74.631,32.37 74.776,32.355 74.909,32.37 75.028,32.396 75.133,32.436 75.2,32.461 75.239,32.488 75.293,32.527 75.094,33.215 
		75.067,33.175 75.028,33.149 74.963,33.097 74.883,33.057 74.776,33.03 74.672,33.03 74.565,33.043 74.459,33.083 74.327,33.175 
		74.235,33.294 74.182,33.44 74.155,33.612 74.155,35.159 73.508,35.159 73.508,32.396 	"/>
	<polygon fill="none" stroke="#007DC5" stroke-width="0.055" points="74.155,32.396 74.155,32.621 74.208,32.581 74.249,32.541 
		74.354,32.476 74.473,32.408 74.631,32.37 74.776,32.355 74.909,32.37 75.028,32.396 75.133,32.436 75.2,32.461 75.239,32.488 
		75.293,32.527 75.094,33.215 75.067,33.175 75.028,33.149 74.963,33.097 74.883,33.057 74.776,33.03 74.672,33.03 74.565,33.043 
		74.459,33.083 74.327,33.175 74.235,33.294 74.182,33.44 74.155,33.612 74.155,35.159 73.508,35.159 73.508,32.396 	"/>
	<path fill="#FFFFFF" d="M77.581,34.339l-0.066,0.067l-0.08,0.066l-0.119,0.066l-0.186,0.026l-0.156-0.026l-0.135-0.053
		l-0.131-0.106l-0.105-0.145l-0.055-0.185l-0.025-0.225l0.014-0.225l0.053-0.198l0.094-0.146l0.117-0.132l0.158-0.079l0.186-0.027
		l0.186,0.04l0.133,0.053l0.078,0.066l0.041,0.053V34.339z M77.581,32.594l-0.066-0.053l-0.105-0.053l-0.066-0.039l-0.119-0.027
		l-0.266-0.039l-0.264,0.039l-0.25,0.106l-0.213,0.198l-0.197,0.291l-0.133,0.384l-0.039,0.423l0.053,0.396l0.119,0.357l0.197,0.265
		l0.213,0.198l0.25,0.106l0.264,0.053l0.266-0.04l0.197-0.066l0.094-0.066l0.066-0.04v0.172h0.66v-3.768l-0.66,0.238V32.594z"/>
	<path fill="none" stroke="#007DC5" stroke-width="0.055" d="M77.581,34.339l-0.066,0.067l-0.08,0.066l-0.119,0.066l-0.186,0.026
		l-0.156-0.026l-0.135-0.053l-0.131-0.106l-0.105-0.145l-0.055-0.185l-0.025-0.225l0.014-0.225l0.053-0.198l0.094-0.146l0.117-0.132
		l0.158-0.079l0.186-0.027l0.186,0.04l0.133,0.053l0.078,0.066l0.041,0.053V34.339z M77.581,32.594l-0.066-0.053l-0.105-0.053
		l-0.066-0.039l-0.119-0.027l-0.266-0.039l-0.264,0.039l-0.25,0.106l-0.213,0.198l-0.197,0.291l-0.133,0.384l-0.039,0.423
		l0.053,0.396l0.119,0.357l0.197,0.265l0.213,0.198l0.25,0.106l0.264,0.053l0.266-0.04l0.197-0.066l0.094-0.066l0.066-0.04v0.172
		h0.66v-3.768l-0.66,0.238V32.594z"/>
	<path fill="#FFFFFF" d="M81.018,33.982v0.476l-0.039,0.026l-0.053,0.027l-0.094,0.039l-0.119,0.053l-0.145,0.027h-0.146
		l-0.117-0.027l-0.121-0.053l-0.092-0.066l-0.066-0.092l-0.039-0.08v-0.092L80,34.127l0.025-0.092l0.066-0.08l0.092-0.079
		l0.121-0.053l0.131-0.013l0.146,0.013l0.131,0.026l0.119,0.04l0.08,0.027l0.053,0.039L81.018,33.982z M81.639,33.057l-0.066-0.211
		l-0.064-0.106l-0.094-0.093l-0.25-0.159l-0.279-0.092l-0.264-0.013l-0.252,0.013l-0.225,0.053l-0.238,0.066l-0.172,0.079
		l-0.092,0.053l-0.066,0.04l0.238,0.436l0.066-0.026l0.078-0.04l0.133-0.053l0.145-0.04l0.16-0.026l0.158-0.013l0.133,0.013
		l0.119,0.026l0.092,0.067l0.066,0.079l0.039,0.092l0.014,0.106l0.014,0.132l-0.094-0.026l-0.105-0.039l-0.186-0.04l-0.25-0.027
		l-0.291,0.04l-0.291,0.119l-0.211,0.145l-0.146,0.212l-0.094,0.225l-0.025,0.238l0.041,0.251l0.119,0.225l0.172,0.198l0.211,0.132
		l0.184,0.08l0.172,0.026h0.186l0.16-0.04l0.172-0.039l0.119-0.04l0.064-0.039l0.08-0.027v0.145h0.648v-1.851L81.639,33.057z"/>
	<path fill="none" stroke="#007DC5" stroke-width="0.055" d="M81.018,33.982v0.476l-0.039,0.026l-0.053,0.027l-0.094,0.039
		l-0.119,0.053l-0.145,0.027h-0.146l-0.117-0.027l-0.121-0.053l-0.092-0.066l-0.066-0.092l-0.039-0.08v-0.092L80,34.127l0.025-0.092
		l0.066-0.08l0.092-0.079l0.121-0.053l0.131-0.013l0.146,0.013l0.131,0.026l0.119,0.04l0.08,0.027l0.053,0.039L81.018,33.982z
		 M81.639,33.057l-0.066-0.211l-0.064-0.106l-0.094-0.093l-0.25-0.159l-0.279-0.092l-0.264-0.013l-0.252,0.013l-0.225,0.053
		l-0.238,0.066l-0.172,0.079l-0.092,0.053l-0.066,0.04l0.238,0.436l0.066-0.026l0.078-0.04l0.133-0.053l0.145-0.04l0.16-0.026
		l0.158-0.013l0.133,0.013l0.119,0.026l0.092,0.067l0.066,0.079l0.039,0.092l0.014,0.106l0.014,0.132l-0.094-0.026l-0.105-0.039
		l-0.186-0.04l-0.25-0.027l-0.291,0.04l-0.291,0.119l-0.211,0.145l-0.146,0.212l-0.094,0.225l-0.025,0.238l0.041,0.251l0.119,0.225
		l0.172,0.198l0.211,0.132l0.184,0.08l0.172,0.026h0.186l0.16-0.04l0.172-0.039l0.119-0.04l0.064-0.039l0.08-0.027v0.145h0.648
		v-1.851L81.639,33.057z"/>
	<polygon fill="#FFFFFF" points="83.743,32.396 83.743,32.633 83.795,32.581 83.848,32.541 83.954,32.488 84.112,32.421 
		84.284,32.382 84.456,32.355 84.668,32.396 84.866,32.448 85.024,32.541 85.131,32.633 85.198,32.687 85.25,32.739 85.29,32.699 
		85.37,32.621 85.487,32.527 85.672,32.436 85.844,32.382 86.055,32.37 86.321,32.396 86.584,32.515 86.797,32.687 86.942,32.897 
		87.047,33.175 87.075,33.479 87.075,35.159 86.399,35.159 86.399,33.506 86.36,33.321 86.254,33.149 86.096,33.057 85.911,33.017 
		85.725,33.057 85.567,33.163 85.461,33.321 85.409,33.52 85.409,35.159 84.747,35.159 84.747,33.506 84.708,33.308 84.6,33.149 
		84.444,33.057 84.27,33.003 84.073,33.043 83.901,33.149 83.782,33.308 83.743,33.506 83.743,35.159 83.081,35.159 83.081,32.396 	
		"/>
	<polygon fill="none" stroke="#007DC5" stroke-width="0.055" points="83.743,32.396 83.743,32.633 83.795,32.581 83.848,32.541 
		83.954,32.488 84.112,32.421 84.284,32.382 84.456,32.355 84.668,32.396 84.866,32.448 85.024,32.541 85.131,32.633 85.198,32.687 
		85.25,32.739 85.29,32.699 85.37,32.621 85.487,32.527 85.672,32.436 85.844,32.382 86.055,32.37 86.321,32.396 86.584,32.515 
		86.797,32.687 86.942,32.897 87.047,33.175 87.075,33.479 87.075,35.159 86.399,35.159 86.399,33.506 86.36,33.321 86.254,33.149 
		86.096,33.057 85.911,33.017 85.725,33.057 85.567,33.163 85.461,33.321 85.409,33.52 85.409,35.159 84.747,35.159 84.747,33.506 
		84.708,33.308 84.6,33.149 84.444,33.057 84.27,33.003 84.073,33.043 83.901,33.149 83.782,33.308 83.743,33.506 83.743,35.159 
		83.081,35.159 83.081,32.396 	"/>
	<rect fill="none" width="145.452" height="48.456"/>
</g>
<g id="Layer_4">
</g>
<g id="Layer_3">
</g>
<g id="Layer_2">
</g>
</svg>
