<?xml version="1.0" encoding="utf-8"?>
<!-- Generator: Adobe Illustrator 16.0.0, SVG Export Plug-In . SVG Version: 6.00 Build 0)  -->
<!DOCTYPE svg PUBLIC "-//W3C//DTD SVG 1.1//EN" "http://www.w3.org/Graphics/SVG/1.1/DTD/svg11.dtd">
<svg version="1.1" xmlns="http://www.w3.org/2000/svg" xmlns:xlink="http://www.w3.org/1999/xlink" x="0px" y="0px"
	 width="40.818px" height="41.432px" viewBox="0 0 40.818 41.432" enable-background="new 0 0 40.818 41.432" xml:space="preserve">
<g id="Layer_15">
</g>
<g id="Layer_14">
</g>
<g id="Layer_13">
</g>
<g id="Layer_12">
</g>
<g id="Layer_11">
</g>
<g id="Layer_10">
</g>
<g id="Layer_9">
</g>
<g id="Layer_8">
</g>
<g id="Layer_7">
</g>
<g id="Layer_6">
	<polygon fill="#007DC5" points="0,0 0,20.716 0,41.432 20.409,41.432 40.818,41.432 40.818,0 	"/>
	<path fill="#FFFFFF" d="M2.175,41.071l-0.347-0.027l-0.334-0.105l-0.32-0.174l-0.28-0.227l-0.227-0.267l-0.16-0.32L0.4,39.617
		l-0.04-0.359V2.175l0.04-0.36L0.507,1.48l0.16-0.32l0.227-0.267l0.28-0.227l0.32-0.174l0.334-0.105L2.175,0.36h36.469l0.347,0.027
		l0.334,0.105l0.319,0.174l0.281,0.227L40.15,1.16l0.16,0.32l0.107,0.334l0.039,0.36v37.083l-0.039,0.359l-0.107,0.334l-0.16,0.32
		l-0.226,0.267l-0.281,0.227l-0.319,0.174l-0.334,0.105l-0.347,0.027H2.175z M38.644,40.711l0.28-0.026l0.268-0.08l0.252-0.133
		l0.228-0.188l0.173-0.213l0.134-0.254l0.08-0.28l0.026-0.279V2.175l-0.026-0.28l-0.08-0.28L39.844,1.36l-0.173-0.213L39.443,0.96
		l-0.252-0.133l-0.268-0.08l-0.28-0.026H2.175L1.894,0.747l-0.266,0.08L1.374,0.96L1.146,1.147L0.974,1.36L0.841,1.614l-0.08,0.28
		l-0.027,0.28v37.083l0.027,0.279l0.08,0.28l0.133,0.254l0.173,0.213l0.227,0.188l0.254,0.133l0.266,0.08l0.281,0.026H38.644z"/>
	<polygon fill="none" stroke="#000000" stroke-width="0.04" points="19.849,28.053 19.182,27.372 18.942,27.612 18.702,27.853 
		19.182,28.332 19.182,30.28 18.702,30.761 18.942,31.001 19.182,31.24 19.849,30.561 19.849,29.307 	"/>
	<polygon fill="none" stroke="#000000" stroke-width="0.04" points="21.409,28.053 22.089,27.372 22.329,27.612 22.556,27.853 
		22.076,28.332 22.076,30.28 22.556,30.761 22.329,31.001 22.089,31.24 21.409,30.561 	"/>
	<polygon fill="none" stroke="#000000" stroke-width="0.04" points="14.98,17.768 14.86,17.755 14.753,17.675 14.687,17.581 
		14.66,17.448 14.66,13.74 14.687,13.619 14.753,13.513 14.86,13.446 14.98,13.419 26.278,13.419 26.412,13.446 26.505,13.513 
		26.585,13.619 26.612,13.74 26.612,17.448 26.585,17.581 26.505,17.675 26.412,17.755 26.278,17.768 	"/>
	<polygon fill="#FFFFFF" points="3.548,28.746 3.321,28.706 3.148,28.586 3.028,28.413 2.988,28.199 2.988,24.504 3.028,24.291 
		3.148,24.117 3.321,23.984 3.548,23.944 11.498,23.944 11.712,23.984 11.885,24.117 12.005,24.291 12.045,24.504 12.045,28.199 
		12.005,28.413 11.885,28.586 11.712,28.706 11.498,28.746 	"/>
	<path fill="#FFFFFF" d="M10.978,9.591h0.334h0.12l0.106,0.026l0.12,0.04l0.134,0.067l0.133,0.119l0.107,0.147l0.067,0.187
		l0.013,0.214l-0.027,0.227l-0.066,0.188l-0.107,0.159l-0.133,0.12l-0.147,0.08l-0.134,0.026l-0.106,0.014l-0.094,0.013h-0.32V9.591
		z M10.578,11.605h0.734h0.133l0.147-0.027l0.2-0.053l0.213-0.12l0.2-0.173l0.161-0.241l0.106-0.266l0.04-0.32l-0.04-0.321
		l-0.093-0.28l-0.174-0.226l-0.186-0.174l-0.201-0.12l-0.173-0.053l-0.173-0.04h-0.16h-0.734V11.605z"/>
	<path fill="none" stroke="#007DC5" stroke-width="0.039" d="M10.978,9.591h0.334h0.12l0.106,0.026l0.12,0.04l0.134,0.067
		l0.133,0.119l0.107,0.147l0.067,0.187l0.013,0.214l-0.027,0.227l-0.066,0.188l-0.107,0.159l-0.133,0.12l-0.147,0.08l-0.134,0.026
		l-0.106,0.014l-0.094,0.013h-0.32V9.591z M10.578,11.605h0.734h0.133l0.147-0.027l0.2-0.053l0.213-0.12l0.2-0.173l0.161-0.241
		l0.106-0.266l0.04-0.32l-0.04-0.321l-0.093-0.28l-0.174-0.226l-0.186-0.174l-0.201-0.12l-0.173-0.053l-0.173-0.04h-0.16h-0.734
		V11.605z"/>
	<polygon fill="#FFFFFF" points="13.753,9.791 13.753,9.938 13.792,9.911 13.82,9.884 13.886,9.844 13.966,9.804 14.06,9.778 
		14.167,9.764 14.246,9.778 14.327,9.791 14.393,9.818 14.433,9.831 14.473,9.858 14.5,9.871 14.367,10.338 14.353,10.312 
		14.327,10.284 14.287,10.245 14.233,10.218 14.167,10.205 14.1,10.205 14.033,10.218 13.953,10.245 13.873,10.298 13.806,10.378 
		13.766,10.471 13.753,10.578 13.753,11.605 13.326,11.605 13.326,9.791 	"/>
	<polygon fill="none" stroke="#007DC5" stroke-width="0.039" points="13.753,9.791 13.753,9.938 13.792,9.911 13.82,9.884 
		13.886,9.844 13.966,9.804 14.06,9.778 14.167,9.764 14.246,9.778 14.327,9.791 14.393,9.818 14.433,9.831 14.473,9.858 
		14.5,9.871 14.367,10.338 14.353,10.312 14.327,10.284 14.287,10.245 14.233,10.218 14.167,10.205 14.1,10.205 14.033,10.218 
		13.953,10.245 13.873,10.298 13.806,10.378 13.766,10.471 13.753,10.578 13.753,11.605 13.326,11.605 13.326,9.791 	"/>
	<rect x="15.086" y="9.792" fill="#FFFFFF" width="0.428" height="1.813"/>
	<rect x="15.087" y="9.791" fill="none" stroke="#007DC5" stroke-width="0.039" width="0.427" height="1.814"/>
	<polygon fill="#FFFFFF" points="15.22,9.204 15.153,9.257 15.1,9.337 15.087,9.417 15.1,9.512 15.153,9.578 15.22,9.631 
		15.313,9.658 15.394,9.631 15.474,9.591 15.527,9.512 15.54,9.432 15.527,9.337 15.474,9.257 15.407,9.204 15.313,9.19 	"/>
	<polygon fill="none" stroke="#007DC5" stroke-width="0.039" points="15.313,9.657 15.22,9.631 15.153,9.578 15.101,9.511 
		15.086,9.418 15.101,9.338 15.153,9.258 15.22,9.205 15.313,9.19 15.406,9.205 15.473,9.258 15.526,9.338 15.541,9.431 
		15.526,9.511 15.473,9.591 15.394,9.631 	"/>
	<path fill="#FFFFFF" d="M17.808,10.791h-1.107l0.013,0.055v0.053l0.014,0.08l0.04,0.08l0.053,0.08l0.067,0.053l0.08,0.04
		l0.067,0.014h0.08l0.08-0.026l0.08-0.027l0.04-0.026l0.04-0.026l0.026-0.027l0.294,0.228l-0.04,0.039l-0.054,0.054l-0.106,0.066
		l-0.147,0.08l-0.147,0.027l-0.16,0.013l-0.187-0.026l-0.173-0.08l-0.16-0.12l-0.12-0.173l-0.08-0.228l-0.04-0.28l0.027-0.293
		l0.093-0.24l0.12-0.173l0.147-0.12l0.186-0.08l0.201-0.04l0.2,0.026l0.2,0.08l0.187,0.146l0.119,0.187l0.054,0.228l0.013,0.187
		v0.12V10.791z M17.368,10.432v-0.04l-0.027-0.053l-0.026-0.055l-0.054-0.053l-0.053-0.04l-0.08-0.04l-0.08-0.013l-0.094,0.013
		l-0.066,0.04l-0.054,0.04l-0.04,0.053l-0.04,0.055l-0.013,0.053l-0.013,0.04l-0.014,0.04h0.667L17.368,10.432z"/>
	<path fill="none" stroke="#007DC5" stroke-width="0.039" d="M17.808,10.791h-1.107l0.013,0.055v0.053l0.014,0.08l0.04,0.08
		l0.053,0.08l0.067,0.053l0.08,0.04l0.067,0.014h0.08l0.08-0.026l0.08-0.027l0.04-0.026l0.04-0.026l0.026-0.027l0.294,0.228
		l-0.04,0.039l-0.054,0.054l-0.106,0.066l-0.147,0.08l-0.147,0.027l-0.16,0.013l-0.187-0.026l-0.173-0.08l-0.16-0.12l-0.12-0.173
		l-0.08-0.228l-0.04-0.28l0.027-0.293l0.093-0.24l0.12-0.173l0.147-0.12l0.186-0.08l0.201-0.04l0.2,0.026l0.2,0.08l0.187,0.146
		l0.119,0.187l0.054,0.228l0.013,0.187v0.12V10.791z M17.368,10.432v-0.04l-0.027-0.053l-0.026-0.055l-0.054-0.053l-0.053-0.04
		l-0.08-0.04l-0.08-0.013l-0.094,0.013l-0.066,0.04l-0.054,0.04l-0.04,0.053l-0.04,0.055l-0.013,0.053l-0.013,0.04l-0.014,0.04
		h0.667L17.368,10.432z"/>
	<path fill="#FFFFFF" d="M19.008,9.11v0.801l0.04-0.026l0.067-0.04l0.12-0.04l0.173-0.027l0.174,0.014l0.16,0.066l0.146,0.133
		l0.134,0.188l0.093,0.254l0.027,0.28l-0.027,0.267l-0.08,0.227l-0.12,0.187l-0.147,0.134l-0.173,0.08l-0.16,0.026l-0.174-0.026
		l-0.133-0.054l-0.067-0.04l-0.04-0.026v0.12h-0.44V9.271L19.008,9.11z M19.008,11.071l0.027,0.027l0.04,0.04l0.093,0.04l0.12,0.026
		l0.107-0.014l0.093-0.04l0.094-0.08l0.08-0.106l0.04-0.12l0.013-0.133l-0.013-0.147l-0.04-0.133l-0.067-0.106l-0.094-0.08
		l-0.106-0.04l-0.107-0.014l-0.12,0.026l-0.08,0.04l-0.04,0.04l-0.04,0.04V11.071z"/>
	<path fill="none" stroke="#007DC5" stroke-width="0.039" d="M19.008,9.11v0.801l0.04-0.026l0.067-0.04l0.12-0.04l0.173-0.027
		l0.174,0.014l0.16,0.066l0.146,0.133l0.134,0.188l0.093,0.254l0.027,0.28l-0.027,0.267l-0.08,0.227l-0.12,0.187l-0.147,0.134
		l-0.173,0.08l-0.16,0.026l-0.174-0.026l-0.133-0.054l-0.067-0.04l-0.04-0.026v0.12h-0.44V9.271L19.008,9.11z M19.008,11.071
		l0.027,0.027l0.04,0.04l0.093,0.04l0.12,0.026l0.107-0.014l0.093-0.04l0.094-0.08l0.08-0.106l0.04-0.12l0.013-0.133l-0.013-0.147
		l-0.04-0.133l-0.067-0.106l-0.094-0.08l-0.106-0.04l-0.107-0.014l-0.12,0.026l-0.08,0.04l-0.04,0.04l-0.04,0.04V11.071z"/>
	<path fill="#FFFFFF" d="M22.21,10.791h-1.094v0.055v0.053l0.013,0.08l0.04,0.08l0.054,0.08l0.067,0.053l0.079,0.04l0.067,0.014
		h0.08l0.08-0.026l0.08-0.027l0.04-0.026l0.04-0.026l0.041-0.027l0.293,0.228l-0.04,0.039l-0.067,0.054l-0.093,0.066l-0.147,0.08
		l-0.16,0.027l-0.16,0.013l-0.174-0.026l-0.186-0.08l-0.147-0.12l-0.12-0.173l-0.093-0.228l-0.027-0.28l0.027-0.293l0.08-0.24
		l0.12-0.173l0.146-0.12l0.187-0.08l0.2-0.04l0.2,0.026l0.2,0.08l0.187,0.146l0.12,0.187l0.054,0.228l0.026,0.187v0.12L22.21,10.791
		z M21.783,10.432l-0.013-0.04l-0.027-0.053l-0.027-0.055l-0.04-0.053l-0.066-0.04l-0.08-0.04l-0.08-0.013l-0.081,0.013l-0.079,0.04
		l-0.054,0.04l-0.04,0.053l-0.027,0.055l-0.026,0.053l-0.014,0.04v0.04h0.654V10.432z"/>
	<path fill="none" stroke="#007DC5" stroke-width="0.039" d="M22.21,10.791h-1.094v0.055v0.053l0.013,0.08l0.04,0.08l0.054,0.08
		l0.067,0.053l0.079,0.04l0.067,0.014h0.08l0.08-0.026l0.08-0.027l0.04-0.026l0.04-0.026l0.041-0.027l0.293,0.228l-0.04,0.039
		l-0.067,0.054l-0.093,0.066l-0.147,0.08l-0.16,0.027l-0.16,0.013l-0.174-0.026l-0.186-0.08l-0.147-0.12l-0.12-0.173l-0.093-0.228
		l-0.027-0.28l0.027-0.293l0.08-0.24l0.12-0.173l0.146-0.12l0.187-0.08l0.2-0.04l0.2,0.026l0.2,0.08l0.187,0.146l0.12,0.187
		l0.054,0.228l0.026,0.187v0.12L22.21,10.791z M21.783,10.432l-0.013-0.04l-0.027-0.053l-0.027-0.055l-0.04-0.053l-0.066-0.04
		l-0.08-0.04l-0.08-0.013l-0.081,0.013l-0.079,0.04l-0.054,0.04l-0.04,0.053l-0.027,0.055l-0.026,0.053l-0.014,0.04v0.04h0.654
		V10.432z"/>
	<polygon fill="#FFFFFF" points="23.41,9.791 23.41,9.938 23.45,9.911 23.477,9.884 23.543,9.844 23.623,9.804 23.717,9.778 
		23.824,9.764 23.904,9.778 23.984,9.791 24.05,9.818 24.09,9.831 24.13,9.858 24.157,9.871 24.024,10.338 24.01,10.312 
		23.984,10.284 23.944,10.245 23.89,10.218 23.824,10.205 23.757,10.205 23.677,10.218 23.61,10.245 23.517,10.298 23.463,10.378 
		23.423,10.471 23.41,10.578 23.41,11.605 22.983,11.605 22.983,9.791 	"/>
	<polygon fill="none" stroke="#007DC5" stroke-width="0.039" points="23.41,9.791 23.41,9.938 23.45,9.911 23.477,9.884 
		23.543,9.844 23.623,9.804 23.717,9.778 23.824,9.764 23.904,9.778 23.984,9.791 24.05,9.818 24.09,9.831 24.13,9.858 
		24.157,9.871 24.024,10.338 24.01,10.312 23.984,10.284 23.944,10.245 23.89,10.218 23.824,10.205 23.757,10.205 23.677,10.218 
		23.61,10.245 23.517,10.298 23.463,10.378 23.423,10.471 23.41,10.578 23.41,11.605 22.983,11.605 22.983,9.791 	"/>
	<path fill="#FFFFFF" d="M26.091,9.804v1.802l-0.027,0.214l-0.067,0.199l-0.106,0.16l-0.134,0.133l-0.16,0.12l-0.146,0.055
		l-0.08,0.025l-0.04,0.015l-0.187-0.414h0.053l0.053-0.014l0.081-0.014l0.106-0.066l0.094-0.079l0.08-0.107l0.04-0.107l0.013-0.119
		v-0.107l-0.04,0.027l-0.053,0.026l-0.067,0.026l-0.08,0.041l-0.093,0.013l-0.081,0.013l-0.106-0.013l-0.12-0.026l-0.12-0.066
		l-0.12-0.107l-0.094-0.12l-0.08-0.174l-0.053-0.199l-0.027-0.214l0.014-0.214l0.053-0.213l0.093-0.173l0.094-0.134l0.12-0.107
		l0.133-0.053l0.12-0.04h0.107l0.107,0.013l0.093,0.015l0.067,0.025l0.053,0.027l0.04,0.027l0.04,0.025v-0.12H26.091z
		 M25.665,10.338l-0.027-0.013l-0.026-0.027l-0.054-0.026l-0.053-0.04l-0.067-0.014l-0.066-0.013l-0.094,0.013l-0.08,0.027
		l-0.067,0.04l-0.066,0.065l-0.054,0.08l-0.026,0.095l-0.027,0.105v0.107l0.013,0.106l0.027,0.094l0.04,0.094l0.053,0.065
		l0.067,0.055l0.08,0.04l0.067,0.025h0.067l0.066-0.013l0.067-0.013l0.067-0.04l0.04-0.027l0.026-0.013l0.027-0.04V10.338z"/>
	<path fill="none" stroke="#007DC5" stroke-width="0.039" d="M26.091,9.804v1.802l-0.027,0.214l-0.067,0.199l-0.106,0.16
		l-0.134,0.133l-0.16,0.12l-0.146,0.055l-0.08,0.025l-0.04,0.015l-0.187-0.414h0.053l0.053-0.014l0.081-0.014l0.106-0.066
		l0.094-0.079l0.08-0.107l0.04-0.107l0.013-0.119v-0.107l-0.04,0.027l-0.053,0.026l-0.067,0.026l-0.08,0.041l-0.093,0.013
		l-0.081,0.013l-0.106-0.013l-0.12-0.026l-0.12-0.066l-0.12-0.107l-0.094-0.12l-0.08-0.174l-0.053-0.199l-0.027-0.214l0.014-0.214
		l0.053-0.213l0.093-0.173l0.094-0.134l0.12-0.107l0.133-0.053l0.12-0.04h0.107l0.107,0.013l0.093,0.015l0.067,0.025l0.053,0.027
		l0.04,0.027l0.04,0.025v-0.12H26.091z M25.665,10.338l-0.027-0.013l-0.026-0.027l-0.054-0.026l-0.053-0.04l-0.067-0.014
		l-0.066-0.013l-0.094,0.013l-0.08,0.027l-0.067,0.04l-0.066,0.065l-0.054,0.08l-0.026,0.095l-0.027,0.105v0.107l0.013,0.106
		l0.027,0.094l0.04,0.094l0.053,0.065l0.067,0.055l0.08,0.04l0.067,0.025h0.067l0.066-0.013l0.067-0.013l0.067-0.04l0.04-0.027
		l0.026-0.013l0.027-0.04V10.338z"/>
	<path fill="#FFFFFF" d="M28.346,10.791h-1.094v0.055v0.053l0.014,0.08l0.039,0.08l0.054,0.08l0.067,0.053l0.079,0.04l0.081,0.014
		h0.066l0.08-0.026l0.067-0.027l0.053-0.026l0.04-0.026l0.027-0.027l0.294,0.228l-0.041,0.039l-0.039,0.054l-0.107,0.066l-0.16,0.08
		l-0.147,0.027l-0.16,0.013l-0.187-0.026l-0.173-0.08l-0.147-0.12l-0.133-0.173l-0.08-0.228l-0.027-0.28l0.027-0.293l0.08-0.24
		l0.12-0.173l0.146-0.12l0.187-0.08l0.2-0.04l0.2,0.026l0.2,0.08l0.187,0.146l0.12,0.187l0.054,0.228l0.026,0.187l-0.013,0.12
		V10.791z M27.919,10.432l-0.013-0.04l-0.027-0.053l-0.027-0.055l-0.053-0.053l-0.053-0.04l-0.08-0.04l-0.08-0.013l-0.081,0.013
		l-0.079,0.04l-0.054,0.04l-0.04,0.053l-0.04,0.055l-0.013,0.053l-0.013,0.04l-0.014,0.04h0.667V10.432z"/>
	<path fill="none" stroke="#007DC5" stroke-width="0.039" d="M28.346,10.791h-1.094v0.055v0.053l0.014,0.08l0.039,0.08l0.054,0.08
		l0.067,0.053l0.079,0.04l0.081,0.014h0.066l0.08-0.026l0.067-0.027l0.053-0.026l0.04-0.026l0.027-0.027l0.294,0.228l-0.041,0.039
		l-0.039,0.054l-0.107,0.066l-0.16,0.08l-0.147,0.027l-0.16,0.013l-0.187-0.026l-0.173-0.08l-0.147-0.12l-0.133-0.173l-0.08-0.228
		l-0.027-0.28l0.027-0.293l0.08-0.24l0.12-0.173l0.146-0.12l0.187-0.08l0.2-0.04l0.2,0.026l0.2,0.08l0.187,0.146l0.12,0.187
		l0.054,0.228l0.026,0.187l-0.013,0.12V10.791z M27.919,10.432l-0.013-0.04l-0.027-0.053l-0.027-0.055l-0.053-0.053l-0.053-0.04
		l-0.08-0.04l-0.08-0.013l-0.081,0.013l-0.079,0.04l-0.054,0.04l-0.04,0.053l-0.04,0.055l-0.013,0.053l-0.013,0.04l-0.014,0.04
		h0.667V10.432z"/>
	<polygon fill="#FFFFFF" points="29.546,9.777 29.546,9.925 29.599,9.885 29.639,9.857 29.706,9.831 29.786,9.791 29.893,9.777 
		29.986,9.765 30.106,9.765 30.226,9.805 30.373,9.871 30.507,9.978 30.6,10.11 30.653,10.231 30.68,10.365 30.68,10.524 
		30.68,11.604 30.253,11.604 30.253,10.524 30.226,10.392 30.146,10.285 30.041,10.205 29.906,10.178 29.773,10.205 29.653,10.285 
		29.586,10.405 29.546,10.538 29.546,11.604 29.119,11.604 29.119,9.777 	"/>
	<polygon fill="none" stroke="#007DC5" stroke-width="0.039" points="29.546,9.777 29.546,9.925 29.599,9.885 29.639,9.857 
		29.706,9.831 29.786,9.791 29.893,9.777 29.986,9.765 30.106,9.765 30.226,9.805 30.373,9.871 30.507,9.978 30.6,10.11 
		30.653,10.231 30.68,10.365 30.68,10.524 30.68,11.604 30.253,11.604 30.253,10.524 30.226,10.392 30.146,10.285 30.041,10.205 
		29.906,10.178 29.773,10.205 29.653,10.285 29.586,10.405 29.546,10.538 29.546,11.604 29.119,11.604 29.119,9.777 	"/>
	<polygon fill="#FFFFFF" points="25.478,36.482 25.478,37.964 25.411,38.324 25.198,38.631 24.891,38.844 24.704,38.911 
		24.504,38.924 24.304,38.911 24.117,38.844 23.81,38.644 23.624,38.324 23.544,37.95 23.544,36.482 23.944,36.482 23.944,37.95 
		23.984,38.164 24.104,38.351 24.277,38.471 24.504,38.523 24.731,38.484 24.918,38.364 25.051,38.177 25.091,37.95 25.091,36.482 	
		"/>
	<polygon fill="none" stroke="#007DC5" stroke-width="0.039" points="25.478,36.482 25.478,37.964 25.411,38.324 25.198,38.631 
		24.891,38.844 24.704,38.911 24.504,38.924 24.304,38.911 24.117,38.844 23.81,38.644 23.624,38.324 23.544,37.95 23.544,36.482 
		23.944,36.482 23.944,37.95 23.984,38.164 24.104,38.351 24.277,38.471 24.504,38.523 24.731,38.484 24.918,38.364 25.051,38.177 
		25.091,37.95 25.091,36.482 	"/>
	<polygon fill="#FFFFFF" points="26.958,36.482 26.958,37.083 27.398,37.083 27.398,37.497 26.958,37.497 26.958,38.337 
		26.958,38.377 26.958,38.417 26.985,38.457 27.025,38.484 27.065,38.511 27.119,38.511 27.171,38.511 27.226,38.497 27.278,38.484 
		27.332,38.444 27.373,38.417 27.413,38.39 27.332,38.831 27.292,38.856 27.252,38.871 27.186,38.896 27.119,38.911 27.051,38.924 
		26.973,38.924 26.892,38.911 26.812,38.896 26.746,38.856 26.666,38.804 26.599,38.724 26.559,38.631 26.531,38.537 26.519,38.431 
		26.519,37.497 26.199,37.497 26.199,37.083 26.519,37.083 26.519,36.643 	"/>
	<polygon fill="none" stroke="#007DC5" stroke-width="0.039" points="26.958,36.482 26.958,37.083 27.398,37.083 27.398,37.497 
		26.958,37.497 26.958,38.337 26.958,38.377 26.958,38.417 26.985,38.457 27.025,38.484 27.065,38.511 27.119,38.511 27.171,38.511 
		27.226,38.497 27.278,38.484 27.332,38.444 27.373,38.417 27.413,38.39 27.332,38.831 27.292,38.856 27.252,38.871 27.186,38.896 
		27.119,38.911 27.051,38.924 26.973,38.924 26.892,38.911 26.812,38.896 26.746,38.856 26.666,38.804 26.599,38.724 26.559,38.631 
		26.531,38.537 26.519,38.431 26.519,37.497 26.199,37.497 26.199,37.083 26.519,37.083 26.519,36.643 	"/>
	<polygon fill="#FFFFFF" points="28.613,37.069 28.613,37.229 28.64,37.203 28.68,37.177 28.746,37.137 28.826,37.084 28.92,37.057 
		29.026,37.057 29.105,37.057 29.187,37.084 29.252,37.109 29.292,37.123 29.333,37.149 29.36,37.163 29.226,37.617 29.213,37.604 
		29.187,37.577 29.146,37.537 29.093,37.51 29.026,37.497 28.946,37.497 28.88,37.497 28.8,37.537 28.72,37.59 28.666,37.67 
		28.625,37.764 28.613,37.87 28.613,38.897 28.186,38.897 28.186,37.069 	"/>
	<polygon fill="none" stroke="#007DC5" stroke-width="0.039" points="28.613,37.069 28.613,37.229 28.64,37.203 28.68,37.177 
		28.746,37.137 28.826,37.084 28.92,37.057 29.026,37.057 29.105,37.057 29.187,37.084 29.252,37.109 29.292,37.123 29.333,37.149 
		29.36,37.163 29.226,37.617 29.213,37.604 29.187,37.577 29.146,37.537 29.093,37.51 29.026,37.497 28.946,37.497 28.88,37.497 
		28.8,37.537 28.72,37.59 28.666,37.67 28.625,37.764 28.613,37.87 28.613,38.897 28.186,38.897 28.186,37.069 	"/>
	<path fill="#FFFFFF" d="M31.28,38.083h-1.107v0.055v0.053l0.027,0.08l0.026,0.08l0.054,0.066l0.067,0.066l0.079,0.04l0.081,0.014
		h0.08l0.08-0.026l0.067-0.027l0.039-0.026l0.04-0.026l0.041-0.027l0.293,0.228l-0.04,0.039l-0.054,0.054l-0.106,0.066L30.8,38.857
		l-0.16,0.053h-0.16l-0.174-0.025l-0.186-0.08l-0.147-0.121l-0.12-0.173l-0.093-0.228l-0.027-0.293l0.027-0.28l0.08-0.239
		l0.12-0.174l0.146-0.12l0.187-0.094l0.214-0.026l0.2,0.026l0.186,0.066l0.187,0.147l0.12,0.199l0.067,0.228l0.013,0.187v0.107
		V38.083z M30.84,37.724l-0.013-0.04l-0.014-0.053l-0.04-0.055l-0.039-0.053l-0.067-0.04l-0.08-0.04l-0.08-0.014l-0.081,0.014
		l-0.079,0.027l-0.054,0.053l-0.04,0.053l-0.027,0.055L30.2,37.67l-0.014,0.04v0.054h0.668L30.84,37.724z"/>
	<path fill="none" stroke="#007DC5" stroke-width="0.039" d="M31.28,38.083h-1.107v0.055v0.053l0.027,0.08l0.026,0.08l0.054,0.066
		l0.067,0.066l0.079,0.04l0.081,0.014h0.08l0.08-0.026l0.067-0.027l0.039-0.026l0.04-0.026l0.041-0.027l0.293,0.228l-0.04,0.039
		l-0.054,0.054l-0.106,0.066L30.8,38.857l-0.16,0.053h-0.16l-0.174-0.025l-0.186-0.08l-0.147-0.121l-0.12-0.173l-0.093-0.228
		l-0.027-0.293l0.027-0.28l0.08-0.239l0.12-0.174l0.146-0.12l0.187-0.094l0.214-0.026l0.2,0.026l0.186,0.066l0.187,0.147l0.12,0.199
		l0.067,0.228l0.013,0.187v0.107V38.083z M30.84,37.724l-0.013-0.04l-0.014-0.053l-0.04-0.055l-0.039-0.053l-0.067-0.04l-0.08-0.04
		l-0.08-0.014l-0.081,0.014l-0.079,0.027l-0.054,0.053l-0.04,0.053l-0.027,0.055L30.2,37.67l-0.014,0.04v0.054h0.668L30.84,37.724z"
		/>
	<polygon fill="#FFFFFF" points="33.415,37.43 33.135,37.737 33.108,37.697 33.082,37.657 33.028,37.59 32.948,37.522 
		32.841,37.483 32.708,37.47 32.575,37.483 32.468,37.55 32.374,37.63 32.321,37.737 32.281,37.87 32.268,38.017 32.295,38.164 
		32.348,38.284 32.415,38.364 32.508,38.444 32.601,38.484 32.721,38.511 32.841,38.497 32.948,38.444 33.028,38.377 33.082,38.324 
		33.108,38.284 33.121,38.244 33.402,38.551 33.375,38.591 33.322,38.644 33.242,38.724 33.095,38.817 32.908,38.884 32.708,38.911 
		32.535,38.896 32.361,38.831 32.175,38.711 32,38.537 31.881,38.297 31.841,38.004 31.868,37.724 31.974,37.47 32.121,37.283 
		32.308,37.163 32.508,37.083 32.721,37.057 32.935,37.083 33.121,37.149 33.255,37.257 33.348,37.337 33.388,37.39 	"/>
	<polygon fill="none" stroke="#007DC5" stroke-width="0.039" points="33.415,37.43 33.135,37.737 33.108,37.697 33.082,37.657 
		33.028,37.59 32.948,37.522 32.841,37.483 32.708,37.47 32.575,37.483 32.468,37.55 32.374,37.63 32.321,37.737 32.281,37.87 
		32.268,38.017 32.295,38.164 32.348,38.284 32.415,38.364 32.508,38.444 32.601,38.484 32.721,38.511 32.841,38.497 32.948,38.444 
		33.028,38.377 33.082,38.324 33.108,38.284 33.121,38.244 33.402,38.551 33.375,38.591 33.322,38.644 33.242,38.724 33.095,38.817 
		32.908,38.884 32.708,38.911 32.535,38.896 32.361,38.831 32.175,38.711 32,38.537 31.881,38.297 31.841,38.004 31.868,37.724 
		31.974,37.47 32.121,37.283 32.308,37.163 32.508,37.083 32.721,37.057 32.935,37.083 33.121,37.149 33.255,37.257 33.348,37.337 
		33.388,37.39 	"/>
	<polygon fill="#FFFFFF" points="34.148,36.482 34.588,36.482 34.588,37.377 34.615,37.35 34.642,37.31 34.695,37.257 
		34.761,37.203 34.842,37.149 34.922,37.11 35.002,37.083 35.095,37.083 35.175,37.083 35.269,37.097 35.362,37.137 35.456,37.177 
		35.548,37.257 35.629,37.35 35.683,37.457 35.709,37.563 35.722,37.683 35.735,37.817 35.735,38.896 35.295,38.896 35.295,37.91 
		35.282,37.817 35.269,37.724 35.242,37.644 35.202,37.577 35.148,37.523 35.095,37.497 35.028,37.47 34.948,37.47 34.868,37.482 
		34.789,37.51 34.721,37.563 34.668,37.617 34.628,37.697 34.602,37.777 34.588,37.87 34.588,37.964 34.588,38.896 34.148,38.896 	
		"/>
	<polygon fill="none" stroke="#007DC5" stroke-width="0.039" points="34.148,36.482 34.588,36.482 34.588,37.377 34.615,37.35 
		34.642,37.31 34.695,37.257 34.761,37.203 34.842,37.149 34.922,37.11 35.002,37.083 35.095,37.083 35.175,37.083 35.269,37.097 
		35.362,37.137 35.456,37.177 35.548,37.257 35.629,37.35 35.683,37.457 35.709,37.563 35.722,37.683 35.735,37.817 35.735,38.896 
		35.295,38.896 35.295,37.91 35.282,37.817 35.269,37.724 35.242,37.644 35.202,37.577 35.148,37.523 35.095,37.497 35.028,37.47 
		34.948,37.47 34.868,37.482 34.789,37.51 34.721,37.563 34.668,37.617 34.628,37.697 34.602,37.777 34.588,37.87 34.588,37.964 
		34.588,38.896 34.148,38.896 	"/>
	<polygon fill="#FFFFFF" points="37.189,36.482 37.189,37.083 37.629,37.083 37.629,37.497 37.189,37.497 37.189,38.337 
		37.189,38.377 37.204,38.417 37.217,38.457 37.256,38.484 37.31,38.511 37.363,38.511 37.417,38.511 37.457,38.497 37.522,38.484 
		37.577,38.444 37.617,38.417 37.656,38.39 37.563,38.831 37.522,38.856 37.483,38.871 37.43,38.896 37.35,38.911 37.283,38.924 
		37.217,38.924 37.137,38.911 37.057,38.896 36.977,38.856 36.896,38.804 36.83,38.724 36.79,38.631 36.763,38.537 36.763,38.431 
		36.763,37.497 36.442,37.497 36.442,37.083 36.763,37.083 36.763,36.643 	"/>
	<polygon fill="none" stroke="#007DC5" stroke-width="0.039" points="37.189,36.482 37.189,37.083 37.629,37.083 37.629,37.497 
		37.189,37.497 37.189,38.337 37.189,38.377 37.204,38.417 37.217,38.457 37.256,38.484 37.31,38.511 37.363,38.511 37.417,38.511 
		37.457,38.497 37.522,38.484 37.577,38.444 37.617,38.417 37.656,38.39 37.563,38.831 37.522,38.856 37.483,38.871 37.43,38.896 
		37.35,38.911 37.283,38.924 37.217,38.924 37.137,38.911 37.057,38.896 36.977,38.856 36.896,38.804 36.83,38.724 36.79,38.631 
		36.763,38.537 36.763,38.431 36.763,37.497 36.442,37.497 36.442,37.083 36.763,37.083 36.763,36.643 	"/>
	<path fill="#FFFFFF" d="M3.948,30.561l1.014,2.427H4.535l-0.253-0.6H3.215l-0.254,0.6H2.548l1.013-2.427H3.948z M3.388,31.987
		h0.734L3.761,31.12L3.388,31.987z"/>
	<path fill="none" stroke="#007DC5" stroke-width="0.039" d="M3.948,30.561l1.014,2.427H4.535l-0.253-0.6H3.215l-0.254,0.6H2.548
		l1.013-2.427H3.948z M3.388,31.987h0.734L3.761,31.12L3.388,31.987z"/>
	<polygon fill="#FFFFFF" points="6.069,31.16 6.069,31.32 6.096,31.28 6.122,31.254 6.189,31.214 6.269,31.174 6.376,31.146 
		6.469,31.134 6.563,31.146 6.643,31.16 6.696,31.188 6.75,31.214 6.776,31.228 6.803,31.254 6.683,31.708 6.656,31.681 
		6.629,31.653 6.589,31.628 6.536,31.601 6.469,31.588 6.402,31.573 6.336,31.588 6.256,31.613 6.176,31.681 6.109,31.761 
		6.069,31.854 6.069,31.961 6.069,32.988 5.629,32.988 5.629,31.16 	"/>
	<polygon fill="none" stroke="#007DC5" stroke-width="0.039" points="6.069,31.16 6.069,31.32 6.096,31.28 6.122,31.254 
		6.189,31.214 6.269,31.174 6.376,31.146 6.469,31.134 6.563,31.146 6.643,31.16 6.696,31.188 6.75,31.214 6.776,31.228 
		6.803,31.254 6.683,31.708 6.656,31.681 6.629,31.653 6.589,31.628 6.536,31.601 6.469,31.588 6.402,31.573 6.336,31.588 
		6.256,31.613 6.176,31.681 6.109,31.761 6.069,31.854 6.069,31.961 6.069,32.988 5.629,32.988 5.629,31.16 	"/>
	<polygon fill="#FFFFFF" points="7.817,31.16 7.817,31.294 7.87,31.268 7.91,31.24 7.977,31.2 8.057,31.174 8.164,31.146 
		8.257,31.134 8.364,31.146 8.497,31.174 8.644,31.254 8.777,31.36 8.871,31.48 8.924,31.613 8.951,31.748 8.951,31.907 
		8.951,32.988 8.524,32.988 8.524,31.907 8.497,31.774 8.417,31.653 8.297,31.588 8.164,31.561 8.043,31.588 7.924,31.668 
		7.856,31.774 7.817,31.907 7.817,32.988 7.39,32.988 7.39,31.16 	"/>
	<polygon fill="none" stroke="#007DC5" stroke-width="0.039" points="7.817,31.16 7.817,31.294 7.87,31.268 7.91,31.24 7.977,31.2 
		8.057,31.174 8.164,31.146 8.257,31.134 8.364,31.146 8.497,31.174 8.644,31.254 8.777,31.36 8.871,31.48 8.924,31.613 
		8.951,31.748 8.951,31.907 8.951,32.988 8.524,32.988 8.524,31.907 8.497,31.774 8.417,31.653 8.297,31.588 8.164,31.561 
		8.043,31.588 7.924,31.668 7.856,31.774 7.817,31.907 7.817,32.988 7.39,32.988 7.39,31.16 	"/>
	<polygon fill="#FFFFFF" points="9.884,30.561 10.324,30.561 10.324,31.467 10.351,31.44 10.378,31.4 10.418,31.348 10.498,31.294 
		10.564,31.24 10.658,31.2 10.738,31.174 10.831,31.16 10.911,31.174 11.004,31.188 11.098,31.214 11.191,31.268 11.285,31.348 
		11.365,31.44 11.418,31.547 11.445,31.654 11.458,31.761 11.471,31.907 11.471,32.988 11.018,32.988 11.018,31.987 11.018,31.895 
		11.004,31.801 10.979,31.722 10.938,31.654 10.884,31.614 10.831,31.574 10.764,31.561 10.684,31.561 10.604,31.574 10.524,31.602 
		10.458,31.654 10.404,31.707 10.364,31.787 10.338,31.867 10.324,31.947 10.324,32.054 10.324,32.988 9.884,32.988 	"/>
	<polygon fill="none" stroke="#007DC5" stroke-width="0.039" points="9.884,30.561 10.324,30.561 10.324,31.467 10.351,31.44 
		10.378,31.4 10.418,31.348 10.498,31.294 10.564,31.24 10.658,31.2 10.738,31.174 10.831,31.16 10.911,31.174 11.004,31.188 
		11.098,31.214 11.191,31.268 11.285,31.348 11.365,31.44 11.418,31.547 11.445,31.654 11.458,31.761 11.471,31.907 11.471,32.988 
		11.018,32.988 11.018,31.987 11.018,31.895 11.004,31.801 10.979,31.722 10.938,31.654 10.884,31.614 10.831,31.574 10.764,31.561 
		10.684,31.561 10.604,31.574 10.524,31.602 10.458,31.654 10.404,31.707 10.364,31.787 10.338,31.867 10.324,31.947 10.324,32.054 
		10.324,32.988 9.884,32.988 	"/>
	<path fill="#FFFFFF" d="M13.313,31.854h-0.667v-0.054l0.013-0.04l0.027-0.04l0.027-0.053l0.04-0.055l0.053-0.053l0.08-0.026
		l0.08-0.014l0.08,0.014l0.08,0.026l0.067,0.053l0.04,0.04l0.04,0.067l0.013,0.04l0.014,0.04L13.313,31.854z M13.739,32.107v-0.106
		l-0.027-0.2l-0.053-0.213l-0.12-0.2l-0.187-0.147l-0.2-0.079l-0.187-0.015l-0.213,0.027l-0.187,0.08l-0.147,0.134l-0.12,0.173
		l-0.08,0.24l-0.026,0.28l0.026,0.279l0.08,0.241l0.134,0.159l0.146,0.134l0.187,0.067l0.174,0.04l0.16-0.015l0.16-0.04l0.147-0.065
		l0.106-0.067l0.054-0.054l0.04-0.039l-0.294-0.227l-0.04,0.026l-0.04,0.014l-0.04,0.04l-0.067,0.026l-0.093,0.013l-0.067,0.014
		l-0.08-0.026l-0.08-0.026l-0.066-0.067l-0.054-0.067l-0.04-0.08l-0.013-0.08v-0.053v-0.053h1.094L13.739,32.107z"/>
	<path fill="none" stroke="#007DC5" stroke-width="0.039" d="M13.313,31.854h-0.667v-0.054l0.013-0.04l0.027-0.04l0.027-0.053
		l0.04-0.055l0.053-0.053l0.08-0.026l0.08-0.014l0.08,0.014l0.08,0.026l0.067,0.053l0.04,0.04l0.04,0.067l0.013,0.04l0.014,0.04
		L13.313,31.854z M13.739,32.107v-0.106l-0.027-0.2l-0.053-0.213l-0.12-0.2l-0.187-0.147l-0.2-0.079l-0.187-0.015l-0.213,0.027
		l-0.187,0.08l-0.147,0.134l-0.12,0.173l-0.08,0.24l-0.026,0.28l0.026,0.279l0.08,0.241l0.134,0.159l0.146,0.134l0.187,0.067
		l0.174,0.04l0.16-0.015l0.16-0.04l0.147-0.065l0.106-0.067l0.054-0.054l0.04-0.039l-0.294-0.227l-0.04,0.026l-0.04,0.014
		l-0.04,0.04l-0.067,0.026l-0.093,0.013l-0.067,0.014l-0.08-0.026l-0.08-0.026l-0.066-0.067l-0.054-0.067l-0.04-0.08l-0.013-0.08
		v-0.053v-0.053h1.094L13.739,32.107z"/>
	<polygon fill="#FFFFFF" points="14.94,31.16 14.94,31.32 14.98,31.294 15.007,31.254 15.087,31.214 15.18,31.188 15.287,31.146 
		15.407,31.134 15.554,31.16 15.687,31.2 15.78,31.268 15.861,31.32 15.9,31.36 15.927,31.388 15.954,31.36 16.007,31.308 
		16.087,31.24 16.207,31.188 16.314,31.16 16.461,31.146 16.634,31.174 16.807,31.24 16.941,31.36 17.048,31.493 17.101,31.681 
		17.128,31.881 17.128,32.988 16.687,32.988 16.687,31.895 16.661,31.774 16.594,31.668 16.487,31.601 16.367,31.573 16.234,31.601 
		16.141,31.668 16.06,31.774 16.034,31.907 16.034,32.988 15.594,32.988 15.594,31.895 15.567,31.774 15.5,31.668 15.407,31.601 
		15.287,31.561 15.153,31.588 15.047,31.653 14.967,31.761 14.94,31.895 14.94,32.988 14.5,32.988 14.5,31.16 	"/>
	<polygon fill="none" stroke="#007DC5" stroke-width="0.039" points="14.94,31.16 14.94,31.32 14.98,31.294 15.007,31.254 
		15.087,31.214 15.18,31.188 15.287,31.146 15.407,31.134 15.554,31.16 15.687,31.2 15.78,31.268 15.861,31.32 15.9,31.36 
		15.927,31.388 15.954,31.36 16.007,31.308 16.087,31.24 16.207,31.188 16.314,31.16 16.461,31.146 16.634,31.174 16.807,31.24 
		16.941,31.36 17.048,31.493 17.101,31.681 17.128,31.881 17.128,32.988 16.687,32.988 16.687,31.895 16.661,31.774 16.594,31.668 
		16.487,31.601 16.367,31.573 16.234,31.601 16.141,31.668 16.06,31.774 16.034,31.907 16.034,32.988 15.594,32.988 15.594,31.895 
		15.567,31.774 15.5,31.668 15.407,31.601 15.287,31.561 15.153,31.588 15.047,31.653 14.967,31.761 14.94,31.895 14.94,32.988 
		14.5,32.988 14.5,31.16 	"/>
	<polygon fill="#FFFFFF" points="19.849,28.053 19.182,27.372 18.942,27.612 18.702,27.853 19.182,28.332 19.182,30.28 
		18.702,30.761 18.942,31.001 19.182,31.24 19.849,30.561 19.849,29.307 	"/>
	<polygon fill="#FFFFFF" points="21.409,28.053 22.089,27.372 22.329,27.612 22.556,27.853 22.076,28.332 22.076,30.28 
		22.556,30.761 22.329,31.001 22.089,31.24 21.409,30.561 	"/>
	<polygon fill="#FFFFFF" points="21.049,26.772 22.316,26.772 22.316,26.612 21.049,26.612 21.049,26.091 22.316,26.091 
		22.316,25.932 21.049,25.932 21.049,21.863 22.116,22.116 22.183,22.116 22.25,22.09 22.289,22.05 22.316,21.983 22.316,21.917 
		22.303,21.863 20.769,19.649 20.755,19.636 20.729,19.609 20.689,19.595 20.662,19.582 20.635,19.582 20.595,19.582 20.569,19.595 
		20.542,19.609 20.515,19.636 20.489,19.649 18.968,21.863 18.941,21.917 18.941,21.983 18.968,22.05 19.021,22.09 19.075,22.116 
		19.141,22.116 20.209,21.863 20.209,25.932 16.153,25.932 16.393,24.864 16.393,24.798 16.367,24.731 16.327,24.691 16.26,24.664 
		16.193,24.664 16.14,24.678 13.939,26.212 13.913,26.225 13.886,26.252 13.872,26.292 13.859,26.319 13.859,26.345 13.859,26.385 
		13.872,26.412 13.886,26.439 13.913,26.465 13.939,26.492 16.14,28.012 16.193,28.039 16.26,28.039 16.327,28.012 16.367,27.972 
		16.393,27.906 16.393,27.839 16.153,26.772 20.209,26.772 20.209,31.841 18.941,31.841 18.941,32.014 20.209,32.014 20.209,32.521 
		18.941,32.521 18.941,32.681 20.209,32.681 20.209,38.897 21.049,38.897 21.049,32.681 25.117,32.681 24.864,33.748 24.864,33.815 
		24.891,33.881 24.931,33.935 24.997,33.949 25.064,33.949 25.131,33.935 27.333,32.401 27.358,32.388 27.372,32.361 27.385,32.334 
		27.399,32.294 27.399,32.268 27.399,32.228 27.385,32.201 27.372,32.174 27.358,32.148 27.333,32.121 25.131,30.6 25.064,30.574 
		24.997,30.574 24.931,30.6 24.891,30.654 24.864,30.707 24.864,30.774 25.117,31.841 21.049,31.841 	"/>
	<polygon fill="#FFFFFF" points="37.723,34.669 37.937,34.616 38.11,34.496 38.23,34.322 38.271,34.108 38.271,30.414 38.23,30.2 
		38.11,30.026 37.937,29.907 37.723,29.867 29.773,29.867 29.559,29.907 29.373,30.026 29.253,30.2 29.213,30.414 29.213,34.108 
		29.253,34.322 29.373,34.496 29.559,34.616 29.773,34.669 	"/>
	<polygon fill="#FFDD00" points="14.98,17.768 14.86,17.755 14.753,17.675 14.687,17.581 14.66,17.448 14.66,13.74 14.687,13.619 
		14.753,13.513 14.86,13.446 14.98,13.419 26.278,13.419 26.412,13.446 26.505,13.513 26.585,13.619 26.612,13.74 26.612,17.448 
		26.585,17.581 26.505,17.675 26.412,17.755 26.278,17.768 	"/>
	<polygon fill="#FFFFFF" points="32.561,7.377 32.628,7.377 32.761,7.323 32.868,7.217 32.921,7.084 32.921,7.017 32.921,2.907 
		32.921,2.828 32.868,2.694 32.761,2.602 32.628,2.535 32.561,2.535 8.71,2.535 8.63,2.535 8.497,2.602 8.404,2.694 8.337,2.828 
		8.337,2.907 8.337,7.017 8.337,7.084 8.404,7.217 8.497,7.323 8.63,7.377 8.71,7.377 20.636,7.377 	"/>
	<polygon fill="#ED1C24" points="29.773,34.429 29.653,34.401 29.546,34.336 29.48,34.229 29.453,34.108 29.453,30.413 
		29.48,30.294 29.546,30.187 29.653,30.12 29.773,30.094 37.723,30.094 37.843,30.12 37.95,30.187 38.018,30.294 38.043,30.413 
		38.043,34.108 38.018,34.229 37.95,34.336 37.843,34.401 37.723,34.429 	"/>
	<polygon fill="#ED1C24" points="11.499,28.52 11.618,28.492 11.726,28.412 11.792,28.319 11.818,28.199 11.818,24.505 
		11.792,24.385 11.726,24.277 11.618,24.21 11.499,24.185 3.548,24.185 3.415,24.21 3.321,24.277 3.241,24.385 3.229,24.505 
		3.229,28.199 3.241,28.319 3.321,28.412 3.415,28.492 3.548,28.52 	"/>
	<polygon points="31.041,4.709 31.041,4.815 31.08,4.789 31.107,4.776 31.16,4.749 31.227,4.722 31.293,4.709 31.387,4.696 
		31.48,4.709 31.56,4.722 31.64,4.749 31.694,4.776 31.72,4.789 31.76,4.815 31.587,5.363 31.574,5.349 31.56,5.309 31.521,5.269 
		31.467,5.229 31.4,5.202 31.334,5.202 31.254,5.216 31.188,5.243 31.12,5.283 31.08,5.349 31.053,5.429 31.041,5.522 31.041,6.522 
		30.533,6.522 30.533,4.709 	"/>
	<polygon fill="none" stroke="#FFFFFF" stroke-width="0.039" points="31.041,4.709 31.041,4.815 31.08,4.789 31.107,4.776 
		31.16,4.749 31.227,4.722 31.293,4.709 31.387,4.696 31.48,4.709 31.56,4.722 31.64,4.749 31.694,4.776 31.72,4.789 31.76,4.815 
		31.587,5.363 31.574,5.349 31.56,5.309 31.521,5.269 31.467,5.229 31.4,5.202 31.334,5.202 31.254,5.216 31.188,5.243 31.12,5.283 
		31.08,5.349 31.053,5.429 31.041,5.522 31.041,6.522 30.533,6.522 30.533,4.709 	"/>
	<path d="M29.333,5.362h-0.534l0.013-0.04l0.014-0.027l0.013-0.04l0.027-0.025l0.04-0.04l0.04-0.027l0.053-0.026l0.067-0.014
		l0.053,0.014l0.054,0.014l0.053,0.025l0.04,0.04l0.027,0.04l0.013,0.04l0.013,0.027L29.333,5.362z M29.853,5.709V5.656V5.603
		l-0.013-0.12l-0.027-0.16l-0.04-0.16l-0.067-0.133L29.6,4.909l-0.12-0.094l-0.134-0.066L29.2,4.709l-0.134-0.014l-0.133,0.014
		l-0.134,0.026l-0.133,0.067l-0.12,0.093l-0.107,0.12l-0.08,0.174l-0.067,0.2l-0.013,0.227l0.013,0.213l0.054,0.188l0.08,0.16
		l0.093,0.133l0.134,0.106l0.133,0.067l0.147,0.04l0.133,0.025L29.2,6.536l0.119-0.026l0.107-0.054l0.107-0.053l0.093-0.054
		l0.054-0.054l0.026-0.04l0.027-0.026l-0.347-0.268L29.36,5.977l-0.027,0.025l-0.04,0.04l-0.067,0.04l-0.08,0.015l-0.067,0.013
		l-0.066-0.013l-0.067-0.027l-0.04-0.04l-0.053-0.067l-0.041-0.065l-0.013-0.067v-0.04v-0.04h1.041L29.853,5.709z"/>
	<path fill="none" stroke="#FFFFFF" stroke-width="0.039" d="M29.333,5.362h-0.534l0.013-0.04l0.014-0.027l0.013-0.04l0.027-0.025
		l0.04-0.04l0.04-0.027l0.053-0.026l0.067-0.014l0.053,0.014l0.054,0.014l0.053,0.025l0.04,0.04l0.027,0.04l0.013,0.04l0.013,0.027
		L29.333,5.362z M29.853,5.709V5.656V5.603l-0.013-0.12l-0.027-0.16l-0.04-0.16l-0.067-0.133L29.6,4.909l-0.12-0.094l-0.134-0.066
		L29.2,4.709l-0.134-0.014l-0.133,0.014l-0.134,0.026l-0.133,0.067l-0.12,0.093l-0.107,0.12l-0.08,0.174l-0.067,0.2l-0.013,0.227
		l0.013,0.213l0.054,0.188l0.08,0.16l0.093,0.133l0.134,0.106l0.133,0.067l0.147,0.04l0.133,0.025L29.2,6.536l0.119-0.026
		l0.107-0.054l0.107-0.053l0.093-0.054l0.054-0.054l0.026-0.04l0.027-0.026l-0.347-0.268L29.36,5.977l-0.027,0.025l-0.04,0.04
		l-0.067,0.04l-0.08,0.015l-0.067,0.013l-0.066-0.013l-0.067-0.027l-0.04-0.04l-0.053-0.067l-0.041-0.065l-0.013-0.067v-0.04v-0.04
		h1.041L29.853,5.709z"/>
	<path d="M27.785,5.749h-1.04v0.04v0.04l0.026,0.067l0.027,0.066l0.053,0.066l0.054,0.04l0.053,0.027l0.067,0.013l0.08-0.013
		l0.066-0.015l0.067-0.039l0.04-0.04l0.027-0.026l0.027-0.014l0.347,0.267l-0.027,0.027l-0.027,0.04L27.572,6.35l-0.094,0.053
		l-0.106,0.054L27.266,6.51l-0.12,0.026L27.011,6.55l-0.133-0.027l-0.133-0.039l-0.147-0.066l-0.12-0.107l-0.107-0.133l-0.08-0.16
		l-0.04-0.188l-0.027-0.214l0.027-0.226l0.053-0.2l0.081-0.174l0.119-0.12l0.12-0.093l0.121-0.067l0.133-0.027l0.133-0.013
		l0.134,0.013l0.147,0.04l0.133,0.067l0.12,0.093l0.107,0.12l0.066,0.134l0.054,0.16l0.013,0.16l0.014,0.12v0.053V5.71L27.785,5.749
		z M27.266,5.322V5.296l-0.014-0.04l-0.039-0.04l-0.041-0.04l-0.053-0.026l-0.053-0.014l-0.054-0.014l-0.053,0.014l-0.067,0.026
		l-0.04,0.027l-0.04,0.04l-0.026,0.026l-0.014,0.04l-0.013,0.026v0.04h0.52L27.266,5.322z"/>
	<path fill="none" stroke="#FFFFFF" stroke-width="0.039" d="M27.785,5.749h-1.04v0.04v0.04l0.026,0.067l0.027,0.066l0.053,0.066
		l0.054,0.04l0.053,0.027l0.067,0.013l0.08-0.013l0.066-0.015l0.067-0.039l0.04-0.04l0.027-0.026l0.027-0.014l0.347,0.267
		l-0.027,0.027l-0.027,0.04L27.572,6.35l-0.094,0.053l-0.106,0.054L27.266,6.51l-0.12,0.026L27.011,6.55l-0.133-0.027l-0.133-0.039
		l-0.147-0.066l-0.12-0.107l-0.107-0.133l-0.08-0.16l-0.04-0.188l-0.027-0.214l0.027-0.226l0.053-0.2l0.081-0.174l0.119-0.12
		l0.12-0.093l0.121-0.067l0.133-0.027l0.133-0.013l0.134,0.013l0.147,0.04l0.133,0.067l0.12,0.093l0.107,0.12l0.066,0.134
		l0.054,0.16l0.013,0.16l0.014,0.12v0.053V5.71L27.785,5.749z M27.266,5.322V5.296l-0.014-0.04l-0.039-0.04l-0.041-0.04
		l-0.053-0.026l-0.053-0.014l-0.054-0.014l-0.053,0.014l-0.067,0.026l-0.04,0.027l-0.04,0.04l-0.026,0.026l-0.014,0.04l-0.013,0.026
		v0.04h0.52L27.266,5.322z"/>
	<polygon points="23.477,4.709 23.477,4.815 23.504,4.789 23.544,4.762 23.611,4.736 23.691,4.709 23.784,4.696 23.877,4.682 
		23.984,4.696 24.104,4.722 24.211,4.776 24.291,4.829 24.331,4.869 24.371,4.896 24.398,4.869 24.451,4.829 24.531,4.776 
		24.638,4.722 24.758,4.696 24.905,4.682 25.064,4.709 25.224,4.762 25.371,4.869 25.478,5.016 25.558,5.216 25.585,5.429 
		25.585,6.522 25.078,6.522 25.078,5.456 25.051,5.349 24.998,5.256 24.905,5.202 24.811,5.176 24.704,5.202 24.611,5.256 
		24.544,5.349 24.531,5.469 24.531,6.522 24.024,6.522 24.024,5.469 23.997,5.349 23.944,5.256 23.864,5.202 23.757,5.176 
		23.651,5.202 23.557,5.256 23.504,5.349 23.477,5.469 23.477,6.522 22.97,6.522 22.97,4.709 	"/>
	<polygon fill="none" stroke="#FFFFFF" stroke-width="0.039" points="23.477,4.709 23.477,4.815 23.504,4.789 23.544,4.762 
		23.611,4.736 23.691,4.709 23.784,4.696 23.877,4.682 23.984,4.696 24.104,4.722 24.211,4.776 24.291,4.829 24.331,4.869 
		24.371,4.896 24.398,4.869 24.451,4.829 24.531,4.776 24.638,4.722 24.758,4.696 24.905,4.682 25.064,4.709 25.224,4.762 
		25.371,4.869 25.478,5.016 25.558,5.216 25.585,5.429 25.585,6.522 25.078,6.522 25.078,5.456 25.051,5.349 24.998,5.256 
		24.905,5.202 24.811,5.176 24.704,5.202 24.611,5.256 24.544,5.349 24.531,5.469 24.531,6.522 24.024,6.522 24.024,5.469 
		23.997,5.349 23.944,5.256 23.864,5.202 23.757,5.176 23.651,5.202 23.557,5.256 23.504,5.349 23.477,5.469 23.477,6.522 
		22.97,6.522 22.97,4.709 	"/>
	<polygon points="21.236,4.016 21.236,5.216 21.69,4.709 22.343,4.709 21.836,5.296 22.33,6.523 21.796,6.523 21.463,5.723 
		21.236,5.977 21.236,6.523 20.743,6.523 20.743,4.188 	"/>
	<polygon fill="none" stroke="#FFFFFF" stroke-width="0.039" points="21.236,4.016 21.236,5.216 21.69,4.709 22.343,4.709 
		21.836,5.296 22.33,6.523 21.796,6.523 21.463,5.723 21.236,5.977 21.236,6.523 20.743,6.523 20.743,4.188 	"/>
	<path d="M19.529,5.362h-0.52l0.013-0.04l0.013-0.027l0.014-0.04l0.026-0.025l0.04-0.04l0.04-0.027l0.054-0.026l0.066-0.014
		l0.054,0.014l0.053,0.014l0.04,0.025l0.053,0.04l0.027,0.04l0.013,0.04l0.014,0.027V5.362z M20.049,5.709V5.656V5.603v-0.12
		l-0.027-0.16l-0.04-0.16l-0.08-0.133l-0.093-0.12l-0.12-0.094l-0.133-0.066l-0.147-0.04l-0.147-0.014l-0.133,0.014l-0.134,0.026
		l-0.12,0.067l-0.12,0.093l-0.107,0.12l-0.093,0.174l-0.053,0.2l-0.027,0.227l0.027,0.213l0.053,0.188l0.08,0.16l0.093,0.133
		l0.12,0.106l0.147,0.067l0.134,0.04l0.133,0.025l0.133-0.013l0.134-0.026l0.106-0.054l0.107-0.053l0.08-0.054l0.067-0.054
		l0.027-0.04l0.026-0.026l-0.36-0.268l-0.013,0.015l-0.027,0.025l-0.04,0.04l-0.067,0.04l-0.08,0.015l-0.08,0.013l-0.066-0.013
		l-0.054-0.027l-0.053-0.04l-0.04-0.067l-0.04-0.065l-0.013-0.067l-0.014-0.04v-0.04h1.054V5.709z"/>
	<path fill="none" stroke="#FFFFFF" stroke-width="0.039" d="M19.529,5.362h-0.52l0.013-0.04l0.013-0.027l0.014-0.04l0.026-0.025
		l0.04-0.04l0.04-0.027l0.054-0.026l0.066-0.014l0.054,0.014l0.053,0.014l0.04,0.025l0.053,0.04l0.027,0.04l0.013,0.04l0.014,0.027
		V5.362z M20.049,5.709V5.656V5.603v-0.12l-0.027-0.16l-0.04-0.16l-0.08-0.133l-0.093-0.12l-0.12-0.094l-0.133-0.066l-0.147-0.04
		l-0.147-0.014l-0.133,0.014l-0.134,0.026l-0.12,0.067l-0.12,0.093l-0.107,0.12l-0.093,0.174l-0.053,0.2l-0.027,0.227l0.027,0.213
		l0.053,0.188l0.08,0.16l0.093,0.133l0.12,0.106l0.147,0.067l0.134,0.04l0.133,0.025l0.133-0.013l0.134-0.026l0.106-0.054
		l0.107-0.053l0.08-0.054l0.067-0.054l0.027-0.04l0.026-0.026l-0.36-0.268l-0.013,0.015l-0.027,0.025l-0.04,0.04l-0.067,0.04
		l-0.08,0.015l-0.08,0.013l-0.066-0.013l-0.054-0.027l-0.053-0.04l-0.04-0.067l-0.04-0.065l-0.013-0.067l-0.014-0.04v-0.04h1.054
		V5.709z"/>
	<path d="M17.527,5.629l-0.013,0.107L17.5,5.829l-0.013,0.094l-0.04,0.066l-0.04,0.054l-0.053,0.04l-0.067,0.013l-0.067,0.014
		l-0.066-0.014l-0.067-0.026l-0.04-0.04l-0.04-0.053l-0.04-0.054l-0.013-0.08l-0.027-0.106v-0.12l0.013-0.107l0.014-0.106
		l0.04-0.093l0.026-0.054l0.04-0.04l0.054-0.026l0.053-0.027l0.067-0.013l0.053,0.013l0.067,0.027l0.053,0.026l0.04,0.054
		l0.027,0.053L17.5,5.416l0.014,0.093L17.527,5.629z M17.995,5.389l-0.053-0.199l-0.08-0.147l-0.107-0.12l-0.133-0.106l-0.134-0.066
		l-0.133-0.04h-0.134h-0.12l-0.133,0.04L16.82,4.815l-0.133,0.094l-0.094,0.12l-0.08,0.16L16.46,5.389l-0.027,0.24l0.014,0.24
		l0.066,0.214l0.08,0.146l0.107,0.119l0.12,0.095l0.134,0.065l0.146,0.027l0.134,0.014h0.133L17.5,6.509l0.134-0.065l0.12-0.095
		l0.107-0.119l0.08-0.187l0.066-0.2l0.014-0.214L17.995,5.389z"/>
	<path fill="none" stroke="#FFFFFF" stroke-width="0.039" d="M17.527,5.629l-0.013,0.107L17.5,5.829l-0.013,0.094l-0.04,0.066
		l-0.04,0.054l-0.053,0.04l-0.067,0.013l-0.067,0.014l-0.066-0.014l-0.067-0.026l-0.04-0.04l-0.04-0.053l-0.04-0.054l-0.013-0.08
		l-0.027-0.106v-0.12l0.013-0.107l0.014-0.106l0.04-0.093l0.026-0.054l0.04-0.04l0.054-0.026l0.053-0.027l0.067-0.013l0.053,0.013
		l0.067,0.027l0.053,0.026l0.04,0.054l0.027,0.053L17.5,5.416l0.014,0.093L17.527,5.629z M17.995,5.389l-0.053-0.199l-0.08-0.147
		l-0.107-0.12l-0.133-0.106l-0.134-0.066l-0.133-0.04h-0.134h-0.12l-0.133,0.04L16.82,4.815l-0.133,0.094l-0.094,0.12l-0.08,0.16
		L16.46,5.389l-0.027,0.24l0.014,0.24l0.066,0.214l0.08,0.146l0.107,0.119l0.12,0.095l0.134,0.065l0.146,0.027l0.134,0.014h0.133
		L17.5,6.509l0.134-0.065l0.12-0.095l0.107-0.119l0.08-0.187l0.066-0.2l0.014-0.214L17.995,5.389z"/>
	<path d="M13.873,4.108h1.174l0.147,0.013l0.133,0.027l0.12,0.067l0.107,0.08l0.093,0.106l0.067,0.133l0.04,0.147l0.013,0.12
		l-0.013,0.12l-0.027,0.105l-0.053,0.081l-0.04,0.066l-0.027,0.026l-0.026,0.04l0.026,0.027l0.04,0.026l0.067,0.08l0.053,0.106
		l0.04,0.147l0.014,0.146l-0.014,0.134l-0.026,0.134l-0.08,0.134L15.606,6.31l-0.133,0.093l-0.12,0.067l-0.147,0.04l-0.173,0.013
		h-1.161V4.108z M14.339,5.016h0.734l0.08-0.027l0.08-0.039l0.053-0.066l0.013-0.08l-0.013-0.08l-0.053-0.08l-0.08-0.054
		L15.06,4.575h-0.72V5.016z M14.339,6.069h0.72l0.12-0.026l0.094-0.066l0.066-0.094l0.027-0.12l-0.027-0.107l-0.066-0.093
		l-0.107-0.067l-0.12-0.025h-0.707V6.069z"/>
	<path fill="none" stroke="#FFFFFF" stroke-width="0.039" d="M13.873,4.108h1.174l0.147,0.013l0.133,0.027l0.12,0.067l0.107,0.08
		l0.093,0.106l0.067,0.133l0.04,0.147l0.013,0.12l-0.013,0.12l-0.027,0.105l-0.053,0.081l-0.04,0.066l-0.027,0.026l-0.026,0.04
		l0.026,0.027l0.04,0.026l0.067,0.08l0.053,0.106l0.04,0.147l0.014,0.146l-0.014,0.134l-0.026,0.134l-0.08,0.134L15.606,6.31
		l-0.133,0.093l-0.12,0.067l-0.147,0.04l-0.173,0.013h-1.161V4.108z M14.339,5.016h0.734l0.08-0.027l0.08-0.039l0.053-0.066
		l0.013-0.08l-0.013-0.08l-0.053-0.08l-0.08-0.054L15.06,4.575h-0.72V5.016z M14.339,6.069h0.72l0.12-0.026l0.094-0.066l0.066-0.094
		l0.027-0.12l-0.027-0.107l-0.066-0.093l-0.107-0.067l-0.12-0.025h-0.707V6.069z"/>
	<polygon points="17.594,14.38 17.594,16.808 17.127,16.808 16.087,15.273 16.087,16.808 15.621,16.808 15.621,15.594 15.621,14.38 
		16.033,14.38 17.127,15.967 17.127,14.38 	"/>
	<polygon fill="none" stroke="#FFDD00" stroke-width="0.039" points="17.594,14.38 17.594,16.808 17.127,16.808 16.087,15.273 
		16.087,16.808 15.621,16.808 15.621,15.594 15.621,14.38 16.033,14.38 17.127,15.967 17.127,14.38 	"/>
	<polygon points="20.702,16.341 20.702,16.82 18.741,16.82 18.741,16.755 18.741,16.674 18.769,16.527 18.809,16.328 18.901,16.113 
		19.035,15.9 19.208,15.714 19.408,15.566 19.608,15.461 19.822,15.394 20.035,15.327 20.103,15.3 20.168,15.26 20.209,15.221 
		20.222,15.18 20.235,15.127 20.235,15.087 20.222,15.02 20.195,14.954 20.115,14.899 19.996,14.847 19.848,14.819 19.715,14.807 
		19.595,14.819 19.476,14.847 19.355,14.874 19.249,14.927 19.168,14.979 19.102,15.02 19.062,15.047 19.021,15.087 18.701,14.754 
		18.741,14.727 18.794,14.674 18.901,14.606 19.048,14.513 19.221,14.446 19.381,14.393 19.555,14.366 19.729,14.353 19.942,14.366 
		20.155,14.42 20.396,14.526 20.569,14.687 20.663,14.874 20.702,15.087 20.675,15.26 20.623,15.421 20.529,15.554 20.409,15.661 
		20.262,15.727 20.075,15.794 19.928,15.834 19.782,15.887 19.663,15.94 19.555,16.008 19.476,16.087 19.396,16.181 19.341,16.248 
		19.315,16.301 19.289,16.341 	"/>
	<polygon fill="none" stroke="#FFDD00" stroke-width="0.039" points="20.702,16.341 20.702,16.82 18.741,16.82 18.741,16.755 
		18.741,16.674 18.769,16.527 18.809,16.328 18.901,16.113 19.035,15.9 19.208,15.714 19.408,15.566 19.608,15.461 19.822,15.394 
		20.035,15.327 20.103,15.3 20.168,15.26 20.209,15.221 20.222,15.18 20.235,15.127 20.235,15.087 20.222,15.02 20.195,14.954 
		20.115,14.899 19.996,14.847 19.848,14.819 19.715,14.807 19.595,14.819 19.476,14.847 19.355,14.874 19.249,14.927 19.168,14.979 
		19.102,15.02 19.062,15.047 19.021,15.087 18.701,14.754 18.741,14.727 18.794,14.674 18.901,14.606 19.048,14.513 19.221,14.446 
		19.381,14.393 19.555,14.366 19.729,14.353 19.942,14.366 20.155,14.42 20.396,14.526 20.569,14.687 20.663,14.874 20.702,15.087 
		20.675,15.26 20.623,15.421 20.529,15.554 20.409,15.661 20.262,15.727 20.075,15.794 19.928,15.834 19.782,15.887 19.663,15.94 
		19.555,16.008 19.476,16.087 19.396,16.181 19.341,16.248 19.315,16.301 19.289,16.341 	"/>
	<polygon points="25.411,14.38 25.411,14.847 24.264,14.847 24.25,15.193 24.304,15.18 24.357,15.167 24.437,15.14 24.544,15.127 
		24.651,15.1 24.771,15.1 24.917,15.114 25.064,15.153 25.211,15.22 25.344,15.313 25.465,15.447 25.571,15.594 25.624,15.781 
		25.651,15.98 25.624,16.168 25.558,16.341 25.465,16.501 25.344,16.634 25.198,16.728 25.038,16.794 24.891,16.834 24.717,16.834 
		24.531,16.834 24.344,16.808 24.157,16.768 23.997,16.714 23.877,16.674 23.797,16.634 23.73,16.607 23.677,16.581 23.877,16.168 
		23.957,16.193 24.037,16.233 24.184,16.287 24.357,16.341 24.531,16.368 24.704,16.381 24.851,16.381 24.957,16.341 25.051,16.287 
		25.131,16.193 25.171,16.087 25.184,15.98 25.171,15.86 25.131,15.741 25.051,15.646 24.944,15.594 24.851,15.566 24.771,15.554 
		24.691,15.554 24.611,15.566 24.517,15.594 24.411,15.62 24.33,15.646 24.277,15.661 24.237,15.674 24.184,15.701 23.77,15.58 
		23.824,14.38 	"/>
	<polygon fill="none" stroke="#FFDD00" stroke-width="0.039" points="25.411,14.38 25.411,14.847 24.264,14.847 24.25,15.193 
		24.304,15.18 24.357,15.167 24.437,15.14 24.544,15.127 24.651,15.1 24.771,15.1 24.917,15.114 25.064,15.153 25.211,15.22 
		25.344,15.313 25.465,15.447 25.571,15.594 25.624,15.781 25.651,15.98 25.624,16.168 25.558,16.341 25.465,16.501 25.344,16.634 
		25.198,16.728 25.038,16.794 24.891,16.834 24.717,16.834 24.531,16.834 24.344,16.808 24.157,16.768 23.997,16.714 23.877,16.674 
		23.797,16.634 23.73,16.607 23.677,16.581 23.877,16.168 23.957,16.193 24.037,16.233 24.184,16.287 24.357,16.341 24.531,16.368 
		24.704,16.381 24.851,16.381 24.957,16.341 25.051,16.287 25.131,16.193 25.171,16.087 25.184,15.98 25.171,15.86 25.131,15.741 
		25.051,15.646 24.944,15.594 24.851,15.566 24.771,15.554 24.691,15.554 24.611,15.566 24.517,15.594 24.411,15.62 24.33,15.646 
		24.277,15.661 24.237,15.674 24.184,15.701 23.77,15.58 23.824,14.38 	"/>
	<polygon points="23.13,16.341 23.13,16.82 21.169,16.82 21.169,16.755 21.169,16.674 21.183,16.527 21.236,16.328 21.329,16.113 
		21.463,15.9 21.636,15.714 21.836,15.566 22.036,15.461 22.25,15.394 22.463,15.327 22.543,15.3 22.596,15.26 22.623,15.221 
		22.65,15.18 22.663,15.127 22.663,15.087 22.65,15.02 22.623,14.954 22.543,14.899 22.423,14.847 22.276,14.819 22.143,14.807 
		22.01,14.819 21.89,14.847 21.769,14.874 21.676,14.927 21.596,14.979 21.529,15.02 21.489,15.047 21.449,15.087 21.129,14.754 
		21.169,14.727 21.223,14.674 21.329,14.606 21.476,14.513 21.649,14.446 21.809,14.393 21.983,14.366 22.156,14.353 22.37,14.366 
		22.583,14.42 22.823,14.526 22.997,14.687 23.09,14.874 23.13,15.087 23.104,15.26 23.05,15.421 22.957,15.554 22.837,15.661 
		22.69,15.727 22.503,15.794 22.343,15.834 22.196,15.887 22.076,15.94 21.983,16.008 21.903,16.087 21.823,16.181 21.769,16.248 
		21.743,16.301 21.716,16.341 	"/>
	<polygon fill="none" stroke="#FFDD00" stroke-width="0.039" points="23.13,16.341 23.13,16.82 21.169,16.82 21.169,16.755 
		21.169,16.674 21.183,16.527 21.236,16.328 21.329,16.113 21.463,15.9 21.636,15.714 21.836,15.566 22.036,15.461 22.25,15.394 
		22.463,15.327 22.543,15.3 22.596,15.26 22.623,15.221 22.65,15.18 22.663,15.127 22.663,15.087 22.65,15.02 22.623,14.954 
		22.543,14.899 22.423,14.847 22.276,14.819 22.143,14.807 22.01,14.819 21.89,14.847 21.769,14.874 21.676,14.927 21.596,14.979 
		21.529,15.02 21.489,15.047 21.449,15.087 21.129,14.754 21.169,14.727 21.223,14.674 21.329,14.606 21.476,14.513 21.649,14.446 
		21.809,14.393 21.983,14.366 22.156,14.353 22.37,14.366 22.583,14.42 22.823,14.526 22.997,14.687 23.09,14.874 23.13,15.087 
		23.104,15.26 23.05,15.421 22.957,15.554 22.837,15.661 22.69,15.727 22.503,15.794 22.343,15.834 22.196,15.887 22.076,15.94 
		21.983,16.008 21.903,16.087 21.823,16.181 21.769,16.248 21.743,16.301 21.716,16.341 	"/>
	<path d="M10.405,6.243h-0.48V5.723h0.48V6.243z M11.352,6.243h-0.48V5.723h0.48V6.243z M12.299,6.243h-0.48V5.723h0.48V6.243z
		 M11.632,6.522h1.04V5.469l-0.253-0.439l-0.787,0.439l-0.254-0.439l-0.787,0.439l-0.253-0.439L9.551,5.482v1.04h1.04H11.632z"/>
	<polygon points="10.912,3.762 10.804,3.762 10.764,5.216 10.912,5.123 11.071,5.043 11.019,3.762 	"/>
	<polygon points="11.818,4.136 11.711,4.136 11.659,5.31 11.818,5.229 11.966,5.136 11.913,4.136 	"/>
	<polygon points="12.405,3.588 12.218,3.748 12.112,3.748 11.844,4.001 11.711,4.001 11.711,4.056 11.913,4.056 12.072,3.922 
		12.272,3.922 12.418,3.802 12.591,3.802 12.672,3.695 12.591,3.588 	"/>
	<polygon points="12.378,3.201 12.019,3.361 11.766,3.349 11.539,3.494 11.285,3.469 11.031,3.628 10.804,3.628 10.804,3.683 
		11.019,3.683 11.285,3.588 11.605,3.668 11.844,3.548 12.085,3.602 12.405,3.429 12.565,3.455 12.672,3.295 12.632,3.201 	"/>
	<path fill="#FFFFFF" d="M31.814,31.054l1.014,2.414h-0.427l-0.253-0.587h-1.067l-0.254,0.587H30.4l1.028-2.414H31.814z
		 M31.254,32.48h0.734l-0.361-0.866L31.254,32.48z"/>
	<path fill="none" stroke="#ED1C24" stroke-width="0.039" d="M31.814,31.054l1.014,2.414h-0.427l-0.253-0.587h-1.067l-0.254,0.587
		H30.4l1.028-2.414H31.814z M31.254,32.48h0.734l-0.361-0.866L31.254,32.48z"/>
	<polygon fill="#FFFFFF" points="34.162,31.04 34.135,31.08 34.108,31.108 34.068,31.147 34.015,31.2 33.935,31.241 33.869,31.268 
		33.828,31.28 33.788,31.294 33.788,31.614 34.095,31.614 34.095,33.482 34.508,33.482 34.508,31.04 	"/>
	<polygon fill="none" stroke="#ED1C24" stroke-width="0.039" points="34.508,31.04 34.508,33.481 34.095,33.481 34.095,31.614 
		33.789,31.614 33.789,31.294 33.829,31.28 33.869,31.268 33.935,31.24 34.015,31.2 34.068,31.147 34.108,31.107 34.134,31.08 
		34.162,31.04 	"/>
	<polygon fill="#FFFFFF" points="37.083,33.068 37.083,33.482 35.122,33.482 35.136,33.388 35.136,33.269 35.189,33.068 
		35.282,32.828 35.389,32.654 35.509,32.481 35.696,32.321 35.883,32.201 36.069,32.121 36.269,32.068 36.389,32.027 36.469,32.001 
		36.549,31.974 36.603,31.935 36.656,31.881 36.683,31.801 36.683,31.734 36.669,31.654 36.643,31.574 36.563,31.507 36.456,31.454 
		36.296,31.414 36.109,31.401 35.936,31.414 35.789,31.454 35.629,31.507 35.509,31.587 35.442,31.627 35.389,31.681 35.122,31.387 
		35.175,31.334 35.256,31.28 35.389,31.188 35.602,31.094 35.829,31.04 36.096,31.014 36.349,31.027 36.576,31.08 36.803,31.188 
		36.963,31.347 37.056,31.534 37.083,31.721 37.07,31.881 37.016,32.027 36.936,32.161 36.843,32.254 36.709,32.334 36.536,32.401 
		36.363,32.441 36.189,32.494 36.069,32.548 35.963,32.614 35.829,32.735 35.722,32.855 35.656,32.948 35.629,33.014 35.616,33.068 
			"/>
	<polygon fill="none" stroke="#ED1C24" stroke-width="0.039" points="37.083,33.068 37.083,33.482 35.122,33.482 35.136,33.388 
		35.136,33.269 35.189,33.068 35.282,32.828 35.389,32.654 35.509,32.481 35.696,32.321 35.883,32.201 36.069,32.121 36.269,32.068 
		36.389,32.027 36.469,32.001 36.549,31.974 36.603,31.935 36.656,31.881 36.683,31.801 36.683,31.734 36.669,31.654 36.643,31.574 
		36.563,31.507 36.456,31.454 36.296,31.414 36.109,31.401 35.936,31.414 35.789,31.454 35.629,31.507 35.509,31.587 35.442,31.627 
		35.389,31.681 35.122,31.387 35.175,31.334 35.256,31.28 35.389,31.188 35.602,31.094 35.829,31.04 36.096,31.014 36.349,31.027 
		36.576,31.08 36.803,31.188 36.963,31.347 37.056,31.534 37.083,31.721 37.07,31.881 37.016,32.027 36.936,32.161 36.843,32.254 
		36.709,32.334 36.536,32.401 36.363,32.441 36.189,32.494 36.069,32.548 35.963,32.614 35.829,32.735 35.722,32.855 35.656,32.948 
		35.629,33.014 35.616,33.068 	"/>
	<path fill="#FFFFFF" d="M5.402,25.705l0.36,0.866H5.029L5.402,25.705z M5.202,25.145l-1.027,2.414h0.427l0.253-0.6h1.067l0.254,0.6
		h0.427l-1.014-2.414H5.202z"/>
	<path fill="none" stroke="#ED1C24" stroke-width="0.039" d="M5.402,25.705l0.36,0.866H5.029L5.402,25.705z M5.202,25.145
		l-1.027,2.414h0.427l0.253-0.6h1.067l0.254,0.6h0.427l-1.014-2.414H5.202z"/>
	<polygon fill="#FFFFFF" points="7.923,25.132 7.91,25.157 7.883,25.198 7.843,25.237 7.776,25.278 7.71,25.317 7.644,25.345 
		7.589,25.37 7.55,25.37 7.55,25.705 7.871,25.705 7.871,27.559 8.283,27.559 8.283,25.132 	"/>
	<polygon fill="none" stroke="#ED1C24" stroke-width="0.039" points="8.284,25.131 8.284,27.56 7.87,27.56 7.87,25.705 7.55,25.705 
		7.55,25.371 7.589,25.371 7.644,25.344 7.709,25.318 7.776,25.278 7.844,25.238 7.884,25.198 7.911,25.158 7.924,25.131 	"/>
	<polygon fill="#FFFFFF" points="10.858,27.159 10.858,27.559 8.897,27.559 8.91,27.479 8.91,27.358 8.964,27.145 9.044,26.919 
		9.164,26.731 9.284,26.572 9.457,26.412 9.657,26.292 9.844,26.212 10.044,26.145 10.164,26.118 10.244,26.092 10.324,26.064 
		10.378,26.024 10.418,25.959 10.458,25.892 10.458,25.812 10.444,25.731 10.404,25.665 10.338,25.598 10.231,25.545 10.058,25.492 
		9.884,25.478 9.711,25.505 9.551,25.531 9.404,25.598 9.284,25.665 9.217,25.718 9.151,25.759 8.897,25.465 8.95,25.425 
		9.017,25.371 9.164,25.277 9.364,25.185 9.604,25.118 9.871,25.091 10.111,25.118 10.351,25.171 10.578,25.277 10.738,25.438 
		10.831,25.625 10.858,25.812 10.845,25.972 10.791,26.118 10.711,26.239 10.618,26.345 10.485,26.425 10.311,26.479 10.138,26.532 
		9.964,26.585 9.844,26.638 9.724,26.706 9.604,26.812 9.497,26.946 9.431,27.039 9.404,27.092 9.377,27.159 	"/>
	<polygon fill="none" stroke="#ED1C24" stroke-width="0.039" points="10.858,27.159 10.858,27.559 8.897,27.559 8.91,27.479 
		8.91,27.358 8.964,27.145 9.044,26.919 9.164,26.731 9.284,26.572 9.457,26.412 9.657,26.292 9.844,26.212 10.044,26.145 
		10.164,26.118 10.244,26.092 10.324,26.064 10.378,26.024 10.418,25.959 10.458,25.892 10.458,25.812 10.444,25.731 10.404,25.665 
		10.338,25.598 10.231,25.545 10.058,25.492 9.884,25.478 9.711,25.505 9.551,25.531 9.404,25.598 9.284,25.665 9.217,25.718 
		9.151,25.759 8.897,25.465 8.95,25.425 9.017,25.371 9.164,25.277 9.364,25.185 9.604,25.118 9.871,25.091 10.111,25.118 
		10.351,25.171 10.578,25.277 10.738,25.438 10.831,25.625 10.858,25.812 10.845,25.972 10.791,26.118 10.711,26.239 10.618,26.345 
		10.485,26.425 10.311,26.479 10.138,26.532 9.964,26.585 9.844,26.638 9.724,26.706 9.604,26.812 9.497,26.946 9.431,27.039 
		9.404,27.092 9.377,27.159 	"/>
</g>
<g id="Layer_5">
</g>
<g id="Layer_4">
</g>
<g id="Layer_3">
</g>
<g id="Layer_2">
</g>
</svg>
