<?xml version="1.0" encoding="utf-8"?>
<!-- Generator: Adobe Illustrator 16.0.0, SVG Export Plug-In . SVG Version: 6.00 Build 0)  -->
<!DOCTYPE svg PUBLIC "-//W3C//DTD SVG 1.1//EN" "http://www.w3.org/Graphics/SVG/1.1/DTD/svg11.dtd">
<svg version="1.1" xmlns="http://www.w3.org/2000/svg" xmlns:xlink="http://www.w3.org/1999/xlink" x="0px" y="0px"
	 width="50.315px" height="44px" viewBox="0 0 50.315 44" enable-background="new 0 0 50.315 44" xml:space="preserve">
<g id="Layer_15">
</g>
<g id="Layer_14">
</g>
<g id="Layer_13">
</g>
<g id="Layer_12">
</g>
<g id="Layer_11">
</g>
<g id="Layer_10">
</g>
<g id="Layer_9">
</g>
<g id="Layer_8">
</g>
<g id="Layer_7">
	<path fill="#FFFFFF" d="M42.516,22.645H8.792v10.62h33.626c0,0,1.914-2.077,1.914-5.367C44.332,24.608,42.516,22.645,42.516,22.645
		"/>
	<path fill="none" stroke="#000000" stroke-width="0.075" stroke-miterlimit="10" d="M42.516,22.645H8.792v10.62h33.626
		c0,0,1.914-2.077,1.914-5.367C44.332,24.608,42.516,22.645,42.516,22.645z"/>
	<path fill="#007DC5" d="M42.31,23.008H9.127V32.9h33.091c0,0,1.784-1.934,1.784-4.999S42.31,23.008,42.31,23.008"/>
	<polygon fill="#FFFFFF" points="41.883,27.537 39.154,27.487 39.154,28.47 41.813,28.414 40.529,29.402 41.021,29.991 
		43.279,27.979 41.07,25.917 40.609,26.482 	"/>
	<path fill="#FFFFFF" d="M42.516,7.665H8.792v10.62h33.626c0,0,1.914-2.077,1.914-5.367C44.332,9.629,42.516,7.665,42.516,7.665"/>
	<path fill="none" stroke="#000000" stroke-width="0.075" stroke-miterlimit="10" d="M42.516,7.665H8.792v10.62h33.626
		c0,0,1.914-2.077,1.914-5.367C44.332,9.629,42.516,7.665,42.516,7.665z"/>
	<path fill="#007DC5" d="M42.31,8.028H9.127v9.894h33.091c0,0,1.784-1.935,1.784-4.999C44.002,9.857,42.31,8.028,42.31,8.028"/>
	<polygon fill="#FFFFFF" points="41.883,12.558 39.154,12.51 39.154,13.491 41.813,13.435 40.529,14.424 41.021,15.014 
		43.279,12.999 41.07,10.938 40.609,11.503 	"/>
	<rect x="8.432" y="32.615" fill="#FFFFFF" width="0.445" height="0.456"/>
	<rect x="7.558" y="32.615" fill="#FFFFFF" width="0.875" height="0.948"/>
	<rect x="8.444" y="22.809" fill="#FFFFFF" width="0.433" height="0.48"/>
	<rect x="7.557" y="20.962" fill="#FFFFFF" width="0.9" height="2.807"/>
	<rect x="8.48" y="17.573" fill="#FFFFFF" width="0.408" height="0.456"/>
	<rect x="8.48" y="7.786" fill="#FFFFFF" width="0.408" height="0.456"/>
	<rect x="7.558" y="17.609" fill="#FFFFFF" width="0.887" height="0.888"/>
	<polygon fill="#FFFFFF" points="8.404,7.785 8.404,5.936 7.52,5.936 7.52,8.71 8.404,8.71 	"/>
	<polyline fill="none" stroke="#000000" stroke-width="0.075" points="8.404,7.785 8.404,5.936 7.52,5.936 7.52,8.71 8.404,8.71 
		8.404,7.785 	"/>
	<polyline fill="#FFFFFF" points="8.791,7.785 8.404,7.785 8.404,8.248 8.791,8.248 	"/>
	<polyline fill="none" stroke="#000000" stroke-width="0.075" stroke-linecap="round" points="8.791,7.785 8.404,7.785 8.404,8.248 
		8.791,8.248 	"/>
	
		<line fill="none" stroke="#000000" stroke-width="0.075" stroke-linecap="round" stroke-linejoin="round" x1="7.999" y1="33.549" x2="7.999" y2="40.592"/>
	
		<line fill="none" stroke="#000000" stroke-width="0.075" stroke-linecap="round" stroke-linejoin="round" x1="7.557" y1="20.973" x2="7.557" y2="22.822"/>
	
		<line fill="none" stroke="#000000" stroke-width="0.075" stroke-linecap="round" stroke-linejoin="round" x1="8.441" y1="22.821" x2="8.441" y2="20.973"/>
	
		<line fill="none" stroke="#000000" stroke-width="0.075" stroke-linecap="round" stroke-linejoin="round" x1="8.441" y1="32.624" x2="8.792" y2="32.624"/>
	
		<line fill="none" stroke="#000000" stroke-width="0.075" stroke-linecap="round" stroke-linejoin="round" x1="8.791" y1="33.086" x2="8.441" y2="33.086"/>
	
		<line fill="none" stroke="#000000" stroke-width="0.075" stroke-linecap="round" stroke-linejoin="round" x1="8.441" y1="33.549" x2="8.441" y2="32.624"/>
	
		<line fill="none" stroke="#000000" stroke-width="0.075" stroke-linecap="round" stroke-linejoin="round" x1="8.441" y1="33.086" x2="8.441" y2="32.624"/>
	
		<line fill="none" stroke="#000000" stroke-width="0.075" stroke-linecap="round" stroke-linejoin="round" x1="7.557" y1="32.624" x2="7.557" y2="33.549"/>
	
		<line fill="none" stroke="#000000" stroke-width="0.075" stroke-linecap="round" stroke-linejoin="round" x1="8.441" y1="32.624" x2="7.557" y2="32.624"/>
	
		<line fill="none" stroke="#000000" stroke-width="0.075" stroke-linecap="round" stroke-linejoin="round" x1="7.557" y1="33.549" x2="8.441" y2="33.549"/>
	
		<line fill="none" stroke="#000000" stroke-width="0.075" stroke-linecap="round" stroke-linejoin="round" x1="8.441" y1="23.283" x2="8.792" y2="23.283"/>
	
		<line fill="none" stroke="#000000" stroke-width="0.075" stroke-linecap="round" stroke-linejoin="round" x1="8.791" y1="22.821" x2="8.441" y2="22.821"/>
	
		<line fill="none" stroke="#000000" stroke-width="0.075" stroke-linecap="round" stroke-linejoin="round" x1="8.441" y1="22.821" x2="8.441" y2="23.283"/>
	
		<line fill="none" stroke="#000000" stroke-width="0.075" stroke-linecap="round" stroke-linejoin="round" x1="8.441" y1="22.821" x2="8.441" y2="23.746"/>
	
		<line fill="none" stroke="#000000" stroke-width="0.075" stroke-linecap="round" stroke-linejoin="round" x1="7.557" y1="23.746" x2="7.557" y2="22.821"/>
	
		<line fill="none" stroke="#000000" stroke-width="0.075" stroke-linecap="round" stroke-linejoin="round" x1="8.441" y1="23.746" x2="7.557" y2="23.746"/>
	
		<line fill="none" stroke="#000000" stroke-width="0.075" stroke-linecap="round" stroke-linejoin="round" x1="8.791" y1="18.05" x2="8.441" y2="18.05"/>
	
		<line fill="none" stroke="#000000" stroke-width="0.075" stroke-linecap="round" stroke-linejoin="round" x1="8.441" y1="17.587" x2="8.792" y2="17.587"/>
	
		<line fill="none" stroke="#000000" stroke-width="0.075" stroke-linecap="round" stroke-linejoin="round" x1="8.441" y1="18.05" x2="8.441" y2="17.588"/>
	
		<line fill="none" stroke="#000000" stroke-width="0.075" stroke-linecap="round" stroke-linejoin="round" x1="8.441" y1="18.512" x2="8.441" y2="17.588"/>
	
		<line fill="none" stroke="#000000" stroke-width="0.075" stroke-linecap="round" stroke-linejoin="round" x1="7.999" y1="18.662" x2="7.999" y2="20.973"/>
	
		<line fill="none" stroke="#000000" stroke-width="0.075" stroke-linecap="round" stroke-linejoin="round" x1="7.557" y1="17.587" x2="7.557" y2="18.512"/>
	
		<line fill="none" stroke="#000000" stroke-width="0.075" stroke-linecap="round" stroke-linejoin="round" x1="8.441" y1="20.973" x2="7.557" y2="20.973"/>
	
		<line fill="none" stroke="#000000" stroke-width="0.075" stroke-linecap="round" stroke-linejoin="round" x1="8.441" y1="17.587" x2="7.557" y2="17.587"/>
	
		<line fill="none" stroke="#000000" stroke-width="0.075" stroke-linecap="round" stroke-linejoin="round" x1="7.557" y1="18.512" x2="8.441" y2="18.512"/>
	
		<line fill="none" stroke="#000000" stroke-width="0.075" stroke-linecap="round" stroke-linejoin="round" x1="5.346" y1="3.626" x2="7.998" y2="3.626"/>
	
		<line fill="none" stroke="#000000" stroke-width="0.075" stroke-linecap="round" stroke-linejoin="round" x1="7.999" y1="32.624" x2="7.999" y2="23.746"/>
	<polygon fill="none" stroke="#000000" stroke-width="0.075" stroke-linecap="round" stroke-linejoin="round" points="
		14.592,11.605 14.206,11.605 14.206,14.379 14.607,14.379 14.607,12.663 15.531,14.379 15.917,14.379 15.917,11.605 15.516,11.605 
		15.516,13.322 	"/>
	<rect x="18.138" y="11.606" width="0.133" height="2.772"/>
	
		<rect x="18.139" y="11.605" fill="none" stroke="#000000" stroke-width="0.075" stroke-linecap="round" stroke-linejoin="round" width="0.133" height="2.773"/>
	<rect x="16.994" y="11.606" width="0.133" height="2.772"/>
	
		<rect x="16.994" y="11.605" fill="none" stroke="#000000" stroke-width="0.075" stroke-linecap="round" stroke-linejoin="round" width="0.133" height="2.773"/>
	<rect x="22.711" y="11.606" width="0.133" height="2.772"/>
	
		<rect x="22.711" y="11.605" fill="none" stroke="#000000" stroke-width="0.075" stroke-linecap="round" stroke-linejoin="round" width="0.133" height="2.773"/>
	<rect x="21.567" y="11.606" width="0.134" height="2.772"/>
	
		<rect x="21.568" y="11.605" fill="none" stroke="#000000" stroke-width="0.075" stroke-linecap="round" stroke-linejoin="round" width="0.133" height="2.773"/>
	<rect x="20.424" y="11.606" width="0.134" height="2.772"/>
	
		<rect x="20.424" y="11.605" fill="none" stroke="#000000" stroke-width="0.075" stroke-linecap="round" stroke-linejoin="round" width="0.133" height="2.773"/>
	<rect x="19.281" y="11.606" width="0.133" height="2.772"/>
	
		<rect x="19.281" y="11.605" fill="none" stroke="#000000" stroke-width="0.075" stroke-linecap="round" stroke-linejoin="round" width="0.133" height="2.773"/>
	<path fill="#FFDD00" d="M13.488,15.114c0.115,0.121,0.272,0.188,0.438,0.188h9.376c0.342,0,0.618-0.289,0.618-0.646v-3.327
		c0-0.172-0.064-0.336-0.18-0.458c-0.117-0.121-0.274-0.189-0.438-0.189h-9.376c-0.165,0-0.322,0.068-0.438,0.189
		c-0.117,0.122-0.183,0.286-0.183,0.458v3.327C13.306,14.828,13.371,14.993,13.488,15.114"/>
	
		<line fill="none" stroke="#000000" stroke-width="0.075" stroke-linecap="round" stroke-linejoin="round" x1="5.346" y1="40.592" x2="5.346" y2="3.626"/>
	
		<line fill="none" stroke="#000000" stroke-width="0.075" stroke-linecap="round" stroke-linejoin="round" x1="7.999" y1="5.937" x2="7.999" y2="3.625"/>
	
		<line fill="none" stroke="#000000" stroke-width="0.075" stroke-linecap="round" stroke-linejoin="round" x1="7.999" y1="17.587" x2="7.999" y2="8.709"/>
	
		<line fill="none" stroke="#000000" stroke-width="0.075" stroke-linecap="round" stroke-linejoin="round" x1="7.999" y1="20.973" x2="7.999" y2="18.512"/>
	<path d="M14.075,14.251v-2.512h0.532l0.824,1.494c0.047,0.085,0.082,0.175,0.104,0.267v-1.761h0.428v2.512h-0.524l-0.826-1.542
		c-0.055-0.101-0.092-0.189-0.111-0.268v1.81H14.075z"/>
	<path d="M17.584,14.251l-0.002-0.068c-0.006-0.294,0.041-0.536,0.137-0.728c0.092-0.177,0.252-0.338,0.481-0.482l0.204-0.129
		c0.098-0.063,0.167-0.12,0.206-0.174c0.052-0.067,0.076-0.152,0.076-0.254c0-0.214-0.134-0.32-0.399-0.32
		c-0.172,0-0.33,0.064-0.474,0.192l-0.21-0.354c0.213-0.157,0.475-0.235,0.785-0.235c0.251,0,0.451,0.056,0.599,0.17
		c0.164,0.127,0.245,0.313,0.245,0.557c0,0.188-0.055,0.345-0.164,0.471c-0.068,0.079-0.22,0.187-0.453,0.322l-0.212,0.124
		c-0.209,0.121-0.321,0.277-0.34,0.469h1.16v0.439H17.584z"/>
	<path d="M20.206,12.321l-0.015,0.011c-0.141,0.11-0.285,0.197-0.432,0.263l-0.209-0.351c0.295-0.127,0.577-0.302,0.851-0.524h0.335
		v2.531h-0.53V12.321z"/>
	<path d="M21.383,14.251l-0.002-0.068c-0.006-0.294,0.039-0.536,0.137-0.728c0.091-0.177,0.251-0.338,0.48-0.482l0.204-0.129
		c0.099-0.063,0.167-0.12,0.206-0.174c0.051-0.067,0.076-0.152,0.076-0.254c0-0.214-0.133-0.32-0.398-0.32
		c-0.172,0-0.33,0.064-0.475,0.192l-0.21-0.354c0.213-0.157,0.476-0.235,0.785-0.235c0.251,0,0.45,0.056,0.599,0.17
		c0.164,0.127,0.245,0.313,0.245,0.557c0,0.188-0.054,0.345-0.164,0.471c-0.069,0.079-0.22,0.187-0.452,0.322l-0.213,0.124
		c-0.209,0.121-0.322,0.277-0.34,0.469h1.16v0.439H21.383z"/>
	<path fill="#FFFFFF" d="M28.957,25.935v-0.3h1.15l0.002,0.044c0.004,0.144-0.01,0.266-0.039,0.367
		c-0.026,0.091-0.08,0.201-0.162,0.329l-0.106,0.169c-0.071,0.113-0.121,0.207-0.147,0.284c-0.033,0.094-0.051,0.199-0.051,0.314
		c0,0.074,0.006,0.157,0.018,0.248h-0.393v-0.179c0-0.148,0.021-0.283,0.063-0.401c0.039-0.107,0.104-0.226,0.195-0.355l0.201-0.282
		c0.061-0.085,0.09-0.161,0.09-0.229v-0.009H28.957z"/>
	<path fill="#FFFFFF" d="M26.84,29.663l-0.01,0.008c-0.103,0.078-0.205,0.141-0.31,0.188l-0.149-0.251
		c0.211-0.091,0.412-0.216,0.607-0.375h0.24v1.81H26.84V29.663z"/>
	<path fill="#FFFFFF" d="M28.447,30.649h-0.792v-0.271l0.694-1.131h0.445v1.103h0.182v0.3h-0.182v0.393h-0.348V30.649z
		 M28.447,30.35v-0.781c-0.012,0.03-0.033,0.072-0.064,0.127l-0.384,0.654H28.447z"/>
	<path fill="#FFFFFF" d="M12.236,27.468h-0.407l-0.435-1.352c-0.036-0.116-0.065-0.244-0.086-0.383v1.734h-0.342v-2.25h0.526
		l0.472,1.462c0.043,0.141,0.075,0.275,0.096,0.405c0.015-0.113,0.047-0.248,0.096-0.401l0.471-1.466h0.523v2.25h-0.395v-1.734
		c-0.016,0.123-0.045,0.251-0.088,0.383L12.236,27.468z"/>
	<path fill="#FFFFFF" d="M14.52,25.751c0.249,0,0.44,0.085,0.571,0.255c0.12,0.154,0.179,0.36,0.179,0.616
		c0,0.257-0.06,0.463-0.18,0.617c-0.133,0.169-0.323,0.253-0.573,0.253c-0.253,0-0.444-0.082-0.577-0.248
		c-0.123-0.153-0.185-0.359-0.185-0.619c0-0.262,0.062-0.47,0.182-0.624C14.07,25.834,14.264,25.751,14.52,25.751 M14.838,26.618
		c0-0.17-0.016-0.293-0.044-0.371c-0.048-0.126-0.142-0.19-0.281-0.19c-0.142,0-0.235,0.063-0.28,0.187
		c-0.029,0.074-0.043,0.197-0.043,0.368c0,0.177,0.014,0.303,0.041,0.379c0.047,0.131,0.141,0.195,0.282,0.195
		s0.237-0.063,0.284-0.191C14.824,26.919,14.838,26.794,14.838,26.618"/>
	<path fill="#FFFFFF" d="M16.279,25.778v0.223c0.115-0.167,0.267-0.251,0.453-0.251c0.144,0,0.26,0.042,0.345,0.126
		c0.104,0.104,0.157,0.274,0.157,0.515v1.077H16.82V26.48c0-0.159-0.014-0.259-0.042-0.302c-0.039-0.063-0.107-0.093-0.205-0.093
		c-0.123,0-0.216,0.044-0.281,0.131v1.251h-0.414v-1.689H16.279z"/>
	<path fill="#FFFFFF" d="M18.361,25.778h0.463v0.289h-0.463v0.915c0,0.07,0.008,0.119,0.027,0.148
		c0.023,0.038,0.066,0.059,0.13,0.059c0.073,0,0.142-0.021,0.207-0.063l0.127,0.25c-0.12,0.07-0.261,0.105-0.422,0.105
		c-0.198,0-0.336-0.056-0.413-0.167c-0.037-0.054-0.061-0.126-0.068-0.218c-0.004-0.032-0.004-0.109-0.004-0.232v-0.798h-0.184
		v-0.289h0.184v-0.362l0.416-0.089V25.778z"/>
	<path fill="#FFFFFF" d="M19.795,25.778h0.359v0.289h-0.359v1.4h-0.416v-1.4h-0.184v-0.289h0.184v-0.1
		c0-0.174,0.035-0.306,0.107-0.392c0.096-0.114,0.242-0.173,0.44-0.173c0.153,0,0.285,0.029,0.392,0.087l-0.133,0.263
		c-0.057-0.037-0.123-0.057-0.197-0.057c-0.088,0-0.146,0.029-0.174,0.087c-0.014,0.026-0.02,0.084-0.02,0.173V25.778z"/>
	<path fill="#FFFFFF" d="M21.336,25.751c0.248,0,0.439,0.085,0.57,0.255c0.121,0.154,0.18,0.36,0.18,0.616
		c0,0.257-0.061,0.463-0.18,0.617c-0.133,0.169-0.324,0.253-0.574,0.253c-0.252,0-0.444-0.082-0.578-0.248
		c-0.121-0.153-0.184-0.359-0.184-0.619c0-0.262,0.062-0.47,0.182-0.624C20.886,25.834,21.08,25.751,21.336,25.751 M21.654,26.618
		c0-0.17-0.016-0.293-0.045-0.371c-0.048-0.126-0.141-0.19-0.281-0.19s-0.233,0.063-0.28,0.187
		c-0.029,0.074-0.044,0.197-0.044,0.368c0,0.177,0.015,0.303,0.041,0.379c0.048,0.131,0.142,0.195,0.283,0.195
		c0.143,0,0.237-0.063,0.285-0.191C21.64,26.919,21.654,26.794,21.654,26.618"/>
	<path fill="#FFFFFF" d="M23.358,25.751c0.249,0,0.44,0.085,0.571,0.255c0.12,0.154,0.179,0.36,0.179,0.616
		c0,0.257-0.06,0.463-0.18,0.617c-0.132,0.169-0.323,0.253-0.573,0.253c-0.253,0-0.445-0.082-0.578-0.248
		c-0.121-0.153-0.184-0.359-0.184-0.619c0-0.262,0.061-0.47,0.182-0.624C22.908,25.834,23.103,25.751,23.358,25.751 M23.677,26.618
		c0-0.17-0.015-0.293-0.044-0.371c-0.049-0.126-0.141-0.19-0.281-0.19s-0.234,0.063-0.281,0.187
		c-0.029,0.074-0.043,0.197-0.043,0.368c0,0.177,0.014,0.303,0.041,0.379c0.047,0.131,0.141,0.195,0.283,0.195
		s0.237-0.063,0.284-0.191C23.662,26.919,23.677,26.794,23.677,26.618"/>
	<path fill="#FFFFFF" d="M25.118,25.778v0.256c0.085-0.18,0.209-0.271,0.372-0.271c0.107,0,0.203,0.033,0.289,0.099l-0.106,0.379
		c-0.069-0.07-0.153-0.106-0.249-0.106c-0.128,0-0.225,0.052-0.293,0.154v1.179h-0.414v-1.689H25.118z"/>
	<path fill="#FFFFFF" d="M26.605,25.778h0.463v0.289h-0.463v0.915c0,0.07,0.008,0.119,0.027,0.148
		c0.023,0.038,0.066,0.059,0.13,0.059c0.073,0,0.142-0.021,0.207-0.063l0.128,0.25c-0.121,0.07-0.262,0.105-0.423,0.105
		c-0.198,0-0.336-0.056-0.413-0.167c-0.037-0.054-0.06-0.126-0.068-0.218c-0.004-0.032-0.004-0.109-0.004-0.232v-0.798h-0.184
		v-0.289h0.184v-0.362l0.416-0.089V25.778z"/>
	<path fill="#FFFFFF" d="M12.568,31.067l-0.312-1.49c-0.028-0.134-0.047-0.246-0.056-0.335c-0.01,0.099-0.028,0.214-0.055,0.345
		l-0.299,1.48h-0.533l-0.537-2.25h0.453l0.319,1.588c0.03,0.146,0.048,0.257,0.056,0.335c0.01-0.098,0.027-0.214,0.055-0.347
		l0.32-1.576h0.506l0.33,1.589c0.029,0.135,0.048,0.247,0.057,0.336c0.009-0.09,0.027-0.206,0.057-0.347l0.32-1.578h0.391
		l-0.557,2.25H12.568z"/>
	<path fill="#FFFFFF" d="M14.691,29.351c0.248,0,0.439,0.085,0.57,0.255c0.12,0.154,0.18,0.36,0.18,0.616
		c0,0.257-0.061,0.463-0.181,0.617c-0.132,0.169-0.323,0.254-0.573,0.254c-0.252,0-0.445-0.083-0.578-0.249
		c-0.123-0.153-0.184-0.359-0.184-0.619c0-0.262,0.061-0.47,0.182-0.624C14.24,29.434,14.436,29.351,14.691,29.351 M15.009,30.218
		c0-0.17-0.015-0.293-0.044-0.371c-0.048-0.126-0.141-0.189-0.281-0.189s-0.234,0.062-0.281,0.186
		c-0.028,0.075-0.043,0.198-0.043,0.369c0,0.176,0.015,0.302,0.041,0.378c0.047,0.131,0.142,0.196,0.283,0.196
		c0.143,0,0.237-0.064,0.284-0.191C14.994,30.52,15.009,30.394,15.009,30.218"/>
	<path fill="#FFFFFF" d="M17.38,30.328h-0.997v0.016c0,0.181,0.039,0.301,0.117,0.361c0.063,0.05,0.154,0.075,0.277,0.075
		c0.16,0,0.287-0.049,0.381-0.148l0.156,0.263c-0.16,0.132-0.353,0.197-0.582,0.197c-0.521,0-0.783-0.286-0.783-0.859
		c0-0.259,0.057-0.465,0.169-0.619c0.128-0.175,0.315-0.263,0.565-0.263c0.31,0,0.518,0.132,0.623,0.394
		c0.049,0.121,0.073,0.296,0.073,0.526V30.328z M16.941,30.058v-0.042c0-0.131-0.015-0.224-0.043-0.276
		c-0.039-0.077-0.117-0.115-0.232-0.115c-0.129,0-0.214,0.049-0.254,0.146c-0.02,0.047-0.029,0.128-0.029,0.241v0.047H16.941z"/>
	<path fill="#FFFFFF" d="M18.373,29.378v0.257c0.086-0.181,0.209-0.271,0.373-0.271c0.107,0,0.203,0.033,0.289,0.099l-0.106,0.38
		c-0.07-0.071-0.153-0.107-0.249-0.107c-0.128,0-0.225,0.052-0.293,0.156v1.177h-0.414v-1.689H18.373z"/>
	<path fill="#FFFFFF" d="M20.335,30.895c-0.114,0.133-0.25,0.199-0.403,0.199c-0.211,0-0.371-0.089-0.479-0.27
		c-0.089-0.147-0.133-0.336-0.133-0.563c0-0.24,0.045-0.441,0.135-0.605c0.111-0.204,0.277-0.306,0.498-0.306
		c0.152,0,0.271,0.045,0.359,0.135v-0.668l0.416-0.089v2.339h-0.394V30.895z M20.313,29.787c-0.051-0.076-0.127-0.114-0.231-0.114
		c-0.142,0-0.233,0.065-0.281,0.196c-0.024,0.073-0.038,0.199-0.038,0.377c0,0.164,0.014,0.281,0.038,0.351
		c0.046,0.119,0.134,0.178,0.267,0.178c0.109,0,0.191-0.039,0.246-0.116V29.787z"/>
	<path fill="#FFFFFF" d="M22.764,30.328h-0.998v0.016c0,0.181,0.039,0.301,0.117,0.361c0.063,0.05,0.155,0.075,0.278,0.075
		c0.16,0,0.287-0.049,0.381-0.148l0.156,0.263c-0.159,0.132-0.353,0.197-0.582,0.197c-0.522,0-0.784-0.286-0.784-0.859
		c0-0.259,0.057-0.465,0.17-0.619c0.127-0.175,0.315-0.263,0.564-0.263c0.311,0,0.518,0.132,0.624,0.394
		c0.049,0.121,0.073,0.296,0.073,0.526V30.328z M22.324,30.058v-0.042c0-0.131-0.014-0.224-0.042-0.276
		c-0.039-0.077-0.117-0.115-0.233-0.115c-0.129,0-0.213,0.049-0.254,0.146c-0.019,0.047-0.029,0.128-0.029,0.241v0.047H22.324z"/>
	<path fill="#FFFFFF" d="M23.757,29.378v0.224c0.116-0.167,0.267-0.251,0.453-0.251c0.144,0,0.26,0.042,0.345,0.126
		c0.105,0.103,0.157,0.273,0.157,0.514v1.077h-0.414V30.08c0-0.158-0.015-0.259-0.041-0.302c-0.039-0.062-0.108-0.092-0.206-0.092
		c-0.123,0-0.216,0.043-0.281,0.13v1.251h-0.414v-1.689H23.757z"/>
	<rect fill="none" width="50.315" height="44"/>
</g>
<g id="Layer_6">
</g>
<g id="Layer_5">
</g>
<g id="Layer_4">
</g>
<g id="Layer_3">
</g>
<g id="Layer_2">
</g>
</svg>
