<?xml version="1.0" encoding="utf-8"?>
<!-- Generator: Adobe Illustrator 16.0.0, SVG Export Plug-In . SVG Version: 6.00 Build 0)  -->
<!DOCTYPE svg PUBLIC "-//W3C//DTD SVG 1.1//EN" "http://www.w3.org/Graphics/SVG/1.1/DTD/svg11.dtd">
<svg version="1.1" xmlns="http://www.w3.org/2000/svg" xmlns:xlink="http://www.w3.org/1999/xlink" x="0px" y="0px"
	 width="50.314px" height="44px" viewBox="0 0 50.314 44" enable-background="new 0 0 50.314 44" xml:space="preserve">
<g id="Layer_15">
</g>
<g id="Layer_14">
</g>
<g id="Layer_13">
</g>
<g id="Layer_12">
</g>
<g id="Layer_11">
</g>
<g id="Layer_10">
</g>
<g id="Layer_9">
</g>
<g id="Layer_8">
	<path fill="#FFFFFF" d="M41.921,20.5H8.197v10.62h33.627c0,0,1.914-2.077,1.914-5.367C43.738,22.464,41.921,20.5,41.921,20.5"/>
	<path fill="none" stroke="#000000" stroke-width="0.075" stroke-miterlimit="10" d="M41.921,20.5H8.197v10.62h33.627
		c0,0,1.914-2.077,1.914-5.367C43.738,22.464,41.921,20.5,41.921,20.5z"/>
	<path fill="#ED1C24" d="M41.714,20.863H8.533v9.893h33.09c0,0,1.785-1.934,1.785-4.999S41.714,20.863,41.714,20.863"/>
	<polygon fill="#FFFFFF" points="41.289,25.392 38.56,25.343 38.56,26.325 41.218,26.269 39.935,27.258 40.425,27.847 
		42.685,25.834 40.476,23.772 40.015,24.338 	"/>
	<path fill="#FFFFFF" d="M41.921,5.521H8.197v10.62h33.627c0,0,1.914-2.077,1.914-5.367C43.738,7.484,41.921,5.521,41.921,5.521"/>
	<path fill="none" stroke="#000000" stroke-width="0.075" stroke-miterlimit="10" d="M41.921,5.521H8.197v10.62h33.627
		c0,0,1.914-2.077,1.914-5.367C43.738,7.484,41.921,5.521,41.921,5.521z"/>
	<path fill="#ED1C24" d="M41.714,5.884H8.533v9.894h33.09c0,0,1.785-1.935,1.785-4.999C43.408,7.713,41.714,5.884,41.714,5.884"/>
	<polygon fill="#FFFFFF" points="41.289,10.413 38.56,10.364 38.56,11.347 41.218,11.29 39.935,12.278 40.425,12.869 42.685,10.854 
		40.476,8.793 40.015,9.358 	"/>
	<rect x="9.218" y="6.469" fill="#FFFFFF" width="28.387" height="8.66"/>
	<rect x="9.218" y="21.479" fill="#FFFFFF" width="28.387" height="8.661"/>
	<path fill="#ED1C24" d="M11.742,9.935c-0.211,0.142-0.451,0.211-0.719,0.211c-0.33,0-0.58-0.11-0.748-0.333
		c-0.152-0.199-0.229-0.469-0.229-0.811c0-0.353,0.078-0.631,0.232-0.839c0.172-0.235,0.428-0.353,0.768-0.353
		c0.262,0,0.496,0.065,0.699,0.193l-0.189,0.333c-0.135-0.108-0.287-0.161-0.453-0.161c-0.217,0-0.367,0.087-0.455,0.261
		c-0.064,0.126-0.098,0.312-0.098,0.553c0,0.244,0.031,0.427,0.094,0.545c0.086,0.16,0.238,0.24,0.455,0.24
		c0.164,0,0.316-0.052,0.451-0.157L11.742,9.935z"/>
	<path fill="#ED1C24" d="M13.302,9.654l0.172,0.289c-0.16,0.134-0.359,0.201-0.596,0.201c-0.539,0-0.809-0.292-0.809-0.876
		c0-0.266,0.059-0.478,0.174-0.635c0.133-0.177,0.324-0.265,0.58-0.265c0.32,0,0.535,0.134,0.645,0.401
		c0.049,0.122,0.074,0.302,0.074,0.539v0.064h-1.006V9.39c0,0.145,0.029,0.248,0.086,0.313c0.061,0.066,0.162,0.099,0.305,0.099
		C13.082,9.801,13.207,9.752,13.302,9.654 M13.074,9.088V9.05c0-0.127-0.014-0.217-0.041-0.27c-0.037-0.076-0.111-0.114-0.223-0.114
		c-0.125,0-0.207,0.047-0.244,0.142c-0.02,0.047-0.029,0.125-0.029,0.236v0.044H13.074z"/>
	<path fill="#ED1C24" d="M15.511,10.118h-0.457V9.126c0-0.157-0.012-0.256-0.035-0.297c-0.035-0.063-0.1-0.093-0.191-0.093
		c-0.111,0-0.197,0.044-0.258,0.13v1.252h-0.455V8.395h0.455v0.21c0.107-0.156,0.254-0.235,0.439-0.235
		c0.146,0,0.262,0.042,0.348,0.126c0.102,0.102,0.154,0.275,0.154,0.52V10.118z"/>
	<path fill="#ED1C24" d="M17.119,10.021c-0.129,0.074-0.275,0.111-0.441,0.111c-0.203,0-0.344-0.057-0.422-0.171
		c-0.037-0.054-0.063-0.129-0.07-0.224c-0.004-0.032-0.004-0.111-0.004-0.238V8.707h-0.164V8.396h0.164v-0.36l0.457-0.098v0.458
		h0.443v0.312h-0.443v0.892c0,0.069,0.008,0.118,0.021,0.147c0.023,0.04,0.066,0.06,0.127,0.06c0.07,0,0.135-0.021,0.195-0.062
		L17.119,10.021z"/>
	<path fill="#ED1C24" d="M18.695,8.487L18.58,8.892c-0.068-0.07-0.152-0.105-0.246-0.105c-0.123,0-0.219,0.049-0.285,0.144v1.188
		h-0.455V8.396h0.441V8.67c0.086-0.192,0.209-0.287,0.371-0.287C18.515,8.383,18.611,8.418,18.695,8.487"/>
	<path fill="#ED1C24" d="M19.98,8.396h0.457v1.723h-0.443V9.892c-0.115,0.167-0.268,0.251-0.455,0.251
		c-0.248,0-0.402-0.108-0.465-0.325c-0.023-0.081-0.035-0.188-0.035-0.32V8.396h0.455v0.988c0,0.155,0.012,0.255,0.037,0.297
		c0.035,0.062,0.1,0.093,0.191,0.093c0.113,0,0.197-0.043,0.258-0.129V8.396z"/>
	<path fill="#ED1C24" d="M23.429,10.118h-0.455V9.131c0-0.16-0.012-0.261-0.035-0.302c-0.035-0.063-0.096-0.093-0.182-0.093
		c-0.109,0-0.195,0.044-0.254,0.131v1.251h-0.457V9.131c0-0.159-0.012-0.26-0.035-0.302c-0.033-0.063-0.094-0.093-0.182-0.093
		c-0.109,0-0.195,0.044-0.254,0.131v1.251h-0.455V8.395h0.441V8.62c0.111-0.165,0.256-0.247,0.432-0.247
		c0.189,0,0.334,0.082,0.428,0.244c0.127-0.165,0.287-0.248,0.484-0.248c0.158,0,0.279,0.042,0.367,0.126
		c0.104,0.102,0.156,0.274,0.156,0.52V10.118z"/>
	<path fill="#ED1C24" d="M25.333,8.363l-0.014,0.01c-0.129,0.1-0.26,0.179-0.393,0.239l-0.191-0.319
		c0.268-0.116,0.525-0.274,0.773-0.476h0.305v2.301h-0.48V8.363z"/>
	<path fill="#ED1C24" d="M10.162,13.718v-2.284h0.658c0.258,0,0.439,0.037,0.551,0.109c0.15,0.1,0.227,0.249,0.227,0.446
		c0,0.307-0.158,0.49-0.473,0.551c0.369,0.039,0.553,0.223,0.553,0.553c0,0.229-0.09,0.401-0.27,0.515
		c-0.078,0.05-0.174,0.083-0.289,0.099c-0.063,0.008-0.166,0.012-0.309,0.012H10.162z M10.615,12.391h0.115
		c0.131,0,0.227-0.021,0.289-0.061c0.07-0.051,0.107-0.139,0.107-0.264c0-0.113-0.031-0.194-0.09-0.243
		c-0.055-0.041-0.141-0.062-0.26-0.062h-0.162V12.391z M10.615,13.39h0.195c0.262,0,0.393-0.115,0.393-0.344
		c0-0.221-0.129-0.331-0.387-0.331h-0.201V13.39z"/>
	<path fill="#ED1C24" d="M13.339,12.088l-0.115,0.403c-0.068-0.069-0.152-0.104-0.246-0.104c-0.123,0-0.219,0.048-0.285,0.143v1.188
		h-0.455v-1.723h0.441v0.274c0.086-0.192,0.209-0.287,0.371-0.287C13.16,11.982,13.255,12.018,13.339,12.088"/>
	<path fill="#ED1C24" d="M13.673,11.528c0-0.071,0.027-0.127,0.078-0.169c0.047-0.039,0.107-0.059,0.18-0.059
		c0.074,0,0.135,0.021,0.184,0.061c0.051,0.043,0.074,0.101,0.074,0.175c0,0.072-0.023,0.129-0.076,0.172
		c-0.047,0.039-0.105,0.059-0.18,0.059c-0.076,0-0.137-0.021-0.184-0.062C13.699,11.662,13.673,11.604,13.673,11.528 M14.16,13.719
		h-0.457v-1.724h0.457V13.719z"/>
	<path fill="#ED1C24" d="M15.976,13.254l0.174,0.289c-0.162,0.134-0.361,0.201-0.598,0.201c-0.537,0-0.807-0.292-0.807-0.876
		c0-0.265,0.059-0.477,0.174-0.634c0.131-0.178,0.324-0.266,0.58-0.266c0.318,0,0.533,0.135,0.643,0.401
		c0.051,0.122,0.076,0.302,0.076,0.539v0.064h-1.006v0.017c0,0.144,0.027,0.248,0.084,0.312c0.061,0.066,0.162,0.1,0.305,0.1
		C15.755,13.401,15.88,13.353,15.976,13.254 M15.748,12.688V12.65c0-0.127-0.012-0.217-0.039-0.271
		c-0.039-0.076-0.111-0.113-0.225-0.113c-0.125,0-0.205,0.047-0.244,0.142c-0.018,0.046-0.027,0.125-0.027,0.236v0.044H15.748z"/>
	<polygon fill="#ED1C24" points="17.244,11.345 17.244,13.718 16.789,13.718 16.789,11.442 	"/>
	<polygon fill="#ED1C24" points="18.384,11.345 18.384,13.718 17.929,13.718 17.929,11.442 	"/>
	<path fill="#ED1C24" d="M20.203,13.254l0.172,0.289c-0.16,0.134-0.359,0.201-0.596,0.201c-0.539,0-0.807-0.292-0.807-0.876
		c0-0.265,0.057-0.477,0.174-0.634c0.131-0.178,0.324-0.266,0.58-0.266c0.318,0,0.533,0.135,0.643,0.401
		c0.049,0.122,0.074,0.302,0.074,0.539v0.064h-1.004v0.017c0,0.144,0.027,0.248,0.084,0.312c0.061,0.066,0.162,0.1,0.305,0.1
		C19.982,13.401,20.107,13.353,20.203,13.254 M19.974,12.688V12.65c0-0.127-0.014-0.217-0.039-0.271
		c-0.039-0.076-0.113-0.113-0.225-0.113c-0.125,0-0.205,0.047-0.244,0.142c-0.02,0.046-0.027,0.125-0.027,0.236v0.044H19.974z"/>
	<path fill="#ED1C24" d="M22.203,12.718v-0.351h0.072c0.283,0,0.426-0.108,0.426-0.325c0-0.19-0.107-0.285-0.322-0.285
		c-0.146,0-0.281,0.058-0.408,0.173l-0.186-0.318c0.199-0.141,0.428-0.211,0.689-0.211c0.205,0,0.369,0.044,0.492,0.13
		c0.141,0.101,0.211,0.248,0.211,0.444c0,0.144-0.039,0.263-0.115,0.356c-0.078,0.095-0.186,0.155-0.326,0.185
		c0.242,0.023,0.4,0.117,0.479,0.276c0.037,0.081,0.057,0.173,0.057,0.272c0,0.231-0.08,0.405-0.24,0.523
		c-0.141,0.105-0.332,0.157-0.57,0.157c-0.275,0-0.527-0.071-0.762-0.216l0.197-0.343c0.154,0.129,0.318,0.193,0.496,0.193
		c0.262,0,0.393-0.11,0.393-0.331c0-0.152-0.059-0.251-0.176-0.297c-0.063-0.022-0.178-0.034-0.35-0.034H22.203z"/>
	<path fill="#ED1C24" d="M23.757,13.718v-0.063c-0.006-0.268,0.035-0.487,0.123-0.661c0.082-0.161,0.229-0.308,0.438-0.439
		l0.186-0.117c0.088-0.057,0.152-0.108,0.188-0.156c0.047-0.063,0.068-0.141,0.068-0.231c0-0.195-0.121-0.292-0.361-0.292
		c-0.158,0-0.301,0.059-0.432,0.176l-0.189-0.321c0.191-0.144,0.43-0.215,0.713-0.215c0.227,0,0.41,0.052,0.545,0.155
		c0.146,0.115,0.223,0.284,0.223,0.505c0,0.171-0.051,0.314-0.15,0.428c-0.063,0.072-0.199,0.171-0.41,0.293l-0.195,0.113
		c-0.188,0.11-0.291,0.252-0.309,0.426h1.055v0.4H23.757z"/>
	<path fill="#ED1C24" d="M10.162,24.979v-2.284h0.617c0.176,0,0.299,0.005,0.369,0.014c0.135,0.015,0.252,0.051,0.352,0.108
		c0.316,0.179,0.475,0.512,0.475,1c0,0.469-0.15,0.804-0.451,1.005c-0.105,0.071-0.225,0.116-0.363,0.138
		c-0.082,0.013-0.213,0.02-0.391,0.02H10.162z M10.644,24.625h0.191c0.18,0,0.311-0.032,0.395-0.097
		c0.156-0.121,0.236-0.354,0.236-0.7c0-0.329-0.066-0.55-0.199-0.663c-0.061-0.052-0.131-0.086-0.211-0.102
		c-0.051-0.011-0.131-0.017-0.238-0.017h-0.174V24.625z"/>
	<path fill="#ED1C24" d="M13.675,24.514l0.172,0.29c-0.16,0.134-0.359,0.2-0.596,0.2c-0.539,0-0.807-0.292-0.807-0.876
		c0-0.266,0.057-0.477,0.174-0.634c0.131-0.177,0.324-0.265,0.58-0.265c0.318,0,0.533,0.134,0.643,0.4
		c0.049,0.122,0.074,0.303,0.074,0.539v0.065h-1.004v0.016c0,0.145,0.027,0.248,0.084,0.313c0.061,0.065,0.162,0.099,0.305,0.099
		C13.455,24.661,13.58,24.612,13.675,24.514 M13.447,23.948V23.91c0-0.127-0.012-0.217-0.039-0.27
		c-0.039-0.076-0.113-0.114-0.225-0.114c-0.125,0-0.205,0.047-0.244,0.142c-0.02,0.046-0.027,0.125-0.027,0.236v0.044H13.447z"/>
	<polygon fill="#ED1C24" points="14.943,22.605 14.943,24.979 14.486,24.979 14.486,22.703 	"/>
	<path fill="#ED1C24" d="M16.437,23.256v0.312h-0.34v1.411H15.64v-1.411h-0.162v-0.312h0.162v-0.085
		c0-0.181,0.035-0.313,0.107-0.398c0.098-0.118,0.25-0.176,0.453-0.176c0.156,0,0.293,0.03,0.406,0.093l-0.139,0.279
		c-0.055-0.036-0.117-0.055-0.186-0.055c-0.088,0-0.143,0.028-0.168,0.083c-0.012,0.026-0.018,0.081-0.018,0.167v0.092H16.437z"/>
	<path fill="#ED1C24" d="M17.886,24.881c-0.129,0.074-0.277,0.111-0.443,0.111c-0.203,0-0.342-0.057-0.422-0.171
		c-0.037-0.054-0.061-0.129-0.07-0.224c-0.004-0.032-0.004-0.111-0.004-0.238v-0.792h-0.164v-0.312h0.164v-0.36l0.457-0.098v0.458
		h0.443v0.312h-0.443v0.892c0,0.069,0.008,0.118,0.023,0.147c0.021,0.04,0.064,0.06,0.125,0.06c0.07,0,0.135-0.021,0.195-0.062
		L17.886,24.881z"/>
	<path fill="#ED1C24" d="M20.564,23.169c-0.109-0.103-0.242-0.154-0.4-0.154c-0.195,0-0.326,0.071-0.396,0.211
		c-0.051,0.1-0.076,0.259-0.076,0.479c0.102-0.085,0.25-0.127,0.445-0.127c0.215,0,0.385,0.061,0.51,0.182
		c0.125,0.122,0.188,0.291,0.188,0.507c0,0.239-0.072,0.423-0.213,0.552c-0.137,0.125-0.326,0.188-0.566,0.188
		c-0.318,0-0.541-0.111-0.672-0.334c-0.104-0.175-0.154-0.435-0.154-0.779c0-0.82,0.297-1.229,0.893-1.229
		c0.244,0,0.449,0.064,0.615,0.196L20.564,23.169z M19.691,24.016v0.007v0.139c-0.002,0.186,0.023,0.315,0.076,0.393
		c0.051,0.076,0.143,0.114,0.271,0.114c0.219,0,0.33-0.132,0.33-0.396c0-0.237-0.115-0.356-0.348-0.356
		C19.9,23.915,19.791,23.948,19.691,24.016"/>
	<path fill="#ED1C24" d="M10.162,28.578v-2.284h0.617c0.176,0,0.299,0.005,0.369,0.014c0.135,0.016,0.252,0.052,0.352,0.108
		c0.316,0.179,0.475,0.512,0.475,1c0,0.469-0.15,0.804-0.451,1.005c-0.105,0.071-0.225,0.116-0.363,0.139
		c-0.082,0.013-0.213,0.019-0.391,0.019H10.162z M10.644,28.226h0.191c0.18,0,0.311-0.032,0.395-0.098
		c0.156-0.121,0.236-0.354,0.236-0.7c0-0.329-0.066-0.55-0.199-0.663c-0.061-0.052-0.131-0.086-0.211-0.101
		c-0.051-0.011-0.131-0.017-0.238-0.017h-0.174V28.226z"/>
	<path fill="#ED1C24" d="M13.675,28.114l0.172,0.289c-0.16,0.134-0.359,0.201-0.596,0.201c-0.539,0-0.807-0.292-0.807-0.876
		c0-0.266,0.057-0.478,0.174-0.634c0.131-0.178,0.324-0.266,0.58-0.266c0.318,0,0.533,0.134,0.643,0.401
		c0.049,0.122,0.074,0.302,0.074,0.539v0.064h-1.004v0.017c0,0.144,0.027,0.248,0.084,0.312c0.061,0.066,0.162,0.1,0.305,0.1
		C13.455,28.262,13.58,28.212,13.675,28.114 M13.447,27.548v-0.037c0-0.127-0.012-0.218-0.039-0.271
		c-0.039-0.076-0.113-0.114-0.225-0.114c-0.125,0-0.205,0.047-0.244,0.143c-0.02,0.046-0.027,0.125-0.027,0.235v0.044H13.447z"/>
	<path fill="#ED1C24" d="M15.884,28.578h-0.455v-0.992c0-0.157-0.012-0.256-0.037-0.297c-0.035-0.062-0.1-0.092-0.191-0.092
		c-0.111,0-0.197,0.043-0.258,0.129v1.252h-0.455v-1.723h0.455v0.21c0.107-0.157,0.254-0.236,0.439-0.236
		c0.146,0,0.262,0.042,0.348,0.126c0.104,0.102,0.154,0.276,0.154,0.521V28.578z"/>
	<polygon fill="#ED1C24" points="17.962,27.58 17.962,28.578 17.482,28.578 17.482,26.295 17.962,26.295 17.962,27.229 
		18.736,27.229 18.736,26.295 19.218,26.295 19.218,28.578 18.736,28.578 18.736,27.58 	"/>
	<path fill="#ED1C24" d="M20.693,27.568v-0.147c0-0.101-0.023-0.171-0.066-0.21c-0.041-0.035-0.113-0.054-0.215-0.054
		c-0.113,0-0.227,0.044-0.344,0.133l-0.166-0.279c0.182-0.12,0.385-0.181,0.607-0.181c0.309,0,0.5,0.093,0.578,0.274
		c0.035,0.082,0.053,0.209,0.053,0.379v1.095h-0.434v-0.137c-0.117,0.108-0.25,0.162-0.398,0.162c-0.166,0-0.301-0.05-0.4-0.151
		c-0.1-0.1-0.15-0.232-0.15-0.398c0-0.171,0.059-0.306,0.174-0.404c0.109-0.092,0.25-0.138,0.424-0.138
		C20.472,27.512,20.585,27.53,20.693,27.568 M20.693,27.835c-0.064-0.028-0.139-0.044-0.221-0.044c-0.17,0-0.256,0.082-0.256,0.246
		c0,0.165,0.084,0.248,0.25,0.248c0.09,0,0.164-0.029,0.227-0.088V27.835z"/>
	<path fill="#ED1C24" d="M22.591,27.568v-0.147c0-0.101-0.021-0.171-0.064-0.21c-0.041-0.035-0.113-0.054-0.215-0.054
		c-0.113,0-0.229,0.044-0.344,0.133l-0.166-0.279c0.182-0.12,0.385-0.181,0.607-0.181c0.309,0,0.5,0.093,0.578,0.274
		c0.035,0.082,0.051,0.209,0.051,0.379v1.095h-0.432v-0.137c-0.117,0.108-0.25,0.162-0.398,0.162c-0.168,0-0.301-0.05-0.4-0.151
		c-0.1-0.1-0.15-0.232-0.15-0.398c0-0.171,0.057-0.306,0.172-0.404c0.111-0.092,0.252-0.138,0.426-0.138
		C22.373,27.512,22.486,27.53,22.591,27.568 M22.591,27.835c-0.063-0.028-0.137-0.044-0.219-0.044c-0.17,0-0.256,0.082-0.256,0.246
		c0,0.165,0.084,0.248,0.25,0.248c0.09,0,0.164-0.029,0.225-0.088V27.835z"/>
	<path fill="#ED1C24" d="M24.611,27.031v-0.176h0.443v1.695c0,0.315-0.109,0.531-0.326,0.646c-0.123,0.064-0.277,0.097-0.463,0.097
		c-0.221,0-0.416-0.058-0.584-0.172l0.215-0.294c0.092,0.083,0.211,0.124,0.355,0.124c0.141,0,0.238-0.039,0.295-0.118
		c0.033-0.049,0.051-0.147,0.051-0.296v-0.129c-0.102,0.12-0.229,0.181-0.381,0.181c-0.211,0-0.371-0.093-0.479-0.275
		c-0.09-0.151-0.133-0.34-0.133-0.567c0-0.24,0.045-0.442,0.135-0.607c0.111-0.206,0.277-0.31,0.498-0.31
		C24.388,26.829,24.511,26.896,24.611,27.031 M24.597,27.293c-0.047-0.072-0.119-0.109-0.213-0.109
		c-0.133,0-0.221,0.064-0.262,0.193c-0.021,0.07-0.033,0.191-0.033,0.361c0,0.158,0.012,0.271,0.033,0.336
		c0.039,0.117,0.123,0.176,0.248,0.176c0.102,0,0.176-0.037,0.227-0.112V27.293z"/>
	<path fill="#ED1C24" d="M26.976,26.823l-0.012,0.01c-0.131,0.101-0.262,0.18-0.395,0.239l-0.189-0.319
		c0.268-0.115,0.525-0.273,0.773-0.476h0.305v2.301h-0.482V26.823z"/>
	<path fill="#ED1C24" d="M29.46,26.769c-0.107-0.102-0.242-0.153-0.4-0.153c-0.193,0-0.326,0.07-0.396,0.211
		c-0.049,0.099-0.074,0.259-0.074,0.479c0.102-0.086,0.25-0.128,0.445-0.128c0.215,0,0.385,0.061,0.51,0.182
		c0.123,0.122,0.186,0.291,0.186,0.508c0,0.238-0.07,0.423-0.211,0.552c-0.139,0.125-0.326,0.187-0.568,0.187
		c-0.316,0-0.539-0.11-0.67-0.334c-0.104-0.175-0.154-0.434-0.154-0.778c0-0.82,0.297-1.23,0.893-1.23
		c0.242,0,0.447,0.065,0.613,0.197L29.46,26.769z M28.589,27.615v0.008v0.138c-0.002,0.186,0.023,0.316,0.074,0.393
		c0.053,0.076,0.143,0.114,0.271,0.114c0.221,0,0.33-0.132,0.33-0.396c0-0.238-0.115-0.357-0.346-0.357
		C28.798,27.515,28.689,27.549,28.589,27.615"/>
	<path fill="#ED1C24" d="M33.513,11.662l-0.043,0.043l-0.064,0.021l-0.119-0.064L33.244,11.5l0.043-0.162l0.098-0.043l0.107,0.043
		l0.033,0.076l0.01,0.119H33.33l0.021,0.086l0.043,0.032l0.055-0.032L33.513,11.662z M33.449,11.457l-0.021-0.065l-0.043-0.031
		l-0.033,0.031l-0.021,0.065H33.449z"/>
	<polygon fill="#ED1C24" points="32.996,11.608 32.996,11.543 32.996,11.37 33.07,11.37 33.07,11.284 32.996,11.284 32.996,11.133 
		32.91,11.165 32.91,11.284 32.843,11.284 32.843,11.37 32.91,11.37 32.91,11.63 32.929,11.694 33.005,11.728 33.06,11.705 
		33.082,11.608 33.048,11.63 33.027,11.641 32.996,11.63 	"/>
	<polygon fill="#ED1C24" points="32.531,11.651 32.583,11.63 32.595,11.586 32.595,11.296 32.681,11.296 32.681,11.717 
		32.595,11.717 32.595,11.694 32.509,11.728 32.423,11.684 32.39,11.586 32.39,11.296 32.476,11.296 32.476,11.575 32.488,11.63 	
		"/>
	<path fill="#ED1C24" d="M32.121,11.5l-0.021,0.119l-0.043,0.021l-0.043-0.021L31.99,11.5l0.023-0.108l0.043-0.031l0.043,0.031
		L32.121,11.5z M32.164,11.349l-0.107-0.054l-0.109,0.054L31.904,11.5l0.043,0.162l0.109,0.064l0.107-0.064l0.033-0.162
		L32.164,11.349z"/>
	<polygon fill="#ED1C24" points="31.742,11.403 31.699,11.371 31.656,11.392 31.634,11.425 31.634,11.716 31.548,11.716 
		31.548,11.295 31.634,11.295 31.634,11.317 31.708,11.295 31.775,11.306 	"/>
	<path fill="#ED1C24" d="M35.597,11.284l0.066-0.011l0.043-0.022l0.043-0.021l0.043-0.033l0.021-0.043l0.021-0.032v-0.043
		l-0.01-0.044l-0.012-0.043l-0.033-0.043l-0.031-0.032l-0.043-0.021l-0.066-0.022l-0.053-0.01l-0.064-0.011l-0.055,0.011
		l-0.055,0.01l-0.053,0.022l-0.043,0.021l-0.043,0.032l-0.023,0.043l-0.021,0.043v0.044v0.043l0.021,0.043l0.023,0.032l0.031,0.033
		l0.043,0.021l0.055,0.022l0.064,0.011l0.055,0.012L35.597,11.284z M35.576,10.604h0.055l0.053-0.021l0.033-0.011l0.033-0.011
		l0.021-0.021l0.01-0.021v-0.022v-0.021l-0.01-0.022l-0.021-0.021l-0.033-0.011l-0.033-0.022l-0.053-0.011l-0.055-0.011h-0.053
		h-0.055l-0.043,0.011l-0.043,0.011l-0.033,0.022l-0.031,0.011l-0.012,0.021l-0.021,0.022v0.021v0.022l0.01,0.021l0.023,0.021
		l0.031,0.011l0.033,0.022l0.031,0.01l0.055,0.011h0.064L35.576,10.604z M35.955,10.733l0.01,0.022l0.033,0.031l0.033,0.055
		l0.043,0.086l0.02,0.075v0.087l-0.01,0.075l-0.021,0.098l-0.064,0.097l-0.076,0.076l-0.086,0.043l-0.098,0.043l-0.107,0.021
		l-0.107,0.012l-0.109-0.012l-0.119-0.031l-0.107-0.044l-0.098-0.075l-0.064-0.087l-0.031-0.086l-0.023-0.076l-0.01-0.086
		l0.021-0.108l0.021-0.076l0.043-0.054l0.033-0.043l0.021-0.021l0.012-0.022l-0.012-0.011l-0.012-0.021l-0.021-0.033l-0.021-0.043
		l-0.021-0.054l-0.012-0.064l0.012-0.065l0.021-0.075l0.033-0.076l0.064-0.054l0.076-0.054l0.086-0.032l0.107-0.033h0.109h0.107
		l0.096,0.022l0.088,0.032l0.074,0.032l0.076,0.075l0.055,0.087l0.021,0.075l0.01,0.065l-0.01,0.064l-0.021,0.054l-0.021,0.043
		l-0.01,0.033l-0.023,0.01L35.955,10.733z"/>
	<path fill="none" stroke="#FFFFFF" stroke-width="0.045" d="M35.597,11.284l0.066-0.011l0.043-0.022l0.043-0.021l0.043-0.033
		l0.021-0.043l0.021-0.032v-0.043l-0.01-0.044l-0.012-0.043l-0.033-0.043l-0.031-0.032l-0.043-0.021l-0.066-0.022l-0.053-0.01
		l-0.064-0.011l-0.055,0.011l-0.055,0.01l-0.053,0.022l-0.043,0.021l-0.043,0.032l-0.023,0.043l-0.021,0.043v0.044v0.043
		l0.021,0.043l0.023,0.032l0.031,0.033l0.043,0.021l0.055,0.022l0.064,0.011l0.055,0.012L35.597,11.284z M35.576,10.604h0.055
		l0.053-0.021l0.033-0.011l0.033-0.011l0.021-0.021l0.01-0.021v-0.022v-0.021l-0.01-0.022l-0.021-0.021l-0.033-0.011l-0.033-0.022
		l-0.053-0.011l-0.055-0.011h-0.053h-0.055l-0.043,0.011l-0.043,0.011l-0.033,0.022l-0.031,0.011l-0.012,0.021l-0.021,0.022v0.021
		v0.022l0.01,0.021l0.023,0.021l0.031,0.011l0.033,0.022l0.031,0.01l0.055,0.011h0.064L35.576,10.604z M35.955,10.733l0.01,0.022
		l0.033,0.031l0.033,0.055l0.043,0.086l0.02,0.075v0.087l-0.01,0.075l-0.021,0.098l-0.064,0.097l-0.076,0.076l-0.086,0.043
		l-0.098,0.043l-0.107,0.021l-0.107,0.012l-0.109-0.012l-0.119-0.031l-0.107-0.044l-0.098-0.075l-0.064-0.087l-0.031-0.086
		l-0.023-0.076l-0.01-0.086l0.021-0.108l0.021-0.076l0.043-0.054l0.033-0.043l0.021-0.021l0.012-0.022l-0.012-0.011l-0.012-0.021
		l-0.021-0.033l-0.021-0.043l-0.021-0.054l-0.012-0.064l0.012-0.065l0.021-0.075l0.033-0.076l0.064-0.054l0.076-0.054l0.086-0.032
		l0.107-0.033h0.109h0.107l0.096,0.022l0.088,0.032l0.074,0.032l0.076,0.075l0.055,0.087l0.021,0.075l0.01,0.065l-0.01,0.064
		l-0.021,0.054l-0.021,0.043l-0.01,0.033l-0.023,0.01L35.955,10.733z"/>
	<path fill="#ED1C24" d="M31.99,10.55l0.109-0.227l0.053,0.043l0.066,0.098l0.021,0.086H31.99z M32.314,10.55l-0.021-0.108
		l-0.086-0.129l-0.064-0.054l0.076-0.162l0.215,0.453H32.314z M33.113,10.594v0.01l0.012,0.011l0.021,0.011l0.01-0.011h0.012
		l0.012-0.011v-0.021v-0.011l-0.098-0.281l0.064-0.011l0.119,0.022l0.098,0.064l0.064,0.098l0.021,0.118l-0.021,0.119l-0.064,0.098
		l-0.098,0.064l-0.119,0.032l-0.119-0.032l-0.096-0.064l-0.066-0.098l-0.021-0.119l0.021-0.118l0.066-0.098l0.074-0.054
		L33.113,10.594z M32.908,10.042l-0.41,0.476l-0.227-0.476H32.908z M32.24,10.625l-0.021,0.076l-0.066,0.098l-0.096,0.064
		l-0.119,0.032l-0.119-0.032l-0.098-0.064l-0.064-0.098l-0.021-0.119l0.021-0.118l0.064-0.098l0.098-0.064l0.119-0.022l0.098,0.011
		l-0.131,0.271l-0.01,0.021v0.012l0.01,0.01l0.021,0.011l0.012,0.011H32.24z M32.488,10.625l0.021-0.011h0.01l0.422-0.486
		l0.043,0.108l-0.107,0.076L32.8,10.441l-0.031,0.141l0.031,0.151l0.076,0.119l0.117,0.086l0.152,0.021l0.141-0.021l0.129-0.086
		l0.086-0.119l0.033-0.151l-0.033-0.141l-0.086-0.129l-0.129-0.087l-0.141-0.021l-0.098,0.012l-0.141-0.4l-0.02-0.032L32.843,9.75
		l-0.031-0.011h-0.043H32.66v0.076h0.109h0.043l0.01,0.011l0.01,0.012l0.057,0.14H32.24l-0.043-0.076h0.117l0.012-0.01h0.021
		l0.01-0.022V9.858V9.838l-0.01-0.012h-0.021l-0.012-0.011h-0.301v0.086h0.107l0.053,0.108l-0.107,0.216l-0.129-0.021l-0.141,0.021
		l-0.131,0.087l-0.086,0.129l-0.021,0.141l0.021,0.151l0.086,0.119l0.131,0.086l0.141,0.021l0.141-0.021l0.129-0.086l0.086-0.119
		l0.021-0.108H32.488z"/>
	<polygon fill="#ED1C24" points="34.496,10.129 34.496,11.532 34.226,11.532 34.226,10.495 34.042,10.495 34.042,10.269 
		34.076,10.269 34.085,10.259 34.119,10.259 34.152,10.236 34.183,10.226 34.214,10.193 34.238,10.183 34.257,10.16 34.257,10.14 
		34.269,10.129 	"/>
	<polygon fill="none" stroke="#FFFFFF" stroke-width="0.045" points="34.496,10.129 34.496,11.532 34.226,11.532 34.226,10.495 
		34.042,10.495 34.042,10.269 34.076,10.269 34.085,10.259 34.119,10.259 34.152,10.236 34.183,10.226 34.214,10.193 34.238,10.183 
		34.257,10.16 34.257,10.14 34.269,10.129 	"/>
	<path fill="#ED1C24" d="M33.156,12.623l-0.713-0.151l-0.732-0.259l-0.779-0.355V9.805l0.779-0.356l0.732-0.259l0.713-0.151
		l0.67-0.054l0.67,0.054l0.703,0.151l0.744,0.259l0.777,0.356v2.053l-0.777,0.355l-0.744,0.259l-0.703,0.151l-0.67,0.054
		L33.156,12.623z M33.826,9.243L33.21,9.286l-0.625,0.13l-0.648,0.205l-0.66,0.292v1.836l0.66,0.291l0.648,0.205l0.625,0.13
		l0.615,0.043l0.617-0.043l0.625-0.13l0.648-0.205l0.66-0.291V9.913l-0.66-0.292l-0.648-0.205l-0.625-0.13L33.826,9.243z"/>
	<path fill="#ED1C24" d="M31.386,27.727l-0.129-0.021l-0.109-0.075l-0.076-0.108l-0.02-0.13v-3.164l0.02-0.129l0.076-0.109
		l0.109-0.075l0.129-0.021h5.109l0.129,0.021l0.119,0.075l0.064,0.109l0.033,0.129v3.164l-0.033,0.13l-0.064,0.108l-0.119,0.075
		l-0.129,0.021H31.386z M36.496,27.479l0.031-0.011l0.033-0.021l0.021-0.021v-0.033v-3.164v-0.032l-0.021-0.033l-0.033-0.021h-0.031
		h-5.109h-0.033l-0.02,0.021l-0.023,0.033l-0.01,0.032v3.164l0.01,0.033l0.023,0.021l0.02,0.021l0.033,0.011H36.496z"/>
	<path fill="#ED1C24" d="M33.375,25.221l0.01,0.011l0.01,0.012h0.012h0.021l0.01-0.012l0.012-0.011v-0.01v-0.022l-0.107-0.281
		l0.064-0.011l0.119,0.022l0.107,0.064l0.066,0.098l0.02,0.119l-0.02,0.118l-0.066,0.098l-0.107,0.074l-0.119,0.022l-0.107-0.022
		l-0.098-0.074l-0.064-0.098L33.103,25.2l0.033-0.119l0.064-0.098l0.076-0.054L33.375,25.221z M32.509,25.243l-0.021,0.075
		l-0.064,0.098l-0.098,0.074l-0.119,0.022l-0.119-0.022l-0.096-0.074l-0.066-0.098l-0.02-0.118l0.02-0.119l0.066-0.098l0.096-0.064
		l0.119-0.022l0.098,0.022l-0.129,0.27V25.2v0.021v0.011l0.021,0.012H32.509z M32.261,25.167l0.119-0.216l0.043,0.032l0.064,0.098
		l0.021,0.086H32.261z M32.585,25.167l-0.021-0.108l-0.088-0.129l-0.074-0.054l0.074-0.151l0.217,0.442H32.585z M33.179,24.671
		l-0.41,0.464l-0.227-0.464H33.179z M32.757,25.243h0.012l0.021-0.012l0.41-0.475l0.043,0.107l-0.098,0.065l-0.086,0.129
		L33.029,25.2l0.031,0.15l0.086,0.119l0.119,0.086l0.141,0.033l0.15-0.033l0.119-0.086l0.086-0.119l0.033-0.15l-0.033-0.142
		l-0.086-0.118l-0.119-0.087l-0.15-0.032l-0.086,0.012l-0.141-0.39L33.146,24.4l-0.031-0.021l-0.033-0.011h-0.043h-0.107v0.075
		h0.107h0.033h0.01l0.012,0.011l0.01,0.011l0.043,0.13h-0.637l-0.043-0.076h0.119h0.01l0.012-0.01l0.012-0.011v-0.022v-0.011
		l-0.012-0.011l-0.012-0.011h-0.01h-0.291v0.075h0.086l0.053,0.108l-0.096,0.216l-0.131-0.021l-0.15,0.032l-0.119,0.087
		l-0.086,0.118L31.83,25.2l0.021,0.15l0.086,0.119l0.119,0.086l0.15,0.033l0.15-0.033l0.119-0.086l0.088-0.119l0.021-0.107H32.757z"
		/>
	<path fill="#ED1C24" d="M36.085,25.351l-0.045,0.054l-0.064,0.022l-0.119-0.065l-0.043-0.162l0.033-0.162l0.107-0.054l0.107,0.054
		l0.033,0.076l0.01,0.108H35.9l0.023,0.097l0.043,0.021l0.053-0.021L36.085,25.351z M36.019,25.156l-0.021-0.076l-0.043-0.021
		l-0.043,0.021L35.9,25.156H36.019z"/>
	<polygon fill="#ED1C24" points="35.566,25.308 35.566,25.242 35.566,25.069 35.642,25.069 35.642,24.983 35.566,24.983 
		35.566,24.833 35.48,24.864 35.48,24.983 35.416,24.983 35.416,25.069 35.48,25.069 35.48,25.329 35.501,25.394 35.578,25.427 
		35.63,25.404 35.652,25.308 35.621,25.329 35.599,25.34 35.566,25.329 	"/>
	<polygon fill="#ED1C24" points="35.113,25.34 35.156,25.329 35.166,25.286 35.166,24.994 35.253,24.994 35.253,25.416 
		35.177,25.416 35.166,25.394 35.08,25.426 34.994,25.383 34.96,25.286 34.96,24.994 35.046,24.994 35.046,25.274 35.058,25.329 	
		"/>
	<path fill="#ED1C24" d="M34.691,25.199l-0.021,0.119l-0.043,0.021l-0.043-0.021l-0.021-0.119l0.021-0.108l0.043-0.031l0.043,0.031
		L34.691,25.199z M34.734,25.048l-0.107-0.064l-0.107,0.064l-0.033,0.151l0.033,0.162l0.107,0.064l0.107-0.064l0.043-0.162
		L34.734,25.048z"/>
	<polygon fill="#ED1C24" points="34.324,25.103 34.269,25.069 34.226,25.092 34.216,25.124 34.216,25.415 34.13,25.415 
		34.13,24.994 34.205,24.994 34.216,25.017 34.281,24.983 34.345,25.006 	"/>
	<polygon fill="#ED1C24" points="33.06,26.992 33.06,27.263 31.925,27.263 31.925,27.23 31.925,27.177 31.937,27.089 31.958,26.981 
		32.013,26.853 32.099,26.733 32.197,26.614 32.316,26.528 32.423,26.475 32.552,26.431 32.671,26.398 32.714,26.388 32.748,26.366 
		32.769,26.345 32.779,26.313 32.791,26.279 32.791,26.259 32.779,26.214 32.757,26.183 32.726,26.15 32.65,26.117 32.564,26.097 
		32.488,26.097 32.412,26.106 32.347,26.117 32.273,26.14 32.218,26.16 32.164,26.193 32.13,26.226 32.111,26.236 32.087,26.259 
		31.904,26.074 31.925,26.053 31.949,26.021 32.013,25.978 32.111,25.923 32.197,25.891 32.292,25.858 32.392,25.836 32.498,25.836 
		32.617,25.836 32.748,25.869 32.876,25.934 32.984,26.031 33.039,26.14 33.06,26.259 33.048,26.366 33.017,26.452 32.962,26.528 
		32.886,26.593 32.8,26.637 32.693,26.668 32.607,26.689 32.521,26.723 32.455,26.754 32.402,26.798 32.347,26.842 32.304,26.896 
		32.273,26.938 32.261,26.959 32.24,26.992 	"/>
	<polygon fill="none" stroke="#FFFFFF" stroke-width="0.045" points="33.06,26.992 33.06,27.263 31.925,27.263 31.925,27.23 
		31.925,27.177 31.937,27.089 31.958,26.981 32.013,26.853 32.099,26.733 32.197,26.614 32.316,26.528 32.423,26.475 32.552,26.431 
		32.671,26.398 32.714,26.388 32.748,26.366 32.769,26.345 32.779,26.313 32.791,26.279 32.791,26.259 32.779,26.214 32.757,26.183 
		32.726,26.15 32.65,26.117 32.564,26.097 32.488,26.097 32.412,26.106 32.347,26.117 32.273,26.14 32.218,26.16 32.164,26.193 
		32.13,26.226 32.111,26.236 32.087,26.259 31.904,26.074 31.925,26.053 31.949,26.021 32.013,25.978 32.111,25.923 32.197,25.891 
		32.292,25.858 32.392,25.836 32.498,25.836 32.617,25.836 32.748,25.869 32.876,25.934 32.984,26.031 33.039,26.14 33.06,26.259 
		33.048,26.366 33.017,26.452 32.962,26.528 32.886,26.593 32.8,26.637 32.693,26.668 32.607,26.689 32.521,26.723 32.455,26.754 
		32.402,26.798 32.347,26.842 32.304,26.896 32.273,26.938 32.261,26.959 32.24,26.992 	"/>
	<path fill="#ED1C24" d="M35.597,26.247v0.496h-0.475L35.597,26.247z M35.609,25.858l-0.842,0.885v0.249h0.83v0.271h0.26v-0.271
		h0.217v-0.249h-0.217v-0.885H35.609z"/>
	<path fill="none" stroke="#FFFFFF" stroke-width="0.045" d="M35.597,26.247v0.496h-0.475L35.597,26.247z M35.609,25.858
		l-0.842,0.885v0.249h0.83v0.271h0.26v-0.271h0.217v-0.249h-0.217v-0.885H35.609z"/>
	<polygon fill="#ED1C24" points="34.378,25.858 34.378,26.117 33.718,26.117 33.708,26.322 33.742,26.312 33.773,26.302 
		33.816,26.29 33.88,26.279 33.947,26.269 34.011,26.269 34.097,26.269 34.183,26.29 34.269,26.333 34.345,26.388 34.421,26.464 
		34.474,26.561 34.507,26.657 34.519,26.776 34.507,26.885 34.474,26.992 34.421,27.078 34.345,27.154 34.259,27.208 34.173,27.251 
		34.076,27.273 33.978,27.273 33.871,27.273 33.761,27.251 33.656,27.23 33.568,27.208 33.492,27.176 33.449,27.154 33.406,27.144 
		33.384,27.133 33.492,26.885 33.537,26.905 33.58,26.928 33.666,26.959 33.773,26.981 33.88,27.003 33.978,27.014 34.054,27.003 
		34.119,26.992 34.173,26.959 34.216,26.896 34.25,26.842 34.25,26.776 34.25,26.711 34.216,26.637 34.173,26.593 34.119,26.55 
		34.064,26.538 34.011,26.528 33.968,26.528 33.925,26.538 33.859,26.55 33.806,26.561 33.751,26.581 33.73,26.593 33.699,26.604 
		33.675,26.614 33.427,26.538 33.46,25.858 	"/>
	<polygon fill="none" stroke="#FFFFFF" stroke-width="0.045" points="34.378,25.858 34.378,26.117 33.718,26.117 33.708,26.322 
		33.742,26.312 33.773,26.302 33.816,26.29 33.88,26.279 33.947,26.269 34.011,26.269 34.097,26.269 34.183,26.29 34.269,26.333 
		34.345,26.388 34.421,26.464 34.474,26.561 34.507,26.657 34.519,26.776 34.507,26.885 34.474,26.992 34.421,27.078 34.345,27.154 
		34.259,27.208 34.173,27.251 34.076,27.273 33.978,27.273 33.871,27.273 33.761,27.251 33.656,27.23 33.568,27.208 33.492,27.176 
		33.449,27.154 33.406,27.144 33.384,27.133 33.492,26.885 33.537,26.905 33.58,26.928 33.666,26.959 33.773,26.981 33.88,27.003 
		33.978,27.014 34.054,27.003 34.119,26.992 34.173,26.959 34.216,26.896 34.25,26.842 34.25,26.776 34.25,26.711 34.216,26.637 
		34.173,26.593 34.119,26.55 34.064,26.538 34.011,26.528 33.968,26.528 33.925,26.538 33.859,26.55 33.806,26.561 33.751,26.581 
		33.73,26.593 33.699,26.604 33.675,26.614 33.427,26.538 33.46,25.858 	"/>
	<rect fill="none" width="50.314" height="44"/>
</g>
<g id="Layer_7">
</g>
<g id="Layer_6">
</g>
<g id="Layer_5">
</g>
<g id="Layer_4">
</g>
<g id="Layer_3">
</g>
<g id="Layer_2">
</g>
</svg>
