<?xml version="1.0" encoding="utf-8"?>
<!-- Generator: Adobe Illustrator 16.0.0, SVG Export Plug-In . SVG Version: 6.00 Build 0)  -->
<!DOCTYPE svg PUBLIC "-//W3C//DTD SVG 1.1//EN" "http://www.w3.org/Graphics/SVG/1.1/DTD/svg11.dtd">
<svg version="1.1" xmlns="http://www.w3.org/2000/svg" xmlns:xlink="http://www.w3.org/1999/xlink" x="0px" y="0px"
	 width="50.314px" height="44px" viewBox="0 0 50.314 44" enable-background="new 0 0 50.314 44" xml:space="preserve">
<g id="Layer_15">
</g>
<g id="Layer_14">
</g>
<g id="Layer_13">
</g>
<g id="Layer_12">
</g>
<g id="Layer_11">
</g>
<g id="Layer_10">
</g>
<g id="Layer_9">
	<polygon fill="#FFFFFF" points="8.881,9.143 8.898,8.94 8.961,8.754 9.049,8.577 9.189,8.418 9.348,8.286 9.516,8.189 9.711,8.136 
		9.914,8.109 42.326,8.109 42.531,8.136 42.725,8.189 42.893,8.286 43.061,8.418 43.191,8.577 43.281,8.754 43.344,8.94 
		43.359,9.143 43.359,16.787 43.344,16.99 43.281,17.175 43.191,17.352 43.061,17.511 42.893,17.644 42.725,17.741 42.531,17.794 
		42.326,17.821 9.914,17.821 9.711,17.794 9.516,17.741 9.348,17.644 9.18,17.511 9.049,17.352 8.961,17.175 8.898,16.99 
		8.881,16.778 	"/>
	<polygon fill="#FFFFFF" points="8.881,20.498 8.898,20.295 8.961,20.109 9.049,19.932 9.189,19.773 9.348,19.641 9.516,19.544 
		9.711,19.491 9.914,19.464 42.326,19.464 42.531,19.491 42.725,19.544 42.893,19.641 43.061,19.773 43.191,19.932 43.281,20.109 
		43.344,20.295 43.359,20.498 43.359,28.142 43.344,28.345 43.281,28.53 43.191,28.707 43.061,28.866 42.893,28.999 42.725,29.096 
		42.531,29.149 42.326,29.176 9.914,29.176 9.711,29.149 9.516,29.096 9.348,28.999 9.18,28.866 9.049,28.707 8.961,28.53 
		8.898,28.345 8.881,28.133 	"/>
	<polygon fill="#00A651" points="20.297,22.372 20.27,22.336 20.209,22.274 20.121,22.204 19.979,22.125 19.846,22.036 
		19.73,21.957 19.652,21.876 19.6,21.805 19.547,21.647 19.564,21.434 19.662,21.213 19.855,21.019 19.979,20.931 20.111,20.878 
		20.262,20.842 20.422,20.826 20.59,20.842 20.748,20.895 20.898,20.975 21.049,21.082 20.748,21.443 20.643,21.365 20.545,21.302 
		20.457,21.266 20.369,21.25 20.209,21.266 20.111,21.32 20.051,21.39 20.014,21.47 20.014,21.541 20.041,21.593 20.076,21.629 
		20.146,21.682 20.254,21.752 20.395,21.841 20.537,21.938 20.643,22.026 20.713,22.106 20.758,22.176 20.773,22.336 20.748,22.54 
		20.705,22.645 20.643,22.751 20.553,22.857 20.43,22.963 20.297,23.051 20.146,23.113 19.979,23.158 19.793,23.167 19.617,23.149 
		19.439,23.096 19.291,22.999 19.148,22.867 19.449,22.496 19.564,22.601 19.678,22.68 19.793,22.725 19.908,22.743 20.094,22.716 
		20.209,22.645 20.27,22.565 20.297,22.504 	"/>
	<polygon fill="none" stroke="#FFFFFF" stroke-width="0.037" points="20.297,22.372 20.27,22.336 20.209,22.274 20.121,22.204 
		19.979,22.125 19.846,22.036 19.73,21.957 19.652,21.876 19.6,21.805 19.547,21.647 19.564,21.434 19.662,21.213 19.855,21.019 
		19.979,20.931 20.111,20.878 20.262,20.842 20.422,20.826 20.59,20.842 20.748,20.895 20.898,20.975 21.049,21.082 20.748,21.443 
		20.643,21.365 20.545,21.302 20.457,21.266 20.369,21.25 20.209,21.266 20.111,21.32 20.051,21.39 20.014,21.47 20.014,21.541 
		20.041,21.593 20.076,21.629 20.146,21.682 20.254,21.752 20.395,21.841 20.537,21.938 20.643,22.026 20.713,22.106 20.758,22.176 
		20.773,22.336 20.748,22.54 20.705,22.645 20.643,22.751 20.553,22.857 20.43,22.963 20.297,23.051 20.146,23.113 19.979,23.158 
		19.793,23.167 19.617,23.149 19.439,23.096 19.291,22.999 19.148,22.867 19.449,22.496 19.564,22.601 19.678,22.68 19.793,22.725 
		19.908,22.743 20.094,22.716 20.209,22.645 20.27,22.565 20.297,22.504 	"/>
	<path fill="#00A651" d="M22.648,21.965l-0.045,0.167l-0.053,0.16l-0.063,0.132l-0.07,0.105l-0.07,0.08l-0.08,0.062l-0.088,0.036
		l-0.088,0.009l-0.143-0.036l-0.088-0.106l0.283-1.184l0.115-0.088l0.148-0.036l0.143,0.036l0.105,0.115l0.027,0.097l0.008,0.124
		l-0.008,0.15L22.648,21.965z M22.463,19.995l-0.479,0.158l-0.697,2.979h0.449l0.01-0.063l0.203,0.088l0.258-0.008l0.141-0.036
		l0.133-0.069l0.123-0.098l0.123-0.124l0.107-0.168l0.096-0.186l0.09-0.229l0.07-0.257l0.045-0.265l0.016-0.221l-0.016-0.203
		l-0.045-0.159l-0.07-0.133l-0.09-0.098l-0.115-0.053l-0.123-0.026l-0.238,0.018l-0.203,0.071L22.463,19.995z"/>
	<path fill="none" stroke="#FFFFFF" stroke-width="0.037" d="M22.648,21.965l-0.045,0.167l-0.053,0.16l-0.063,0.132l-0.07,0.105
		l-0.07,0.08l-0.08,0.062l-0.088,0.036l-0.088,0.009l-0.143-0.036l-0.088-0.106l0.283-1.184l0.115-0.088l0.148-0.036l0.143,0.036
		l0.105,0.115l0.027,0.097l0.008,0.124l-0.008,0.15L22.648,21.965z M22.463,19.995l-0.479,0.158l-0.697,2.979h0.449l0.01-0.063
		l0.203,0.088l0.258-0.008l0.141-0.036l0.133-0.069l0.123-0.098l0.123-0.124l0.107-0.168l0.096-0.186l0.09-0.229l0.07-0.257
		l0.045-0.265l0.016-0.221l-0.016-0.203l-0.045-0.159l-0.07-0.133l-0.09-0.098l-0.115-0.053l-0.123-0.026l-0.238,0.018l-0.203,0.071
		L22.463,19.995z"/>
	<path fill="#00A651" d="M24.813,22.822l-0.15,0.151l-0.168,0.113l-0.176,0.063l-0.195,0.026l-0.193-0.026l-0.15-0.054l-0.125-0.097
		l-0.088-0.133l-0.053-0.167l-0.027-0.212l0.02-0.23l0.043-0.265l0.08-0.274l0.088-0.229l0.115-0.195l0.133-0.167l0.141-0.133
		l0.15-0.088l0.168-0.063l0.168-0.018l0.168,0.018l0.141,0.063l0.107,0.088l0.088,0.133l0.053,0.167l0.008,0.23l-0.025,0.273
		l-0.063,0.327h-1.096l-0.025,0.159l-0.01,0.124l0.01,0.115l0.025,0.088l0.098,0.105l0.133,0.036l0.158-0.036l0.178-0.123
		L24.813,22.822z M24.689,21.752l0.035-0.229l-0.035-0.15l-0.08-0.097l-0.115-0.027l-0.123,0.027l-0.125,0.097l-0.105,0.159
		l-0.07,0.221H24.689z"/>
	<path fill="none" stroke="#FFFFFF" stroke-width="0.037" d="M24.813,22.822l-0.15,0.151l-0.168,0.113l-0.176,0.063l-0.195,0.026
		l-0.193-0.026l-0.15-0.054l-0.125-0.097l-0.088-0.133l-0.053-0.167l-0.027-0.212l0.02-0.23l0.043-0.265l0.08-0.274l0.088-0.229
		l0.115-0.195l0.133-0.167l0.141-0.133l0.15-0.088l0.168-0.063l0.168-0.018l0.168,0.018l0.141,0.063l0.107,0.088l0.088,0.133
		l0.053,0.167l0.008,0.23l-0.025,0.273l-0.063,0.327h-1.096l-0.025,0.159l-0.01,0.124l0.01,0.115l0.025,0.088l0.098,0.105
		l0.133,0.036l0.158-0.036l0.178-0.123L24.813,22.822z M24.689,21.752l0.035-0.229l-0.035-0.15l-0.08-0.097l-0.115-0.027
		l-0.123,0.027l-0.125,0.097l-0.105,0.159l-0.07,0.221H24.689z"/>
	<path fill="#00A651" d="M26.846,22.822l-0.15,0.151l-0.168,0.113l-0.178,0.063l-0.193,0.026l-0.195-0.026l-0.15-0.054l-0.123-0.097
		L25.6,22.866l-0.053-0.167l-0.027-0.212l0.018-0.23l0.045-0.265l0.078-0.274l0.09-0.229l0.115-0.195l0.131-0.167l0.143-0.133
		l0.15-0.088l0.168-0.063l0.176-0.018l0.168,0.018l0.133,0.063l0.105,0.088l0.088,0.133l0.053,0.167l0.01,0.23l-0.025,0.273
		l-0.063,0.327h-1.096l-0.027,0.159l-0.008,0.124l0.008,0.115l0.035,0.088l0.088,0.105l0.135,0.036l0.158-0.036l0.178-0.123
		L26.846,22.822z M26.721,21.752l0.035-0.229l-0.035-0.15l-0.08-0.097l-0.113-0.027l-0.123,0.027l-0.125,0.097l-0.105,0.159
		l-0.072,0.221H26.721z"/>
	<path fill="none" stroke="#FFFFFF" stroke-width="0.037" d="M26.846,22.822l-0.15,0.151l-0.168,0.113l-0.178,0.063l-0.193,0.026
		l-0.195-0.026l-0.15-0.054l-0.123-0.097L25.6,22.866l-0.053-0.167l-0.027-0.212l0.018-0.23l0.045-0.265l0.078-0.274l0.09-0.229
		l0.115-0.195l0.131-0.167l0.143-0.133l0.15-0.088l0.168-0.063l0.176-0.018l0.168,0.018l0.133,0.063l0.105,0.088l0.088,0.133
		l0.053,0.167l0.01,0.23l-0.025,0.273l-0.063,0.327h-1.096l-0.027,0.159l-0.008,0.124l0.008,0.115l0.035,0.088l0.088,0.105
		l0.135,0.036l0.158-0.036l0.178-0.123L26.846,22.822z M26.721,21.752l0.035-0.229l-0.035-0.15l-0.08-0.097l-0.113-0.027
		l-0.123,0.027l-0.125,0.097l-0.105,0.159l-0.072,0.221H26.721z"/>
	<polygon fill="#00A651" points="40.551,20.701 40.223,20.524 40.357,20.365 40.506,20.233 40.666,20.127 40.834,20.056 
		41.01,20.012 41.17,19.994 41.328,20.012 41.479,20.056 41.611,20.127 41.717,20.224 41.787,20.347 41.832,20.499 41.84,20.807 
		41.76,21.072 41.629,21.293 41.451,21.47 41.541,21.585 41.594,21.708 41.629,21.85 41.637,22 41.619,22.15 41.584,22.301 
		41.523,22.451 41.436,22.601 41.205,22.857 40.896,23.06 40.719,23.131 40.533,23.167 40.348,23.167 40.152,23.14 39.967,23.06 
		39.809,22.928 39.686,22.734 39.578,22.477 40.012,22.345 40.064,22.512 40.152,22.636 40.258,22.725 40.4,22.76 40.551,22.769 
		40.691,22.751 40.816,22.698 40.93,22.627 41.107,22.433 41.205,22.203 41.213,21.973 41.133,21.797 41.064,21.726 40.965,21.691 
		40.859,21.673 40.729,21.691 40.816,21.293 40.975,21.284 41.107,21.258 41.213,21.205 41.311,21.125 41.381,21.019 41.426,20.922 
		41.451,20.807 41.451,20.683 41.426,20.577 41.363,20.489 41.266,20.436 41.143,20.401 40.992,20.401 40.842,20.454 40.701,20.56 	
		"/>
	<polygon fill="none" stroke="#FFFFFF" stroke-width="0.037" points="40.551,20.701 40.223,20.524 40.357,20.365 40.506,20.233 
		40.666,20.127 40.834,20.056 41.01,20.012 41.17,19.994 41.328,20.012 41.479,20.056 41.611,20.127 41.717,20.224 41.787,20.347 
		41.832,20.499 41.84,20.807 41.76,21.072 41.629,21.293 41.451,21.47 41.541,21.585 41.594,21.708 41.629,21.85 41.637,22 
		41.619,22.15 41.584,22.301 41.523,22.451 41.436,22.601 41.205,22.857 40.896,23.06 40.719,23.131 40.533,23.167 40.348,23.167 
		40.152,23.14 39.967,23.06 39.809,22.928 39.686,22.734 39.578,22.477 40.012,22.345 40.064,22.512 40.152,22.636 40.258,22.725 
		40.4,22.76 40.551,22.769 40.691,22.751 40.816,22.698 40.93,22.627 41.107,22.433 41.205,22.203 41.213,21.973 41.133,21.797 
		41.064,21.726 40.965,21.691 40.859,21.673 40.729,21.691 40.816,21.293 40.975,21.284 41.107,21.258 41.213,21.205 41.311,21.125 
		41.381,21.019 41.426,20.922 41.451,20.807 41.451,20.683 41.426,20.577 41.363,20.489 41.266,20.436 41.143,20.401 40.992,20.401 
		40.842,20.454 40.701,20.56 	"/>
	<polygon fill="#00A651" points="16.762,23.131 17.479,20.039 19.219,20.039 19.131,20.445 17.797,20.445 17.604,21.285 
		18.371,21.293 18.273,21.7 17.504,21.7 17.268,22.708 18.645,22.708 18.547,23.131 	"/>
	<polygon fill="none" stroke="#FFFFFF" stroke-width="0.037" points="16.762,23.131 17.479,20.039 19.219,20.039 19.131,20.445 
		17.797,20.445 17.604,21.285 18.371,21.293 18.273,21.7 17.504,21.7 17.268,22.708 18.645,22.708 18.547,23.131 	"/>
	<polygon fill="#00A651" points="27.57,23.131 28.258,20.153 28.744,19.995 28.373,21.593 29.107,20.842 29.664,20.842 
		28.947,21.567 29.133,23.131 28.656,23.131 28.523,22.009 28.197,22.336 28.012,23.131 	"/>
	<polygon fill="none" stroke="#FFFFFF" stroke-width="0.037" points="27.57,23.131 28.258,20.153 28.744,19.995 28.373,21.593 
		29.107,20.842 29.664,20.842 28.947,21.567 29.133,23.131 28.656,23.131 28.523,22.009 28.197,22.336 28.012,23.131 	"/>
	<rect x="20.271" y="25.446" fill="#ED1C24" width="0.432" height="2.28"/>
	<rect x="20.271" y="25.446" fill="none" stroke="#FFFFFF" stroke-width="0.037" width="0.432" height="2.28"/>
	<polygon fill="#ED1C24" points="20.395,24.74 20.314,24.792 20.262,24.863 20.254,24.96 20.262,25.048 20.314,25.12 20.395,25.172 
		20.482,25.19 20.57,25.172 20.65,25.12 20.705,25.048 20.721,24.96 20.705,24.863 20.65,24.792 20.57,24.74 20.482,24.722 	"/>
	<polygon fill="none" stroke="#FFFFFF" stroke-width="0.037" points="20.721,24.96 20.703,25.048 20.65,25.12 20.572,25.172 
		20.482,25.191 20.395,25.172 20.314,25.12 20.262,25.048 20.254,24.96 20.262,24.864 20.314,24.792 20.395,24.74 20.482,24.721 
		20.572,24.74 20.65,24.792 20.703,24.864 	"/>
	<path fill="#ED1C24" d="M21.809,26.356l0.018-0.149l0.035-0.123l0.053-0.099l0.115-0.114l0.15-0.026l0.141,0.044l0.115,0.097v1.211
		l-0.105,0.098l-0.16,0.026l-0.08-0.009l-0.078-0.036l-0.063-0.062l-0.053-0.088l-0.053-0.115l-0.027-0.132l-0.018-0.159v-0.187
		L21.809,26.356z M22.436,25.508l-0.203-0.071l-0.23-0.025l-0.115,0.018l-0.113,0.061l-0.115,0.09l-0.098,0.132l-0.088,0.168
		l-0.063,0.194l-0.035,0.222l-0.018,0.256l0.018,0.256l0.035,0.221l0.053,0.203l0.08,0.168l0.098,0.133l0.105,0.106l0.115,0.07
		l0.115,0.036h0.238l0.221-0.08v0.062h0.441v-3.137l-0.441,0.159V25.508z"/>
	<path fill="none" stroke="#FFFFFF" stroke-width="0.037" d="M21.809,26.356l0.018-0.149l0.035-0.123l0.053-0.099l0.115-0.114
		l0.15-0.026l0.141,0.044l0.115,0.097v1.211l-0.105,0.098l-0.16,0.026l-0.08-0.009l-0.078-0.036l-0.063-0.062l-0.053-0.088
		l-0.053-0.115l-0.027-0.132l-0.018-0.159v-0.187L21.809,26.356z M22.436,25.508l-0.203-0.071l-0.23-0.025l-0.115,0.018
		l-0.113,0.061l-0.115,0.09l-0.098,0.132l-0.088,0.168l-0.063,0.194l-0.035,0.222l-0.018,0.256l0.018,0.256l0.035,0.221l0.053,0.203
		l0.08,0.168l0.098,0.133l0.105,0.106l0.115,0.07l0.115,0.036h0.238l0.221-0.08v0.062h0.441v-3.137l-0.441,0.159V25.508z"/>
	<path fill="#ED1C24" d="M23.982,26.356L24,26.207l0.035-0.123l0.053-0.099l0.123-0.114l0.143-0.026l0.141,0.044l0.115,0.097v1.211
		l-0.105,0.098l-0.16,0.026l-0.08-0.009l-0.068-0.036l-0.072-0.062l-0.053-0.088l-0.043-0.115l-0.037-0.132l-0.018-0.159v-0.187
		L23.982,26.356z M24.609,25.508l-0.193-0.071l-0.24-0.025l-0.115,0.018l-0.113,0.061l-0.115,0.09l-0.098,0.132l-0.088,0.168
		l-0.063,0.194l-0.035,0.222l-0.008,0.256l0.008,0.256l0.035,0.221l0.053,0.203l0.08,0.168l0.098,0.133l0.105,0.106l0.115,0.07
		l0.113,0.036h0.24l0.221-0.08v0.062h0.451v-3.137l-0.451,0.159V25.508z"/>
	<path fill="none" stroke="#FFFFFF" stroke-width="0.037" d="M23.982,26.356L24,26.207l0.035-0.123l0.053-0.099l0.123-0.114
		l0.143-0.026l0.141,0.044l0.115,0.097v1.211l-0.105,0.098l-0.16,0.026l-0.08-0.009l-0.068-0.036l-0.072-0.062l-0.053-0.088
		l-0.043-0.115l-0.037-0.132l-0.018-0.159v-0.187L23.982,26.356z M24.609,25.508l-0.193-0.071l-0.24-0.025l-0.115,0.018
		l-0.113,0.061l-0.115,0.09l-0.098,0.132l-0.088,0.168l-0.063,0.194l-0.035,0.222l-0.008,0.256l0.008,0.256l0.035,0.221l0.053,0.203
		l0.08,0.168l0.098,0.133l0.105,0.106l0.115,0.07l0.113,0.036h0.24l0.221-0.08v0.062h0.451v-3.137l-0.451,0.159V25.508z"/>
	<path fill="#ED1C24" d="M27.162,27.417l-0.105,0.15l-0.141,0.106l-0.168,0.07l-0.193,0.019l-0.195-0.019l-0.168-0.053l-0.141-0.097
		l-0.125-0.143l-0.088-0.167l-0.07-0.204l-0.035-0.229l-0.018-0.274l0.008-0.266l0.045-0.229l0.061-0.204l0.088-0.158l0.115-0.133
		l0.133-0.097l0.15-0.053l0.178-0.019l0.168,0.019l0.15,0.053l0.131,0.097l0.115,0.124l0.09,0.177l0.061,0.221l0.045,0.283
		l0.008,0.327h-1.096l0.01,0.149l0.018,0.133l0.035,0.106l0.053,0.088l0.123,0.115l0.133,0.035l0.15-0.035l0.15-0.124L27.162,27.417
		z M26.801,26.338l-0.027-0.221l-0.07-0.149l-0.096-0.098l-0.125-0.026l-0.115,0.026l-0.105,0.098l-0.07,0.158l-0.018,0.212H26.801z
		"/>
	<path fill="none" stroke="#FFFFFF" stroke-width="0.037" d="M27.162,27.417l-0.105,0.15l-0.141,0.106l-0.168,0.07l-0.193,0.019
		l-0.195-0.019l-0.168-0.053l-0.141-0.097l-0.125-0.143l-0.088-0.167l-0.07-0.204l-0.035-0.229l-0.018-0.274l0.008-0.266
		l0.045-0.229l0.061-0.204l0.088-0.158l0.115-0.133l0.133-0.097l0.15-0.053l0.178-0.019l0.168,0.019l0.15,0.053l0.131,0.097
		l0.115,0.124l0.09,0.177l0.061,0.221l0.045,0.283l0.008,0.327h-1.096l0.01,0.149l0.018,0.133l0.035,0.106l0.053,0.088l0.123,0.115
		l0.133,0.035l0.15-0.035l0.15-0.124L27.162,27.417z M26.801,26.338l-0.027-0.221l-0.07-0.149l-0.096-0.098l-0.125-0.026
		l-0.115,0.026l-0.105,0.098l-0.07,0.158l-0.018,0.212H26.801z"/>
	<path fill="#ED1C24" d="M30.361,26.551v0.176l-0.016,0.16l-0.037,0.123l-0.043,0.106l-0.055,0.089l-0.061,0.061l-0.08,0.036
		l-0.088,0.009l-0.16-0.036l-0.096-0.105v-1.185l0.096-0.088l0.141-0.036l0.152,0.027l0.123,0.124l0.053,0.097l0.035,0.124
		l0.027,0.15L30.361,26.551z M29.727,24.589l-0.451,0.159v2.978h0.451v-0.062l0.221,0.08h0.256l0.123-0.036l0.115-0.07l0.105-0.098
		l0.09-0.123l0.078-0.168l0.055-0.187l0.035-0.229l0.008-0.256l-0.018-0.266l-0.035-0.229l-0.063-0.194l-0.088-0.168l-0.098-0.124
		L30.398,25.5l-0.125-0.054L30.15,25.42l-0.248,0.017l-0.176,0.071V24.589z"/>
	<path fill="none" stroke="#FFFFFF" stroke-width="0.037" d="M30.361,26.551v0.176l-0.016,0.16l-0.037,0.123l-0.043,0.106
		l-0.055,0.089l-0.061,0.061l-0.08,0.036l-0.088,0.009l-0.16-0.036l-0.096-0.105v-1.185l0.096-0.088l0.141-0.036l0.152,0.027
		l0.123,0.124l0.053,0.097l0.035,0.124l0.027,0.15L30.361,26.551z M29.727,24.589l-0.451,0.159v2.978h0.451v-0.062l0.221,0.08h0.256
		l0.123-0.036l0.115-0.07l0.105-0.098l0.09-0.123l0.078-0.168l0.055-0.187l0.035-0.229l0.008-0.256l-0.018-0.266l-0.035-0.229
		l-0.063-0.194l-0.088-0.168l-0.098-0.124L30.398,25.5l-0.125-0.054L30.15,25.42l-0.248,0.017l-0.176,0.071V24.589z"/>
	<path fill="#ED1C24" d="M32.73,27.417l-0.115,0.15l-0.141,0.106l-0.168,0.07l-0.186,0.019l-0.195-0.019l-0.168-0.053l-0.15-0.097
		l-0.115-0.143l-0.096-0.167l-0.072-0.204l-0.033-0.229l-0.02-0.274l0.02-0.266l0.033-0.229l0.063-0.204l0.098-0.158l0.105-0.133
		l0.133-0.097l0.15-0.053l0.178-0.019l0.168,0.019l0.148,0.053l0.133,0.097l0.115,0.124l0.088,0.177l0.063,0.221l0.045,0.283
		l0.016,0.327h-1.104l0.01,0.149l0.025,0.133l0.035,0.106l0.045,0.088l0.123,0.115l0.143,0.035l0.15-0.035l0.148-0.124L32.73,27.417
		z M32.359,26.338l-0.027-0.221l-0.07-0.149l-0.096-0.098l-0.125-0.026l-0.115,0.026l-0.098,0.098l-0.07,0.158l-0.025,0.212H32.359z
		"/>
	<path fill="none" stroke="#FFFFFF" stroke-width="0.037" d="M32.73,27.417l-0.115,0.15l-0.141,0.106l-0.168,0.07l-0.186,0.019
		l-0.195-0.019l-0.168-0.053l-0.15-0.097l-0.115-0.143l-0.096-0.167l-0.072-0.204l-0.033-0.229l-0.02-0.274l0.02-0.266l0.033-0.229
		l0.063-0.204l0.098-0.158l0.105-0.133l0.133-0.097l0.15-0.053l0.178-0.019l0.168,0.019l0.148,0.053l0.133,0.097l0.115,0.124
		l0.088,0.177l0.063,0.221l0.045,0.283l0.016,0.327h-1.104l0.01,0.149l0.025,0.133l0.035,0.106l0.045,0.088l0.123,0.115l0.143,0.035
		l0.15-0.035l0.148-0.124L32.73,27.417z M32.359,26.338l-0.027-0.221l-0.07-0.149l-0.096-0.098l-0.125-0.026l-0.115,0.026
		l-0.098,0.098l-0.07,0.158l-0.025,0.212H32.359z"/>
	<path fill="#ED1C24" d="M34.762,27.417l-0.113,0.15l-0.143,0.106l-0.168,0.07l-0.186,0.019l-0.193-0.019l-0.168-0.053l-0.15-0.097
		l-0.115-0.143l-0.098-0.167l-0.07-0.204l-0.035-0.229l-0.018-0.274l0.018-0.266l0.035-0.229l0.063-0.204l0.098-0.158l0.113-0.133
		l0.125-0.097l0.158-0.053l0.168-0.019l0.168,0.019l0.15,0.053l0.133,0.097l0.115,0.124l0.088,0.177l0.061,0.221l0.045,0.283
		l0.01,0.327h-1.096l0.008,0.149l0.027,0.133l0.035,0.106l0.045,0.088l0.123,0.115l0.141,0.035l0.15-0.035l0.15-0.124L34.762,27.417
		z M34.393,26.338l-0.027-0.221l-0.07-0.149l-0.098-0.098l-0.115-0.026l-0.123,0.026l-0.098,0.098l-0.07,0.158l-0.027,0.212H34.393z
		"/>
	<path fill="none" stroke="#FFFFFF" stroke-width="0.037" d="M34.762,27.417l-0.113,0.15l-0.143,0.106l-0.168,0.07l-0.186,0.019
		l-0.193-0.019l-0.168-0.053l-0.15-0.097l-0.115-0.143l-0.098-0.167l-0.07-0.204l-0.035-0.229l-0.018-0.274l0.018-0.266l0.035-0.229
		l0.063-0.204l0.098-0.158l0.113-0.133l0.125-0.097l0.158-0.053l0.168-0.019l0.168,0.019l0.15,0.053l0.133,0.097l0.115,0.124
		l0.088,0.177l0.061,0.221l0.045,0.283l0.01,0.327h-1.096l0.008,0.149l0.027,0.133l0.035,0.106l0.045,0.088l0.123,0.115l0.141,0.035
		l0.15-0.035l0.15-0.124L34.762,27.417z M34.393,26.338l-0.027-0.221l-0.07-0.149l-0.098-0.098l-0.115-0.026l-0.123,0.026
		l-0.098,0.098l-0.07,0.158l-0.027,0.212H34.393z"/>
	<polygon fill="#ED1C24" points="36.592,26.056 36.441,25.923 36.299,25.879 36.186,25.897 36.088,25.968 36.018,26.065 
		35.99,26.163 35.99,27.726 35.549,27.726 35.549,25.446 35.99,25.446 35.99,25.552 36.176,25.456 36.379,25.429 36.582,25.446 
		36.732,25.517 	"/>
	<polygon fill="none" stroke="#FFFFFF" stroke-width="0.037" points="36.592,26.056 36.441,25.923 36.299,25.879 36.186,25.897 
		36.088,25.968 36.018,26.065 35.99,26.163 35.99,27.726 35.549,27.726 35.549,25.446 35.99,25.446 35.99,25.552 36.176,25.456 
		36.379,25.429 36.582,25.446 36.732,25.517 	"/>
	<polygon fill="#ED1C24" points="37.908,26.966 37.881,26.922 37.803,26.87 37.688,26.798 37.537,26.719 37.379,26.63 
		37.254,26.551 37.148,26.471 37.078,26.4 36.99,26.242 36.963,26.03 36.971,25.915 37.008,25.808 37.07,25.711 37.158,25.605 
		37.254,25.526 37.379,25.464 37.52,25.428 37.678,25.42 37.846,25.437 38.014,25.481 38.191,25.571 38.369,25.676 38.146,26.039 
		38.023,25.959 37.908,25.888 37.811,25.853 37.715,25.844 37.572,25.862 37.484,25.915 37.439,25.986 37.422,26.056 37.439,26.135 
		37.475,26.188 37.52,26.224 37.609,26.278 37.723,26.347 37.881,26.436 38.049,26.534 38.174,26.622 38.27,26.702 38.324,26.772 
		38.385,26.931 38.404,27.125 38.385,27.241 38.342,27.346 38.279,27.453 38.182,27.558 38.068,27.646 37.936,27.708 37.775,27.745 
		37.6,27.761 37.404,27.745 37.229,27.682 37.051,27.593 36.883,27.461 37.096,27.09 37.236,27.197 37.369,27.275 37.494,27.32 
		37.609,27.337 37.793,27.311 37.891,27.241 37.926,27.153 37.943,27.09 	"/>
	<polygon fill="none" stroke="#FFFFFF" stroke-width="0.037" points="37.908,26.966 37.881,26.922 37.803,26.87 37.688,26.798 
		37.537,26.719 37.379,26.63 37.254,26.551 37.148,26.471 37.078,26.4 36.99,26.242 36.963,26.03 36.971,25.915 37.008,25.808 
		37.07,25.711 37.158,25.605 37.254,25.526 37.379,25.464 37.52,25.428 37.678,25.42 37.846,25.437 38.014,25.481 38.191,25.571 
		38.369,25.676 38.146,26.039 38.023,25.959 37.908,25.888 37.811,25.853 37.715,25.844 37.572,25.862 37.484,25.915 37.439,25.986 
		37.422,26.056 37.439,26.135 37.475,26.188 37.52,26.224 37.609,26.278 37.723,26.347 37.881,26.436 38.049,26.534 38.174,26.622 
		38.27,26.702 38.324,26.772 38.385,26.931 38.404,27.125 38.385,27.241 38.342,27.346 38.279,27.453 38.182,27.558 38.068,27.646 
		37.936,27.708 37.775,27.745 37.6,27.761 37.404,27.745 37.229,27.682 37.051,27.593 36.883,27.461 37.096,27.09 37.236,27.197 
		37.369,27.275 37.494,27.32 37.609,27.337 37.793,27.311 37.891,27.241 37.926,27.153 37.943,27.09 	"/>
	<path fill="#ED1C24" d="M41.389,26.763l-0.043,0.221l-0.115,0.194l-0.176,0.124l-0.213,0.044l-0.203-0.044l-0.176-0.124
		l-0.115-0.194l-0.045-0.221l0.045-0.229l0.115-0.194l0.176-0.124l0.203-0.035l0.213,0.035l0.176,0.124l0.115,0.194L41.389,26.763z
		 M41.451,25.985L41.451,25.985h0.01l0.105-0.132l0.08-0.142l0.045-0.15l0.018-0.159l-0.01-0.158l-0.053-0.15l-0.08-0.142
		l-0.105-0.123l-0.133-0.099l-0.15-0.079l-0.158-0.044l-0.178-0.018l-0.168,0.018l-0.158,0.044l-0.15,0.079l-0.123,0.099
		l-0.115,0.123l-0.08,0.142l-0.045,0.15l-0.018,0.158l0.018,0.159l0.045,0.15l0.08,0.142l0.115,0.132l-0.08,0.071l-0.115,0.15
		l-0.088,0.177l-0.053,0.185l-0.027,0.195l0.027,0.194l0.053,0.186l0.088,0.177l0.123,0.15l0.143,0.123l0.168,0.098l0.176,0.054
		l0.186,0.017l0.195-0.017l0.176-0.054l0.168-0.098l0.15-0.123l0.115-0.15l0.088-0.177l0.053-0.186l0.027-0.194l-0.027-0.195
		l-0.053-0.185l-0.088-0.177l-0.115-0.15l-0.053-0.053L41.451,25.985z M41.311,25.402l-0.035,0.15l-0.098,0.133l-0.15,0.088
		l-0.186,0.036l-0.176-0.036l-0.15-0.088l-0.098-0.133l-0.025-0.15l0.025-0.158l0.098-0.134l0.15-0.097l0.176-0.026l0.186,0.026
		l0.15,0.097l0.098,0.134L41.311,25.402z"/>
	<path fill="none" stroke="#FFFFFF" stroke-width="0.037" d="M41.389,26.763l-0.043,0.221l-0.115,0.194l-0.176,0.124l-0.213,0.044
		l-0.203-0.044l-0.176-0.124l-0.115-0.194l-0.045-0.221l0.045-0.229l0.115-0.194l0.176-0.124l0.203-0.035l0.213,0.035l0.176,0.124
		l0.115,0.194L41.389,26.763z M41.451,25.985L41.451,25.985h0.01l0.105-0.132l0.08-0.142l0.045-0.15l0.018-0.159l-0.01-0.158
		l-0.053-0.15l-0.08-0.142l-0.105-0.123l-0.133-0.099l-0.15-0.079l-0.158-0.044l-0.178-0.018l-0.168,0.018l-0.158,0.044l-0.15,0.079
		l-0.123,0.099l-0.115,0.123l-0.08,0.142l-0.045,0.15l-0.018,0.158l0.018,0.159l0.045,0.15l0.08,0.142l0.115,0.132l-0.08,0.071
		l-0.115,0.15l-0.088,0.177l-0.053,0.185l-0.027,0.195l0.027,0.194l0.053,0.186l0.088,0.177l0.123,0.15l0.143,0.123l0.168,0.098
		l0.176,0.054l0.186,0.017l0.195-0.017l0.176-0.054l0.168-0.098l0.15-0.123l0.115-0.15l0.088-0.177l0.053-0.186l0.027-0.194
		l-0.027-0.195l-0.053-0.185l-0.088-0.177l-0.115-0.15l-0.053-0.053L41.451,25.985z M41.311,25.402l-0.035,0.15l-0.098,0.133
		l-0.15,0.088l-0.186,0.036l-0.176-0.036l-0.15-0.088l-0.098-0.133l-0.025-0.15l0.025-0.158l0.098-0.134l0.15-0.097l0.176-0.026
		l0.186,0.026l0.15,0.097l0.098,0.134L41.311,25.402z"/>
	<polygon fill="#ED1C24" points="24.945,16.372 24.98,16.036 25.043,15.726 25.148,15.453 25.299,15.222 25.467,15.019 
		25.652,14.842 25.838,14.71 26.041,14.595 26.217,14.499 26.35,14.4 26.438,14.294 26.49,14.188 26.49,14.074 26.475,13.967 
		26.412,13.871 26.332,13.773 26.217,13.693 26.094,13.649 25.953,13.632 25.793,13.659 25.635,13.703 25.494,13.783 25.387,13.879 
		25.299,14.003 24.98,13.755 25.123,13.58 25.307,13.437 25.512,13.332 25.758,13.261 25.998,13.234 26.227,13.269 26.43,13.349 
		26.605,13.491 26.748,13.667 26.836,13.853 26.871,14.056 26.846,14.259 26.783,14.462 26.668,14.63 26.518,14.763 26.332,14.87 
		26.129,14.975 25.936,15.107 25.768,15.275 25.607,15.461 25.484,15.691 25.387,15.957 26.871,15.957 26.871,16.372 	"/>
	<polygon fill="none" stroke="#FFFFFF" stroke-width="0.037" points="24.945,16.372 24.98,16.036 25.043,15.726 25.148,15.453 
		25.299,15.222 25.467,15.019 25.652,14.842 25.838,14.71 26.041,14.595 26.217,14.499 26.35,14.4 26.438,14.294 26.49,14.188 
		26.49,14.074 26.475,13.967 26.412,13.871 26.332,13.773 26.217,13.693 26.094,13.649 25.953,13.632 25.793,13.659 25.635,13.703 
		25.494,13.783 25.387,13.879 25.299,14.003 24.98,13.755 25.123,13.58 25.307,13.437 25.512,13.332 25.758,13.261 25.998,13.234 
		26.227,13.269 26.43,13.349 26.605,13.491 26.748,13.667 26.836,13.853 26.871,14.056 26.846,14.259 26.783,14.462 26.668,14.63 
		26.518,14.763 26.332,14.87 26.129,14.975 25.936,15.107 25.768,15.275 25.607,15.461 25.484,15.691 25.387,15.957 26.871,15.957 
		26.871,16.372 	"/>
	<polygon fill="#ED1C24" points="24.168,13.278 24.115,13.367 24.025,13.463 23.895,13.536 23.727,13.57 23.727,13.905 
		24.105,13.871 24.105,16.372 24.521,16.372 24.521,13.278 	"/>
	<polygon fill="none" stroke="#FFFFFF" stroke-width="0.037" points="23.727,13.57 23.895,13.535 24.025,13.464 24.115,13.367 
		24.168,13.278 24.521,13.278 24.521,16.371 24.105,16.371 24.105,13.87 23.727,13.906 	"/>
	<path fill="#ED1C24" d="M20.871,16.062l-0.115,0.149l-0.141,0.115l-0.168,0.063l-0.193,0.018l-0.186-0.018l-0.178-0.054
		l-0.141-0.097l-0.115-0.133l-0.098-0.177l-0.07-0.203l-0.035-0.229l-0.018-0.273l0.018-0.267l0.035-0.229l0.063-0.203l0.096-0.16
		l0.105-0.132l0.135-0.097l0.148-0.054l0.178-0.018l0.168,0.018l0.15,0.054l0.131,0.097l0.115,0.124l0.09,0.176l0.061,0.221
		l0.045,0.283l0.018,0.327h-1.104l0.008,0.15l0.025,0.133l0.035,0.115l0.045,0.079l0.123,0.114l0.143,0.035l0.15-0.035l0.15-0.124
		L20.871,16.062z M20.5,14.984l-0.027-0.221l-0.068-0.15l-0.098-0.097l-0.125-0.027l-0.113,0.027l-0.098,0.097l-0.072,0.159
		l-0.025,0.212H20.5z"/>
	<path fill="none" stroke="#FFFFFF" stroke-width="0.037" d="M20.871,16.062l-0.115,0.149l-0.141,0.115l-0.168,0.063l-0.193,0.018
		l-0.186-0.018l-0.178-0.054l-0.141-0.097l-0.115-0.133l-0.098-0.177l-0.07-0.203l-0.035-0.229l-0.018-0.273l0.018-0.267
		l0.035-0.229l0.063-0.203l0.096-0.16l0.105-0.132l0.135-0.097l0.148-0.054l0.178-0.018l0.168,0.018l0.15,0.054l0.131,0.097
		l0.115,0.124l0.09,0.176l0.061,0.221l0.045,0.283l0.018,0.327h-1.104l0.008,0.15l0.025,0.133l0.035,0.115l0.045,0.079l0.123,0.114
		l0.143,0.035l0.15-0.035l0.15-0.124L20.871,16.062z M20.5,14.984l-0.027-0.221l-0.068-0.15l-0.098-0.097l-0.125-0.027l-0.113,0.027
		l-0.098,0.097l-0.072,0.159l-0.025,0.212H20.5z"/>
	<polygon fill="#ED1C24" points="18.459,15.612 18.432,15.567 18.354,15.514 18.248,15.444 18.098,15.365 17.938,15.275 
		17.805,15.197 17.709,15.117 17.637,15.045 17.541,14.886 17.514,14.674 17.531,14.559 17.566,14.454 17.621,14.356 17.709,14.259 
		17.814,14.171 17.93,14.109 18.07,14.074 18.229,14.064 18.396,14.083 18.574,14.126 18.742,14.215 18.918,14.322 18.697,14.683 
		18.574,14.604 18.469,14.534 18.361,14.499 18.273,14.49 18.123,14.506 18.035,14.559 17.99,14.63 17.973,14.702 17.99,14.781 
		18.025,14.833 18.07,14.87 18.16,14.922 18.281,14.993 18.441,15.082 18.6,15.178 18.725,15.266 18.82,15.346 18.875,15.417 
		18.936,15.577 18.955,15.77 18.936,15.885 18.9,15.992 18.83,16.097 18.742,16.204 18.627,16.292 18.486,16.353 18.326,16.389 
		18.15,16.407 17.965,16.389 17.779,16.328 17.602,16.239 17.434,16.106 17.646,15.736 17.789,15.841 17.92,15.92 18.045,15.964 
		18.16,15.982 18.344,15.957 18.441,15.885 18.477,15.797 18.494,15.736 	"/>
	<polygon fill="none" stroke="#FFFFFF" stroke-width="0.037" points="18.459,15.612 18.432,15.567 18.354,15.514 18.248,15.444 
		18.098,15.365 17.938,15.275 17.805,15.197 17.709,15.117 17.637,15.045 17.541,14.886 17.514,14.674 17.531,14.559 17.566,14.454 
		17.621,14.356 17.709,14.259 17.814,14.171 17.93,14.109 18.07,14.074 18.229,14.064 18.396,14.083 18.574,14.126 18.742,14.215 
		18.918,14.322 18.697,14.683 18.574,14.604 18.469,14.534 18.361,14.499 18.273,14.49 18.123,14.506 18.035,14.559 17.99,14.63 
		17.973,14.702 17.99,14.781 18.025,14.833 18.07,14.87 18.16,14.922 18.281,14.993 18.441,15.082 18.6,15.178 18.725,15.266 
		18.82,15.346 18.875,15.417 18.936,15.577 18.955,15.77 18.936,15.885 18.9,15.992 18.83,16.097 18.742,16.204 18.627,16.292 
		18.486,16.353 18.326,16.389 18.15,16.407 17.965,16.389 17.779,16.328 17.602,16.239 17.434,16.106 17.646,15.736 17.789,15.841 
		17.92,15.92 18.045,15.964 18.16,15.982 18.344,15.957 18.441,15.885 18.477,15.797 18.494,15.736 	"/>
	<polygon fill="#ED1C24" points="16.012,15.992 16.145,15.964 16.25,15.885 16.33,15.77 16.355,15.665 16.355,14.091 16.797,14.091 
		16.797,16.372 16.365,16.372 16.355,16.265 16.135,16.372 15.879,16.407 15.746,16.389 15.631,16.353 15.516,16.292 15.42,16.194 
		15.34,16.08 15.287,15.957 15.252,15.814 15.242,15.665 15.242,14.091 15.684,14.091 15.684,15.629 15.711,15.779 15.773,15.894 
		15.879,15.964 	"/>
	<polygon fill="none" stroke="#FFFFFF" stroke-width="0.037" points="16.012,15.992 16.145,15.964 16.25,15.885 16.33,15.77 
		16.355,15.665 16.355,14.091 16.797,14.091 16.797,16.372 16.365,16.372 16.355,16.265 16.135,16.372 15.879,16.407 15.746,16.389 
		15.631,16.353 15.516,16.292 15.42,16.194 15.34,16.08 15.287,15.957 15.252,15.814 15.242,15.665 15.242,14.091 15.684,14.091 
		15.684,15.629 15.711,15.779 15.773,15.894 15.879,15.964 	"/>
	<path fill="#ED1C24" d="M14.447,16.062l-0.115,0.149l-0.141,0.115l-0.16,0.063l-0.193,0.018l-0.195-0.018l-0.168-0.054
		l-0.148-0.097l-0.115-0.133l-0.098-0.177l-0.063-0.203l-0.043-0.229l-0.02-0.273l0.02-0.267l0.035-0.229l0.07-0.203l0.088-0.16
		l0.115-0.132l0.133-0.097l0.15-0.054l0.168-0.018l0.168,0.018l0.15,0.054l0.131,0.097l0.115,0.124l0.09,0.176l0.068,0.221
		l0.037,0.283l0.018,0.327h-1.096l0.008,0.15l0.018,0.133l0.035,0.115l0.055,0.079l0.123,0.114l0.133,0.035l0.15-0.035l0.15-0.124
		L14.447,16.062z M14.076,14.984l-0.027-0.221l-0.061-0.15l-0.105-0.097l-0.115-0.027l-0.115,0.027l-0.105,0.097l-0.072,0.159
		l-0.018,0.212H14.076z"/>
	<path fill="none" stroke="#FFFFFF" stroke-width="0.037" d="M14.447,16.062l-0.115,0.149l-0.141,0.115l-0.16,0.063l-0.193,0.018
		l-0.195-0.018l-0.168-0.054l-0.148-0.097l-0.115-0.133l-0.098-0.177l-0.063-0.203l-0.043-0.229l-0.02-0.273l0.02-0.267l0.035-0.229
		l0.07-0.203l0.088-0.16l0.115-0.132l0.133-0.097l0.15-0.054l0.168-0.018l0.168,0.018l0.15,0.054l0.131,0.097l0.115,0.124
		l0.09,0.176l0.068,0.221l0.037,0.283l0.018,0.327h-1.096l0.008,0.15l0.018,0.133l0.035,0.115l0.055,0.079l0.123,0.114l0.133,0.035
		l0.15-0.035l0.15-0.124L14.447,16.062z M14.076,14.984l-0.027-0.221l-0.061-0.15l-0.105-0.097l-0.115-0.027l-0.115,0.027
		l-0.105,0.097l-0.072,0.159l-0.018,0.212H14.076z"/>
	<path fill="#ED1C24" d="M12.398,16.371h-0.471l-0.529-1.28h-0.557v1.28h-0.416v-3.092h0.885l0.273,0.017l0.238,0.054l0.195,0.097
		l0.15,0.133l0.115,0.159l0.078,0.177l0.037,0.194l-0.01,0.212l-0.053,0.204l-0.105,0.194l-0.168,0.168l-0.223,0.149L12.398,16.371z
		 M11.947,14.012l-0.098-0.159l-0.15-0.115l-0.176-0.035h-0.682v0.989h0.682l0.176-0.035l0.15-0.115l0.098-0.158l0.035-0.186
		L11.947,14.012z"/>
	<path fill="none" stroke="#FFFFFF" stroke-width="0.037" d="M12.398,16.371h-0.471l-0.529-1.28h-0.557v1.28h-0.416v-3.092h0.885
		l0.273,0.017l0.238,0.054l0.195,0.097l0.15,0.133l0.115,0.159l0.078,0.177l0.037,0.194l-0.01,0.212l-0.053,0.204l-0.105,0.194
		l-0.168,0.168l-0.223,0.149L12.398,16.371z M11.947,14.012l-0.098-0.159l-0.15-0.115l-0.176-0.035h-0.682v0.989h0.682l0.176-0.035
		l0.15-0.115l0.098-0.158l0.035-0.186L11.947,14.012z"/>
	<polygon fill="#ED1C24" points="13.793,11.016 13.758,10.981 13.688,10.919 13.572,10.848 13.422,10.768 13.264,10.68 
		13.131,10.601 13.033,10.521 12.963,10.451 12.875,10.292 12.84,10.088 12.857,9.973 12.893,9.858 12.945,9.761 13.033,9.665 
		13.139,9.577 13.264,9.523 13.395,9.488 13.555,9.47 13.723,9.488 13.9,9.541 14.068,9.621 14.244,9.726 14.023,10.088 
		13.908,10.009 13.793,9.948 13.688,9.912 13.6,9.894 13.449,9.912 13.361,9.964 13.316,10.036 13.299,10.116 13.316,10.185 
		13.352,10.239 13.404,10.274 13.484,10.328 13.607,10.397 13.766,10.487 13.926,10.583 14.049,10.671 14.146,10.751 14.199,10.823 
		14.262,10.981 14.279,11.184 14.262,11.291 14.227,11.396 14.156,11.502 14.068,11.608 13.943,11.697 13.811,11.758 13.652,11.802 
		13.475,11.811 13.289,11.794 13.105,11.742 12.928,11.643 12.76,11.511 12.971,11.14 13.113,11.247 13.246,11.326 13.369,11.37 
		13.494,11.387 13.678,11.362 13.766,11.291 13.803,11.21 13.82,11.148 	"/>
	<polygon fill="none" stroke="#FFFFFF" stroke-width="0.037" points="13.793,11.016 13.758,10.981 13.688,10.919 13.572,10.848 
		13.422,10.768 13.264,10.68 13.131,10.601 13.033,10.521 12.963,10.451 12.875,10.292 12.84,10.088 12.857,9.973 12.893,9.858 
		12.945,9.761 13.033,9.665 13.139,9.577 13.264,9.523 13.395,9.488 13.555,9.47 13.723,9.488 13.9,9.541 14.068,9.621 
		14.244,9.726 14.023,10.088 13.908,10.009 13.793,9.948 13.688,9.912 13.6,9.894 13.449,9.912 13.361,9.964 13.316,10.036 
		13.299,10.116 13.316,10.185 13.352,10.239 13.404,10.274 13.484,10.328 13.607,10.397 13.766,10.487 13.926,10.583 14.049,10.671 
		14.146,10.751 14.199,10.823 14.262,10.981 14.279,11.184 14.262,11.291 14.227,11.396 14.156,11.502 14.068,11.608 13.943,11.697 
		13.811,11.758 13.652,11.802 13.475,11.811 13.289,11.794 13.105,11.742 12.928,11.643 12.76,11.511 12.971,11.14 13.113,11.247 
		13.246,11.326 13.369,11.37 13.494,11.387 13.678,11.362 13.766,11.291 13.803,11.21 13.82,11.148 	"/>
	<path fill="#ED1C24" d="M16.047,10.61v0.177l-0.027,0.15l-0.025,0.132l-0.045,0.106l-0.053,0.08l-0.063,0.061l-0.078,0.036
		l-0.09,0.009l-0.158-0.035l-0.098-0.106v-1.184l0.098-0.088l0.143-0.036l0.148,0.036l0.125,0.114l0.053,0.098l0.035,0.124
		l0.025,0.149L16.047,10.61z M15.41,8.639l-0.451,0.159v2.978h0.451v-0.062l0.221,0.088l0.256-0.008l0.125-0.036l0.115-0.07
		l0.105-0.098l0.088-0.123l0.08-0.159l0.053-0.195l0.035-0.229l0.01-0.256l-0.018-0.266l-0.035-0.221l-0.063-0.203l-0.088-0.159
		l-0.105-0.133l-0.107-0.097l-0.123-0.053L15.826,9.47l-0.238,0.017L15.41,9.558V8.639z"/>
	<path fill="none" stroke="#FFFFFF" stroke-width="0.037" d="M16.047,10.61v0.177l-0.027,0.15l-0.025,0.132l-0.045,0.106
		l-0.053,0.08l-0.063,0.061l-0.078,0.036l-0.09,0.009l-0.158-0.035l-0.098-0.106v-1.184l0.098-0.088l0.143-0.036l0.148,0.036
		l0.125,0.114l0.053,0.098l0.035,0.124l0.025,0.149L16.047,10.61z M15.41,8.639l-0.451,0.159v2.978h0.451v-0.062l0.221,0.088
		l0.256-0.008l0.125-0.036l0.115-0.07l0.105-0.098l0.088-0.123l0.08-0.159l0.053-0.195l0.035-0.229l0.01-0.256l-0.018-0.266
		l-0.035-0.221l-0.063-0.203l-0.088-0.159l-0.105-0.133l-0.107-0.097l-0.123-0.053L15.826,9.47l-0.238,0.017L15.41,9.558V8.639z"/>
	<path fill="#ED1C24" d="M18.406,11.466l-0.105,0.151l-0.143,0.114l-0.168,0.062l-0.193,0.027l-0.186-0.019l-0.168-0.062
		l-0.15-0.097l-0.115-0.134l-0.098-0.167l-0.07-0.213l-0.035-0.229l-0.018-0.266l0.018-0.273l0.035-0.23l0.063-0.193l0.096-0.168
		l0.107-0.134l0.133-0.088l0.15-0.053l0.176-0.027l0.168,0.019l0.15,0.062l0.133,0.088l0.115,0.134l0.088,0.168l0.061,0.229
		l0.045,0.274l0.018,0.327h-1.104l0.008,0.158l0.027,0.134l0.035,0.105l0.045,0.088l0.123,0.106l0.141,0.036l0.15-0.036l0.15-0.123
		L18.406,11.466z M18.043,10.398l-0.025-0.23l-0.07-0.149L17.85,9.92l-0.123-0.026L17.611,9.92l-0.098,0.098l-0.07,0.158
		l-0.027,0.222H18.043z"/>
	<path fill="none" stroke="#FFFFFF" stroke-width="0.037" d="M18.406,11.466l-0.105,0.151l-0.143,0.114l-0.168,0.062l-0.193,0.027
		l-0.186-0.019l-0.168-0.062l-0.15-0.097l-0.115-0.134l-0.098-0.167l-0.07-0.213l-0.035-0.229l-0.018-0.266l0.018-0.273l0.035-0.23
		l0.063-0.193l0.096-0.168l0.107-0.134l0.133-0.088l0.15-0.053l0.176-0.027l0.168,0.019l0.15,0.062l0.133,0.088l0.115,0.134
		l0.088,0.168l0.061,0.229l0.045,0.274l0.018,0.327h-1.104l0.008,0.158l0.027,0.134l0.035,0.105l0.045,0.088l0.123,0.106
		l0.141,0.036l0.15-0.036l0.15-0.123L18.406,11.466z M18.043,10.398l-0.025-0.23l-0.07-0.149L17.85,9.92l-0.123-0.026L17.611,9.92
		l-0.098,0.098l-0.07,0.158l-0.027,0.222H18.043z"/>
	<path fill="#ED1C24" d="M20.438,11.466l-0.105,0.151l-0.141,0.114l-0.168,0.062l-0.186,0.027l-0.195-0.019l-0.168-0.062
		l-0.148-0.097l-0.125-0.134l-0.088-0.167l-0.07-0.213l-0.035-0.229l-0.018-0.266l0.018-0.273l0.035-0.23l0.061-0.193l0.098-0.168
		l0.105-0.134l0.133-0.088l0.15-0.053l0.178-0.027l0.168,0.019l0.15,0.062l0.131,0.088l0.115,0.134l0.09,0.168l0.061,0.229
		l0.045,0.274l0.008,0.327h-1.096l0.01,0.158l0.025,0.134l0.035,0.105l0.045,0.088l0.123,0.106l0.143,0.036l0.15-0.036l0.15-0.123
		L20.438,11.466z M20.076,10.398l-0.027-0.23l-0.07-0.149L19.883,9.92l-0.125-0.026L19.643,9.92l-0.105,0.098l-0.063,0.158
		l-0.025,0.222H20.076z"/>
	<path fill="none" stroke="#FFFFFF" stroke-width="0.037" d="M20.438,11.466l-0.105,0.151l-0.141,0.114l-0.168,0.062l-0.186,0.027
		l-0.195-0.019l-0.168-0.062l-0.148-0.097l-0.125-0.134l-0.088-0.167l-0.07-0.213l-0.035-0.229l-0.018-0.266l0.018-0.273l0.035-0.23
		l0.061-0.193l0.098-0.168l0.105-0.134l0.133-0.088l0.15-0.053l0.178-0.027l0.168,0.019l0.15,0.062l0.131,0.088l0.115,0.134
		l0.09,0.168l0.061,0.229l0.045,0.274l0.008,0.327h-1.096l0.01,0.158l0.025,0.134l0.035,0.105l0.045,0.088l0.123,0.106l0.143,0.036
		l0.15-0.036l0.15-0.123L20.438,11.466z M20.076,10.398l-0.027-0.23l-0.07-0.149L19.883,9.92l-0.125-0.026L19.643,9.92l-0.105,0.098
		l-0.063,0.158l-0.025,0.222H20.076z"/>
	<polygon fill="#ED1C24" points="24.945,11.776 24.98,11.44 25.043,11.131 25.148,10.867 25.299,10.627 25.467,10.424 
		25.643,10.256 25.838,10.116 26.031,10.009 26.217,9.912 26.35,9.805 26.438,9.7 26.49,9.593 26.49,9.478 26.475,9.373 
		26.412,9.275 26.332,9.178 26.217,9.099 26.094,9.054 25.953,9.046 25.793,9.063 25.635,9.107 25.494,9.187 25.387,9.285 
		25.299,9.409 24.98,9.161 25.123,8.984 25.307,8.842 25.512,8.736 25.758,8.667 25.998,8.648 26.227,8.674 26.43,8.763 
		26.605,8.904 26.748,9.073 26.836,9.266 26.871,9.461 26.846,9.665 26.773,9.868 26.668,10.036 26.518,10.168 26.332,10.274 
		26.129,10.38 25.936,10.512 25.768,10.68 25.607,10.867 25.484,11.096 25.387,11.371 26.871,11.371 26.871,11.776 	"/>
	<polygon fill="none" stroke="#FFFFFF" stroke-width="0.037" points="24.945,11.776 24.98,11.44 25.043,11.131 25.148,10.867 
		25.299,10.627 25.467,10.424 25.643,10.256 25.838,10.116 26.031,10.009 26.217,9.912 26.35,9.805 26.438,9.7 26.49,9.593 
		26.49,9.478 26.475,9.373 26.412,9.275 26.332,9.178 26.217,9.099 26.094,9.054 25.953,9.046 25.793,9.063 25.635,9.107 
		25.494,9.187 25.387,9.285 25.299,9.409 24.98,9.161 25.123,8.984 25.307,8.842 25.512,8.736 25.758,8.667 25.998,8.648 
		26.227,8.674 26.43,8.763 26.605,8.904 26.748,9.073 26.836,9.266 26.871,9.461 26.846,9.665 26.773,9.868 26.668,10.036 
		26.518,10.168 26.332,10.274 26.129,10.38 25.936,10.512 25.768,10.68 25.607,10.867 25.484,11.096 25.387,11.371 26.871,11.371 
		26.871,11.776 	"/>
	<path fill="#ED1C24" d="M40.887,15.453l0.018,0.025l0.027,0.019l0.025,0.009h0.035l0.027-0.019l0.018-0.025l0.008-0.036V15.39
		l-0.229-0.627l0.15-0.018l0.133,0.009l0.123,0.044l0.221,0.141l0.15,0.222l0.035,0.133l0.01,0.132l-0.01,0.133l-0.035,0.124
		l-0.15,0.221l-0.221,0.142L41.1,16.088l-0.133,0.009l-0.133-0.009l-0.133-0.044l-0.213-0.142l-0.148-0.221l-0.037-0.124
		l-0.018-0.133l0.018-0.132l0.037-0.133l0.148-0.212l0.168-0.124L40.887,15.453z M38.959,15.505l-0.053,0.177l-0.141,0.221
		l-0.221,0.142l-0.123,0.044l-0.135,0.009l-0.131-0.009l-0.133-0.044l-0.221-0.142l-0.143-0.221l-0.035-0.124l-0.018-0.133
		l0.018-0.132l0.035-0.133l0.143-0.222l0.221-0.141l0.133-0.044l0.131-0.009L38.5,14.78l-0.291,0.61l-0.01,0.027l0.01,0.035
		l0.018,0.025l0.025,0.019l0.027,0.009H38.959z M38.422,15.337l0.229-0.486l0.115,0.098l0.141,0.212l0.053,0.177H38.422z
		 M39.127,15.337l-0.061-0.238l-0.08-0.15l-0.105-0.124l-0.15-0.123l0.168-0.354l0.469,0.99H39.127z M40.445,14.242l-0.92,1.033
		l-0.494-1.033H40.445z M39.508,15.505l0.035-0.009l0.027-0.019l0.938-1.06l0.088,0.248l-0.23,0.158l-0.105,0.124l-0.08,0.15
		l-0.045,0.159l-0.018,0.167l0.018,0.16l0.045,0.159l0.08,0.149l0.105,0.124l0.133,0.106l0.141,0.079l0.16,0.053l0.168,0.009
		l0.158-0.009l0.158-0.053l0.15-0.079l0.125-0.106l0.105-0.124l0.08-0.142l0.053-0.159l0.018-0.168l-0.018-0.167l-0.053-0.159
		l-0.08-0.15l-0.105-0.124l-0.125-0.105l-0.15-0.08l-0.158-0.044l-0.158-0.018l-0.213,0.026l-0.318-0.875l-0.053-0.089l-0.08-0.053
		l-0.07-0.026h-0.035h-0.063h-0.098h-0.141v0.168h0.141h0.09h0.061h0.027l0.018,0.009l0.027,0.018l0.018,0.027l0.105,0.291h-1.432
		l-0.08-0.167h0.248l0.035-0.01l0.027-0.018l0.018-0.035l0.008-0.027l-0.008-0.034l-0.018-0.027l-0.027-0.018l-0.035-0.009h-0.654
		v0.178h0.213l0.123,0.246l-0.23,0.478l-0.141-0.044l-0.143-0.009l-0.166,0.018l-0.16,0.044l-0.141,0.08l-0.133,0.105l-0.105,0.124
		l-0.08,0.15l-0.045,0.159l-0.018,0.167l0.018,0.16l0.045,0.159l0.08,0.149l0.105,0.124l0.133,0.106l0.141,0.079l0.16,0.053
		l0.166,0.009l0.16-0.009l0.16-0.053l0.15-0.079l0.123-0.106l0.105-0.124l0.08-0.149l0.061-0.239H39.508z"/>
	<path fill="#ED1C24" d="M11.584,26.18l0.168,0.123l0.15,0.212l0.035,0.133l0.018,0.132l-0.018,0.134l-0.035,0.124l-0.15,0.221
		l-0.211,0.141l-0.133,0.044l-0.133,0.01l-0.133-0.01l-0.123-0.044l-0.221-0.141l-0.15-0.221l-0.037-0.124l-0.008-0.134l0.008-0.132
		l0.037-0.133l0.15-0.22l0.221-0.143l0.123-0.044l0.133-0.009l0.15,0.019l-0.23,0.627v0.034l0.008,0.036l0.02,0.026l0.025,0.018
		h0.035l0.027-0.009l0.027-0.018l0.018-0.026L11.584,26.18z M12.875,26.692l0.469-0.989l0.168,0.354l-0.152,0.124l-0.105,0.123
		l-0.078,0.15l-0.063,0.238H12.875z M13.211,25.596l-0.496,1.034l-0.918-1.034H13.211z M13.281,26.692l0.053-0.177l0.141-0.212
		l0.115-0.097l0.23,0.485H13.281z M13.961,26.86l0.027-0.009l0.025-0.018l0.018-0.026l0.01-0.035l-0.01-0.026l-0.291-0.609
		l0.211-0.036l0.135,0.009l0.133,0.044l0.219,0.143l0.143,0.22l0.035,0.133l0.018,0.132l-0.018,0.134l-0.035,0.124l-0.143,0.221
		l-0.219,0.141l-0.133,0.044l-0.135,0.01l-0.131-0.01l-0.125-0.044l-0.221-0.141l-0.141-0.221l-0.053-0.178H13.961z M13.113,26.86
		l0.063,0.239l0.078,0.15l0.105,0.124l0.125,0.105l0.15,0.079l0.158,0.053l0.158,0.01l0.168-0.01l0.16-0.053l0.143-0.079
		l0.131-0.105l0.107-0.124l0.078-0.15l0.045-0.16l0.018-0.159l-0.018-0.168l-0.045-0.158l-0.078-0.15l-0.107-0.123l-0.131-0.105
		l-0.143-0.08l-0.16-0.044l-0.168-0.019l-0.141,0.009l-0.141,0.044l-0.23-0.477l0.125-0.256h0.211v-0.168h-0.652l-0.037,0.009
		l-0.025,0.017l-0.018,0.027l-0.01,0.035l0.01,0.027l0.018,0.034l0.025,0.019h0.037h0.246l-0.078,0.176h-1.434l0.107-0.291
		l0.018-0.027l0.025-0.017l0.018-0.009h0.027h0.061h0.09h0.141v-0.168h-0.141h-0.098h-0.061h-0.037l-0.07,0.025l-0.08,0.055
		l-0.053,0.088l-0.318,0.875l-0.211-0.027l-0.16,0.019l-0.158,0.044l-0.15,0.08l-0.123,0.105l-0.107,0.123l-0.078,0.15l-0.055,0.158
		l-0.016,0.168l0.016,0.159l0.055,0.16l0.078,0.15l0.107,0.124l0.123,0.105l0.15,0.079l0.158,0.053l0.16,0.01l0.168-0.01
		l0.158-0.053l0.141-0.079l0.135-0.105l0.105-0.124l0.078-0.15l0.045-0.16l0.018-0.159l-0.018-0.168l-0.045-0.158l-0.078-0.15
		l-0.105-0.123l-0.23-0.159l0.088-0.248l0.938,1.061l0.025,0.018l0.035,0.009H13.113z"/>
	<path fill="#ED1C24" d="M8.367,20.498l0.027-0.309l0.088-0.283l0.143-0.265l0.193-0.239l0.238-0.194l0.266-0.141l0.283-0.089
		l0.309-0.026h32.412l0.311,0.026l0.281,0.089l0.266,0.141l0.238,0.194l0.195,0.239l0.141,0.265l0.088,0.283l0.027,0.309v7.645
		l-0.027,0.309l-0.088,0.283l-0.141,0.265l-0.195,0.239l-0.238,0.194l-0.266,0.141l-0.281,0.089l-0.311,0.026H9.914l-0.309-0.026
		l-0.283-0.089l-0.266-0.141l-0.238-0.194l-0.193-0.239l-0.143-0.265l-0.088-0.283l-0.027-0.309V20.498z M8.881,28.132l0.018,0.213
		l0.063,0.186l0.088,0.176l0.131,0.16l0.168,0.132l0.168,0.098l0.195,0.053l0.203,0.026h32.412l0.205-0.026l0.193-0.053l0.168-0.098
		l0.168-0.132l0.131-0.16l0.09-0.176l0.063-0.186l0.016-0.203v-7.645l-0.016-0.203l-0.063-0.186l-0.09-0.176l-0.131-0.159
		l-0.168-0.133l-0.168-0.098l-0.193-0.053l-0.205-0.027H9.914l-0.203,0.027l-0.195,0.053l-0.168,0.098l-0.158,0.133l-0.141,0.159
		l-0.088,0.176l-0.063,0.186l-0.018,0.203V28.132z"/>
	<polygon fill="#ED1C24" points="40.162,12.749 40.082,11.06 41.258,11.343 41.336,11.343 41.398,11.316 41.451,11.263 
		41.479,11.193 41.486,11.123 41.451,11.06 39.773,8.622 39.746,8.595 39.721,8.568 39.686,8.551 39.648,8.542 39.613,8.542 
		39.578,8.542 39.543,8.551 39.518,8.568 39.482,8.595 39.463,8.622 37.775,11.06 37.75,11.123 37.75,11.193 37.775,11.263 
		37.828,11.316 37.9,11.343 37.971,11.343 39.146,11.06 39.074,12.749 	"/>
	<path fill="#ED1C24" d="M8.881,9.142L8.898,8.94l0.061-0.186l0.088-0.177l0.143-0.159l0.16-0.133l0.168-0.097l0.193-0.054
		L9.914,8.11h32.412l0.203,0.025l0.195,0.054l0.168,0.097l0.168,0.133l0.133,0.159l0.088,0.177l0.063,0.186l0.018,0.202v7.645
		l-0.018,0.203l-0.063,0.186l-0.088,0.178l-0.133,0.158l-0.168,0.133l-0.168,0.097l-0.195,0.053l-0.203,0.027H9.914l-0.203-0.027
		l-0.193-0.053L9.35,17.644l-0.168-0.133l-0.135-0.158l-0.088-0.178L8.898,16.99l-0.018-0.212V9.142z M8.367,16.787l0.027,0.309
		l0.088,0.283l0.141,0.266l0.195,0.238l0.238,0.194l0.266,0.142l0.283,0.088l0.309,0.026h32.412l0.311-0.026l0.281-0.088
		l0.266-0.142l0.238-0.194l0.195-0.238l0.143-0.266l0.088-0.283l0.025-0.309V9.142l-0.025-0.309L43.76,8.55l-0.143-0.265
		l-0.195-0.238l-0.238-0.194l-0.266-0.142l-0.281-0.088l-0.311-0.027H9.914L9.605,7.624L9.322,7.711L9.057,7.853L8.818,8.047
		L8.623,8.286L8.482,8.55L8.395,8.833L8.367,9.142V16.787z"/>
	<polygon fill="#ED1C24" points="14.73,22.54 13.043,22.46 13.316,23.644 13.324,23.714 13.299,23.776 13.244,23.829 13.176,23.865 
		13.104,23.865 13.033,23.838 10.604,22.15 10.576,22.133 10.551,22.106 10.533,22.071 10.523,22.035 10.516,22 10.523,21.965 
		10.533,21.921 10.551,21.894 10.576,21.868 10.604,21.841 13.033,20.153 13.104,20.127 13.176,20.127 13.244,20.162 13.299,20.215 
		13.324,20.277 13.316,20.348 13.043,21.532 14.73,21.452 	"/>
	<polygon fill="#ED1C24" points="21.234,11.776 21.234,8.798 21.686,8.639 21.686,10.238 22.25,9.497 22.799,9.497 22.26,10.221 
		22.799,11.776 22.33,11.776 21.932,10.654 21.686,10.981 21.686,11.776 	"/>
	<polygon fill="none" stroke="#FFFFFF" stroke-width="0.037" points="21.234,11.776 21.234,8.798 21.686,8.639 21.686,10.238 
		22.25,9.497 22.799,9.497 22.26,10.221 22.799,11.776 22.33,11.776 21.932,10.654 21.686,10.981 21.686,11.776 	"/>
	<polygon fill="#ED1C24" points="10.428,11.776 10.428,8.683 12.178,8.683 12.178,9.09 10.842,9.09 10.842,9.929 11.619,9.938 
		11.619,10.344 10.842,10.344 10.842,11.352 12.221,11.352 12.221,11.776 	"/>
	<polygon fill="none" stroke="#FFFFFF" stroke-width="0.037" points="10.428,11.776 10.428,8.683 12.178,8.683 12.178,9.09 
		10.842,9.09 10.842,9.929 11.619,9.938 11.619,10.344 10.842,10.344 10.842,11.352 12.221,11.352 12.221,11.776 	"/>
	<polygon fill="#ED1C24" points="21.658,13.393 21.658,16.372 22.109,16.372 22.109,13.235 	"/>
	<polygon fill="none" stroke="#FFFFFF" stroke-width="0.037" points="21.658,16.372 21.658,13.393 22.109,13.234 22.109,16.372 	"/>
	<polygon fill="#ED1C24" points="27.959,24.748 27.959,27.726 28.408,27.726 28.408,24.59 	"/>
	<polygon fill="none" stroke="#FFFFFF" stroke-width="0.037" points="27.959,27.726 27.959,24.749 28.41,24.589 28.41,27.726 	"/>
	<polygon fill="#ED1C24" points="17.08,27.726 17.08,24.633 17.469,24.633 18.203,26.524 18.91,24.633 19.324,24.633 19.324,27.726 
		18.9,27.726 18.9,25.906 18.203,27.717 17.504,25.906 17.504,27.726 	"/>
	<polygon fill="none" stroke="#FFFFFF" stroke-width="0.037" points="17.08,27.726 17.08,24.633 17.469,24.633 18.203,26.524 
		18.91,24.633 19.324,24.633 19.324,27.726 18.9,27.726 18.9,25.906 18.203,27.717 17.504,25.906 17.504,27.726 	"/>
	<rect fill="none" width="50.314" height="44"/>
</g>
<g id="Layer_8">
</g>
<g id="Layer_7">
</g>
<g id="Layer_6">
</g>
<g id="Layer_5">
</g>
<g id="Layer_4">
</g>
<g id="Layer_3">
</g>
<g id="Layer_2">
</g>
</svg>
