<?xml version="1.0" encoding="utf-8"?>
<!-- Generator: Adobe Illustrator 16.0.0, SVG Export Plug-In . SVG Version: 6.00 Build 0)  -->
<!DOCTYPE svg PUBLIC "-//W3C//DTD SVG 1.1//EN" "http://www.w3.org/Graphics/SVG/1.1/DTD/svg11.dtd">
<svg version="1.1" xmlns="http://www.w3.org/2000/svg" xmlns:xlink="http://www.w3.org/1999/xlink" x="0px" y="0px"
	 width="37.454px" height="49.031px" viewBox="0 0 37.454 49.031" enable-background="new 0 0 37.454 49.031" xml:space="preserve">
<g id="Layer_15">
</g>
<g id="Layer_14">
</g>
<g id="Layer_13">
</g>
<g id="Layer_12">
</g>
<g id="Layer_11">
</g>
<g id="Layer_10">
	<rect x="17.578" y="45.045" fill="#FFDD00" width="19.876" height="3.986"/>
	<polygon fill="#007DC5" points="37.453,2.391 37.453,0 35.075,0 2.378,0 0,0 0,2.391 0,22.529 0,42.667 0,45.045 2.378,45.045 
		35.075,45.045 37.453,45.045 37.453,42.667 	"/>
	<line fill="none" stroke="#000000" stroke-width="0.039" x1="8.141" y1="44.261" x2="16.414" y2="44.261"/>
	<path fill="#FFFFFF" d="M37.061,42.667l-0.039,0.392l-0.118,0.366l-0.182,0.34l-0.249,0.313l-0.3,0.249l-0.34,0.183l-0.379,0.104
		l-0.379,0.039H2.378l-0.379-0.039L1.62,44.51l-0.339-0.183L0.98,44.078l-0.248-0.313l-0.183-0.34l-0.118-0.366l-0.039-0.392V2.391
		l0.039-0.392l0.118-0.366L0.732,1.28l0.248-0.3l0.301-0.249L1.62,0.548l0.379-0.104l0.379-0.039h32.697l0.379,0.039l0.379,0.104
		l0.34,0.183l0.3,0.249l0.249,0.3l0.182,0.353l0.118,0.366l0.039,0.392V42.667z M36.656,40.275H0.797v2.392l0.026,0.314l0.092,0.287
		l0.143,0.288l0.197,0.235l0.248,0.196l0.274,0.144l0.301,0.091l0.3,0.039h32.697l0.3-0.039l0.301-0.091l0.274-0.144l0.249-0.196
		l0.196-0.235l0.143-0.288l0.092-0.287l0.026-0.314V40.275z M36.656,2.391L36.63,2.077l-0.092-0.3l-0.143-0.275l-0.196-0.235
		L35.95,1.071l-0.274-0.157l-0.301-0.078l-0.3-0.039H2.378l-0.3,0.039L1.777,0.914L1.503,1.071L1.255,1.267L1.058,1.502L0.915,1.777
		l-0.092,0.3L0.797,2.391v37.493h35.859V2.391z"/>
	<polygon fill="#FFFFFF" points="4.587,16.831 4.456,16.805 4.352,16.726 4.273,16.609 4.247,16.479 4.247,15.995 4.247,15.563 
		4.247,15.171 4.247,14.832 4.247,14.531 4.247,14.283 4.247,14.087 4.247,13.943 4.247,13.655 4.247,13.303 4.247,12.884 
		4.247,12.414 4.273,12.283 4.352,12.167 4.456,12.087 4.587,12.062 15.812,12.062 15.943,12.087 16.061,12.167 16.139,12.283 
		16.165,12.414 16.165,16.479 16.139,16.609 16.061,16.726 15.943,16.805 15.812,16.831 	"/>
	<polygon fill="none" stroke="#007DC5" stroke-width="0.045" points="4.587,16.831 4.456,16.805 4.352,16.726 4.273,16.609 
		4.247,16.479 4.247,15.995 4.247,15.563 4.247,15.171 4.247,14.832 4.247,14.531 4.247,14.283 4.247,14.087 4.247,13.943 
		4.247,13.655 4.247,13.303 4.247,12.884 4.247,12.414 4.273,12.283 4.352,12.167 4.456,12.087 4.587,12.062 15.812,12.062 
		15.943,12.087 16.061,12.167 16.139,12.283 16.165,12.414 16.165,16.479 16.139,16.609 16.061,16.726 15.943,16.805 15.812,16.831 
			"/>
	<polygon fill="#FFFFFF" points="19.955,28.619 19.824,28.593 19.707,28.515 19.628,28.397 19.602,28.266 19.602,27.783 
		19.602,27.351 19.602,26.959 19.602,26.62 19.602,26.319 19.602,26.071 19.602,25.875 19.602,25.718 19.602,25.443 19.602,25.09 
		19.602,24.672 19.602,24.202 19.628,24.071 19.707,23.954 19.824,23.875 19.955,23.849 31.167,23.849 31.298,23.875 31.416,23.954 
		31.494,24.071 31.52,24.202 31.52,28.266 31.494,28.397 31.416,28.515 31.298,28.593 31.167,28.619 	"/>
	<polygon fill="none" stroke="#007DC5" stroke-width="0.045" points="19.955,28.619 19.824,28.593 19.707,28.515 19.628,28.397 
		19.602,28.266 19.602,27.783 19.602,27.351 19.602,26.959 19.602,26.62 19.602,26.319 19.602,26.071 19.602,25.875 19.602,25.718 
		19.602,25.443 19.602,25.09 19.602,24.672 19.602,24.202 19.628,24.071 19.707,23.954 19.824,23.875 19.955,23.849 31.167,23.849 
		31.298,23.875 31.416,23.954 31.494,24.071 31.52,24.202 31.52,28.266 31.494,28.397 31.416,28.515 31.298,28.593 31.167,28.619 	
		"/>
	<rect x="12.649" y="30.606" fill="#FFFFFF" width="0.445" height="2.652"/>
	<rect x="12.65" y="30.605" fill="none" stroke="#007DC5" stroke-width="0.045" width="0.444" height="2.653"/>
	<polygon fill="#FFFFFF" points="15.629,30.605 15.629,32.239 15.59,32.539 15.499,32.787 15.354,32.983 15.132,33.14 
		14.884,33.245 14.598,33.271 14.31,33.232 14.036,33.088 13.827,32.892 13.708,32.709 13.669,32.604 13.644,32.539 14.048,32.421 
		14.074,32.474 14.101,32.539 14.166,32.645 14.284,32.735 14.44,32.813 14.598,32.84 14.74,32.827 14.884,32.774 15.016,32.683 
		15.12,32.565 15.186,32.408 15.198,32.225 15.198,30.605 	"/>
	<polygon fill="none" stroke="#007DC5" stroke-width="0.045" points="15.629,30.605 15.629,32.239 15.59,32.539 15.499,32.787 
		15.354,32.983 15.132,33.14 14.884,33.245 14.598,33.271 14.31,33.232 14.036,33.088 13.827,32.892 13.708,32.709 13.669,32.604 
		13.644,32.539 14.048,32.421 14.074,32.474 14.101,32.539 14.166,32.645 14.284,32.735 14.44,32.813 14.598,32.84 14.74,32.827 
		14.884,32.774 15.016,32.683 15.12,32.565 15.186,32.408 15.198,32.225 15.198,30.605 	"/>
	<polygon fill="#FFFFFF" points="18.073,31.507 17.877,31.886 17.838,31.86 17.785,31.821 17.681,31.768 17.55,31.729 17.407,31.69 
		17.276,31.677 17.184,31.69 17.119,31.703 17.054,31.729 17.027,31.768 17.001,31.808 17.001,31.86 17.001,31.912 17.027,31.951 
		17.054,31.978 17.106,32.004 17.746,32.213 17.89,32.304 18.008,32.422 18.073,32.566 18.099,32.709 18.073,32.866 18.008,32.997 
		17.89,33.114 17.733,33.206 17.524,33.271 17.289,33.297 17.08,33.271 16.884,33.232 16.688,33.167 16.531,33.101 16.466,33.062 
		16.413,33.036 16.622,32.631 16.675,32.67 16.74,32.709 16.845,32.762 17.001,32.814 17.158,32.84 17.289,32.866 17.393,32.866 
		17.472,32.853 17.537,32.827 17.589,32.788 17.603,32.735 17.616,32.696 17.616,32.644 17.589,32.592 17.537,32.553 17.472,32.526 
		16.91,32.33 16.74,32.252 16.622,32.134 16.544,31.991 16.531,31.821 16.557,31.664 16.622,31.533 16.714,31.416 16.858,31.337 
		17.041,31.272 17.263,31.259 17.485,31.272 17.681,31.311 17.851,31.376 17.968,31.442 18.034,31.481 	"/>
	<polygon fill="none" stroke="#007DC5" stroke-width="0.045" points="18.073,31.507 17.877,31.886 17.838,31.86 17.785,31.821 
		17.681,31.768 17.55,31.729 17.407,31.69 17.276,31.677 17.184,31.69 17.119,31.703 17.054,31.729 17.027,31.768 17.001,31.808 
		17.001,31.86 17.001,31.912 17.027,31.951 17.054,31.978 17.106,32.004 17.746,32.213 17.89,32.304 18.008,32.422 18.073,32.566 
		18.099,32.709 18.073,32.866 18.008,32.997 17.89,33.114 17.733,33.206 17.524,33.271 17.289,33.297 17.08,33.271 16.884,33.232 
		16.688,33.167 16.531,33.101 16.466,33.062 16.413,33.036 16.622,32.631 16.675,32.67 16.74,32.709 16.845,32.762 17.001,32.814 
		17.158,32.84 17.289,32.866 17.393,32.866 17.472,32.853 17.537,32.827 17.589,32.788 17.603,32.735 17.616,32.696 17.616,32.644 
		17.589,32.592 17.537,32.553 17.472,32.526 16.91,32.33 16.74,32.252 16.622,32.134 16.544,31.991 16.531,31.821 16.557,31.664 
		16.622,31.533 16.714,31.416 16.858,31.337 17.041,31.272 17.263,31.259 17.485,31.272 17.681,31.311 17.851,31.376 17.968,31.442 
		18.034,31.481 	"/>
	<polygon fill="#FFFFFF" points="20.321,31.507 20.125,31.886 20.086,31.86 20.02,31.821 19.929,31.768 19.798,31.729 19.655,31.69 
		19.524,31.677 19.432,31.69 19.354,31.703 19.302,31.729 19.262,31.768 19.249,31.808 19.236,31.86 19.249,31.912 19.262,31.951 
		19.302,31.978 19.354,32.004 19.994,32.213 20.138,32.304 20.256,32.422 20.321,32.566 20.347,32.709 20.321,32.866 20.256,32.997 
		20.138,33.114 19.981,33.206 19.759,33.271 19.537,33.297 19.328,33.271 19.132,33.232 18.923,33.167 18.779,33.101 18.714,33.062 
		18.661,33.036 18.87,32.631 18.923,32.67 18.988,32.709 19.093,32.762 19.236,32.814 19.393,32.84 19.537,32.866 19.641,32.866 
		19.72,32.853 19.785,32.827 19.824,32.788 19.85,32.735 19.864,32.696 19.85,32.644 19.824,32.592 19.785,32.553 19.72,32.526 
		19.158,32.33 18.988,32.252 18.87,32.134 18.792,31.991 18.779,31.821 18.805,31.664 18.87,31.533 18.962,31.416 19.093,31.337 
		19.275,31.272 19.498,31.259 19.733,31.272 19.929,31.311 20.086,31.376 20.216,31.442 20.282,31.481 	"/>
	<polygon fill="none" stroke="#007DC5" stroke-width="0.045" points="20.321,31.507 20.125,31.886 20.086,31.86 20.02,31.821 
		19.929,31.768 19.798,31.729 19.655,31.69 19.524,31.677 19.432,31.69 19.354,31.703 19.302,31.729 19.262,31.768 19.249,31.808 
		19.236,31.86 19.249,31.912 19.262,31.951 19.302,31.978 19.354,32.004 19.994,32.213 20.138,32.304 20.256,32.422 20.321,32.566 
		20.347,32.709 20.321,32.866 20.256,32.997 20.138,33.114 19.981,33.206 19.759,33.271 19.537,33.297 19.328,33.271 19.132,33.232 
		18.923,33.167 18.779,33.101 18.714,33.062 18.661,33.036 18.87,32.631 18.923,32.67 18.988,32.709 19.093,32.762 19.236,32.814 
		19.393,32.84 19.537,32.866 19.641,32.866 19.72,32.853 19.785,32.827 19.824,32.788 19.85,32.735 19.864,32.696 19.85,32.644 
		19.824,32.592 19.785,32.553 19.72,32.526 19.158,32.33 18.988,32.252 18.87,32.134 18.792,31.991 18.779,31.821 18.805,31.664 
		18.87,31.533 18.962,31.416 19.093,31.337 19.275,31.272 19.498,31.259 19.733,31.272 19.929,31.311 20.086,31.376 20.216,31.442 
		20.282,31.481 	"/>
	<path fill="#FFFFFF" d="M22.622,32.37h-1.216v0.052l0.013,0.066l0.013,0.091l0.039,0.079l0.053,0.078l0.078,0.065l0.092,0.04
		l0.078,0.026l0.078-0.013l0.092-0.013l0.078-0.04l0.052-0.026l0.04-0.026l0.039-0.026l0.327,0.248l-0.053,0.039l-0.052,0.066
		l-0.118,0.078l-0.156,0.065l-0.17,0.053h-0.183l-0.196-0.027l-0.196-0.091l-0.17-0.13l-0.131-0.183l-0.091-0.262l-0.04-0.314
		l0.027-0.313l0.091-0.262l0.131-0.182l0.17-0.144l0.209-0.092l0.222-0.026l0.222,0.026l0.21,0.079l0.195,0.157l0.144,0.222
		l0.066,0.235l0.013,0.222v0.118V32.37z M22.137,31.964l-0.013-0.039l-0.013-0.052l-0.04-0.066l-0.052-0.052l-0.065-0.052
		l-0.092-0.04l-0.091-0.013l-0.092,0.013l-0.078,0.04l-0.052,0.052l-0.053,0.052l-0.039,0.066l-0.013,0.052l-0.013,0.039
		l-0.013,0.052h0.732L22.137,31.964z"/>
	<path fill="none" stroke="#007DC5" stroke-width="0.045" d="M22.622,32.37h-1.216v0.052l0.013,0.066l0.013,0.091l0.039,0.079
		l0.053,0.078l0.078,0.065l0.092,0.04l0.078,0.026l0.078-0.013l0.092-0.013l0.078-0.04l0.052-0.026l0.04-0.026l0.039-0.026
		l0.327,0.248l-0.053,0.039l-0.052,0.066l-0.118,0.078l-0.156,0.065l-0.17,0.053h-0.183l-0.196-0.027l-0.196-0.091l-0.17-0.13
		l-0.131-0.183l-0.091-0.262l-0.04-0.314l0.027-0.313l0.091-0.262l0.131-0.182l0.17-0.144l0.209-0.092l0.222-0.026l0.222,0.026
		l0.21,0.079l0.195,0.157l0.144,0.222l0.066,0.235l0.013,0.222v0.118V32.37z M22.137,31.964l-0.013-0.039l-0.013-0.052l-0.04-0.066
		l-0.052-0.052l-0.065-0.052l-0.092-0.04l-0.091-0.013l-0.092,0.013l-0.078,0.04l-0.052,0.052l-0.053,0.052l-0.039,0.066
		l-0.013,0.052l-0.013,0.039l-0.013,0.052h0.732L22.137,31.964z"/>
	<polygon fill="#FFFFFF" points="23.457,30.696 23.457,33.257 23.928,33.257 23.928,30.526 	"/>
	<polygon fill="none" stroke="#007DC5" stroke-width="0.045" points="23.928,30.526 23.928,33.258 23.457,33.258 23.457,30.697 	"/>
	<polygon fill="#FFFFFF" points="26.358,31.507 26.162,31.886 26.123,31.86 26.058,31.821 25.953,31.768 25.835,31.729 
		25.692,31.69 25.561,31.677 25.47,31.69 25.391,31.703 25.339,31.729 25.3,31.768 25.287,31.808 25.273,31.86 25.287,31.912 
		25.313,31.951 25.339,31.978 25.391,32.004 26.018,32.213 26.175,32.304 26.293,32.422 26.358,32.566 26.371,32.709 26.358,32.866 
		26.293,32.997 26.175,33.114 26.018,33.206 25.796,33.271 25.574,33.297 25.365,33.271 25.169,33.232 24.96,33.167 24.816,33.101 
		24.751,33.062 24.699,33.036 24.907,32.631 24.96,32.67 25.012,32.709 25.13,32.762 25.273,32.814 25.43,32.84 25.574,32.866 
		25.678,32.866 25.757,32.853 25.822,32.827 25.861,32.788 25.888,32.735 25.901,32.696 25.888,32.644 25.861,32.592 25.822,32.553 
		25.757,32.526 25.195,32.33 25.025,32.252 24.907,32.134 24.829,31.991 24.816,31.821 24.829,31.664 24.894,31.533 24.999,31.416 
		25.13,31.337 25.313,31.272 25.535,31.259 25.77,31.272 25.966,31.311 26.123,31.376 26.254,31.442 26.319,31.481 	"/>
	<polygon fill="none" stroke="#007DC5" stroke-width="0.045" points="26.358,31.507 26.162,31.886 26.123,31.86 26.058,31.821 
		25.953,31.768 25.835,31.729 25.692,31.69 25.561,31.677 25.47,31.69 25.391,31.703 25.339,31.729 25.3,31.768 25.287,31.808 
		25.273,31.86 25.287,31.912 25.313,31.951 25.339,31.978 25.391,32.004 26.018,32.213 26.175,32.304 26.293,32.422 26.358,32.566 
		26.371,32.709 26.358,32.866 26.293,32.997 26.175,33.114 26.018,33.206 25.796,33.271 25.574,33.297 25.365,33.271 25.169,33.232 
		24.96,33.167 24.816,33.101 24.751,33.062 24.699,33.036 24.907,32.631 24.96,32.67 25.012,32.709 25.13,32.762 25.273,32.814 
		25.43,32.84 25.574,32.866 25.678,32.866 25.757,32.853 25.822,32.827 25.861,32.788 25.888,32.735 25.901,32.696 25.888,32.644 
		25.861,32.592 25.822,32.553 25.757,32.526 25.195,32.33 25.025,32.252 24.907,32.134 24.829,31.991 24.816,31.821 24.829,31.664 
		24.894,31.533 24.999,31.416 25.13,31.337 25.313,31.272 25.535,31.259 25.77,31.272 25.966,31.311 26.123,31.376 26.254,31.442 
		26.319,31.481 	"/>
	<polygon fill="#FFFFFF" points="27.77,30.605 27.77,31.271 28.253,31.271 28.253,31.716 27.77,31.716 27.77,32.645 27.77,32.683 
		27.783,32.735 27.809,32.774 27.848,32.813 27.888,32.827 27.953,32.84 28.004,32.84 28.071,32.827 28.123,32.8 28.188,32.761 
		28.241,32.735 28.28,32.709 28.175,33.193 28.136,33.218 28.097,33.232 28.031,33.258 27.953,33.271 27.875,33.284 27.795,33.284 
		27.705,33.284 27.613,33.258 27.535,33.218 27.443,33.153 27.377,33.063 27.326,32.97 27.3,32.866 27.3,32.748 27.3,31.716 
		26.947,31.716 26.947,31.271 27.3,31.271 27.3,30.788 	"/>
	<polygon fill="none" stroke="#007DC5" stroke-width="0.045" points="27.77,30.605 27.77,31.271 28.253,31.271 28.253,31.716 
		27.77,31.716 27.77,32.645 27.77,32.683 27.783,32.735 27.809,32.774 27.848,32.813 27.888,32.827 27.953,32.84 28.004,32.84 
		28.071,32.827 28.123,32.8 28.188,32.761 28.241,32.735 28.28,32.709 28.175,33.193 28.136,33.218 28.097,33.232 28.031,33.258 
		27.953,33.271 27.875,33.284 27.795,33.284 27.705,33.284 27.613,33.258 27.535,33.218 27.443,33.153 27.377,33.063 27.326,32.97 
		27.3,32.866 27.3,32.748 27.3,31.716 26.947,31.716 26.947,31.271 27.3,31.271 27.3,30.788 	"/>
	<path fill="#FFFFFF" d="M30.58,32.37h-1.203v0.052v0.066l0.013,0.091l0.04,0.079l0.065,0.078l0.078,0.065l0.079,0.04l0.078,0.026
		l0.092-0.013l0.091-0.013l0.065-0.04l0.066-0.026l0.039-0.026l0.026-0.026l0.327,0.248l-0.039,0.039l-0.066,0.066l-0.117,0.078
		l-0.157,0.065l-0.17,0.053h-0.17l-0.196-0.027l-0.196-0.091l-0.17-0.13l-0.131-0.183l-0.104-0.262l-0.026-0.314l0.026-0.313
		l0.091-0.262l0.131-0.182l0.157-0.144l0.209-0.092l0.222-0.026l0.222,0.026l0.21,0.079l0.208,0.157l0.131,0.222l0.066,0.235
		l0.013,0.222v0.118V32.37z M30.109,31.964l-0.013-0.039l-0.026-0.052l-0.039-0.066l-0.053-0.052l-0.065-0.052l-0.078-0.04
		l-0.092-0.013l-0.091,0.013l-0.079,0.04l-0.065,0.052l-0.052,0.052l-0.026,0.066l-0.027,0.052l-0.013,0.039v0.052h0.719V31.964z"/>
	<path fill="none" stroke="#007DC5" stroke-width="0.045" d="M30.58,32.37h-1.203v0.052v0.066l0.013,0.091l0.04,0.079l0.065,0.078
		l0.078,0.065l0.079,0.04l0.078,0.026l0.092-0.013l0.091-0.013l0.065-0.04l0.066-0.026l0.039-0.026l0.026-0.026l0.327,0.248
		l-0.039,0.039l-0.066,0.066l-0.117,0.078l-0.157,0.065l-0.17,0.053h-0.17l-0.196-0.027l-0.196-0.091l-0.17-0.13l-0.131-0.183
		l-0.104-0.262l-0.026-0.314l0.026-0.313l0.091-0.262l0.131-0.182l0.157-0.144l0.209-0.092l0.222-0.026l0.222,0.026l0.21,0.079
		l0.208,0.157l0.131,0.222l0.066,0.235l0.013,0.222v0.118V32.37z M30.109,31.964l-0.013-0.039l-0.026-0.052l-0.039-0.066
		l-0.053-0.052l-0.065-0.052l-0.078-0.04l-0.092-0.013l-0.091,0.013l-0.079,0.04l-0.065,0.052l-0.052,0.052l-0.026,0.066
		l-0.027,0.052l-0.013,0.039v0.052h0.719V31.964z"/>
	<polygon fill="#FFFFFF" points="31.586,30.632 31.507,30.684 31.442,30.762 31.428,30.867 31.442,30.958 31.494,31.037 
		31.586,31.102 31.677,31.115 31.781,31.102 31.861,31.05 31.912,30.971 31.939,30.867 31.912,30.775 31.861,30.684 31.781,30.632 
		31.69,30.605 	"/>
	<polygon fill="none" stroke="#007DC5" stroke-width="0.045" points="31.677,31.115 31.586,31.102 31.494,31.037 31.442,30.958 
		31.429,30.867 31.442,30.762 31.507,30.684 31.586,30.631 31.69,30.605 31.781,30.631 31.86,30.684 31.912,30.775 31.938,30.867 
		31.912,30.971 31.86,31.049 31.781,31.102 	"/>
	<rect x="31.442" y="31.272" fill="#FFFFFF" width="0.47" height="1.986"/>
	<rect x="31.442" y="31.272" fill="none" stroke="#007DC5" stroke-width="0.045" width="0.47" height="1.986"/>
	<polygon fill="#FFFFFF" points="33.428,31.259 33.428,31.416 33.48,31.376 33.52,31.35 33.598,31.311 33.689,31.271 33.794,31.246 
		33.912,31.232 34.029,31.246 34.173,31.285 34.33,31.364 34.474,31.48 34.578,31.612 34.63,31.755 34.656,31.899 34.669,32.082 
		34.669,33.258 34.199,33.258 34.199,32.068 34.16,31.925 34.081,31.808 33.951,31.729 33.807,31.703 33.663,31.729 33.546,31.808 
		33.467,31.938 33.428,32.082 33.428,33.258 32.957,33.258 32.957,31.259 	"/>
	<polygon fill="none" stroke="#007DC5" stroke-width="0.045" points="33.428,31.259 33.428,31.416 33.48,31.376 33.52,31.35 
		33.598,31.311 33.689,31.271 33.794,31.246 33.912,31.232 34.029,31.246 34.173,31.285 34.33,31.364 34.474,31.48 34.578,31.612 
		34.63,31.755 34.656,31.899 34.669,32.082 34.669,33.258 34.199,33.258 34.199,32.068 34.16,31.925 34.081,31.808 33.951,31.729 
		33.807,31.703 33.663,31.729 33.546,31.808 33.467,31.938 33.428,32.082 33.428,33.258 32.957,33.258 32.957,31.259 	"/>
	<polygon fill="#FFFFFF" points="18.151,8.076 18.151,8.232 18.19,8.193 18.243,8.167 18.309,8.127 18.399,8.088 18.518,8.063 
		18.623,8.05 18.74,8.063 18.884,8.102 19.041,8.167 19.184,8.297 19.289,8.429 19.354,8.573 19.379,8.716 19.394,8.898 
		19.394,10.076 18.91,10.076 18.91,8.898 18.884,8.742 18.792,8.625 18.674,8.546 18.531,8.52 18.387,8.546 18.256,8.625 
		18.178,8.755 18.151,8.898 18.151,10.076 17.668,10.076 17.668,8.076 	"/>
	<polygon fill="none" stroke="#007DC5" stroke-width="0.045" points="18.151,8.076 18.151,8.232 18.19,8.193 18.243,8.167 
		18.309,8.127 18.399,8.088 18.518,8.063 18.623,8.05 18.74,8.063 18.884,8.102 19.041,8.167 19.184,8.297 19.289,8.429 
		19.354,8.573 19.379,8.716 19.394,8.898 19.394,10.076 18.91,10.076 18.91,8.898 18.884,8.742 18.792,8.625 18.674,8.546 
		18.531,8.52 18.387,8.546 18.256,8.625 18.178,8.755 18.151,8.898 18.151,10.076 17.668,10.076 17.668,8.076 	"/>
	<polygon fill="#FFFFFF" points="5.58,7.422 5.11,10.075 4.626,10.075 4.182,8.337 3.737,10.075 3.267,10.075 2.783,7.422 
		3.228,7.422 3.528,9.082 3.973,7.422 4.391,7.422 4.835,9.082 5.136,7.422 	"/>
	<polygon fill="none" stroke="#007DC5" stroke-width="0.045" points="5.58,7.422 5.11,10.075 4.626,10.075 4.182,8.337 
		3.737,10.075 3.267,10.075 2.783,7.422 3.228,7.422 3.528,9.082 3.973,7.422 4.391,7.422 4.835,9.082 5.136,7.422 	"/>
	<path fill="#FFFFFF" d="M6.952,10.101l-0.196-0.026L6.547,9.984l-0.196-0.17L6.194,9.592L6.116,9.33L6.103,9.056l0.026-0.261
		l0.078-0.249l0.144-0.209L6.547,8.18l0.209-0.091l0.209-0.026l0.223,0.026L7.397,8.18L7.58,8.324l0.143,0.209l0.079,0.248
		l0.039,0.275L7.815,9.343L7.723,9.592L7.58,9.814l-0.196,0.17l-0.209,0.091L6.952,10.101z M7.07,9.657l0.105-0.052l0.091-0.092
		l0.052-0.13l0.026-0.157l0.014-0.17l-0.014-0.17L7.305,8.742L7.253,8.638L7.175,8.546L7.083,8.494L6.965,8.481L6.861,8.494
		L6.769,8.559L6.691,8.638L6.626,8.742l-0.04,0.144l-0.013,0.17l0.013,0.157l0.027,0.156L6.678,9.5l0.078,0.092l0.092,0.065
		L6.952,9.67L7.07,9.657z"/>
	<path fill="none" stroke="#007DC5" stroke-width="0.045" d="M6.952,10.101l-0.196-0.026L6.547,9.984l-0.196-0.17L6.194,9.592
		L6.116,9.33L6.103,9.056l0.026-0.261l0.078-0.249l0.144-0.209L6.547,8.18l0.209-0.091l0.209-0.026l0.223,0.026L7.397,8.18
		L7.58,8.324l0.143,0.209l0.079,0.248l0.039,0.275L7.815,9.343L7.723,9.592L7.58,9.814l-0.196,0.17l-0.209,0.091L6.952,10.101z
		 M7.07,9.657l0.105-0.052l0.091-0.092l0.052-0.13l0.026-0.157l0.014-0.17l-0.014-0.17L7.305,8.742L7.253,8.638L7.175,8.546
		L7.083,8.494L6.965,8.481L6.861,8.494L6.769,8.559L6.691,8.638L6.626,8.742l-0.04,0.144l-0.013,0.17l0.013,0.157l0.027,0.156
		L6.678,9.5l0.078,0.092l0.092,0.065L6.952,9.67L7.07,9.657z"/>
	<path fill="#FFFFFF" d="M9.644,8.833H8.913l0.013-0.052l0.013-0.039L8.952,8.69l0.039-0.066l0.052-0.052L9.096,8.52l0.091-0.039
		l0.079-0.013l0.091,0.013L9.449,8.52l0.065,0.052l0.052,0.052L9.604,8.69l0.013,0.052l0.013,0.039L9.644,8.833z M10.115,9.121V8.99
		l-0.013-0.209l-0.065-0.235L9.893,8.324L9.697,8.167L9.475,8.076L9.266,8.062L9.042,8.089L8.833,8.18l-0.17,0.144L8.547,8.507
		L8.455,8.768L8.416,9.082l0.039,0.314l0.092,0.248L8.678,9.84l0.169,0.13l0.196,0.079l0.196,0.039l0.17-0.013l0.17-0.039
		l0.17-0.079l0.118-0.078l0.052-0.052l0.052-0.053L9.644,9.526L9.604,9.565L9.565,9.591L9.514,9.618L9.435,9.644L9.344,9.67
		L9.266,9.683L9.187,9.657L9.096,9.618L9.017,9.552L8.965,9.474L8.926,9.382L8.913,9.304L8.899,9.239V9.186h1.215V9.121z"/>
	<path fill="none" stroke="#007DC5" stroke-width="0.045" d="M9.644,8.833H8.913l0.013-0.052l0.013-0.039L8.952,8.69l0.039-0.066
		l0.052-0.052L9.096,8.52l0.091-0.039l0.079-0.013l0.091,0.013L9.449,8.52l0.065,0.052l0.052,0.052L9.604,8.69l0.013,0.052
		l0.013,0.039L9.644,8.833z M10.115,9.121V8.99l-0.013-0.209l-0.065-0.235L9.893,8.324L9.697,8.167L9.475,8.076L9.266,8.062
		L9.042,8.089L8.833,8.18l-0.17,0.144L8.547,8.507L8.455,8.768L8.416,9.082l0.039,0.314l0.092,0.248L8.678,9.84l0.169,0.13
		l0.196,0.079l0.196,0.039l0.17-0.013l0.17-0.039l0.17-0.079l0.118-0.078l0.052-0.052l0.052-0.053L9.644,9.526L9.604,9.565
		L9.565,9.591L9.514,9.618L9.435,9.644L9.344,9.67L9.266,9.683L9.187,9.657L9.096,9.618L9.017,9.552L8.965,9.474L8.926,9.382
		L8.913,9.304L8.899,9.239V9.186h1.215V9.121z"/>
	<polygon fill="#FFFFFF" points="11.421,8.076 11.421,8.246 11.46,8.22 11.5,8.193 11.565,8.141 11.656,8.102 11.761,8.063 
		11.865,8.063 11.958,8.063 12.048,8.088 12.114,8.115 12.167,8.141 12.206,8.153 12.231,8.181 12.087,8.677 12.074,8.65 
		12.048,8.625 11.997,8.585 11.944,8.56 11.865,8.533 11.8,8.533 11.709,8.546 11.63,8.585 11.54,8.638 11.474,8.729 11.435,8.833 
		11.421,8.952 11.421,10.076 10.952,10.076 10.952,8.076 	"/>
	<polygon fill="none" stroke="#007DC5" stroke-width="0.045" points="11.421,8.076 11.421,8.246 11.46,8.22 11.5,8.193 
		11.565,8.141 11.656,8.102 11.761,8.063 11.865,8.063 11.958,8.063 12.048,8.088 12.114,8.115 12.167,8.141 12.206,8.153 
		12.231,8.181 12.087,8.677 12.074,8.65 12.048,8.625 11.997,8.585 11.944,8.56 11.865,8.533 11.8,8.533 11.709,8.546 11.63,8.585 
		11.54,8.638 11.474,8.729 11.435,8.833 11.421,8.952 11.421,10.076 10.952,10.076 10.952,8.076 	"/>
	<path fill="#FFFFFF" d="M13.878,9.487l-0.039,0.039l-0.066,0.052l-0.091,0.039l-0.131,0.026L13.447,9.63l-0.105-0.052l-0.091-0.065
		l-0.066-0.105l-0.052-0.144l-0.013-0.17V8.938l0.039-0.131l0.066-0.118l0.091-0.078l0.118-0.065l0.13-0.013l0.131,0.013L13.8,8.599
		l0.052,0.039l0.026,0.039V9.487z M13.878,8.232l-0.052-0.039L13.76,8.154l-0.143-0.053l-0.183-0.026l-0.196,0.026l-0.17,0.079
		l-0.17,0.143l-0.131,0.21l-0.091,0.274l-0.04,0.301l0.04,0.287l0.104,0.262l0.131,0.182l0.144,0.144l0.183,0.079l0.196,0.026
		l0.196-0.013l0.13-0.053l0.079-0.039l0.039-0.039v0.131h0.483V7.356l-0.483,0.17V8.232z"/>
	<path fill="none" stroke="#007DC5" stroke-width="0.045" d="M13.878,9.487l-0.039,0.039l-0.066,0.052l-0.091,0.039l-0.131,0.026
		L13.447,9.63l-0.105-0.052l-0.091-0.065l-0.066-0.105l-0.052-0.144l-0.013-0.17V8.938l0.039-0.131l0.066-0.118l0.091-0.078
		l0.118-0.065l0.13-0.013l0.131,0.013L13.8,8.599l0.052,0.039l0.026,0.039V9.487z M13.878,8.232l-0.052-0.039L13.76,8.154
		l-0.143-0.053l-0.183-0.026l-0.196,0.026l-0.17,0.079l-0.17,0.143l-0.131,0.21l-0.091,0.274l-0.04,0.301l0.04,0.287l0.104,0.262
		l0.131,0.182l0.144,0.144l0.183,0.079l0.196,0.026l0.196-0.013l0.13-0.053l0.079-0.039l0.039-0.039v0.131h0.483V7.356l-0.483,0.17
		V8.232z"/>
	<path fill="#FFFFFF" d="M16.362,8.833h-0.719V8.781l0.013-0.039l0.026-0.052l0.039-0.066l0.039-0.052l0.066-0.052l0.078-0.039
		l0.092-0.013l0.091,0.013l0.079,0.039l0.065,0.052l0.052,0.052l0.039,0.066l0.027,0.052l0.013,0.039V8.833z M16.832,9.121V8.99
		l-0.013-0.209l-0.065-0.235l-0.131-0.222l-0.209-0.157l-0.209-0.078l-0.222-0.027L15.76,8.089L15.551,8.18l-0.156,0.144
		l-0.131,0.183l-0.092,0.261l-0.026,0.314l0.039,0.314l0.092,0.248l0.131,0.196l0.17,0.13l0.195,0.079l0.196,0.039l0.17-0.013
		l0.17-0.039l0.157-0.079l0.118-0.078l0.052-0.052l0.052-0.053l-0.313-0.248l-0.053,0.039l-0.039,0.026L16.23,9.618l-0.065,0.026
		L16.074,9.67l-0.091,0.013l-0.079-0.026l-0.078-0.039l-0.079-0.066l-0.065-0.078l-0.026-0.092L15.63,9.304V9.239l-0.013-0.053
		h1.215V9.121z"/>
	<path fill="none" stroke="#007DC5" stroke-width="0.045" d="M16.362,8.833h-0.719V8.781l0.013-0.039l0.026-0.052l0.039-0.066
		l0.039-0.052l0.066-0.052l0.078-0.039l0.092-0.013l0.091,0.013l0.079,0.039l0.065,0.052l0.052,0.052l0.039,0.066l0.027,0.052
		l0.013,0.039V8.833z M16.832,9.121V8.99l-0.013-0.209l-0.065-0.235l-0.131-0.222l-0.209-0.157l-0.209-0.078l-0.222-0.027
		L15.76,8.089L15.551,8.18l-0.156,0.144l-0.131,0.183l-0.092,0.261l-0.026,0.314l0.039,0.314l0.092,0.248l0.131,0.196l0.17,0.13
		l0.195,0.079l0.196,0.039l0.17-0.013l0.17-0.039l0.157-0.079l0.118-0.078l0.052-0.052l0.052-0.053l-0.313-0.248l-0.053,0.039
		l-0.039,0.026L16.23,9.618l-0.065,0.026L16.074,9.67l-0.091,0.013l-0.079-0.026l-0.078-0.039l-0.079-0.066l-0.065-0.078
		l-0.026-0.092L15.63,9.304V9.239l-0.013-0.053h1.215V9.121z"/>
	<polygon fill="#FFFFFF" points="5.227,2.783 5.227,5.436 4.796,5.436 4.796,3.815 4.012,5.436 3.228,3.815 3.228,5.436 
		2.783,5.436 2.783,2.783 3.228,2.783 4.012,4.417 4.796,2.783 	"/>
	<polygon fill="none" stroke="#007DC5" stroke-width="0.045" points="5.227,2.783 5.227,5.436 4.796,5.436 4.796,3.815 4.012,5.436 
		3.228,3.815 3.228,5.436 2.783,5.436 2.783,2.783 3.228,2.783 4.012,4.417 4.796,2.783 	"/>
	<path fill="#FFFFFF" d="M6.978,5.462L6.782,5.436L6.573,5.345l-0.209-0.17L6.22,4.953L6.142,4.69L6.116,4.43l0.039-0.274
		l0.079-0.249l0.143-0.209L6.56,3.541l0.209-0.078l0.222-0.039L7.214,3.45l0.209,0.091l0.183,0.144l0.13,0.209l0.092,0.248
		L7.867,4.43L7.841,4.704L7.749,4.966L7.606,5.188L7.41,5.345L7.201,5.436L6.978,5.462z M7.096,5.018l0.105-0.052l0.078-0.092
		l0.065-0.13l0.027-0.157l0.013-0.17l-0.013-0.17l-0.04-0.144L7.279,3.999L7.201,3.907L7.096,3.854L6.991,3.842L6.887,3.868
		L6.782,3.92L6.717,3.999L6.652,4.103l-0.04,0.144l-0.013,0.17l0.013,0.17l0.027,0.143l0.052,0.131l0.078,0.092l0.105,0.065
		l0.104,0.026L7.096,5.018z"/>
	<path fill="none" stroke="#007DC5" stroke-width="0.045" d="M6.978,5.462L6.782,5.436L6.573,5.345l-0.209-0.17L6.22,4.953
		L6.142,4.69L6.116,4.43l0.039-0.274l0.079-0.249l0.143-0.209L6.56,3.541l0.209-0.078l0.222-0.039L7.214,3.45l0.209,0.091
		l0.183,0.144l0.13,0.209l0.092,0.248L7.867,4.43L7.841,4.704L7.749,4.966L7.606,5.188L7.41,5.345L7.201,5.436L6.978,5.462z
		 M7.096,5.018l0.105-0.052l0.078-0.092l0.065-0.13l0.027-0.157l0.013-0.17l-0.013-0.17l-0.04-0.144L7.279,3.999L7.201,3.907
		L7.096,3.854L6.991,3.842L6.887,3.868L6.782,3.92L6.717,3.999L6.652,4.103l-0.04,0.144l-0.013,0.17l0.013,0.17l0.027,0.143
		l0.052,0.131l0.078,0.092l0.105,0.065l0.104,0.026L7.096,5.018z"/>
	<polygon fill="#FFFFFF" points="9.147,3.437 9.147,3.593 9.2,3.555 9.252,3.528 9.317,3.488 9.409,3.449 9.514,3.423 9.631,3.411 
		9.749,3.423 9.893,3.462 10.049,3.542 10.193,3.659 10.297,3.79 10.35,3.934 10.375,4.089 10.39,4.259 10.39,5.436 9.918,5.436 
		9.918,4.259 9.879,4.117 9.801,3.985 9.67,3.906 9.526,3.88 9.382,3.906 9.266,3.985 9.187,4.117 9.147,4.259 9.147,5.436 
		8.678,5.436 8.678,3.437 	"/>
	<polygon fill="none" stroke="#007DC5" stroke-width="0.045" points="9.147,3.437 9.147,3.593 9.2,3.555 9.252,3.528 9.317,3.488 
		9.409,3.449 9.514,3.423 9.631,3.411 9.749,3.423 9.893,3.462 10.049,3.542 10.193,3.659 10.297,3.79 10.35,3.934 10.375,4.089 
		10.39,4.259 10.39,5.436 9.918,5.436 9.918,4.259 9.879,4.117 9.801,3.985 9.67,3.906 9.526,3.88 9.382,3.906 9.266,3.985 
		9.187,4.117 9.147,4.259 9.147,5.436 8.678,5.436 8.678,3.437 	"/>
	<polygon fill="#FFFFFF" points="11.984,2.783 11.984,3.449 12.467,3.449 12.467,3.894 11.984,3.894 11.984,4.822 11.997,4.861 
		11.997,4.913 12.022,4.952 12.062,4.979 12.114,5.005 12.167,5.018 12.231,5.018 12.284,5.005 12.35,4.979 12.402,4.939 
		12.454,4.913 12.493,4.887 12.402,5.371 12.35,5.397 12.311,5.41 12.245,5.436 12.167,5.449 12.087,5.462 12.01,5.462 
		11.918,5.462 11.84,5.436 11.749,5.397 11.669,5.331 11.592,5.24 11.553,5.148 11.526,5.044 11.513,4.926 11.513,3.894 
		11.16,3.894 11.16,3.449 11.513,3.449 11.513,2.966 	"/>
	<polygon fill="none" stroke="#007DC5" stroke-width="0.045" points="11.984,2.783 11.984,3.449 12.467,3.449 12.467,3.894 
		11.984,3.894 11.984,4.822 11.997,4.861 11.997,4.913 12.022,4.952 12.062,4.979 12.114,5.005 12.167,5.018 12.231,5.018 
		12.284,5.005 12.35,4.979 12.402,4.939 12.454,4.913 12.493,4.887 12.402,5.371 12.35,5.397 12.311,5.41 12.245,5.436 
		12.167,5.449 12.087,5.462 12.01,5.462 11.918,5.462 11.84,5.436 11.749,5.397 11.669,5.331 11.592,5.24 11.553,5.148 
		11.526,5.044 11.513,4.926 11.513,3.894 11.16,3.894 11.16,3.449 11.513,3.449 11.513,2.966 	"/>
	<polygon fill="#FFFFFF" points="14.166,2.849 14.166,3.214 14.127,3.201 14.088,3.188 14.035,3.175 13.97,3.175 13.918,3.175 
		13.878,3.201 13.852,3.228 13.826,3.267 13.813,3.305 13.813,3.358 13.813,3.449 14.166,3.449 14.166,3.92 13.813,3.92 
		13.813,5.436 13.343,5.436 13.343,3.92 13.094,3.92 13.094,3.449 13.343,3.449 13.343,3.214 13.356,3.096 13.382,3.005 
		13.447,2.914 13.565,2.849 13.696,2.81 13.826,2.783 13.957,2.796 14.061,2.81 14.114,2.835 	"/>
	<polygon fill="none" stroke="#007DC5" stroke-width="0.045" points="14.166,2.849 14.166,3.214 14.127,3.201 14.088,3.188 
		14.035,3.175 13.97,3.175 13.918,3.175 13.878,3.201 13.852,3.228 13.826,3.267 13.813,3.305 13.813,3.358 13.813,3.449 
		14.166,3.449 14.166,3.92 13.813,3.92 13.813,5.436 13.343,5.436 13.343,3.92 13.094,3.92 13.094,3.449 13.343,3.449 13.343,3.214 
		13.356,3.096 13.382,3.005 13.447,2.914 13.565,2.849 13.696,2.81 13.826,2.783 13.957,2.796 14.061,2.81 14.114,2.835 	"/>
	<path fill="#FFFFFF" d="M15.603,5.462l-0.196-0.026l-0.209-0.091l-0.196-0.17l-0.144-0.222L14.767,4.69L14.754,4.43l0.026-0.274
		l0.092-0.249l0.13-0.209l0.196-0.157l0.209-0.078l0.209-0.039l0.223,0.026l0.209,0.091l0.183,0.144l0.143,0.209l0.092,0.248
		l0.026,0.288l-0.026,0.274l-0.092,0.262l-0.143,0.222l-0.183,0.157l-0.222,0.091L15.603,5.462z M15.721,5.018l0.105-0.052
		l0.091-0.092l0.052-0.13l0.04-0.157v-0.17l-0.014-0.17l-0.026-0.144l-0.065-0.104l-0.078-0.092l-0.092-0.052l-0.118-0.013
		l-0.104,0.026L15.42,3.92l-0.078,0.079L15.29,4.103l-0.039,0.144l-0.027,0.17l0.013,0.17l0.027,0.143l0.065,0.131l0.078,0.092
		l0.092,0.065l0.104,0.026L15.721,5.018z"/>
	<path fill="none" stroke="#007DC5" stroke-width="0.045" d="M15.603,5.462l-0.196-0.026l-0.209-0.091l-0.196-0.17l-0.144-0.222
		L14.767,4.69L14.754,4.43l0.026-0.274l0.092-0.249l0.13-0.209l0.196-0.157l0.209-0.078l0.209-0.039l0.223,0.026l0.209,0.091
		l0.183,0.144l0.143,0.209l0.092,0.248l0.026,0.288l-0.026,0.274l-0.092,0.262l-0.143,0.222l-0.183,0.157l-0.222,0.091L15.603,5.462
		z M15.721,5.018l0.105-0.052l0.091-0.092l0.052-0.13l0.04-0.157v-0.17l-0.014-0.17l-0.026-0.144l-0.065-0.104l-0.078-0.092
		l-0.092-0.052l-0.118-0.013l-0.104,0.026L15.42,3.92l-0.078,0.079L15.29,4.103l-0.039,0.144l-0.027,0.17l0.013,0.17l0.027,0.143
		l0.065,0.131l0.078,0.092l0.092,0.065l0.104,0.026L15.721,5.018z"/>
	<path fill="#FFFFFF" d="M17.93,5.044l-0.105-0.026l-0.091-0.066l-0.079-0.091L17.589,4.73l-0.026-0.143l-0.013-0.17l0.026-0.17
		l0.039-0.144l0.053-0.104l0.078-0.079l0.091-0.052l0.105-0.026l0.117,0.013l0.092,0.052l0.078,0.092l0.053,0.104l0.039,0.144
		l0.013,0.17v0.17l-0.039,0.156l-0.053,0.131l-0.091,0.091l-0.105,0.053L17.93,5.044z M18.151,5.436l0.209-0.091l0.196-0.157
		l0.144-0.223l0.091-0.261l0.026-0.274l-0.026-0.288l-0.091-0.248l-0.144-0.209l-0.183-0.144L18.165,3.45l-0.222-0.027l-0.222,0.04
		l-0.196,0.078l-0.196,0.157l-0.144,0.209l-0.079,0.248L17.066,4.43l0.026,0.261l0.092,0.261l0.144,0.223l0.196,0.17l0.209,0.091
		l0.196,0.026L18.151,5.436z"/>
	<path fill="none" stroke="#007DC5" stroke-width="0.045" d="M17.93,5.044l-0.105-0.026l-0.091-0.066l-0.079-0.091L17.589,4.73
		l-0.026-0.143l-0.013-0.17l0.026-0.17l0.039-0.144l0.053-0.104l0.078-0.079l0.091-0.052l0.105-0.026l0.117,0.013l0.092,0.052
		l0.078,0.092l0.053,0.104l0.039,0.144l0.013,0.17v0.17l-0.039,0.156l-0.053,0.131l-0.091,0.091l-0.105,0.053L17.93,5.044z
		 M18.151,5.436l0.209-0.091l0.196-0.157l0.144-0.223l0.091-0.261l0.026-0.274l-0.026-0.288l-0.091-0.248l-0.144-0.209l-0.183-0.144
		L18.165,3.45l-0.222-0.027l-0.222,0.04l-0.196,0.078l-0.196,0.157l-0.144,0.209l-0.079,0.248L17.066,4.43l0.026,0.261l0.092,0.261
		l0.144,0.223l0.196,0.17l0.209,0.091l0.196,0.026L18.151,5.436z"/>
	<polygon fill="#FFFFFF" points="20.099,3.437 20.099,3.606 20.138,3.581 20.177,3.555 20.243,3.501 20.333,3.462 20.438,3.423 
		20.542,3.423 20.647,3.423 20.726,3.449 20.805,3.476 20.844,3.501 20.883,3.515 20.922,3.542 20.779,4.038 20.751,4.012 
		20.726,3.985 20.687,3.946 20.622,3.92 20.557,3.906 20.478,3.894 20.399,3.906 20.308,3.946 20.217,4.012 20.151,4.089 
		20.112,4.194 20.099,4.313 20.099,5.436 19.627,5.436 19.627,3.437 	"/>
	<polygon fill="none" stroke="#007DC5" stroke-width="0.045" points="20.099,3.437 20.099,3.606 20.138,3.581 20.177,3.555 
		20.243,3.501 20.333,3.462 20.438,3.423 20.542,3.423 20.647,3.423 20.726,3.449 20.805,3.476 20.844,3.501 20.883,3.515 
		20.922,3.542 20.779,4.038 20.751,4.012 20.726,3.985 20.687,3.946 20.622,3.92 20.557,3.906 20.478,3.894 20.399,3.906 
		20.308,3.946 20.217,4.012 20.151,4.089 20.112,4.194 20.099,4.313 20.099,5.436 19.627,5.436 19.627,3.437 	"/>
	<polygon fill="#FFFFFF" points="22.137,2.783 22.137,3.449 22.622,3.449 22.622,3.894 22.137,3.894 22.137,4.822 22.137,4.861 
		22.137,4.913 22.164,4.952 22.204,4.979 22.254,5.005 22.308,5.018 22.373,5.018 22.424,5.005 22.49,4.979 22.556,4.939 
		22.594,4.913 22.634,4.887 22.542,5.371 22.49,5.397 22.452,5.41 22.385,5.436 22.308,5.449 22.229,5.462 22.15,5.462 
		22.071,5.462 21.98,5.436 21.902,5.397 21.811,5.331 21.746,5.24 21.693,5.148 21.667,5.044 21.667,4.926 21.667,3.894 21.3,3.894 
		21.3,3.449 21.653,3.449 21.653,2.966 	"/>
	<polygon fill="none" stroke="#007DC5" stroke-width="0.045" points="22.137,2.783 22.137,3.449 22.622,3.449 22.622,3.894 
		22.137,3.894 22.137,4.822 22.137,4.861 22.137,4.913 22.164,4.952 22.204,4.979 22.254,5.005 22.308,5.018 22.373,5.018 
		22.424,5.005 22.49,4.979 22.556,4.939 22.594,4.913 22.634,4.887 22.542,5.371 22.49,5.397 22.452,5.41 22.385,5.436 
		22.308,5.449 22.229,5.462 22.15,5.462 22.071,5.462 21.98,5.436 21.902,5.397 21.811,5.331 21.746,5.24 21.693,5.148 
		21.667,5.044 21.667,4.926 21.667,3.894 21.3,3.894 21.3,3.449 21.653,3.449 21.653,2.966 	"/>
	<polygon fill="#FFFFFF" points="14.767,35.244 14.767,36.864 14.689,37.271 14.466,37.609 14.114,37.845 13.918,37.897 
		13.695,37.923 13.486,37.897 13.277,37.845 12.938,37.609 12.728,37.271 12.65,36.852 12.65,35.244 13.081,35.244 13.081,36.852 
		13.12,37.086 13.251,37.296 13.447,37.439 13.695,37.492 13.944,37.439 14.153,37.31 14.296,37.101 14.336,36.864 14.336,35.244 	
		"/>
	<polygon fill="none" stroke="#007DC5" stroke-width="0.045" points="14.767,35.244 14.767,36.864 14.689,37.271 14.466,37.609 
		14.114,37.845 13.918,37.897 13.695,37.923 13.486,37.897 13.277,37.845 12.938,37.609 12.728,37.271 12.65,36.852 12.65,35.244 
		13.081,35.244 13.081,36.852 13.12,37.086 13.251,37.296 13.447,37.439 13.695,37.492 13.944,37.439 14.153,37.31 14.296,37.101 
		14.336,36.864 14.336,35.244 	"/>
	<polygon fill="#FFFFFF" points="16.387,35.244 16.387,35.91 16.872,35.91 16.872,36.355 16.387,36.355 16.387,37.283 
		16.387,37.322 16.387,37.375 16.414,37.414 16.452,37.439 16.505,37.466 16.557,37.479 16.623,37.479 16.675,37.466 16.74,37.439 
		16.792,37.4 16.844,37.375 16.884,37.349 16.792,37.833 16.74,37.858 16.701,37.872 16.635,37.897 16.557,37.91 16.479,37.923 
		16.4,37.923 16.322,37.91 16.23,37.897 16.139,37.845 16.061,37.792 15.995,37.701 15.943,37.609 15.917,37.505 15.903,37.387 
		15.903,36.355 15.551,36.355 15.551,35.91 15.903,35.91 15.903,35.427 	"/>
	<polygon fill="none" stroke="#007DC5" stroke-width="0.045" points="16.387,35.244 16.387,35.91 16.872,35.91 16.872,36.355 
		16.387,36.355 16.387,37.283 16.387,37.322 16.387,37.375 16.414,37.414 16.452,37.439 16.505,37.466 16.557,37.479 16.623,37.479 
		16.675,37.466 16.74,37.439 16.792,37.4 16.844,37.375 16.884,37.349 16.792,37.833 16.74,37.858 16.701,37.872 16.635,37.897 
		16.557,37.91 16.479,37.923 16.4,37.923 16.322,37.91 16.23,37.897 16.139,37.845 16.061,37.792 15.995,37.701 15.943,37.609 
		15.917,37.505 15.903,37.387 15.903,36.355 15.551,36.355 15.551,35.91 15.903,35.91 15.903,35.427 	"/>
	<polygon fill="#FFFFFF" points="18.204,35.897 18.204,36.068 18.23,36.042 18.269,36.003 18.335,35.963 18.426,35.911 
		18.531,35.885 18.648,35.872 18.74,35.885 18.831,35.911 18.897,35.937 18.949,35.95 18.975,35.976 19.014,36.003 18.87,36.499 
		18.844,36.473 18.831,36.447 18.779,36.408 18.714,36.382 18.648,36.354 18.57,36.354 18.492,36.369 18.413,36.395 18.322,36.459 
		18.256,36.551 18.217,36.656 18.204,36.773 18.204,37.897 17.72,37.897 17.72,35.897 	"/>
	<polygon fill="none" stroke="#007DC5" stroke-width="0.045" points="18.204,35.897 18.204,36.068 18.23,36.042 18.269,36.003 
		18.335,35.963 18.426,35.911 18.531,35.885 18.648,35.872 18.74,35.885 18.831,35.911 18.897,35.937 18.949,35.95 18.975,35.976 
		19.014,36.003 18.87,36.499 18.844,36.473 18.831,36.447 18.779,36.408 18.714,36.382 18.648,36.354 18.57,36.354 18.492,36.369 
		18.413,36.395 18.322,36.459 18.256,36.551 18.217,36.656 18.204,36.773 18.204,37.897 17.72,37.897 17.72,35.897 	"/>
	<path fill="#FFFFFF" d="M21.119,37.008h-1.216v0.052l0.013,0.066l0.013,0.091l0.04,0.079l0.052,0.078l0.078,0.065l0.092,0.04
		l0.078,0.026l0.092-0.013l0.078-0.013l0.078-0.04l0.053-0.026l0.039-0.026l0.039-0.039l0.327,0.261l-0.053,0.039l-0.052,0.053
		l-0.117,0.091l-0.157,0.065l-0.17,0.04l-0.183,0.013l-0.196-0.026l-0.196-0.092l-0.17-0.13l-0.131-0.183l-0.091-0.262l-0.039-0.313
		l0.039-0.314l0.091-0.262l0.118-0.182l0.17-0.144l0.209-0.092l0.222-0.026l0.222,0.013l0.209,0.092l0.209,0.157l0.131,0.222
		l0.066,0.235l0.013,0.209v0.131V37.008z M20.635,36.604l-0.013-0.039l-0.013-0.053l-0.039-0.065l-0.053-0.052l-0.065-0.052
		l-0.091-0.04l-0.092-0.013l-0.078,0.013l-0.092,0.04l-0.052,0.052l-0.052,0.052l-0.04,0.065l-0.013,0.04l-0.013,0.052l-0.013,0.052
		h0.732L20.635,36.604z"/>
	<path fill="none" stroke="#007DC5" stroke-width="0.045" d="M21.119,37.008h-1.216v0.052l0.013,0.066l0.013,0.091l0.04,0.079
		l0.052,0.078l0.078,0.065l0.092,0.04l0.078,0.026l0.092-0.013l0.078-0.013l0.078-0.04l0.053-0.026l0.039-0.026l0.039-0.039
		l0.327,0.261l-0.053,0.039l-0.052,0.053l-0.117,0.091l-0.157,0.065l-0.17,0.04l-0.183,0.013l-0.196-0.026l-0.196-0.092l-0.17-0.13
		l-0.131-0.183l-0.091-0.262l-0.039-0.313l0.039-0.314l0.091-0.262l0.118-0.182l0.17-0.144l0.209-0.092l0.222-0.026l0.222,0.013
		l0.209,0.092l0.209,0.157l0.131,0.222l0.066,0.235l0.013,0.209v0.131V37.008z M20.635,36.604l-0.013-0.039l-0.013-0.053
		l-0.039-0.065l-0.053-0.052l-0.065-0.052l-0.091-0.04l-0.092-0.013l-0.078,0.013l-0.092,0.04l-0.052,0.052l-0.052,0.052
		l-0.04,0.065l-0.013,0.04l-0.013,0.052l-0.013,0.052h0.732L20.635,36.604z"/>
	<polygon fill="#FFFFFF" points="23.457,36.29 23.143,36.617 23.13,36.577 23.091,36.538 23.039,36.46 22.947,36.394 22.83,36.342 
		22.686,36.329 22.542,36.355 22.425,36.421 22.32,36.512 22.255,36.63 22.216,36.774 22.203,36.93 22.229,37.087 22.281,37.218 
		22.359,37.322 22.464,37.401 22.568,37.44 22.699,37.466 22.817,37.453 22.947,37.401 23.039,37.336 23.091,37.27 23.117,37.218 
		23.143,37.179 23.457,37.505 23.418,37.558 23.366,37.623 23.261,37.714 23.104,37.806 22.908,37.884 22.699,37.91 22.503,37.897 
		22.307,37.832 22.098,37.701 21.915,37.505 21.784,37.231 21.732,36.917 21.771,36.604 21.876,36.342 22.046,36.133 22.242,35.989 
		22.464,35.898 22.699,35.885 22.934,35.911 23.13,35.989 23.287,36.094 23.379,36.185 23.431,36.251 	"/>
	<polygon fill="none" stroke="#007DC5" stroke-width="0.045" points="23.457,36.29 23.143,36.617 23.13,36.577 23.091,36.538 
		23.039,36.46 22.947,36.394 22.83,36.342 22.686,36.329 22.542,36.355 22.425,36.421 22.32,36.512 22.255,36.63 22.216,36.774 
		22.203,36.93 22.229,37.087 22.281,37.218 22.359,37.322 22.464,37.401 22.568,37.44 22.699,37.466 22.817,37.453 22.947,37.401 
		23.039,37.336 23.091,37.27 23.117,37.218 23.143,37.179 23.457,37.505 23.418,37.558 23.366,37.623 23.261,37.714 23.104,37.806 
		22.908,37.884 22.699,37.91 22.503,37.897 22.307,37.832 22.098,37.701 21.915,37.505 21.784,37.231 21.732,36.917 21.771,36.604 
		21.876,36.342 22.046,36.133 22.242,35.989 22.464,35.898 22.699,35.885 22.934,35.911 23.13,35.989 23.287,36.094 23.379,36.185 
		23.431,36.251 	"/>
	<polygon fill="#FFFFFF" points="24.268,35.244 24.75,35.244 24.75,36.225 24.777,36.198 24.804,36.159 24.855,36.107 
		24.934,36.042 25.013,35.989 25.104,35.937 25.208,35.91 25.299,35.91 25.392,35.91 25.496,35.923 25.587,35.963 25.691,36.016 
		25.796,36.093 25.888,36.198 25.94,36.316 25.979,36.434 25.993,36.564 26.005,36.708 26.005,37.897 25.508,37.897 25.508,36.813 
		25.508,36.708 25.496,36.604 25.457,36.524 25.417,36.446 25.366,36.395 25.299,36.355 25.222,36.33 25.144,36.33 25.052,36.342 
		24.96,36.381 24.895,36.434 24.83,36.499 24.791,36.59 24.765,36.668 24.75,36.76 24.75,36.878 24.75,37.897 24.268,37.897 	"/>
	<polygon fill="none" stroke="#007DC5" stroke-width="0.045" points="24.268,35.244 24.75,35.244 24.75,36.225 24.777,36.198 
		24.804,36.159 24.855,36.107 24.934,36.042 25.013,35.989 25.104,35.937 25.208,35.91 25.299,35.91 25.392,35.91 25.496,35.923 
		25.587,35.963 25.691,36.016 25.796,36.093 25.888,36.198 25.94,36.316 25.979,36.434 25.993,36.564 26.005,36.708 26.005,37.897 
		25.508,37.897 25.508,36.813 25.508,36.708 25.496,36.604 25.457,36.524 25.417,36.446 25.366,36.395 25.299,36.355 25.222,36.33 
		25.144,36.33 25.052,36.342 24.96,36.381 24.895,36.434 24.83,36.499 24.791,36.59 24.765,36.668 24.75,36.76 24.75,36.878 
		24.75,37.897 24.268,37.897 	"/>
	<polygon fill="#FFFFFF" points="27.6,35.244 27.6,35.91 28.083,35.91 28.083,36.355 27.6,36.355 27.6,37.283 27.6,37.322 
		27.613,37.375 27.626,37.414 27.665,37.439 27.718,37.466 27.783,37.479 27.835,37.479 27.888,37.466 27.953,37.439 28.018,37.4 
		28.058,37.375 28.11,37.349 28.005,37.833 27.966,37.845 27.927,37.872 27.861,37.897 27.783,37.91 27.705,37.923 27.626,37.923 
		27.535,37.91 27.443,37.897 27.365,37.845 27.286,37.779 27.208,37.701 27.156,37.609 27.129,37.505 27.129,37.387 27.129,36.355 
		26.777,36.355 26.777,35.91 27.129,35.91 27.129,35.427 	"/>
	<polygon fill="none" stroke="#007DC5" stroke-width="0.045" points="27.6,35.244 27.6,35.91 28.083,35.91 28.083,36.355 
		27.6,36.355 27.6,37.283 27.6,37.322 27.613,37.375 27.626,37.414 27.665,37.439 27.718,37.466 27.783,37.479 27.835,37.479 
		27.888,37.466 27.953,37.439 28.018,37.4 28.058,37.375 28.11,37.349 28.005,37.833 27.966,37.845 27.927,37.872 27.861,37.897 
		27.783,37.91 27.705,37.923 27.626,37.923 27.535,37.91 27.443,37.897 27.365,37.845 27.286,37.779 27.208,37.701 27.156,37.609 
		27.129,37.505 27.129,37.387 27.129,36.355 26.777,36.355 26.777,35.91 27.129,35.91 27.129,35.427 	"/>
	<polygon fill="#FFFFFF" points="21.445,41.556 21.445,41.7 21.471,41.674 21.51,41.647 21.576,41.608 21.667,41.582 21.772,41.556 
		21.889,41.543 22.02,41.556 22.138,41.595 22.229,41.647 22.294,41.7 22.334,41.739 22.373,41.778 22.399,41.739 22.438,41.7 
		22.517,41.634 22.621,41.582 22.739,41.556 22.869,41.543 23.026,41.569 23.183,41.634 23.327,41.739 23.418,41.87 23.471,42.04 
		23.484,42.222 23.484,43.255 23.078,43.255 23.078,42.25 23.052,42.131 22.987,42.027 22.896,41.961 22.778,41.948 22.66,41.961 
		22.556,42.04 22.491,42.131 22.464,42.262 22.464,43.255 22.059,43.255 22.059,42.236 22.033,42.131 21.968,42.027 21.876,41.961 
		21.759,41.936 21.641,41.961 21.537,42.027 21.471,42.118 21.445,42.236 21.445,43.255 21.04,43.255 21.04,41.556 	"/>
	<polygon fill="none" stroke="#007DC5" stroke-width="0.045" points="21.445,41.556 21.445,41.7 21.471,41.674 21.51,41.647 
		21.576,41.608 21.667,41.582 21.772,41.556 21.889,41.543 22.02,41.556 22.138,41.595 22.229,41.647 22.294,41.7 22.334,41.739 
		22.373,41.778 22.399,41.739 22.438,41.7 22.517,41.634 22.621,41.582 22.739,41.556 22.869,41.543 23.026,41.569 23.183,41.634 
		23.327,41.739 23.418,41.87 23.471,42.04 23.484,42.222 23.484,43.255 23.078,43.255 23.078,42.25 23.052,42.131 22.987,42.027 
		22.896,41.961 22.778,41.948 22.66,41.961 22.556,42.04 22.491,42.131 22.464,42.262 22.464,43.255 22.059,43.255 22.059,42.236 
		22.033,42.131 21.968,42.027 21.876,41.961 21.759,41.936 21.641,41.961 21.537,42.027 21.471,42.118 21.445,42.236 21.445,43.255 
		21.04,43.255 21.04,41.556 	"/>
	<path fill="#FFFFFF" d="M19.615,42.288l-0.013,0.183l-0.039,0.157l-0.039,0.105l-0.052,0.078l-0.066,0.065l-0.091,0.053
		l-0.092,0.039h-0.117l-0.092-0.013l-0.091-0.026l-0.079-0.04l-0.078-0.078l-0.052-0.078l-0.053-0.105l-0.039-0.157l-0.013-0.196
		l0.026-0.209l0.04-0.157l0.052-0.117l0.052-0.079l0.065-0.039l0.053-0.039l0.104-0.039l0.105-0.013h0.104l0.079,0.026l0.078,0.039
		l0.065,0.052l0.079,0.092l0.052,0.117l0.039,0.157L19.615,42.288z M19.929,42.04l-0.052-0.222l-0.079-0.17l-0.091-0.131
		l-0.118-0.105l-0.144-0.078l-0.156-0.052l-0.17-0.026l-0.17,0.026l-0.17,0.052l-0.131,0.078l-0.117,0.105l-0.092,0.131
		l-0.078,0.157l-0.052,0.209l-0.027,0.261l0.027,0.275l0.065,0.235l0.091,0.17l0.092,0.117l0.118,0.105l0.143,0.065l0.131,0.039
		l0.157,0.013l0.157-0.013l0.143-0.039l0.144-0.078l0.118-0.092l0.104-0.13l0.092-0.17l0.052-0.222l0.026-0.262L19.929,42.04z"/>
	<path fill="none" stroke="#007DC5" stroke-width="0.045" d="M19.615,42.288l-0.013,0.183l-0.039,0.157l-0.039,0.105l-0.052,0.078
		l-0.066,0.065l-0.091,0.053l-0.092,0.039h-0.117l-0.092-0.013l-0.091-0.026l-0.079-0.04l-0.078-0.078l-0.052-0.078l-0.053-0.105
		l-0.039-0.157l-0.013-0.196l0.026-0.209l0.04-0.157l0.052-0.117l0.052-0.079l0.065-0.039l0.053-0.039l0.104-0.039l0.105-0.013
		h0.104l0.079,0.026l0.078,0.039l0.065,0.052l0.079,0.092l0.052,0.117l0.039,0.157L19.615,42.288z M19.929,42.04l-0.052-0.222
		l-0.079-0.17l-0.091-0.131l-0.118-0.105l-0.144-0.078l-0.156-0.052l-0.17-0.026l-0.17,0.026l-0.17,0.052l-0.131,0.078l-0.117,0.105
		l-0.092,0.131l-0.078,0.157l-0.052,0.209l-0.027,0.261l0.027,0.275l0.065,0.235l0.091,0.17l0.092,0.117l0.118,0.105l0.143,0.065
		l0.131,0.039l0.157,0.013l0.157-0.013l0.143-0.039l0.144-0.078l0.118-0.092l0.104-0.13l0.092-0.17l0.052-0.222l0.026-0.262
		L19.929,42.04z"/>
	<path fill="#FFFFFF" d="M17.55,42.288l-0.013,0.183l-0.039,0.157l-0.039,0.105l-0.052,0.078l-0.079,0.065l-0.078,0.053
		l-0.105,0.039h-0.104l-0.105-0.013l-0.078-0.026l-0.092-0.04l-0.065-0.078l-0.065-0.078l-0.04-0.105l-0.039-0.157l-0.013-0.196
		l0.013-0.209l0.039-0.157l0.066-0.117l0.052-0.079l0.052-0.039l0.066-0.039l0.091-0.039l0.118-0.013h0.104l0.079,0.026l0.078,0.039
		l0.065,0.052l0.066,0.092l0.065,0.117l0.039,0.157L17.55,42.288z M17.851,42.04l-0.052-0.222l-0.079-0.17l-0.078-0.131
		l-0.118-0.105l-0.144-0.078l-0.156-0.052l-0.17-0.026l-0.17,0.026l-0.17,0.052l-0.144,0.078l-0.104,0.105l-0.092,0.131
		l-0.078,0.157l-0.052,0.209l-0.026,0.261l0.026,0.275l0.065,0.235l0.078,0.17l0.105,0.117l0.117,0.105l0.131,0.065l0.144,0.039
		l0.157,0.013l0.157-0.013l0.143-0.039l0.144-0.078l0.118-0.092l0.104-0.13l0.079-0.17l0.065-0.222l0.026-0.262L17.851,42.04z"/>
	<path fill="none" stroke="#007DC5" stroke-width="0.045" d="M17.55,42.288l-0.013,0.183l-0.039,0.157l-0.039,0.105l-0.052,0.078
		l-0.079,0.065l-0.078,0.053l-0.105,0.039h-0.104l-0.105-0.013l-0.078-0.026l-0.092-0.04l-0.065-0.078l-0.065-0.078l-0.04-0.105
		l-0.039-0.157l-0.013-0.196l0.013-0.209l0.039-0.157l0.066-0.117l0.052-0.079l0.052-0.039l0.066-0.039l0.091-0.039l0.118-0.013
		h0.104l0.079,0.026l0.078,0.039l0.065,0.052l0.066,0.092l0.065,0.117l0.039,0.157L17.55,42.288z M17.851,42.04l-0.052-0.222
		l-0.079-0.17l-0.078-0.131l-0.118-0.105l-0.144-0.078l-0.156-0.052l-0.17-0.026l-0.17,0.026l-0.17,0.052l-0.144,0.078l-0.104,0.105
		l-0.092,0.131l-0.078,0.157l-0.052,0.209l-0.026,0.261l0.026,0.275l0.065,0.235l0.078,0.17l0.105,0.117l0.117,0.105l0.131,0.065
		l0.144,0.039l0.157,0.013l0.157-0.013l0.143-0.039l0.144-0.078l0.118-0.092l0.104-0.13l0.079-0.17l0.065-0.222l0.026-0.262
		L17.851,42.04z"/>
	<path fill="#FFFFFF" d="M15.172,41.713v0.837h-0.784L15.172,41.713z M15.172,41.269L13.97,42.55v0.313h1.202v0.392h0.327v-0.392
		h0.3V42.55h-0.3v-1.281H15.172z"/>
	<path fill="none" stroke="#007DC5" stroke-width="0.045" d="M15.172,41.713v0.837h-0.784L15.172,41.713z M15.172,41.269
		L13.97,42.55v0.313h1.202v0.392h0.327v-0.392h0.3V42.55h-0.3v-1.281H15.172z"/>
	<polygon fill="#FFDD00" points="4.587,16.831 4.456,16.805 4.352,16.726 4.273,16.609 4.247,16.479 4.247,15.995 4.247,15.563 
		4.247,15.171 4.247,14.832 4.247,14.531 4.247,14.283 4.247,14.087 4.247,13.943 4.247,13.655 4.247,13.303 4.247,12.884 
		4.247,12.414 4.273,12.283 4.352,12.167 4.456,12.087 4.587,12.062 15.812,12.062 15.943,12.087 16.061,12.167 16.139,12.283 
		16.165,12.414 16.165,16.479 16.139,16.609 16.061,16.726 15.943,16.805 15.812,16.831 	"/>
	<polygon fill="#FFDD00" points="19.955,28.619 19.824,28.593 19.707,28.515 19.628,28.397 19.602,28.266 19.602,27.783 
		19.602,27.351 19.602,26.959 19.602,26.62 19.602,26.319 19.602,26.071 19.602,25.875 19.602,25.718 19.602,25.443 19.602,25.09 
		19.602,24.672 19.602,24.202 19.628,24.071 19.707,23.954 19.824,23.875 19.955,23.849 31.167,23.849 31.298,23.875 31.416,23.954 
		31.494,24.071 31.52,24.202 31.52,28.266 31.494,28.397 31.416,28.515 31.298,28.593 31.167,28.619 	"/>
	<polygon fill="#FFFFFF" points="9.736,21.313 8.573,21.588 8.494,21.602 8.429,21.575 8.377,21.522 8.351,21.445 8.351,21.379 
		8.377,21.313 10.05,18.896 10.076,18.87 10.102,18.844 10.128,18.831 10.167,18.818 10.206,18.818 10.233,18.818 10.272,18.831 
		10.298,18.844 10.337,18.87 10.35,18.896 12.023,21.313 12.049,21.379 12.049,21.445 12.023,21.522 11.971,21.575 11.905,21.602 
		11.827,21.588 10.664,21.313 10.664,25.77 15.12,25.77 14.846,24.606 14.846,24.529 14.872,24.463 14.924,24.411 14.989,24.385 
		15.055,24.385 15.12,24.411 17.538,26.083 17.564,26.11 17.59,26.136 17.603,26.162 17.616,26.201 17.616,26.241 17.616,26.267 
		17.603,26.306 17.59,26.332 17.564,26.371 17.538,26.384 15.12,28.057 15.055,28.083 14.989,28.083 14.924,28.057 14.872,28.005 
		14.846,27.939 14.846,27.861 15.12,26.698 10.664,26.698 10.664,37.897 9.736,37.897 	"/>
	<polygon fill="none" stroke="#007DC5" stroke-width="0.045" points="9.736,21.313 8.573,21.588 8.494,21.602 8.429,21.575 
		8.377,21.522 8.351,21.445 8.351,21.379 8.377,21.313 10.05,18.896 10.076,18.87 10.102,18.844 10.128,18.831 10.167,18.818 
		10.206,18.818 10.233,18.818 10.272,18.831 10.298,18.844 10.337,18.87 10.35,18.896 12.023,21.313 12.049,21.379 12.049,21.445 
		12.023,21.522 11.971,21.575 11.905,21.602 11.827,21.588 10.664,21.313 10.664,25.77 15.12,25.77 14.846,24.606 14.846,24.529 
		14.872,24.463 14.924,24.411 14.989,24.385 15.055,24.385 15.12,24.411 17.538,26.083 17.564,26.11 17.59,26.136 17.603,26.162 
		17.616,26.201 17.616,26.241 17.616,26.267 17.603,26.306 17.59,26.332 17.564,26.371 17.538,26.384 15.12,28.057 15.055,28.083 
		14.989,28.083 14.924,28.057 14.872,28.005 14.846,27.939 14.846,27.861 15.12,26.698 10.664,26.698 10.664,37.897 9.736,37.897 	
		"/>
	<polygon points="7.449,13.107 7.449,15.786 6.952,15.786 5.802,14.1 5.802,15.786 5.293,15.786 5.293,14.453 5.293,13.107 
		5.75,13.107 6.952,14.845 6.952,13.107 	"/>
	<polygon fill="none" stroke="#FFDD00" stroke-width="0.045" points="7.449,13.107 7.449,15.786 6.952,15.786 5.802,14.1 
		5.802,15.786 5.293,15.786 5.293,14.453 5.293,13.107 5.75,13.107 6.952,14.845 6.952,13.107 	"/>
	<polygon points="11.905,13.133 11.892,13.159 11.866,13.185 11.84,13.225 11.788,13.264 11.736,13.303 11.683,13.342 
		11.618,13.368 11.566,13.381 11.526,13.394 11.474,13.408 11.474,13.826 11.827,13.826 11.827,15.786 12.324,15.786 12.324,13.133 
			"/>
	<polygon fill="none" stroke="#FFDD00" stroke-width="0.045" points="12.323,13.133 12.323,15.786 11.826,15.786 11.826,13.826 
		11.474,13.826 11.474,13.408 11.526,13.394 11.565,13.381 11.617,13.368 11.683,13.342 11.735,13.303 11.787,13.264 11.84,13.225 
		11.866,13.185 11.892,13.159 11.905,13.133 	"/>
	<polygon points="10.859,15.263 10.859,15.786 8.716,15.786 8.716,15.72 8.716,15.629 8.743,15.459 8.794,15.237 8.887,15.015 
		9.043,14.78 9.226,14.57 9.449,14.414 9.67,14.296 9.893,14.217 10.141,14.152 10.22,14.126 10.271,14.087 10.324,14.035 
		10.336,13.982 10.35,13.943 10.363,13.878 10.35,13.812 10.311,13.747 10.22,13.682 10.088,13.629 9.932,13.59 9.774,13.577 
		9.645,13.59 9.514,13.616 9.382,13.655 9.266,13.708 9.187,13.76 9.108,13.812 9.069,13.852 9.017,13.891 8.678,13.525 
		8.716,13.499 8.769,13.447 8.887,13.355 9.057,13.263 9.24,13.185 9.422,13.133 9.604,13.094 9.801,13.081 10.023,13.094 
		10.271,13.159 10.52,13.277 10.715,13.46 10.82,13.655 10.859,13.878 10.847,14.087 10.782,14.257 10.677,14.414 10.545,14.518 
		10.375,14.597 10.18,14.662 10.023,14.714 9.854,14.766 9.723,14.832 9.619,14.897 9.514,14.988 9.436,15.08 9.382,15.158 
		9.344,15.224 9.317,15.263 	"/>
	<polygon fill="none" stroke="#FFDD00" stroke-width="0.045" points="10.859,15.263 10.859,15.786 8.716,15.786 8.716,15.72 
		8.716,15.629 8.743,15.459 8.794,15.237 8.887,15.015 9.043,14.78 9.226,14.57 9.449,14.414 9.67,14.296 9.893,14.217 
		10.141,14.152 10.22,14.126 10.271,14.087 10.324,14.035 10.336,13.982 10.35,13.943 10.363,13.878 10.35,13.812 10.311,13.747 
		10.22,13.682 10.088,13.629 9.932,13.59 9.774,13.577 9.645,13.59 9.514,13.616 9.382,13.655 9.266,13.708 9.187,13.76 
		9.108,13.812 9.069,13.852 9.017,13.891 8.678,13.525 8.716,13.499 8.769,13.447 8.887,13.355 9.057,13.263 9.24,13.185 
		9.422,13.133 9.604,13.094 9.801,13.081 10.023,13.094 10.271,13.159 10.52,13.277 10.715,13.46 10.82,13.655 10.859,13.878 
		10.847,14.087 10.782,14.257 10.677,14.414 10.545,14.518 10.375,14.597 10.18,14.662 10.023,14.714 9.854,14.766 9.723,14.832 
		9.619,14.897 9.514,14.988 9.436,15.08 9.382,15.158 9.344,15.224 9.317,15.263 	"/>
	<polygon points="22.817,24.895 22.817,27.573 22.307,27.573 21.17,25.887 21.17,27.573 20.648,27.573 20.648,26.24 20.648,24.895 
		21.105,24.895 22.307,26.632 22.307,24.895 	"/>
	<polygon fill="none" stroke="#FFDD00" stroke-width="0.045" points="22.817,24.895 22.817,27.573 22.307,27.573 21.17,25.887 
		21.17,27.573 20.648,27.573 20.648,26.24 20.648,24.895 21.105,24.895 22.307,26.632 22.307,24.895 	"/>
	<polygon points="27.26,24.92 27.247,24.946 27.235,24.972 27.195,25.012 27.156,25.051 27.091,25.09 27.038,25.13 26.973,25.156 
		26.92,25.168 26.881,25.182 26.829,25.195 26.829,25.613 27.182,25.613 27.182,27.573 27.679,27.573 27.679,24.92 	"/>
	<polygon fill="none" stroke="#FFDD00" stroke-width="0.045" points="27.678,24.92 27.678,27.573 27.181,27.573 27.181,25.612 
		26.829,25.612 26.829,25.195 26.881,25.182 26.92,25.168 26.972,25.155 27.037,25.129 27.09,25.09 27.155,25.051 27.195,25.012 
		27.234,24.973 27.247,24.946 27.26,24.92 	"/>
	<polygon points="26.228,27.051 26.228,27.574 24.072,27.574 24.072,27.508 24.072,27.417 24.098,27.247 24.149,27.025 
		24.254,26.803 24.398,26.567 24.594,26.357 24.816,26.202 25.026,26.083 25.248,26.005 25.496,25.939 25.575,25.914 25.64,25.875 
		25.679,25.823 25.705,25.77 25.705,25.718 25.719,25.666 25.705,25.6 25.666,25.535 25.575,25.47 25.444,25.417 25.287,25.378 
		25.143,25.365 25,25.378 24.869,25.404 24.738,25.444 24.621,25.496 24.542,25.548 24.464,25.6 24.425,25.639 24.386,25.679 
		24.033,25.313 24.072,25.273 24.137,25.235 24.254,25.143 24.412,25.051 24.594,24.973 24.777,24.921 24.959,24.882 25.156,24.869 
		25.378,24.882 25.626,24.947 25.875,25.063 26.071,25.235 26.176,25.444 26.215,25.666 26.202,25.875 26.137,26.045 26.032,26.188 
		25.901,26.306 25.73,26.385 25.535,26.45 25.378,26.501 25.208,26.541 25.078,26.606 24.974,26.685 24.869,26.776 24.791,26.868 
		24.738,26.946 24.699,26.999 24.673,27.051 	"/>
	<polygon fill="none" stroke="#FFDD00" stroke-width="0.045" points="26.228,27.051 26.228,27.574 24.072,27.574 24.072,27.508 
		24.072,27.417 24.098,27.247 24.149,27.025 24.254,26.803 24.398,26.567 24.594,26.357 24.816,26.202 25.026,26.083 25.248,26.005 
		25.496,25.939 25.575,25.914 25.64,25.875 25.679,25.823 25.705,25.77 25.705,25.718 25.719,25.666 25.705,25.6 25.666,25.535 
		25.575,25.47 25.444,25.417 25.287,25.378 25.143,25.365 25,25.378 24.869,25.404 24.738,25.444 24.621,25.496 24.542,25.548 
		24.464,25.6 24.425,25.639 24.386,25.679 24.033,25.313 24.072,25.273 24.137,25.235 24.254,25.143 24.412,25.051 24.594,24.973 
		24.777,24.921 24.959,24.882 25.156,24.869 25.378,24.882 25.626,24.947 25.875,25.063 26.071,25.235 26.176,25.444 26.215,25.666 
		26.202,25.875 26.137,26.045 26.032,26.188 25.901,26.306 25.73,26.385 25.535,26.45 25.378,26.501 25.208,26.541 25.078,26.606 
		24.974,26.685 24.869,26.776 24.791,26.868 24.738,26.946 24.699,26.999 24.673,27.051 	"/>
	<path d="M30.03,26.241l-0.013,0.196l-0.039,0.183l-0.052,0.144l-0.079,0.13l-0.078,0.092l-0.105,0.065l-0.13,0.039h-0.131h-0.104
		l-0.105-0.039l-0.118-0.065l-0.091-0.092l-0.092-0.117l-0.052-0.157l-0.039-0.183l-0.013-0.196l0.013-0.183l0.039-0.183l0.052-0.17
		l0.092-0.131l0.078-0.091l0.092-0.052l0.118-0.04l0.117-0.013h0.118l0.117,0.039l0.105,0.066l0.104,0.078l0.079,0.144l0.065,0.17
		l0.039,0.183L30.03,26.241z M30.501,25.888l-0.066-0.275l-0.117-0.222l-0.144-0.196l-0.183-0.143l-0.196-0.105l-0.209-0.065
		l-0.209-0.013l-0.183,0.026l-0.196,0.052l-0.196,0.105l-0.17,0.143l-0.131,0.183l-0.104,0.235L28.319,25.9l-0.027,0.314
		l0.027,0.326l0.065,0.288l0.104,0.222l0.118,0.17l0.17,0.17l0.209,0.117l0.222,0.066l0.209,0.026l0.196-0.026l0.209-0.066
		l0.209-0.117l0.183-0.157l0.131-0.196l0.104-0.222l0.053-0.288l0.026-0.326L30.501,25.888z"/>
	<path fill="none" stroke="#FFDD00" stroke-width="0.045" d="M30.03,26.241l-0.013,0.196l-0.039,0.183l-0.052,0.144l-0.079,0.13
		l-0.078,0.092l-0.105,0.065l-0.13,0.039h-0.131h-0.104l-0.105-0.039l-0.118-0.065l-0.091-0.092l-0.092-0.117l-0.052-0.157
		l-0.039-0.183l-0.013-0.196l0.013-0.183l0.039-0.183l0.052-0.17l0.092-0.131l0.078-0.091l0.092-0.052l0.118-0.04l0.117-0.013h0.118
		l0.117,0.039l0.105,0.066l0.104,0.078l0.079,0.144l0.065,0.17l0.039,0.183L30.03,26.241z M30.501,25.888l-0.066-0.275l-0.117-0.222
		l-0.144-0.196l-0.183-0.143l-0.196-0.105l-0.209-0.065l-0.209-0.013l-0.183,0.026l-0.196,0.052l-0.196,0.105l-0.17,0.143
		l-0.131,0.183l-0.104,0.235L28.319,25.9l-0.027,0.314l0.027,0.326l0.065,0.288l0.104,0.222l0.118,0.17l0.17,0.17l0.209,0.117
		l0.222,0.066l0.209,0.026l0.196-0.026l0.209-0.066l0.209-0.117l0.183-0.157l0.131-0.196l0.104-0.222l0.053-0.288l0.026-0.326
		L30.501,25.888z"/>
	<polygon points="15.172,15.263 15.172,15.786 13.016,15.786 13.016,15.72 13.016,15.629 13.042,15.459 13.094,15.237 
		13.199,15.015 13.342,14.78 13.538,14.57 13.747,14.414 13.97,14.296 14.192,14.217 14.44,14.152 14.519,14.126 14.584,14.087 
		14.623,14.035 14.649,13.982 14.662,13.943 14.662,13.878 14.649,13.812 14.61,13.747 14.532,13.682 14.401,13.629 14.231,13.59 
		14.087,13.577 13.944,13.59 13.813,13.616 13.682,13.655 13.565,13.708 13.486,13.76 13.421,13.812 13.369,13.852 13.329,13.891 
		12.977,13.525 13.016,13.499 13.081,13.447 13.186,13.355 13.355,13.263 13.538,13.185 13.721,13.133 13.904,13.094 14.1,13.081 
		14.323,13.094 14.571,13.159 14.819,13.277 15.015,13.46 15.12,13.655 15.159,13.878 15.146,14.087 15.08,14.257 14.976,14.414 
		14.845,14.518 14.675,14.597 14.479,14.662 14.323,14.714 14.153,14.766 14.022,14.832 13.917,14.897 13.813,14.988 13.735,15.08 
		13.682,15.158 13.643,15.224 13.617,15.263 	"/>
	<polygon fill="none" stroke="#FFDD00" stroke-width="0.045" points="15.172,15.263 15.172,15.786 13.016,15.786 13.016,15.72 
		13.016,15.629 13.042,15.459 13.094,15.237 13.199,15.015 13.342,14.78 13.538,14.57 13.747,14.414 13.97,14.296 14.192,14.217 
		14.44,14.152 14.519,14.126 14.584,14.087 14.623,14.035 14.649,13.982 14.662,13.943 14.662,13.878 14.649,13.812 14.61,13.747 
		14.532,13.682 14.401,13.629 14.231,13.59 14.087,13.577 13.944,13.59 13.813,13.616 13.682,13.655 13.565,13.708 13.486,13.76 
		13.421,13.812 13.369,13.852 13.329,13.891 12.977,13.525 13.016,13.499 13.081,13.447 13.186,13.355 13.355,13.263 13.538,13.185 
		13.721,13.133 13.904,13.094 14.1,13.081 14.323,13.094 14.571,13.159 14.819,13.277 15.015,13.46 15.12,13.655 15.159,13.878 
		15.146,14.087 15.08,14.257 14.976,14.414 14.845,14.518 14.675,14.597 14.479,14.662 14.323,14.714 14.153,14.766 14.022,14.832 
		13.917,14.897 13.813,14.988 13.735,15.08 13.682,15.158 13.643,15.224 13.617,15.263 	"/>
	<polygon points="22.02,45.725 21.536,48.378 21.066,48.378 20.622,46.64 20.177,48.378 19.707,48.378 19.223,45.725 19.668,45.725 
		19.968,47.385 20.399,45.725 20.831,45.725 21.275,47.385 21.576,45.725 	"/>
	<polygon fill="none" stroke="#FFDD00" stroke-width="0.045" points="22.02,45.725 21.536,48.378 21.066,48.378 20.622,46.64 
		20.177,48.378 19.707,48.378 19.223,45.725 19.668,45.725 19.968,47.385 20.399,45.725 20.831,45.725 21.275,47.385 21.576,45.725 
			"/>
	<path d="M23.392,47.973l-0.105-0.026l-0.104-0.053l-0.066-0.104l-0.065-0.131l-0.026-0.143l-0.013-0.158l0.013-0.169l0.039-0.157
		l0.066-0.105l0.078-0.078l0.092-0.052l0.104-0.026l0.104,0.026l0.105,0.052l0.079,0.078l0.052,0.105l0.039,0.144l0.013,0.182
		l-0.013,0.17l-0.026,0.144l-0.065,0.131l-0.079,0.091l-0.105,0.066L23.392,47.973z M23.614,48.365l0.209-0.091l0.196-0.157
		l0.144-0.223l0.091-0.261l0.026-0.275l-0.039-0.287l-0.078-0.248l-0.144-0.196l-0.183-0.144l-0.209-0.091l-0.222-0.027
		l-0.222,0.027l-0.196,0.091l-0.196,0.157l-0.144,0.209l-0.079,0.235l-0.039,0.274l0.026,0.275l0.079,0.261l0.144,0.223l0.209,0.157
		l0.209,0.091l0.196,0.026L23.614,48.365z"/>
	<path fill="none" stroke="#FFDD00" stroke-width="0.045" d="M23.392,47.973l-0.105-0.026l-0.104-0.053l-0.066-0.104l-0.065-0.131
		l-0.026-0.143l-0.013-0.158l0.013-0.169l0.039-0.157l0.066-0.105l0.078-0.078l0.092-0.052l0.104-0.026l0.104,0.026l0.105,0.052
		l0.079,0.078l0.052,0.105l0.039,0.144l0.013,0.182l-0.013,0.17l-0.026,0.144l-0.065,0.131l-0.079,0.091l-0.105,0.066L23.392,47.973
		z M23.614,48.365l0.209-0.091l0.196-0.157l0.144-0.223l0.091-0.261l0.026-0.275l-0.039-0.287l-0.078-0.248l-0.144-0.196
		l-0.183-0.144l-0.209-0.091l-0.222-0.027l-0.222,0.027l-0.196,0.091l-0.196,0.157l-0.144,0.209l-0.079,0.235l-0.039,0.274
		l0.026,0.275l0.079,0.261l0.144,0.223l0.209,0.157l0.209,0.091l0.196,0.026L23.614,48.365z"/>
	<polygon points="27.861,46.378 27.861,46.548 27.887,46.509 27.926,46.483 28.005,46.443 28.096,46.392 28.201,46.365 
		28.305,46.353 28.397,46.365 28.488,46.378 28.554,46.417 28.606,46.43 28.632,46.457 28.671,46.483 28.527,46.966 28.501,46.94 
		28.488,46.915 28.436,46.888 28.371,46.861 28.305,46.835 28.227,46.835 28.149,46.849 28.07,46.875 27.979,46.94 27.914,47.031 
		27.874,47.136 27.861,47.24 27.861,48.364 27.39,48.364 27.39,46.378 	"/>
	<polygon fill="none" stroke="#FFDD00" stroke-width="0.045" points="27.861,46.378 27.861,46.548 27.887,46.509 27.926,46.483 
		28.005,46.443 28.096,46.392 28.201,46.365 28.305,46.353 28.397,46.365 28.488,46.378 28.554,46.417 28.606,46.43 28.632,46.457 
		28.671,46.483 28.527,46.966 28.501,46.94 28.488,46.915 28.436,46.888 28.371,46.861 28.305,46.835 28.227,46.835 28.149,46.849 
		28.07,46.875 27.979,46.94 27.914,47.031 27.874,47.136 27.861,47.24 27.861,48.364 27.39,48.364 27.39,46.378 	"/>
	<path d="M30.318,47.777l-0.039,0.052l-0.066,0.039l-0.091,0.052l-0.131,0.026l-0.104-0.026l-0.105-0.039l-0.091-0.078l-0.066-0.092
		l-0.052-0.144l-0.026-0.17l0.013-0.156l0.039-0.144l0.066-0.105l0.091-0.091l0.118-0.052l0.13-0.027l0.131,0.027l0.105,0.052
		l0.039,0.039l0.039,0.039V47.777z M30.318,46.535l-0.052-0.039L30.2,46.457l-0.143-0.066l-0.183-0.013l-0.197,0.013l-0.169,0.092
		l-0.17,0.13l-0.131,0.209l-0.104,0.275l-0.026,0.314l0.039,0.287l0.091,0.248l0.144,0.196l0.144,0.144l0.182,0.079l0.197,0.026
		l0.183-0.026l0.143-0.053l0.079-0.039l0.039-0.026v0.118h0.47V45.66l-0.47,0.169V46.535z"/>
	<path fill="none" stroke="#FFDD00" stroke-width="0.045" d="M30.318,47.777l-0.039,0.052l-0.066,0.039l-0.091,0.052l-0.131,0.026
		l-0.104-0.026l-0.105-0.039l-0.091-0.078l-0.066-0.092l-0.052-0.144l-0.026-0.17l0.013-0.156l0.039-0.144l0.066-0.105l0.091-0.091
		l0.118-0.052l0.13-0.027l0.131,0.027l0.105,0.052l0.039,0.039l0.039,0.039V47.777z M30.318,46.535l-0.052-0.039L30.2,46.457
		l-0.143-0.066l-0.183-0.013l-0.197,0.013l-0.169,0.092l-0.17,0.13l-0.131,0.209l-0.104,0.275l-0.026,0.314l0.039,0.287l0.091,0.248
		l0.144,0.196l0.144,0.144l0.182,0.079l0.197,0.026l0.183-0.026l0.143-0.053l0.079-0.039l0.039-0.026v0.118h0.47V45.66l-0.47,0.169
		V46.535z"/>
	<polygon points="34.578,46.378 34.578,46.522 34.63,46.497 34.682,46.457 34.748,46.43 34.839,46.392 34.957,46.365 35.062,46.353 
		35.179,46.365 35.323,46.392 35.48,46.469 35.623,46.587 35.728,46.731 35.793,46.875 35.819,47.019 35.819,47.188 35.819,48.378 
		35.349,48.378 35.349,47.188 35.31,47.044 35.231,46.927 35.114,46.835 34.97,46.81 34.826,46.835 34.696,46.927 34.617,47.044 
		34.578,47.201 34.578,48.378 34.107,48.378 34.107,46.378 	"/>
	<polygon fill="none" stroke="#FFDD00" stroke-width="0.045" points="34.578,46.378 34.578,46.522 34.63,46.497 34.682,46.457 
		34.748,46.43 34.839,46.392 34.957,46.365 35.062,46.353 35.179,46.365 35.323,46.392 35.48,46.469 35.623,46.587 35.728,46.731 
		35.793,46.875 35.819,47.019 35.819,47.188 35.819,48.378 35.349,48.378 35.349,47.188 35.31,47.044 35.231,46.927 35.114,46.835 
		34.97,46.81 34.826,46.835 34.696,46.927 34.617,47.044 34.578,47.201 34.578,48.378 34.107,48.378 34.107,46.378 	"/>
	<path d="M26.568,47.489h-1.216v0.052l0.013,0.053l0.013,0.091l0.04,0.092l0.052,0.078l0.078,0.065l0.092,0.039l0.078,0.014h0.078
		l0.092-0.027l0.078-0.026l0.053-0.039l0.039-0.026l0.039-0.026l0.327,0.248l-0.052,0.052l-0.053,0.053l-0.117,0.078l-0.17,0.078
		l-0.157,0.04h-0.183l-0.196-0.027L25.3,48.273l-0.17-0.144l-0.131-0.183l-0.091-0.248l-0.039-0.314l0.039-0.313l0.091-0.262
		l0.118-0.196l0.17-0.13l0.209-0.092l0.222-0.039l0.222,0.026l0.21,0.092l0.195,0.156l0.144,0.209l0.052,0.249l0.027,0.209v0.118
		V47.489z M26.084,47.084l-0.013-0.052l-0.013-0.053l-0.039-0.052l-0.053-0.065l-0.065-0.04l-0.091-0.039l-0.092-0.013l-0.091,0.013
		l-0.079,0.039l-0.052,0.04l-0.052,0.065l-0.04,0.052l-0.013,0.053l-0.013,0.052l-0.013,0.039h0.732L26.084,47.084z"/>
	<path fill="none" stroke="#FFDD00" stroke-width="0.045" d="M26.568,47.489h-1.216v0.052l0.013,0.053l0.013,0.091l0.04,0.092
		l0.052,0.078l0.078,0.065l0.092,0.039l0.078,0.014h0.078l0.092-0.027l0.078-0.026l0.053-0.039l0.039-0.026l0.039-0.026l0.327,0.248
		l-0.052,0.052l-0.053,0.053l-0.117,0.078l-0.17,0.078l-0.157,0.04h-0.183l-0.196-0.027L25.3,48.273l-0.17-0.144l-0.131-0.183
		l-0.091-0.248l-0.039-0.314l0.039-0.313l0.091-0.262l0.118-0.196l0.17-0.13l0.209-0.092l0.222-0.039l0.222,0.026l0.21,0.092
		l0.195,0.156l0.144,0.209l0.052,0.249l0.027,0.209v0.118V47.489z M26.084,47.084l-0.013-0.052l-0.013-0.053l-0.039-0.052
		l-0.053-0.065l-0.065-0.04l-0.091-0.039l-0.092-0.013l-0.091,0.013l-0.079,0.039l-0.052,0.04l-0.052,0.065l-0.04,0.052
		l-0.013,0.053l-0.013,0.052l-0.013,0.039h0.732L26.084,47.084z"/>
	<path d="M33.272,47.489h-1.216l0.013,0.052v0.053l0.013,0.091l0.04,0.092l0.065,0.078l0.065,0.065l0.092,0.039l0.078,0.014h0.091
		l0.092-0.027l0.065-0.026l0.053-0.039l0.039-0.026l0.039-0.026l0.327,0.248l-0.053,0.052l-0.052,0.053l-0.117,0.078l-0.157,0.078
		l-0.17,0.04h-0.183l-0.183-0.027l-0.196-0.091l-0.17-0.131l-0.131-0.183l-0.104-0.248l-0.026-0.314l0.026-0.313l0.091-0.262
		l0.131-0.196l0.157-0.13l0.209-0.092l0.222-0.039l0.222,0.026l0.209,0.092l0.209,0.156l0.131,0.209l0.065,0.249l0.014,0.209v0.118
		V47.489z M32.788,47.084v-0.052l-0.026-0.053l-0.039-0.052l-0.053-0.065l-0.065-0.04l-0.078-0.039l-0.092-0.013l-0.091,0.013
		l-0.079,0.039l-0.065,0.04l-0.053,0.065l-0.025,0.052l-0.027,0.053l-0.013,0.052v0.039h0.719L32.788,47.084z"/>
	<path fill="none" stroke="#FFDD00" stroke-width="0.045" d="M33.272,47.489h-1.216l0.013,0.052v0.053l0.013,0.091l0.04,0.092
		l0.065,0.078l0.065,0.065l0.092,0.039l0.078,0.014h0.091l0.092-0.027l0.065-0.026l0.053-0.039l0.039-0.026l0.039-0.026l0.327,0.248
		l-0.053,0.052l-0.052,0.053l-0.117,0.078l-0.157,0.078l-0.17,0.04h-0.183l-0.183-0.027l-0.196-0.091l-0.17-0.131l-0.131-0.183
		l-0.104-0.248l-0.026-0.314l0.026-0.313l0.091-0.262l0.131-0.196l0.157-0.13l0.209-0.092l0.222-0.039l0.222,0.026l0.209,0.092
		l0.209,0.156l0.131,0.209l0.065,0.249l0.014,0.209v0.118V47.489z M32.788,47.084v-0.052l-0.026-0.053l-0.039-0.052l-0.053-0.065
		l-0.065-0.04l-0.078-0.039l-0.092-0.013l-0.091,0.013l-0.079,0.039l-0.065,0.04l-0.053,0.065l-0.025,0.052l-0.027,0.053
		l-0.013,0.052v0.039h0.719L32.788,47.084z"/>
	<polygon fill="#FFDD00" points="11.095,9.983 19.668,11.042 19.759,10.245 11.2,9.2 	"/>
	<polygon fill="#FFDD00" points="11.095,8.01 19.668,6.951 19.759,7.75 11.2,8.794 	"/>
	<polygon fill="#FFDD00" points="10.729,8.01 2.156,6.951 2.052,7.75 10.625,8.794 	"/>
	<polygon fill="#FFDD00" points="10.729,9.983 2.156,11.042 2.052,10.245 10.625,9.2 	"/>
</g>
<g id="Layer_9">
</g>
<g id="Layer_8">
</g>
<g id="Layer_7">
</g>
<g id="Layer_6">
</g>
<g id="Layer_5">
</g>
<g id="Layer_4">
</g>
<g id="Layer_3">
</g>
<g id="Layer_2">
</g>
</svg>
