<?xml version="1.0" encoding="utf-8"?>
<!-- Generator: Adobe Illustrator 16.0.0, SVG Export Plug-In . SVG Version: 6.00 Build 0)  -->
<!DOCTYPE svg PUBLIC "-//W3C//DTD SVG 1.1//EN" "http://www.w3.org/Graphics/SVG/1.1/DTD/svg11.dtd">
<svg version="1.1" xmlns="http://www.w3.org/2000/svg" xmlns:xlink="http://www.w3.org/1999/xlink" x="0px" y="0px"
	 width="50.315px" height="44px" viewBox="0 0 50.315 44" enable-background="new 0 0 50.315 44" xml:space="preserve">
<g id="Layer_1">
</g>
<g id="Layer_10">
</g>
<g id="Layer_9">
</g>
<g id="Layer_8">
</g>
<g id="Layer_7">
</g>
<g id="Layer_6">
</g>
<g id="Layer_5">
</g>
<g id="Layer_4">
</g>
<g id="Layer_3">
</g>
<g id="Layer_2">
	<rect x="7.641" y="4.664" fill="#007DC5" width="35.234" height="35.234"/>
	<path fill="none" stroke="#FFFFFF" stroke-width="0.794" d="M40.092,38.971c1.024,0,1.854-0.83,1.854-1.854V7.445
		c0-1.024-0.83-1.854-1.854-1.854h-29.67c-1.025,0-1.855,0.83-1.855,1.854v29.671c0,1.024,0.83,1.854,1.855,1.854H40.092z"/>
	<path fill="#FFFFFF" d="M21.492,24.647h-2.444v3.401h-2.046v-3.4l-6.575-0.06v-1.995l5.861-8.332h2.76v8.34h2.444V24.647z
		 M17.002,22.602c0-3.726,0.023-5.459,0.023-5.936l-4.266,5.936H17.002z"/>
	<path fill="#FFFFFF" d="M24.687,19.239c1.81-1.561,3.004-1.624,4.403-1.624c2.221,0,3.621,1.178,3.621,2.929
		c0,1.818-1.77,2.229-3.786,3.407c-1.59,0.929-2.098,1.624-2.139,2.674h6.171l-0.041,1.412H24.48
		c0.082-1.237,0.078-3.054,2.593-4.723c2.09-1.386,3.826-1.814,3.909-2.865c0.082-1.049-1.112-1.465-2.222-1.465
		c-1.601,0-2.264,0.572-2.84,1.338L24.687,19.239z"/>
	<path fill="#FFFFFF" d="M23.042,27.706c-0.432,1.285-1.379,1.402-1.379,1.402l-0.159-0.415c0.17-0.17,0.467-0.34,0.527-0.682
		c0,0-0.52,0.257-0.868-0.255c-0.347-0.51-0.248-1.172,0.128-1.53c0.376-0.36,1.207-0.288,1.616,0.17
		C23.354,26.896,23.042,27.706,23.042,27.706"/>
	<path fill="#FFFFFF" d="M35.529,23.614h-0.064c0.267-0.651,0.793-0.813,1.246-0.836c0.602-0.031,1.222,0.424,1.278,0.877
		c-0.064-0.514,0.936-0.877,1.459-0.877c0.545,0,1.502,0.407,1.502,1.62v3.658h-1.035v-3.068c-0.055-0.492,0.101-1.204-0.861-1.204
		c-0.258,0-0.61,0.166-0.662,0.491c-0.077,0.485-0.089,0.991-0.089,1.115v2.666h-0.982v-3.068c0-0.899-0.395-1.173-0.852-1.173
		c-0.416,0-0.723,0.249-0.887,0.69c-0.098,0.268-0.035,0.761-0.035,0.885v2.666H34.62v-5.124h0.909V23.614z"/>
	<polygon fill="#FFFFFF" points="18.758,6.658 25.258,13.158 31.757,6.658 	"/>
	<polygon fill="#FFFFFF" points="25.258,31.553 18.758,38.053 31.758,38.053 	"/>
	<rect fill="none" width="50.315" height="44"/>
</g>
</svg>
