<?xml version="1.0" encoding="utf-8"?>
<!-- Generator: Adobe Illustrator 16.0.0, SVG Export Plug-In . SVG Version: 6.00 Build 0)  -->
<!DOCTYPE svg PUBLIC "-//W3C//DTD SVG 1.1//EN" "http://www.w3.org/Graphics/SVG/1.1/DTD/svg11.dtd">
<svg version="1.1" id="Layer_1" xmlns="http://www.w3.org/2000/svg" xmlns:xlink="http://www.w3.org/1999/xlink" x="0px" y="0px"
	 width="50.314px" height="44px" viewBox="0 0 50.314 44" enable-background="new 0 0 50.314 44" xml:space="preserve">
<rect x="8.393" y="5.187" fill="#007DC5" width="33.518" height="33.406"/>
<g>
	<defs>
		<rect id="SVGID_25_" width="50.314" height="44"/>
	</defs>
	<clipPath id="SVGID_2_">
		<use xlink:href="#SVGID_25_"  overflow="visible"/>
	</clipPath>
	<path clip-path="url(#SVGID_2_)" fill="none" stroke="#FFFFFF" stroke-width="0.703" d="M39.447,37.713
		c0.907,0,1.642-0.787,1.642-1.758V7.823c0-0.971-0.734-1.758-1.642-1.758H10.855c-0.907,0-1.643,0.787-1.643,1.758v28.132
		c0,0.971,0.735,1.758,1.643,1.758H39.447z"/>
	<path clip-path="url(#SVGID_2_)" fill="#FFFFFF" d="M30.046,20.574h2.28l-0.481-2.072c-0.198-0.501,0.061-0.896,0.545-0.613
		l4.54,3.161c0.406,0.286,0.406,0.527,0,0.813l-4.54,3.161c-0.484,0.283-0.743-0.112-0.545-0.613l0.481-2.072h-2.28V20.574z"/>
	<path clip-path="url(#SVGID_2_)" fill="#FFFFFF" d="M18.178,34.024v-11.73h1.685v-1.685h-1.685v-6.812l2.071,0.482
		c0.501,0.198,0.896-0.061,0.613-0.546l-3.161-4.54c-0.286-0.406-0.526-0.406-0.813,0l-3.161,4.54
		c-0.283,0.485,0.112,0.744,0.613,0.546l2.071-0.482v20.227H18.178z"/>
	<path clip-path="url(#SVGID_2_)" fill="#ED1C24" d="M25.05,26.143c2.555,0,4.625-2.071,4.625-4.625s-2.07-4.625-4.625-4.625
		c-2.554,0-4.625,2.071-4.625,4.625S22.496,26.143,25.05,26.143"/>
	<circle clip-path="url(#SVGID_2_)" fill="none" stroke="#FFFFFF" stroke-width="0.22" cx="25.05" cy="21.518" r="4.625"/>
	<path clip-path="url(#SVGID_2_)" fill="#FFFFFF" d="M25.048,24.938c1.89,0,3.422-1.532,3.422-3.422
		c0-1.889-1.532-3.421-3.422-3.421c-1.891,0-3.422,1.532-3.422,3.421C21.626,23.406,23.157,24.938,25.048,24.938"/>
	<path clip-path="url(#SVGID_2_)" d="M27.813,20.258h-4.21l-0.009,1.394c0,0-0.041,0.025-0.048-0.027
		c-0.026-0.186-0.074-0.7-0.115-1.023h-0.83l-0.372,0.859l0.086,0.644h-0.107v0.208h0.537c0.007-0.53,0.85-0.518,0.858-0.012
		l1.805-0.01c0.064-0.479,0.666-0.401,0.944-0.401c0.273,0,0.788-0.086,0.831,0.408h0.63V20.258z"/>
	<path clip-path="url(#SVGID_2_)" d="M25.857,22.74c0.216,0,0.392-0.176,0.392-0.392c0-0.216-0.176-0.392-0.392-0.392
		c-0.218,0-0.393,0.176-0.393,0.392C25.465,22.564,25.64,22.74,25.857,22.74"/>
	<path clip-path="url(#SVGID_2_)" d="M23.176,22.747c0.218,0,0.393-0.176,0.393-0.392c0-0.217-0.175-0.392-0.393-0.392
		c-0.217,0-0.392,0.175-0.392,0.392C22.784,22.571,22.959,22.747,23.176,22.747"/>
	<path clip-path="url(#SVGID_2_)" d="M26.754,22.74c0.216,0,0.393-0.176,0.393-0.392c0-0.216-0.177-0.392-0.393-0.392
		c-0.217,0-0.392,0.176-0.392,0.392C26.362,22.564,26.537,22.74,26.754,22.74"/>
	<polyline clip-path="url(#SVGID_2_)" fill="#FFFFFF" points="23.27,20.821 23.299,21.394 22.497,21.394 22.735,20.792 
		23.26,20.792 	"/>
</g>
</svg>
