<?xml version="1.0" encoding="utf-8"?>
<!-- Generator: Adobe Illustrator 16.0.0, SVG Export Plug-In . SVG Version: 6.00 Build 0)  -->
<!DOCTYPE svg PUBLIC "-//W3C//DTD SVG 1.1//EN" "http://www.w3.org/Graphics/SVG/1.1/DTD/svg11.dtd">
<svg version="1.1" id="Layer_1" xmlns="http://www.w3.org/2000/svg" xmlns:xlink="http://www.w3.org/1999/xlink" x="0px" y="0px"
	 width="50.315px" height="40.536px" viewBox="0 0 50.315 40.536" enable-background="new 0 0 50.315 40.536" xml:space="preserve">
<rect x="8.394" y="2.851" fill="#007DC5" width="33.517" height="33.406"/>
<g>
	<defs>
		<rect id="SVGID_27_" width="50.315" height="40.536"/>
	</defs>
	<clipPath id="SVGID_2_">
		<use xlink:href="#SVGID_27_"  overflow="visible"/>
	</clipPath>
	<path clip-path="url(#SVGID_2_)" fill="none" stroke="#FFFFFF" stroke-width="0.703" d="M39.448,35.377
		c0.906,0,1.642-0.787,1.642-1.758V5.487c0-0.971-0.735-1.758-1.642-1.758H10.855c-0.906,0-1.642,0.787-1.642,1.758v28.132
		c0,0.971,0.735,1.758,1.642,1.758H39.448z"/>
	<path clip-path="url(#SVGID_2_)" fill="#FFFFFF" d="M26.035,31.688V11.461l2.072,0.482c0.501,0.198,0.896-0.061,0.612-0.546
		l-3.161-4.54c-0.286-0.406-0.526-0.406-0.813,0l-3.161,4.54c-0.283,0.485,0.112,0.744,0.613,0.546l2.071-0.482v20.227H26.035z"/>
	<rect x="14.962" y="27.524" clip-path="url(#SVGID_2_)" fill="#FFFFFF" width="1.766" height="4.172"/>
	<path clip-path="url(#SVGID_2_)" fill="#FFFFFF" d="M14.962,14.817v-3.348l-2.072,0.482c-0.501,0.198-0.896-0.061-0.612-0.546
		l3.16-4.54c0.286-0.406,0.527-0.406,0.813,0l3.161,4.54c0.283,0.485-0.112,0.744-0.613,0.546l-2.072-0.482v3.348H14.962z"/>
	<path clip-path="url(#SVGID_2_)" fill="#FFFFFF" d="M35.564,31.696V11.469l2.072,0.482c0.501,0.198,0.896-0.061,0.612-0.546
		l-3.16-4.54c-0.286-0.406-0.527-0.406-0.813,0l-3.161,4.54c-0.283,0.485,0.112,0.744,0.613,0.546l2.072-0.482v20.227H35.564z"/>
	<path clip-path="url(#SVGID_2_)" fill="#ED1C24" d="M15.902,26.535c2.962,0,5.364-2.402,5.364-5.364s-2.402-5.364-5.364-5.364
		s-5.364,2.402-5.364,5.364S12.94,26.535,15.902,26.535"/>
	<circle clip-path="url(#SVGID_2_)" fill="none" stroke="#FFFFFF" stroke-width="0.22" cx="15.902" cy="21.171" r="5.364"/>
	<path clip-path="url(#SVGID_2_)" fill="#FFFFFF" d="M15.899,25.138c2.192,0,3.968-1.777,3.968-3.968
		c0-2.192-1.775-3.969-3.968-3.969s-3.968,1.777-3.968,3.969C11.932,23.36,13.707,25.138,15.899,25.138"/>
	<path clip-path="url(#SVGID_2_)" d="M16.949,21.961h-0.014c0.059-0.144,0.175-0.18,0.275-0.185
		c0.134-0.007,0.271,0.094,0.283,0.194c-0.015-0.114,0.207-0.194,0.323-0.194c0.12,0,0.332,0.09,0.332,0.359v0.81H17.92v-0.68
		c-0.012-0.109,0.022-0.266-0.19-0.266c-0.058,0-0.135,0.036-0.146,0.108c-0.017,0.108-0.02,0.22-0.02,0.248v0.59h-0.217v-0.68
		c0-0.199-0.088-0.259-0.189-0.259c-0.092,0-0.16,0.055-0.196,0.152c-0.021,0.06-0.008,0.169-0.008,0.197v0.59h-0.205V21.81h0.201
		V21.961z"/>
	<path clip-path="url(#SVGID_2_)" d="M13.966,19.912c0.487-0.543,0.809-0.565,1.186-0.565c0.597,0,0.974,0.41,0.974,1.019
		c0,0.632-0.476,0.775-1.019,1.185c-0.428,0.323-0.564,0.564-0.575,0.929h1.66l-0.011,0.491h-2.27
		c0.022-0.43,0.021-1.062,0.697-1.642c0.563-0.482,1.03-0.631,1.052-0.996c0.022-0.365-0.299-0.51-0.598-0.51
		c-0.432,0-0.609,0.2-0.765,0.465L13.966,19.912z"/>
	<path clip-path="url(#SVGID_2_)" d="M13.027,21.063l-0.833,0.704c-0.079-0.427-0.079-1.101,0-1.368L13.027,21.063z"/>
	<path clip-path="url(#SVGID_2_)" d="M18.763,21.063l0.833,0.704c0.079-0.427,0.079-1.101,0-1.368L18.763,21.063z"/>
</g>
</svg>
