<?xml version="1.0" encoding="utf-8"?>
<!-- Generator: Adobe Illustrator 16.0.0, SVG Export Plug-In . SVG Version: 6.00 Build 0)  -->
<!DOCTYPE svg PUBLIC "-//W3C//DTD SVG 1.1//EN" "http://www.w3.org/Graphics/SVG/1.1/DTD/svg11.dtd">
<svg version="1.1" id="Layer_1" xmlns="http://www.w3.org/2000/svg" xmlns:xlink="http://www.w3.org/1999/xlink" x="0px" y="0px"
	 width="50.315px" height="40.535px" viewBox="0 0 50.315 40.535" enable-background="new 0 0 50.315 40.535" xml:space="preserve">
<rect x="14.17" y="3.052" fill="#007DC5" width="21.952" height="33.418"/>
<path fill="none" stroke="#FFFFFF" stroke-width="0.753" d="M33.638,35.59c0.796,0.02,1.501-0.787,1.501-1.759V5.69
	c0-0.971-0.549-1.779-1.761-1.759H16.479c-1.17-0.02-1.397,0.788-1.397,1.759v28.141c0,0.972,0.383,1.779,1.397,1.759H33.638z"/>
<path fill="#ED1C24" d="M25.193,22.511c4.622,0,8.368-3.747,8.368-8.368c0-4.622-3.746-8.369-8.368-8.369s-8.368,3.747-8.368,8.369
	C16.825,18.764,20.571,22.511,25.193,22.511"/>
<circle fill="none" stroke="#FFFFFF" stroke-width="0.236" cx="25.193" cy="14.142" r="8.368"/>
<path fill="#FFFFFF" d="M25.188,20.331c3.419,0,6.191-2.772,6.191-6.191s-2.772-6.191-6.191-6.191s-6.191,2.772-6.191,6.191
	S21.77,20.331,25.188,20.331"/>
<path d="M26.827,15.375h-0.022c0.092-0.225,0.274-0.28,0.43-0.289c0.208-0.011,0.422,0.147,0.441,0.303
	c-0.021-0.177,0.324-0.303,0.505-0.303c0.187,0,0.518,0.141,0.518,0.56v1.263h-0.357V15.85c-0.019-0.17,0.034-0.416-0.297-0.416
	c-0.09,0-0.211,0.057-0.229,0.169c-0.027,0.168-0.031,0.343-0.031,0.386v0.92h-0.339V15.85c0-0.311-0.137-0.405-0.294-0.405
	c-0.144,0-0.25,0.086-0.307,0.238c-0.033,0.093-0.012,0.263-0.012,0.306v0.92h-0.32V15.14h0.314V15.375z"/>
<path d="M22.173,12.178c0.76-0.846,1.261-0.881,1.848-0.881c0.932,0,1.52,0.639,1.52,1.589c0,0.986-0.743,1.209-1.589,1.848
	c-0.668,0.504-0.881,0.881-0.898,1.451h2.591l-0.018,0.766h-3.54c0.034-0.671,0.032-1.657,1.088-2.562
	c0.877-0.752,1.606-0.985,1.641-1.555c0.034-0.569-0.467-0.794-0.933-0.794c-0.672,0-0.95,0.311-1.192,0.725L22.173,12.178z"/>
<path d="M20.708,13.974l-1.299,1.098c-0.124-0.665-0.124-1.717,0-2.134L20.708,13.974z"/>
<path d="M29.656,13.974l1.299,1.098c0.124-0.665,0.124-1.717,0-2.134L29.656,13.974z"/>
<path fill="#FFFFFF" d="M23.724,25.892v2.19l-4.423-0.511c-0.992-0.209-1.773,0.065-1.213,0.578l6.254,4.809
	c0.565,0.429,1.043,0.429,1.608,0l6.254-4.809c0.561-0.513-0.22-0.787-1.213-0.578l-4.423,0.511v-2.19H23.724z"/>
<rect fill="none" width="50.315" height="40.535"/>
</svg>
