<?xml version="1.0" encoding="utf-8"?>
<!-- Generator: Adobe Illustrator 16.0.0, SVG Export Plug-In . SVG Version: 6.00 Build 0)  -->
<!DOCTYPE svg PUBLIC "-//W3C//DTD SVG 1.1//EN" "http://www.w3.org/Graphics/SVG/1.1/DTD/svg11.dtd">
<svg version="1.1" id="Layer_1" xmlns="http://www.w3.org/2000/svg" xmlns:xlink="http://www.w3.org/1999/xlink" x="0px" y="0px"
	 width="50.315px" height="40.535px" viewBox="0 0 50.315 40.535" enable-background="new 0 0 50.315 40.535" xml:space="preserve">
<rect x="12.47" y="2.749" fill="#007DC5" width="24.813" height="33.439"/>
<path fill="none" stroke="#FFFFFF" stroke-width="0.754" d="M34.899,35.307c0.796,0.02,1.502-0.788,1.502-1.76V5.388
	c0-0.972-0.55-1.781-1.762-1.76H14.883c-1.17-0.021-1.397,0.788-1.397,1.76v28.159c0,0.972,0.383,1.78,1.397,1.76H34.899z"/>
<rect fill="none" width="50.315" height="40.535"/>
<rect x="16.009" y="6.048" fill="#FFFFFF" width="17.735" height="17.735"/>
<path d="M28.726,19.557l0.028-4.153c0-2.142-1.737-3.878-3.879-3.878s-3.878,1.736-3.878,3.878v4.129L28.726,19.557z"/>
<path fill="none" stroke="#000000" stroke-width="0.416" d="M28.726,19.557l0.028-4.153c0-2.142-1.737-3.878-3.879-3.878
	s-3.878,1.736-3.878,3.878v4.129L28.726,19.557z"/>
<line fill="none" stroke="#000000" stroke-width="0.416" x1="27.893" y1="12.983" x2="29.969" y2="11.292"/>
<line fill="none" stroke="#000000" stroke-width="0.416" x1="26.932" y1="12.215" x2="28.396" y2="9.716"/>
<line fill="none" stroke="#000000" stroke-width="0.416" x1="28.452" y1="14.008" x2="31.447" y2="12.755"/>
<line fill="none" stroke="#000000" stroke-width="0.416" x1="31.477" y1="14.948" x2="28.727" y2="14.948"/>
<line fill="none" stroke="#000000" stroke-width="0.416" x1="31.477" y1="16.455" x2="28.727" y2="16.455"/>
<line fill="none" stroke="#000000" stroke-width="0.416" x1="31.477" y1="18.05" x2="28.727" y2="18.05"/>
<line fill="none" stroke="#000000" stroke-width="0.416" x1="25.846" y1="9.635" x2="25.846" y2="11.698"/>
<line fill="none" stroke="#000000" stroke-width="0.416" x1="21.802" y1="12.983" x2="19.776" y2="11.274"/>
<line fill="none" stroke="#000000" stroke-width="0.416" x1="22.764" y1="12.215" x2="21.3" y2="9.716"/>
<line fill="none" stroke="#000000" stroke-width="0.416" x1="21.244" y1="14.008" x2="18.249" y2="12.755"/>
<line fill="none" stroke="#000000" stroke-width="0.416" x1="18.219" y1="14.948" x2="20.969" y2="14.948"/>
<line fill="none" stroke="#000000" stroke-width="0.416" x1="18.219" y1="16.455" x2="20.969" y2="16.455"/>
<line fill="none" stroke="#000000" stroke-width="0.416" x1="18.219" y1="18.05" x2="20.969" y2="18.05"/>
<line fill="none" stroke="#000000" stroke-width="0.416" x1="23.85" y1="9.617" x2="23.85" y2="11.68"/>
<path fill="#FFFFFF" d="M18.645,33.012h-0.806v-4.277c-0.294,0.387-0.641,0.673-1.04,0.858v-1.027c0.21-0.097,0.439-0.28,0.685-0.55
	c0.247-0.27,0.416-0.585,0.507-0.945h0.654V33.012z"/>
<path fill="#FFFFFF" d="M19.843,28.222v-1.053h2.75v0.825c-0.227,0.316-0.458,0.768-0.693,1.358
	c-0.235,0.59-0.413,1.217-0.536,1.881c-0.123,0.664-0.184,1.257-0.182,1.78h-0.773c0.013-0.82,0.132-1.655,0.358-2.507
	s0.527-1.613,0.904-2.284H19.843z"/>
<polygon fill="#FFFFFF" points="24.872,33.012 24.872,27.09 25.677,27.09 25.677,30.233 26.624,28.723 27.611,28.723 26.57,30.292 
	27.682,33.012 26.818,33.012 26.051,31.086 25.677,31.64 25.677,33.012 "/>
<path fill="#FFFFFF" d="M28.097,28.723h0.741v0.585c0.266-0.455,0.582-0.683,0.949-0.683c0.195,0,0.365,0.057,0.508,0.171
	c0.143,0.113,0.261,0.285,0.353,0.514c0.134-0.229,0.278-0.401,0.433-0.514c0.155-0.114,0.32-0.171,0.496-0.171
	c0.224,0,0.413,0.065,0.568,0.192c0.155,0.128,0.271,0.316,0.347,0.564c0.056,0.183,0.084,0.48,0.084,0.889v2.743H31.77v-2.451
	c0-0.425-0.028-0.699-0.084-0.823c-0.074-0.162-0.189-0.242-0.344-0.242c-0.113,0-0.219,0.048-0.318,0.145
	c-0.1,0.097-0.172,0.239-0.216,0.426s-0.065,0.482-0.065,0.886v2.059h-0.806v-2.35c0-0.417-0.015-0.686-0.044-0.807
	c-0.028-0.121-0.073-0.211-0.133-0.271c-0.06-0.059-0.141-0.088-0.244-0.088c-0.125,0-0.236,0.047-0.335,0.141
	c-0.1,0.094-0.171,0.23-0.214,0.408c-0.043,0.177-0.064,0.472-0.064,0.884v2.083h-0.806V28.723z"/>
<polygon fill="none" stroke="#000000" stroke-width="0.416" points="31.447,19.621 31.447,12.755 28.364,9.494 21.331,9.494 
	18.249,12.755 18.249,19.621 "/>
<rect fill="none" width="50.315" height="40.535"/>
</svg>
