<?xml version="1.0" encoding="utf-8"?>
<!-- Generator: Adobe Illustrator 16.0.0, SVG Export Plug-In . SVG Version: 6.00 Build 0)  -->
<!DOCTYPE svg PUBLIC "-//W3C//DTD SVG 1.1//EN" "http://www.w3.org/Graphics/SVG/1.1/DTD/svg11.dtd">
<svg version="1.1" id="Layer_1" xmlns="http://www.w3.org/2000/svg" xmlns:xlink="http://www.w3.org/1999/xlink" x="0px" y="0px"
	 width="50.314px" height="44px" viewBox="0 0 50.314 44" enable-background="new 0 0 50.314 44" xml:space="preserve">
<rect x="8.319" y="5.264" fill="#007DC5" width="33.518" height="33.406"/>
<path fill="none" stroke="#FFFFFF" stroke-width="0.703" d="M39.374,37.79c0.906,0,1.642-0.787,1.642-1.758V7.9
	c0-0.971-0.735-1.758-1.642-1.758H10.781C9.875,6.142,9.14,6.929,9.14,7.9v28.132c0,0.971,0.735,1.758,1.642,1.758H39.374z"/>
<rect fill="none" width="50.314" height="44"/>
<rect x="18.771" y="8.142" fill="#FFFFFF" width="2.482" height="4.89"/>
<rect x="18.771" y="15.295" fill="#FFFFFF" width="2.482" height="4.89"/>
<rect x="18.771" y="22.448" fill="#FFFFFF" width="2.482" height="4.891"/>
<rect x="18.771" y="29.601" fill="#FFFFFF" width="2.482" height="4.891"/>
<polyline fill="#FFFFFF" points="32.703,21.325 32.693,17.142 23.808,13.747 23.808,8.142 26.29,8.142 26.29,11.586 35.575,15.364 
	35.573,21.325 "/>
<polyline fill="#FFFFFF" points="32.703,21.325 32.693,25.508 23.808,28.903 23.808,34.508 26.29,34.508 26.29,31.064 
	35.575,27.286 35.573,21.325 "/>
</svg>
