<?xml version="1.0" encoding="utf-8"?>
<!-- Generator: Adobe Illustrator 16.0.0, SVG Export Plug-In . SVG Version: 6.00 Build 0)  -->
<!DOCTYPE svg PUBLIC "-//W3C//DTD SVG 1.1//EN" "http://www.w3.org/Graphics/SVG/1.1/DTD/svg11.dtd">
<svg version="1.1" id="Layer_1" xmlns="http://www.w3.org/2000/svg" xmlns:xlink="http://www.w3.org/1999/xlink" x="0px" y="0px"
	 width="50.315px" height="40.535px" viewBox="0 0 50.315 40.535" enable-background="new 0 0 50.315 40.535" xml:space="preserve">
<rect x="13.981" y="5.002" fill="#007DC5" width="21.967" height="33.439"/>
<path fill="none" stroke="#FFFFFF" stroke-width="0.754" d="M33.565,37.561c0.796,0.02,1.502-0.788,1.502-1.76V7.642
	c0-0.972-0.551-1.781-1.763-1.76H16.396c-1.171-0.021-1.397,0.788-1.397,1.76v28.159c0,0.972,0.383,1.78,1.397,1.76H33.565z"/>
<rect fill="none" width="50.315" height="40.535"/>
<polygon fill="#FFFFFF" points="24.33,10.588 32.346,15.867 32.346,27.986 24.33,33.004 24.33,37.827 17.032,37.827 17.032,5.57 
	24.33,5.57 "/>
<rect x="24.135" y="11.598" width="1.043" height="2.737"/>
<rect x="24.135" y="15.899" width="1.043" height="2.737"/>
<rect x="24.135" y="20.2" width="1.043" height="2.737"/>
<rect x="24.135" y="24.501" width="1.043" height="2.737"/>
<rect x="24.135" y="28.801" width="1.043" height="2.737"/>
<path d="M28.12,17.981l0.471-0.065c0.029,0.226,0.086,0.392,0.173,0.498c0.087,0.106,0.205,0.159,0.353,0.159
	c0.156,0,0.274-0.048,0.354-0.142c0.079-0.094,0.119-0.205,0.119-0.331c0-0.081-0.017-0.15-0.05-0.207
	c-0.033-0.057-0.091-0.106-0.174-0.148c-0.058-0.028-0.187-0.078-0.388-0.151c-0.26-0.092-0.441-0.205-0.546-0.339
	c-0.146-0.189-0.221-0.419-0.221-0.69c0-0.175,0.035-0.338,0.104-0.49c0.068-0.152,0.169-0.268,0.299-0.347
	c0.13-0.08,0.288-0.12,0.472-0.12c0.301,0,0.527,0.095,0.679,0.283c0.153,0.188,0.232,0.44,0.24,0.754l-0.484,0.029
	c-0.021-0.175-0.065-0.301-0.134-0.378c-0.067-0.077-0.17-0.116-0.307-0.116c-0.142,0-0.251,0.042-0.33,0.124
	c-0.052,0.053-0.077,0.124-0.077,0.213c0,0.081,0.023,0.15,0.072,0.207c0.061,0.074,0.209,0.15,0.445,0.23
	c0.234,0.08,0.409,0.162,0.521,0.247c0.113,0.085,0.202,0.201,0.265,0.349c0.064,0.147,0.097,0.33,0.097,0.547
	c0,0.197-0.038,0.381-0.114,0.552c-0.077,0.172-0.185,0.3-0.325,0.383c-0.14,0.084-0.313,0.126-0.522,0.126
	c-0.304,0-0.537-0.101-0.699-0.301C28.249,18.657,28.152,18.365,28.12,17.981"/>
<path fill="none" stroke="#000000" stroke-width="0.104" d="M28.12,17.981l0.471-0.065c0.029,0.226,0.086,0.392,0.173,0.498
	c0.087,0.106,0.205,0.159,0.353,0.159c0.156,0,0.274-0.048,0.354-0.142c0.079-0.094,0.119-0.205,0.119-0.331
	c0-0.081-0.017-0.15-0.05-0.207c-0.033-0.057-0.091-0.106-0.174-0.148c-0.058-0.028-0.187-0.078-0.388-0.151
	c-0.26-0.092-0.441-0.205-0.546-0.339c-0.146-0.189-0.221-0.419-0.221-0.69c0-0.175,0.035-0.338,0.104-0.49
	c0.068-0.152,0.169-0.268,0.299-0.347c0.13-0.08,0.288-0.12,0.472-0.12c0.301,0,0.527,0.095,0.679,0.283
	c0.153,0.188,0.232,0.44,0.24,0.754l-0.484,0.029c-0.021-0.175-0.065-0.301-0.134-0.378c-0.067-0.077-0.17-0.116-0.307-0.116
	c-0.142,0-0.251,0.042-0.33,0.124c-0.052,0.053-0.077,0.124-0.077,0.213c0,0.081,0.023,0.15,0.072,0.207
	c0.061,0.074,0.209,0.15,0.445,0.23c0.234,0.08,0.409,0.162,0.521,0.247c0.113,0.085,0.202,0.201,0.265,0.349
	c0.064,0.147,0.097,0.33,0.097,0.547c0,0.197-0.038,0.381-0.114,0.552c-0.077,0.172-0.185,0.3-0.325,0.383
	c-0.14,0.084-0.313,0.126-0.522,0.126c-0.304,0-0.537-0.101-0.699-0.301C28.249,18.657,28.152,18.365,28.12,17.981z"/>
<path d="M27.964,21.664c0-0.349,0.036-0.641,0.109-0.878c0.055-0.175,0.129-0.331,0.223-0.47c0.094-0.139,0.198-0.241,0.31-0.308
	c0.149-0.091,0.321-0.136,0.517-0.136c0.353,0,0.636,0.157,0.848,0.47c0.211,0.313,0.318,0.748,0.318,1.306
	c0,0.553-0.106,0.986-0.316,1.298c-0.21,0.313-0.491,0.469-0.843,0.469c-0.356,0-0.64-0.156-0.85-0.467
	C28.069,22.638,27.964,22.21,27.964,21.664 M28.461,21.641c0,0.388,0.063,0.682,0.189,0.882c0.125,0.2,0.284,0.3,0.478,0.3
	s0.352-0.099,0.476-0.298c0.124-0.198,0.187-0.496,0.187-0.893c0-0.393-0.061-0.686-0.181-0.879
	c-0.121-0.193-0.281-0.289-0.481-0.289s-0.361,0.097-0.483,0.293C28.521,20.952,28.461,21.247,28.461,21.641"/>
<path fill="none" stroke="#000000" stroke-width="0.104" d="M27.964,21.664c0-0.349,0.036-0.641,0.109-0.878
	c0.055-0.175,0.129-0.331,0.223-0.47c0.094-0.139,0.198-0.241,0.31-0.308c0.149-0.091,0.321-0.136,0.517-0.136
	c0.353,0,0.636,0.157,0.848,0.47c0.211,0.313,0.318,0.748,0.318,1.306c0,0.553-0.106,0.986-0.316,1.298
	c-0.21,0.313-0.491,0.469-0.843,0.469c-0.356,0-0.64-0.156-0.85-0.467C28.069,22.638,27.964,22.21,27.964,21.664z M28.461,21.641
	c0,0.388,0.063,0.682,0.189,0.882c0.125,0.2,0.284,0.3,0.478,0.3s0.352-0.099,0.476-0.298c0.124-0.198,0.187-0.496,0.187-0.893
	c0-0.393-0.061-0.686-0.181-0.879c-0.121-0.193-0.281-0.289-0.481-0.289s-0.361,0.097-0.483,0.293
	C28.521,20.952,28.461,21.247,28.461,21.641z"/>
<path d="M28.12,26.509l0.471-0.065c0.029,0.226,0.086,0.392,0.173,0.498s0.205,0.159,0.353,0.159c0.156,0,0.274-0.048,0.354-0.142
	c0.079-0.094,0.119-0.205,0.119-0.331c0-0.081-0.017-0.15-0.05-0.207s-0.091-0.106-0.174-0.148
	c-0.058-0.028-0.187-0.078-0.388-0.151c-0.26-0.092-0.441-0.205-0.546-0.339c-0.146-0.189-0.221-0.419-0.221-0.69
	c0-0.175,0.035-0.338,0.104-0.49c0.068-0.152,0.169-0.268,0.299-0.347c0.13-0.08,0.288-0.12,0.472-0.12
	c0.301,0,0.527,0.095,0.679,0.283c0.153,0.188,0.232,0.44,0.24,0.754l-0.484,0.029c-0.021-0.175-0.065-0.301-0.134-0.378
	c-0.067-0.077-0.17-0.116-0.307-0.116c-0.142,0-0.251,0.042-0.33,0.124c-0.052,0.053-0.077,0.124-0.077,0.213
	c0,0.081,0.023,0.15,0.072,0.207c0.061,0.073,0.209,0.15,0.445,0.23c0.234,0.08,0.409,0.162,0.521,0.247
	c0.113,0.085,0.202,0.201,0.265,0.349c0.064,0.148,0.097,0.33,0.097,0.547c0,0.197-0.038,0.381-0.114,0.552
	c-0.077,0.172-0.185,0.3-0.325,0.383c-0.14,0.084-0.313,0.126-0.522,0.126c-0.304,0-0.537-0.101-0.699-0.301
	C28.249,27.185,28.152,26.893,28.12,26.509"/>
<path fill="none" stroke="#000000" stroke-width="0.104" d="M28.12,26.509l0.471-0.065c0.029,0.226,0.086,0.392,0.173,0.498
	s0.205,0.159,0.353,0.159c0.156,0,0.274-0.048,0.354-0.142c0.079-0.094,0.119-0.205,0.119-0.331c0-0.081-0.017-0.15-0.05-0.207
	s-0.091-0.106-0.174-0.148c-0.058-0.028-0.187-0.078-0.388-0.151c-0.26-0.092-0.441-0.205-0.546-0.339
	c-0.146-0.189-0.221-0.419-0.221-0.69c0-0.175,0.035-0.338,0.104-0.49c0.068-0.152,0.169-0.268,0.299-0.347
	c0.13-0.08,0.288-0.12,0.472-0.12c0.301,0,0.527,0.095,0.679,0.283c0.153,0.188,0.232,0.44,0.24,0.754l-0.484,0.029
	c-0.021-0.175-0.065-0.301-0.134-0.378c-0.067-0.077-0.17-0.116-0.307-0.116c-0.142,0-0.251,0.042-0.33,0.124
	c-0.052,0.053-0.077,0.124-0.077,0.213c0,0.081,0.023,0.15,0.072,0.207c0.061,0.073,0.209,0.15,0.445,0.23
	c0.234,0.08,0.409,0.162,0.521,0.247c0.113,0.085,0.202,0.201,0.265,0.349c0.064,0.148,0.097,0.33,0.097,0.547
	c0,0.197-0.038,0.381-0.114,0.552c-0.077,0.172-0.185,0.3-0.325,0.383c-0.14,0.084-0.313,0.126-0.522,0.126
	c-0.304,0-0.537-0.101-0.699-0.301C28.249,27.185,28.152,26.893,28.12,26.509z"/>
<rect fill="none" width="50.315" height="40.535"/>
</svg>
