<?xml version="1.0" encoding="utf-8"?>
<!-- Generator: Adobe Illustrator 16.0.0, SVG Export Plug-In . SVG Version: 6.00 Build 0)  -->
<!DOCTYPE svg PUBLIC "-//W3C//DTD SVG 1.1//EN" "http://www.w3.org/Graphics/SVG/1.1/DTD/svg11.dtd">
<svg version="1.1" id="Layer_1" xmlns="http://www.w3.org/2000/svg" xmlns:xlink="http://www.w3.org/1999/xlink" x="0px" y="0px"
	 width="50.315px" height="40.536px" viewBox="0 0 50.315 40.536" enable-background="new 0 0 50.315 40.536" xml:space="preserve">
<rect x="8.418" y="3.651" fill="#007DC5" width="33.517" height="33.406"/>
<path fill="none" stroke="#FFFFFF" stroke-width="0.703" d="M39.472,36.177c0.907,0,1.642-0.787,1.642-1.758V6.289
	c0-0.972-0.735-1.759-1.642-1.759H10.88c-0.907,0-1.642,0.787-1.642,1.759v28.131c0,0.971,0.735,1.758,1.642,1.758H39.472z"/>
<rect fill="none" width="50.315" height="40.536"/>
<rect x="13.422" y="8.599" fill="#FFFFFF" width="23.51" height="23.51"/>
<path d="M15.901,25.335c0.714,0,1.139,0.606,1.267,0.804l-0.482,0.575c-0.057-0.089-0.326-0.473-0.761-0.504
	c-0.279-0.02-0.615,0.114-0.615,0.472c0,0.319,0.194,0.357,0.733,0.511c0.416,0.121,1.215,0.255,1.215,1.404
	c0,1.041-0.775,1.436-1.347,1.436c-0.573,0-1.083-0.331-1.447-0.932l0.506-0.523c0.118,0.211,0.472,0.574,0.874,0.6
	c0.369,0.019,0.771-0.191,0.771-0.549c0-0.434-0.279-0.453-0.884-0.645c-0.511-0.166-1.073-0.364-1.073-1.34
	C14.658,25.604,15.438,25.335,15.901,25.335"/>
<path d="M17.688,28.917c0.232,0,0.416,0.249,0.416,0.562c0,0.306-0.184,0.562-0.416,0.562c-0.227,0-0.411-0.256-0.411-0.562
	C17.277,29.166,17.461,28.917,17.688,28.917"/>
<path d="M21.347,29.44c-0.269,0.409-0.61,0.607-1.026,0.607c-0.411,0-0.742-0.205-1.011-0.62c-0.279-0.44-0.412-1.015-0.412-1.736
	c0-0.722,0.133-1.296,0.416-1.737c0.265-0.421,0.596-0.631,1.007-0.631c0.416,0,0.743,0.21,1.012,0.619
	c0.284,0.44,0.426,1.021,0.43,1.749C21.763,28.419,21.631,29.006,21.347,29.44 M19.773,26.529c-0.156,0.255-0.246,0.645-0.246,1.162
	c0,0.523,0.09,0.913,0.251,1.162c0.137,0.217,0.302,0.325,0.543,0.325c0.251,0,0.412-0.102,0.544-0.312
	c0.166-0.243,0.255-0.639,0.255-1.175c0-0.536-0.089-0.932-0.255-1.181c-0.132-0.211-0.293-0.313-0.544-0.313
	C20.08,26.197,19.915,26.306,19.773,26.529"/>
<path d="M22.265,28.917c0.232,0,0.416,0.249,0.416,0.562c0,0.306-0.184,0.562-0.416,0.562c-0.227,0-0.411-0.256-0.411-0.562
	C21.854,29.166,22.038,28.917,22.265,28.917"/>
<path d="M24.841,25.335c0.714,0,1.139,0.606,1.267,0.804l-0.482,0.575c-0.057-0.089-0.326-0.473-0.761-0.504
	c-0.279-0.02-0.615,0.114-0.615,0.472c0,0.319,0.194,0.357,0.733,0.511c0.416,0.121,1.215,0.255,1.215,1.404
	c0,1.041-0.775,1.436-1.347,1.436c-0.573,0-1.083-0.331-1.447-0.932l0.506-0.523c0.118,0.211,0.472,0.574,0.874,0.6
	c0.369,0.019,0.771-0.191,0.771-0.549c0-0.434-0.279-0.453-0.884-0.645c-0.511-0.166-1.073-0.364-1.073-1.34
	C23.598,25.604,24.378,25.335,24.841,25.335"/>
<path d="M26.628,28.917c0.232,0,0.416,0.249,0.416,0.562c0,0.306-0.184,0.562-0.416,0.562c-0.227,0-0.411-0.256-0.411-0.562
	C26.217,29.166,26.401,28.917,26.628,28.917"/>
<path d="M28.826,16.73c-2.548-2.694-6.76-5.203-8.657-5.203c-1.896,0-2.449,0.68-3.192,1.422c-0.743,0.743-1.28,1.944-0.916,2.308
	c0.363,0.363,5.815,3.445,5.815,3.445l1.643-1.96c0,0,1.897,1.549,2.624,2.276s2.623,2.876,2.623,2.876l-1.928,1.612l2.584,4.866
	c0.666,1.046,0.785,1.07,1.936,0.601c1.75-0.712,2.651-2.33,2.651-3.31s-0.871-2.823-1.45-3.898
	C32.052,20.825,31.52,19.579,28.826,16.73"/>
<rect fill="none" width="50.315" height="40.536"/>
</svg>
