<?xml version="1.0" encoding="utf-8"?>
<!-- Generator: Adobe Illustrator 16.0.0, SVG Export Plug-In . SVG Version: 6.00 Build 0)  -->
<!DOCTYPE svg PUBLIC "-//W3C//DTD SVG 1.1//EN" "http://www.w3.org/Graphics/SVG/1.1/DTD/svg11.dtd">
<svg version="1.1" id="Layer_1" xmlns="http://www.w3.org/2000/svg" xmlns:xlink="http://www.w3.org/1999/xlink" x="0px" y="0px"
	 width="50.315px" height="40.535px" viewBox="0 0 50.315 40.535" enable-background="new 0 0 50.315 40.535" xml:space="preserve">
<rect x="8.225" y="3.533" fill="#007DC5" width="33.517" height="33.406"/>
<path fill="none" stroke="#FFFFFF" stroke-width="0.703" d="M39.279,36.059c0.907,0,1.642-0.787,1.642-1.758V6.17
	c0-0.972-0.735-1.759-1.642-1.759H10.687c-0.907,0-1.642,0.787-1.642,1.759v28.131c0,0.971,0.735,1.758,1.642,1.758H39.279z"/>
<rect fill="none" width="50.315" height="40.535"/>
<rect x="13.228" y="8.481" fill="#FFFFFF" width="23.51" height="23.51"/>
<path fill="#DA2128" d="M28.438,30.289l-6.967-0.01l-0.007-16.086c0-0.303,0.247-0.55,0.55-0.55h5.861c0.303,0,0.55,0.247,0.55,0.55
	L28.438,30.289z"/>
<rect x="24.09" y="10.091" fill="#DA2128" width="1.626" height="3.731"/>
<path fill="#DA2128" d="M23.781,12.375h2.493c0.798,0,1.445-0.362,1.445-0.809c0-0.448-0.647-0.81-1.445-0.81h-2.493h-1.132
	L20,12.646v2.195h0.501l0.313-1.153l2.211-1.34L23.781,12.375z"/>
<rect fill="none" width="50.315" height="40.535"/>
</svg>
