<?xml version="1.0" encoding="utf-8"?>
<!-- Generator: Adobe Illustrator 16.0.0, SVG Export Plug-In . SVG Version: 6.00 Build 0)  -->
<!DOCTYPE svg PUBLIC "-//W3C//DTD SVG 1.1//EN" "http://www.w3.org/Graphics/SVG/1.1/DTD/svg11.dtd">
<svg version="1.1" id="Layer_1" xmlns="http://www.w3.org/2000/svg" xmlns:xlink="http://www.w3.org/1999/xlink" x="0px" y="0px"
	 width="50.314px" height="44px" viewBox="0 0 50.314 44" enable-background="new 0 0 50.314 44" xml:space="preserve">
<path fill="#FFFFFF" d="M34.31,29.896c2.1,0,2.1-2.037,2.1-2.037v-7.785c0,0,0-2.037-2.1-2.037H15.633
	c-2.099,0-2.099,2.037-2.099,2.037v7.785c0,0,0,2.037,2.099,2.037H34.31z"/>
<path fill="none" stroke="#000000" stroke-width="0.22" d="M34.31,29.896c2.1,0,2.1-2.037,2.1-2.037v-7.785c0,0,0-2.037-2.1-2.037
	H15.633c-2.099,0-2.099,2.037-2.099,2.037v7.785c0,0,0,2.037,2.099,2.037H34.31z"/>
<path fill="#DA2128" d="M18.873,28.576l-3.215-0.005l-0.003-7.423c0-0.14,0.113-0.254,0.254-0.254h2.704
	c0.14,0,0.254,0.114,0.254,0.254L18.873,28.576z"/>
<rect x="16.867" y="19.255" fill="#DA2128" width="0.75" height="1.722"/>
<path fill="#DA2128" d="M16.725,20.309h1.15c0.368,0,0.666-0.167,0.666-0.374c0-0.206-0.298-0.373-0.666-0.373h-1.15h-0.522
	l-1.223,0.872v1.013h0.23l0.145-0.533l1.021-0.618L16.725,20.309z"/>
<path d="M20.795,24.133c0.667,0,1.065,0.567,1.185,0.752l-0.45,0.537c-0.054-0.084-0.306-0.442-0.712-0.471
	c-0.262-0.018-0.574,0.107-0.574,0.441c0,0.298,0.181,0.334,0.685,0.477c0.389,0.114,1.136,0.239,1.136,1.313
	c0,0.973-0.725,1.343-1.26,1.343s-1.012-0.31-1.352-0.871l0.472-0.49c0.111,0.197,0.442,0.537,0.818,0.561
	c0.345,0.018,0.72-0.179,0.72-0.513c0-0.406-0.26-0.423-0.826-0.602c-0.477-0.156-1.003-0.341-1.003-1.254
	C19.633,24.384,20.362,24.133,20.795,24.133"/>
<path d="M22.466,27.481c0.216,0,0.389,0.233,0.389,0.525c0,0.286-0.173,0.525-0.389,0.525c-0.212,0-0.386-0.239-0.386-0.525
	C22.08,27.714,22.254,27.481,22.466,27.481"/>
<path d="M25.887,27.97c-0.252,0.382-0.571,0.567-0.959,0.567c-0.386,0-0.694-0.191-0.946-0.579
	c-0.261-0.412-0.385-0.949-0.385-1.623s0.124-1.211,0.389-1.623c0.248-0.394,0.557-0.591,0.942-0.591
	c0.388,0,0.692,0.197,0.944,0.579c0.266,0.412,0.398,0.955,0.403,1.635C26.275,27.015,26.151,27.564,25.887,27.97 M24.414,25.249
	c-0.146,0.239-0.229,0.603-0.229,1.086c0,0.489,0.084,0.853,0.234,1.086c0.128,0.203,0.282,0.304,0.509,0.304
	c0.233,0,0.384-0.095,0.508-0.292c0.153-0.227,0.238-0.597,0.238-1.098s-0.085-0.871-0.238-1.104
	c-0.124-0.197-0.274-0.292-0.508-0.292C24.701,24.939,24.547,25.04,24.414,25.249"/>
<path d="M26.743,27.481c0.216,0,0.389,0.233,0.389,0.525c0,0.286-0.173,0.525-0.389,0.525c-0.212,0-0.384-0.239-0.384-0.525
	C26.359,27.714,26.531,27.481,26.743,27.481"/>
<path d="M29.151,24.133c0.667,0,1.065,0.567,1.185,0.752l-0.45,0.537c-0.053-0.084-0.305-0.442-0.712-0.471
	c-0.261-0.018-0.574,0.107-0.574,0.441c0,0.298,0.181,0.334,0.685,0.477c0.39,0.114,1.136,0.239,1.136,1.313
	c0,0.973-0.725,1.343-1.26,1.343c-0.534,0-1.012-0.31-1.352-0.871l0.472-0.49c0.111,0.197,0.442,0.537,0.818,0.561
	c0.345,0.018,0.72-0.179,0.72-0.513c0-0.406-0.26-0.423-0.826-0.602c-0.477-0.156-1.003-0.341-1.003-1.254
	C27.989,24.384,28.719,24.133,29.151,24.133"/>
<path d="M30.822,27.481c0.216,0,0.389,0.233,0.389,0.525c0,0.286-0.173,0.525-0.389,0.525c-0.212,0-0.384-0.239-0.384-0.525
	C30.438,27.714,30.61,27.481,30.822,27.481"/>
<path d="M33.122,22.018c-1.308-1.381-3.468-2.668-4.44-2.668c-0.972,0-1.256,0.348-1.637,0.729
	c-0.381,0.381-0.656,0.997-0.471,1.183c0.188,0.187,2.983,1.767,2.983,1.767l0.842-1.005c0,0,0.974,0.794,1.347,1.167
	s1.345,1.475,1.345,1.475l-0.989,0.827l1.326,2.495c0.341,0.536,0.402,0.549,0.992,0.309c0.897-0.366,1.359-1.196,1.359-1.698
	c0-0.503-0.446-1.448-0.743-1.999C34.775,24.117,34.504,23.479,33.122,22.018"/>
<rect fill="none" width="50.314" height="44"/>
</svg>
