<?xml version="1.0" encoding="utf-8"?>
<!-- Generator: Adobe Illustrator 16.0.0, SVG Export Plug-In . SVG Version: 6.00 Build 0)  -->
<!DOCTYPE svg PUBLIC "-//W3C//DTD SVG 1.1//EN" "http://www.w3.org/Graphics/SVG/1.1/DTD/svg11.dtd">
<svg version="1.1" id="Layer_1" xmlns="http://www.w3.org/2000/svg" xmlns:xlink="http://www.w3.org/1999/xlink" x="0px" y="0px"
	 width="50.315px" height="40.536px" viewBox="0 0 50.315 40.536" enable-background="new 0 0 50.315 40.536" xml:space="preserve">
<rect x="1.586" y="17.57" fill="#1CA56F" width="22.313" height="7.913"/>
<rect x="1.587" y="17.57" fill="none" stroke="#000000" stroke-width="0.238" width="22.313" height="7.913"/>
<rect x="2.808" y="18.506" fill="#FFFFFF" width="3.129" height="5.92"/>
<polygon fill="#FFFFFF" points="10.614,23.303 10.614,24.607 7.746,23.15 7.746,23.153 10.614,21.696 10.614,23 "/>
<rect x="10.166" y="22.46" fill="#FFFFFF" width="4.684" height="1.381"/>
<path fill="#FFFFFF" d="M8.911,19.449H7.978l-0.012,0.493c0.057-0.01,0.129-0.023,0.224-0.023c0.34,0,0.78,0.152,0.78,0.751
	c0,0.434-0.318,0.785-0.944,0.785c-0.188,0-0.406-0.03-0.566-0.066l0.011-0.414c0.118,0.046,0.284,0.116,0.496,0.116
	c0.254,0,0.519-0.113,0.519-0.407c0-0.298-0.278-0.401-0.557-0.401c-0.148,0-0.292,0.02-0.434,0.063l0.023-1.241h1.394V19.449z"/>
<path fill="#FFFFFF" d="M9.262,20.267c0-0.579,0.184-1.202,0.841-1.202c0.708,0,0.847,0.666,0.847,1.202s-0.146,1.188-0.847,1.188
	C9.355,21.455,9.262,20.75,9.262,20.267 M10.464,20.267c0-0.298,0-0.857-0.361-0.857c-0.354,0-0.354,0.559-0.354,0.857
	c0,0.291-0.004,0.844,0.354,0.844C10.467,21.111,10.464,20.558,10.464,20.267"/>
<path fill="#FFFFFF" d="M12.27,19.711h0.434v0.238h0.007c0.146-0.208,0.358-0.278,0.531-0.278c0.25,0,0.428,0.09,0.528,0.301
	c0.107-0.205,0.341-0.301,0.56-0.301c0.441,0,0.566,0.288,0.566,0.669v1.076H14.43v-1.017c0-0.158,0-0.383-0.268-0.383
	c-0.309,0-0.348,0.35-0.348,0.572v0.828H13.35v-1.017c0-0.158,0-0.383-0.268-0.383c-0.309,0-0.348,0.35-0.348,0.572v0.828H12.27
	V19.711z"/>
<path fill="#FFFFFF" d="M19.792,19.305c0,0.466-0.378,0.843-0.843,0.843c-0.466,0-0.844-0.377-0.844-0.843s0.378-0.843,0.844-0.843
	C19.414,18.462,19.792,18.839,19.792,19.305"/>
<polyline fill="#FFFFFF" points="20.412,23.556 23.326,23.556 23.326,22.663 21.304,22.663 "/>
<polygon fill="#FFFFFF" points="19.147,19.79 18.787,20.439 20.411,23.556 21.993,23.198 20.331,20.062 "/>
<path fill="#FFFFFF" d="M18.087,23.243v1.912h0.715v-1.604c0.188-0.178,1.232-1.163,1.232-1.163l-0.49-0.519L18.087,23.243z"/>
<rect x="18.218" y="20.638" transform="matrix(-0.6859 -0.7277 0.7277 -0.6859 15.6246 49.8699)" fill="#FFFFFF" width="0.713" height="1.849"/>
<path fill="#FFFFFF" d="M19.529,19.8v0.714h1.479c0.143,0.28,0.558,1.09,0.558,1.09l0.635-0.326L21.444,19.8H19.529z"/>
<rect x="26.518" y="17.57" fill="#1CA56F" width="22.313" height="7.913"/>
<rect x="26.518" y="17.57" fill="none" stroke="#000000" stroke-width="0.238" width="22.313" height="7.913"/>
<rect x="44.48" y="18.506" fill="#FFFFFF" width="3.128" height="5.92"/>
<polygon fill="#FFFFFF" points="39.804,23.303 39.804,24.607 42.671,23.15 42.671,23.153 39.804,21.696 39.804,23 "/>
<rect x="35.567" y="22.46" fill="#FFFFFF" width="4.683" height="1.381"/>
<path fill="#FFFFFF" d="M36.738,19.449h-0.934l-0.011,0.493c0.056-0.01,0.129-0.023,0.223-0.023c0.34,0,0.781,0.152,0.781,0.751
	c0,0.434-0.319,0.785-0.944,0.785c-0.188,0-0.407-0.03-0.566-0.066l0.011-0.414c0.118,0.046,0.285,0.116,0.496,0.116
	c0.254,0,0.518-0.113,0.518-0.407c0-0.298-0.278-0.401-0.556-0.401c-0.149,0-0.291,0.02-0.435,0.063l0.024-1.241h1.393V19.449z"/>
<path fill="#FFFFFF" d="M37.089,20.267c0-0.579,0.185-1.202,0.841-1.202c0.708,0,0.848,0.666,0.848,1.202s-0.146,1.188-0.848,1.188
	C37.184,21.455,37.089,20.75,37.089,20.267 M38.291,20.267c0-0.298,0-0.857-0.361-0.857c-0.354,0-0.354,0.559-0.354,0.857
	c0,0.291-0.004,0.844,0.354,0.844C38.294,21.111,38.291,20.558,38.291,20.267"/>
<path fill="#FFFFFF" d="M40.097,19.711h0.435v0.238h0.007c0.146-0.208,0.358-0.278,0.531-0.278c0.25,0,0.428,0.09,0.527,0.301
	c0.108-0.205,0.342-0.301,0.561-0.301c0.44,0,0.565,0.288,0.565,0.669v1.076h-0.466v-1.017c0-0.158,0-0.383-0.267-0.383
	c-0.31,0-0.349,0.35-0.349,0.572v0.828h-0.465v-1.017c0-0.158,0-0.383-0.267-0.383c-0.311,0-0.348,0.35-0.348,0.572v0.828h-0.466
	V19.711z"/>
<path fill="#FFFFFF" d="M30.625,19.305c0,0.466,0.378,0.843,0.843,0.843c0.467,0,0.845-0.377,0.845-0.843s-0.378-0.843-0.845-0.843
	C31.003,18.462,30.625,18.839,30.625,19.305"/>
<polyline fill="#FFFFFF" points="30.005,23.556 27.092,23.556 27.092,22.663 29.112,22.663 "/>
<polygon fill="#FFFFFF" points="31.27,19.79 31.629,20.439 30.006,23.556 28.424,23.198 30.086,20.062 "/>
<path fill="#FFFFFF" d="M32.33,23.243v1.912h-0.714v-1.604c-0.188-0.178-1.233-1.163-1.233-1.163l0.49-0.519L32.33,23.243z"/>
<rect x="31.486" y="20.639" transform="matrix(0.6866 -0.727 0.727 0.6866 -5.6979 29.9068)" fill="#FFFFFF" width="0.714" height="1.848"/>
<path fill="#FFFFFF" d="M30.888,19.8v0.714h-1.479c-0.143,0.28-0.558,1.09-0.558,1.09l-0.635-0.326l0.756-1.478H30.888z"/>
<rect fill="none" width="50.315" height="40.536"/>
</svg>
