<?xml version="1.0" encoding="utf-8"?>
<!-- Generator: Adobe Illustrator 16.0.0, SVG Export Plug-In . SVG Version: 6.00 Build 0)  -->
<!DOCTYPE svg PUBLIC "-//W3C//DTD SVG 1.1//EN" "http://www.w3.org/Graphics/SVG/1.1/DTD/svg11.dtd">
<svg version="1.1" xmlns="http://www.w3.org/2000/svg" xmlns:xlink="http://www.w3.org/1999/xlink" x="0px" y="0px"
	 width="50.314px" height="44px" viewBox="0 0 50.314 44" enable-background="new 0 0 50.314 44" xml:space="preserve">
<g id="Layer_1">
</g>
<g id="Layer_10">
</g>
<g id="Layer_9">
</g>
<g id="Layer_8">
</g>
<g id="Layer_7">
</g>
<g id="Layer_6">
</g>
<g id="Layer_5">
</g>
<g id="Layer_4">
</g>
<g id="Layer_3">
	<rect x="6.533" y="3.656" fill="#007DC5" width="35.369" height="35.369"/>
	<path fill="none" stroke="#FFFFFF" stroke-width="0.798" d="M39.109,38.094c1.027,0,1.861-0.833,1.861-1.862V6.448
		c0-1.029-0.834-1.862-1.861-1.862H9.325c-1.028,0-1.861,0.833-1.861,1.862v29.783c0,1.029,0.833,1.862,1.861,1.862H39.109z"/>
	<rect x="6.533" y="3.656" fill="none" width="35.368" height="35.369"/>
	<polygon fill="#FFFFFF" points="24.297,7.121 38.599,32.086 9.804,32.086 	"/>
	<path d="M24.37,14.887c0.698,0,1.265-0.565,1.265-1.264s-0.566-1.264-1.265-1.264s-1.264,0.565-1.264,1.264
		S23.672,14.887,24.37,14.887"/>
	<path d="M24.37,15.075c-0.389,0-0.737,0.176-0.969,0.453L19.8,19.214l0.459,0.479l2.868-2.199c0.058,1.224,0.307,2.505,0.307,2.505
		l-2.257,8.129h0.841l2.659-6.12l0.956,2.62l2.168,3.232l0.688-0.574L26.78,23.9l-0.823-4.131l-0.019-2.22l0.631,0.459l0.44,2.22
		l0.631,0.038l-0.191-2.755l-2.065-2.142C24.926,14.949,24.37,15.075,24.37,15.075"/>
	<polygon points="20.402,30.969 17.21,30.969 19.061,25.286 21.392,25.286 	"/>
	<polygon points="15.07,30.969 11.974,30.969 15.07,25.286 17.433,25.286 	"/>
	<polygon points="33.522,30.969 36.62,30.969 33.522,25.286 31.161,25.286 	"/>
	<polygon points="23.57,25.286 25.414,25.286 25.893,30.968 24.297,30.968 22.7,30.968 23.087,26.412 	"/>
	<polygon points="27.841,25.286 29.532,25.286 31.385,30.968 28.191,30.968 27.729,28.327 28.901,27.441 	"/>
	<rect x="6.533" y="3.656" fill="none" width="35.368" height="35.369"/>
	<rect fill="none" width="50.314" height="44"/>
</g>
<g id="Layer_2">
</g>
</svg>
