<?xml version="1.0" encoding="utf-8"?>
<!-- Generator: Adobe Illustrator 16.0.0, SVG Export Plug-In . SVG Version: 6.00 Build 0)  -->
<!DOCTYPE svg PUBLIC "-//W3C//DTD SVG 1.1//EN" "http://www.w3.org/Graphics/SVG/1.1/DTD/svg11.dtd">
<svg version="1.1" xmlns="http://www.w3.org/2000/svg" xmlns:xlink="http://www.w3.org/1999/xlink" x="0px" y="0px"
	 width="50.315px" height="44px" viewBox="0 0 50.315 44" enable-background="new 0 0 50.315 44" xml:space="preserve">
<g id="Layer_1">
</g>
<g id="Layer_10">
</g>
<g id="Layer_9">
</g>
<g id="Layer_8">
</g>
<g id="Layer_7">
</g>
<g id="Layer_6">
</g>
<g id="Layer_5">
</g>
<g id="Layer_4">
	<rect x="7.441" y="4.184" fill="#007DC5" width="35.369" height="35.369"/>
	<path fill="none" stroke="#FFFFFF" stroke-width="0.798" d="M40.017,38.621c1.028,0,1.862-0.833,1.862-1.862V6.976
		c0-1.028-0.834-1.861-1.862-1.861H10.232c-1.028,0-1.861,0.833-1.861,1.861v29.783c0,1.029,0.833,1.862,1.861,1.862H40.017z"/>
	<rect fill="none" width="50.315" height="44"/>
	<rect x="12.675" y="9.536" fill="#FFFFFF" width="24.902" height="24.663"/>
	<path fill="#110B14" d="M32.987,24.739h1.136l0.432,2.88h-1.568V24.739z M29.735,24.739h2.577v2.879h-2.577V24.739z M25.978,24.739
		h3.194v2.879h-3.194V24.739z M31.487,31.474c0,0,3.323-0.157,3.829-0.428c0.506-0.271,0-0.582,0-0.582v-2.845l-0.431-2.88
		c0,0,0.315-0.212,0.325-0.516c0.008-0.259-0.194-0.326-0.194-0.326s-18.766-0.01-19.273,0c-0.203,0.005-0.181,0.63-0.253,0.38
		c-0.072-0.25,0.233,0.499,0.233,0.499l-1.037,2.625c0,0,0.305,0.625,0.444,0.813c0.187,0.25,0.16,1.774,0.105,2.437
		c-0.015,0.187-0.244,0.302-0.244,0.302v0.511L31.487,31.474z M18.116,28.025l-2.742,0.001l-0.078-0.625l1.037-2.352h1.783V28.025z
		 M21.698,27.619h-2.831V24.74h2.831V27.619z M22.348,24.739h3.031v2.879h-3.031V24.739z"/>
	<path fill="#110B14" d="M19.571,33.258c0.894,0,1.62-0.741,1.62-1.657s-0.726-1.658-1.62-1.658c-0.895,0-1.62,0.742-1.62,1.658
		S18.676,33.258,19.571,33.258"/>
	<ellipse fill="none" stroke="#FFFFFF" stroke-width="0.214" cx="19.571" cy="31.6" rx="1.62" ry="1.658"/>
	<path fill="#110B14" d="M29.924,33.258c0.895,0,1.62-0.741,1.62-1.657s-0.725-1.658-1.62-1.658s-1.62,0.742-1.62,1.658
		S29.029,33.258,29.924,33.258"/>
	<ellipse fill="none" stroke="#FFFFFF" stroke-width="0.214" cx="29.924" cy="31.6" rx="1.62" ry="1.658"/>
	<polygon fill="#110B14" points="25.235,13.173 21.585,15.674 17.935,13.173 21.585,10.672 	"/>
	<polygon fill="#FFFFFF" points="24.393,13.176 21.584,15.1 18.777,13.176 18.777,13.17 21.584,11.246 24.393,13.17 	"/>
	<path fill="#110B14" d="M19.201,21.154c-0.119,0.365-0.462,0.628-0.866,0.628c-0.503,0-0.911-0.408-0.911-0.911v-0.229h4.82
		l0.004,0.229c0,0.503-0.408,0.911-0.911,0.911c-0.404,0-0.747-0.263-0.866-0.628H19.201z"/>
	<path fill="#110B14" d="M31.439,21.154c0.119,0.365,0.462,0.628,0.866,0.628c0.503,0,0.911-0.408,0.911-0.911v-0.229h-4.82
		l-0.004,0.229c0,0.503,0.408,0.911,0.911,0.911c0.404,0,0.747-0.263,0.866-0.628H31.439z"/>
	<polygon fill="#110B14" points="27.72,20.879 27.872,20.203 33.752,20.203 33.905,20.879 35.646,20.879 35.646,18.074 
		35.071,15.877 35.173,15.234 15.468,15.234 15.569,15.877 14.995,18.074 14.995,20.879 16.735,20.879 16.887,20.203 22.768,20.203 
		22.919,20.879 	"/>
	<polygon fill="#FFFFFF" points="33.161,15.877 34.716,15.877 35.29,18.073 33.161,18.073 	"/>
	<rect x="30.119" y="15.877" fill="#FFFFFF" width="2.636" height="2.196"/>
	<rect x="27.078" y="15.877" fill="#FFFFFF" width="2.636" height="2.196"/>
	<rect x="23.968" y="15.877" fill="#FFFFFF" width="2.704" height="2.196"/>
	<polygon fill="#FFFFFF" points="17.479,15.877 15.923,15.877 15.35,18.073 17.479,18.073 	"/>
	<rect x="17.884" y="15.877" fill="#FFFFFF" width="2.636" height="2.196"/>
	<rect x="20.926" y="15.877" fill="#FFFFFF" width="2.636" height="2.196"/>
	<rect fill="none" width="50.315" height="44"/>
</g>
<g id="Layer_3">
</g>
<g id="Layer_2">
</g>
</svg>
