<?xml version="1.0" encoding="utf-8"?>
<!-- Generator: Adobe Illustrator 16.0.0, SVG Export Plug-In . SVG Version: 6.00 Build 0)  -->
<!DOCTYPE svg PUBLIC "-//W3C//DTD SVG 1.1//EN" "http://www.w3.org/Graphics/SVG/1.1/DTD/svg11.dtd">
<svg version="1.1" xmlns="http://www.w3.org/2000/svg" xmlns:xlink="http://www.w3.org/1999/xlink" x="0px" y="0px"
	 width="50.314px" height="44px" viewBox="0 0 50.314 44" enable-background="new 0 0 50.314 44" xml:space="preserve">
<g id="Layer_1">
</g>
<g id="Layer_10">
</g>
<g id="Layer_9">
</g>
<g id="Layer_8">
</g>
<g id="Layer_7">
</g>
<g id="Layer_6">
</g>
<g id="Layer_5">
	<rect x="7.506" y="4.304" fill="#007DC5" width="35.369" height="35.369"/>
	<path fill="none" stroke="#FFFFFF" stroke-width="0.798" d="M40.082,38.741c1.027,0,1.861-0.833,1.861-1.862V7.096
		c0-1.029-0.834-1.862-1.861-1.862H10.298c-1.028,0-1.861,0.833-1.861,1.862v29.783c0,1.029,0.833,1.862,1.861,1.862H40.082z"/>
	<rect fill="none" width="50.314" height="44"/>
	<rect x="12.739" y="9.656" fill="#FFFFFF" width="24.902" height="24.663"/>
	<path fill="#110B14" d="M33.053,18.098h1.136l0.432,2.879h-1.567V18.098z M29.801,18.098h2.577v2.879h-2.577V18.098z
		 M26.044,18.098h3.193v2.879h-3.193V18.098z M31.553,24.831c0,0,3.323-0.156,3.829-0.428c0.506-0.27,0-0.583,0-0.583v-2.844
		l-0.432-2.879c0,0,0.314-0.213,0.324-0.516c0.01-0.26-0.192-0.326-0.192-0.326s-18.768-0.012-19.274,0
		c-0.202,0.004-0.181,0.63-0.253,0.38c-0.071-0.251,0.234,0.499,0.234,0.499l-1.038,2.625c0,0,0.305,0.624,0.444,0.812
		c0.188,0.25,0.159,1.775,0.105,2.437c-0.016,0.187-0.245,0.303-0.245,0.303v0.51L31.553,24.831z M18.182,21.384h-2.742
		l-0.078-0.624l1.036-2.353h1.784V21.384z M21.764,20.977h-2.831v-2.879h2.831V20.977z M22.413,18.098h3.03v2.879h-3.03V18.098z"/>
	<path fill="#110B14" d="M19.637,26.616c0.894,0,1.62-0.742,1.62-1.658S20.53,23.3,19.637,23.3c-0.896,0-1.62,0.742-1.62,1.658
		S18.741,26.616,19.637,26.616"/>
	<ellipse fill="none" stroke="#FFFFFF" stroke-width="0.214" cx="19.637" cy="24.958" rx="1.62" ry="1.658"/>
	<path fill="#110B14" d="M29.989,26.616c0.895,0,1.62-0.742,1.62-1.658s-0.726-1.658-1.62-1.658c-0.896,0-1.62,0.742-1.62,1.658
		S29.094,26.616,29.989,26.616"/>
	<ellipse fill="none" stroke="#FFFFFF" stroke-width="0.214" cx="29.989" cy="24.958" rx="1.62" ry="1.658"/>
	<rect fill="none" width="50.314" height="44"/>
</g>
<g id="Layer_4">
</g>
<g id="Layer_3">
</g>
<g id="Layer_2">
</g>
</svg>
