<?xml version="1.0" encoding="utf-8"?>
<!-- Generator: Adobe Illustrator 16.0.0, SVG Export Plug-In . SVG Version: 6.00 Build 0)  -->
<!DOCTYPE svg PUBLIC "-//W3C//DTD SVG 1.1//EN" "http://www.w3.org/Graphics/SVG/1.1/DTD/svg11.dtd">
<svg version="1.1" xmlns="http://www.w3.org/2000/svg" xmlns:xlink="http://www.w3.org/1999/xlink" x="0px" y="0px"
	 width="50.315px" height="44px" viewBox="0 0 50.315 44" enable-background="new 0 0 50.315 44" xml:space="preserve">
<g id="Layer_1">
</g>
<g id="Layer_10">
</g>
<g id="Layer_9">
</g>
<g id="Layer_8">
</g>
<g id="Layer_7">
</g>
<g id="Layer_6">
	<rect x="7.507" y="4.304" fill="#007DC5" width="35.368" height="35.369"/>
	<path fill="none" stroke="#FFFFFF" stroke-width="0.798" d="M40.082,38.741c1.028,0,1.862-0.833,1.862-1.862V7.096
		c0-1.029-0.834-1.862-1.862-1.862H10.298c-1.027,0-1.86,0.833-1.86,1.862v29.783c0,1.029,0.833,1.862,1.86,1.862H40.082z"/>
	<rect fill="none" width="50.315" height="44"/>
	<rect x="12.74" y="9.656" fill="#FFFFFF" width="24.902" height="24.663"/>
	<polygon fill="#110B14" points="25.204,18.605 21.554,21.106 17.903,18.605 21.554,16.104 	"/>
	<polygon fill="#FFFFFF" points="24.361,18.608 21.555,20.532 18.746,18.608 18.746,18.603 21.555,16.678 24.361,18.603 	"/>
	<path fill="#110B14" d="M19.17,26.586c-0.119,0.365-0.462,0.629-0.866,0.629c-0.503,0-0.911-0.408-0.911-0.911v-0.229h4.82
		l0.004,0.229c0,0.503-0.408,0.911-0.911,0.911c-0.404,0-0.747-0.264-0.866-0.629H19.17z"/>
	<path fill="#110B14" d="M31.407,26.586c0.119,0.365,0.462,0.629,0.866,0.629c0.503,0,0.911-0.408,0.911-0.911v-0.229h-4.82
		l-0.004,0.229c0,0.503,0.408,0.911,0.911,0.911c0.404,0,0.747-0.264,0.866-0.629H31.407z"/>
	<polygon fill="#110B14" points="27.688,26.312 27.841,25.635 33.722,25.635 33.873,26.312 35.614,26.312 35.614,23.506 
		35.039,21.31 35.142,20.667 15.437,20.667 15.537,21.31 14.963,23.506 14.963,26.312 16.703,26.312 16.855,25.635 22.736,25.635 
		22.889,26.312 	"/>
	<polygon fill="#FFFFFF" points="33.13,21.309 34.685,21.309 35.259,23.506 33.13,23.506 	"/>
	<rect x="30.088" y="21.309" fill="#FFFFFF" width="2.637" height="2.197"/>
	<rect x="27.046" y="21.309" fill="#FFFFFF" width="2.637" height="2.197"/>
	<rect x="23.937" y="21.309" fill="#FFFFFF" width="2.704" height="2.197"/>
	<polygon fill="#FFFFFF" points="17.447,21.309 15.893,21.309 15.318,23.506 17.447,23.506 	"/>
	<rect x="17.854" y="21.309" fill="#FFFFFF" width="2.636" height="2.197"/>
	<rect x="20.895" y="21.309" fill="#FFFFFF" width="2.636" height="2.197"/>
	<rect fill="none" width="50.315" height="44"/>
</g>
<g id="Layer_5">
</g>
<g id="Layer_4">
</g>
<g id="Layer_3">
</g>
<g id="Layer_2">
</g>
</svg>
