<?xml version="1.0" encoding="utf-8"?>
<!-- Generator: Adobe Illustrator 16.0.0, SVG Export Plug-In . SVG Version: 6.00 Build 0)  -->
<!DOCTYPE svg PUBLIC "-//W3C//DTD SVG 1.1//EN" "http://www.w3.org/Graphics/SVG/1.1/DTD/svg11.dtd">
<svg version="1.1" xmlns="http://www.w3.org/2000/svg" xmlns:xlink="http://www.w3.org/1999/xlink" x="0px" y="0px"
	 width="50.315px" height="44px" viewBox="0 0 50.315 44" enable-background="new 0 0 50.315 44" xml:space="preserve">
<g id="Layer_1">
</g>
<g id="Layer_10">
	<rect x="1.67" y="4.146" fill="#007DC5" width="46.622" height="31.106"/>
	<path fill="none" stroke="#FFFFFF" stroke-width="1.051" d="M44.61,34.025c1.355,0,2.454-1.1,2.454-2.454V7.826
		c0-1.356-1.099-2.454-2.454-2.454H5.35c-1.356,0-2.454,1.098-2.454,2.454v23.745c0,1.354,1.098,2.454,2.454,2.454H44.61z"/>
	<path fill="#FFFFFF" d="M25.754,31.444v-18.96l1.793,0.417c0.434,0.172,0.776-0.054,0.531-0.473l-2.736-3.93
		c-0.247-0.351-0.456-0.351-0.704,0l-2.735,3.93c-0.246,0.419,0.096,0.645,0.53,0.473l1.793-0.417v18.96H25.754z"/>
	<path fill="#FFFFFF" d="M15.858,31.446l0.006-11.885l-5.42-5.601l1.563-0.973c0.428-0.187,0.511-0.586,0.041-0.709l-4.713-0.844
		c-0.423-0.074-0.571,0.073-0.497,0.497l0.844,4.713c0.123,0.47,0.523,0.387,0.709-0.041l0.973-1.563l4.984,4.984l0.004,11.423
		L15.858,31.446z"/>
	<path fill="#FFFFFF" d="M35.618,24.419v7.025H34.09v-18.96l-1.793,0.417c-0.434,0.171-0.776-0.053-0.53-0.473l2.735-3.93
		c0.248-0.351,0.457-0.351,0.704,0l2.736,3.93c0.245,0.42-0.097,0.644-0.531,0.473l-1.793-0.417v9.76v0.001l3.88-3.88l-1.563-0.973
		c-0.428-0.187-0.511-0.586-0.041-0.709l4.713-0.845c0.423-0.073,0.571,0.074,0.497,0.497l-0.844,4.713
		c-0.123,0.471-0.523,0.388-0.709-0.041l-0.973-1.563l-4.968,4.967L35.618,24.419z"/>
	<rect fill="none" width="50.315" height="44"/>
</g>
<g id="Layer_9">
</g>
<g id="Layer_8">
</g>
<g id="Layer_7">
</g>
<g id="Layer_6">
</g>
<g id="Layer_5">
</g>
<g id="Layer_4">
</g>
<g id="Layer_3">
</g>
<g id="Layer_2">
</g>
</svg>
