<?xml version="1.0" encoding="utf-8"?>
<!-- Generator: Adobe Illustrator 16.0.0, SVG Export Plug-In . SVG Version: 6.00 Build 0)  -->
<!DOCTYPE svg PUBLIC "-//W3C//DTD SVG 1.1//EN" "http://www.w3.org/Graphics/SVG/1.1/DTD/svg11.dtd">
<svg version="1.1" xmlns="http://www.w3.org/2000/svg" xmlns:xlink="http://www.w3.org/1999/xlink" x="0px" y="0px"
	 width="50.315px" height="44px" viewBox="0 0 50.315 44" enable-background="new 0 0 50.315 44" xml:space="preserve">
<g id="Layer_1">
</g>
<g id="Layer_10">
</g>
<g id="Layer_9">
	<rect x="8.405" y="4.11" fill="#007DC5" width="33.517" height="31.188"/>
	<path fill="none" stroke="#FFFFFF" stroke-width="0.703" d="M39.459,34.478c0.907,0,1.642-0.735,1.642-1.643V6.571
		c0-0.906-0.735-1.642-1.642-1.642H10.867c-0.907,0-1.642,0.735-1.642,1.642v26.264c0,0.907,0.735,1.643,1.642,1.643H39.459z"/>
	<path fill="#FFFFFF" d="M26.539,31.686v-17.02l2.072,0.481c0.501,0.198,0.896-0.061,0.613-0.546l-3.161-4.54
		c-0.286-0.405-0.527-0.405-0.813,0l-3.161,4.54c-0.283,0.485,0.112,0.744,0.613,0.546l2.072-0.481v17.02H26.539z"/>
	<path fill="#FFFFFF" d="M18.112,20.569l-1.806-1.124c-0.494-0.216-0.59-0.678-0.047-0.819l5.445-0.976
		c0.489-0.085,0.66,0.086,0.575,0.574l-0.976,5.446c-0.142,0.542-0.604,0.447-0.819-0.048l-1.124-1.806l-2.787,2.787l0.008,0.008
		v7.073h-1.765V23.86L18.112,20.569z"/>
	<path fill="#FFFFFF" d="M35.871,31.686v-17.02l2.072,0.481c0.501,0.198,0.896-0.061,0.613-0.546l-3.161-4.54
		c-0.286-0.405-0.527-0.405-0.813,0l-3.161,4.54c-0.283,0.485,0.112,0.744,0.613,0.546l2.072-0.481v17.02H35.871z"/>
	<rect fill="none" width="50.315" height="44"/>
</g>
<g id="Layer_8">
</g>
<g id="Layer_7">
</g>
<g id="Layer_6">
</g>
<g id="Layer_5">
</g>
<g id="Layer_4">
</g>
<g id="Layer_3">
</g>
<g id="Layer_2">
</g>
</svg>
