<?xml version="1.0" encoding="utf-8"?>
<!-- Generator: Adobe Illustrator 16.0.0, SVG Export Plug-In . SVG Version: 6.00 Build 0)  -->
<!DOCTYPE svg PUBLIC "-//W3C//DTD SVG 1.1//EN" "http://www.w3.org/Graphics/SVG/1.1/DTD/svg11.dtd">
<svg version="1.1" xmlns="http://www.w3.org/2000/svg" xmlns:xlink="http://www.w3.org/1999/xlink" x="0px" y="0px"
	 width="50.314px" height="44px" viewBox="0 0 50.314 44" enable-background="new 0 0 50.314 44" xml:space="preserve">
<g id="Layer_1">
</g>
<g id="Layer_10">
</g>
<g id="Layer_9">
</g>
<g id="Layer_8">
	<rect x="0.011" y="4.03" fill="#007DC5" width="50.229" height="31.189"/>
	<path fill="none" stroke="#FFFFFF" stroke-width="0.703" d="M46.55,34.398c1.359,0,2.46-0.735,2.46-1.643V6.492
		c0-0.906-1.101-1.642-2.46-1.642H3.7c-1.359,0-2.46,0.735-2.46,1.642v26.264c0,0.907,1.101,1.643,2.46,1.643H46.55z"/>
	<path fill="#FFFFFF" d="M19.994,30.783V13.763l2.072,0.482c0.501,0.198,0.896-0.061,0.613-0.546l-3.161-4.54
		c-0.286-0.406-0.527-0.406-0.813,0l-3.16,4.54c-0.283,0.485,0.111,0.744,0.612,0.546l2.072-0.482v17.021H19.994z"/>
	<path fill="#FFFFFF" d="M10.687,30.791v-17.02l2.072,0.481c0.501,0.198,0.896-0.061,0.612-0.546l-3.16-4.54
		c-0.286-0.406-0.527-0.406-0.813,0l-3.161,4.54c-0.283,0.485,0.112,0.744,0.613,0.546l2.072-0.481v17.02H10.687z"/>
	<path fill="#FFFFFF" d="M29.523,30.791v-17.02l2.072,0.481c0.501,0.198,0.896-0.061,0.613-0.546l-3.161-4.54
		c-0.286-0.406-0.527-0.406-0.813,0l-3.161,4.54c-0.283,0.485,0.111,0.744,0.612,0.546l2.072-0.481v17.02H29.523z"/>
	<path fill="#FFFFFF" d="M40.552,14.235l-1.807-1.124c-0.495-0.215-0.59-0.677-0.047-0.818l5.445-0.977
		c0.488-0.085,0.66,0.086,0.575,0.575l-0.977,5.445c-0.142,0.543-0.604,0.448-0.819-0.047l-1.124-1.807l-2.786,2.788l0.008,0.007
		v12.514h-1.766V17.526L40.552,14.235z"/>
	<rect y="4.008" fill="none" width="50.314" height="44"/>
</g>
<g id="Layer_7">
</g>
<g id="Layer_6">
</g>
<g id="Layer_5">
</g>
<g id="Layer_4">
</g>
<g id="Layer_3">
</g>
<g id="Layer_2">
</g>
</svg>
