<?xml version="1.0" encoding="utf-8"?>
<!-- Generator: Adobe Illustrator 16.0.0, SVG Export Plug-In . SVG Version: 6.00 Build 0)  -->
<!DOCTYPE svg PUBLIC "-//W3C//DTD SVG 1.1//EN" "http://www.w3.org/Graphics/SVG/1.1/DTD/svg11.dtd">
<svg version="1.1" xmlns="http://www.w3.org/2000/svg" xmlns:xlink="http://www.w3.org/1999/xlink" x="0px" y="0px"
	 width="50.315px" height="44px" viewBox="0 0 50.315 44" enable-background="new 0 0 50.315 44" xml:space="preserve">
<g id="Layer_1">
</g>
<g id="Layer_10">
</g>
<g id="Layer_9">
</g>
<g id="Layer_8">
</g>
<g id="Layer_7">
	<rect x="8.333" y="4.162" fill="#007DC5" width="33.518" height="31.189"/>
	<path fill="none" stroke="#FFFFFF" stroke-width="0.703" d="M39.387,34.529c0.907,0,1.643-0.734,1.643-1.642V6.624
		c0-0.906-0.735-1.642-1.643-1.642H10.795c-0.907,0-1.642,0.735-1.642,1.642v26.264c0,0.907,0.734,1.642,1.642,1.642H39.387z"/>
	<path fill="#FFFFFF" d="M25.975,30.915V13.895l2.071,0.482c0.501,0.198,0.896-0.062,0.613-0.546l-3.161-4.54
		c-0.286-0.406-0.527-0.406-0.813,0l-3.161,4.54c-0.283,0.484,0.111,0.744,0.612,0.546l2.072-0.482v17.021H25.975z"/>
	<path fill="#FFFFFF" d="M16.666,30.923V13.902l2.072,0.482c0.501,0.198,0.896-0.061,0.613-0.546l-3.161-4.54
		c-0.286-0.406-0.527-0.406-0.813,0l-3.161,4.54c-0.282,0.485,0.112,0.744,0.613,0.546l2.072-0.482v17.021H16.666z"/>
	<path fill="#FFFFFF" d="M35.504,30.923V13.902l2.071,0.482c0.501,0.198,0.896-0.061,0.613-0.546l-3.161-4.54
		c-0.286-0.406-0.526-0.406-0.813,0l-3.161,4.54c-0.283,0.485,0.112,0.744,0.613,0.546l2.071-0.482v17.021H35.504z"/>
	<rect fill="none" width="50.315" height="44"/>
</g>
<g id="Layer_6">
</g>
<g id="Layer_5">
</g>
<g id="Layer_4">
</g>
<g id="Layer_3">
</g>
<g id="Layer_2">
</g>
</svg>
